M48
; DRILL file {KiCad 9.0.0} date 2025-03-09T14:03:36+0100
; FORMAT={-:-/ absolute / metric / decimal}
; #@! TF.CreationDate,2025-03-09T14:03:36+01:00
; #@! TF.GenerationSoftware,Kicad,Pcbnew,9.0.0
; #@! TF.FileFunction,Plated,1,2,PTH
FMAT,2
METRIC
; #@! TA.AperFunction,Plated,PTH,ViaDrill
T1C0.250
; #@! TA.AperFunction,Plated,PTH,ViaDrill
T2C0.300
; #@! TA.AperFunction,Plated,PTH,ComponentDrill
T3C0.550
; #@! TA.AperFunction,Plated,PTH,ComponentDrill
T4C0.850
; #@! TA.AperFunction,Plated,PTH,ComponentDrill
T5C1.000
; #@! TA.AperFunction,Plated,PTH,ComponentDrill
T6C1.190
; #@! TA.AperFunction,Plated,PTH,ComponentDrill
T7C1.200
; #@! TA.AperFunction,Plated,PTH,ComponentDrill
T8C1.700
; #@! TA.AperFunction,Plated,PTH,ComponentDrill
T9C3.200
%
G90
G05
T1
X87.63Y-136.398
X87.63Y-137.16
X87.63Y-137.922
X119.661Y-103.816
X121.385Y-103.816
X121.385Y-105.34
X122.555Y-105.848
X122.555Y-109.815
X125.798Y-105.027
X126.647Y-112.673
X126.873Y-106.864
X127.026Y-104.197
X128.322Y-111.182
X128.651Y-102.8
X129.667Y-105.848
X130.265Y-108.385
X130.683Y-102.8
X131.15Y-113.284
X131.953Y-109.658
X132.819Y-100.768
X133.072Y-109.658
X133.096Y-113.214
X133.731Y-102.292
X133.731Y-107.217
X134.239Y-105.594
X135.255Y-102.546
X135.89Y-105.664
X136.535Y-123.698
X137.08Y-102.546
X138.049Y-116.77
X138.049Y-119.056
X138.176Y-113.03
X139.7Y-107.442
T2
X80.772Y-106.15
X81.534Y-109.982
X85.177Y-102.87
X85.177Y-108.458
X86.106Y-99.822
X88.392Y-134.112
X90.17Y-131.826
X90.17Y-159.512
X93.472Y-124.968
X93.568Y-104.236
X93.726Y-100.568
X94.742Y-117.856
X94.794Y-110.49
X94.996Y-100.584
X95.758Y-124.968
X96.52Y-98.568
X96.52Y-100.568
X96.52Y-165.608
X97.028Y-107.188
X97.282Y-112.188
X97.282Y-115.316
X97.79Y-97.79
X98.552Y-125.222
X99.949Y-118.491
X100.838Y-119.126
X101.092Y-125.222
X101.092Y-133.604
X101.398Y-101.092
X102.108Y-119.634
X102.362Y-113.792
X102.922Y-107.95
X102.922Y-109.878
X103.075Y-102.87
X103.378Y-115.824
X103.465Y-120.348
X104.049Y-97.761
X104.133Y-99.111
X104.14Y-114.046
X104.394Y-115.15
X104.394Y-118.618
X104.7Y-102.87
X104.954Y-107.188
X104.989Y-116.84
X105.41Y-121.666
X105.715Y-119.431
X106.172Y-165.608
X106.76Y-121.685
X107.348Y-99.022
X107.442Y-129.794
X107.442Y-133.604
X107.529Y-114.3
X107.529Y-115.824
X107.921Y-123.264
X108.053Y-102.87
X108.097Y-109.982
X108.103Y-104.648
X108.458Y-117.856
X108.712Y-116.84
X108.899Y-121.805
X108.966Y-120.65
X109.06Y-98.178
X109.144Y-119.014
X109.878Y-102.87
X109.88Y-109.982
X110.163Y-123.066
X111.162Y-112.686
X111.383Y-116.609
X112.027Y-114.033
X113.538Y-99.06
X113.59Y-101.092
X113.792Y-102.108
X113.874Y-107.407
X113.971Y-112.343
X114.693Y-107.342
X114.701Y-109.248
X115.316Y-128.524
X115.57Y-97.536
X115.799Y-107.327
X115.824Y-99.06
X115.824Y-100.076
X116.788Y-103.378
X117.094Y-133.858
X118.618Y-97.028
X119.634Y-165.608
X121.92Y-133.35
X121.92Y-135.636
X123.952Y-119.126
X125.386Y-126.238
X126.492Y-129.794
X126.818Y-125.61
X127.508Y-134.874
X127.56Y-113.317
X129.286Y-125.222
X130.048Y-123.865
X132.334Y-123.698
X132.588Y-165.608
X134.62Y-123.698
X134.62Y-129.286
X137.414Y-129.032
X139.752Y-112.014
X140.105Y-104.14
T5
X92.202Y-134.859
X92.202Y-137.399
X92.202Y-139.939
X92.202Y-142.479
X92.202Y-145.019
X92.202Y-147.559
X92.202Y-150.099
X92.202Y-152.639
X104.902Y-134.859
X104.902Y-137.399
X104.902Y-139.939
X104.902Y-142.479
X104.902Y-145.019
X104.902Y-147.559
X104.902Y-150.099
X104.902Y-152.639
X111.51Y-134.861
X111.51Y-137.401
X111.51Y-139.941
X111.51Y-142.481
X111.51Y-145.021
X111.51Y-147.561
X111.51Y-150.101
X111.51Y-152.641
X123.825Y-96.958
X124.21Y-134.861
X124.21Y-137.401
X124.21Y-139.941
X124.21Y-142.481
X124.21Y-145.021
X124.21Y-147.561
X124.21Y-150.101
X124.21Y-152.641
X126.365Y-96.958
X128.905Y-96.958
X130.81Y-134.856
X130.81Y-137.396
X130.81Y-139.936
X130.81Y-142.476
X130.81Y-145.016
X130.81Y-147.556
X130.81Y-150.096
X130.81Y-152.636
X131.445Y-96.958
X133.985Y-96.958
X136.525Y-96.958
X143.51Y-134.856
X143.51Y-137.396
X143.51Y-139.936
X143.51Y-142.476
X143.51Y-145.016
X143.51Y-147.556
X143.51Y-150.096
X143.51Y-152.636
T6
X88.9Y-101.6
X88.9Y-104.14
X88.9Y-106.68
X88.9Y-109.22
X88.9Y-111.76
X88.9Y-114.3
X88.9Y-116.84
X92.202Y-126.746
X94.742Y-126.746
X95.25Y-158.242
X97.282Y-126.746
X97.79Y-158.242
X99.822Y-126.746
X100.33Y-158.242
X102.362Y-126.746
X102.87Y-158.242
X111.51Y-126.748
X114.05Y-126.748
X114.558Y-158.244
X114.935Y-117.024
X116.59Y-126.748
X117.098Y-158.244
X117.475Y-117.024
X119.13Y-126.748
X119.638Y-158.244
X120.015Y-117.024
X121.67Y-126.748
X122.178Y-158.244
X122.555Y-117.024
X125.095Y-117.024
X127.635Y-117.024
X130.175Y-117.024
X130.81Y-126.743
X132.842Y-158.239
X133.35Y-126.743
X135.382Y-158.239
X135.89Y-126.743
X137.922Y-158.239
X138.43Y-126.743
X140.462Y-158.239
X140.97Y-126.743
T7
X80.772Y-139.7
X80.772Y-142.2
X80.772Y-144.7
X80.772Y-147.2
X83.272Y-139.7
X83.272Y-142.2
X83.272Y-144.7
X83.272Y-147.2
T8
X83.058Y-123.952
X83.058Y-127.912
X83.058Y-153.266
X83.058Y-157.226
T9
X79.502Y-97.028
X80.01Y-163.576
X144.78Y-97.028
X145.034Y-163.576
T3
G00X146.158Y-101.794
M15
G01X146.808Y-101.794
M16
G05
G00X146.158Y-109.544
M15
G01X146.808Y-109.544
M16
G05
T4
G00X142.408Y-101.944
M15
G01X142.958Y-101.944
M16
G05
G00X142.408Y-109.394
M15
G01X142.958Y-109.394
M16
G05
M30
