%TF.GenerationSoftware,KiCad,Pcbnew,9.0.0*%
%TF.CreationDate,2025-03-09T13:47:22+01:00*%
%TF.ProjectId,Carte_moteur,43617274-655f-46d6-9f74-6575722e6b69,rev?*%
%TF.SameCoordinates,Original*%
%TF.FileFunction,Paste,Top*%
%TF.FilePolarity,Positive*%
%FSLAX46Y46*%
G04 Gerber Fmt 4.6, Leading zero omitted, Abs format (unit mm)*
G04 Created by KiCad (PCBNEW 9.0.0) date 2025-03-09 13:47:22*
%MOMM*%
%LPD*%
G01*
G04 APERTURE LIST*
G04 Aperture macros list*
%AMRoundRect*
0 Rectangle with rounded corners*
0 $1 Rounding radius*
0 $2 $3 $4 $5 $6 $7 $8 $9 X,Y pos of 4 corners*
0 Add a 4 corners polygon primitive as box body*
4,1,4,$2,$3,$4,$5,$6,$7,$8,$9,$2,$3,0*
0 Add four circle primitives for the rounded corners*
1,1,$1+$1,$2,$3*
1,1,$1+$1,$4,$5*
1,1,$1+$1,$6,$7*
1,1,$1+$1,$8,$9*
0 Add four rect primitives between the rounded corners*
20,1,$1+$1,$2,$3,$4,$5,0*
20,1,$1+$1,$4,$5,$6,$7,0*
20,1,$1+$1,$6,$7,$8,$9,0*
20,1,$1+$1,$8,$9,$2,$3,0*%
G04 Aperture macros list end*
%ADD10RoundRect,0.250000X-0.325000X-0.450000X0.325000X-0.450000X0.325000X0.450000X-0.325000X0.450000X0*%
%ADD11RoundRect,0.237500X0.237500X-0.250000X0.237500X0.250000X-0.237500X0.250000X-0.237500X-0.250000X0*%
%ADD12RoundRect,0.237500X0.300000X0.237500X-0.300000X0.237500X-0.300000X-0.237500X0.300000X-0.237500X0*%
%ADD13RoundRect,0.237500X0.250000X0.237500X-0.250000X0.237500X-0.250000X-0.237500X0.250000X-0.237500X0*%
%ADD14RoundRect,0.237500X-0.250000X-0.237500X0.250000X-0.237500X0.250000X0.237500X-0.250000X0.237500X0*%
%ADD15R,1.200000X1.200000*%
%ADD16RoundRect,0.250000X0.337500X0.475000X-0.337500X0.475000X-0.337500X-0.475000X0.337500X-0.475000X0*%
%ADD17RoundRect,0.237500X-0.237500X0.250000X-0.237500X-0.250000X0.237500X-0.250000X0.237500X0.250000X0*%
%ADD18RoundRect,0.250000X0.475000X-0.337500X0.475000X0.337500X-0.475000X0.337500X-0.475000X-0.337500X0*%
%ADD19RoundRect,0.375000X-0.375000X0.625000X-0.375000X-0.625000X0.375000X-0.625000X0.375000X0.625000X0*%
%ADD20RoundRect,0.500000X-1.400000X0.500000X-1.400000X-0.500000X1.400000X-0.500000X1.400000X0.500000X0*%
%ADD21R,1.300000X0.450000*%
%ADD22RoundRect,0.250000X0.450000X-0.350000X0.450000X0.350000X-0.450000X0.350000X-0.450000X-0.350000X0*%
%ADD23RoundRect,0.075000X-0.662500X-0.075000X0.662500X-0.075000X0.662500X0.075000X-0.662500X0.075000X0*%
%ADD24RoundRect,0.075000X-0.075000X-0.662500X0.075000X-0.662500X0.075000X0.662500X-0.075000X0.662500X0*%
%ADD25RoundRect,0.075000X-0.075000X0.700000X-0.075000X-0.700000X0.075000X-0.700000X0.075000X0.700000X0*%
%ADD26RoundRect,0.075000X-0.700000X0.075000X-0.700000X-0.075000X0.700000X-0.075000X0.700000X0.075000X0*%
%ADD27RoundRect,0.062500X-0.350000X-0.062500X0.350000X-0.062500X0.350000X0.062500X-0.350000X0.062500X0*%
%ADD28RoundRect,0.250000X0.325000X0.450000X-0.325000X0.450000X-0.325000X-0.450000X0.325000X-0.450000X0*%
%ADD29RoundRect,0.375000X0.625000X0.375000X-0.625000X0.375000X-0.625000X-0.375000X0.625000X-0.375000X0*%
%ADD30RoundRect,0.500000X0.500000X1.400000X-0.500000X1.400000X-0.500000X-1.400000X0.500000X-1.400000X0*%
%TA.AperFunction,Profile*%
%ADD31C,0.050000*%
%TD*%
G04 APERTURE END LIST*
D10*
%TO.C,D609*%
X80255000Y-134874000D03*
X82305000Y-134874000D03*
%TD*%
D11*
%TO.C,R515*%
X98096000Y-110386500D03*
X98096000Y-108561500D03*
%TD*%
D12*
%TO.C,C609*%
X121385500Y-103816000D03*
X119660500Y-103816000D03*
%TD*%
D13*
%TO.C,R601*%
X140104500Y-104140000D03*
X138279500Y-104140000D03*
%TD*%
%TO.C,R620*%
X87018500Y-132588000D03*
X85193500Y-132588000D03*
%TD*%
%TO.C,R618*%
X105052500Y-96266000D03*
X103227500Y-96266000D03*
%TD*%
D14*
%TO.C,R617*%
X107545500Y-96266000D03*
X109370500Y-96266000D03*
%TD*%
D15*
%TO.C,D602*%
X137030000Y-109474000D03*
X139830000Y-109474000D03*
%TD*%
D14*
%TO.C,R512*%
X99163500Y-98552000D03*
X100988500Y-98552000D03*
%TD*%
D10*
%TO.C,D608*%
X80255000Y-132596000D03*
X82305000Y-132596000D03*
%TD*%
D16*
%TO.C,C601*%
X135201500Y-111944000D03*
X133126500Y-111944000D03*
%TD*%
D14*
%TO.C,R610*%
X129262500Y-112071000D03*
X131087500Y-112071000D03*
%TD*%
D13*
%TO.C,R517*%
X116788500Y-104140000D03*
X114963500Y-104140000D03*
%TD*%
D17*
%TO.C,R607*%
X122047000Y-106967500D03*
X122047000Y-108792500D03*
%TD*%
D10*
%TO.C,D603*%
X142358000Y-116078000D03*
X144408000Y-116078000D03*
%TD*%
D18*
%TO.C,C105*%
X82296000Y-108225500D03*
X82296000Y-106150500D03*
%TD*%
D13*
%TO.C,R614*%
X121435500Y-100006000D03*
X119610500Y-100006000D03*
%TD*%
%TO.C,R516*%
X116788500Y-102616000D03*
X114963500Y-102616000D03*
%TD*%
D19*
%TO.C,U101*%
X83834000Y-111658000D03*
X81534000Y-111658000D03*
D20*
X81534000Y-117958000D03*
D19*
X79234000Y-111658000D03*
%TD*%
D10*
%TO.C,D606*%
X98035000Y-96266000D03*
X100085000Y-96266000D03*
%TD*%
D13*
%TO.C,R602*%
X140104500Y-106172000D03*
X138279500Y-106172000D03*
%TD*%
%TO.C,R616*%
X144041500Y-112014000D03*
X142216500Y-112014000D03*
%TD*%
D14*
%TO.C,R615*%
X142113000Y-117856000D03*
X143938000Y-117856000D03*
%TD*%
D21*
%TO.C,J602*%
X142633000Y-106969000D03*
X142633000Y-106319000D03*
X142633000Y-105669000D03*
X142633000Y-105019000D03*
X142633000Y-104369000D03*
%TD*%
D11*
%TO.C,R608*%
X120269000Y-108792500D03*
X120269000Y-106967500D03*
%TD*%
D13*
%TO.C,R513*%
X116788500Y-105918000D03*
X114963500Y-105918000D03*
%TD*%
D22*
%TO.C,R519*%
X96520000Y-100568000D03*
X96520000Y-98568000D03*
%TD*%
D23*
%TO.C,U603*%
X124234500Y-102717000D03*
X124234500Y-103217000D03*
X124234500Y-103717000D03*
X124234500Y-104217000D03*
X124234500Y-104717000D03*
X124234500Y-105217000D03*
X124234500Y-105717000D03*
X124234500Y-106217000D03*
X124234500Y-106717000D03*
X124234500Y-107217000D03*
X124234500Y-107717000D03*
X124234500Y-108217000D03*
D24*
X125647000Y-109629500D03*
X126147000Y-109629500D03*
X126647000Y-109629500D03*
X127147000Y-109629500D03*
X127647000Y-109629500D03*
X128147000Y-109629500D03*
X128647000Y-109629500D03*
X129147000Y-109629500D03*
X129647000Y-109629500D03*
X130147000Y-109629500D03*
X130647000Y-109629500D03*
X131147000Y-109629500D03*
D23*
X132559500Y-108217000D03*
X132559500Y-107717000D03*
X132559500Y-107217000D03*
X132559500Y-106717000D03*
X132559500Y-106217000D03*
X132559500Y-105717000D03*
X132559500Y-105217000D03*
X132559500Y-104717000D03*
X132559500Y-104217000D03*
X132559500Y-103717000D03*
X132559500Y-103217000D03*
X132559500Y-102717000D03*
D24*
X131147000Y-101304500D03*
X130647000Y-101304500D03*
X130147000Y-101304500D03*
X129647000Y-101304500D03*
X129147000Y-101304500D03*
X128647000Y-101304500D03*
X128147000Y-101304500D03*
X127647000Y-101304500D03*
X127147000Y-101304500D03*
X126647000Y-101304500D03*
X126147000Y-101304500D03*
X125647000Y-101304500D03*
%TD*%
D25*
%TO.C,U501*%
X110421998Y-100838000D03*
X109921999Y-100838000D03*
X109421999Y-100838000D03*
X108921999Y-100838000D03*
X108421999Y-100838000D03*
X107921998Y-100838000D03*
X107421999Y-100838000D03*
X106921999Y-100838000D03*
X106421999Y-100838000D03*
X105921999Y-100838000D03*
X105422000Y-100838000D03*
X104921999Y-100838000D03*
X104421999Y-100838000D03*
X103921999Y-100838000D03*
X103421999Y-100838000D03*
X102922000Y-100838000D03*
D26*
X100996999Y-102763001D03*
X100996999Y-103263000D03*
X100996999Y-103763000D03*
X100996999Y-104263000D03*
X100996999Y-104763000D03*
X100996999Y-105263001D03*
X100996999Y-105763000D03*
X100996999Y-106263000D03*
X100996999Y-106763000D03*
X100996999Y-107263000D03*
X100996999Y-107762999D03*
X100996999Y-108263000D03*
X100996999Y-108763000D03*
X100996999Y-109263000D03*
X100996999Y-109763000D03*
X100996999Y-110262999D03*
D25*
X102922000Y-112188000D03*
X103421999Y-112188000D03*
X103921999Y-112188000D03*
X104421999Y-112188000D03*
X104921999Y-112188000D03*
X105422000Y-112188000D03*
X105921999Y-112188000D03*
X106421999Y-112188000D03*
X106921999Y-112188000D03*
X107421999Y-112188000D03*
X107921998Y-112188000D03*
X108421999Y-112188000D03*
X108921999Y-112188000D03*
X109421999Y-112188000D03*
X109921999Y-112188000D03*
X110421998Y-112188000D03*
D26*
X112346999Y-110262999D03*
X112346999Y-109763000D03*
X112346999Y-109263000D03*
X112346999Y-108763000D03*
X112346999Y-108263000D03*
X112346999Y-107762999D03*
X112346999Y-107263000D03*
X112346999Y-106763000D03*
X112346999Y-106263000D03*
X112346999Y-105763000D03*
X112346999Y-105263001D03*
X112346999Y-104763000D03*
X112346999Y-104263000D03*
X112346999Y-103763000D03*
X112346999Y-103263000D03*
X112346999Y-102763001D03*
%TD*%
D27*
%TO.C,U601*%
X135202500Y-104205000D03*
X135202500Y-104705000D03*
X135202500Y-105205000D03*
X136577500Y-105205000D03*
X136577500Y-104705000D03*
X136577500Y-104205000D03*
%TD*%
D13*
%TO.C,R613*%
X121435500Y-101784000D03*
X119610500Y-101784000D03*
%TD*%
D11*
%TO.C,R514*%
X96064000Y-110386500D03*
X96064000Y-108561500D03*
%TD*%
D28*
%TO.C,D605*%
X113801000Y-96266000D03*
X111751000Y-96266000D03*
%TD*%
D15*
%TO.C,D601*%
X137082000Y-112014000D03*
X139882000Y-112014000D03*
%TD*%
D28*
%TO.C,D604*%
X144408000Y-113792000D03*
X142358000Y-113792000D03*
%TD*%
D13*
%TO.C,R621*%
X87018500Y-134874000D03*
X85193500Y-134874000D03*
%TD*%
D22*
%TO.C,R518*%
X93726000Y-100568000D03*
X93726000Y-98568000D03*
%TD*%
D13*
%TO.C,R611*%
X134897500Y-109658000D03*
X133072500Y-109658000D03*
%TD*%
D12*
%TO.C,C608*%
X121385500Y-105340000D03*
X119660500Y-105340000D03*
%TD*%
D29*
%TO.C,U602*%
X139675000Y-119126000D03*
X139675000Y-116826000D03*
D30*
X133375000Y-116826000D03*
D29*
X139675000Y-114526000D03*
%TD*%
D18*
%TO.C,C103*%
X79248000Y-108225500D03*
X79248000Y-106150500D03*
%TD*%
D31*
X75946000Y-93472000D02*
X148590000Y-93472000D01*
X148590000Y-167132000D01*
X75946000Y-167132000D01*
X75946000Y-93472000D01*
M02*
