%TF.GenerationSoftware,KiCad,Pcbnew,9.0.0*%
%TF.CreationDate,2025-03-09T13:47:22+01:00*%
%TF.ProjectId,Carte_moteur,43617274-655f-46d6-9f74-6575722e6b69,rev?*%
%TF.SameCoordinates,Original*%
%TF.FileFunction,Legend,Top*%
%TF.FilePolarity,Positive*%
%FSLAX46Y46*%
G04 Gerber Fmt 4.6, Leading zero omitted, Abs format (unit mm)*
G04 Created by KiCad (PCBNEW 9.0.0) date 2025-03-09 13:47:22*
%MOMM*%
%LPD*%
G01*
G04 APERTURE LIST*
%ADD10C,0.100000*%
%ADD11C,0.150000*%
%ADD12C,0.120000*%
%TA.AperFunction,Profile*%
%ADD13C,0.050000*%
%TD*%
G04 APERTURE END LIST*
D10*
X87640074Y-98982371D02*
X87568646Y-99053800D01*
X87568646Y-99053800D02*
X87354360Y-99125228D01*
X87354360Y-99125228D02*
X87211503Y-99125228D01*
X87211503Y-99125228D02*
X86997217Y-99053800D01*
X86997217Y-99053800D02*
X86854360Y-98910942D01*
X86854360Y-98910942D02*
X86782931Y-98768085D01*
X86782931Y-98768085D02*
X86711503Y-98482371D01*
X86711503Y-98482371D02*
X86711503Y-98268085D01*
X86711503Y-98268085D02*
X86782931Y-97982371D01*
X86782931Y-97982371D02*
X86854360Y-97839514D01*
X86854360Y-97839514D02*
X86997217Y-97696657D01*
X86997217Y-97696657D02*
X87211503Y-97625228D01*
X87211503Y-97625228D02*
X87354360Y-97625228D01*
X87354360Y-97625228D02*
X87568646Y-97696657D01*
X87568646Y-97696657D02*
X87640074Y-97768085D01*
X88568646Y-97625228D02*
X88854360Y-97625228D01*
X88854360Y-97625228D02*
X88997217Y-97696657D01*
X88997217Y-97696657D02*
X89140074Y-97839514D01*
X89140074Y-97839514D02*
X89211503Y-98125228D01*
X89211503Y-98125228D02*
X89211503Y-98625228D01*
X89211503Y-98625228D02*
X89140074Y-98910942D01*
X89140074Y-98910942D02*
X88997217Y-99053800D01*
X88997217Y-99053800D02*
X88854360Y-99125228D01*
X88854360Y-99125228D02*
X88568646Y-99125228D01*
X88568646Y-99125228D02*
X88425789Y-99053800D01*
X88425789Y-99053800D02*
X88282931Y-98910942D01*
X88282931Y-98910942D02*
X88211503Y-98625228D01*
X88211503Y-98625228D02*
X88211503Y-98125228D01*
X88211503Y-98125228D02*
X88282931Y-97839514D01*
X88282931Y-97839514D02*
X88425789Y-97696657D01*
X88425789Y-97696657D02*
X88568646Y-97625228D01*
X89854360Y-99125228D02*
X89854360Y-97625228D01*
X89854360Y-97625228D02*
X90354360Y-98696657D01*
X90354360Y-98696657D02*
X90854360Y-97625228D01*
X90854360Y-97625228D02*
X90854360Y-99125228D01*
X83726931Y-160823514D02*
X83941217Y-160894942D01*
X83941217Y-160894942D02*
X84012646Y-160966371D01*
X84012646Y-160966371D02*
X84084074Y-161109228D01*
X84084074Y-161109228D02*
X84084074Y-161323514D01*
X84084074Y-161323514D02*
X84012646Y-161466371D01*
X84012646Y-161466371D02*
X83941217Y-161537800D01*
X83941217Y-161537800D02*
X83798360Y-161609228D01*
X83798360Y-161609228D02*
X83226931Y-161609228D01*
X83226931Y-161609228D02*
X83226931Y-160109228D01*
X83226931Y-160109228D02*
X83726931Y-160109228D01*
X83726931Y-160109228D02*
X83869789Y-160180657D01*
X83869789Y-160180657D02*
X83941217Y-160252085D01*
X83941217Y-160252085D02*
X84012646Y-160394942D01*
X84012646Y-160394942D02*
X84012646Y-160537800D01*
X84012646Y-160537800D02*
X83941217Y-160680657D01*
X83941217Y-160680657D02*
X83869789Y-160752085D01*
X83869789Y-160752085D02*
X83726931Y-160823514D01*
X83726931Y-160823514D02*
X83226931Y-160823514D01*
X84655503Y-161180657D02*
X85369789Y-161180657D01*
X84512646Y-161609228D02*
X85012646Y-160109228D01*
X85012646Y-160109228D02*
X85512646Y-161609228D01*
X85798360Y-160109228D02*
X86655503Y-160109228D01*
X86226931Y-161609228D02*
X86226931Y-160109228D01*
X86941217Y-160109228D02*
X87798360Y-160109228D01*
X87369788Y-161609228D02*
X87369788Y-160109228D01*
X83480931Y-120881800D02*
X84623789Y-120881800D01*
X84052360Y-121453228D02*
X84052360Y-120310371D01*
X86052360Y-119953228D02*
X85338074Y-119953228D01*
X85338074Y-119953228D02*
X85266646Y-120667514D01*
X85266646Y-120667514D02*
X85338074Y-120596085D01*
X85338074Y-120596085D02*
X85480932Y-120524657D01*
X85480932Y-120524657D02*
X85838074Y-120524657D01*
X85838074Y-120524657D02*
X85980932Y-120596085D01*
X85980932Y-120596085D02*
X86052360Y-120667514D01*
X86052360Y-120667514D02*
X86123789Y-120810371D01*
X86123789Y-120810371D02*
X86123789Y-121167514D01*
X86123789Y-121167514D02*
X86052360Y-121310371D01*
X86052360Y-121310371D02*
X85980932Y-121381800D01*
X85980932Y-121381800D02*
X85838074Y-121453228D01*
X85838074Y-121453228D02*
X85480932Y-121453228D01*
X85480932Y-121453228D02*
X85338074Y-121381800D01*
X85338074Y-121381800D02*
X85266646Y-121310371D01*
X86552360Y-119953228D02*
X87052360Y-121453228D01*
X87052360Y-121453228D02*
X87552360Y-119953228D01*
D11*
X80736285Y-149574819D02*
X80736285Y-150289104D01*
X80736285Y-150289104D02*
X80688666Y-150431961D01*
X80688666Y-150431961D02*
X80593428Y-150527200D01*
X80593428Y-150527200D02*
X80450571Y-150574819D01*
X80450571Y-150574819D02*
X80355333Y-150574819D01*
X81736285Y-150574819D02*
X81164857Y-150574819D01*
X81450571Y-150574819D02*
X81450571Y-149574819D01*
X81450571Y-149574819D02*
X81355333Y-149717676D01*
X81355333Y-149717676D02*
X81260095Y-149812914D01*
X81260095Y-149812914D02*
X81164857Y-149860533D01*
X82355333Y-149574819D02*
X82450571Y-149574819D01*
X82450571Y-149574819D02*
X82545809Y-149622438D01*
X82545809Y-149622438D02*
X82593428Y-149670057D01*
X82593428Y-149670057D02*
X82641047Y-149765295D01*
X82641047Y-149765295D02*
X82688666Y-149955771D01*
X82688666Y-149955771D02*
X82688666Y-150193866D01*
X82688666Y-150193866D02*
X82641047Y-150384342D01*
X82641047Y-150384342D02*
X82593428Y-150479580D01*
X82593428Y-150479580D02*
X82545809Y-150527200D01*
X82545809Y-150527200D02*
X82450571Y-150574819D01*
X82450571Y-150574819D02*
X82355333Y-150574819D01*
X82355333Y-150574819D02*
X82260095Y-150527200D01*
X82260095Y-150527200D02*
X82212476Y-150479580D01*
X82212476Y-150479580D02*
X82164857Y-150384342D01*
X82164857Y-150384342D02*
X82117238Y-150193866D01*
X82117238Y-150193866D02*
X82117238Y-149955771D01*
X82117238Y-149955771D02*
X82164857Y-149765295D01*
X82164857Y-149765295D02*
X82212476Y-149670057D01*
X82212476Y-149670057D02*
X82260095Y-149622438D01*
X82260095Y-149622438D02*
X82355333Y-149574819D01*
X83641047Y-150574819D02*
X83069619Y-150574819D01*
X83355333Y-150574819D02*
X83355333Y-149574819D01*
X83355333Y-149574819D02*
X83260095Y-149717676D01*
X83260095Y-149717676D02*
X83164857Y-149812914D01*
X83164857Y-149812914D02*
X83069619Y-149860533D01*
X79589524Y-137106819D02*
X79589524Y-136106819D01*
X79589524Y-136106819D02*
X79827619Y-136106819D01*
X79827619Y-136106819D02*
X79970476Y-136154438D01*
X79970476Y-136154438D02*
X80065714Y-136249676D01*
X80065714Y-136249676D02*
X80113333Y-136344914D01*
X80113333Y-136344914D02*
X80160952Y-136535390D01*
X80160952Y-136535390D02*
X80160952Y-136678247D01*
X80160952Y-136678247D02*
X80113333Y-136868723D01*
X80113333Y-136868723D02*
X80065714Y-136963961D01*
X80065714Y-136963961D02*
X79970476Y-137059200D01*
X79970476Y-137059200D02*
X79827619Y-137106819D01*
X79827619Y-137106819D02*
X79589524Y-137106819D01*
X81018095Y-136106819D02*
X80827619Y-136106819D01*
X80827619Y-136106819D02*
X80732381Y-136154438D01*
X80732381Y-136154438D02*
X80684762Y-136202057D01*
X80684762Y-136202057D02*
X80589524Y-136344914D01*
X80589524Y-136344914D02*
X80541905Y-136535390D01*
X80541905Y-136535390D02*
X80541905Y-136916342D01*
X80541905Y-136916342D02*
X80589524Y-137011580D01*
X80589524Y-137011580D02*
X80637143Y-137059200D01*
X80637143Y-137059200D02*
X80732381Y-137106819D01*
X80732381Y-137106819D02*
X80922857Y-137106819D01*
X80922857Y-137106819D02*
X81018095Y-137059200D01*
X81018095Y-137059200D02*
X81065714Y-137011580D01*
X81065714Y-137011580D02*
X81113333Y-136916342D01*
X81113333Y-136916342D02*
X81113333Y-136678247D01*
X81113333Y-136678247D02*
X81065714Y-136583009D01*
X81065714Y-136583009D02*
X81018095Y-136535390D01*
X81018095Y-136535390D02*
X80922857Y-136487771D01*
X80922857Y-136487771D02*
X80732381Y-136487771D01*
X80732381Y-136487771D02*
X80637143Y-136535390D01*
X80637143Y-136535390D02*
X80589524Y-136583009D01*
X80589524Y-136583009D02*
X80541905Y-136678247D01*
X81732381Y-136106819D02*
X81827619Y-136106819D01*
X81827619Y-136106819D02*
X81922857Y-136154438D01*
X81922857Y-136154438D02*
X81970476Y-136202057D01*
X81970476Y-136202057D02*
X82018095Y-136297295D01*
X82018095Y-136297295D02*
X82065714Y-136487771D01*
X82065714Y-136487771D02*
X82065714Y-136725866D01*
X82065714Y-136725866D02*
X82018095Y-136916342D01*
X82018095Y-136916342D02*
X81970476Y-137011580D01*
X81970476Y-137011580D02*
X81922857Y-137059200D01*
X81922857Y-137059200D02*
X81827619Y-137106819D01*
X81827619Y-137106819D02*
X81732381Y-137106819D01*
X81732381Y-137106819D02*
X81637143Y-137059200D01*
X81637143Y-137059200D02*
X81589524Y-137011580D01*
X81589524Y-137011580D02*
X81541905Y-136916342D01*
X81541905Y-136916342D02*
X81494286Y-136725866D01*
X81494286Y-136725866D02*
X81494286Y-136487771D01*
X81494286Y-136487771D02*
X81541905Y-136297295D01*
X81541905Y-136297295D02*
X81589524Y-136202057D01*
X81589524Y-136202057D02*
X81637143Y-136154438D01*
X81637143Y-136154438D02*
X81732381Y-136106819D01*
X82541905Y-137106819D02*
X82732381Y-137106819D01*
X82732381Y-137106819D02*
X82827619Y-137059200D01*
X82827619Y-137059200D02*
X82875238Y-137011580D01*
X82875238Y-137011580D02*
X82970476Y-136868723D01*
X82970476Y-136868723D02*
X83018095Y-136678247D01*
X83018095Y-136678247D02*
X83018095Y-136297295D01*
X83018095Y-136297295D02*
X82970476Y-136202057D01*
X82970476Y-136202057D02*
X82922857Y-136154438D01*
X82922857Y-136154438D02*
X82827619Y-136106819D01*
X82827619Y-136106819D02*
X82637143Y-136106819D01*
X82637143Y-136106819D02*
X82541905Y-136154438D01*
X82541905Y-136154438D02*
X82494286Y-136202057D01*
X82494286Y-136202057D02*
X82446667Y-136297295D01*
X82446667Y-136297295D02*
X82446667Y-136535390D01*
X82446667Y-136535390D02*
X82494286Y-136630628D01*
X82494286Y-136630628D02*
X82541905Y-136678247D01*
X82541905Y-136678247D02*
X82637143Y-136725866D01*
X82637143Y-136725866D02*
X82827619Y-136725866D01*
X82827619Y-136725866D02*
X82922857Y-136678247D01*
X82922857Y-136678247D02*
X82970476Y-136630628D01*
X82970476Y-136630628D02*
X83018095Y-136535390D01*
X92636033Y-110120000D02*
X93136033Y-110120000D01*
X93136033Y-110120000D02*
X93236033Y-110153333D01*
X93236033Y-110153333D02*
X93302700Y-110220000D01*
X93302700Y-110220000D02*
X93336033Y-110320000D01*
X93336033Y-110320000D02*
X93336033Y-110386667D01*
X93336033Y-109420000D02*
X93336033Y-109820000D01*
X93336033Y-109620000D02*
X92636033Y-109620000D01*
X92636033Y-109620000D02*
X92736033Y-109686667D01*
X92736033Y-109686667D02*
X92802700Y-109753334D01*
X92802700Y-109753334D02*
X92836033Y-109820000D01*
X92636033Y-108986667D02*
X92636033Y-108920000D01*
X92636033Y-108920000D02*
X92669366Y-108853333D01*
X92669366Y-108853333D02*
X92702700Y-108820000D01*
X92702700Y-108820000D02*
X92769366Y-108786667D01*
X92769366Y-108786667D02*
X92902700Y-108753333D01*
X92902700Y-108753333D02*
X93069366Y-108753333D01*
X93069366Y-108753333D02*
X93202700Y-108786667D01*
X93202700Y-108786667D02*
X93269366Y-108820000D01*
X93269366Y-108820000D02*
X93302700Y-108853333D01*
X93302700Y-108853333D02*
X93336033Y-108920000D01*
X93336033Y-108920000D02*
X93336033Y-108986667D01*
X93336033Y-108986667D02*
X93302700Y-109053333D01*
X93302700Y-109053333D02*
X93269366Y-109086667D01*
X93269366Y-109086667D02*
X93202700Y-109120000D01*
X93202700Y-109120000D02*
X93069366Y-109153333D01*
X93069366Y-109153333D02*
X92902700Y-109153333D01*
X92902700Y-109153333D02*
X92769366Y-109120000D01*
X92769366Y-109120000D02*
X92702700Y-109086667D01*
X92702700Y-109086667D02*
X92669366Y-109053333D01*
X92669366Y-109053333D02*
X92636033Y-108986667D01*
X92636033Y-108153333D02*
X92636033Y-108286666D01*
X92636033Y-108286666D02*
X92669366Y-108353333D01*
X92669366Y-108353333D02*
X92702700Y-108386666D01*
X92702700Y-108386666D02*
X92802700Y-108453333D01*
X92802700Y-108453333D02*
X92936033Y-108486666D01*
X92936033Y-108486666D02*
X93202700Y-108486666D01*
X93202700Y-108486666D02*
X93269366Y-108453333D01*
X93269366Y-108453333D02*
X93302700Y-108420000D01*
X93302700Y-108420000D02*
X93336033Y-108353333D01*
X93336033Y-108353333D02*
X93336033Y-108220000D01*
X93336033Y-108220000D02*
X93302700Y-108153333D01*
X93302700Y-108153333D02*
X93269366Y-108120000D01*
X93269366Y-108120000D02*
X93202700Y-108086666D01*
X93202700Y-108086666D02*
X93036033Y-108086666D01*
X93036033Y-108086666D02*
X92969366Y-108120000D01*
X92969366Y-108120000D02*
X92936033Y-108153333D01*
X92936033Y-108153333D02*
X92902700Y-108220000D01*
X92902700Y-108220000D02*
X92902700Y-108353333D01*
X92902700Y-108353333D02*
X92936033Y-108420000D01*
X92936033Y-108420000D02*
X92969366Y-108453333D01*
X92969366Y-108453333D02*
X93036033Y-108486666D01*
X97351999Y-139824033D02*
X97351999Y-140390700D01*
X97351999Y-140390700D02*
X97385333Y-140457366D01*
X97385333Y-140457366D02*
X97418666Y-140490700D01*
X97418666Y-140490700D02*
X97485333Y-140524033D01*
X97485333Y-140524033D02*
X97618666Y-140524033D01*
X97618666Y-140524033D02*
X97685333Y-140490700D01*
X97685333Y-140490700D02*
X97718666Y-140457366D01*
X97718666Y-140457366D02*
X97751999Y-140390700D01*
X97751999Y-140390700D02*
X97751999Y-139824033D01*
X98051999Y-139890700D02*
X98085332Y-139857366D01*
X98085332Y-139857366D02*
X98151999Y-139824033D01*
X98151999Y-139824033D02*
X98318666Y-139824033D01*
X98318666Y-139824033D02*
X98385332Y-139857366D01*
X98385332Y-139857366D02*
X98418666Y-139890700D01*
X98418666Y-139890700D02*
X98451999Y-139957366D01*
X98451999Y-139957366D02*
X98451999Y-140024033D01*
X98451999Y-140024033D02*
X98418666Y-140124033D01*
X98418666Y-140124033D02*
X98018666Y-140524033D01*
X98018666Y-140524033D02*
X98451999Y-140524033D01*
X98885333Y-139824033D02*
X98951999Y-139824033D01*
X98951999Y-139824033D02*
X99018666Y-139857366D01*
X99018666Y-139857366D02*
X99051999Y-139890700D01*
X99051999Y-139890700D02*
X99085333Y-139957366D01*
X99085333Y-139957366D02*
X99118666Y-140090700D01*
X99118666Y-140090700D02*
X99118666Y-140257366D01*
X99118666Y-140257366D02*
X99085333Y-140390700D01*
X99085333Y-140390700D02*
X99051999Y-140457366D01*
X99051999Y-140457366D02*
X99018666Y-140490700D01*
X99018666Y-140490700D02*
X98951999Y-140524033D01*
X98951999Y-140524033D02*
X98885333Y-140524033D01*
X98885333Y-140524033D02*
X98818666Y-140490700D01*
X98818666Y-140490700D02*
X98785333Y-140457366D01*
X98785333Y-140457366D02*
X98751999Y-140390700D01*
X98751999Y-140390700D02*
X98718666Y-140257366D01*
X98718666Y-140257366D02*
X98718666Y-140090700D01*
X98718666Y-140090700D02*
X98751999Y-139957366D01*
X98751999Y-139957366D02*
X98785333Y-139890700D01*
X98785333Y-139890700D02*
X98818666Y-139857366D01*
X98818666Y-139857366D02*
X98885333Y-139824033D01*
X99785333Y-140524033D02*
X99385333Y-140524033D01*
X99585333Y-140524033D02*
X99585333Y-139824033D01*
X99585333Y-139824033D02*
X99518666Y-139924033D01*
X99518666Y-139924033D02*
X99452000Y-139990700D01*
X99452000Y-139990700D02*
X99385333Y-140024033D01*
X101813904Y-145818180D02*
X101242476Y-145818180D01*
X101528190Y-144818180D02*
X101528190Y-145818180D01*
X100909142Y-144818180D02*
X100909142Y-145818180D01*
X100909142Y-145818180D02*
X100575809Y-145103895D01*
X100575809Y-145103895D02*
X100242476Y-145818180D01*
X100242476Y-145818180D02*
X100242476Y-144818180D01*
X99194857Y-144913419D02*
X99242476Y-144865800D01*
X99242476Y-144865800D02*
X99385333Y-144818180D01*
X99385333Y-144818180D02*
X99480571Y-144818180D01*
X99480571Y-144818180D02*
X99623428Y-144865800D01*
X99623428Y-144865800D02*
X99718666Y-144961038D01*
X99718666Y-144961038D02*
X99766285Y-145056276D01*
X99766285Y-145056276D02*
X99813904Y-145246752D01*
X99813904Y-145246752D02*
X99813904Y-145389609D01*
X99813904Y-145389609D02*
X99766285Y-145580085D01*
X99766285Y-145580085D02*
X99718666Y-145675323D01*
X99718666Y-145675323D02*
X99623428Y-145770561D01*
X99623428Y-145770561D02*
X99480571Y-145818180D01*
X99480571Y-145818180D02*
X99385333Y-145818180D01*
X99385333Y-145818180D02*
X99242476Y-145770561D01*
X99242476Y-145770561D02*
X99194857Y-145722942D01*
X98813904Y-145722942D02*
X98766285Y-145770561D01*
X98766285Y-145770561D02*
X98671047Y-145818180D01*
X98671047Y-145818180D02*
X98432952Y-145818180D01*
X98432952Y-145818180D02*
X98337714Y-145770561D01*
X98337714Y-145770561D02*
X98290095Y-145722942D01*
X98290095Y-145722942D02*
X98242476Y-145627704D01*
X98242476Y-145627704D02*
X98242476Y-145532466D01*
X98242476Y-145532466D02*
X98290095Y-145389609D01*
X98290095Y-145389609D02*
X98861523Y-144818180D01*
X98861523Y-144818180D02*
X98242476Y-144818180D01*
X97861523Y-145722942D02*
X97813904Y-145770561D01*
X97813904Y-145770561D02*
X97718666Y-145818180D01*
X97718666Y-145818180D02*
X97480571Y-145818180D01*
X97480571Y-145818180D02*
X97385333Y-145770561D01*
X97385333Y-145770561D02*
X97337714Y-145722942D01*
X97337714Y-145722942D02*
X97290095Y-145627704D01*
X97290095Y-145627704D02*
X97290095Y-145532466D01*
X97290095Y-145532466D02*
X97337714Y-145389609D01*
X97337714Y-145389609D02*
X97909142Y-144818180D01*
X97909142Y-144818180D02*
X97290095Y-144818180D01*
X96671047Y-145818180D02*
X96575809Y-145818180D01*
X96575809Y-145818180D02*
X96480571Y-145770561D01*
X96480571Y-145770561D02*
X96432952Y-145722942D01*
X96432952Y-145722942D02*
X96385333Y-145627704D01*
X96385333Y-145627704D02*
X96337714Y-145437228D01*
X96337714Y-145437228D02*
X96337714Y-145199133D01*
X96337714Y-145199133D02*
X96385333Y-145008657D01*
X96385333Y-145008657D02*
X96432952Y-144913419D01*
X96432952Y-144913419D02*
X96480571Y-144865800D01*
X96480571Y-144865800D02*
X96575809Y-144818180D01*
X96575809Y-144818180D02*
X96671047Y-144818180D01*
X96671047Y-144818180D02*
X96766285Y-144865800D01*
X96766285Y-144865800D02*
X96813904Y-144913419D01*
X96813904Y-144913419D02*
X96861523Y-145008657D01*
X96861523Y-145008657D02*
X96909142Y-145199133D01*
X96909142Y-145199133D02*
X96909142Y-145437228D01*
X96909142Y-145437228D02*
X96861523Y-145627704D01*
X96861523Y-145627704D02*
X96813904Y-145722942D01*
X96813904Y-145722942D02*
X96766285Y-145770561D01*
X96766285Y-145770561D02*
X96671047Y-145818180D01*
X95861523Y-144818180D02*
X95671047Y-144818180D01*
X95671047Y-144818180D02*
X95575809Y-144865800D01*
X95575809Y-144865800D02*
X95528190Y-144913419D01*
X95528190Y-144913419D02*
X95432952Y-145056276D01*
X95432952Y-145056276D02*
X95385333Y-145246752D01*
X95385333Y-145246752D02*
X95385333Y-145627704D01*
X95385333Y-145627704D02*
X95432952Y-145722942D01*
X95432952Y-145722942D02*
X95480571Y-145770561D01*
X95480571Y-145770561D02*
X95575809Y-145818180D01*
X95575809Y-145818180D02*
X95766285Y-145818180D01*
X95766285Y-145818180D02*
X95861523Y-145770561D01*
X95861523Y-145770561D02*
X95909142Y-145722942D01*
X95909142Y-145722942D02*
X95956761Y-145627704D01*
X95956761Y-145627704D02*
X95956761Y-145389609D01*
X95956761Y-145389609D02*
X95909142Y-145294371D01*
X95909142Y-145294371D02*
X95861523Y-145246752D01*
X95861523Y-145246752D02*
X95766285Y-145199133D01*
X95766285Y-145199133D02*
X95575809Y-145199133D01*
X95575809Y-145199133D02*
X95480571Y-145246752D01*
X95480571Y-145246752D02*
X95432952Y-145294371D01*
X95432952Y-145294371D02*
X95385333Y-145389609D01*
X98360033Y-106955333D02*
X98026700Y-107188666D01*
X98360033Y-107355333D02*
X97660033Y-107355333D01*
X97660033Y-107355333D02*
X97660033Y-107088666D01*
X97660033Y-107088666D02*
X97693366Y-107022000D01*
X97693366Y-107022000D02*
X97726700Y-106988666D01*
X97726700Y-106988666D02*
X97793366Y-106955333D01*
X97793366Y-106955333D02*
X97893366Y-106955333D01*
X97893366Y-106955333D02*
X97960033Y-106988666D01*
X97960033Y-106988666D02*
X97993366Y-107022000D01*
X97993366Y-107022000D02*
X98026700Y-107088666D01*
X98026700Y-107088666D02*
X98026700Y-107355333D01*
X97660033Y-106322000D02*
X97660033Y-106655333D01*
X97660033Y-106655333D02*
X97993366Y-106688666D01*
X97993366Y-106688666D02*
X97960033Y-106655333D01*
X97960033Y-106655333D02*
X97926700Y-106588666D01*
X97926700Y-106588666D02*
X97926700Y-106422000D01*
X97926700Y-106422000D02*
X97960033Y-106355333D01*
X97960033Y-106355333D02*
X97993366Y-106322000D01*
X97993366Y-106322000D02*
X98060033Y-106288666D01*
X98060033Y-106288666D02*
X98226700Y-106288666D01*
X98226700Y-106288666D02*
X98293366Y-106322000D01*
X98293366Y-106322000D02*
X98326700Y-106355333D01*
X98326700Y-106355333D02*
X98360033Y-106422000D01*
X98360033Y-106422000D02*
X98360033Y-106588666D01*
X98360033Y-106588666D02*
X98326700Y-106655333D01*
X98326700Y-106655333D02*
X98293366Y-106688666D01*
X98360033Y-105621999D02*
X98360033Y-106021999D01*
X98360033Y-105821999D02*
X97660033Y-105821999D01*
X97660033Y-105821999D02*
X97760033Y-105888666D01*
X97760033Y-105888666D02*
X97826700Y-105955333D01*
X97826700Y-105955333D02*
X97860033Y-106021999D01*
X97660033Y-104988666D02*
X97660033Y-105321999D01*
X97660033Y-105321999D02*
X97993366Y-105355332D01*
X97993366Y-105355332D02*
X97960033Y-105321999D01*
X97960033Y-105321999D02*
X97926700Y-105255332D01*
X97926700Y-105255332D02*
X97926700Y-105088666D01*
X97926700Y-105088666D02*
X97960033Y-105021999D01*
X97960033Y-105021999D02*
X97993366Y-104988666D01*
X97993366Y-104988666D02*
X98060033Y-104955332D01*
X98060033Y-104955332D02*
X98226700Y-104955332D01*
X98226700Y-104955332D02*
X98293366Y-104988666D01*
X98293366Y-104988666D02*
X98326700Y-105021999D01*
X98326700Y-105021999D02*
X98360033Y-105088666D01*
X98360033Y-105088666D02*
X98360033Y-105255332D01*
X98360033Y-105255332D02*
X98326700Y-105321999D01*
X98326700Y-105321999D02*
X98293366Y-105355332D01*
X119612666Y-97785366D02*
X119579333Y-97818700D01*
X119579333Y-97818700D02*
X119479333Y-97852033D01*
X119479333Y-97852033D02*
X119412666Y-97852033D01*
X119412666Y-97852033D02*
X119312666Y-97818700D01*
X119312666Y-97818700D02*
X119246000Y-97752033D01*
X119246000Y-97752033D02*
X119212666Y-97685366D01*
X119212666Y-97685366D02*
X119179333Y-97552033D01*
X119179333Y-97552033D02*
X119179333Y-97452033D01*
X119179333Y-97452033D02*
X119212666Y-97318700D01*
X119212666Y-97318700D02*
X119246000Y-97252033D01*
X119246000Y-97252033D02*
X119312666Y-97185366D01*
X119312666Y-97185366D02*
X119412666Y-97152033D01*
X119412666Y-97152033D02*
X119479333Y-97152033D01*
X119479333Y-97152033D02*
X119579333Y-97185366D01*
X119579333Y-97185366D02*
X119612666Y-97218700D01*
X120212666Y-97152033D02*
X120079333Y-97152033D01*
X120079333Y-97152033D02*
X120012666Y-97185366D01*
X120012666Y-97185366D02*
X119979333Y-97218700D01*
X119979333Y-97218700D02*
X119912666Y-97318700D01*
X119912666Y-97318700D02*
X119879333Y-97452033D01*
X119879333Y-97452033D02*
X119879333Y-97718700D01*
X119879333Y-97718700D02*
X119912666Y-97785366D01*
X119912666Y-97785366D02*
X119946000Y-97818700D01*
X119946000Y-97818700D02*
X120012666Y-97852033D01*
X120012666Y-97852033D02*
X120146000Y-97852033D01*
X120146000Y-97852033D02*
X120212666Y-97818700D01*
X120212666Y-97818700D02*
X120246000Y-97785366D01*
X120246000Y-97785366D02*
X120279333Y-97718700D01*
X120279333Y-97718700D02*
X120279333Y-97552033D01*
X120279333Y-97552033D02*
X120246000Y-97485366D01*
X120246000Y-97485366D02*
X120212666Y-97452033D01*
X120212666Y-97452033D02*
X120146000Y-97418700D01*
X120146000Y-97418700D02*
X120012666Y-97418700D01*
X120012666Y-97418700D02*
X119946000Y-97452033D01*
X119946000Y-97452033D02*
X119912666Y-97485366D01*
X119912666Y-97485366D02*
X119879333Y-97552033D01*
X120712667Y-97152033D02*
X120779333Y-97152033D01*
X120779333Y-97152033D02*
X120846000Y-97185366D01*
X120846000Y-97185366D02*
X120879333Y-97218700D01*
X120879333Y-97218700D02*
X120912667Y-97285366D01*
X120912667Y-97285366D02*
X120946000Y-97418700D01*
X120946000Y-97418700D02*
X120946000Y-97585366D01*
X120946000Y-97585366D02*
X120912667Y-97718700D01*
X120912667Y-97718700D02*
X120879333Y-97785366D01*
X120879333Y-97785366D02*
X120846000Y-97818700D01*
X120846000Y-97818700D02*
X120779333Y-97852033D01*
X120779333Y-97852033D02*
X120712667Y-97852033D01*
X120712667Y-97852033D02*
X120646000Y-97818700D01*
X120646000Y-97818700D02*
X120612667Y-97785366D01*
X120612667Y-97785366D02*
X120579333Y-97718700D01*
X120579333Y-97718700D02*
X120546000Y-97585366D01*
X120546000Y-97585366D02*
X120546000Y-97418700D01*
X120546000Y-97418700D02*
X120579333Y-97285366D01*
X120579333Y-97285366D02*
X120612667Y-97218700D01*
X120612667Y-97218700D02*
X120646000Y-97185366D01*
X120646000Y-97185366D02*
X120712667Y-97152033D01*
X121279334Y-97852033D02*
X121412667Y-97852033D01*
X121412667Y-97852033D02*
X121479334Y-97818700D01*
X121479334Y-97818700D02*
X121512667Y-97785366D01*
X121512667Y-97785366D02*
X121579334Y-97685366D01*
X121579334Y-97685366D02*
X121612667Y-97552033D01*
X121612667Y-97552033D02*
X121612667Y-97285366D01*
X121612667Y-97285366D02*
X121579334Y-97218700D01*
X121579334Y-97218700D02*
X121546000Y-97185366D01*
X121546000Y-97185366D02*
X121479334Y-97152033D01*
X121479334Y-97152033D02*
X121346000Y-97152033D01*
X121346000Y-97152033D02*
X121279334Y-97185366D01*
X121279334Y-97185366D02*
X121246000Y-97218700D01*
X121246000Y-97218700D02*
X121212667Y-97285366D01*
X121212667Y-97285366D02*
X121212667Y-97452033D01*
X121212667Y-97452033D02*
X121246000Y-97518700D01*
X121246000Y-97518700D02*
X121279334Y-97552033D01*
X121279334Y-97552033D02*
X121346000Y-97585366D01*
X121346000Y-97585366D02*
X121479334Y-97585366D01*
X121479334Y-97585366D02*
X121546000Y-97552033D01*
X121546000Y-97552033D02*
X121579334Y-97518700D01*
X121579334Y-97518700D02*
X121612667Y-97452033D01*
X138408666Y-101916033D02*
X138175333Y-101582700D01*
X138008666Y-101916033D02*
X138008666Y-101216033D01*
X138008666Y-101216033D02*
X138275333Y-101216033D01*
X138275333Y-101216033D02*
X138342000Y-101249366D01*
X138342000Y-101249366D02*
X138375333Y-101282700D01*
X138375333Y-101282700D02*
X138408666Y-101349366D01*
X138408666Y-101349366D02*
X138408666Y-101449366D01*
X138408666Y-101449366D02*
X138375333Y-101516033D01*
X138375333Y-101516033D02*
X138342000Y-101549366D01*
X138342000Y-101549366D02*
X138275333Y-101582700D01*
X138275333Y-101582700D02*
X138008666Y-101582700D01*
X139008666Y-101216033D02*
X138875333Y-101216033D01*
X138875333Y-101216033D02*
X138808666Y-101249366D01*
X138808666Y-101249366D02*
X138775333Y-101282700D01*
X138775333Y-101282700D02*
X138708666Y-101382700D01*
X138708666Y-101382700D02*
X138675333Y-101516033D01*
X138675333Y-101516033D02*
X138675333Y-101782700D01*
X138675333Y-101782700D02*
X138708666Y-101849366D01*
X138708666Y-101849366D02*
X138742000Y-101882700D01*
X138742000Y-101882700D02*
X138808666Y-101916033D01*
X138808666Y-101916033D02*
X138942000Y-101916033D01*
X138942000Y-101916033D02*
X139008666Y-101882700D01*
X139008666Y-101882700D02*
X139042000Y-101849366D01*
X139042000Y-101849366D02*
X139075333Y-101782700D01*
X139075333Y-101782700D02*
X139075333Y-101616033D01*
X139075333Y-101616033D02*
X139042000Y-101549366D01*
X139042000Y-101549366D02*
X139008666Y-101516033D01*
X139008666Y-101516033D02*
X138942000Y-101482700D01*
X138942000Y-101482700D02*
X138808666Y-101482700D01*
X138808666Y-101482700D02*
X138742000Y-101516033D01*
X138742000Y-101516033D02*
X138708666Y-101549366D01*
X138708666Y-101549366D02*
X138675333Y-101616033D01*
X139508667Y-101216033D02*
X139575333Y-101216033D01*
X139575333Y-101216033D02*
X139642000Y-101249366D01*
X139642000Y-101249366D02*
X139675333Y-101282700D01*
X139675333Y-101282700D02*
X139708667Y-101349366D01*
X139708667Y-101349366D02*
X139742000Y-101482700D01*
X139742000Y-101482700D02*
X139742000Y-101649366D01*
X139742000Y-101649366D02*
X139708667Y-101782700D01*
X139708667Y-101782700D02*
X139675333Y-101849366D01*
X139675333Y-101849366D02*
X139642000Y-101882700D01*
X139642000Y-101882700D02*
X139575333Y-101916033D01*
X139575333Y-101916033D02*
X139508667Y-101916033D01*
X139508667Y-101916033D02*
X139442000Y-101882700D01*
X139442000Y-101882700D02*
X139408667Y-101849366D01*
X139408667Y-101849366D02*
X139375333Y-101782700D01*
X139375333Y-101782700D02*
X139342000Y-101649366D01*
X139342000Y-101649366D02*
X139342000Y-101482700D01*
X139342000Y-101482700D02*
X139375333Y-101349366D01*
X139375333Y-101349366D02*
X139408667Y-101282700D01*
X139408667Y-101282700D02*
X139442000Y-101249366D01*
X139442000Y-101249366D02*
X139508667Y-101216033D01*
X140408667Y-101916033D02*
X140008667Y-101916033D01*
X140208667Y-101916033D02*
X140208667Y-101216033D01*
X140208667Y-101216033D02*
X140142000Y-101316033D01*
X140142000Y-101316033D02*
X140075334Y-101382700D01*
X140075334Y-101382700D02*
X140008667Y-101416033D01*
X84986952Y-131518819D02*
X84653619Y-131042628D01*
X84415524Y-131518819D02*
X84415524Y-130518819D01*
X84415524Y-130518819D02*
X84796476Y-130518819D01*
X84796476Y-130518819D02*
X84891714Y-130566438D01*
X84891714Y-130566438D02*
X84939333Y-130614057D01*
X84939333Y-130614057D02*
X84986952Y-130709295D01*
X84986952Y-130709295D02*
X84986952Y-130852152D01*
X84986952Y-130852152D02*
X84939333Y-130947390D01*
X84939333Y-130947390D02*
X84891714Y-130995009D01*
X84891714Y-130995009D02*
X84796476Y-131042628D01*
X84796476Y-131042628D02*
X84415524Y-131042628D01*
X85844095Y-130518819D02*
X85653619Y-130518819D01*
X85653619Y-130518819D02*
X85558381Y-130566438D01*
X85558381Y-130566438D02*
X85510762Y-130614057D01*
X85510762Y-130614057D02*
X85415524Y-130756914D01*
X85415524Y-130756914D02*
X85367905Y-130947390D01*
X85367905Y-130947390D02*
X85367905Y-131328342D01*
X85367905Y-131328342D02*
X85415524Y-131423580D01*
X85415524Y-131423580D02*
X85463143Y-131471200D01*
X85463143Y-131471200D02*
X85558381Y-131518819D01*
X85558381Y-131518819D02*
X85748857Y-131518819D01*
X85748857Y-131518819D02*
X85844095Y-131471200D01*
X85844095Y-131471200D02*
X85891714Y-131423580D01*
X85891714Y-131423580D02*
X85939333Y-131328342D01*
X85939333Y-131328342D02*
X85939333Y-131090247D01*
X85939333Y-131090247D02*
X85891714Y-130995009D01*
X85891714Y-130995009D02*
X85844095Y-130947390D01*
X85844095Y-130947390D02*
X85748857Y-130899771D01*
X85748857Y-130899771D02*
X85558381Y-130899771D01*
X85558381Y-130899771D02*
X85463143Y-130947390D01*
X85463143Y-130947390D02*
X85415524Y-130995009D01*
X85415524Y-130995009D02*
X85367905Y-131090247D01*
X86320286Y-130614057D02*
X86367905Y-130566438D01*
X86367905Y-130566438D02*
X86463143Y-130518819D01*
X86463143Y-130518819D02*
X86701238Y-130518819D01*
X86701238Y-130518819D02*
X86796476Y-130566438D01*
X86796476Y-130566438D02*
X86844095Y-130614057D01*
X86844095Y-130614057D02*
X86891714Y-130709295D01*
X86891714Y-130709295D02*
X86891714Y-130804533D01*
X86891714Y-130804533D02*
X86844095Y-130947390D01*
X86844095Y-130947390D02*
X86272667Y-131518819D01*
X86272667Y-131518819D02*
X86891714Y-131518819D01*
X87510762Y-130518819D02*
X87606000Y-130518819D01*
X87606000Y-130518819D02*
X87701238Y-130566438D01*
X87701238Y-130566438D02*
X87748857Y-130614057D01*
X87748857Y-130614057D02*
X87796476Y-130709295D01*
X87796476Y-130709295D02*
X87844095Y-130899771D01*
X87844095Y-130899771D02*
X87844095Y-131137866D01*
X87844095Y-131137866D02*
X87796476Y-131328342D01*
X87796476Y-131328342D02*
X87748857Y-131423580D01*
X87748857Y-131423580D02*
X87701238Y-131471200D01*
X87701238Y-131471200D02*
X87606000Y-131518819D01*
X87606000Y-131518819D02*
X87510762Y-131518819D01*
X87510762Y-131518819D02*
X87415524Y-131471200D01*
X87415524Y-131471200D02*
X87367905Y-131423580D01*
X87367905Y-131423580D02*
X87320286Y-131328342D01*
X87320286Y-131328342D02*
X87272667Y-131137866D01*
X87272667Y-131137866D02*
X87272667Y-130899771D01*
X87272667Y-130899771D02*
X87320286Y-130709295D01*
X87320286Y-130709295D02*
X87367905Y-130614057D01*
X87367905Y-130614057D02*
X87415524Y-130566438D01*
X87415524Y-130566438D02*
X87510762Y-130518819D01*
X122035999Y-120774033D02*
X122035999Y-121274033D01*
X122035999Y-121274033D02*
X122002666Y-121374033D01*
X122002666Y-121374033D02*
X121935999Y-121440700D01*
X121935999Y-121440700D02*
X121835999Y-121474033D01*
X121835999Y-121474033D02*
X121769333Y-121474033D01*
X122735999Y-121474033D02*
X122335999Y-121474033D01*
X122535999Y-121474033D02*
X122535999Y-120774033D01*
X122535999Y-120774033D02*
X122469332Y-120874033D01*
X122469332Y-120874033D02*
X122402666Y-120940700D01*
X122402666Y-120940700D02*
X122335999Y-120974033D01*
X123169333Y-120774033D02*
X123235999Y-120774033D01*
X123235999Y-120774033D02*
X123302666Y-120807366D01*
X123302666Y-120807366D02*
X123335999Y-120840700D01*
X123335999Y-120840700D02*
X123369333Y-120907366D01*
X123369333Y-120907366D02*
X123402666Y-121040700D01*
X123402666Y-121040700D02*
X123402666Y-121207366D01*
X123402666Y-121207366D02*
X123369333Y-121340700D01*
X123369333Y-121340700D02*
X123335999Y-121407366D01*
X123335999Y-121407366D02*
X123302666Y-121440700D01*
X123302666Y-121440700D02*
X123235999Y-121474033D01*
X123235999Y-121474033D02*
X123169333Y-121474033D01*
X123169333Y-121474033D02*
X123102666Y-121440700D01*
X123102666Y-121440700D02*
X123069333Y-121407366D01*
X123069333Y-121407366D02*
X123035999Y-121340700D01*
X123035999Y-121340700D02*
X123002666Y-121207366D01*
X123002666Y-121207366D02*
X123002666Y-121040700D01*
X123002666Y-121040700D02*
X123035999Y-120907366D01*
X123035999Y-120907366D02*
X123069333Y-120840700D01*
X123069333Y-120840700D02*
X123102666Y-120807366D01*
X123102666Y-120807366D02*
X123169333Y-120774033D01*
X124002666Y-121007366D02*
X124002666Y-121474033D01*
X123836000Y-120740700D02*
X123669333Y-121240700D01*
X123669333Y-121240700D02*
X124102666Y-121240700D01*
X103356666Y-98012033D02*
X103123333Y-97678700D01*
X102956666Y-98012033D02*
X102956666Y-97312033D01*
X102956666Y-97312033D02*
X103223333Y-97312033D01*
X103223333Y-97312033D02*
X103290000Y-97345366D01*
X103290000Y-97345366D02*
X103323333Y-97378700D01*
X103323333Y-97378700D02*
X103356666Y-97445366D01*
X103356666Y-97445366D02*
X103356666Y-97545366D01*
X103356666Y-97545366D02*
X103323333Y-97612033D01*
X103323333Y-97612033D02*
X103290000Y-97645366D01*
X103290000Y-97645366D02*
X103223333Y-97678700D01*
X103223333Y-97678700D02*
X102956666Y-97678700D01*
X103956666Y-97312033D02*
X103823333Y-97312033D01*
X103823333Y-97312033D02*
X103756666Y-97345366D01*
X103756666Y-97345366D02*
X103723333Y-97378700D01*
X103723333Y-97378700D02*
X103656666Y-97478700D01*
X103656666Y-97478700D02*
X103623333Y-97612033D01*
X103623333Y-97612033D02*
X103623333Y-97878700D01*
X103623333Y-97878700D02*
X103656666Y-97945366D01*
X103656666Y-97945366D02*
X103690000Y-97978700D01*
X103690000Y-97978700D02*
X103756666Y-98012033D01*
X103756666Y-98012033D02*
X103890000Y-98012033D01*
X103890000Y-98012033D02*
X103956666Y-97978700D01*
X103956666Y-97978700D02*
X103990000Y-97945366D01*
X103990000Y-97945366D02*
X104023333Y-97878700D01*
X104023333Y-97878700D02*
X104023333Y-97712033D01*
X104023333Y-97712033D02*
X103990000Y-97645366D01*
X103990000Y-97645366D02*
X103956666Y-97612033D01*
X103956666Y-97612033D02*
X103890000Y-97578700D01*
X103890000Y-97578700D02*
X103756666Y-97578700D01*
X103756666Y-97578700D02*
X103690000Y-97612033D01*
X103690000Y-97612033D02*
X103656666Y-97645366D01*
X103656666Y-97645366D02*
X103623333Y-97712033D01*
X104690000Y-98012033D02*
X104290000Y-98012033D01*
X104490000Y-98012033D02*
X104490000Y-97312033D01*
X104490000Y-97312033D02*
X104423333Y-97412033D01*
X104423333Y-97412033D02*
X104356667Y-97478700D01*
X104356667Y-97478700D02*
X104290000Y-97512033D01*
X105090000Y-97612033D02*
X105023334Y-97578700D01*
X105023334Y-97578700D02*
X104990000Y-97545366D01*
X104990000Y-97545366D02*
X104956667Y-97478700D01*
X104956667Y-97478700D02*
X104956667Y-97445366D01*
X104956667Y-97445366D02*
X104990000Y-97378700D01*
X104990000Y-97378700D02*
X105023334Y-97345366D01*
X105023334Y-97345366D02*
X105090000Y-97312033D01*
X105090000Y-97312033D02*
X105223334Y-97312033D01*
X105223334Y-97312033D02*
X105290000Y-97345366D01*
X105290000Y-97345366D02*
X105323334Y-97378700D01*
X105323334Y-97378700D02*
X105356667Y-97445366D01*
X105356667Y-97445366D02*
X105356667Y-97478700D01*
X105356667Y-97478700D02*
X105323334Y-97545366D01*
X105323334Y-97545366D02*
X105290000Y-97578700D01*
X105290000Y-97578700D02*
X105223334Y-97612033D01*
X105223334Y-97612033D02*
X105090000Y-97612033D01*
X105090000Y-97612033D02*
X105023334Y-97645366D01*
X105023334Y-97645366D02*
X104990000Y-97678700D01*
X104990000Y-97678700D02*
X104956667Y-97745366D01*
X104956667Y-97745366D02*
X104956667Y-97878700D01*
X104956667Y-97878700D02*
X104990000Y-97945366D01*
X104990000Y-97945366D02*
X105023334Y-97978700D01*
X105023334Y-97978700D02*
X105090000Y-98012033D01*
X105090000Y-98012033D02*
X105223334Y-98012033D01*
X105223334Y-98012033D02*
X105290000Y-97978700D01*
X105290000Y-97978700D02*
X105323334Y-97945366D01*
X105323334Y-97945366D02*
X105356667Y-97878700D01*
X105356667Y-97878700D02*
X105356667Y-97745366D01*
X105356667Y-97745366D02*
X105323334Y-97678700D01*
X105323334Y-97678700D02*
X105290000Y-97645366D01*
X105290000Y-97645366D02*
X105223334Y-97612033D01*
X116909999Y-139824033D02*
X116909999Y-140390700D01*
X116909999Y-140390700D02*
X116943333Y-140457366D01*
X116943333Y-140457366D02*
X116976666Y-140490700D01*
X116976666Y-140490700D02*
X117043333Y-140524033D01*
X117043333Y-140524033D02*
X117176666Y-140524033D01*
X117176666Y-140524033D02*
X117243333Y-140490700D01*
X117243333Y-140490700D02*
X117276666Y-140457366D01*
X117276666Y-140457366D02*
X117309999Y-140390700D01*
X117309999Y-140390700D02*
X117309999Y-139824033D01*
X117576666Y-139824033D02*
X118009999Y-139824033D01*
X118009999Y-139824033D02*
X117776666Y-140090700D01*
X117776666Y-140090700D02*
X117876666Y-140090700D01*
X117876666Y-140090700D02*
X117943332Y-140124033D01*
X117943332Y-140124033D02*
X117976666Y-140157366D01*
X117976666Y-140157366D02*
X118009999Y-140224033D01*
X118009999Y-140224033D02*
X118009999Y-140390700D01*
X118009999Y-140390700D02*
X117976666Y-140457366D01*
X117976666Y-140457366D02*
X117943332Y-140490700D01*
X117943332Y-140490700D02*
X117876666Y-140524033D01*
X117876666Y-140524033D02*
X117676666Y-140524033D01*
X117676666Y-140524033D02*
X117609999Y-140490700D01*
X117609999Y-140490700D02*
X117576666Y-140457366D01*
X118443333Y-139824033D02*
X118509999Y-139824033D01*
X118509999Y-139824033D02*
X118576666Y-139857366D01*
X118576666Y-139857366D02*
X118609999Y-139890700D01*
X118609999Y-139890700D02*
X118643333Y-139957366D01*
X118643333Y-139957366D02*
X118676666Y-140090700D01*
X118676666Y-140090700D02*
X118676666Y-140257366D01*
X118676666Y-140257366D02*
X118643333Y-140390700D01*
X118643333Y-140390700D02*
X118609999Y-140457366D01*
X118609999Y-140457366D02*
X118576666Y-140490700D01*
X118576666Y-140490700D02*
X118509999Y-140524033D01*
X118509999Y-140524033D02*
X118443333Y-140524033D01*
X118443333Y-140524033D02*
X118376666Y-140490700D01*
X118376666Y-140490700D02*
X118343333Y-140457366D01*
X118343333Y-140457366D02*
X118309999Y-140390700D01*
X118309999Y-140390700D02*
X118276666Y-140257366D01*
X118276666Y-140257366D02*
X118276666Y-140090700D01*
X118276666Y-140090700D02*
X118309999Y-139957366D01*
X118309999Y-139957366D02*
X118343333Y-139890700D01*
X118343333Y-139890700D02*
X118376666Y-139857366D01*
X118376666Y-139857366D02*
X118443333Y-139824033D01*
X119343333Y-140524033D02*
X118943333Y-140524033D01*
X119143333Y-140524033D02*
X119143333Y-139824033D01*
X119143333Y-139824033D02*
X119076666Y-139924033D01*
X119076666Y-139924033D02*
X119010000Y-139990700D01*
X119010000Y-139990700D02*
X118943333Y-140024033D01*
X121122088Y-145819693D02*
X120550660Y-145819693D01*
X120836374Y-144819693D02*
X120836374Y-145819693D01*
X120217326Y-144819693D02*
X120217326Y-145819693D01*
X120217326Y-145819693D02*
X119883993Y-145105408D01*
X119883993Y-145105408D02*
X119550660Y-145819693D01*
X119550660Y-145819693D02*
X119550660Y-144819693D01*
X118503041Y-144914932D02*
X118550660Y-144867313D01*
X118550660Y-144867313D02*
X118693517Y-144819693D01*
X118693517Y-144819693D02*
X118788755Y-144819693D01*
X118788755Y-144819693D02*
X118931612Y-144867313D01*
X118931612Y-144867313D02*
X119026850Y-144962551D01*
X119026850Y-144962551D02*
X119074469Y-145057789D01*
X119074469Y-145057789D02*
X119122088Y-145248265D01*
X119122088Y-145248265D02*
X119122088Y-145391122D01*
X119122088Y-145391122D02*
X119074469Y-145581598D01*
X119074469Y-145581598D02*
X119026850Y-145676836D01*
X119026850Y-145676836D02*
X118931612Y-145772074D01*
X118931612Y-145772074D02*
X118788755Y-145819693D01*
X118788755Y-145819693D02*
X118693517Y-145819693D01*
X118693517Y-145819693D02*
X118550660Y-145772074D01*
X118550660Y-145772074D02*
X118503041Y-145724455D01*
X118122088Y-145724455D02*
X118074469Y-145772074D01*
X118074469Y-145772074D02*
X117979231Y-145819693D01*
X117979231Y-145819693D02*
X117741136Y-145819693D01*
X117741136Y-145819693D02*
X117645898Y-145772074D01*
X117645898Y-145772074D02*
X117598279Y-145724455D01*
X117598279Y-145724455D02*
X117550660Y-145629217D01*
X117550660Y-145629217D02*
X117550660Y-145533979D01*
X117550660Y-145533979D02*
X117598279Y-145391122D01*
X117598279Y-145391122D02*
X118169707Y-144819693D01*
X118169707Y-144819693D02*
X117550660Y-144819693D01*
X117169707Y-145724455D02*
X117122088Y-145772074D01*
X117122088Y-145772074D02*
X117026850Y-145819693D01*
X117026850Y-145819693D02*
X116788755Y-145819693D01*
X116788755Y-145819693D02*
X116693517Y-145772074D01*
X116693517Y-145772074D02*
X116645898Y-145724455D01*
X116645898Y-145724455D02*
X116598279Y-145629217D01*
X116598279Y-145629217D02*
X116598279Y-145533979D01*
X116598279Y-145533979D02*
X116645898Y-145391122D01*
X116645898Y-145391122D02*
X117217326Y-144819693D01*
X117217326Y-144819693D02*
X116598279Y-144819693D01*
X115979231Y-145819693D02*
X115883993Y-145819693D01*
X115883993Y-145819693D02*
X115788755Y-145772074D01*
X115788755Y-145772074D02*
X115741136Y-145724455D01*
X115741136Y-145724455D02*
X115693517Y-145629217D01*
X115693517Y-145629217D02*
X115645898Y-145438741D01*
X115645898Y-145438741D02*
X115645898Y-145200646D01*
X115645898Y-145200646D02*
X115693517Y-145010170D01*
X115693517Y-145010170D02*
X115741136Y-144914932D01*
X115741136Y-144914932D02*
X115788755Y-144867313D01*
X115788755Y-144867313D02*
X115883993Y-144819693D01*
X115883993Y-144819693D02*
X115979231Y-144819693D01*
X115979231Y-144819693D02*
X116074469Y-144867313D01*
X116074469Y-144867313D02*
X116122088Y-144914932D01*
X116122088Y-144914932D02*
X116169707Y-145010170D01*
X116169707Y-145010170D02*
X116217326Y-145200646D01*
X116217326Y-145200646D02*
X116217326Y-145438741D01*
X116217326Y-145438741D02*
X116169707Y-145629217D01*
X116169707Y-145629217D02*
X116122088Y-145724455D01*
X116122088Y-145724455D02*
X116074469Y-145772074D01*
X116074469Y-145772074D02*
X115979231Y-145819693D01*
X115169707Y-144819693D02*
X114979231Y-144819693D01*
X114979231Y-144819693D02*
X114883993Y-144867313D01*
X114883993Y-144867313D02*
X114836374Y-144914932D01*
X114836374Y-144914932D02*
X114741136Y-145057789D01*
X114741136Y-145057789D02*
X114693517Y-145248265D01*
X114693517Y-145248265D02*
X114693517Y-145629217D01*
X114693517Y-145629217D02*
X114741136Y-145724455D01*
X114741136Y-145724455D02*
X114788755Y-145772074D01*
X114788755Y-145772074D02*
X114883993Y-145819693D01*
X114883993Y-145819693D02*
X115074469Y-145819693D01*
X115074469Y-145819693D02*
X115169707Y-145772074D01*
X115169707Y-145772074D02*
X115217326Y-145724455D01*
X115217326Y-145724455D02*
X115264945Y-145629217D01*
X115264945Y-145629217D02*
X115264945Y-145391122D01*
X115264945Y-145391122D02*
X115217326Y-145295884D01*
X115217326Y-145295884D02*
X115169707Y-145248265D01*
X115169707Y-145248265D02*
X115074469Y-145200646D01*
X115074469Y-145200646D02*
X114883993Y-145200646D01*
X114883993Y-145200646D02*
X114788755Y-145248265D01*
X114788755Y-145248265D02*
X114741136Y-145295884D01*
X114741136Y-145295884D02*
X114693517Y-145391122D01*
X76670819Y-127217714D02*
X77385104Y-127217714D01*
X77385104Y-127217714D02*
X77527961Y-127265333D01*
X77527961Y-127265333D02*
X77623200Y-127360571D01*
X77623200Y-127360571D02*
X77670819Y-127503428D01*
X77670819Y-127503428D02*
X77670819Y-127598666D01*
X77670819Y-126217714D02*
X77670819Y-126789142D01*
X77670819Y-126503428D02*
X76670819Y-126503428D01*
X76670819Y-126503428D02*
X76813676Y-126598666D01*
X76813676Y-126598666D02*
X76908914Y-126693904D01*
X76908914Y-126693904D02*
X76956533Y-126789142D01*
X76670819Y-125598666D02*
X76670819Y-125503428D01*
X76670819Y-125503428D02*
X76718438Y-125408190D01*
X76718438Y-125408190D02*
X76766057Y-125360571D01*
X76766057Y-125360571D02*
X76861295Y-125312952D01*
X76861295Y-125312952D02*
X77051771Y-125265333D01*
X77051771Y-125265333D02*
X77289866Y-125265333D01*
X77289866Y-125265333D02*
X77480342Y-125312952D01*
X77480342Y-125312952D02*
X77575580Y-125360571D01*
X77575580Y-125360571D02*
X77623200Y-125408190D01*
X77623200Y-125408190D02*
X77670819Y-125503428D01*
X77670819Y-125503428D02*
X77670819Y-125598666D01*
X77670819Y-125598666D02*
X77623200Y-125693904D01*
X77623200Y-125693904D02*
X77575580Y-125741523D01*
X77575580Y-125741523D02*
X77480342Y-125789142D01*
X77480342Y-125789142D02*
X77289866Y-125836761D01*
X77289866Y-125836761D02*
X77051771Y-125836761D01*
X77051771Y-125836761D02*
X76861295Y-125789142D01*
X76861295Y-125789142D02*
X76766057Y-125741523D01*
X76766057Y-125741523D02*
X76718438Y-125693904D01*
X76718438Y-125693904D02*
X76670819Y-125598666D01*
X76670819Y-124360571D02*
X76670819Y-124836761D01*
X76670819Y-124836761D02*
X77147009Y-124884380D01*
X77147009Y-124884380D02*
X77099390Y-124836761D01*
X77099390Y-124836761D02*
X77051771Y-124741523D01*
X77051771Y-124741523D02*
X77051771Y-124503428D01*
X77051771Y-124503428D02*
X77099390Y-124408190D01*
X77099390Y-124408190D02*
X77147009Y-124360571D01*
X77147009Y-124360571D02*
X77242247Y-124312952D01*
X77242247Y-124312952D02*
X77480342Y-124312952D01*
X77480342Y-124312952D02*
X77575580Y-124360571D01*
X77575580Y-124360571D02*
X77623200Y-124408190D01*
X77623200Y-124408190D02*
X77670819Y-124503428D01*
X77670819Y-124503428D02*
X77670819Y-124741523D01*
X77670819Y-124741523D02*
X77623200Y-124836761D01*
X77623200Y-124836761D02*
X77575580Y-124884380D01*
X107674666Y-98106033D02*
X107441333Y-97772700D01*
X107274666Y-98106033D02*
X107274666Y-97406033D01*
X107274666Y-97406033D02*
X107541333Y-97406033D01*
X107541333Y-97406033D02*
X107608000Y-97439366D01*
X107608000Y-97439366D02*
X107641333Y-97472700D01*
X107641333Y-97472700D02*
X107674666Y-97539366D01*
X107674666Y-97539366D02*
X107674666Y-97639366D01*
X107674666Y-97639366D02*
X107641333Y-97706033D01*
X107641333Y-97706033D02*
X107608000Y-97739366D01*
X107608000Y-97739366D02*
X107541333Y-97772700D01*
X107541333Y-97772700D02*
X107274666Y-97772700D01*
X108274666Y-97406033D02*
X108141333Y-97406033D01*
X108141333Y-97406033D02*
X108074666Y-97439366D01*
X108074666Y-97439366D02*
X108041333Y-97472700D01*
X108041333Y-97472700D02*
X107974666Y-97572700D01*
X107974666Y-97572700D02*
X107941333Y-97706033D01*
X107941333Y-97706033D02*
X107941333Y-97972700D01*
X107941333Y-97972700D02*
X107974666Y-98039366D01*
X107974666Y-98039366D02*
X108008000Y-98072700D01*
X108008000Y-98072700D02*
X108074666Y-98106033D01*
X108074666Y-98106033D02*
X108208000Y-98106033D01*
X108208000Y-98106033D02*
X108274666Y-98072700D01*
X108274666Y-98072700D02*
X108308000Y-98039366D01*
X108308000Y-98039366D02*
X108341333Y-97972700D01*
X108341333Y-97972700D02*
X108341333Y-97806033D01*
X108341333Y-97806033D02*
X108308000Y-97739366D01*
X108308000Y-97739366D02*
X108274666Y-97706033D01*
X108274666Y-97706033D02*
X108208000Y-97672700D01*
X108208000Y-97672700D02*
X108074666Y-97672700D01*
X108074666Y-97672700D02*
X108008000Y-97706033D01*
X108008000Y-97706033D02*
X107974666Y-97739366D01*
X107974666Y-97739366D02*
X107941333Y-97806033D01*
X109008000Y-98106033D02*
X108608000Y-98106033D01*
X108808000Y-98106033D02*
X108808000Y-97406033D01*
X108808000Y-97406033D02*
X108741333Y-97506033D01*
X108741333Y-97506033D02*
X108674667Y-97572700D01*
X108674667Y-97572700D02*
X108608000Y-97606033D01*
X109241334Y-97406033D02*
X109708000Y-97406033D01*
X109708000Y-97406033D02*
X109408000Y-98106033D01*
X141540033Y-110403333D02*
X140840033Y-110403333D01*
X140840033Y-110403333D02*
X140840033Y-110236666D01*
X140840033Y-110236666D02*
X140873366Y-110136666D01*
X140873366Y-110136666D02*
X140940033Y-110070000D01*
X140940033Y-110070000D02*
X141006700Y-110036666D01*
X141006700Y-110036666D02*
X141140033Y-110003333D01*
X141140033Y-110003333D02*
X141240033Y-110003333D01*
X141240033Y-110003333D02*
X141373366Y-110036666D01*
X141373366Y-110036666D02*
X141440033Y-110070000D01*
X141440033Y-110070000D02*
X141506700Y-110136666D01*
X141506700Y-110136666D02*
X141540033Y-110236666D01*
X141540033Y-110236666D02*
X141540033Y-110403333D01*
X140840033Y-109403333D02*
X140840033Y-109536666D01*
X140840033Y-109536666D02*
X140873366Y-109603333D01*
X140873366Y-109603333D02*
X140906700Y-109636666D01*
X140906700Y-109636666D02*
X141006700Y-109703333D01*
X141006700Y-109703333D02*
X141140033Y-109736666D01*
X141140033Y-109736666D02*
X141406700Y-109736666D01*
X141406700Y-109736666D02*
X141473366Y-109703333D01*
X141473366Y-109703333D02*
X141506700Y-109670000D01*
X141506700Y-109670000D02*
X141540033Y-109603333D01*
X141540033Y-109603333D02*
X141540033Y-109470000D01*
X141540033Y-109470000D02*
X141506700Y-109403333D01*
X141506700Y-109403333D02*
X141473366Y-109370000D01*
X141473366Y-109370000D02*
X141406700Y-109336666D01*
X141406700Y-109336666D02*
X141240033Y-109336666D01*
X141240033Y-109336666D02*
X141173366Y-109370000D01*
X141173366Y-109370000D02*
X141140033Y-109403333D01*
X141140033Y-109403333D02*
X141106700Y-109470000D01*
X141106700Y-109470000D02*
X141106700Y-109603333D01*
X141106700Y-109603333D02*
X141140033Y-109670000D01*
X141140033Y-109670000D02*
X141173366Y-109703333D01*
X141173366Y-109703333D02*
X141240033Y-109736666D01*
X140840033Y-108903333D02*
X140840033Y-108836666D01*
X140840033Y-108836666D02*
X140873366Y-108769999D01*
X140873366Y-108769999D02*
X140906700Y-108736666D01*
X140906700Y-108736666D02*
X140973366Y-108703333D01*
X140973366Y-108703333D02*
X141106700Y-108669999D01*
X141106700Y-108669999D02*
X141273366Y-108669999D01*
X141273366Y-108669999D02*
X141406700Y-108703333D01*
X141406700Y-108703333D02*
X141473366Y-108736666D01*
X141473366Y-108736666D02*
X141506700Y-108769999D01*
X141506700Y-108769999D02*
X141540033Y-108836666D01*
X141540033Y-108836666D02*
X141540033Y-108903333D01*
X141540033Y-108903333D02*
X141506700Y-108969999D01*
X141506700Y-108969999D02*
X141473366Y-109003333D01*
X141473366Y-109003333D02*
X141406700Y-109036666D01*
X141406700Y-109036666D02*
X141273366Y-109069999D01*
X141273366Y-109069999D02*
X141106700Y-109069999D01*
X141106700Y-109069999D02*
X140973366Y-109036666D01*
X140973366Y-109036666D02*
X140906700Y-109003333D01*
X140906700Y-109003333D02*
X140873366Y-108969999D01*
X140873366Y-108969999D02*
X140840033Y-108903333D01*
X140906700Y-108403332D02*
X140873366Y-108369999D01*
X140873366Y-108369999D02*
X140840033Y-108303332D01*
X140840033Y-108303332D02*
X140840033Y-108136666D01*
X140840033Y-108136666D02*
X140873366Y-108069999D01*
X140873366Y-108069999D02*
X140906700Y-108036666D01*
X140906700Y-108036666D02*
X140973366Y-108003332D01*
X140973366Y-108003332D02*
X141040033Y-108003332D01*
X141040033Y-108003332D02*
X141140033Y-108036666D01*
X141140033Y-108036666D02*
X141540033Y-108436666D01*
X141540033Y-108436666D02*
X141540033Y-108003332D01*
X96381999Y-122242033D02*
X96381999Y-122742033D01*
X96381999Y-122742033D02*
X96348666Y-122842033D01*
X96348666Y-122842033D02*
X96281999Y-122908700D01*
X96281999Y-122908700D02*
X96181999Y-122942033D01*
X96181999Y-122942033D02*
X96115333Y-122942033D01*
X96681999Y-122308700D02*
X96715332Y-122275366D01*
X96715332Y-122275366D02*
X96781999Y-122242033D01*
X96781999Y-122242033D02*
X96948666Y-122242033D01*
X96948666Y-122242033D02*
X97015332Y-122275366D01*
X97015332Y-122275366D02*
X97048666Y-122308700D01*
X97048666Y-122308700D02*
X97081999Y-122375366D01*
X97081999Y-122375366D02*
X97081999Y-122442033D01*
X97081999Y-122442033D02*
X97048666Y-122542033D01*
X97048666Y-122542033D02*
X96648666Y-122942033D01*
X96648666Y-122942033D02*
X97081999Y-122942033D01*
X97515333Y-122242033D02*
X97581999Y-122242033D01*
X97581999Y-122242033D02*
X97648666Y-122275366D01*
X97648666Y-122275366D02*
X97681999Y-122308700D01*
X97681999Y-122308700D02*
X97715333Y-122375366D01*
X97715333Y-122375366D02*
X97748666Y-122508700D01*
X97748666Y-122508700D02*
X97748666Y-122675366D01*
X97748666Y-122675366D02*
X97715333Y-122808700D01*
X97715333Y-122808700D02*
X97681999Y-122875366D01*
X97681999Y-122875366D02*
X97648666Y-122908700D01*
X97648666Y-122908700D02*
X97581999Y-122942033D01*
X97581999Y-122942033D02*
X97515333Y-122942033D01*
X97515333Y-122942033D02*
X97448666Y-122908700D01*
X97448666Y-122908700D02*
X97415333Y-122875366D01*
X97415333Y-122875366D02*
X97381999Y-122808700D01*
X97381999Y-122808700D02*
X97348666Y-122675366D01*
X97348666Y-122675366D02*
X97348666Y-122508700D01*
X97348666Y-122508700D02*
X97381999Y-122375366D01*
X97381999Y-122375366D02*
X97415333Y-122308700D01*
X97415333Y-122308700D02*
X97448666Y-122275366D01*
X97448666Y-122275366D02*
X97515333Y-122242033D01*
X98415333Y-122942033D02*
X98015333Y-122942033D01*
X98215333Y-122942033D02*
X98215333Y-122242033D01*
X98215333Y-122242033D02*
X98148666Y-122342033D01*
X98148666Y-122342033D02*
X98082000Y-122408700D01*
X98082000Y-122408700D02*
X98015333Y-122442033D01*
X99292666Y-100138033D02*
X99059333Y-99804700D01*
X98892666Y-100138033D02*
X98892666Y-99438033D01*
X98892666Y-99438033D02*
X99159333Y-99438033D01*
X99159333Y-99438033D02*
X99226000Y-99471366D01*
X99226000Y-99471366D02*
X99259333Y-99504700D01*
X99259333Y-99504700D02*
X99292666Y-99571366D01*
X99292666Y-99571366D02*
X99292666Y-99671366D01*
X99292666Y-99671366D02*
X99259333Y-99738033D01*
X99259333Y-99738033D02*
X99226000Y-99771366D01*
X99226000Y-99771366D02*
X99159333Y-99804700D01*
X99159333Y-99804700D02*
X98892666Y-99804700D01*
X99926000Y-99438033D02*
X99592666Y-99438033D01*
X99592666Y-99438033D02*
X99559333Y-99771366D01*
X99559333Y-99771366D02*
X99592666Y-99738033D01*
X99592666Y-99738033D02*
X99659333Y-99704700D01*
X99659333Y-99704700D02*
X99826000Y-99704700D01*
X99826000Y-99704700D02*
X99892666Y-99738033D01*
X99892666Y-99738033D02*
X99926000Y-99771366D01*
X99926000Y-99771366D02*
X99959333Y-99838033D01*
X99959333Y-99838033D02*
X99959333Y-100004700D01*
X99959333Y-100004700D02*
X99926000Y-100071366D01*
X99926000Y-100071366D02*
X99892666Y-100104700D01*
X99892666Y-100104700D02*
X99826000Y-100138033D01*
X99826000Y-100138033D02*
X99659333Y-100138033D01*
X99659333Y-100138033D02*
X99592666Y-100104700D01*
X99592666Y-100104700D02*
X99559333Y-100071366D01*
X100626000Y-100138033D02*
X100226000Y-100138033D01*
X100426000Y-100138033D02*
X100426000Y-99438033D01*
X100426000Y-99438033D02*
X100359333Y-99538033D01*
X100359333Y-99538033D02*
X100292667Y-99604700D01*
X100292667Y-99604700D02*
X100226000Y-99638033D01*
X100892667Y-99504700D02*
X100926000Y-99471366D01*
X100926000Y-99471366D02*
X100992667Y-99438033D01*
X100992667Y-99438033D02*
X101159334Y-99438033D01*
X101159334Y-99438033D02*
X101226000Y-99471366D01*
X101226000Y-99471366D02*
X101259334Y-99504700D01*
X101259334Y-99504700D02*
X101292667Y-99571366D01*
X101292667Y-99571366D02*
X101292667Y-99638033D01*
X101292667Y-99638033D02*
X101259334Y-99738033D01*
X101259334Y-99738033D02*
X100859334Y-100138033D01*
X100859334Y-100138033D02*
X101292667Y-100138033D01*
X136005999Y-162176033D02*
X136005999Y-162676033D01*
X136005999Y-162676033D02*
X135972666Y-162776033D01*
X135972666Y-162776033D02*
X135905999Y-162842700D01*
X135905999Y-162842700D02*
X135805999Y-162876033D01*
X135805999Y-162876033D02*
X135739333Y-162876033D01*
X136639332Y-162409366D02*
X136639332Y-162876033D01*
X136472666Y-162142700D02*
X136305999Y-162642700D01*
X136305999Y-162642700D02*
X136739332Y-162642700D01*
X137139333Y-162176033D02*
X137205999Y-162176033D01*
X137205999Y-162176033D02*
X137272666Y-162209366D01*
X137272666Y-162209366D02*
X137305999Y-162242700D01*
X137305999Y-162242700D02*
X137339333Y-162309366D01*
X137339333Y-162309366D02*
X137372666Y-162442700D01*
X137372666Y-162442700D02*
X137372666Y-162609366D01*
X137372666Y-162609366D02*
X137339333Y-162742700D01*
X137339333Y-162742700D02*
X137305999Y-162809366D01*
X137305999Y-162809366D02*
X137272666Y-162842700D01*
X137272666Y-162842700D02*
X137205999Y-162876033D01*
X137205999Y-162876033D02*
X137139333Y-162876033D01*
X137139333Y-162876033D02*
X137072666Y-162842700D01*
X137072666Y-162842700D02*
X137039333Y-162809366D01*
X137039333Y-162809366D02*
X137005999Y-162742700D01*
X137005999Y-162742700D02*
X136972666Y-162609366D01*
X136972666Y-162609366D02*
X136972666Y-162442700D01*
X136972666Y-162442700D02*
X137005999Y-162309366D01*
X137005999Y-162309366D02*
X137039333Y-162242700D01*
X137039333Y-162242700D02*
X137072666Y-162209366D01*
X137072666Y-162209366D02*
X137139333Y-162176033D01*
X137639333Y-162242700D02*
X137672666Y-162209366D01*
X137672666Y-162209366D02*
X137739333Y-162176033D01*
X137739333Y-162176033D02*
X137906000Y-162176033D01*
X137906000Y-162176033D02*
X137972666Y-162209366D01*
X137972666Y-162209366D02*
X138006000Y-162242700D01*
X138006000Y-162242700D02*
X138039333Y-162309366D01*
X138039333Y-162309366D02*
X138039333Y-162376033D01*
X138039333Y-162376033D02*
X138006000Y-162476033D01*
X138006000Y-162476033D02*
X137606000Y-162876033D01*
X137606000Y-162876033D02*
X138039333Y-162876033D01*
X79589524Y-131400819D02*
X79589524Y-130400819D01*
X79589524Y-130400819D02*
X79827619Y-130400819D01*
X79827619Y-130400819D02*
X79970476Y-130448438D01*
X79970476Y-130448438D02*
X80065714Y-130543676D01*
X80065714Y-130543676D02*
X80113333Y-130638914D01*
X80113333Y-130638914D02*
X80160952Y-130829390D01*
X80160952Y-130829390D02*
X80160952Y-130972247D01*
X80160952Y-130972247D02*
X80113333Y-131162723D01*
X80113333Y-131162723D02*
X80065714Y-131257961D01*
X80065714Y-131257961D02*
X79970476Y-131353200D01*
X79970476Y-131353200D02*
X79827619Y-131400819D01*
X79827619Y-131400819D02*
X79589524Y-131400819D01*
X81018095Y-130400819D02*
X80827619Y-130400819D01*
X80827619Y-130400819D02*
X80732381Y-130448438D01*
X80732381Y-130448438D02*
X80684762Y-130496057D01*
X80684762Y-130496057D02*
X80589524Y-130638914D01*
X80589524Y-130638914D02*
X80541905Y-130829390D01*
X80541905Y-130829390D02*
X80541905Y-131210342D01*
X80541905Y-131210342D02*
X80589524Y-131305580D01*
X80589524Y-131305580D02*
X80637143Y-131353200D01*
X80637143Y-131353200D02*
X80732381Y-131400819D01*
X80732381Y-131400819D02*
X80922857Y-131400819D01*
X80922857Y-131400819D02*
X81018095Y-131353200D01*
X81018095Y-131353200D02*
X81065714Y-131305580D01*
X81065714Y-131305580D02*
X81113333Y-131210342D01*
X81113333Y-131210342D02*
X81113333Y-130972247D01*
X81113333Y-130972247D02*
X81065714Y-130877009D01*
X81065714Y-130877009D02*
X81018095Y-130829390D01*
X81018095Y-130829390D02*
X80922857Y-130781771D01*
X80922857Y-130781771D02*
X80732381Y-130781771D01*
X80732381Y-130781771D02*
X80637143Y-130829390D01*
X80637143Y-130829390D02*
X80589524Y-130877009D01*
X80589524Y-130877009D02*
X80541905Y-130972247D01*
X81732381Y-130400819D02*
X81827619Y-130400819D01*
X81827619Y-130400819D02*
X81922857Y-130448438D01*
X81922857Y-130448438D02*
X81970476Y-130496057D01*
X81970476Y-130496057D02*
X82018095Y-130591295D01*
X82018095Y-130591295D02*
X82065714Y-130781771D01*
X82065714Y-130781771D02*
X82065714Y-131019866D01*
X82065714Y-131019866D02*
X82018095Y-131210342D01*
X82018095Y-131210342D02*
X81970476Y-131305580D01*
X81970476Y-131305580D02*
X81922857Y-131353200D01*
X81922857Y-131353200D02*
X81827619Y-131400819D01*
X81827619Y-131400819D02*
X81732381Y-131400819D01*
X81732381Y-131400819D02*
X81637143Y-131353200D01*
X81637143Y-131353200D02*
X81589524Y-131305580D01*
X81589524Y-131305580D02*
X81541905Y-131210342D01*
X81541905Y-131210342D02*
X81494286Y-131019866D01*
X81494286Y-131019866D02*
X81494286Y-130781771D01*
X81494286Y-130781771D02*
X81541905Y-130591295D01*
X81541905Y-130591295D02*
X81589524Y-130496057D01*
X81589524Y-130496057D02*
X81637143Y-130448438D01*
X81637143Y-130448438D02*
X81732381Y-130400819D01*
X82637143Y-130829390D02*
X82541905Y-130781771D01*
X82541905Y-130781771D02*
X82494286Y-130734152D01*
X82494286Y-130734152D02*
X82446667Y-130638914D01*
X82446667Y-130638914D02*
X82446667Y-130591295D01*
X82446667Y-130591295D02*
X82494286Y-130496057D01*
X82494286Y-130496057D02*
X82541905Y-130448438D01*
X82541905Y-130448438D02*
X82637143Y-130400819D01*
X82637143Y-130400819D02*
X82827619Y-130400819D01*
X82827619Y-130400819D02*
X82922857Y-130448438D01*
X82922857Y-130448438D02*
X82970476Y-130496057D01*
X82970476Y-130496057D02*
X83018095Y-130591295D01*
X83018095Y-130591295D02*
X83018095Y-130638914D01*
X83018095Y-130638914D02*
X82970476Y-130734152D01*
X82970476Y-130734152D02*
X82922857Y-130781771D01*
X82922857Y-130781771D02*
X82827619Y-130829390D01*
X82827619Y-130829390D02*
X82637143Y-130829390D01*
X82637143Y-130829390D02*
X82541905Y-130877009D01*
X82541905Y-130877009D02*
X82494286Y-130924628D01*
X82494286Y-130924628D02*
X82446667Y-131019866D01*
X82446667Y-131019866D02*
X82446667Y-131210342D01*
X82446667Y-131210342D02*
X82494286Y-131305580D01*
X82494286Y-131305580D02*
X82541905Y-131353200D01*
X82541905Y-131353200D02*
X82637143Y-131400819D01*
X82637143Y-131400819D02*
X82827619Y-131400819D01*
X82827619Y-131400819D02*
X82922857Y-131353200D01*
X82922857Y-131353200D02*
X82970476Y-131305580D01*
X82970476Y-131305580D02*
X83018095Y-131210342D01*
X83018095Y-131210342D02*
X83018095Y-131019866D01*
X83018095Y-131019866D02*
X82970476Y-130924628D01*
X82970476Y-130924628D02*
X82922857Y-130877009D01*
X82922857Y-130877009D02*
X82827619Y-130829390D01*
X133836666Y-110993366D02*
X133803333Y-111026700D01*
X133803333Y-111026700D02*
X133703333Y-111060033D01*
X133703333Y-111060033D02*
X133636666Y-111060033D01*
X133636666Y-111060033D02*
X133536666Y-111026700D01*
X133536666Y-111026700D02*
X133470000Y-110960033D01*
X133470000Y-110960033D02*
X133436666Y-110893366D01*
X133436666Y-110893366D02*
X133403333Y-110760033D01*
X133403333Y-110760033D02*
X133403333Y-110660033D01*
X133403333Y-110660033D02*
X133436666Y-110526700D01*
X133436666Y-110526700D02*
X133470000Y-110460033D01*
X133470000Y-110460033D02*
X133536666Y-110393366D01*
X133536666Y-110393366D02*
X133636666Y-110360033D01*
X133636666Y-110360033D02*
X133703333Y-110360033D01*
X133703333Y-110360033D02*
X133803333Y-110393366D01*
X133803333Y-110393366D02*
X133836666Y-110426700D01*
X134436666Y-110360033D02*
X134303333Y-110360033D01*
X134303333Y-110360033D02*
X134236666Y-110393366D01*
X134236666Y-110393366D02*
X134203333Y-110426700D01*
X134203333Y-110426700D02*
X134136666Y-110526700D01*
X134136666Y-110526700D02*
X134103333Y-110660033D01*
X134103333Y-110660033D02*
X134103333Y-110926700D01*
X134103333Y-110926700D02*
X134136666Y-110993366D01*
X134136666Y-110993366D02*
X134170000Y-111026700D01*
X134170000Y-111026700D02*
X134236666Y-111060033D01*
X134236666Y-111060033D02*
X134370000Y-111060033D01*
X134370000Y-111060033D02*
X134436666Y-111026700D01*
X134436666Y-111026700D02*
X134470000Y-110993366D01*
X134470000Y-110993366D02*
X134503333Y-110926700D01*
X134503333Y-110926700D02*
X134503333Y-110760033D01*
X134503333Y-110760033D02*
X134470000Y-110693366D01*
X134470000Y-110693366D02*
X134436666Y-110660033D01*
X134436666Y-110660033D02*
X134370000Y-110626700D01*
X134370000Y-110626700D02*
X134236666Y-110626700D01*
X134236666Y-110626700D02*
X134170000Y-110660033D01*
X134170000Y-110660033D02*
X134136666Y-110693366D01*
X134136666Y-110693366D02*
X134103333Y-110760033D01*
X134936667Y-110360033D02*
X135003333Y-110360033D01*
X135003333Y-110360033D02*
X135070000Y-110393366D01*
X135070000Y-110393366D02*
X135103333Y-110426700D01*
X135103333Y-110426700D02*
X135136667Y-110493366D01*
X135136667Y-110493366D02*
X135170000Y-110626700D01*
X135170000Y-110626700D02*
X135170000Y-110793366D01*
X135170000Y-110793366D02*
X135136667Y-110926700D01*
X135136667Y-110926700D02*
X135103333Y-110993366D01*
X135103333Y-110993366D02*
X135070000Y-111026700D01*
X135070000Y-111026700D02*
X135003333Y-111060033D01*
X135003333Y-111060033D02*
X134936667Y-111060033D01*
X134936667Y-111060033D02*
X134870000Y-111026700D01*
X134870000Y-111026700D02*
X134836667Y-110993366D01*
X134836667Y-110993366D02*
X134803333Y-110926700D01*
X134803333Y-110926700D02*
X134770000Y-110793366D01*
X134770000Y-110793366D02*
X134770000Y-110626700D01*
X134770000Y-110626700D02*
X134803333Y-110493366D01*
X134803333Y-110493366D02*
X134836667Y-110426700D01*
X134836667Y-110426700D02*
X134870000Y-110393366D01*
X134870000Y-110393366D02*
X134936667Y-110360033D01*
X135836667Y-111060033D02*
X135436667Y-111060033D01*
X135636667Y-111060033D02*
X135636667Y-110360033D01*
X135636667Y-110360033D02*
X135570000Y-110460033D01*
X135570000Y-110460033D02*
X135503334Y-110526700D01*
X135503334Y-110526700D02*
X135436667Y-110560033D01*
X126216666Y-112330033D02*
X125983333Y-111996700D01*
X125816666Y-112330033D02*
X125816666Y-111630033D01*
X125816666Y-111630033D02*
X126083333Y-111630033D01*
X126083333Y-111630033D02*
X126150000Y-111663366D01*
X126150000Y-111663366D02*
X126183333Y-111696700D01*
X126183333Y-111696700D02*
X126216666Y-111763366D01*
X126216666Y-111763366D02*
X126216666Y-111863366D01*
X126216666Y-111863366D02*
X126183333Y-111930033D01*
X126183333Y-111930033D02*
X126150000Y-111963366D01*
X126150000Y-111963366D02*
X126083333Y-111996700D01*
X126083333Y-111996700D02*
X125816666Y-111996700D01*
X126816666Y-111630033D02*
X126683333Y-111630033D01*
X126683333Y-111630033D02*
X126616666Y-111663366D01*
X126616666Y-111663366D02*
X126583333Y-111696700D01*
X126583333Y-111696700D02*
X126516666Y-111796700D01*
X126516666Y-111796700D02*
X126483333Y-111930033D01*
X126483333Y-111930033D02*
X126483333Y-112196700D01*
X126483333Y-112196700D02*
X126516666Y-112263366D01*
X126516666Y-112263366D02*
X126550000Y-112296700D01*
X126550000Y-112296700D02*
X126616666Y-112330033D01*
X126616666Y-112330033D02*
X126750000Y-112330033D01*
X126750000Y-112330033D02*
X126816666Y-112296700D01*
X126816666Y-112296700D02*
X126850000Y-112263366D01*
X126850000Y-112263366D02*
X126883333Y-112196700D01*
X126883333Y-112196700D02*
X126883333Y-112030033D01*
X126883333Y-112030033D02*
X126850000Y-111963366D01*
X126850000Y-111963366D02*
X126816666Y-111930033D01*
X126816666Y-111930033D02*
X126750000Y-111896700D01*
X126750000Y-111896700D02*
X126616666Y-111896700D01*
X126616666Y-111896700D02*
X126550000Y-111930033D01*
X126550000Y-111930033D02*
X126516666Y-111963366D01*
X126516666Y-111963366D02*
X126483333Y-112030033D01*
X127550000Y-112330033D02*
X127150000Y-112330033D01*
X127350000Y-112330033D02*
X127350000Y-111630033D01*
X127350000Y-111630033D02*
X127283333Y-111730033D01*
X127283333Y-111730033D02*
X127216667Y-111796700D01*
X127216667Y-111796700D02*
X127150000Y-111830033D01*
X127983334Y-111630033D02*
X128050000Y-111630033D01*
X128050000Y-111630033D02*
X128116667Y-111663366D01*
X128116667Y-111663366D02*
X128150000Y-111696700D01*
X128150000Y-111696700D02*
X128183334Y-111763366D01*
X128183334Y-111763366D02*
X128216667Y-111896700D01*
X128216667Y-111896700D02*
X128216667Y-112063366D01*
X128216667Y-112063366D02*
X128183334Y-112196700D01*
X128183334Y-112196700D02*
X128150000Y-112263366D01*
X128150000Y-112263366D02*
X128116667Y-112296700D01*
X128116667Y-112296700D02*
X128050000Y-112330033D01*
X128050000Y-112330033D02*
X127983334Y-112330033D01*
X127983334Y-112330033D02*
X127916667Y-112296700D01*
X127916667Y-112296700D02*
X127883334Y-112263366D01*
X127883334Y-112263366D02*
X127850000Y-112196700D01*
X127850000Y-112196700D02*
X127816667Y-112063366D01*
X127816667Y-112063366D02*
X127816667Y-111896700D01*
X127816667Y-111896700D02*
X127850000Y-111763366D01*
X127850000Y-111763366D02*
X127883334Y-111696700D01*
X127883334Y-111696700D02*
X127916667Y-111663366D01*
X127916667Y-111663366D02*
X127983334Y-111630033D01*
X115294666Y-109028033D02*
X115061333Y-108694700D01*
X114894666Y-109028033D02*
X114894666Y-108328033D01*
X114894666Y-108328033D02*
X115161333Y-108328033D01*
X115161333Y-108328033D02*
X115228000Y-108361366D01*
X115228000Y-108361366D02*
X115261333Y-108394700D01*
X115261333Y-108394700D02*
X115294666Y-108461366D01*
X115294666Y-108461366D02*
X115294666Y-108561366D01*
X115294666Y-108561366D02*
X115261333Y-108628033D01*
X115261333Y-108628033D02*
X115228000Y-108661366D01*
X115228000Y-108661366D02*
X115161333Y-108694700D01*
X115161333Y-108694700D02*
X114894666Y-108694700D01*
X115928000Y-108328033D02*
X115594666Y-108328033D01*
X115594666Y-108328033D02*
X115561333Y-108661366D01*
X115561333Y-108661366D02*
X115594666Y-108628033D01*
X115594666Y-108628033D02*
X115661333Y-108594700D01*
X115661333Y-108594700D02*
X115828000Y-108594700D01*
X115828000Y-108594700D02*
X115894666Y-108628033D01*
X115894666Y-108628033D02*
X115928000Y-108661366D01*
X115928000Y-108661366D02*
X115961333Y-108728033D01*
X115961333Y-108728033D02*
X115961333Y-108894700D01*
X115961333Y-108894700D02*
X115928000Y-108961366D01*
X115928000Y-108961366D02*
X115894666Y-108994700D01*
X115894666Y-108994700D02*
X115828000Y-109028033D01*
X115828000Y-109028033D02*
X115661333Y-109028033D01*
X115661333Y-109028033D02*
X115594666Y-108994700D01*
X115594666Y-108994700D02*
X115561333Y-108961366D01*
X116628000Y-109028033D02*
X116228000Y-109028033D01*
X116428000Y-109028033D02*
X116428000Y-108328033D01*
X116428000Y-108328033D02*
X116361333Y-108428033D01*
X116361333Y-108428033D02*
X116294667Y-108494700D01*
X116294667Y-108494700D02*
X116228000Y-108528033D01*
X116861334Y-108328033D02*
X117328000Y-108328033D01*
X117328000Y-108328033D02*
X117028000Y-109028033D01*
X134989999Y-122238942D02*
X134989999Y-122738942D01*
X134989999Y-122738942D02*
X134956666Y-122838942D01*
X134956666Y-122838942D02*
X134889999Y-122905609D01*
X134889999Y-122905609D02*
X134789999Y-122938942D01*
X134789999Y-122938942D02*
X134723333Y-122938942D01*
X135623332Y-122472275D02*
X135623332Y-122938942D01*
X135456666Y-122205609D02*
X135289999Y-122705609D01*
X135289999Y-122705609D02*
X135723332Y-122705609D01*
X136123333Y-122238942D02*
X136189999Y-122238942D01*
X136189999Y-122238942D02*
X136256666Y-122272275D01*
X136256666Y-122272275D02*
X136289999Y-122305609D01*
X136289999Y-122305609D02*
X136323333Y-122372275D01*
X136323333Y-122372275D02*
X136356666Y-122505609D01*
X136356666Y-122505609D02*
X136356666Y-122672275D01*
X136356666Y-122672275D02*
X136323333Y-122805609D01*
X136323333Y-122805609D02*
X136289999Y-122872275D01*
X136289999Y-122872275D02*
X136256666Y-122905609D01*
X136256666Y-122905609D02*
X136189999Y-122938942D01*
X136189999Y-122938942D02*
X136123333Y-122938942D01*
X136123333Y-122938942D02*
X136056666Y-122905609D01*
X136056666Y-122905609D02*
X136023333Y-122872275D01*
X136023333Y-122872275D02*
X135989999Y-122805609D01*
X135989999Y-122805609D02*
X135956666Y-122672275D01*
X135956666Y-122672275D02*
X135956666Y-122505609D01*
X135956666Y-122505609D02*
X135989999Y-122372275D01*
X135989999Y-122372275D02*
X136023333Y-122305609D01*
X136023333Y-122305609D02*
X136056666Y-122272275D01*
X136056666Y-122272275D02*
X136123333Y-122238942D01*
X137023333Y-122938942D02*
X136623333Y-122938942D01*
X136823333Y-122938942D02*
X136823333Y-122238942D01*
X136823333Y-122238942D02*
X136756666Y-122338942D01*
X136756666Y-122338942D02*
X136690000Y-122405609D01*
X136690000Y-122405609D02*
X136623333Y-122438942D01*
X122490033Y-111781333D02*
X122156700Y-112014666D01*
X122490033Y-112181333D02*
X121790033Y-112181333D01*
X121790033Y-112181333D02*
X121790033Y-111914666D01*
X121790033Y-111914666D02*
X121823366Y-111848000D01*
X121823366Y-111848000D02*
X121856700Y-111814666D01*
X121856700Y-111814666D02*
X121923366Y-111781333D01*
X121923366Y-111781333D02*
X122023366Y-111781333D01*
X122023366Y-111781333D02*
X122090033Y-111814666D01*
X122090033Y-111814666D02*
X122123366Y-111848000D01*
X122123366Y-111848000D02*
X122156700Y-111914666D01*
X122156700Y-111914666D02*
X122156700Y-112181333D01*
X121790033Y-111181333D02*
X121790033Y-111314666D01*
X121790033Y-111314666D02*
X121823366Y-111381333D01*
X121823366Y-111381333D02*
X121856700Y-111414666D01*
X121856700Y-111414666D02*
X121956700Y-111481333D01*
X121956700Y-111481333D02*
X122090033Y-111514666D01*
X122090033Y-111514666D02*
X122356700Y-111514666D01*
X122356700Y-111514666D02*
X122423366Y-111481333D01*
X122423366Y-111481333D02*
X122456700Y-111448000D01*
X122456700Y-111448000D02*
X122490033Y-111381333D01*
X122490033Y-111381333D02*
X122490033Y-111248000D01*
X122490033Y-111248000D02*
X122456700Y-111181333D01*
X122456700Y-111181333D02*
X122423366Y-111148000D01*
X122423366Y-111148000D02*
X122356700Y-111114666D01*
X122356700Y-111114666D02*
X122190033Y-111114666D01*
X122190033Y-111114666D02*
X122123366Y-111148000D01*
X122123366Y-111148000D02*
X122090033Y-111181333D01*
X122090033Y-111181333D02*
X122056700Y-111248000D01*
X122056700Y-111248000D02*
X122056700Y-111381333D01*
X122056700Y-111381333D02*
X122090033Y-111448000D01*
X122090033Y-111448000D02*
X122123366Y-111481333D01*
X122123366Y-111481333D02*
X122190033Y-111514666D01*
X121790033Y-110681333D02*
X121790033Y-110614666D01*
X121790033Y-110614666D02*
X121823366Y-110547999D01*
X121823366Y-110547999D02*
X121856700Y-110514666D01*
X121856700Y-110514666D02*
X121923366Y-110481333D01*
X121923366Y-110481333D02*
X122056700Y-110447999D01*
X122056700Y-110447999D02*
X122223366Y-110447999D01*
X122223366Y-110447999D02*
X122356700Y-110481333D01*
X122356700Y-110481333D02*
X122423366Y-110514666D01*
X122423366Y-110514666D02*
X122456700Y-110547999D01*
X122456700Y-110547999D02*
X122490033Y-110614666D01*
X122490033Y-110614666D02*
X122490033Y-110681333D01*
X122490033Y-110681333D02*
X122456700Y-110747999D01*
X122456700Y-110747999D02*
X122423366Y-110781333D01*
X122423366Y-110781333D02*
X122356700Y-110814666D01*
X122356700Y-110814666D02*
X122223366Y-110847999D01*
X122223366Y-110847999D02*
X122056700Y-110847999D01*
X122056700Y-110847999D02*
X121923366Y-110814666D01*
X121923366Y-110814666D02*
X121856700Y-110781333D01*
X121856700Y-110781333D02*
X121823366Y-110747999D01*
X121823366Y-110747999D02*
X121790033Y-110681333D01*
X121790033Y-110214666D02*
X121790033Y-109747999D01*
X121790033Y-109747999D02*
X122490033Y-110047999D01*
X142072666Y-120782033D02*
X142072666Y-120082033D01*
X142072666Y-120082033D02*
X142239333Y-120082033D01*
X142239333Y-120082033D02*
X142339333Y-120115366D01*
X142339333Y-120115366D02*
X142406000Y-120182033D01*
X142406000Y-120182033D02*
X142439333Y-120248700D01*
X142439333Y-120248700D02*
X142472666Y-120382033D01*
X142472666Y-120382033D02*
X142472666Y-120482033D01*
X142472666Y-120482033D02*
X142439333Y-120615366D01*
X142439333Y-120615366D02*
X142406000Y-120682033D01*
X142406000Y-120682033D02*
X142339333Y-120748700D01*
X142339333Y-120748700D02*
X142239333Y-120782033D01*
X142239333Y-120782033D02*
X142072666Y-120782033D01*
X143072666Y-120082033D02*
X142939333Y-120082033D01*
X142939333Y-120082033D02*
X142872666Y-120115366D01*
X142872666Y-120115366D02*
X142839333Y-120148700D01*
X142839333Y-120148700D02*
X142772666Y-120248700D01*
X142772666Y-120248700D02*
X142739333Y-120382033D01*
X142739333Y-120382033D02*
X142739333Y-120648700D01*
X142739333Y-120648700D02*
X142772666Y-120715366D01*
X142772666Y-120715366D02*
X142806000Y-120748700D01*
X142806000Y-120748700D02*
X142872666Y-120782033D01*
X142872666Y-120782033D02*
X143006000Y-120782033D01*
X143006000Y-120782033D02*
X143072666Y-120748700D01*
X143072666Y-120748700D02*
X143106000Y-120715366D01*
X143106000Y-120715366D02*
X143139333Y-120648700D01*
X143139333Y-120648700D02*
X143139333Y-120482033D01*
X143139333Y-120482033D02*
X143106000Y-120415366D01*
X143106000Y-120415366D02*
X143072666Y-120382033D01*
X143072666Y-120382033D02*
X143006000Y-120348700D01*
X143006000Y-120348700D02*
X142872666Y-120348700D01*
X142872666Y-120348700D02*
X142806000Y-120382033D01*
X142806000Y-120382033D02*
X142772666Y-120415366D01*
X142772666Y-120415366D02*
X142739333Y-120482033D01*
X143572667Y-120082033D02*
X143639333Y-120082033D01*
X143639333Y-120082033D02*
X143706000Y-120115366D01*
X143706000Y-120115366D02*
X143739333Y-120148700D01*
X143739333Y-120148700D02*
X143772667Y-120215366D01*
X143772667Y-120215366D02*
X143806000Y-120348700D01*
X143806000Y-120348700D02*
X143806000Y-120515366D01*
X143806000Y-120515366D02*
X143772667Y-120648700D01*
X143772667Y-120648700D02*
X143739333Y-120715366D01*
X143739333Y-120715366D02*
X143706000Y-120748700D01*
X143706000Y-120748700D02*
X143639333Y-120782033D01*
X143639333Y-120782033D02*
X143572667Y-120782033D01*
X143572667Y-120782033D02*
X143506000Y-120748700D01*
X143506000Y-120748700D02*
X143472667Y-120715366D01*
X143472667Y-120715366D02*
X143439333Y-120648700D01*
X143439333Y-120648700D02*
X143406000Y-120515366D01*
X143406000Y-120515366D02*
X143406000Y-120348700D01*
X143406000Y-120348700D02*
X143439333Y-120215366D01*
X143439333Y-120215366D02*
X143472667Y-120148700D01*
X143472667Y-120148700D02*
X143506000Y-120115366D01*
X143506000Y-120115366D02*
X143572667Y-120082033D01*
X144039334Y-120082033D02*
X144472667Y-120082033D01*
X144472667Y-120082033D02*
X144239334Y-120348700D01*
X144239334Y-120348700D02*
X144339334Y-120348700D01*
X144339334Y-120348700D02*
X144406000Y-120382033D01*
X144406000Y-120382033D02*
X144439334Y-120415366D01*
X144439334Y-120415366D02*
X144472667Y-120482033D01*
X144472667Y-120482033D02*
X144472667Y-120648700D01*
X144472667Y-120648700D02*
X144439334Y-120715366D01*
X144439334Y-120715366D02*
X144406000Y-120748700D01*
X144406000Y-120748700D02*
X144339334Y-120782033D01*
X144339334Y-120782033D02*
X144139334Y-120782033D01*
X144139334Y-120782033D02*
X144072667Y-120748700D01*
X144072667Y-120748700D02*
X144039334Y-120715366D01*
X82545366Y-104669333D02*
X82578700Y-104702666D01*
X82578700Y-104702666D02*
X82612033Y-104802666D01*
X82612033Y-104802666D02*
X82612033Y-104869333D01*
X82612033Y-104869333D02*
X82578700Y-104969333D01*
X82578700Y-104969333D02*
X82512033Y-105036000D01*
X82512033Y-105036000D02*
X82445366Y-105069333D01*
X82445366Y-105069333D02*
X82312033Y-105102666D01*
X82312033Y-105102666D02*
X82212033Y-105102666D01*
X82212033Y-105102666D02*
X82078700Y-105069333D01*
X82078700Y-105069333D02*
X82012033Y-105036000D01*
X82012033Y-105036000D02*
X81945366Y-104969333D01*
X81945366Y-104969333D02*
X81912033Y-104869333D01*
X81912033Y-104869333D02*
X81912033Y-104802666D01*
X81912033Y-104802666D02*
X81945366Y-104702666D01*
X81945366Y-104702666D02*
X81978700Y-104669333D01*
X82612033Y-104002666D02*
X82612033Y-104402666D01*
X82612033Y-104202666D02*
X81912033Y-104202666D01*
X81912033Y-104202666D02*
X82012033Y-104269333D01*
X82012033Y-104269333D02*
X82078700Y-104336000D01*
X82078700Y-104336000D02*
X82112033Y-104402666D01*
X81912033Y-103569333D02*
X81912033Y-103502666D01*
X81912033Y-103502666D02*
X81945366Y-103435999D01*
X81945366Y-103435999D02*
X81978700Y-103402666D01*
X81978700Y-103402666D02*
X82045366Y-103369333D01*
X82045366Y-103369333D02*
X82178700Y-103335999D01*
X82178700Y-103335999D02*
X82345366Y-103335999D01*
X82345366Y-103335999D02*
X82478700Y-103369333D01*
X82478700Y-103369333D02*
X82545366Y-103402666D01*
X82545366Y-103402666D02*
X82578700Y-103435999D01*
X82578700Y-103435999D02*
X82612033Y-103502666D01*
X82612033Y-103502666D02*
X82612033Y-103569333D01*
X82612033Y-103569333D02*
X82578700Y-103635999D01*
X82578700Y-103635999D02*
X82545366Y-103669333D01*
X82545366Y-103669333D02*
X82478700Y-103702666D01*
X82478700Y-103702666D02*
X82345366Y-103735999D01*
X82345366Y-103735999D02*
X82178700Y-103735999D01*
X82178700Y-103735999D02*
X82045366Y-103702666D01*
X82045366Y-103702666D02*
X81978700Y-103669333D01*
X81978700Y-103669333D02*
X81945366Y-103635999D01*
X81945366Y-103635999D02*
X81912033Y-103569333D01*
X81912033Y-102702666D02*
X81912033Y-103035999D01*
X81912033Y-103035999D02*
X82245366Y-103069332D01*
X82245366Y-103069332D02*
X82212033Y-103035999D01*
X82212033Y-103035999D02*
X82178700Y-102969332D01*
X82178700Y-102969332D02*
X82178700Y-102802666D01*
X82178700Y-102802666D02*
X82212033Y-102735999D01*
X82212033Y-102735999D02*
X82245366Y-102702666D01*
X82245366Y-102702666D02*
X82312033Y-102669332D01*
X82312033Y-102669332D02*
X82478700Y-102669332D01*
X82478700Y-102669332D02*
X82545366Y-102702666D01*
X82545366Y-102702666D02*
X82578700Y-102735999D01*
X82578700Y-102735999D02*
X82612033Y-102802666D01*
X82612033Y-102802666D02*
X82612033Y-102969332D01*
X82612033Y-102969332D02*
X82578700Y-103035999D01*
X82578700Y-103035999D02*
X82545366Y-103069332D01*
X115690183Y-122243546D02*
X115690183Y-122743546D01*
X115690183Y-122743546D02*
X115656850Y-122843546D01*
X115656850Y-122843546D02*
X115590183Y-122910213D01*
X115590183Y-122910213D02*
X115490183Y-122943546D01*
X115490183Y-122943546D02*
X115423517Y-122943546D01*
X115956850Y-122243546D02*
X116390183Y-122243546D01*
X116390183Y-122243546D02*
X116156850Y-122510213D01*
X116156850Y-122510213D02*
X116256850Y-122510213D01*
X116256850Y-122510213D02*
X116323516Y-122543546D01*
X116323516Y-122543546D02*
X116356850Y-122576879D01*
X116356850Y-122576879D02*
X116390183Y-122643546D01*
X116390183Y-122643546D02*
X116390183Y-122810213D01*
X116390183Y-122810213D02*
X116356850Y-122876879D01*
X116356850Y-122876879D02*
X116323516Y-122910213D01*
X116323516Y-122910213D02*
X116256850Y-122943546D01*
X116256850Y-122943546D02*
X116056850Y-122943546D01*
X116056850Y-122943546D02*
X115990183Y-122910213D01*
X115990183Y-122910213D02*
X115956850Y-122876879D01*
X116823517Y-122243546D02*
X116890183Y-122243546D01*
X116890183Y-122243546D02*
X116956850Y-122276879D01*
X116956850Y-122276879D02*
X116990183Y-122310213D01*
X116990183Y-122310213D02*
X117023517Y-122376879D01*
X117023517Y-122376879D02*
X117056850Y-122510213D01*
X117056850Y-122510213D02*
X117056850Y-122676879D01*
X117056850Y-122676879D02*
X117023517Y-122810213D01*
X117023517Y-122810213D02*
X116990183Y-122876879D01*
X116990183Y-122876879D02*
X116956850Y-122910213D01*
X116956850Y-122910213D02*
X116890183Y-122943546D01*
X116890183Y-122943546D02*
X116823517Y-122943546D01*
X116823517Y-122943546D02*
X116756850Y-122910213D01*
X116756850Y-122910213D02*
X116723517Y-122876879D01*
X116723517Y-122876879D02*
X116690183Y-122810213D01*
X116690183Y-122810213D02*
X116656850Y-122676879D01*
X116656850Y-122676879D02*
X116656850Y-122510213D01*
X116656850Y-122510213D02*
X116690183Y-122376879D01*
X116690183Y-122376879D02*
X116723517Y-122310213D01*
X116723517Y-122310213D02*
X116756850Y-122276879D01*
X116756850Y-122276879D02*
X116823517Y-122243546D01*
X117723517Y-122943546D02*
X117323517Y-122943546D01*
X117523517Y-122943546D02*
X117523517Y-122243546D01*
X117523517Y-122243546D02*
X117456850Y-122343546D01*
X117456850Y-122343546D02*
X117390184Y-122410213D01*
X117390184Y-122410213D02*
X117323517Y-122443546D01*
X76416819Y-156531714D02*
X77131104Y-156531714D01*
X77131104Y-156531714D02*
X77273961Y-156579333D01*
X77273961Y-156579333D02*
X77369200Y-156674571D01*
X77369200Y-156674571D02*
X77416819Y-156817428D01*
X77416819Y-156817428D02*
X77416819Y-156912666D01*
X77416819Y-155531714D02*
X77416819Y-156103142D01*
X77416819Y-155817428D02*
X76416819Y-155817428D01*
X76416819Y-155817428D02*
X76559676Y-155912666D01*
X76559676Y-155912666D02*
X76654914Y-156007904D01*
X76654914Y-156007904D02*
X76702533Y-156103142D01*
X76416819Y-154912666D02*
X76416819Y-154817428D01*
X76416819Y-154817428D02*
X76464438Y-154722190D01*
X76464438Y-154722190D02*
X76512057Y-154674571D01*
X76512057Y-154674571D02*
X76607295Y-154626952D01*
X76607295Y-154626952D02*
X76797771Y-154579333D01*
X76797771Y-154579333D02*
X77035866Y-154579333D01*
X77035866Y-154579333D02*
X77226342Y-154626952D01*
X77226342Y-154626952D02*
X77321580Y-154674571D01*
X77321580Y-154674571D02*
X77369200Y-154722190D01*
X77369200Y-154722190D02*
X77416819Y-154817428D01*
X77416819Y-154817428D02*
X77416819Y-154912666D01*
X77416819Y-154912666D02*
X77369200Y-155007904D01*
X77369200Y-155007904D02*
X77321580Y-155055523D01*
X77321580Y-155055523D02*
X77226342Y-155103142D01*
X77226342Y-155103142D02*
X77035866Y-155150761D01*
X77035866Y-155150761D02*
X76797771Y-155150761D01*
X76797771Y-155150761D02*
X76607295Y-155103142D01*
X76607295Y-155103142D02*
X76512057Y-155055523D01*
X76512057Y-155055523D02*
X76464438Y-155007904D01*
X76464438Y-155007904D02*
X76416819Y-154912666D01*
X76416819Y-154245999D02*
X76416819Y-153626952D01*
X76416819Y-153626952D02*
X76797771Y-153960285D01*
X76797771Y-153960285D02*
X76797771Y-153817428D01*
X76797771Y-153817428D02*
X76845390Y-153722190D01*
X76845390Y-153722190D02*
X76893009Y-153674571D01*
X76893009Y-153674571D02*
X76988247Y-153626952D01*
X76988247Y-153626952D02*
X77226342Y-153626952D01*
X77226342Y-153626952D02*
X77321580Y-153674571D01*
X77321580Y-153674571D02*
X77369200Y-153722190D01*
X77369200Y-153722190D02*
X77416819Y-153817428D01*
X77416819Y-153817428D02*
X77416819Y-154103142D01*
X77416819Y-154103142D02*
X77369200Y-154198380D01*
X77369200Y-154198380D02*
X77321580Y-154245999D01*
X119612666Y-95820033D02*
X119379333Y-95486700D01*
X119212666Y-95820033D02*
X119212666Y-95120033D01*
X119212666Y-95120033D02*
X119479333Y-95120033D01*
X119479333Y-95120033D02*
X119546000Y-95153366D01*
X119546000Y-95153366D02*
X119579333Y-95186700D01*
X119579333Y-95186700D02*
X119612666Y-95253366D01*
X119612666Y-95253366D02*
X119612666Y-95353366D01*
X119612666Y-95353366D02*
X119579333Y-95420033D01*
X119579333Y-95420033D02*
X119546000Y-95453366D01*
X119546000Y-95453366D02*
X119479333Y-95486700D01*
X119479333Y-95486700D02*
X119212666Y-95486700D01*
X120212666Y-95120033D02*
X120079333Y-95120033D01*
X120079333Y-95120033D02*
X120012666Y-95153366D01*
X120012666Y-95153366D02*
X119979333Y-95186700D01*
X119979333Y-95186700D02*
X119912666Y-95286700D01*
X119912666Y-95286700D02*
X119879333Y-95420033D01*
X119879333Y-95420033D02*
X119879333Y-95686700D01*
X119879333Y-95686700D02*
X119912666Y-95753366D01*
X119912666Y-95753366D02*
X119946000Y-95786700D01*
X119946000Y-95786700D02*
X120012666Y-95820033D01*
X120012666Y-95820033D02*
X120146000Y-95820033D01*
X120146000Y-95820033D02*
X120212666Y-95786700D01*
X120212666Y-95786700D02*
X120246000Y-95753366D01*
X120246000Y-95753366D02*
X120279333Y-95686700D01*
X120279333Y-95686700D02*
X120279333Y-95520033D01*
X120279333Y-95520033D02*
X120246000Y-95453366D01*
X120246000Y-95453366D02*
X120212666Y-95420033D01*
X120212666Y-95420033D02*
X120146000Y-95386700D01*
X120146000Y-95386700D02*
X120012666Y-95386700D01*
X120012666Y-95386700D02*
X119946000Y-95420033D01*
X119946000Y-95420033D02*
X119912666Y-95453366D01*
X119912666Y-95453366D02*
X119879333Y-95520033D01*
X120946000Y-95820033D02*
X120546000Y-95820033D01*
X120746000Y-95820033D02*
X120746000Y-95120033D01*
X120746000Y-95120033D02*
X120679333Y-95220033D01*
X120679333Y-95220033D02*
X120612667Y-95286700D01*
X120612667Y-95286700D02*
X120546000Y-95320033D01*
X121546000Y-95353366D02*
X121546000Y-95820033D01*
X121379334Y-95086700D02*
X121212667Y-95586700D01*
X121212667Y-95586700D02*
X121646000Y-95586700D01*
X115294666Y-107758033D02*
X115061333Y-107424700D01*
X114894666Y-107758033D02*
X114894666Y-107058033D01*
X114894666Y-107058033D02*
X115161333Y-107058033D01*
X115161333Y-107058033D02*
X115228000Y-107091366D01*
X115228000Y-107091366D02*
X115261333Y-107124700D01*
X115261333Y-107124700D02*
X115294666Y-107191366D01*
X115294666Y-107191366D02*
X115294666Y-107291366D01*
X115294666Y-107291366D02*
X115261333Y-107358033D01*
X115261333Y-107358033D02*
X115228000Y-107391366D01*
X115228000Y-107391366D02*
X115161333Y-107424700D01*
X115161333Y-107424700D02*
X114894666Y-107424700D01*
X115928000Y-107058033D02*
X115594666Y-107058033D01*
X115594666Y-107058033D02*
X115561333Y-107391366D01*
X115561333Y-107391366D02*
X115594666Y-107358033D01*
X115594666Y-107358033D02*
X115661333Y-107324700D01*
X115661333Y-107324700D02*
X115828000Y-107324700D01*
X115828000Y-107324700D02*
X115894666Y-107358033D01*
X115894666Y-107358033D02*
X115928000Y-107391366D01*
X115928000Y-107391366D02*
X115961333Y-107458033D01*
X115961333Y-107458033D02*
X115961333Y-107624700D01*
X115961333Y-107624700D02*
X115928000Y-107691366D01*
X115928000Y-107691366D02*
X115894666Y-107724700D01*
X115894666Y-107724700D02*
X115828000Y-107758033D01*
X115828000Y-107758033D02*
X115661333Y-107758033D01*
X115661333Y-107758033D02*
X115594666Y-107724700D01*
X115594666Y-107724700D02*
X115561333Y-107691366D01*
X116628000Y-107758033D02*
X116228000Y-107758033D01*
X116428000Y-107758033D02*
X116428000Y-107058033D01*
X116428000Y-107058033D02*
X116361333Y-107158033D01*
X116361333Y-107158033D02*
X116294667Y-107224700D01*
X116294667Y-107224700D02*
X116228000Y-107258033D01*
X117228000Y-107058033D02*
X117094667Y-107058033D01*
X117094667Y-107058033D02*
X117028000Y-107091366D01*
X117028000Y-107091366D02*
X116994667Y-107124700D01*
X116994667Y-107124700D02*
X116928000Y-107224700D01*
X116928000Y-107224700D02*
X116894667Y-107358033D01*
X116894667Y-107358033D02*
X116894667Y-107624700D01*
X116894667Y-107624700D02*
X116928000Y-107691366D01*
X116928000Y-107691366D02*
X116961334Y-107724700D01*
X116961334Y-107724700D02*
X117028000Y-107758033D01*
X117028000Y-107758033D02*
X117161334Y-107758033D01*
X117161334Y-107758033D02*
X117228000Y-107724700D01*
X117228000Y-107724700D02*
X117261334Y-107691366D01*
X117261334Y-107691366D02*
X117294667Y-107624700D01*
X117294667Y-107624700D02*
X117294667Y-107458033D01*
X117294667Y-107458033D02*
X117261334Y-107391366D01*
X117261334Y-107391366D02*
X117228000Y-107358033D01*
X117228000Y-107358033D02*
X117161334Y-107324700D01*
X117161334Y-107324700D02*
X117028000Y-107324700D01*
X117028000Y-107324700D02*
X116961334Y-107358033D01*
X116961334Y-107358033D02*
X116928000Y-107391366D01*
X116928000Y-107391366D02*
X116894667Y-107458033D01*
X82619999Y-109344033D02*
X82619999Y-109910700D01*
X82619999Y-109910700D02*
X82653333Y-109977366D01*
X82653333Y-109977366D02*
X82686666Y-110010700D01*
X82686666Y-110010700D02*
X82753333Y-110044033D01*
X82753333Y-110044033D02*
X82886666Y-110044033D01*
X82886666Y-110044033D02*
X82953333Y-110010700D01*
X82953333Y-110010700D02*
X82986666Y-109977366D01*
X82986666Y-109977366D02*
X83019999Y-109910700D01*
X83019999Y-109910700D02*
X83019999Y-109344033D01*
X83719999Y-110044033D02*
X83319999Y-110044033D01*
X83519999Y-110044033D02*
X83519999Y-109344033D01*
X83519999Y-109344033D02*
X83453332Y-109444033D01*
X83453332Y-109444033D02*
X83386666Y-109510700D01*
X83386666Y-109510700D02*
X83319999Y-109544033D01*
X84153333Y-109344033D02*
X84219999Y-109344033D01*
X84219999Y-109344033D02*
X84286666Y-109377366D01*
X84286666Y-109377366D02*
X84319999Y-109410700D01*
X84319999Y-109410700D02*
X84353333Y-109477366D01*
X84353333Y-109477366D02*
X84386666Y-109610700D01*
X84386666Y-109610700D02*
X84386666Y-109777366D01*
X84386666Y-109777366D02*
X84353333Y-109910700D01*
X84353333Y-109910700D02*
X84319999Y-109977366D01*
X84319999Y-109977366D02*
X84286666Y-110010700D01*
X84286666Y-110010700D02*
X84219999Y-110044033D01*
X84219999Y-110044033D02*
X84153333Y-110044033D01*
X84153333Y-110044033D02*
X84086666Y-110010700D01*
X84086666Y-110010700D02*
X84053333Y-109977366D01*
X84053333Y-109977366D02*
X84019999Y-109910700D01*
X84019999Y-109910700D02*
X83986666Y-109777366D01*
X83986666Y-109777366D02*
X83986666Y-109610700D01*
X83986666Y-109610700D02*
X84019999Y-109477366D01*
X84019999Y-109477366D02*
X84053333Y-109410700D01*
X84053333Y-109410700D02*
X84086666Y-109377366D01*
X84086666Y-109377366D02*
X84153333Y-109344033D01*
X85053333Y-110044033D02*
X84653333Y-110044033D01*
X84853333Y-110044033D02*
X84853333Y-109344033D01*
X84853333Y-109344033D02*
X84786666Y-109444033D01*
X84786666Y-109444033D02*
X84720000Y-109510700D01*
X84720000Y-109510700D02*
X84653333Y-109544033D01*
X97876666Y-94932033D02*
X97876666Y-94232033D01*
X97876666Y-94232033D02*
X98043333Y-94232033D01*
X98043333Y-94232033D02*
X98143333Y-94265366D01*
X98143333Y-94265366D02*
X98210000Y-94332033D01*
X98210000Y-94332033D02*
X98243333Y-94398700D01*
X98243333Y-94398700D02*
X98276666Y-94532033D01*
X98276666Y-94532033D02*
X98276666Y-94632033D01*
X98276666Y-94632033D02*
X98243333Y-94765366D01*
X98243333Y-94765366D02*
X98210000Y-94832033D01*
X98210000Y-94832033D02*
X98143333Y-94898700D01*
X98143333Y-94898700D02*
X98043333Y-94932033D01*
X98043333Y-94932033D02*
X97876666Y-94932033D01*
X98876666Y-94232033D02*
X98743333Y-94232033D01*
X98743333Y-94232033D02*
X98676666Y-94265366D01*
X98676666Y-94265366D02*
X98643333Y-94298700D01*
X98643333Y-94298700D02*
X98576666Y-94398700D01*
X98576666Y-94398700D02*
X98543333Y-94532033D01*
X98543333Y-94532033D02*
X98543333Y-94798700D01*
X98543333Y-94798700D02*
X98576666Y-94865366D01*
X98576666Y-94865366D02*
X98610000Y-94898700D01*
X98610000Y-94898700D02*
X98676666Y-94932033D01*
X98676666Y-94932033D02*
X98810000Y-94932033D01*
X98810000Y-94932033D02*
X98876666Y-94898700D01*
X98876666Y-94898700D02*
X98910000Y-94865366D01*
X98910000Y-94865366D02*
X98943333Y-94798700D01*
X98943333Y-94798700D02*
X98943333Y-94632033D01*
X98943333Y-94632033D02*
X98910000Y-94565366D01*
X98910000Y-94565366D02*
X98876666Y-94532033D01*
X98876666Y-94532033D02*
X98810000Y-94498700D01*
X98810000Y-94498700D02*
X98676666Y-94498700D01*
X98676666Y-94498700D02*
X98610000Y-94532033D01*
X98610000Y-94532033D02*
X98576666Y-94565366D01*
X98576666Y-94565366D02*
X98543333Y-94632033D01*
X99376667Y-94232033D02*
X99443333Y-94232033D01*
X99443333Y-94232033D02*
X99510000Y-94265366D01*
X99510000Y-94265366D02*
X99543333Y-94298700D01*
X99543333Y-94298700D02*
X99576667Y-94365366D01*
X99576667Y-94365366D02*
X99610000Y-94498700D01*
X99610000Y-94498700D02*
X99610000Y-94665366D01*
X99610000Y-94665366D02*
X99576667Y-94798700D01*
X99576667Y-94798700D02*
X99543333Y-94865366D01*
X99543333Y-94865366D02*
X99510000Y-94898700D01*
X99510000Y-94898700D02*
X99443333Y-94932033D01*
X99443333Y-94932033D02*
X99376667Y-94932033D01*
X99376667Y-94932033D02*
X99310000Y-94898700D01*
X99310000Y-94898700D02*
X99276667Y-94865366D01*
X99276667Y-94865366D02*
X99243333Y-94798700D01*
X99243333Y-94798700D02*
X99210000Y-94665366D01*
X99210000Y-94665366D02*
X99210000Y-94498700D01*
X99210000Y-94498700D02*
X99243333Y-94365366D01*
X99243333Y-94365366D02*
X99276667Y-94298700D01*
X99276667Y-94298700D02*
X99310000Y-94265366D01*
X99310000Y-94265366D02*
X99376667Y-94232033D01*
X100210000Y-94232033D02*
X100076667Y-94232033D01*
X100076667Y-94232033D02*
X100010000Y-94265366D01*
X100010000Y-94265366D02*
X99976667Y-94298700D01*
X99976667Y-94298700D02*
X99910000Y-94398700D01*
X99910000Y-94398700D02*
X99876667Y-94532033D01*
X99876667Y-94532033D02*
X99876667Y-94798700D01*
X99876667Y-94798700D02*
X99910000Y-94865366D01*
X99910000Y-94865366D02*
X99943334Y-94898700D01*
X99943334Y-94898700D02*
X100010000Y-94932033D01*
X100010000Y-94932033D02*
X100143334Y-94932033D01*
X100143334Y-94932033D02*
X100210000Y-94898700D01*
X100210000Y-94898700D02*
X100243334Y-94865366D01*
X100243334Y-94865366D02*
X100276667Y-94798700D01*
X100276667Y-94798700D02*
X100276667Y-94632033D01*
X100276667Y-94632033D02*
X100243334Y-94565366D01*
X100243334Y-94565366D02*
X100210000Y-94532033D01*
X100210000Y-94532033D02*
X100143334Y-94498700D01*
X100143334Y-94498700D02*
X100010000Y-94498700D01*
X100010000Y-94498700D02*
X99943334Y-94532033D01*
X99943334Y-94532033D02*
X99910000Y-94565366D01*
X99910000Y-94565366D02*
X99876667Y-94632033D01*
X138408666Y-102932033D02*
X138175333Y-102598700D01*
X138008666Y-102932033D02*
X138008666Y-102232033D01*
X138008666Y-102232033D02*
X138275333Y-102232033D01*
X138275333Y-102232033D02*
X138342000Y-102265366D01*
X138342000Y-102265366D02*
X138375333Y-102298700D01*
X138375333Y-102298700D02*
X138408666Y-102365366D01*
X138408666Y-102365366D02*
X138408666Y-102465366D01*
X138408666Y-102465366D02*
X138375333Y-102532033D01*
X138375333Y-102532033D02*
X138342000Y-102565366D01*
X138342000Y-102565366D02*
X138275333Y-102598700D01*
X138275333Y-102598700D02*
X138008666Y-102598700D01*
X139008666Y-102232033D02*
X138875333Y-102232033D01*
X138875333Y-102232033D02*
X138808666Y-102265366D01*
X138808666Y-102265366D02*
X138775333Y-102298700D01*
X138775333Y-102298700D02*
X138708666Y-102398700D01*
X138708666Y-102398700D02*
X138675333Y-102532033D01*
X138675333Y-102532033D02*
X138675333Y-102798700D01*
X138675333Y-102798700D02*
X138708666Y-102865366D01*
X138708666Y-102865366D02*
X138742000Y-102898700D01*
X138742000Y-102898700D02*
X138808666Y-102932033D01*
X138808666Y-102932033D02*
X138942000Y-102932033D01*
X138942000Y-102932033D02*
X139008666Y-102898700D01*
X139008666Y-102898700D02*
X139042000Y-102865366D01*
X139042000Y-102865366D02*
X139075333Y-102798700D01*
X139075333Y-102798700D02*
X139075333Y-102632033D01*
X139075333Y-102632033D02*
X139042000Y-102565366D01*
X139042000Y-102565366D02*
X139008666Y-102532033D01*
X139008666Y-102532033D02*
X138942000Y-102498700D01*
X138942000Y-102498700D02*
X138808666Y-102498700D01*
X138808666Y-102498700D02*
X138742000Y-102532033D01*
X138742000Y-102532033D02*
X138708666Y-102565366D01*
X138708666Y-102565366D02*
X138675333Y-102632033D01*
X139508667Y-102232033D02*
X139575333Y-102232033D01*
X139575333Y-102232033D02*
X139642000Y-102265366D01*
X139642000Y-102265366D02*
X139675333Y-102298700D01*
X139675333Y-102298700D02*
X139708667Y-102365366D01*
X139708667Y-102365366D02*
X139742000Y-102498700D01*
X139742000Y-102498700D02*
X139742000Y-102665366D01*
X139742000Y-102665366D02*
X139708667Y-102798700D01*
X139708667Y-102798700D02*
X139675333Y-102865366D01*
X139675333Y-102865366D02*
X139642000Y-102898700D01*
X139642000Y-102898700D02*
X139575333Y-102932033D01*
X139575333Y-102932033D02*
X139508667Y-102932033D01*
X139508667Y-102932033D02*
X139442000Y-102898700D01*
X139442000Y-102898700D02*
X139408667Y-102865366D01*
X139408667Y-102865366D02*
X139375333Y-102798700D01*
X139375333Y-102798700D02*
X139342000Y-102665366D01*
X139342000Y-102665366D02*
X139342000Y-102498700D01*
X139342000Y-102498700D02*
X139375333Y-102365366D01*
X139375333Y-102365366D02*
X139408667Y-102298700D01*
X139408667Y-102298700D02*
X139442000Y-102265366D01*
X139442000Y-102265366D02*
X139508667Y-102232033D01*
X140008667Y-102298700D02*
X140042000Y-102265366D01*
X140042000Y-102265366D02*
X140108667Y-102232033D01*
X140108667Y-102232033D02*
X140275334Y-102232033D01*
X140275334Y-102232033D02*
X140342000Y-102265366D01*
X140342000Y-102265366D02*
X140375334Y-102298700D01*
X140375334Y-102298700D02*
X140408667Y-102365366D01*
X140408667Y-102365366D02*
X140408667Y-102432033D01*
X140408667Y-102432033D02*
X140375334Y-102532033D01*
X140375334Y-102532033D02*
X139975334Y-102932033D01*
X139975334Y-102932033D02*
X140408667Y-102932033D01*
X135959999Y-139570033D02*
X135959999Y-140136700D01*
X135959999Y-140136700D02*
X135993333Y-140203366D01*
X135993333Y-140203366D02*
X136026666Y-140236700D01*
X136026666Y-140236700D02*
X136093333Y-140270033D01*
X136093333Y-140270033D02*
X136226666Y-140270033D01*
X136226666Y-140270033D02*
X136293333Y-140236700D01*
X136293333Y-140236700D02*
X136326666Y-140203366D01*
X136326666Y-140203366D02*
X136359999Y-140136700D01*
X136359999Y-140136700D02*
X136359999Y-139570033D01*
X136993332Y-139803366D02*
X136993332Y-140270033D01*
X136826666Y-139536700D02*
X136659999Y-140036700D01*
X136659999Y-140036700D02*
X137093332Y-140036700D01*
X137493333Y-139570033D02*
X137559999Y-139570033D01*
X137559999Y-139570033D02*
X137626666Y-139603366D01*
X137626666Y-139603366D02*
X137659999Y-139636700D01*
X137659999Y-139636700D02*
X137693333Y-139703366D01*
X137693333Y-139703366D02*
X137726666Y-139836700D01*
X137726666Y-139836700D02*
X137726666Y-140003366D01*
X137726666Y-140003366D02*
X137693333Y-140136700D01*
X137693333Y-140136700D02*
X137659999Y-140203366D01*
X137659999Y-140203366D02*
X137626666Y-140236700D01*
X137626666Y-140236700D02*
X137559999Y-140270033D01*
X137559999Y-140270033D02*
X137493333Y-140270033D01*
X137493333Y-140270033D02*
X137426666Y-140236700D01*
X137426666Y-140236700D02*
X137393333Y-140203366D01*
X137393333Y-140203366D02*
X137359999Y-140136700D01*
X137359999Y-140136700D02*
X137326666Y-140003366D01*
X137326666Y-140003366D02*
X137326666Y-139836700D01*
X137326666Y-139836700D02*
X137359999Y-139703366D01*
X137359999Y-139703366D02*
X137393333Y-139636700D01*
X137393333Y-139636700D02*
X137426666Y-139603366D01*
X137426666Y-139603366D02*
X137493333Y-139570033D01*
X138393333Y-140270033D02*
X137993333Y-140270033D01*
X138193333Y-140270033D02*
X138193333Y-139570033D01*
X138193333Y-139570033D02*
X138126666Y-139670033D01*
X138126666Y-139670033D02*
X138060000Y-139736700D01*
X138060000Y-139736700D02*
X137993333Y-139770033D01*
X140421904Y-145815089D02*
X139850476Y-145815089D01*
X140136190Y-144815089D02*
X140136190Y-145815089D01*
X139517142Y-144815089D02*
X139517142Y-145815089D01*
X139517142Y-145815089D02*
X139183809Y-145100804D01*
X139183809Y-145100804D02*
X138850476Y-145815089D01*
X138850476Y-145815089D02*
X138850476Y-144815089D01*
X137802857Y-144910328D02*
X137850476Y-144862709D01*
X137850476Y-144862709D02*
X137993333Y-144815089D01*
X137993333Y-144815089D02*
X138088571Y-144815089D01*
X138088571Y-144815089D02*
X138231428Y-144862709D01*
X138231428Y-144862709D02*
X138326666Y-144957947D01*
X138326666Y-144957947D02*
X138374285Y-145053185D01*
X138374285Y-145053185D02*
X138421904Y-145243661D01*
X138421904Y-145243661D02*
X138421904Y-145386518D01*
X138421904Y-145386518D02*
X138374285Y-145576994D01*
X138374285Y-145576994D02*
X138326666Y-145672232D01*
X138326666Y-145672232D02*
X138231428Y-145767470D01*
X138231428Y-145767470D02*
X138088571Y-145815089D01*
X138088571Y-145815089D02*
X137993333Y-145815089D01*
X137993333Y-145815089D02*
X137850476Y-145767470D01*
X137850476Y-145767470D02*
X137802857Y-145719851D01*
X137421904Y-145719851D02*
X137374285Y-145767470D01*
X137374285Y-145767470D02*
X137279047Y-145815089D01*
X137279047Y-145815089D02*
X137040952Y-145815089D01*
X137040952Y-145815089D02*
X136945714Y-145767470D01*
X136945714Y-145767470D02*
X136898095Y-145719851D01*
X136898095Y-145719851D02*
X136850476Y-145624613D01*
X136850476Y-145624613D02*
X136850476Y-145529375D01*
X136850476Y-145529375D02*
X136898095Y-145386518D01*
X136898095Y-145386518D02*
X137469523Y-144815089D01*
X137469523Y-144815089D02*
X136850476Y-144815089D01*
X136469523Y-145719851D02*
X136421904Y-145767470D01*
X136421904Y-145767470D02*
X136326666Y-145815089D01*
X136326666Y-145815089D02*
X136088571Y-145815089D01*
X136088571Y-145815089D02*
X135993333Y-145767470D01*
X135993333Y-145767470D02*
X135945714Y-145719851D01*
X135945714Y-145719851D02*
X135898095Y-145624613D01*
X135898095Y-145624613D02*
X135898095Y-145529375D01*
X135898095Y-145529375D02*
X135945714Y-145386518D01*
X135945714Y-145386518D02*
X136517142Y-144815089D01*
X136517142Y-144815089D02*
X135898095Y-144815089D01*
X135279047Y-145815089D02*
X135183809Y-145815089D01*
X135183809Y-145815089D02*
X135088571Y-145767470D01*
X135088571Y-145767470D02*
X135040952Y-145719851D01*
X135040952Y-145719851D02*
X134993333Y-145624613D01*
X134993333Y-145624613D02*
X134945714Y-145434137D01*
X134945714Y-145434137D02*
X134945714Y-145196042D01*
X134945714Y-145196042D02*
X134993333Y-145005566D01*
X134993333Y-145005566D02*
X135040952Y-144910328D01*
X135040952Y-144910328D02*
X135088571Y-144862709D01*
X135088571Y-144862709D02*
X135183809Y-144815089D01*
X135183809Y-144815089D02*
X135279047Y-144815089D01*
X135279047Y-144815089D02*
X135374285Y-144862709D01*
X135374285Y-144862709D02*
X135421904Y-144910328D01*
X135421904Y-144910328D02*
X135469523Y-145005566D01*
X135469523Y-145005566D02*
X135517142Y-145196042D01*
X135517142Y-145196042D02*
X135517142Y-145434137D01*
X135517142Y-145434137D02*
X135469523Y-145624613D01*
X135469523Y-145624613D02*
X135421904Y-145719851D01*
X135421904Y-145719851D02*
X135374285Y-145767470D01*
X135374285Y-145767470D02*
X135279047Y-145815089D01*
X134469523Y-144815089D02*
X134279047Y-144815089D01*
X134279047Y-144815089D02*
X134183809Y-144862709D01*
X134183809Y-144862709D02*
X134136190Y-144910328D01*
X134136190Y-144910328D02*
X134040952Y-145053185D01*
X134040952Y-145053185D02*
X133993333Y-145243661D01*
X133993333Y-145243661D02*
X133993333Y-145624613D01*
X133993333Y-145624613D02*
X134040952Y-145719851D01*
X134040952Y-145719851D02*
X134088571Y-145767470D01*
X134088571Y-145767470D02*
X134183809Y-145815089D01*
X134183809Y-145815089D02*
X134374285Y-145815089D01*
X134374285Y-145815089D02*
X134469523Y-145767470D01*
X134469523Y-145767470D02*
X134517142Y-145719851D01*
X134517142Y-145719851D02*
X134564761Y-145624613D01*
X134564761Y-145624613D02*
X134564761Y-145386518D01*
X134564761Y-145386518D02*
X134517142Y-145291280D01*
X134517142Y-145291280D02*
X134469523Y-145243661D01*
X134469523Y-145243661D02*
X134374285Y-145196042D01*
X134374285Y-145196042D02*
X134183809Y-145196042D01*
X134183809Y-145196042D02*
X134088571Y-145243661D01*
X134088571Y-145243661D02*
X134040952Y-145291280D01*
X134040952Y-145291280D02*
X133993333Y-145386518D01*
X142472666Y-119512033D02*
X142239333Y-119178700D01*
X142072666Y-119512033D02*
X142072666Y-118812033D01*
X142072666Y-118812033D02*
X142339333Y-118812033D01*
X142339333Y-118812033D02*
X142406000Y-118845366D01*
X142406000Y-118845366D02*
X142439333Y-118878700D01*
X142439333Y-118878700D02*
X142472666Y-118945366D01*
X142472666Y-118945366D02*
X142472666Y-119045366D01*
X142472666Y-119045366D02*
X142439333Y-119112033D01*
X142439333Y-119112033D02*
X142406000Y-119145366D01*
X142406000Y-119145366D02*
X142339333Y-119178700D01*
X142339333Y-119178700D02*
X142072666Y-119178700D01*
X143072666Y-118812033D02*
X142939333Y-118812033D01*
X142939333Y-118812033D02*
X142872666Y-118845366D01*
X142872666Y-118845366D02*
X142839333Y-118878700D01*
X142839333Y-118878700D02*
X142772666Y-118978700D01*
X142772666Y-118978700D02*
X142739333Y-119112033D01*
X142739333Y-119112033D02*
X142739333Y-119378700D01*
X142739333Y-119378700D02*
X142772666Y-119445366D01*
X142772666Y-119445366D02*
X142806000Y-119478700D01*
X142806000Y-119478700D02*
X142872666Y-119512033D01*
X142872666Y-119512033D02*
X143006000Y-119512033D01*
X143006000Y-119512033D02*
X143072666Y-119478700D01*
X143072666Y-119478700D02*
X143106000Y-119445366D01*
X143106000Y-119445366D02*
X143139333Y-119378700D01*
X143139333Y-119378700D02*
X143139333Y-119212033D01*
X143139333Y-119212033D02*
X143106000Y-119145366D01*
X143106000Y-119145366D02*
X143072666Y-119112033D01*
X143072666Y-119112033D02*
X143006000Y-119078700D01*
X143006000Y-119078700D02*
X142872666Y-119078700D01*
X142872666Y-119078700D02*
X142806000Y-119112033D01*
X142806000Y-119112033D02*
X142772666Y-119145366D01*
X142772666Y-119145366D02*
X142739333Y-119212033D01*
X143806000Y-119512033D02*
X143406000Y-119512033D01*
X143606000Y-119512033D02*
X143606000Y-118812033D01*
X143606000Y-118812033D02*
X143539333Y-118912033D01*
X143539333Y-118912033D02*
X143472667Y-118978700D01*
X143472667Y-118978700D02*
X143406000Y-119012033D01*
X144406000Y-118812033D02*
X144272667Y-118812033D01*
X144272667Y-118812033D02*
X144206000Y-118845366D01*
X144206000Y-118845366D02*
X144172667Y-118878700D01*
X144172667Y-118878700D02*
X144106000Y-118978700D01*
X144106000Y-118978700D02*
X144072667Y-119112033D01*
X144072667Y-119112033D02*
X144072667Y-119378700D01*
X144072667Y-119378700D02*
X144106000Y-119445366D01*
X144106000Y-119445366D02*
X144139334Y-119478700D01*
X144139334Y-119478700D02*
X144206000Y-119512033D01*
X144206000Y-119512033D02*
X144339334Y-119512033D01*
X144339334Y-119512033D02*
X144406000Y-119478700D01*
X144406000Y-119478700D02*
X144439334Y-119445366D01*
X144439334Y-119445366D02*
X144472667Y-119378700D01*
X144472667Y-119378700D02*
X144472667Y-119212033D01*
X144472667Y-119212033D02*
X144439334Y-119145366D01*
X144439334Y-119145366D02*
X144406000Y-119112033D01*
X144406000Y-119112033D02*
X144339334Y-119078700D01*
X144339334Y-119078700D02*
X144206000Y-119078700D01*
X144206000Y-119078700D02*
X144139334Y-119112033D01*
X144139334Y-119112033D02*
X144106000Y-119145366D01*
X144106000Y-119145366D02*
X144072667Y-119212033D01*
X142472666Y-122814033D02*
X142239333Y-122480700D01*
X142072666Y-122814033D02*
X142072666Y-122114033D01*
X142072666Y-122114033D02*
X142339333Y-122114033D01*
X142339333Y-122114033D02*
X142406000Y-122147366D01*
X142406000Y-122147366D02*
X142439333Y-122180700D01*
X142439333Y-122180700D02*
X142472666Y-122247366D01*
X142472666Y-122247366D02*
X142472666Y-122347366D01*
X142472666Y-122347366D02*
X142439333Y-122414033D01*
X142439333Y-122414033D02*
X142406000Y-122447366D01*
X142406000Y-122447366D02*
X142339333Y-122480700D01*
X142339333Y-122480700D02*
X142072666Y-122480700D01*
X143072666Y-122114033D02*
X142939333Y-122114033D01*
X142939333Y-122114033D02*
X142872666Y-122147366D01*
X142872666Y-122147366D02*
X142839333Y-122180700D01*
X142839333Y-122180700D02*
X142772666Y-122280700D01*
X142772666Y-122280700D02*
X142739333Y-122414033D01*
X142739333Y-122414033D02*
X142739333Y-122680700D01*
X142739333Y-122680700D02*
X142772666Y-122747366D01*
X142772666Y-122747366D02*
X142806000Y-122780700D01*
X142806000Y-122780700D02*
X142872666Y-122814033D01*
X142872666Y-122814033D02*
X143006000Y-122814033D01*
X143006000Y-122814033D02*
X143072666Y-122780700D01*
X143072666Y-122780700D02*
X143106000Y-122747366D01*
X143106000Y-122747366D02*
X143139333Y-122680700D01*
X143139333Y-122680700D02*
X143139333Y-122514033D01*
X143139333Y-122514033D02*
X143106000Y-122447366D01*
X143106000Y-122447366D02*
X143072666Y-122414033D01*
X143072666Y-122414033D02*
X143006000Y-122380700D01*
X143006000Y-122380700D02*
X142872666Y-122380700D01*
X142872666Y-122380700D02*
X142806000Y-122414033D01*
X142806000Y-122414033D02*
X142772666Y-122447366D01*
X142772666Y-122447366D02*
X142739333Y-122514033D01*
X143806000Y-122814033D02*
X143406000Y-122814033D01*
X143606000Y-122814033D02*
X143606000Y-122114033D01*
X143606000Y-122114033D02*
X143539333Y-122214033D01*
X143539333Y-122214033D02*
X143472667Y-122280700D01*
X143472667Y-122280700D02*
X143406000Y-122314033D01*
X144439334Y-122114033D02*
X144106000Y-122114033D01*
X144106000Y-122114033D02*
X144072667Y-122447366D01*
X144072667Y-122447366D02*
X144106000Y-122414033D01*
X144106000Y-122414033D02*
X144172667Y-122380700D01*
X144172667Y-122380700D02*
X144339334Y-122380700D01*
X144339334Y-122380700D02*
X144406000Y-122414033D01*
X144406000Y-122414033D02*
X144439334Y-122447366D01*
X144439334Y-122447366D02*
X144472667Y-122514033D01*
X144472667Y-122514033D02*
X144472667Y-122680700D01*
X144472667Y-122680700D02*
X144439334Y-122747366D01*
X144439334Y-122747366D02*
X144406000Y-122780700D01*
X144406000Y-122780700D02*
X144339334Y-122814033D01*
X144339334Y-122814033D02*
X144172667Y-122814033D01*
X144172667Y-122814033D02*
X144106000Y-122780700D01*
X144106000Y-122780700D02*
X144072667Y-122747366D01*
X141085999Y-100200033D02*
X141085999Y-100700033D01*
X141085999Y-100700033D02*
X141052666Y-100800033D01*
X141052666Y-100800033D02*
X140985999Y-100866700D01*
X140985999Y-100866700D02*
X140885999Y-100900033D01*
X140885999Y-100900033D02*
X140819333Y-100900033D01*
X141719332Y-100200033D02*
X141585999Y-100200033D01*
X141585999Y-100200033D02*
X141519332Y-100233366D01*
X141519332Y-100233366D02*
X141485999Y-100266700D01*
X141485999Y-100266700D02*
X141419332Y-100366700D01*
X141419332Y-100366700D02*
X141385999Y-100500033D01*
X141385999Y-100500033D02*
X141385999Y-100766700D01*
X141385999Y-100766700D02*
X141419332Y-100833366D01*
X141419332Y-100833366D02*
X141452666Y-100866700D01*
X141452666Y-100866700D02*
X141519332Y-100900033D01*
X141519332Y-100900033D02*
X141652666Y-100900033D01*
X141652666Y-100900033D02*
X141719332Y-100866700D01*
X141719332Y-100866700D02*
X141752666Y-100833366D01*
X141752666Y-100833366D02*
X141785999Y-100766700D01*
X141785999Y-100766700D02*
X141785999Y-100600033D01*
X141785999Y-100600033D02*
X141752666Y-100533366D01*
X141752666Y-100533366D02*
X141719332Y-100500033D01*
X141719332Y-100500033D02*
X141652666Y-100466700D01*
X141652666Y-100466700D02*
X141519332Y-100466700D01*
X141519332Y-100466700D02*
X141452666Y-100500033D01*
X141452666Y-100500033D02*
X141419332Y-100533366D01*
X141419332Y-100533366D02*
X141385999Y-100600033D01*
X142219333Y-100200033D02*
X142285999Y-100200033D01*
X142285999Y-100200033D02*
X142352666Y-100233366D01*
X142352666Y-100233366D02*
X142385999Y-100266700D01*
X142385999Y-100266700D02*
X142419333Y-100333366D01*
X142419333Y-100333366D02*
X142452666Y-100466700D01*
X142452666Y-100466700D02*
X142452666Y-100633366D01*
X142452666Y-100633366D02*
X142419333Y-100766700D01*
X142419333Y-100766700D02*
X142385999Y-100833366D01*
X142385999Y-100833366D02*
X142352666Y-100866700D01*
X142352666Y-100866700D02*
X142285999Y-100900033D01*
X142285999Y-100900033D02*
X142219333Y-100900033D01*
X142219333Y-100900033D02*
X142152666Y-100866700D01*
X142152666Y-100866700D02*
X142119333Y-100833366D01*
X142119333Y-100833366D02*
X142085999Y-100766700D01*
X142085999Y-100766700D02*
X142052666Y-100633366D01*
X142052666Y-100633366D02*
X142052666Y-100466700D01*
X142052666Y-100466700D02*
X142085999Y-100333366D01*
X142085999Y-100333366D02*
X142119333Y-100266700D01*
X142119333Y-100266700D02*
X142152666Y-100233366D01*
X142152666Y-100233366D02*
X142219333Y-100200033D01*
X142719333Y-100266700D02*
X142752666Y-100233366D01*
X142752666Y-100233366D02*
X142819333Y-100200033D01*
X142819333Y-100200033D02*
X142986000Y-100200033D01*
X142986000Y-100200033D02*
X143052666Y-100233366D01*
X143052666Y-100233366D02*
X143086000Y-100266700D01*
X143086000Y-100266700D02*
X143119333Y-100333366D01*
X143119333Y-100333366D02*
X143119333Y-100400033D01*
X143119333Y-100400033D02*
X143086000Y-100500033D01*
X143086000Y-100500033D02*
X142686000Y-100900033D01*
X142686000Y-100900033D02*
X143119333Y-100900033D01*
X119155033Y-108733333D02*
X118821700Y-108966666D01*
X119155033Y-109133333D02*
X118455033Y-109133333D01*
X118455033Y-109133333D02*
X118455033Y-108866666D01*
X118455033Y-108866666D02*
X118488366Y-108800000D01*
X118488366Y-108800000D02*
X118521700Y-108766666D01*
X118521700Y-108766666D02*
X118588366Y-108733333D01*
X118588366Y-108733333D02*
X118688366Y-108733333D01*
X118688366Y-108733333D02*
X118755033Y-108766666D01*
X118755033Y-108766666D02*
X118788366Y-108800000D01*
X118788366Y-108800000D02*
X118821700Y-108866666D01*
X118821700Y-108866666D02*
X118821700Y-109133333D01*
X118455033Y-108133333D02*
X118455033Y-108266666D01*
X118455033Y-108266666D02*
X118488366Y-108333333D01*
X118488366Y-108333333D02*
X118521700Y-108366666D01*
X118521700Y-108366666D02*
X118621700Y-108433333D01*
X118621700Y-108433333D02*
X118755033Y-108466666D01*
X118755033Y-108466666D02*
X119021700Y-108466666D01*
X119021700Y-108466666D02*
X119088366Y-108433333D01*
X119088366Y-108433333D02*
X119121700Y-108400000D01*
X119121700Y-108400000D02*
X119155033Y-108333333D01*
X119155033Y-108333333D02*
X119155033Y-108200000D01*
X119155033Y-108200000D02*
X119121700Y-108133333D01*
X119121700Y-108133333D02*
X119088366Y-108100000D01*
X119088366Y-108100000D02*
X119021700Y-108066666D01*
X119021700Y-108066666D02*
X118855033Y-108066666D01*
X118855033Y-108066666D02*
X118788366Y-108100000D01*
X118788366Y-108100000D02*
X118755033Y-108133333D01*
X118755033Y-108133333D02*
X118721700Y-108200000D01*
X118721700Y-108200000D02*
X118721700Y-108333333D01*
X118721700Y-108333333D02*
X118755033Y-108400000D01*
X118755033Y-108400000D02*
X118788366Y-108433333D01*
X118788366Y-108433333D02*
X118855033Y-108466666D01*
X118455033Y-107633333D02*
X118455033Y-107566666D01*
X118455033Y-107566666D02*
X118488366Y-107499999D01*
X118488366Y-107499999D02*
X118521700Y-107466666D01*
X118521700Y-107466666D02*
X118588366Y-107433333D01*
X118588366Y-107433333D02*
X118721700Y-107399999D01*
X118721700Y-107399999D02*
X118888366Y-107399999D01*
X118888366Y-107399999D02*
X119021700Y-107433333D01*
X119021700Y-107433333D02*
X119088366Y-107466666D01*
X119088366Y-107466666D02*
X119121700Y-107499999D01*
X119121700Y-107499999D02*
X119155033Y-107566666D01*
X119155033Y-107566666D02*
X119155033Y-107633333D01*
X119155033Y-107633333D02*
X119121700Y-107699999D01*
X119121700Y-107699999D02*
X119088366Y-107733333D01*
X119088366Y-107733333D02*
X119021700Y-107766666D01*
X119021700Y-107766666D02*
X118888366Y-107799999D01*
X118888366Y-107799999D02*
X118721700Y-107799999D01*
X118721700Y-107799999D02*
X118588366Y-107766666D01*
X118588366Y-107766666D02*
X118521700Y-107733333D01*
X118521700Y-107733333D02*
X118488366Y-107699999D01*
X118488366Y-107699999D02*
X118455033Y-107633333D01*
X118755033Y-106999999D02*
X118721700Y-107066666D01*
X118721700Y-107066666D02*
X118688366Y-107099999D01*
X118688366Y-107099999D02*
X118621700Y-107133332D01*
X118621700Y-107133332D02*
X118588366Y-107133332D01*
X118588366Y-107133332D02*
X118521700Y-107099999D01*
X118521700Y-107099999D02*
X118488366Y-107066666D01*
X118488366Y-107066666D02*
X118455033Y-106999999D01*
X118455033Y-106999999D02*
X118455033Y-106866666D01*
X118455033Y-106866666D02*
X118488366Y-106799999D01*
X118488366Y-106799999D02*
X118521700Y-106766666D01*
X118521700Y-106766666D02*
X118588366Y-106733332D01*
X118588366Y-106733332D02*
X118621700Y-106733332D01*
X118621700Y-106733332D02*
X118688366Y-106766666D01*
X118688366Y-106766666D02*
X118721700Y-106799999D01*
X118721700Y-106799999D02*
X118755033Y-106866666D01*
X118755033Y-106866666D02*
X118755033Y-106999999D01*
X118755033Y-106999999D02*
X118788366Y-107066666D01*
X118788366Y-107066666D02*
X118821700Y-107099999D01*
X118821700Y-107099999D02*
X118888366Y-107133332D01*
X118888366Y-107133332D02*
X119021700Y-107133332D01*
X119021700Y-107133332D02*
X119088366Y-107099999D01*
X119088366Y-107099999D02*
X119121700Y-107066666D01*
X119121700Y-107066666D02*
X119155033Y-106999999D01*
X119155033Y-106999999D02*
X119155033Y-106866666D01*
X119155033Y-106866666D02*
X119121700Y-106799999D01*
X119121700Y-106799999D02*
X119088366Y-106766666D01*
X119088366Y-106766666D02*
X119021700Y-106733332D01*
X119021700Y-106733332D02*
X118888366Y-106733332D01*
X118888366Y-106733332D02*
X118821700Y-106766666D01*
X118821700Y-106766666D02*
X118788366Y-106799999D01*
X118788366Y-106799999D02*
X118755033Y-106866666D01*
X115294666Y-110298033D02*
X115061333Y-109964700D01*
X114894666Y-110298033D02*
X114894666Y-109598033D01*
X114894666Y-109598033D02*
X115161333Y-109598033D01*
X115161333Y-109598033D02*
X115228000Y-109631366D01*
X115228000Y-109631366D02*
X115261333Y-109664700D01*
X115261333Y-109664700D02*
X115294666Y-109731366D01*
X115294666Y-109731366D02*
X115294666Y-109831366D01*
X115294666Y-109831366D02*
X115261333Y-109898033D01*
X115261333Y-109898033D02*
X115228000Y-109931366D01*
X115228000Y-109931366D02*
X115161333Y-109964700D01*
X115161333Y-109964700D02*
X114894666Y-109964700D01*
X115928000Y-109598033D02*
X115594666Y-109598033D01*
X115594666Y-109598033D02*
X115561333Y-109931366D01*
X115561333Y-109931366D02*
X115594666Y-109898033D01*
X115594666Y-109898033D02*
X115661333Y-109864700D01*
X115661333Y-109864700D02*
X115828000Y-109864700D01*
X115828000Y-109864700D02*
X115894666Y-109898033D01*
X115894666Y-109898033D02*
X115928000Y-109931366D01*
X115928000Y-109931366D02*
X115961333Y-109998033D01*
X115961333Y-109998033D02*
X115961333Y-110164700D01*
X115961333Y-110164700D02*
X115928000Y-110231366D01*
X115928000Y-110231366D02*
X115894666Y-110264700D01*
X115894666Y-110264700D02*
X115828000Y-110298033D01*
X115828000Y-110298033D02*
X115661333Y-110298033D01*
X115661333Y-110298033D02*
X115594666Y-110264700D01*
X115594666Y-110264700D02*
X115561333Y-110231366D01*
X116628000Y-110298033D02*
X116228000Y-110298033D01*
X116428000Y-110298033D02*
X116428000Y-109598033D01*
X116428000Y-109598033D02*
X116361333Y-109698033D01*
X116361333Y-109698033D02*
X116294667Y-109764700D01*
X116294667Y-109764700D02*
X116228000Y-109798033D01*
X116861334Y-109598033D02*
X117294667Y-109598033D01*
X117294667Y-109598033D02*
X117061334Y-109864700D01*
X117061334Y-109864700D02*
X117161334Y-109864700D01*
X117161334Y-109864700D02*
X117228000Y-109898033D01*
X117228000Y-109898033D02*
X117261334Y-109931366D01*
X117261334Y-109931366D02*
X117294667Y-109998033D01*
X117294667Y-109998033D02*
X117294667Y-110164700D01*
X117294667Y-110164700D02*
X117261334Y-110231366D01*
X117261334Y-110231366D02*
X117228000Y-110264700D01*
X117228000Y-110264700D02*
X117161334Y-110298033D01*
X117161334Y-110298033D02*
X116961334Y-110298033D01*
X116961334Y-110298033D02*
X116894667Y-110264700D01*
X116894667Y-110264700D02*
X116861334Y-110231366D01*
X96836033Y-103907333D02*
X96502700Y-104140666D01*
X96836033Y-104307333D02*
X96136033Y-104307333D01*
X96136033Y-104307333D02*
X96136033Y-104040666D01*
X96136033Y-104040666D02*
X96169366Y-103974000D01*
X96169366Y-103974000D02*
X96202700Y-103940666D01*
X96202700Y-103940666D02*
X96269366Y-103907333D01*
X96269366Y-103907333D02*
X96369366Y-103907333D01*
X96369366Y-103907333D02*
X96436033Y-103940666D01*
X96436033Y-103940666D02*
X96469366Y-103974000D01*
X96469366Y-103974000D02*
X96502700Y-104040666D01*
X96502700Y-104040666D02*
X96502700Y-104307333D01*
X96136033Y-103274000D02*
X96136033Y-103607333D01*
X96136033Y-103607333D02*
X96469366Y-103640666D01*
X96469366Y-103640666D02*
X96436033Y-103607333D01*
X96436033Y-103607333D02*
X96402700Y-103540666D01*
X96402700Y-103540666D02*
X96402700Y-103374000D01*
X96402700Y-103374000D02*
X96436033Y-103307333D01*
X96436033Y-103307333D02*
X96469366Y-103274000D01*
X96469366Y-103274000D02*
X96536033Y-103240666D01*
X96536033Y-103240666D02*
X96702700Y-103240666D01*
X96702700Y-103240666D02*
X96769366Y-103274000D01*
X96769366Y-103274000D02*
X96802700Y-103307333D01*
X96802700Y-103307333D02*
X96836033Y-103374000D01*
X96836033Y-103374000D02*
X96836033Y-103540666D01*
X96836033Y-103540666D02*
X96802700Y-103607333D01*
X96802700Y-103607333D02*
X96769366Y-103640666D01*
X96836033Y-102573999D02*
X96836033Y-102973999D01*
X96836033Y-102773999D02*
X96136033Y-102773999D01*
X96136033Y-102773999D02*
X96236033Y-102840666D01*
X96236033Y-102840666D02*
X96302700Y-102907333D01*
X96302700Y-102907333D02*
X96336033Y-102973999D01*
X96836033Y-102240666D02*
X96836033Y-102107332D01*
X96836033Y-102107332D02*
X96802700Y-102040666D01*
X96802700Y-102040666D02*
X96769366Y-102007332D01*
X96769366Y-102007332D02*
X96669366Y-101940666D01*
X96669366Y-101940666D02*
X96536033Y-101907332D01*
X96536033Y-101907332D02*
X96269366Y-101907332D01*
X96269366Y-101907332D02*
X96202700Y-101940666D01*
X96202700Y-101940666D02*
X96169366Y-101973999D01*
X96169366Y-101973999D02*
X96136033Y-102040666D01*
X96136033Y-102040666D02*
X96136033Y-102173999D01*
X96136033Y-102173999D02*
X96169366Y-102240666D01*
X96169366Y-102240666D02*
X96202700Y-102273999D01*
X96202700Y-102273999D02*
X96269366Y-102307332D01*
X96269366Y-102307332D02*
X96436033Y-102307332D01*
X96436033Y-102307332D02*
X96502700Y-102273999D01*
X96502700Y-102273999D02*
X96536033Y-102240666D01*
X96536033Y-102240666D02*
X96569366Y-102173999D01*
X96569366Y-102173999D02*
X96569366Y-102040666D01*
X96569366Y-102040666D02*
X96536033Y-101973999D01*
X96536033Y-101973999D02*
X96502700Y-101940666D01*
X96502700Y-101940666D02*
X96436033Y-101907332D01*
X123005999Y-99438033D02*
X123005999Y-100004700D01*
X123005999Y-100004700D02*
X123039333Y-100071366D01*
X123039333Y-100071366D02*
X123072666Y-100104700D01*
X123072666Y-100104700D02*
X123139333Y-100138033D01*
X123139333Y-100138033D02*
X123272666Y-100138033D01*
X123272666Y-100138033D02*
X123339333Y-100104700D01*
X123339333Y-100104700D02*
X123372666Y-100071366D01*
X123372666Y-100071366D02*
X123405999Y-100004700D01*
X123405999Y-100004700D02*
X123405999Y-99438033D01*
X124039332Y-99438033D02*
X123905999Y-99438033D01*
X123905999Y-99438033D02*
X123839332Y-99471366D01*
X123839332Y-99471366D02*
X123805999Y-99504700D01*
X123805999Y-99504700D02*
X123739332Y-99604700D01*
X123739332Y-99604700D02*
X123705999Y-99738033D01*
X123705999Y-99738033D02*
X123705999Y-100004700D01*
X123705999Y-100004700D02*
X123739332Y-100071366D01*
X123739332Y-100071366D02*
X123772666Y-100104700D01*
X123772666Y-100104700D02*
X123839332Y-100138033D01*
X123839332Y-100138033D02*
X123972666Y-100138033D01*
X123972666Y-100138033D02*
X124039332Y-100104700D01*
X124039332Y-100104700D02*
X124072666Y-100071366D01*
X124072666Y-100071366D02*
X124105999Y-100004700D01*
X124105999Y-100004700D02*
X124105999Y-99838033D01*
X124105999Y-99838033D02*
X124072666Y-99771366D01*
X124072666Y-99771366D02*
X124039332Y-99738033D01*
X124039332Y-99738033D02*
X123972666Y-99704700D01*
X123972666Y-99704700D02*
X123839332Y-99704700D01*
X123839332Y-99704700D02*
X123772666Y-99738033D01*
X123772666Y-99738033D02*
X123739332Y-99771366D01*
X123739332Y-99771366D02*
X123705999Y-99838033D01*
X124539333Y-99438033D02*
X124605999Y-99438033D01*
X124605999Y-99438033D02*
X124672666Y-99471366D01*
X124672666Y-99471366D02*
X124705999Y-99504700D01*
X124705999Y-99504700D02*
X124739333Y-99571366D01*
X124739333Y-99571366D02*
X124772666Y-99704700D01*
X124772666Y-99704700D02*
X124772666Y-99871366D01*
X124772666Y-99871366D02*
X124739333Y-100004700D01*
X124739333Y-100004700D02*
X124705999Y-100071366D01*
X124705999Y-100071366D02*
X124672666Y-100104700D01*
X124672666Y-100104700D02*
X124605999Y-100138033D01*
X124605999Y-100138033D02*
X124539333Y-100138033D01*
X124539333Y-100138033D02*
X124472666Y-100104700D01*
X124472666Y-100104700D02*
X124439333Y-100071366D01*
X124439333Y-100071366D02*
X124405999Y-100004700D01*
X124405999Y-100004700D02*
X124372666Y-99871366D01*
X124372666Y-99871366D02*
X124372666Y-99704700D01*
X124372666Y-99704700D02*
X124405999Y-99571366D01*
X124405999Y-99571366D02*
X124439333Y-99504700D01*
X124439333Y-99504700D02*
X124472666Y-99471366D01*
X124472666Y-99471366D02*
X124539333Y-99438033D01*
X125006000Y-99438033D02*
X125439333Y-99438033D01*
X125439333Y-99438033D02*
X125206000Y-99704700D01*
X125206000Y-99704700D02*
X125306000Y-99704700D01*
X125306000Y-99704700D02*
X125372666Y-99738033D01*
X125372666Y-99738033D02*
X125406000Y-99771366D01*
X125406000Y-99771366D02*
X125439333Y-99838033D01*
X125439333Y-99838033D02*
X125439333Y-100004700D01*
X125439333Y-100004700D02*
X125406000Y-100071366D01*
X125406000Y-100071366D02*
X125372666Y-100104700D01*
X125372666Y-100104700D02*
X125306000Y-100138033D01*
X125306000Y-100138033D02*
X125106000Y-100138033D01*
X125106000Y-100138033D02*
X125039333Y-100104700D01*
X125039333Y-100104700D02*
X125006000Y-100071366D01*
X111321999Y-99438033D02*
X111321999Y-100004700D01*
X111321999Y-100004700D02*
X111355333Y-100071366D01*
X111355333Y-100071366D02*
X111388666Y-100104700D01*
X111388666Y-100104700D02*
X111455333Y-100138033D01*
X111455333Y-100138033D02*
X111588666Y-100138033D01*
X111588666Y-100138033D02*
X111655333Y-100104700D01*
X111655333Y-100104700D02*
X111688666Y-100071366D01*
X111688666Y-100071366D02*
X111721999Y-100004700D01*
X111721999Y-100004700D02*
X111721999Y-99438033D01*
X112388666Y-99438033D02*
X112055332Y-99438033D01*
X112055332Y-99438033D02*
X112021999Y-99771366D01*
X112021999Y-99771366D02*
X112055332Y-99738033D01*
X112055332Y-99738033D02*
X112121999Y-99704700D01*
X112121999Y-99704700D02*
X112288666Y-99704700D01*
X112288666Y-99704700D02*
X112355332Y-99738033D01*
X112355332Y-99738033D02*
X112388666Y-99771366D01*
X112388666Y-99771366D02*
X112421999Y-99838033D01*
X112421999Y-99838033D02*
X112421999Y-100004700D01*
X112421999Y-100004700D02*
X112388666Y-100071366D01*
X112388666Y-100071366D02*
X112355332Y-100104700D01*
X112355332Y-100104700D02*
X112288666Y-100138033D01*
X112288666Y-100138033D02*
X112121999Y-100138033D01*
X112121999Y-100138033D02*
X112055332Y-100104700D01*
X112055332Y-100104700D02*
X112021999Y-100071366D01*
X112855333Y-99438033D02*
X112921999Y-99438033D01*
X112921999Y-99438033D02*
X112988666Y-99471366D01*
X112988666Y-99471366D02*
X113021999Y-99504700D01*
X113021999Y-99504700D02*
X113055333Y-99571366D01*
X113055333Y-99571366D02*
X113088666Y-99704700D01*
X113088666Y-99704700D02*
X113088666Y-99871366D01*
X113088666Y-99871366D02*
X113055333Y-100004700D01*
X113055333Y-100004700D02*
X113021999Y-100071366D01*
X113021999Y-100071366D02*
X112988666Y-100104700D01*
X112988666Y-100104700D02*
X112921999Y-100138033D01*
X112921999Y-100138033D02*
X112855333Y-100138033D01*
X112855333Y-100138033D02*
X112788666Y-100104700D01*
X112788666Y-100104700D02*
X112755333Y-100071366D01*
X112755333Y-100071366D02*
X112721999Y-100004700D01*
X112721999Y-100004700D02*
X112688666Y-99871366D01*
X112688666Y-99871366D02*
X112688666Y-99704700D01*
X112688666Y-99704700D02*
X112721999Y-99571366D01*
X112721999Y-99571366D02*
X112755333Y-99504700D01*
X112755333Y-99504700D02*
X112788666Y-99471366D01*
X112788666Y-99471366D02*
X112855333Y-99438033D01*
X113755333Y-100138033D02*
X113355333Y-100138033D01*
X113555333Y-100138033D02*
X113555333Y-99438033D01*
X113555333Y-99438033D02*
X113488666Y-99538033D01*
X113488666Y-99538033D02*
X113422000Y-99604700D01*
X113422000Y-99604700D02*
X113355333Y-99638033D01*
X134689999Y-106042033D02*
X134689999Y-106608700D01*
X134689999Y-106608700D02*
X134723333Y-106675366D01*
X134723333Y-106675366D02*
X134756666Y-106708700D01*
X134756666Y-106708700D02*
X134823333Y-106742033D01*
X134823333Y-106742033D02*
X134956666Y-106742033D01*
X134956666Y-106742033D02*
X135023333Y-106708700D01*
X135023333Y-106708700D02*
X135056666Y-106675366D01*
X135056666Y-106675366D02*
X135089999Y-106608700D01*
X135089999Y-106608700D02*
X135089999Y-106042033D01*
X135723332Y-106042033D02*
X135589999Y-106042033D01*
X135589999Y-106042033D02*
X135523332Y-106075366D01*
X135523332Y-106075366D02*
X135489999Y-106108700D01*
X135489999Y-106108700D02*
X135423332Y-106208700D01*
X135423332Y-106208700D02*
X135389999Y-106342033D01*
X135389999Y-106342033D02*
X135389999Y-106608700D01*
X135389999Y-106608700D02*
X135423332Y-106675366D01*
X135423332Y-106675366D02*
X135456666Y-106708700D01*
X135456666Y-106708700D02*
X135523332Y-106742033D01*
X135523332Y-106742033D02*
X135656666Y-106742033D01*
X135656666Y-106742033D02*
X135723332Y-106708700D01*
X135723332Y-106708700D02*
X135756666Y-106675366D01*
X135756666Y-106675366D02*
X135789999Y-106608700D01*
X135789999Y-106608700D02*
X135789999Y-106442033D01*
X135789999Y-106442033D02*
X135756666Y-106375366D01*
X135756666Y-106375366D02*
X135723332Y-106342033D01*
X135723332Y-106342033D02*
X135656666Y-106308700D01*
X135656666Y-106308700D02*
X135523332Y-106308700D01*
X135523332Y-106308700D02*
X135456666Y-106342033D01*
X135456666Y-106342033D02*
X135423332Y-106375366D01*
X135423332Y-106375366D02*
X135389999Y-106442033D01*
X136223333Y-106042033D02*
X136289999Y-106042033D01*
X136289999Y-106042033D02*
X136356666Y-106075366D01*
X136356666Y-106075366D02*
X136389999Y-106108700D01*
X136389999Y-106108700D02*
X136423333Y-106175366D01*
X136423333Y-106175366D02*
X136456666Y-106308700D01*
X136456666Y-106308700D02*
X136456666Y-106475366D01*
X136456666Y-106475366D02*
X136423333Y-106608700D01*
X136423333Y-106608700D02*
X136389999Y-106675366D01*
X136389999Y-106675366D02*
X136356666Y-106708700D01*
X136356666Y-106708700D02*
X136289999Y-106742033D01*
X136289999Y-106742033D02*
X136223333Y-106742033D01*
X136223333Y-106742033D02*
X136156666Y-106708700D01*
X136156666Y-106708700D02*
X136123333Y-106675366D01*
X136123333Y-106675366D02*
X136089999Y-106608700D01*
X136089999Y-106608700D02*
X136056666Y-106475366D01*
X136056666Y-106475366D02*
X136056666Y-106308700D01*
X136056666Y-106308700D02*
X136089999Y-106175366D01*
X136089999Y-106175366D02*
X136123333Y-106108700D01*
X136123333Y-106108700D02*
X136156666Y-106075366D01*
X136156666Y-106075366D02*
X136223333Y-106042033D01*
X137123333Y-106742033D02*
X136723333Y-106742033D01*
X136923333Y-106742033D02*
X136923333Y-106042033D01*
X136923333Y-106042033D02*
X136856666Y-106142033D01*
X136856666Y-106142033D02*
X136790000Y-106208700D01*
X136790000Y-106208700D02*
X136723333Y-106242033D01*
X138471033Y-97858000D02*
X138971033Y-97858000D01*
X138971033Y-97858000D02*
X139071033Y-97891333D01*
X139071033Y-97891333D02*
X139137700Y-97958000D01*
X139137700Y-97958000D02*
X139171033Y-98058000D01*
X139171033Y-98058000D02*
X139171033Y-98124667D01*
X138471033Y-97224667D02*
X138471033Y-97358000D01*
X138471033Y-97358000D02*
X138504366Y-97424667D01*
X138504366Y-97424667D02*
X138537700Y-97458000D01*
X138537700Y-97458000D02*
X138637700Y-97524667D01*
X138637700Y-97524667D02*
X138771033Y-97558000D01*
X138771033Y-97558000D02*
X139037700Y-97558000D01*
X139037700Y-97558000D02*
X139104366Y-97524667D01*
X139104366Y-97524667D02*
X139137700Y-97491334D01*
X139137700Y-97491334D02*
X139171033Y-97424667D01*
X139171033Y-97424667D02*
X139171033Y-97291334D01*
X139171033Y-97291334D02*
X139137700Y-97224667D01*
X139137700Y-97224667D02*
X139104366Y-97191334D01*
X139104366Y-97191334D02*
X139037700Y-97158000D01*
X139037700Y-97158000D02*
X138871033Y-97158000D01*
X138871033Y-97158000D02*
X138804366Y-97191334D01*
X138804366Y-97191334D02*
X138771033Y-97224667D01*
X138771033Y-97224667D02*
X138737700Y-97291334D01*
X138737700Y-97291334D02*
X138737700Y-97424667D01*
X138737700Y-97424667D02*
X138771033Y-97491334D01*
X138771033Y-97491334D02*
X138804366Y-97524667D01*
X138804366Y-97524667D02*
X138871033Y-97558000D01*
X138471033Y-96724667D02*
X138471033Y-96658000D01*
X138471033Y-96658000D02*
X138504366Y-96591333D01*
X138504366Y-96591333D02*
X138537700Y-96558000D01*
X138537700Y-96558000D02*
X138604366Y-96524667D01*
X138604366Y-96524667D02*
X138737700Y-96491333D01*
X138737700Y-96491333D02*
X138904366Y-96491333D01*
X138904366Y-96491333D02*
X139037700Y-96524667D01*
X139037700Y-96524667D02*
X139104366Y-96558000D01*
X139104366Y-96558000D02*
X139137700Y-96591333D01*
X139137700Y-96591333D02*
X139171033Y-96658000D01*
X139171033Y-96658000D02*
X139171033Y-96724667D01*
X139171033Y-96724667D02*
X139137700Y-96791333D01*
X139137700Y-96791333D02*
X139104366Y-96824667D01*
X139104366Y-96824667D02*
X139037700Y-96858000D01*
X139037700Y-96858000D02*
X138904366Y-96891333D01*
X138904366Y-96891333D02*
X138737700Y-96891333D01*
X138737700Y-96891333D02*
X138604366Y-96858000D01*
X138604366Y-96858000D02*
X138537700Y-96824667D01*
X138537700Y-96824667D02*
X138504366Y-96791333D01*
X138504366Y-96791333D02*
X138471033Y-96724667D01*
X139171033Y-95824666D02*
X139171033Y-96224666D01*
X139171033Y-96024666D02*
X138471033Y-96024666D01*
X138471033Y-96024666D02*
X138571033Y-96091333D01*
X138571033Y-96091333D02*
X138637700Y-96158000D01*
X138637700Y-96158000D02*
X138671033Y-96224666D01*
X119612666Y-96836033D02*
X119379333Y-96502700D01*
X119212666Y-96836033D02*
X119212666Y-96136033D01*
X119212666Y-96136033D02*
X119479333Y-96136033D01*
X119479333Y-96136033D02*
X119546000Y-96169366D01*
X119546000Y-96169366D02*
X119579333Y-96202700D01*
X119579333Y-96202700D02*
X119612666Y-96269366D01*
X119612666Y-96269366D02*
X119612666Y-96369366D01*
X119612666Y-96369366D02*
X119579333Y-96436033D01*
X119579333Y-96436033D02*
X119546000Y-96469366D01*
X119546000Y-96469366D02*
X119479333Y-96502700D01*
X119479333Y-96502700D02*
X119212666Y-96502700D01*
X120212666Y-96136033D02*
X120079333Y-96136033D01*
X120079333Y-96136033D02*
X120012666Y-96169366D01*
X120012666Y-96169366D02*
X119979333Y-96202700D01*
X119979333Y-96202700D02*
X119912666Y-96302700D01*
X119912666Y-96302700D02*
X119879333Y-96436033D01*
X119879333Y-96436033D02*
X119879333Y-96702700D01*
X119879333Y-96702700D02*
X119912666Y-96769366D01*
X119912666Y-96769366D02*
X119946000Y-96802700D01*
X119946000Y-96802700D02*
X120012666Y-96836033D01*
X120012666Y-96836033D02*
X120146000Y-96836033D01*
X120146000Y-96836033D02*
X120212666Y-96802700D01*
X120212666Y-96802700D02*
X120246000Y-96769366D01*
X120246000Y-96769366D02*
X120279333Y-96702700D01*
X120279333Y-96702700D02*
X120279333Y-96536033D01*
X120279333Y-96536033D02*
X120246000Y-96469366D01*
X120246000Y-96469366D02*
X120212666Y-96436033D01*
X120212666Y-96436033D02*
X120146000Y-96402700D01*
X120146000Y-96402700D02*
X120012666Y-96402700D01*
X120012666Y-96402700D02*
X119946000Y-96436033D01*
X119946000Y-96436033D02*
X119912666Y-96469366D01*
X119912666Y-96469366D02*
X119879333Y-96536033D01*
X120946000Y-96836033D02*
X120546000Y-96836033D01*
X120746000Y-96836033D02*
X120746000Y-96136033D01*
X120746000Y-96136033D02*
X120679333Y-96236033D01*
X120679333Y-96236033D02*
X120612667Y-96302700D01*
X120612667Y-96302700D02*
X120546000Y-96336033D01*
X121179334Y-96136033D02*
X121612667Y-96136033D01*
X121612667Y-96136033D02*
X121379334Y-96402700D01*
X121379334Y-96402700D02*
X121479334Y-96402700D01*
X121479334Y-96402700D02*
X121546000Y-96436033D01*
X121546000Y-96436033D02*
X121579334Y-96469366D01*
X121579334Y-96469366D02*
X121612667Y-96536033D01*
X121612667Y-96536033D02*
X121612667Y-96702700D01*
X121612667Y-96702700D02*
X121579334Y-96769366D01*
X121579334Y-96769366D02*
X121546000Y-96802700D01*
X121546000Y-96802700D02*
X121479334Y-96836033D01*
X121479334Y-96836033D02*
X121279334Y-96836033D01*
X121279334Y-96836033D02*
X121212667Y-96802700D01*
X121212667Y-96802700D02*
X121179334Y-96769366D01*
X96328033Y-106955333D02*
X95994700Y-107188666D01*
X96328033Y-107355333D02*
X95628033Y-107355333D01*
X95628033Y-107355333D02*
X95628033Y-107088666D01*
X95628033Y-107088666D02*
X95661366Y-107022000D01*
X95661366Y-107022000D02*
X95694700Y-106988666D01*
X95694700Y-106988666D02*
X95761366Y-106955333D01*
X95761366Y-106955333D02*
X95861366Y-106955333D01*
X95861366Y-106955333D02*
X95928033Y-106988666D01*
X95928033Y-106988666D02*
X95961366Y-107022000D01*
X95961366Y-107022000D02*
X95994700Y-107088666D01*
X95994700Y-107088666D02*
X95994700Y-107355333D01*
X95628033Y-106322000D02*
X95628033Y-106655333D01*
X95628033Y-106655333D02*
X95961366Y-106688666D01*
X95961366Y-106688666D02*
X95928033Y-106655333D01*
X95928033Y-106655333D02*
X95894700Y-106588666D01*
X95894700Y-106588666D02*
X95894700Y-106422000D01*
X95894700Y-106422000D02*
X95928033Y-106355333D01*
X95928033Y-106355333D02*
X95961366Y-106322000D01*
X95961366Y-106322000D02*
X96028033Y-106288666D01*
X96028033Y-106288666D02*
X96194700Y-106288666D01*
X96194700Y-106288666D02*
X96261366Y-106322000D01*
X96261366Y-106322000D02*
X96294700Y-106355333D01*
X96294700Y-106355333D02*
X96328033Y-106422000D01*
X96328033Y-106422000D02*
X96328033Y-106588666D01*
X96328033Y-106588666D02*
X96294700Y-106655333D01*
X96294700Y-106655333D02*
X96261366Y-106688666D01*
X96328033Y-105621999D02*
X96328033Y-106021999D01*
X96328033Y-105821999D02*
X95628033Y-105821999D01*
X95628033Y-105821999D02*
X95728033Y-105888666D01*
X95728033Y-105888666D02*
X95794700Y-105955333D01*
X95794700Y-105955333D02*
X95828033Y-106021999D01*
X95861366Y-105021999D02*
X96328033Y-105021999D01*
X95594700Y-105188666D02*
X96094700Y-105355332D01*
X96094700Y-105355332D02*
X96094700Y-104921999D01*
X111846666Y-95058033D02*
X111846666Y-94358033D01*
X111846666Y-94358033D02*
X112013333Y-94358033D01*
X112013333Y-94358033D02*
X112113333Y-94391366D01*
X112113333Y-94391366D02*
X112180000Y-94458033D01*
X112180000Y-94458033D02*
X112213333Y-94524700D01*
X112213333Y-94524700D02*
X112246666Y-94658033D01*
X112246666Y-94658033D02*
X112246666Y-94758033D01*
X112246666Y-94758033D02*
X112213333Y-94891366D01*
X112213333Y-94891366D02*
X112180000Y-94958033D01*
X112180000Y-94958033D02*
X112113333Y-95024700D01*
X112113333Y-95024700D02*
X112013333Y-95058033D01*
X112013333Y-95058033D02*
X111846666Y-95058033D01*
X112846666Y-94358033D02*
X112713333Y-94358033D01*
X112713333Y-94358033D02*
X112646666Y-94391366D01*
X112646666Y-94391366D02*
X112613333Y-94424700D01*
X112613333Y-94424700D02*
X112546666Y-94524700D01*
X112546666Y-94524700D02*
X112513333Y-94658033D01*
X112513333Y-94658033D02*
X112513333Y-94924700D01*
X112513333Y-94924700D02*
X112546666Y-94991366D01*
X112546666Y-94991366D02*
X112580000Y-95024700D01*
X112580000Y-95024700D02*
X112646666Y-95058033D01*
X112646666Y-95058033D02*
X112780000Y-95058033D01*
X112780000Y-95058033D02*
X112846666Y-95024700D01*
X112846666Y-95024700D02*
X112880000Y-94991366D01*
X112880000Y-94991366D02*
X112913333Y-94924700D01*
X112913333Y-94924700D02*
X112913333Y-94758033D01*
X112913333Y-94758033D02*
X112880000Y-94691366D01*
X112880000Y-94691366D02*
X112846666Y-94658033D01*
X112846666Y-94658033D02*
X112780000Y-94624700D01*
X112780000Y-94624700D02*
X112646666Y-94624700D01*
X112646666Y-94624700D02*
X112580000Y-94658033D01*
X112580000Y-94658033D02*
X112546666Y-94691366D01*
X112546666Y-94691366D02*
X112513333Y-94758033D01*
X113346667Y-94358033D02*
X113413333Y-94358033D01*
X113413333Y-94358033D02*
X113480000Y-94391366D01*
X113480000Y-94391366D02*
X113513333Y-94424700D01*
X113513333Y-94424700D02*
X113546667Y-94491366D01*
X113546667Y-94491366D02*
X113580000Y-94624700D01*
X113580000Y-94624700D02*
X113580000Y-94791366D01*
X113580000Y-94791366D02*
X113546667Y-94924700D01*
X113546667Y-94924700D02*
X113513333Y-94991366D01*
X113513333Y-94991366D02*
X113480000Y-95024700D01*
X113480000Y-95024700D02*
X113413333Y-95058033D01*
X113413333Y-95058033D02*
X113346667Y-95058033D01*
X113346667Y-95058033D02*
X113280000Y-95024700D01*
X113280000Y-95024700D02*
X113246667Y-94991366D01*
X113246667Y-94991366D02*
X113213333Y-94924700D01*
X113213333Y-94924700D02*
X113180000Y-94791366D01*
X113180000Y-94791366D02*
X113180000Y-94624700D01*
X113180000Y-94624700D02*
X113213333Y-94491366D01*
X113213333Y-94491366D02*
X113246667Y-94424700D01*
X113246667Y-94424700D02*
X113280000Y-94391366D01*
X113280000Y-94391366D02*
X113346667Y-94358033D01*
X114213334Y-94358033D02*
X113880000Y-94358033D01*
X113880000Y-94358033D02*
X113846667Y-94691366D01*
X113846667Y-94691366D02*
X113880000Y-94658033D01*
X113880000Y-94658033D02*
X113946667Y-94624700D01*
X113946667Y-94624700D02*
X114113334Y-94624700D01*
X114113334Y-94624700D02*
X114180000Y-94658033D01*
X114180000Y-94658033D02*
X114213334Y-94691366D01*
X114213334Y-94691366D02*
X114246667Y-94758033D01*
X114246667Y-94758033D02*
X114246667Y-94924700D01*
X114246667Y-94924700D02*
X114213334Y-94991366D01*
X114213334Y-94991366D02*
X114180000Y-95024700D01*
X114180000Y-95024700D02*
X114113334Y-95058033D01*
X114113334Y-95058033D02*
X113946667Y-95058033D01*
X113946667Y-95058033D02*
X113880000Y-95024700D01*
X113880000Y-95024700D02*
X113846667Y-94991366D01*
X141540033Y-113451333D02*
X140840033Y-113451333D01*
X140840033Y-113451333D02*
X140840033Y-113284666D01*
X140840033Y-113284666D02*
X140873366Y-113184666D01*
X140873366Y-113184666D02*
X140940033Y-113118000D01*
X140940033Y-113118000D02*
X141006700Y-113084666D01*
X141006700Y-113084666D02*
X141140033Y-113051333D01*
X141140033Y-113051333D02*
X141240033Y-113051333D01*
X141240033Y-113051333D02*
X141373366Y-113084666D01*
X141373366Y-113084666D02*
X141440033Y-113118000D01*
X141440033Y-113118000D02*
X141506700Y-113184666D01*
X141506700Y-113184666D02*
X141540033Y-113284666D01*
X141540033Y-113284666D02*
X141540033Y-113451333D01*
X140840033Y-112451333D02*
X140840033Y-112584666D01*
X140840033Y-112584666D02*
X140873366Y-112651333D01*
X140873366Y-112651333D02*
X140906700Y-112684666D01*
X140906700Y-112684666D02*
X141006700Y-112751333D01*
X141006700Y-112751333D02*
X141140033Y-112784666D01*
X141140033Y-112784666D02*
X141406700Y-112784666D01*
X141406700Y-112784666D02*
X141473366Y-112751333D01*
X141473366Y-112751333D02*
X141506700Y-112718000D01*
X141506700Y-112718000D02*
X141540033Y-112651333D01*
X141540033Y-112651333D02*
X141540033Y-112518000D01*
X141540033Y-112518000D02*
X141506700Y-112451333D01*
X141506700Y-112451333D02*
X141473366Y-112418000D01*
X141473366Y-112418000D02*
X141406700Y-112384666D01*
X141406700Y-112384666D02*
X141240033Y-112384666D01*
X141240033Y-112384666D02*
X141173366Y-112418000D01*
X141173366Y-112418000D02*
X141140033Y-112451333D01*
X141140033Y-112451333D02*
X141106700Y-112518000D01*
X141106700Y-112518000D02*
X141106700Y-112651333D01*
X141106700Y-112651333D02*
X141140033Y-112718000D01*
X141140033Y-112718000D02*
X141173366Y-112751333D01*
X141173366Y-112751333D02*
X141240033Y-112784666D01*
X140840033Y-111951333D02*
X140840033Y-111884666D01*
X140840033Y-111884666D02*
X140873366Y-111817999D01*
X140873366Y-111817999D02*
X140906700Y-111784666D01*
X140906700Y-111784666D02*
X140973366Y-111751333D01*
X140973366Y-111751333D02*
X141106700Y-111717999D01*
X141106700Y-111717999D02*
X141273366Y-111717999D01*
X141273366Y-111717999D02*
X141406700Y-111751333D01*
X141406700Y-111751333D02*
X141473366Y-111784666D01*
X141473366Y-111784666D02*
X141506700Y-111817999D01*
X141506700Y-111817999D02*
X141540033Y-111884666D01*
X141540033Y-111884666D02*
X141540033Y-111951333D01*
X141540033Y-111951333D02*
X141506700Y-112017999D01*
X141506700Y-112017999D02*
X141473366Y-112051333D01*
X141473366Y-112051333D02*
X141406700Y-112084666D01*
X141406700Y-112084666D02*
X141273366Y-112117999D01*
X141273366Y-112117999D02*
X141106700Y-112117999D01*
X141106700Y-112117999D02*
X140973366Y-112084666D01*
X140973366Y-112084666D02*
X140906700Y-112051333D01*
X140906700Y-112051333D02*
X140873366Y-112017999D01*
X140873366Y-112017999D02*
X140840033Y-111951333D01*
X141540033Y-111051332D02*
X141540033Y-111451332D01*
X141540033Y-111251332D02*
X140840033Y-111251332D01*
X140840033Y-111251332D02*
X140940033Y-111317999D01*
X140940033Y-111317999D02*
X141006700Y-111384666D01*
X141006700Y-111384666D02*
X141040033Y-111451332D01*
X142072666Y-121728033D02*
X142072666Y-121028033D01*
X142072666Y-121028033D02*
X142239333Y-121028033D01*
X142239333Y-121028033D02*
X142339333Y-121061366D01*
X142339333Y-121061366D02*
X142406000Y-121128033D01*
X142406000Y-121128033D02*
X142439333Y-121194700D01*
X142439333Y-121194700D02*
X142472666Y-121328033D01*
X142472666Y-121328033D02*
X142472666Y-121428033D01*
X142472666Y-121428033D02*
X142439333Y-121561366D01*
X142439333Y-121561366D02*
X142406000Y-121628033D01*
X142406000Y-121628033D02*
X142339333Y-121694700D01*
X142339333Y-121694700D02*
X142239333Y-121728033D01*
X142239333Y-121728033D02*
X142072666Y-121728033D01*
X143072666Y-121028033D02*
X142939333Y-121028033D01*
X142939333Y-121028033D02*
X142872666Y-121061366D01*
X142872666Y-121061366D02*
X142839333Y-121094700D01*
X142839333Y-121094700D02*
X142772666Y-121194700D01*
X142772666Y-121194700D02*
X142739333Y-121328033D01*
X142739333Y-121328033D02*
X142739333Y-121594700D01*
X142739333Y-121594700D02*
X142772666Y-121661366D01*
X142772666Y-121661366D02*
X142806000Y-121694700D01*
X142806000Y-121694700D02*
X142872666Y-121728033D01*
X142872666Y-121728033D02*
X143006000Y-121728033D01*
X143006000Y-121728033D02*
X143072666Y-121694700D01*
X143072666Y-121694700D02*
X143106000Y-121661366D01*
X143106000Y-121661366D02*
X143139333Y-121594700D01*
X143139333Y-121594700D02*
X143139333Y-121428033D01*
X143139333Y-121428033D02*
X143106000Y-121361366D01*
X143106000Y-121361366D02*
X143072666Y-121328033D01*
X143072666Y-121328033D02*
X143006000Y-121294700D01*
X143006000Y-121294700D02*
X142872666Y-121294700D01*
X142872666Y-121294700D02*
X142806000Y-121328033D01*
X142806000Y-121328033D02*
X142772666Y-121361366D01*
X142772666Y-121361366D02*
X142739333Y-121428033D01*
X143572667Y-121028033D02*
X143639333Y-121028033D01*
X143639333Y-121028033D02*
X143706000Y-121061366D01*
X143706000Y-121061366D02*
X143739333Y-121094700D01*
X143739333Y-121094700D02*
X143772667Y-121161366D01*
X143772667Y-121161366D02*
X143806000Y-121294700D01*
X143806000Y-121294700D02*
X143806000Y-121461366D01*
X143806000Y-121461366D02*
X143772667Y-121594700D01*
X143772667Y-121594700D02*
X143739333Y-121661366D01*
X143739333Y-121661366D02*
X143706000Y-121694700D01*
X143706000Y-121694700D02*
X143639333Y-121728033D01*
X143639333Y-121728033D02*
X143572667Y-121728033D01*
X143572667Y-121728033D02*
X143506000Y-121694700D01*
X143506000Y-121694700D02*
X143472667Y-121661366D01*
X143472667Y-121661366D02*
X143439333Y-121594700D01*
X143439333Y-121594700D02*
X143406000Y-121461366D01*
X143406000Y-121461366D02*
X143406000Y-121294700D01*
X143406000Y-121294700D02*
X143439333Y-121161366D01*
X143439333Y-121161366D02*
X143472667Y-121094700D01*
X143472667Y-121094700D02*
X143506000Y-121061366D01*
X143506000Y-121061366D02*
X143572667Y-121028033D01*
X144406000Y-121261366D02*
X144406000Y-121728033D01*
X144239334Y-120994700D02*
X144072667Y-121494700D01*
X144072667Y-121494700D02*
X144506000Y-121494700D01*
X84986952Y-137106819D02*
X84653619Y-136630628D01*
X84415524Y-137106819D02*
X84415524Y-136106819D01*
X84415524Y-136106819D02*
X84796476Y-136106819D01*
X84796476Y-136106819D02*
X84891714Y-136154438D01*
X84891714Y-136154438D02*
X84939333Y-136202057D01*
X84939333Y-136202057D02*
X84986952Y-136297295D01*
X84986952Y-136297295D02*
X84986952Y-136440152D01*
X84986952Y-136440152D02*
X84939333Y-136535390D01*
X84939333Y-136535390D02*
X84891714Y-136583009D01*
X84891714Y-136583009D02*
X84796476Y-136630628D01*
X84796476Y-136630628D02*
X84415524Y-136630628D01*
X85844095Y-136106819D02*
X85653619Y-136106819D01*
X85653619Y-136106819D02*
X85558381Y-136154438D01*
X85558381Y-136154438D02*
X85510762Y-136202057D01*
X85510762Y-136202057D02*
X85415524Y-136344914D01*
X85415524Y-136344914D02*
X85367905Y-136535390D01*
X85367905Y-136535390D02*
X85367905Y-136916342D01*
X85367905Y-136916342D02*
X85415524Y-137011580D01*
X85415524Y-137011580D02*
X85463143Y-137059200D01*
X85463143Y-137059200D02*
X85558381Y-137106819D01*
X85558381Y-137106819D02*
X85748857Y-137106819D01*
X85748857Y-137106819D02*
X85844095Y-137059200D01*
X85844095Y-137059200D02*
X85891714Y-137011580D01*
X85891714Y-137011580D02*
X85939333Y-136916342D01*
X85939333Y-136916342D02*
X85939333Y-136678247D01*
X85939333Y-136678247D02*
X85891714Y-136583009D01*
X85891714Y-136583009D02*
X85844095Y-136535390D01*
X85844095Y-136535390D02*
X85748857Y-136487771D01*
X85748857Y-136487771D02*
X85558381Y-136487771D01*
X85558381Y-136487771D02*
X85463143Y-136535390D01*
X85463143Y-136535390D02*
X85415524Y-136583009D01*
X85415524Y-136583009D02*
X85367905Y-136678247D01*
X86320286Y-136202057D02*
X86367905Y-136154438D01*
X86367905Y-136154438D02*
X86463143Y-136106819D01*
X86463143Y-136106819D02*
X86701238Y-136106819D01*
X86701238Y-136106819D02*
X86796476Y-136154438D01*
X86796476Y-136154438D02*
X86844095Y-136202057D01*
X86844095Y-136202057D02*
X86891714Y-136297295D01*
X86891714Y-136297295D02*
X86891714Y-136392533D01*
X86891714Y-136392533D02*
X86844095Y-136535390D01*
X86844095Y-136535390D02*
X86272667Y-137106819D01*
X86272667Y-137106819D02*
X86891714Y-137106819D01*
X87844095Y-137106819D02*
X87272667Y-137106819D01*
X87558381Y-137106819D02*
X87558381Y-136106819D01*
X87558381Y-136106819D02*
X87463143Y-136249676D01*
X87463143Y-136249676D02*
X87367905Y-136344914D01*
X87367905Y-136344914D02*
X87272667Y-136392533D01*
X93990033Y-103907333D02*
X93656700Y-104140666D01*
X93990033Y-104307333D02*
X93290033Y-104307333D01*
X93290033Y-104307333D02*
X93290033Y-104040666D01*
X93290033Y-104040666D02*
X93323366Y-103974000D01*
X93323366Y-103974000D02*
X93356700Y-103940666D01*
X93356700Y-103940666D02*
X93423366Y-103907333D01*
X93423366Y-103907333D02*
X93523366Y-103907333D01*
X93523366Y-103907333D02*
X93590033Y-103940666D01*
X93590033Y-103940666D02*
X93623366Y-103974000D01*
X93623366Y-103974000D02*
X93656700Y-104040666D01*
X93656700Y-104040666D02*
X93656700Y-104307333D01*
X93290033Y-103274000D02*
X93290033Y-103607333D01*
X93290033Y-103607333D02*
X93623366Y-103640666D01*
X93623366Y-103640666D02*
X93590033Y-103607333D01*
X93590033Y-103607333D02*
X93556700Y-103540666D01*
X93556700Y-103540666D02*
X93556700Y-103374000D01*
X93556700Y-103374000D02*
X93590033Y-103307333D01*
X93590033Y-103307333D02*
X93623366Y-103274000D01*
X93623366Y-103274000D02*
X93690033Y-103240666D01*
X93690033Y-103240666D02*
X93856700Y-103240666D01*
X93856700Y-103240666D02*
X93923366Y-103274000D01*
X93923366Y-103274000D02*
X93956700Y-103307333D01*
X93956700Y-103307333D02*
X93990033Y-103374000D01*
X93990033Y-103374000D02*
X93990033Y-103540666D01*
X93990033Y-103540666D02*
X93956700Y-103607333D01*
X93956700Y-103607333D02*
X93923366Y-103640666D01*
X93990033Y-102573999D02*
X93990033Y-102973999D01*
X93990033Y-102773999D02*
X93290033Y-102773999D01*
X93290033Y-102773999D02*
X93390033Y-102840666D01*
X93390033Y-102840666D02*
X93456700Y-102907333D01*
X93456700Y-102907333D02*
X93490033Y-102973999D01*
X93590033Y-102173999D02*
X93556700Y-102240666D01*
X93556700Y-102240666D02*
X93523366Y-102273999D01*
X93523366Y-102273999D02*
X93456700Y-102307332D01*
X93456700Y-102307332D02*
X93423366Y-102307332D01*
X93423366Y-102307332D02*
X93356700Y-102273999D01*
X93356700Y-102273999D02*
X93323366Y-102240666D01*
X93323366Y-102240666D02*
X93290033Y-102173999D01*
X93290033Y-102173999D02*
X93290033Y-102040666D01*
X93290033Y-102040666D02*
X93323366Y-101973999D01*
X93323366Y-101973999D02*
X93356700Y-101940666D01*
X93356700Y-101940666D02*
X93423366Y-101907332D01*
X93423366Y-101907332D02*
X93456700Y-101907332D01*
X93456700Y-101907332D02*
X93523366Y-101940666D01*
X93523366Y-101940666D02*
X93556700Y-101973999D01*
X93556700Y-101973999D02*
X93590033Y-102040666D01*
X93590033Y-102040666D02*
X93590033Y-102173999D01*
X93590033Y-102173999D02*
X93623366Y-102240666D01*
X93623366Y-102240666D02*
X93656700Y-102273999D01*
X93656700Y-102273999D02*
X93723366Y-102307332D01*
X93723366Y-102307332D02*
X93856700Y-102307332D01*
X93856700Y-102307332D02*
X93923366Y-102273999D01*
X93923366Y-102273999D02*
X93956700Y-102240666D01*
X93956700Y-102240666D02*
X93990033Y-102173999D01*
X93990033Y-102173999D02*
X93990033Y-102040666D01*
X93990033Y-102040666D02*
X93956700Y-101973999D01*
X93956700Y-101973999D02*
X93923366Y-101940666D01*
X93923366Y-101940666D02*
X93856700Y-101907332D01*
X93856700Y-101907332D02*
X93723366Y-101907332D01*
X93723366Y-101907332D02*
X93656700Y-101940666D01*
X93656700Y-101940666D02*
X93623366Y-101973999D01*
X93623366Y-101973999D02*
X93590033Y-102040666D01*
X133836666Y-108774033D02*
X133603333Y-108440700D01*
X133436666Y-108774033D02*
X133436666Y-108074033D01*
X133436666Y-108074033D02*
X133703333Y-108074033D01*
X133703333Y-108074033D02*
X133770000Y-108107366D01*
X133770000Y-108107366D02*
X133803333Y-108140700D01*
X133803333Y-108140700D02*
X133836666Y-108207366D01*
X133836666Y-108207366D02*
X133836666Y-108307366D01*
X133836666Y-108307366D02*
X133803333Y-108374033D01*
X133803333Y-108374033D02*
X133770000Y-108407366D01*
X133770000Y-108407366D02*
X133703333Y-108440700D01*
X133703333Y-108440700D02*
X133436666Y-108440700D01*
X134436666Y-108074033D02*
X134303333Y-108074033D01*
X134303333Y-108074033D02*
X134236666Y-108107366D01*
X134236666Y-108107366D02*
X134203333Y-108140700D01*
X134203333Y-108140700D02*
X134136666Y-108240700D01*
X134136666Y-108240700D02*
X134103333Y-108374033D01*
X134103333Y-108374033D02*
X134103333Y-108640700D01*
X134103333Y-108640700D02*
X134136666Y-108707366D01*
X134136666Y-108707366D02*
X134170000Y-108740700D01*
X134170000Y-108740700D02*
X134236666Y-108774033D01*
X134236666Y-108774033D02*
X134370000Y-108774033D01*
X134370000Y-108774033D02*
X134436666Y-108740700D01*
X134436666Y-108740700D02*
X134470000Y-108707366D01*
X134470000Y-108707366D02*
X134503333Y-108640700D01*
X134503333Y-108640700D02*
X134503333Y-108474033D01*
X134503333Y-108474033D02*
X134470000Y-108407366D01*
X134470000Y-108407366D02*
X134436666Y-108374033D01*
X134436666Y-108374033D02*
X134370000Y-108340700D01*
X134370000Y-108340700D02*
X134236666Y-108340700D01*
X134236666Y-108340700D02*
X134170000Y-108374033D01*
X134170000Y-108374033D02*
X134136666Y-108407366D01*
X134136666Y-108407366D02*
X134103333Y-108474033D01*
X135170000Y-108774033D02*
X134770000Y-108774033D01*
X134970000Y-108774033D02*
X134970000Y-108074033D01*
X134970000Y-108074033D02*
X134903333Y-108174033D01*
X134903333Y-108174033D02*
X134836667Y-108240700D01*
X134836667Y-108240700D02*
X134770000Y-108274033D01*
X135836667Y-108774033D02*
X135436667Y-108774033D01*
X135636667Y-108774033D02*
X135636667Y-108074033D01*
X135636667Y-108074033D02*
X135570000Y-108174033D01*
X135570000Y-108174033D02*
X135503334Y-108240700D01*
X135503334Y-108240700D02*
X135436667Y-108274033D01*
X117468183Y-162176033D02*
X117468183Y-162676033D01*
X117468183Y-162676033D02*
X117434850Y-162776033D01*
X117434850Y-162776033D02*
X117368183Y-162842700D01*
X117368183Y-162842700D02*
X117268183Y-162876033D01*
X117268183Y-162876033D02*
X117201517Y-162876033D01*
X117734850Y-162176033D02*
X118168183Y-162176033D01*
X118168183Y-162176033D02*
X117934850Y-162442700D01*
X117934850Y-162442700D02*
X118034850Y-162442700D01*
X118034850Y-162442700D02*
X118101516Y-162476033D01*
X118101516Y-162476033D02*
X118134850Y-162509366D01*
X118134850Y-162509366D02*
X118168183Y-162576033D01*
X118168183Y-162576033D02*
X118168183Y-162742700D01*
X118168183Y-162742700D02*
X118134850Y-162809366D01*
X118134850Y-162809366D02*
X118101516Y-162842700D01*
X118101516Y-162842700D02*
X118034850Y-162876033D01*
X118034850Y-162876033D02*
X117834850Y-162876033D01*
X117834850Y-162876033D02*
X117768183Y-162842700D01*
X117768183Y-162842700D02*
X117734850Y-162809366D01*
X118601517Y-162176033D02*
X118668183Y-162176033D01*
X118668183Y-162176033D02*
X118734850Y-162209366D01*
X118734850Y-162209366D02*
X118768183Y-162242700D01*
X118768183Y-162242700D02*
X118801517Y-162309366D01*
X118801517Y-162309366D02*
X118834850Y-162442700D01*
X118834850Y-162442700D02*
X118834850Y-162609366D01*
X118834850Y-162609366D02*
X118801517Y-162742700D01*
X118801517Y-162742700D02*
X118768183Y-162809366D01*
X118768183Y-162809366D02*
X118734850Y-162842700D01*
X118734850Y-162842700D02*
X118668183Y-162876033D01*
X118668183Y-162876033D02*
X118601517Y-162876033D01*
X118601517Y-162876033D02*
X118534850Y-162842700D01*
X118534850Y-162842700D02*
X118501517Y-162809366D01*
X118501517Y-162809366D02*
X118468183Y-162742700D01*
X118468183Y-162742700D02*
X118434850Y-162609366D01*
X118434850Y-162609366D02*
X118434850Y-162442700D01*
X118434850Y-162442700D02*
X118468183Y-162309366D01*
X118468183Y-162309366D02*
X118501517Y-162242700D01*
X118501517Y-162242700D02*
X118534850Y-162209366D01*
X118534850Y-162209366D02*
X118601517Y-162176033D01*
X119101517Y-162242700D02*
X119134850Y-162209366D01*
X119134850Y-162209366D02*
X119201517Y-162176033D01*
X119201517Y-162176033D02*
X119368184Y-162176033D01*
X119368184Y-162176033D02*
X119434850Y-162209366D01*
X119434850Y-162209366D02*
X119468184Y-162242700D01*
X119468184Y-162242700D02*
X119501517Y-162309366D01*
X119501517Y-162309366D02*
X119501517Y-162376033D01*
X119501517Y-162376033D02*
X119468184Y-162476033D01*
X119468184Y-162476033D02*
X119068184Y-162876033D01*
X119068184Y-162876033D02*
X119501517Y-162876033D01*
X119612666Y-98801366D02*
X119579333Y-98834700D01*
X119579333Y-98834700D02*
X119479333Y-98868033D01*
X119479333Y-98868033D02*
X119412666Y-98868033D01*
X119412666Y-98868033D02*
X119312666Y-98834700D01*
X119312666Y-98834700D02*
X119246000Y-98768033D01*
X119246000Y-98768033D02*
X119212666Y-98701366D01*
X119212666Y-98701366D02*
X119179333Y-98568033D01*
X119179333Y-98568033D02*
X119179333Y-98468033D01*
X119179333Y-98468033D02*
X119212666Y-98334700D01*
X119212666Y-98334700D02*
X119246000Y-98268033D01*
X119246000Y-98268033D02*
X119312666Y-98201366D01*
X119312666Y-98201366D02*
X119412666Y-98168033D01*
X119412666Y-98168033D02*
X119479333Y-98168033D01*
X119479333Y-98168033D02*
X119579333Y-98201366D01*
X119579333Y-98201366D02*
X119612666Y-98234700D01*
X120212666Y-98168033D02*
X120079333Y-98168033D01*
X120079333Y-98168033D02*
X120012666Y-98201366D01*
X120012666Y-98201366D02*
X119979333Y-98234700D01*
X119979333Y-98234700D02*
X119912666Y-98334700D01*
X119912666Y-98334700D02*
X119879333Y-98468033D01*
X119879333Y-98468033D02*
X119879333Y-98734700D01*
X119879333Y-98734700D02*
X119912666Y-98801366D01*
X119912666Y-98801366D02*
X119946000Y-98834700D01*
X119946000Y-98834700D02*
X120012666Y-98868033D01*
X120012666Y-98868033D02*
X120146000Y-98868033D01*
X120146000Y-98868033D02*
X120212666Y-98834700D01*
X120212666Y-98834700D02*
X120246000Y-98801366D01*
X120246000Y-98801366D02*
X120279333Y-98734700D01*
X120279333Y-98734700D02*
X120279333Y-98568033D01*
X120279333Y-98568033D02*
X120246000Y-98501366D01*
X120246000Y-98501366D02*
X120212666Y-98468033D01*
X120212666Y-98468033D02*
X120146000Y-98434700D01*
X120146000Y-98434700D02*
X120012666Y-98434700D01*
X120012666Y-98434700D02*
X119946000Y-98468033D01*
X119946000Y-98468033D02*
X119912666Y-98501366D01*
X119912666Y-98501366D02*
X119879333Y-98568033D01*
X120712667Y-98168033D02*
X120779333Y-98168033D01*
X120779333Y-98168033D02*
X120846000Y-98201366D01*
X120846000Y-98201366D02*
X120879333Y-98234700D01*
X120879333Y-98234700D02*
X120912667Y-98301366D01*
X120912667Y-98301366D02*
X120946000Y-98434700D01*
X120946000Y-98434700D02*
X120946000Y-98601366D01*
X120946000Y-98601366D02*
X120912667Y-98734700D01*
X120912667Y-98734700D02*
X120879333Y-98801366D01*
X120879333Y-98801366D02*
X120846000Y-98834700D01*
X120846000Y-98834700D02*
X120779333Y-98868033D01*
X120779333Y-98868033D02*
X120712667Y-98868033D01*
X120712667Y-98868033D02*
X120646000Y-98834700D01*
X120646000Y-98834700D02*
X120612667Y-98801366D01*
X120612667Y-98801366D02*
X120579333Y-98734700D01*
X120579333Y-98734700D02*
X120546000Y-98601366D01*
X120546000Y-98601366D02*
X120546000Y-98434700D01*
X120546000Y-98434700D02*
X120579333Y-98301366D01*
X120579333Y-98301366D02*
X120612667Y-98234700D01*
X120612667Y-98234700D02*
X120646000Y-98201366D01*
X120646000Y-98201366D02*
X120712667Y-98168033D01*
X121346000Y-98468033D02*
X121279334Y-98434700D01*
X121279334Y-98434700D02*
X121246000Y-98401366D01*
X121246000Y-98401366D02*
X121212667Y-98334700D01*
X121212667Y-98334700D02*
X121212667Y-98301366D01*
X121212667Y-98301366D02*
X121246000Y-98234700D01*
X121246000Y-98234700D02*
X121279334Y-98201366D01*
X121279334Y-98201366D02*
X121346000Y-98168033D01*
X121346000Y-98168033D02*
X121479334Y-98168033D01*
X121479334Y-98168033D02*
X121546000Y-98201366D01*
X121546000Y-98201366D02*
X121579334Y-98234700D01*
X121579334Y-98234700D02*
X121612667Y-98301366D01*
X121612667Y-98301366D02*
X121612667Y-98334700D01*
X121612667Y-98334700D02*
X121579334Y-98401366D01*
X121579334Y-98401366D02*
X121546000Y-98434700D01*
X121546000Y-98434700D02*
X121479334Y-98468033D01*
X121479334Y-98468033D02*
X121346000Y-98468033D01*
X121346000Y-98468033D02*
X121279334Y-98501366D01*
X121279334Y-98501366D02*
X121246000Y-98534700D01*
X121246000Y-98534700D02*
X121212667Y-98601366D01*
X121212667Y-98601366D02*
X121212667Y-98734700D01*
X121212667Y-98734700D02*
X121246000Y-98801366D01*
X121246000Y-98801366D02*
X121279334Y-98834700D01*
X121279334Y-98834700D02*
X121346000Y-98868033D01*
X121346000Y-98868033D02*
X121479334Y-98868033D01*
X121479334Y-98868033D02*
X121546000Y-98834700D01*
X121546000Y-98834700D02*
X121579334Y-98801366D01*
X121579334Y-98801366D02*
X121612667Y-98734700D01*
X121612667Y-98734700D02*
X121612667Y-98601366D01*
X121612667Y-98601366D02*
X121579334Y-98534700D01*
X121579334Y-98534700D02*
X121546000Y-98501366D01*
X121546000Y-98501366D02*
X121479334Y-98468033D01*
X138245999Y-120774033D02*
X138245999Y-121340700D01*
X138245999Y-121340700D02*
X138279333Y-121407366D01*
X138279333Y-121407366D02*
X138312666Y-121440700D01*
X138312666Y-121440700D02*
X138379333Y-121474033D01*
X138379333Y-121474033D02*
X138512666Y-121474033D01*
X138512666Y-121474033D02*
X138579333Y-121440700D01*
X138579333Y-121440700D02*
X138612666Y-121407366D01*
X138612666Y-121407366D02*
X138645999Y-121340700D01*
X138645999Y-121340700D02*
X138645999Y-120774033D01*
X139279332Y-120774033D02*
X139145999Y-120774033D01*
X139145999Y-120774033D02*
X139079332Y-120807366D01*
X139079332Y-120807366D02*
X139045999Y-120840700D01*
X139045999Y-120840700D02*
X138979332Y-120940700D01*
X138979332Y-120940700D02*
X138945999Y-121074033D01*
X138945999Y-121074033D02*
X138945999Y-121340700D01*
X138945999Y-121340700D02*
X138979332Y-121407366D01*
X138979332Y-121407366D02*
X139012666Y-121440700D01*
X139012666Y-121440700D02*
X139079332Y-121474033D01*
X139079332Y-121474033D02*
X139212666Y-121474033D01*
X139212666Y-121474033D02*
X139279332Y-121440700D01*
X139279332Y-121440700D02*
X139312666Y-121407366D01*
X139312666Y-121407366D02*
X139345999Y-121340700D01*
X139345999Y-121340700D02*
X139345999Y-121174033D01*
X139345999Y-121174033D02*
X139312666Y-121107366D01*
X139312666Y-121107366D02*
X139279332Y-121074033D01*
X139279332Y-121074033D02*
X139212666Y-121040700D01*
X139212666Y-121040700D02*
X139079332Y-121040700D01*
X139079332Y-121040700D02*
X139012666Y-121074033D01*
X139012666Y-121074033D02*
X138979332Y-121107366D01*
X138979332Y-121107366D02*
X138945999Y-121174033D01*
X139779333Y-120774033D02*
X139845999Y-120774033D01*
X139845999Y-120774033D02*
X139912666Y-120807366D01*
X139912666Y-120807366D02*
X139945999Y-120840700D01*
X139945999Y-120840700D02*
X139979333Y-120907366D01*
X139979333Y-120907366D02*
X140012666Y-121040700D01*
X140012666Y-121040700D02*
X140012666Y-121207366D01*
X140012666Y-121207366D02*
X139979333Y-121340700D01*
X139979333Y-121340700D02*
X139945999Y-121407366D01*
X139945999Y-121407366D02*
X139912666Y-121440700D01*
X139912666Y-121440700D02*
X139845999Y-121474033D01*
X139845999Y-121474033D02*
X139779333Y-121474033D01*
X139779333Y-121474033D02*
X139712666Y-121440700D01*
X139712666Y-121440700D02*
X139679333Y-121407366D01*
X139679333Y-121407366D02*
X139645999Y-121340700D01*
X139645999Y-121340700D02*
X139612666Y-121207366D01*
X139612666Y-121207366D02*
X139612666Y-121040700D01*
X139612666Y-121040700D02*
X139645999Y-120907366D01*
X139645999Y-120907366D02*
X139679333Y-120840700D01*
X139679333Y-120840700D02*
X139712666Y-120807366D01*
X139712666Y-120807366D02*
X139779333Y-120774033D01*
X140279333Y-120840700D02*
X140312666Y-120807366D01*
X140312666Y-120807366D02*
X140379333Y-120774033D01*
X140379333Y-120774033D02*
X140546000Y-120774033D01*
X140546000Y-120774033D02*
X140612666Y-120807366D01*
X140612666Y-120807366D02*
X140646000Y-120840700D01*
X140646000Y-120840700D02*
X140679333Y-120907366D01*
X140679333Y-120907366D02*
X140679333Y-120974033D01*
X140679333Y-120974033D02*
X140646000Y-121074033D01*
X140646000Y-121074033D02*
X140246000Y-121474033D01*
X140246000Y-121474033D02*
X140679333Y-121474033D01*
X79497366Y-104669333D02*
X79530700Y-104702666D01*
X79530700Y-104702666D02*
X79564033Y-104802666D01*
X79564033Y-104802666D02*
X79564033Y-104869333D01*
X79564033Y-104869333D02*
X79530700Y-104969333D01*
X79530700Y-104969333D02*
X79464033Y-105036000D01*
X79464033Y-105036000D02*
X79397366Y-105069333D01*
X79397366Y-105069333D02*
X79264033Y-105102666D01*
X79264033Y-105102666D02*
X79164033Y-105102666D01*
X79164033Y-105102666D02*
X79030700Y-105069333D01*
X79030700Y-105069333D02*
X78964033Y-105036000D01*
X78964033Y-105036000D02*
X78897366Y-104969333D01*
X78897366Y-104969333D02*
X78864033Y-104869333D01*
X78864033Y-104869333D02*
X78864033Y-104802666D01*
X78864033Y-104802666D02*
X78897366Y-104702666D01*
X78897366Y-104702666D02*
X78930700Y-104669333D01*
X79564033Y-104002666D02*
X79564033Y-104402666D01*
X79564033Y-104202666D02*
X78864033Y-104202666D01*
X78864033Y-104202666D02*
X78964033Y-104269333D01*
X78964033Y-104269333D02*
X79030700Y-104336000D01*
X79030700Y-104336000D02*
X79064033Y-104402666D01*
X78864033Y-103569333D02*
X78864033Y-103502666D01*
X78864033Y-103502666D02*
X78897366Y-103435999D01*
X78897366Y-103435999D02*
X78930700Y-103402666D01*
X78930700Y-103402666D02*
X78997366Y-103369333D01*
X78997366Y-103369333D02*
X79130700Y-103335999D01*
X79130700Y-103335999D02*
X79297366Y-103335999D01*
X79297366Y-103335999D02*
X79430700Y-103369333D01*
X79430700Y-103369333D02*
X79497366Y-103402666D01*
X79497366Y-103402666D02*
X79530700Y-103435999D01*
X79530700Y-103435999D02*
X79564033Y-103502666D01*
X79564033Y-103502666D02*
X79564033Y-103569333D01*
X79564033Y-103569333D02*
X79530700Y-103635999D01*
X79530700Y-103635999D02*
X79497366Y-103669333D01*
X79497366Y-103669333D02*
X79430700Y-103702666D01*
X79430700Y-103702666D02*
X79297366Y-103735999D01*
X79297366Y-103735999D02*
X79130700Y-103735999D01*
X79130700Y-103735999D02*
X78997366Y-103702666D01*
X78997366Y-103702666D02*
X78930700Y-103669333D01*
X78930700Y-103669333D02*
X78897366Y-103635999D01*
X78897366Y-103635999D02*
X78864033Y-103569333D01*
X78864033Y-103102666D02*
X78864033Y-102669332D01*
X78864033Y-102669332D02*
X79130700Y-102902666D01*
X79130700Y-102902666D02*
X79130700Y-102802666D01*
X79130700Y-102802666D02*
X79164033Y-102735999D01*
X79164033Y-102735999D02*
X79197366Y-102702666D01*
X79197366Y-102702666D02*
X79264033Y-102669332D01*
X79264033Y-102669332D02*
X79430700Y-102669332D01*
X79430700Y-102669332D02*
X79497366Y-102702666D01*
X79497366Y-102702666D02*
X79530700Y-102735999D01*
X79530700Y-102735999D02*
X79564033Y-102802666D01*
X79564033Y-102802666D02*
X79564033Y-103002666D01*
X79564033Y-103002666D02*
X79530700Y-103069332D01*
X79530700Y-103069332D02*
X79497366Y-103102666D01*
X97905999Y-161922033D02*
X97905999Y-162422033D01*
X97905999Y-162422033D02*
X97872666Y-162522033D01*
X97872666Y-162522033D02*
X97805999Y-162588700D01*
X97805999Y-162588700D02*
X97705999Y-162622033D01*
X97705999Y-162622033D02*
X97639333Y-162622033D01*
X98205999Y-161988700D02*
X98239332Y-161955366D01*
X98239332Y-161955366D02*
X98305999Y-161922033D01*
X98305999Y-161922033D02*
X98472666Y-161922033D01*
X98472666Y-161922033D02*
X98539332Y-161955366D01*
X98539332Y-161955366D02*
X98572666Y-161988700D01*
X98572666Y-161988700D02*
X98605999Y-162055366D01*
X98605999Y-162055366D02*
X98605999Y-162122033D01*
X98605999Y-162122033D02*
X98572666Y-162222033D01*
X98572666Y-162222033D02*
X98172666Y-162622033D01*
X98172666Y-162622033D02*
X98605999Y-162622033D01*
X99039333Y-161922033D02*
X99105999Y-161922033D01*
X99105999Y-161922033D02*
X99172666Y-161955366D01*
X99172666Y-161955366D02*
X99205999Y-161988700D01*
X99205999Y-161988700D02*
X99239333Y-162055366D01*
X99239333Y-162055366D02*
X99272666Y-162188700D01*
X99272666Y-162188700D02*
X99272666Y-162355366D01*
X99272666Y-162355366D02*
X99239333Y-162488700D01*
X99239333Y-162488700D02*
X99205999Y-162555366D01*
X99205999Y-162555366D02*
X99172666Y-162588700D01*
X99172666Y-162588700D02*
X99105999Y-162622033D01*
X99105999Y-162622033D02*
X99039333Y-162622033D01*
X99039333Y-162622033D02*
X98972666Y-162588700D01*
X98972666Y-162588700D02*
X98939333Y-162555366D01*
X98939333Y-162555366D02*
X98905999Y-162488700D01*
X98905999Y-162488700D02*
X98872666Y-162355366D01*
X98872666Y-162355366D02*
X98872666Y-162188700D01*
X98872666Y-162188700D02*
X98905999Y-162055366D01*
X98905999Y-162055366D02*
X98939333Y-161988700D01*
X98939333Y-161988700D02*
X98972666Y-161955366D01*
X98972666Y-161955366D02*
X99039333Y-161922033D01*
X99539333Y-161988700D02*
X99572666Y-161955366D01*
X99572666Y-161955366D02*
X99639333Y-161922033D01*
X99639333Y-161922033D02*
X99806000Y-161922033D01*
X99806000Y-161922033D02*
X99872666Y-161955366D01*
X99872666Y-161955366D02*
X99906000Y-161988700D01*
X99906000Y-161988700D02*
X99939333Y-162055366D01*
X99939333Y-162055366D02*
X99939333Y-162122033D01*
X99939333Y-162122033D02*
X99906000Y-162222033D01*
X99906000Y-162222033D02*
X99506000Y-162622033D01*
X99506000Y-162622033D02*
X99939333Y-162622033D01*
D12*
%TO.C,J101*%
X87982000Y-146160000D02*
X87982000Y-143450000D01*
X87982000Y-140740000D02*
X87982000Y-143450000D01*
X85422000Y-149330000D02*
X85422000Y-147200000D01*
X85122000Y-149030000D02*
X85122000Y-146160000D01*
X85122000Y-146160000D02*
X87982000Y-146160000D01*
X85122000Y-140740000D02*
X87982000Y-140740000D01*
X85122000Y-137870000D02*
X85122000Y-140740000D01*
X83272000Y-149330000D02*
X85422000Y-149330000D01*
X78922000Y-149030000D02*
X85122000Y-149030000D01*
X78922000Y-143450000D02*
X78922000Y-149030000D01*
X78922000Y-143450000D02*
X78922000Y-137870000D01*
X78922000Y-137870000D02*
X85122000Y-137870000D01*
%TO.C,D609*%
X79420000Y-133914000D02*
X79420000Y-135834000D01*
X79420000Y-135834000D02*
X82280000Y-135834000D01*
X82280000Y-133914000D02*
X79420000Y-133914000D01*
%TO.C,J106*%
X85910000Y-100220000D02*
X85910000Y-118220000D01*
X85910000Y-101600000D02*
X86910000Y-101600000D01*
X85910000Y-101850000D02*
X86910000Y-101850000D01*
X85910000Y-116590000D02*
X86910000Y-116590000D01*
X85910000Y-116840000D02*
X86910000Y-116840000D01*
X85910000Y-118220000D02*
X91930000Y-118220000D01*
X86910000Y-101600000D02*
X86910000Y-106680000D01*
X86910000Y-101600000D02*
X87440000Y-101850000D01*
X86910000Y-106680000D02*
X85910000Y-106680000D01*
X86910000Y-111760000D02*
X85910000Y-111760000D01*
X86910000Y-116840000D02*
X86910000Y-111760000D01*
X86910000Y-116840000D02*
X87440000Y-116590000D01*
X87440000Y-101850000D02*
X87440000Y-106680000D01*
X87440000Y-106680000D02*
X86910000Y-106680000D01*
X87440000Y-111760000D02*
X86910000Y-111760000D01*
X87440000Y-116590000D02*
X87440000Y-111760000D01*
X90900000Y-99930000D02*
X86900000Y-99930000D01*
X91330000Y-100800000D02*
X91330000Y-102400000D01*
X91330000Y-102400000D02*
X91930000Y-102400000D01*
X91330000Y-103340000D02*
X91330000Y-104940000D01*
X91330000Y-104940000D02*
X91930000Y-104940000D01*
X91330000Y-105880000D02*
X91330000Y-107480000D01*
X91330000Y-107480000D02*
X91930000Y-107480000D01*
X91330000Y-108420000D02*
X91330000Y-110020000D01*
X91330000Y-110020000D02*
X91930000Y-110020000D01*
X91330000Y-110960000D02*
X91330000Y-112560000D01*
X91330000Y-112560000D02*
X91930000Y-112560000D01*
X91330000Y-113500000D02*
X91330000Y-115100000D01*
X91330000Y-115100000D02*
X91930000Y-115100000D01*
X91330000Y-116040000D02*
X91330000Y-117640000D01*
X91330000Y-117640000D02*
X91930000Y-117640000D01*
X91930000Y-100220000D02*
X85910000Y-100220000D01*
X91930000Y-100800000D02*
X91330000Y-100800000D01*
X91930000Y-103340000D02*
X91330000Y-103340000D01*
X91930000Y-105880000D02*
X91330000Y-105880000D01*
X91930000Y-108420000D02*
X91330000Y-108420000D01*
X91930000Y-110960000D02*
X91330000Y-110960000D01*
X91930000Y-113500000D02*
X91330000Y-113500000D01*
X91930000Y-116040000D02*
X91330000Y-116040000D01*
X91930000Y-118220000D02*
X91930000Y-100220000D01*
%TO.C,U201*%
X90872000Y-151369000D02*
X90872000Y-133529000D01*
X93532000Y-133529000D02*
X90872000Y-133529000D01*
X93532000Y-151369000D02*
X90872000Y-151369000D01*
X93532000Y-151369000D02*
X93532000Y-133529000D01*
X93532000Y-152639000D02*
X93532000Y-153969000D01*
X93532000Y-153969000D02*
X92202000Y-153969000D01*
X103572000Y-151369000D02*
X103572000Y-133529000D01*
X106232000Y-133529000D02*
X103572000Y-133529000D01*
X106232000Y-151369000D02*
X103572000Y-151369000D01*
X106232000Y-151369000D02*
X106232000Y-133529000D01*
X106232000Y-152639000D02*
X106232000Y-153969000D01*
X106232000Y-153969000D02*
X104902000Y-153969000D01*
%TO.C,R515*%
X97573500Y-109728724D02*
X97573500Y-109219276D01*
X98618500Y-109728724D02*
X98618500Y-109219276D01*
%TO.C,C609*%
X120669267Y-103306000D02*
X120376733Y-103306000D01*
X120669267Y-104326000D02*
X120376733Y-104326000D01*
%TO.C,R601*%
X139446724Y-103617500D02*
X138937276Y-103617500D01*
X139446724Y-104662500D02*
X138937276Y-104662500D01*
%TO.C,R620*%
X86360724Y-132065500D02*
X85851276Y-132065500D01*
X86360724Y-133110500D02*
X85851276Y-133110500D01*
%TO.C,J104*%
X113265000Y-115024000D02*
X113265000Y-119024000D01*
X113555000Y-113994000D02*
X113555000Y-120014000D01*
X113555000Y-120014000D02*
X131555000Y-120014000D01*
X114135000Y-113994000D02*
X114135000Y-114594000D01*
X114135000Y-114594000D02*
X115735000Y-114594000D01*
X114935000Y-119014000D02*
X115185000Y-118484000D01*
X114935000Y-119014000D02*
X120015000Y-119014000D01*
X114935000Y-120014000D02*
X114935000Y-119014000D01*
X115185000Y-118484000D02*
X120015000Y-118484000D01*
X115185000Y-120014000D02*
X115185000Y-119014000D01*
X115735000Y-114594000D02*
X115735000Y-113994000D01*
X116675000Y-113994000D02*
X116675000Y-114594000D01*
X116675000Y-114594000D02*
X118275000Y-114594000D01*
X118275000Y-114594000D02*
X118275000Y-113994000D01*
X119215000Y-113994000D02*
X119215000Y-114594000D01*
X119215000Y-114594000D02*
X120815000Y-114594000D01*
X120015000Y-118484000D02*
X120015000Y-119014000D01*
X120015000Y-119014000D02*
X120015000Y-120014000D01*
X120815000Y-114594000D02*
X120815000Y-113994000D01*
X121755000Y-113994000D02*
X121755000Y-114594000D01*
X121755000Y-114594000D02*
X123355000Y-114594000D01*
X123355000Y-114594000D02*
X123355000Y-113994000D01*
X124295000Y-113994000D02*
X124295000Y-114594000D01*
X124295000Y-114594000D02*
X125895000Y-114594000D01*
X125095000Y-118484000D02*
X125095000Y-119014000D01*
X125095000Y-119014000D02*
X125095000Y-120014000D01*
X125895000Y-114594000D02*
X125895000Y-113994000D01*
X126835000Y-113994000D02*
X126835000Y-114594000D01*
X126835000Y-114594000D02*
X128435000Y-114594000D01*
X128435000Y-114594000D02*
X128435000Y-113994000D01*
X129375000Y-113994000D02*
X129375000Y-114594000D01*
X129375000Y-114594000D02*
X130975000Y-114594000D01*
X129925000Y-118484000D02*
X125095000Y-118484000D01*
X129925000Y-120014000D02*
X129925000Y-119014000D01*
X130175000Y-119014000D02*
X125095000Y-119014000D01*
X130175000Y-119014000D02*
X129925000Y-118484000D01*
X130175000Y-120014000D02*
X130175000Y-119014000D01*
X130975000Y-114594000D02*
X130975000Y-113994000D01*
X131555000Y-113994000D02*
X113555000Y-113994000D01*
X131555000Y-120014000D02*
X131555000Y-113994000D01*
%TO.C,R618*%
X104394724Y-95743500D02*
X103885276Y-95743500D01*
X104394724Y-96788500D02*
X103885276Y-96788500D01*
%TO.C,U301*%
X110180184Y-151370513D02*
X110180184Y-133530513D01*
X112840184Y-133530513D02*
X110180184Y-133530513D01*
X112840184Y-151370513D02*
X110180184Y-151370513D01*
X112840184Y-151370513D02*
X112840184Y-133530513D01*
X112840184Y-152640513D02*
X112840184Y-153970513D01*
X112840184Y-153970513D02*
X111510184Y-153970513D01*
X122880184Y-151370513D02*
X122880184Y-133530513D01*
X125540184Y-133530513D02*
X122880184Y-133530513D01*
X125540184Y-151370513D02*
X122880184Y-151370513D01*
X125540184Y-151370513D02*
X125540184Y-133530513D01*
X125540184Y-152640513D02*
X125540184Y-153970513D01*
X125540184Y-153970513D02*
X124210184Y-153970513D01*
%TO.C,J105*%
X78048000Y-123837000D02*
X79053000Y-123837000D01*
X78048000Y-123952000D02*
X79048000Y-123952000D01*
X78048000Y-128027000D02*
X78048000Y-123837000D01*
X79048000Y-123952000D02*
X79048000Y-127912000D01*
X79048000Y-123952000D02*
X80718000Y-123952000D01*
X79048000Y-127912000D02*
X78048000Y-127912000D01*
X79053000Y-121932000D02*
X88278000Y-121932000D01*
X79053000Y-123837000D02*
X79053000Y-121932000D01*
X79053000Y-128027000D02*
X78048000Y-128027000D01*
X79053000Y-129932000D02*
X79053000Y-128027000D01*
X80718000Y-123952000D02*
X80718000Y-127912000D01*
X80718000Y-127912000D02*
X79048000Y-127912000D01*
X85058000Y-121642000D02*
X81058000Y-121642000D01*
X87678000Y-123152000D02*
X87678000Y-124752000D01*
X87678000Y-124752000D02*
X88278000Y-124752000D01*
X87678000Y-127112000D02*
X87678000Y-128712000D01*
X87678000Y-128712000D02*
X88278000Y-128712000D01*
X88278000Y-121932000D02*
X88278000Y-129932000D01*
X88278000Y-123152000D02*
X87678000Y-123152000D01*
X88278000Y-127112000D02*
X87678000Y-127112000D01*
X88278000Y-129932000D02*
X79053000Y-129932000D01*
%TO.C,R617*%
X108203276Y-95743500D02*
X108712724Y-95743500D01*
X108203276Y-96788500D02*
X108712724Y-96788500D01*
%TO.C,D602*%
X136170000Y-108524000D02*
X136170000Y-110424000D01*
X136170000Y-108524000D02*
X139830000Y-108524000D01*
X136170000Y-110424000D02*
X139830000Y-110424000D01*
%TO.C,J201*%
X90532000Y-124746000D02*
X90532000Y-128746000D01*
X90822000Y-123716000D02*
X90822000Y-129736000D01*
X90822000Y-129736000D02*
X103742000Y-129736000D01*
X91402000Y-123716000D02*
X91402000Y-124316000D01*
X91402000Y-124316000D02*
X93002000Y-124316000D01*
X92202000Y-128736000D02*
X92452000Y-128206000D01*
X92202000Y-128736000D02*
X102362000Y-128736000D01*
X92202000Y-129736000D02*
X92202000Y-128736000D01*
X92452000Y-128206000D02*
X102112000Y-128206000D01*
X92452000Y-129736000D02*
X92452000Y-128736000D01*
X93002000Y-124316000D02*
X93002000Y-123716000D01*
X93942000Y-123716000D02*
X93942000Y-124316000D01*
X93942000Y-124316000D02*
X95542000Y-124316000D01*
X95542000Y-124316000D02*
X95542000Y-123716000D01*
X96482000Y-123716000D02*
X96482000Y-124316000D01*
X96482000Y-124316000D02*
X98082000Y-124316000D01*
X98082000Y-124316000D02*
X98082000Y-123716000D01*
X99022000Y-123716000D02*
X99022000Y-124316000D01*
X99022000Y-124316000D02*
X100622000Y-124316000D01*
X100622000Y-124316000D02*
X100622000Y-123716000D01*
X101562000Y-123716000D02*
X101562000Y-124316000D01*
X101562000Y-124316000D02*
X103162000Y-124316000D01*
X102112000Y-128206000D02*
X102362000Y-128736000D01*
X102112000Y-129736000D02*
X102112000Y-128736000D01*
X102362000Y-128736000D02*
X102362000Y-129736000D01*
X103162000Y-124316000D02*
X103162000Y-123716000D01*
X103742000Y-123716000D02*
X90822000Y-123716000D01*
X103742000Y-129736000D02*
X103742000Y-123716000D01*
%TO.C,R512*%
X99821276Y-98029500D02*
X100330724Y-98029500D01*
X99821276Y-99074500D02*
X100330724Y-99074500D01*
%TO.C,J402*%
X131172000Y-156238909D02*
X131172000Y-160238909D01*
X131462000Y-155208909D02*
X131462000Y-161228909D01*
X131462000Y-161228909D02*
X141842000Y-161228909D01*
X132042000Y-155208909D02*
X132042000Y-155808909D01*
X132042000Y-155808909D02*
X133642000Y-155808909D01*
X132842000Y-160228909D02*
X133092000Y-159698909D01*
X132842000Y-160228909D02*
X140462000Y-160228909D01*
X132842000Y-161228909D02*
X132842000Y-160228909D01*
X133092000Y-159698909D02*
X140212000Y-159698909D01*
X133092000Y-161228909D02*
X133092000Y-160228909D01*
X133642000Y-155808909D02*
X133642000Y-155208909D01*
X134582000Y-155208909D02*
X134582000Y-155808909D01*
X134582000Y-155808909D02*
X136182000Y-155808909D01*
X136182000Y-155808909D02*
X136182000Y-155208909D01*
X137122000Y-155208909D02*
X137122000Y-155808909D01*
X137122000Y-155808909D02*
X138722000Y-155808909D01*
X138722000Y-155808909D02*
X138722000Y-155208909D01*
X139662000Y-155208909D02*
X139662000Y-155808909D01*
X139662000Y-155808909D02*
X141262000Y-155808909D01*
X140212000Y-159698909D02*
X140462000Y-160228909D01*
X140212000Y-161228909D02*
X140212000Y-160228909D01*
X140462000Y-160228909D02*
X140462000Y-161228909D01*
X141262000Y-155808909D02*
X141262000Y-155208909D01*
X141842000Y-155208909D02*
X131462000Y-155208909D01*
X141842000Y-161228909D02*
X141842000Y-155208909D01*
%TO.C,D608*%
X79420000Y-131636000D02*
X79420000Y-133556000D01*
X79420000Y-133556000D02*
X82280000Y-133556000D01*
X82280000Y-131636000D02*
X79420000Y-131636000D01*
%TO.C,C601*%
X134425252Y-111209000D02*
X133902748Y-111209000D01*
X134425252Y-112679000D02*
X133902748Y-112679000D01*
%TO.C,R610*%
X129920276Y-111548500D02*
X130429724Y-111548500D01*
X129920276Y-112593500D02*
X130429724Y-112593500D01*
%TO.C,R517*%
X116130724Y-103617500D02*
X115621276Y-103617500D01*
X116130724Y-104662500D02*
X115621276Y-104662500D01*
%TO.C,J401*%
X129140000Y-124742909D02*
X129140000Y-128742909D01*
X129430000Y-123712909D02*
X129430000Y-129732909D01*
X129430000Y-129732909D02*
X142350000Y-129732909D01*
X130010000Y-123712909D02*
X130010000Y-124312909D01*
X130010000Y-124312909D02*
X131610000Y-124312909D01*
X130810000Y-128732909D02*
X131060000Y-128202909D01*
X130810000Y-128732909D02*
X140970000Y-128732909D01*
X130810000Y-129732909D02*
X130810000Y-128732909D01*
X131060000Y-128202909D02*
X140720000Y-128202909D01*
X131060000Y-129732909D02*
X131060000Y-128732909D01*
X131610000Y-124312909D02*
X131610000Y-123712909D01*
X132550000Y-123712909D02*
X132550000Y-124312909D01*
X132550000Y-124312909D02*
X134150000Y-124312909D01*
X134150000Y-124312909D02*
X134150000Y-123712909D01*
X135090000Y-123712909D02*
X135090000Y-124312909D01*
X135090000Y-124312909D02*
X136690000Y-124312909D01*
X136690000Y-124312909D02*
X136690000Y-123712909D01*
X137630000Y-123712909D02*
X137630000Y-124312909D01*
X137630000Y-124312909D02*
X139230000Y-124312909D01*
X139230000Y-124312909D02*
X139230000Y-123712909D01*
X140170000Y-123712909D02*
X140170000Y-124312909D01*
X140170000Y-124312909D02*
X141770000Y-124312909D01*
X140720000Y-128202909D02*
X140970000Y-128732909D01*
X140720000Y-129732909D02*
X140720000Y-128732909D01*
X140970000Y-128732909D02*
X140970000Y-129732909D01*
X141770000Y-124312909D02*
X141770000Y-123712909D01*
X142350000Y-123712909D02*
X129430000Y-123712909D01*
X142350000Y-129732909D02*
X142350000Y-123712909D01*
%TO.C,R607*%
X121524500Y-107625276D02*
X121524500Y-108134724D01*
X122569500Y-107625276D02*
X122569500Y-108134724D01*
%TO.C,D603*%
X141523000Y-115118000D02*
X141523000Y-117038000D01*
X141523000Y-117038000D02*
X144383000Y-117038000D01*
X144383000Y-115118000D02*
X141523000Y-115118000D01*
%TO.C,C105*%
X81561000Y-107449252D02*
X81561000Y-106926748D01*
X83031000Y-107449252D02*
X83031000Y-106926748D01*
%TO.C,J301*%
X109840184Y-124747513D02*
X109840184Y-128747513D01*
X110130184Y-123717513D02*
X110130184Y-129737513D01*
X110130184Y-129737513D02*
X123050184Y-129737513D01*
X110710184Y-123717513D02*
X110710184Y-124317513D01*
X110710184Y-124317513D02*
X112310184Y-124317513D01*
X111510184Y-128737513D02*
X111760184Y-128207513D01*
X111510184Y-128737513D02*
X121670184Y-128737513D01*
X111510184Y-129737513D02*
X111510184Y-128737513D01*
X111760184Y-128207513D02*
X121420184Y-128207513D01*
X111760184Y-129737513D02*
X111760184Y-128737513D01*
X112310184Y-124317513D02*
X112310184Y-123717513D01*
X113250184Y-123717513D02*
X113250184Y-124317513D01*
X113250184Y-124317513D02*
X114850184Y-124317513D01*
X114850184Y-124317513D02*
X114850184Y-123717513D01*
X115790184Y-123717513D02*
X115790184Y-124317513D01*
X115790184Y-124317513D02*
X117390184Y-124317513D01*
X117390184Y-124317513D02*
X117390184Y-123717513D01*
X118330184Y-123717513D02*
X118330184Y-124317513D01*
X118330184Y-124317513D02*
X119930184Y-124317513D01*
X119930184Y-124317513D02*
X119930184Y-123717513D01*
X120870184Y-123717513D02*
X120870184Y-124317513D01*
X120870184Y-124317513D02*
X122470184Y-124317513D01*
X121420184Y-128207513D02*
X121670184Y-128737513D01*
X121420184Y-129737513D02*
X121420184Y-128737513D01*
X121670184Y-128737513D02*
X121670184Y-129737513D01*
X122470184Y-124317513D02*
X122470184Y-123717513D01*
X123050184Y-123717513D02*
X110130184Y-123717513D01*
X123050184Y-129737513D02*
X123050184Y-123717513D01*
%TO.C,J103*%
X78048000Y-153151000D02*
X79053000Y-153151000D01*
X78048000Y-153266000D02*
X79048000Y-153266000D01*
X78048000Y-157341000D02*
X78048000Y-153151000D01*
X79048000Y-153266000D02*
X79048000Y-157226000D01*
X79048000Y-153266000D02*
X80718000Y-153266000D01*
X79048000Y-157226000D02*
X78048000Y-157226000D01*
X79053000Y-151246000D02*
X88278000Y-151246000D01*
X79053000Y-153151000D02*
X79053000Y-151246000D01*
X79053000Y-157341000D02*
X78048000Y-157341000D01*
X79053000Y-159246000D02*
X79053000Y-157341000D01*
X80718000Y-153266000D02*
X80718000Y-157226000D01*
X80718000Y-157226000D02*
X79048000Y-157226000D01*
X85058000Y-150956000D02*
X81058000Y-150956000D01*
X87678000Y-152466000D02*
X87678000Y-154066000D01*
X87678000Y-154066000D02*
X88278000Y-154066000D01*
X87678000Y-156426000D02*
X87678000Y-158026000D01*
X87678000Y-158026000D02*
X88278000Y-158026000D01*
X88278000Y-151246000D02*
X88278000Y-159246000D01*
X88278000Y-152466000D02*
X87678000Y-152466000D01*
X88278000Y-156426000D02*
X87678000Y-156426000D01*
X88278000Y-159246000D02*
X79053000Y-159246000D01*
%TO.C,R614*%
X120777724Y-99483500D02*
X120268276Y-99483500D01*
X120777724Y-100528500D02*
X120268276Y-100528500D01*
%TO.C,R516*%
X116130724Y-102093500D02*
X115621276Y-102093500D01*
X116130724Y-103138500D02*
X115621276Y-103138500D01*
%TO.C,U101*%
X78124000Y-112958000D02*
X78124000Y-116718000D01*
X78124000Y-116718000D02*
X79384000Y-116718000D01*
X84944000Y-112958000D02*
X84944000Y-116718000D01*
X84944000Y-116718000D02*
X83684000Y-116718000D01*
X85174000Y-111918000D02*
X84844000Y-111678000D01*
X85174000Y-111438000D01*
X85174000Y-111918000D01*
G36*
X85174000Y-111918000D02*
G01*
X84844000Y-111678000D01*
X85174000Y-111438000D01*
X85174000Y-111918000D01*
G37*
%TO.C,D606*%
X97200000Y-95306000D02*
X97200000Y-97226000D01*
X97200000Y-97226000D02*
X100060000Y-97226000D01*
X100060000Y-95306000D02*
X97200000Y-95306000D01*
%TO.C,R602*%
X139446724Y-105649500D02*
X138937276Y-105649500D01*
X139446724Y-106694500D02*
X138937276Y-106694500D01*
%TO.C,U401*%
X129480000Y-151365909D02*
X129480000Y-133525909D01*
X132140000Y-133525909D02*
X129480000Y-133525909D01*
X132140000Y-151365909D02*
X129480000Y-151365909D01*
X132140000Y-151365909D02*
X132140000Y-133525909D01*
X132140000Y-152635909D02*
X132140000Y-153965909D01*
X132140000Y-153965909D02*
X130810000Y-153965909D01*
X142180000Y-151365909D02*
X142180000Y-133525909D01*
X144840000Y-133525909D02*
X142180000Y-133525909D01*
X144840000Y-151365909D02*
X142180000Y-151365909D01*
X144840000Y-151365909D02*
X144840000Y-133525909D01*
X144840000Y-152635909D02*
X144840000Y-153965909D01*
X144840000Y-153965909D02*
X143510000Y-153965909D01*
%TO.C,R616*%
X143383724Y-111491500D02*
X142874276Y-111491500D01*
X143383724Y-112536500D02*
X142874276Y-112536500D01*
%TO.C,R615*%
X142770776Y-117333500D02*
X143280224Y-117333500D01*
X142770776Y-118378500D02*
X143280224Y-118378500D01*
D11*
%TO.C,J602*%
X141708000Y-106744000D02*
X141708000Y-107469000D01*
X141708000Y-107469000D02*
X142133000Y-107469000D01*
X142133000Y-103869000D02*
X142133000Y-102869000D01*
X142133000Y-107469000D02*
X142133000Y-108469000D01*
X143883000Y-109819000D02*
X145283000Y-109819000D01*
X145283000Y-101519000D02*
X143883000Y-101519000D01*
X147683000Y-109819000D02*
X147833000Y-109819000D01*
X147833000Y-101519000D02*
X147683000Y-101519000D01*
X147833000Y-101819000D02*
X147833000Y-101519000D01*
X147833000Y-109519000D02*
X148283000Y-109519000D01*
X147833000Y-109819000D02*
X147833000Y-109519000D01*
X148283000Y-101819000D02*
X147833000Y-101819000D01*
D12*
%TO.C,R608*%
X119746500Y-108134724D02*
X119746500Y-107625276D01*
X120791500Y-108134724D02*
X120791500Y-107625276D01*
%TO.C,R513*%
X116130724Y-105395500D02*
X115621276Y-105395500D01*
X116130724Y-106440500D02*
X115621276Y-106440500D01*
%TO.C,R519*%
X95785000Y-99795064D02*
X95785000Y-99340936D01*
X97255000Y-99795064D02*
X97255000Y-99340936D01*
%TO.C,U603*%
X124787000Y-101857000D02*
X124787000Y-102307000D01*
X124787000Y-109077000D02*
X124787000Y-108627000D01*
X125237000Y-101857000D02*
X124787000Y-101857000D01*
X125237000Y-109077000D02*
X124787000Y-109077000D01*
X131557000Y-101857000D02*
X132007000Y-101857000D01*
X131557000Y-109077000D02*
X132007000Y-109077000D01*
X132007000Y-101857000D02*
X132007000Y-102307000D01*
X132007000Y-109077000D02*
X132007000Y-108627000D01*
X124197000Y-102307000D02*
X123857000Y-101837000D01*
X124537000Y-101837000D01*
X124197000Y-102307000D01*
G36*
X124197000Y-102307000D02*
G01*
X123857000Y-101837000D01*
X124537000Y-101837000D01*
X124197000Y-102307000D01*
G37*
%TO.C,U501*%
X101561999Y-101403000D02*
X102511999Y-101403000D01*
X101561999Y-102353000D02*
X101561999Y-101403000D01*
X101561999Y-110673000D02*
X101561999Y-111623000D01*
X101561999Y-111623000D02*
X102511999Y-111623000D01*
X111781999Y-101403000D02*
X110831999Y-101403000D01*
X111781999Y-102353000D02*
X111781999Y-101403000D01*
X111781999Y-110673000D02*
X111781999Y-111623000D01*
X111781999Y-111623000D02*
X110831999Y-111623000D01*
X111301998Y-101128000D02*
X110831999Y-100788000D01*
X111301999Y-100448000D01*
X111301998Y-101128000D01*
G36*
X111301998Y-101128000D02*
G01*
X110831999Y-100788000D01*
X111301999Y-100448000D01*
X111301998Y-101128000D01*
G37*
%TO.C,U601*%
X135140000Y-103745000D02*
X136640000Y-103745000D01*
X135140000Y-105665000D02*
X136640000Y-105665000D01*
X134620000Y-103905000D02*
X134340000Y-103905000D01*
X134620000Y-103625000D01*
X134620000Y-103905000D01*
G36*
X134620000Y-103905000D02*
G01*
X134340000Y-103905000D01*
X134620000Y-103625000D01*
X134620000Y-103905000D01*
G37*
%TO.C,J601*%
X122495000Y-95628000D02*
X122495000Y-98288000D01*
X135255000Y-95628000D02*
X122495000Y-95628000D01*
X135255000Y-95628000D02*
X135255000Y-98288000D01*
X135255000Y-98288000D02*
X122495000Y-98288000D01*
X136525000Y-95628000D02*
X137855000Y-95628000D01*
X137855000Y-95628000D02*
X137855000Y-96958000D01*
%TO.C,R613*%
X120777724Y-101261500D02*
X120268276Y-101261500D01*
X120777724Y-102306500D02*
X120268276Y-102306500D01*
%TO.C,R514*%
X95541500Y-109728724D02*
X95541500Y-109219276D01*
X96586500Y-109728724D02*
X96586500Y-109219276D01*
%TO.C,D605*%
X111776000Y-97226000D02*
X114636000Y-97226000D01*
X114636000Y-95306000D02*
X111776000Y-95306000D01*
X114636000Y-97226000D02*
X114636000Y-95306000D01*
%TO.C,D601*%
X136222000Y-111064000D02*
X136222000Y-112964000D01*
X136222000Y-111064000D02*
X139882000Y-111064000D01*
X136222000Y-112964000D02*
X139882000Y-112964000D01*
%TO.C,D604*%
X142383000Y-114752000D02*
X145243000Y-114752000D01*
X145243000Y-112832000D02*
X142383000Y-112832000D01*
X145243000Y-114752000D02*
X145243000Y-112832000D01*
%TO.C,R621*%
X86360724Y-134351500D02*
X85851276Y-134351500D01*
X86360724Y-135396500D02*
X85851276Y-135396500D01*
%TO.C,R518*%
X92991000Y-99795064D02*
X92991000Y-99340936D01*
X94461000Y-99795064D02*
X94461000Y-99340936D01*
%TO.C,R611*%
X134239724Y-109135500D02*
X133730276Y-109135500D01*
X134239724Y-110180500D02*
X133730276Y-110180500D01*
%TO.C,J302*%
X112888184Y-156243513D02*
X112888184Y-160243513D01*
X113178184Y-155213513D02*
X113178184Y-161233513D01*
X113178184Y-161233513D02*
X123558184Y-161233513D01*
X113758184Y-155213513D02*
X113758184Y-155813513D01*
X113758184Y-155813513D02*
X115358184Y-155813513D01*
X114558184Y-160233513D02*
X114808184Y-159703513D01*
X114558184Y-160233513D02*
X122178184Y-160233513D01*
X114558184Y-161233513D02*
X114558184Y-160233513D01*
X114808184Y-159703513D02*
X121928184Y-159703513D01*
X114808184Y-161233513D02*
X114808184Y-160233513D01*
X115358184Y-155813513D02*
X115358184Y-155213513D01*
X116298184Y-155213513D02*
X116298184Y-155813513D01*
X116298184Y-155813513D02*
X117898184Y-155813513D01*
X117898184Y-155813513D02*
X117898184Y-155213513D01*
X118838184Y-155213513D02*
X118838184Y-155813513D01*
X118838184Y-155813513D02*
X120438184Y-155813513D01*
X120438184Y-155813513D02*
X120438184Y-155213513D01*
X121378184Y-155213513D02*
X121378184Y-155813513D01*
X121378184Y-155813513D02*
X122978184Y-155813513D01*
X121928184Y-159703513D02*
X122178184Y-160233513D01*
X121928184Y-161233513D02*
X121928184Y-160233513D01*
X122178184Y-160233513D02*
X122178184Y-161233513D01*
X122978184Y-155813513D02*
X122978184Y-155213513D01*
X123558184Y-155213513D02*
X113178184Y-155213513D01*
X123558184Y-161233513D02*
X123558184Y-155213513D01*
%TO.C,C608*%
X120669267Y-104830000D02*
X120376733Y-104830000D01*
X120669267Y-105850000D02*
X120376733Y-105850000D01*
%TO.C,U602*%
X134615000Y-113416000D02*
X134615000Y-114676000D01*
X134615000Y-120236000D02*
X134615000Y-118976000D01*
X138375000Y-113416000D02*
X134615000Y-113416000D01*
X138375000Y-120236000D02*
X134615000Y-120236000D01*
X139895000Y-120466000D02*
X139415000Y-120466000D01*
X139655000Y-120136000D01*
X139895000Y-120466000D01*
G36*
X139895000Y-120466000D02*
G01*
X139415000Y-120466000D01*
X139655000Y-120136000D01*
X139895000Y-120466000D01*
G37*
%TO.C,C103*%
X78513000Y-107449252D02*
X78513000Y-106926748D01*
X79983000Y-107449252D02*
X79983000Y-106926748D01*
%TO.C,J202*%
X93580000Y-156242000D02*
X93580000Y-160242000D01*
X93870000Y-155212000D02*
X93870000Y-161232000D01*
X93870000Y-161232000D02*
X104250000Y-161232000D01*
X94450000Y-155212000D02*
X94450000Y-155812000D01*
X94450000Y-155812000D02*
X96050000Y-155812000D01*
X95250000Y-160232000D02*
X95500000Y-159702000D01*
X95250000Y-160232000D02*
X102870000Y-160232000D01*
X95250000Y-161232000D02*
X95250000Y-160232000D01*
X95500000Y-159702000D02*
X102620000Y-159702000D01*
X95500000Y-161232000D02*
X95500000Y-160232000D01*
X96050000Y-155812000D02*
X96050000Y-155212000D01*
X96990000Y-155212000D02*
X96990000Y-155812000D01*
X96990000Y-155812000D02*
X98590000Y-155812000D01*
X98590000Y-155812000D02*
X98590000Y-155212000D01*
X99530000Y-155212000D02*
X99530000Y-155812000D01*
X99530000Y-155812000D02*
X101130000Y-155812000D01*
X101130000Y-155812000D02*
X101130000Y-155212000D01*
X102070000Y-155212000D02*
X102070000Y-155812000D01*
X102070000Y-155812000D02*
X103670000Y-155812000D01*
X102620000Y-159702000D02*
X102870000Y-160232000D01*
X102620000Y-161232000D02*
X102620000Y-160232000D01*
X102870000Y-160232000D02*
X102870000Y-161232000D01*
X103670000Y-155812000D02*
X103670000Y-155212000D01*
X104250000Y-155212000D02*
X93870000Y-155212000D01*
X104250000Y-161232000D02*
X104250000Y-155212000D01*
%TD*%
D13*
X75946000Y-93472000D02*
X148590000Y-93472000D01*
X148590000Y-167132000D01*
X75946000Y-167132000D01*
X75946000Y-93472000D01*
M02*
