%TF.GenerationSoftware,KiCad,Pcbnew,9.0.0*%
%TF.CreationDate,2025-03-09T13:47:22+01:00*%
%TF.ProjectId,Carte_moteur,43617274-655f-46d6-9f74-6575722e6b69,rev?*%
%TF.SameCoordinates,Original*%
%TF.FileFunction,Paste,Bot*%
%TF.FilePolarity,Positive*%
%FSLAX46Y46*%
G04 Gerber Fmt 4.6, Leading zero omitted, Abs format (unit mm)*
G04 Created by KiCad (PCBNEW 9.0.0) date 2025-03-09 13:47:22*
%MOMM*%
%LPD*%
G01*
G04 APERTURE LIST*
G04 Aperture macros list*
%AMRoundRect*
0 Rectangle with rounded corners*
0 $1 Rounding radius*
0 $2 $3 $4 $5 $6 $7 $8 $9 X,Y pos of 4 corners*
0 Add a 4 corners polygon primitive as box body*
4,1,4,$2,$3,$4,$5,$6,$7,$8,$9,$2,$3,0*
0 Add four circle primitives for the rounded corners*
1,1,$1+$1,$2,$3*
1,1,$1+$1,$4,$5*
1,1,$1+$1,$6,$7*
1,1,$1+$1,$8,$9*
0 Add four rect primitives between the rounded corners*
20,1,$1+$1,$2,$3,$4,$5,0*
20,1,$1+$1,$4,$5,$6,$7,0*
20,1,$1+$1,$6,$7,$8,$9,0*
20,1,$1+$1,$8,$9,$2,$3,0*%
G04 Aperture macros list end*
%ADD10RoundRect,0.250000X1.100000X-0.412500X1.100000X0.412500X-1.100000X0.412500X-1.100000X-0.412500X0*%
%ADD11RoundRect,0.237500X-0.237500X0.250000X-0.237500X-0.250000X0.237500X-0.250000X0.237500X0.250000X0*%
%ADD12RoundRect,0.237500X0.250000X0.237500X-0.250000X0.237500X-0.250000X-0.237500X0.250000X-0.237500X0*%
%ADD13RoundRect,0.250000X-0.350000X-0.450000X0.350000X-0.450000X0.350000X0.450000X-0.350000X0.450000X0*%
%ADD14RoundRect,0.250000X-1.100000X0.412500X-1.100000X-0.412500X1.100000X-0.412500X1.100000X0.412500X0*%
%ADD15RoundRect,0.237500X0.300000X0.237500X-0.300000X0.237500X-0.300000X-0.237500X0.300000X-0.237500X0*%
%ADD16RoundRect,0.250000X-0.475000X0.337500X-0.475000X-0.337500X0.475000X-0.337500X0.475000X0.337500X0*%
%ADD17RoundRect,0.237500X0.237500X-0.250000X0.237500X0.250000X-0.237500X0.250000X-0.237500X-0.250000X0*%
%ADD18RoundRect,0.237500X-0.300000X-0.237500X0.300000X-0.237500X0.300000X0.237500X-0.300000X0.237500X0*%
%ADD19RoundRect,0.250000X0.475000X-0.337500X0.475000X0.337500X-0.475000X0.337500X-0.475000X-0.337500X0*%
%ADD20RoundRect,0.150000X-0.150000X0.587500X-0.150000X-0.587500X0.150000X-0.587500X0.150000X0.587500X0*%
%ADD21RoundRect,0.237500X-0.250000X-0.237500X0.250000X-0.237500X0.250000X0.237500X-0.250000X0.237500X0*%
%ADD22R,1.540000X3.300000*%
%ADD23RoundRect,0.237500X0.237500X-0.300000X0.237500X0.300000X-0.237500X0.300000X-0.237500X-0.300000X0*%
%TA.AperFunction,Profile*%
%ADD24C,0.050000*%
%TD*%
G04 APERTURE END LIST*
D10*
%TO.C,C102*%
X87630000Y-147776000D03*
X87630000Y-144651000D03*
%TD*%
D11*
%TO.C,R302*%
X109220000Y-126849500D03*
X109220000Y-128674500D03*
%TD*%
%TO.C,R202*%
X89662000Y-126849500D03*
X89662000Y-128674500D03*
%TD*%
D12*
%TO.C,R603*%
X137080000Y-102546000D03*
X135255000Y-102546000D03*
%TD*%
D10*
%TO.C,C201*%
X94996000Y-153200500D03*
X94996000Y-150075500D03*
%TD*%
D12*
%TO.C,R307*%
X119026684Y-136907513D03*
X117201684Y-136907513D03*
%TD*%
D13*
%TO.C,R303*%
X117025184Y-141225513D03*
X119025184Y-141225513D03*
%TD*%
D11*
%TO.C,R528*%
X138444500Y-129894409D03*
X138444500Y-131719409D03*
%TD*%
D14*
%TO.C,C101*%
X87630000Y-139661500D03*
X87630000Y-142786500D03*
%TD*%
D11*
%TO.C,R211*%
X97296500Y-129897500D03*
X97296500Y-131722500D03*
%TD*%
D12*
%TO.C,R204*%
X99718500Y-135128000D03*
X97893500Y-135128000D03*
%TD*%
D15*
%TO.C,C605*%
X128497500Y-100768000D03*
X126772500Y-100768000D03*
%TD*%
D16*
%TO.C,C602*%
X136525000Y-116748500D03*
X136525000Y-118823500D03*
%TD*%
D17*
%TO.C,R101*%
X119940000Y-113688500D03*
X119940000Y-111863500D03*
%TD*%
%TO.C,R104*%
X130175000Y-115142500D03*
X130175000Y-113317500D03*
%TD*%
%TO.C,R103*%
X122555000Y-115142500D03*
X122555000Y-113317500D03*
%TD*%
D13*
%TO.C,R203*%
X97717000Y-141224000D03*
X99717000Y-141224000D03*
%TD*%
D17*
%TO.C,R102*%
X125095000Y-115142500D03*
X125095000Y-113317500D03*
%TD*%
D12*
%TO.C,R207*%
X99718500Y-136906000D03*
X97893500Y-136906000D03*
%TD*%
D11*
%TO.C,R524*%
X116604684Y-129899013D03*
X116604684Y-131724013D03*
%TD*%
D18*
%TO.C,C607*%
X127026500Y-105721000D03*
X128751500Y-105721000D03*
%TD*%
D19*
%TO.C,C302*%
X114469184Y-137183013D03*
X114469184Y-135108013D03*
%TD*%
D11*
%TO.C,R527*%
X135904500Y-129894409D03*
X135904500Y-131719409D03*
%TD*%
D17*
%TO.C,R105*%
X127635000Y-115246000D03*
X127635000Y-113421000D03*
%TD*%
D15*
%TO.C,C503*%
X109770500Y-104648000D03*
X108045500Y-104648000D03*
%TD*%
%TO.C,C508*%
X104800500Y-106426000D03*
X103075500Y-106426000D03*
%TD*%
D12*
%TO.C,R612*%
X122197500Y-97974000D03*
X120372500Y-97974000D03*
%TD*%
D15*
%TO.C,C505*%
X109822500Y-109982000D03*
X108097500Y-109982000D03*
%TD*%
D10*
%TO.C,C301*%
X114304184Y-153202013D03*
X114304184Y-150077013D03*
%TD*%
D19*
%TO.C,C402*%
X133769000Y-137178409D03*
X133769000Y-135103409D03*
%TD*%
D13*
%TO.C,R306*%
X117025184Y-138939513D03*
X119025184Y-138939513D03*
%TD*%
D12*
%TO.C,R304*%
X119026684Y-135129513D03*
X117201684Y-135129513D03*
%TD*%
D10*
%TO.C,C104*%
X87630000Y-156972000D03*
X87630000Y-153847000D03*
%TD*%
D20*
%TO.C,Q601*%
X136337000Y-98893000D03*
X138237000Y-98893000D03*
X137287000Y-100768000D03*
%TD*%
D21*
%TO.C,R606*%
X132818500Y-98990000D03*
X134643500Y-98990000D03*
%TD*%
D22*
%TO.C,Y601*%
X120219000Y-108642000D03*
X120219000Y-101242000D03*
X122859000Y-101242000D03*
X122859000Y-108642000D03*
%TD*%
D11*
%TO.C,R526*%
X133364500Y-129894409D03*
X133364500Y-131719409D03*
%TD*%
D12*
%TO.C,R605*%
X134643500Y-100768000D03*
X132818500Y-100768000D03*
%TD*%
D11*
%TO.C,R511*%
X102922000Y-108053500D03*
X102922000Y-109878500D03*
%TD*%
%TO.C,R210*%
X94756500Y-129897500D03*
X94756500Y-131722500D03*
%TD*%
D12*
%TO.C,R609*%
X127531500Y-102546000D03*
X125706500Y-102546000D03*
%TD*%
D11*
%TO.C,R212*%
X99836500Y-129897500D03*
X99836500Y-131722500D03*
%TD*%
%TO.C,R301*%
X111524684Y-129899013D03*
X111524684Y-131724013D03*
%TD*%
D13*
%TO.C,R406*%
X136325000Y-138934909D03*
X138325000Y-138934909D03*
%TD*%
D19*
%TO.C,C202*%
X95161000Y-137181500D03*
X95161000Y-135106500D03*
%TD*%
D18*
%TO.C,C603*%
X127026500Y-104197000D03*
X128751500Y-104197000D03*
%TD*%
D11*
%TO.C,R523*%
X114064684Y-129899013D03*
X114064684Y-131724013D03*
%TD*%
D15*
%TO.C,C604*%
X132307500Y-104197000D03*
X130582500Y-104197000D03*
%TD*%
D21*
%TO.C,R510*%
X107995500Y-102870000D03*
X109820500Y-102870000D03*
%TD*%
D15*
%TO.C,C606*%
X132307500Y-105848000D03*
X130582500Y-105848000D03*
%TD*%
D18*
%TO.C,C506*%
X103075500Y-102870000D03*
X104800500Y-102870000D03*
%TD*%
D11*
%TO.C,R402*%
X128270000Y-126849500D03*
X128270000Y-128674500D03*
%TD*%
D12*
%TO.C,R407*%
X138326500Y-136902909D03*
X136501500Y-136902909D03*
%TD*%
D10*
%TO.C,C401*%
X128016000Y-152946500D03*
X128016000Y-149821500D03*
%TD*%
D12*
%TO.C,R404*%
X138326500Y-135124909D03*
X136501500Y-135124909D03*
%TD*%
D11*
%TO.C,R401*%
X130824500Y-129894409D03*
X130824500Y-131719409D03*
%TD*%
D13*
%TO.C,R206*%
X97717000Y-138938000D03*
X99717000Y-138938000D03*
%TD*%
D23*
%TO.C,C504*%
X104954000Y-109828500D03*
X104954000Y-108103500D03*
%TD*%
D11*
%TO.C,R201*%
X92216500Y-129897500D03*
X92216500Y-131722500D03*
%TD*%
D17*
%TO.C,R604*%
X137414000Y-106322500D03*
X137414000Y-104497500D03*
%TD*%
D11*
%TO.C,R525*%
X119144684Y-129899013D03*
X119144684Y-131724013D03*
%TD*%
D13*
%TO.C,R403*%
X136325000Y-141220909D03*
X138325000Y-141220909D03*
%TD*%
D24*
X75946000Y-93472000D02*
X148590000Y-93472000D01*
X148590000Y-167132000D01*
X75946000Y-167132000D01*
X75946000Y-93472000D01*
M02*
