<?xml version="1.0" standalone="no"?>
 <!DOCTYPE svg PUBLIC "-//W3C//DTD SVG 1.1//EN" 
 "http://www.w3.org/Graphics/SVG/1.1/DTD/svg11.dtd"> 
<svg xmlns="http://www.w3.org/2000/svg" version="1.1" 
    width="13.3883cm" height="6.53288cm" viewBox="0 0 52710 25720 ">
<title>SVG Picture created as Carte_Alim-brd.svg date 2018/05/08 15:58:38 </title>
  <desc>Picture generated by PCBNEW </desc>
<g style="fill:#000000; fill-opacity:1;stroke:#000000; stroke-opacity:1;
stroke-linecap:round; stroke-linejoin:round; "
 transform="translate(0 0) scale(1 1)">
</g>
<g style="fill:#000000; fill-opacity:0.0; 
stroke:#000000; stroke-width:-0.000393701; stroke-opacity:1; 
stroke-linecap:round; stroke-linejoin:round;">
</g>
<g style="fill:#000000; fill-opacity:0.0; 
stroke:#000000; stroke-width:39.3701; stroke-opacity:1; 
stroke-linecap:round; stroke-linejoin:round;">
<path d="M41571 11669
L41083 11669
" />
<path d="M41571 12456
L41571 11669
" />
<path d="M41083 12456
L41571 12456
" />
<path d="M41083 11669
L41083 12456
" />
<path d="M16542 4833
L15912 4833
" />
<path d="M16542 6092
L16542 4833
" />
<path d="M15912 6092
L16542 6092
" />
<path d="M15912 4833
L15912 6092
" />
<path d="M5197 8448
L5197 9077
" />
<path d="M6457 8448
L5197 8448
" />
<path d="M6457 9077
L6457 8448
" />
<path d="M5197 9077
L6457 9077
" />
<path d="M38597 16548
L38597 17177
" />
<path d="M39857 16548
L38597 16548
" />
<path d="M39857 17177
L39857 16548
" />
<path d="M38597 17177
L39857 17177
" />
<path d="M34612 18592
L35242 18592
" />
<path d="M34612 17333
L34612 18592
" />
<path d="M35242 17333
L34612 17333
" />
<path d="M35242 18592
L35242 17333
" />
<path d="M28157 8577
L28157 7948
" />
<path d="M26897 8577
L28157 8577
" />
<path d="M26897 7948
L26897 8577
" />
<path d="M28157 7948
L26897 7948
" />
<path d="M33597 7948
L33597 8577
" />
<path d="M34857 7948
L33597 7948
" />
<path d="M34857 8577
L34857 7948
" />
<path d="M33597 8577
L34857 8577
" />
<path d="M38919 9733
L37935 9733
" />
<path d="M38919 10992
L38919 9733
" />
<path d="M37935 10992
L38919 10992
" />
<path d="M37935 9733
L37935 10992
" />
<path d="M11785 16048
L11785 16677
" />
<path d="M13045 16048
L11785 16048
" />
<path d="M13045 16677
L13045 16048
" />
<path d="M11785 16677
L13045 16677
" />
</g>
<g style="fill:#000000; fill-opacity:0.0; 
stroke:#000000; stroke-width:59.0551; stroke-opacity:1; 
stroke-linecap:round; stroke-linejoin:round;">
<path d="M42194 11453
L42194 11228
" />
<path d="M42194 11341
L41801 11341
L41857 11303
L41894 11266
L41913 11228
" />
<path d="M41801 11697
L41801 11734
L41819 11772
L41838 11791
L41876 11809
L41951 11828
L42044 11828
L42119 11809
L42157 11791
L42176 11772
L42194 11734
L42194 11697
L42176 11659
L42157 11641
L42119 11622
L42044 11603
L41951 11603
L41876 11622
L41838 11641
L41819 11659
L41801 11697
" />
<path d="M41801 12072
L41801 12109
L41819 12147
L41838 12166
L41876 12184
L41951 12203
L42044 12203
L42119 12184
L42157 12166
L42176 12147
L42194 12109
L42194 12072
L42176 12034
L42157 12016
L42119 11997
L42044 11978
L41951 11978
L41876 11997
L41838 12016
L41819 12034
L41801 12072
" />
<path d="M41932 12372
L42194 12372
" />
<path d="M41969 12372
L41951 12391
L41932 12428
L41932 12484
L41951 12522
L41988 12541
L42194 12541
" />
<path d="M41988 12859
L41988 12728
" />
<path d="M42194 12728
L41801 12728
L41801 12916
" />
<path d="M40779 11809
L40798 11791
L40816 11734
L40816 11697
L40798 11641
L40760 11603
L40723 11584
L40648 11566
L40591 11566
L40517 11584
L40479 11603
L40442 11641
L40423 11697
L40423 11734
L40442 11791
L40460 11809
" />
<path d="M40554 12147
L40816 12147
" />
<path d="M40404 12053
L40685 11959
L40685 12203
" />
<path d="M40460 12334
L40442 12353
L40423 12391
L40423 12484
L40442 12522
L40460 12541
L40498 12559
L40535 12559
L40591 12541
L40816 12316
L40816 12559
" />
<path d="M16799 4628
L16799 4666
L16818 4703
L16837 4722
L16874 4741
L16949 4759
L17043 4759
L17118 4741
L17155 4722
L17174 4703
L17193 4666
L17193 4628
L17174 4591
L17155 4572
L17118 4553
L17043 4534
L16949 4534
L16874 4553
L16837 4572
L16818 4591
L16799 4628
" />
<path d="M17155 4928
L17174 4947
L17193 4928
L17174 4909
L17155 4928
L17193 4928
" />
<path d="M16930 5284
L17193 5284
" />
<path d="M16780 5191
L17062 5097
L17062 5341
" />
<path d="M16799 5453
L16799 5716
L17193 5547
" />
<path d="M16930 6034
L17193 6034
" />
<path d="M16930 5866
L17137 5866
L17174 5884
L17193 5922
L17193 5978
L17174 6016
L17155 6034
" />
<path d="M16987 6353
L16987 6222
" />
<path d="M17193 6222
L16799 6222
L16799 6409
" />
<path d="M15679 5209
L15698 5191
L15716 5134
L15716 5097
L15698 5041
L15660 5003
L15623 4984
L15548 4966
L15491 4966
L15417 4984
L15379 5003
L15342 5041
L15323 5097
L15323 5134
L15342 5191
L15360 5209
" />
<path d="M15360 5359
L15342 5378
L15323 5416
L15323 5509
L15342 5547
L15360 5566
L15398 5584
L15435 5584
L15491 5566
L15716 5341
L15716 5584
" />
<path d="M15454 5922
L15716 5922
" />
<path d="M15304 5828
L15585 5734
L15585 5978
" />
<path d="M6062 8153
L6287 8153
" />
<path d="M6174 8153
L6174 7759
L6212 7816
L6249 7853
L6287 7872
" />
<path d="M5724 7891
L5724 8153
" />
<path d="M5893 7891
L5893 8097
L5874 8134
L5837 8153
L5780 8153
L5743 8134
L5724 8116
" />
<path d="M5406 7947
L5537 7947
" />
<path d="M5537 8153
L5537 7759
L5349 7759
" />
<path d="M6080 9592
L6099 9611
L6155 9630
L6193 9630
L6249 9611
L6287 9573
L6305 9536
L6324 9461
L6324 9405
L6305 9330
L6287 9292
L6249 9255
L6193 9236
L6155 9236
L6099 9255
L6080 9273
" />
<path d="M5705 9630
L5930 9630
" />
<path d="M5818 9630
L5818 9236
L5855 9292
L5893 9330
L5930 9348
" />
<path d="M5368 9367
L5368 9630
" />
<path d="M5462 9217
L5555 9498
L5312 9498
" />
<path d="M39462 16253
L39687 16253
" />
<path d="M39574 16253
L39574 15859
L39612 15916
L39649 15953
L39687 15972
" />
<path d="M39124 15991
L39124 16253
" />
<path d="M39293 15991
L39293 16197
L39274 16234
L39237 16253
L39180 16253
L39143 16234
L39124 16216
" />
<path d="M38806 16047
L38937 16047
" />
<path d="M38937 16253
L38937 15859
L38749 15859
" />
<path d="M39480 17692
L39499 17711
L39555 17730
L39593 17730
L39649 17711
L39687 17673
L39705 17636
L39724 17561
L39724 17505
L39705 17430
L39687 17392
L39649 17355
L39593 17336
L39555 17336
L39499 17355
L39480 17373
" />
<path d="M39349 17336
L39105 17336
L39237 17486
L39180 17486
L39143 17505
L39124 17523
L39105 17561
L39105 17655
L39124 17692
L39143 17711
L39180 17730
L39293 17730
L39330 17711
L39349 17692
" />
<path d="M38731 17730
L38955 17730
" />
<path d="M38843 17730
L38843 17336
L38881 17392
L38918 17430
L38955 17448
" />
<path d="M34318 17728
L34318 17503
" />
<path d="M34318 17616
L33924 17616
L33981 17578
L34018 17541
L34037 17503
" />
<path d="M34056 18066
L34318 18066
" />
<path d="M34056 17897
L34262 17897
L34299 17916
L34318 17953
L34318 18009
L34299 18047
L34281 18066
" />
<path d="M34112 18384
L34112 18253
" />
<path d="M34318 18253
L33924 18253
L33924 18441
" />
<path d="M35757 17709
L35776 17691
L35794 17634
L35794 17597
L35776 17541
L35738 17503
L35701 17484
L35626 17466
L35569 17466
L35494 17484
L35457 17503
L35419 17541
L35401 17597
L35401 17634
L35419 17691
L35438 17709
" />
<path d="M35401 17841
L35401 18084
L35551 17953
L35551 18009
L35569 18047
L35588 18066
L35626 18084
L35719 18084
L35757 18066
L35776 18047
L35794 18009
L35794 17897
L35776 17859
L35757 17841
" />
<path d="M35438 18234
L35419 18253
L35401 18291
L35401 18384
L35419 18422
L35438 18441
L35476 18459
L35513 18459
L35569 18441
L35794 18216
L35794 18459
" />
<path d="M27762 9228
L27987 9228
" />
<path d="M27874 9228
L27874 8834
L27912 8891
L27949 8928
L27987 8947
" />
<path d="M27424 8966
L27424 9228
" />
<path d="M27593 8966
L27593 9172
L27574 9209
L27537 9228
L27480 9228
L27443 9209
L27424 9191
" />
<path d="M27106 9022
L27237 9022
" />
<path d="M27237 9228
L27237 8834
L27049 8834
" />
<path d="M27780 7714
L27799 7733
L27855 7752
L27893 7752
L27949 7733
L27987 7695
L28005 7658
L28024 7583
L28024 7527
L28005 7452
L27987 7414
L27949 7377
L27893 7358
L27855 7358
L27799 7377
L27780 7395
" />
<path d="M27649 7358
L27405 7358
L27537 7508
L27480 7508
L27443 7527
L27424 7545
L27405 7583
L27405 7677
L27424 7714
L27443 7733
L27480 7752
L27593 7752
L27630 7733
L27649 7714
" />
<path d="M27274 7358
L27031 7358
L27162 7508
L27106 7508
L27068 7527
L27049 7545
L27031 7583
L27031 7677
L27049 7714
L27068 7733
L27106 7752
L27218 7752
L27255 7733
L27274 7714
" />
<path d="M34462 7653
L34687 7653
" />
<path d="M34574 7653
L34574 7259
L34612 7316
L34649 7353
L34687 7372
" />
<path d="M34124 7391
L34124 7653
" />
<path d="M34293 7391
L34293 7597
L34274 7634
L34237 7653
L34180 7653
L34143 7634
L34124 7616
" />
<path d="M33806 7447
L33937 7447
" />
<path d="M33937 7653
L33937 7259
L33749 7259
" />
<path d="M34480 9092
L34499 9111
L34555 9130
L34593 9130
L34649 9111
L34687 9073
L34705 9036
L34724 8961
L34724 8905
L34705 8830
L34687 8792
L34649 8755
L34593 8736
L34555 8736
L34499 8755
L34480 8773
" />
<path d="M34349 8736
L34105 8736
L34237 8886
L34180 8886
L34143 8905
L34124 8923
L34105 8961
L34105 9055
L34124 9092
L34143 9111
L34180 9130
L34293 9130
L34330 9111
L34349 9092
" />
<path d="M33768 8867
L33768 9130
" />
<path d="M33862 8717
L33955 8998
L33712 8998
" />
<path d="M39196 9509
L39196 9753
L39346 9622
L39346 9678
L39365 9716
L39383 9734
L39421 9753
L39515 9753
L39552 9734
L39571 9716
L39590 9678
L39590 9566
L39571 9528
L39552 9509
" />
<path d="M39196 9884
L39196 10128
L39346 9997
L39346 10053
L39365 10091
L39383 10109
L39421 10128
L39515 10128
L39552 10109
L39571 10091
L39590 10053
L39590 9941
L39571 9903
L39552 9884
" />
<path d="M39196 10372
L39196 10409
L39215 10447
L39233 10466
L39271 10484
L39346 10503
L39440 10503
L39515 10484
L39552 10466
L39571 10447
L39590 10409
L39590 10372
L39571 10334
L39552 10316
L39515 10297
L39440 10278
L39346 10278
L39271 10297
L39233 10316
L39215 10334
L39196 10372
" />
<path d="M39327 10672
L39590 10672
" />
<path d="M39365 10672
L39346 10691
L39327 10728
L39327 10784
L39346 10822
L39383 10841
L39590 10841
" />
<path d="M39383 11159
L39383 11028
" />
<path d="M39590 11028
L39196 11028
L39196 11216
" />
<path d="M37682 10109
L37701 10091
L37720 10034
L37720 9997
L37701 9941
L37663 9903
L37626 9884
L37551 9866
L37495 9866
L37420 9884
L37382 9903
L37345 9941
L37326 9997
L37326 10034
L37345 10091
L37363 10109
" />
<path d="M37457 10447
L37720 10447
" />
<path d="M37307 10353
L37588 10259
L37588 10503
" />
<path d="M37720 10859
L37720 10634
" />
<path d="M37720 10747
L37326 10747
L37382 10709
L37420 10672
L37438 10634
" />
<path d="M12649 15753
L12874 15753
" />
<path d="M12762 15753
L12762 15359
L12799 15416
L12837 15453
L12874 15472
" />
<path d="M12312 15491
L12312 15753
" />
<path d="M12480 15491
L12480 15697
L12462 15734
L12424 15753
L12368 15753
L12330 15734
L12312 15716
" />
<path d="M11993 15547
L12124 15547
" />
<path d="M12124 15753
L12124 15359
L11937 15359
" />
<path d="M12668 17192
L12687 17211
L12743 17230
L12780 17230
L12837 17211
L12874 17173
L12893 17136
L12912 17061
L12912 17005
L12893 16930
L12874 16892
L12837 16855
L12780 16836
L12743 16836
L12687 16855
L12668 16873
" />
<path d="M12293 17230
L12518 17230
" />
<path d="M12405 17230
L12405 16836
L12443 16892
L12480 16930
L12518 16948
" />
<path d="M12162 16836
L11918 16836
L12049 16986
L11993 16986
L11955 17005
L11937 17023
L11918 17061
L11918 17155
L11937 17192
L11955 17211
L11993 17230
L12105 17230
L12143 17211
L12162 17192
" />
</g>
<g style="fill:#000000; fill-opacity:0.0; 
stroke:#000000; stroke-width:118.11; stroke-opacity:1; 
stroke-linecap:round; stroke-linejoin:round;">
<path d="M7319 17930
L7319 17536
" />
<path d="M7319 17339
L7347 17367
L7319 17395
L7291 17367
L7319 17339
L7319 17395
" />
<path d="M7038 17536
L7038 17930
" />
<path d="M7038 17592
L7010 17564
L6954 17536
L6869 17536
L6813 17564
L6785 17620
L6785 17930
" />
<path d="M6054 17873
L6026 17902
L6054 17930
L6082 17902
L6054 17873
L6054 17930
" />
<path d="M6054 17564
L6026 17592
L6054 17620
L6082 17592
L6054 17564
L6054 17620
" />
<path d="M5295 17930
L5182 17930
L5126 17902
L5098 17873
L5042 17789
L5013 17677
L5013 17452
L5042 17395
L5070 17367
L5126 17339
L5238 17339
L5295 17367
L5323 17395
L5351 17452
L5351 17592
L5323 17648
L5295 17677
L5238 17705
L5126 17705
L5070 17677
L5042 17648
L5013 17592
" />
<path d="M4845 17339
L4648 17930
L4451 17339
" />
<path d="M43411 8330
L43468 8302
L43496 8273
L43524 8217
L43524 8048
L43496 7992
L43468 7964
L43411 7936
L43327 7936
L43271 7964
L43243 7992
L43215 8048
L43215 8217
L43243 8273
L43271 8302
L43327 8330
L43411 8330
" />
<path d="M42708 7936
L42708 8330
" />
<path d="M42962 7936
L42962 8245
L42933 8302
L42877 8330
L42793 8330
L42737 8302
L42708 8273
" />
<path d="M42512 7936
L42287 7936
" />
<path d="M42427 7739
L42427 8245
L42399 8302
L42343 8330
L42287 8330
" />
<path d="M41640 8273
L41612 8302
L41640 8330
L41668 8302
L41640 8273
L41640 8330
" />
<path d="M41640 7964
L41612 7992
L41640 8020
L41668 7992
L41640 7964
L41640 8020
" />
<path d="M40599 8330
L40937 8330
" />
<path d="M40768 8330
L40768 7739
L40824 7823
L40881 7880
L40937 7908
" />
<path d="M40374 7795
L40346 7767
L40290 7739
L40149 7739
L40093 7767
L40065 7795
L40037 7852
L40037 7908
L40065 7992
L40402 8330
L40037 8330
" />
<path d="M39868 7739
L39671 8330
L39474 7739
" />
<path d="M14385 22161
L14104 22161
" />
<path d="M14441 22330
L14244 21739
L14047 22330
" />
<path d="M13513 22330
L13710 22048
" />
<path d="M13851 22330
L13851 21739
L13626 21739
L13569 21767
L13541 21795
L13513 21852
L13513 21936
L13541 21992
L13569 22020
L13626 22048
L13851 22048
" />
<path d="M12923 22330
L13119 22048
" />
<path d="M13260 22330
L13260 21739
L13035 21739
L12979 21767
L12951 21795
L12923 21852
L12923 21936
L12951 21992
L12979 22020
L13035 22048
L13260 22048
" />
<path d="M12670 22020
L12473 22020
" />
<path d="M12388 22330
L12670 22330
L12670 21739
L12388 21739
" />
<path d="M12220 21739
L11882 21739
" />
<path d="M12051 22330
L12051 21739
" />
<path d="M11826 22386
L11376 22386
" />
<path d="M11235 21739
L11235 22217
L11207 22273
L11179 22302
L11123 22330
L11010 22330
L10954 22302
L10926 22273
L10898 22217
L10898 21739
" />
<path d="M33719 17930
L33719 17536
" />
<path d="M33719 17339
L33747 17367
L33719 17395
L33691 17367
L33719 17339
L33719 17395
" />
<path d="M33438 17536
L33438 17930
" />
<path d="M33438 17592
L33410 17564
L33354 17536
L33269 17536
L33213 17564
L33185 17620
L33185 17930
" />
<path d="M32454 17873
L32426 17902
L32454 17930
L32482 17902
L32454 17873
L32454 17930
" />
<path d="M32454 17564
L32426 17592
L32454 17620
L32482 17592
L32454 17564
L32454 17620
" />
<path d="M31695 17930
L31582 17930
L31526 17902
L31498 17873
L31442 17789
L31413 17677
L31413 17452
L31442 17395
L31470 17367
L31526 17339
L31638 17339
L31695 17367
L31723 17395
L31751 17452
L31751 17592
L31723 17648
L31695 17677
L31638 17705
L31526 17705
L31470 17677
L31442 17648
L31413 17592
" />
<path d="M31245 17339
L31048 17930
L30851 17339
" />
<path d="M38519 17930
L38519 17536
" />
<path d="M38519 17339
L38547 17367
L38519 17395
L38491 17367
L38519 17339
L38519 17395
" />
<path d="M38238 17536
L38238 17930
" />
<path d="M38238 17592
L38210 17564
L38154 17536
L38069 17536
L38013 17564
L37985 17620
L37985 17930
" />
<path d="M37254 17873
L37226 17902
L37254 17930
L37282 17902
L37254 17873
L37254 17930
" />
<path d="M37254 17564
L37226 17592
L37254 17620
L37282 17592
L37254 17564
L37254 17620
" />
<path d="M36495 17930
L36382 17930
L36326 17902
L36298 17873
L36242 17789
L36213 17677
L36213 17452
L36242 17395
L36270 17367
L36326 17339
L36438 17339
L36495 17367
L36523 17395
L36551 17452
L36551 17592
L36523 17648
L36495 17677
L36438 17705
L36326 17705
L36270 17677
L36242 17648
L36213 17592
" />
<path d="M36045 17339
L35848 17930
L35651 17339
" />
<path d="M36811 8330
L36868 8302
L36896 8273
L36924 8217
L36924 8048
L36896 7992
L36868 7964
L36811 7936
L36727 7936
L36671 7964
L36643 7992
L36615 8048
L36615 8217
L36643 8273
L36671 8302
L36727 8330
L36811 8330
" />
<path d="M36108 7936
L36108 8330
" />
<path d="M36362 7936
L36362 8245
L36333 8302
L36277 8330
L36193 8330
L36137 8302
L36108 8273
" />
<path d="M35912 7936
L35687 7936
" />
<path d="M35827 7739
L35827 8245
L35799 8302
L35743 8330
L35687 8330
" />
<path d="M35040 8273
L35012 8302
L35040 8330
L35068 8302
L35040 8273
L35040 8330
" />
<path d="M35040 7964
L35012 7992
L35040 8020
L35068 7992
L35040 7964
L35040 8020
" />
<path d="M33999 8330
L34337 8330
" />
<path d="M34168 8330
L34168 7739
L34224 7823
L34281 7880
L34337 7908
" />
<path d="M33662 7992
L33718 7964
L33746 7936
L33774 7880
L33774 7852
L33746 7795
L33718 7767
L33662 7739
L33549 7739
L33493 7767
L33465 7795
L33437 7852
L33437 7880
L33465 7936
L33493 7964
L33549 7992
L33662 7992
L33718 8020
L33746 8048
L33774 8105
L33774 8217
L33746 8273
L33718 8302
L33662 8330
L33549 8330
L33493 8302
L33465 8273
L33437 8217
L33437 8105
L33465 8048
L33493 8020
L33549 7992
" />
<path d="M33268 7739
L33071 8330
L32874 7739
" />
<path d="M31411 8330
L31468 8302
L31496 8273
L31524 8217
L31524 8048
L31496 7992
L31468 7964
L31411 7936
L31327 7936
L31271 7964
L31243 7992
L31215 8048
L31215 8217
L31243 8273
L31271 8302
L31327 8330
L31411 8330
" />
<path d="M30708 7936
L30708 8330
" />
<path d="M30962 7936
L30962 8245
L30933 8302
L30877 8330
L30793 8330
L30737 8302
L30708 8273
" />
<path d="M30512 7936
L30287 7936
" />
<path d="M30427 7739
L30427 8245
L30399 8302
L30343 8330
L30287 8330
" />
<path d="M29640 8273
L29612 8302
L29640 8330
L29668 8302
L29640 8273
L29640 8330
" />
<path d="M29640 7964
L29612 7992
L29640 8020
L29668 7992
L29640 7964
L29640 8020
" />
<path d="M28599 8330
L28937 8330
" />
<path d="M28768 8330
L28768 7739
L28824 7823
L28881 7880
L28937 7908
" />
<path d="M28262 7992
L28318 7964
L28346 7936
L28374 7880
L28374 7852
L28346 7795
L28318 7767
L28262 7739
L28149 7739
L28093 7767
L28065 7795
L28037 7852
L28037 7880
L28065 7936
L28093 7964
L28149 7992
L28262 7992
L28318 8020
L28346 8048
L28374 8105
L28374 8217
L28346 8273
L28318 8302
L28262 8330
L28149 8330
L28093 8302
L28065 8273
L28037 8217
L28037 8105
L28065 8048
L28093 8020
L28149 7992
" />
<path d="M27868 7739
L27671 8330
L27474 7739
" />
<path d="M9130 8330
L9187 8302
L9215 8273
L9243 8217
L9243 8048
L9215 7992
L9187 7964
L9130 7936
L9046 7936
L8990 7964
L8962 7992
L8933 8048
L8933 8217
L8962 8273
L8990 8302
L9046 8330
L9130 8330
" />
<path d="M8427 7936
L8427 8330
" />
<path d="M8680 7936
L8680 8245
L8652 8302
L8596 8330
L8512 8330
L8455 8302
L8427 8273
" />
<path d="M8230 7936
L8005 7936
" />
<path d="M8146 7739
L8146 8245
L8118 8302
L8062 8330
L8005 8330
" />
<path d="M7359 8273
L7330 8302
L7359 8330
L7387 8302
L7359 8273
L7359 8330
" />
<path d="M7359 7964
L7330 7992
L7359 8020
L7387 7992
L7359 7964
L7359 8020
" />
<path d="M6346 7739
L6627 7739
L6656 8020
L6627 7992
L6571 7964
L6431 7964
L6374 7992
L6346 8020
L6318 8077
L6318 8217
L6346 8273
L6374 8302
L6431 8330
L6571 8330
L6627 8302
L6656 8273
" />
<path d="M6149 7739
L5953 8330
L5756 7739
" />
<path d="M7530 8130
L7587 8102
L7615 8073
L7643 8017
L7643 7848
L7615 7792
L7587 7764
L7530 7736
L7446 7736
L7390 7764
L7362 7792
L7333 7848
L7333 8017
L7362 8073
L7390 8102
L7446 8130
L7530 8130
" />
<path d="M6827 7736
L6827 8130
" />
<path d="M7080 7736
L7080 8045
L7052 8102
L6996 8130
L6912 8130
L6855 8102
L6827 8073
" />
<path d="M6630 7736
L6405 7736
" />
<path d="M6546 7539
L6546 8045
L6518 8102
L6462 8130
L6405 8130
" />
<path d="M5759 8073
L5730 8102
L5759 8130
L5787 8102
L5759 8073
L5759 8130
" />
<path d="M5759 7764
L5730 7792
L5759 7820
L5787 7792
L5759 7764
L5759 7820
" />
<path d="M4999 8130
L4887 8130
L4831 8102
L4802 8073
L4746 7989
L4718 7877
L4718 7652
L4746 7595
L4774 7567
L4831 7539
L4943 7539
L4999 7567
L5027 7595
L5056 7652
L5056 7792
L5027 7848
L4999 7877
L4943 7905
L4831 7905
L4774 7877
L4746 7848
L4718 7792
" />
<path d="M4549 7539
L4353 8130
L4156 7539
" />
</g>
<g style="fill:#000000; fill-opacity:0.0; 
stroke:#000000; stroke-width:47.2441; stroke-opacity:1; 
stroke-linecap:round; stroke-linejoin:round;">
<path d="M40993 12259
L40993 11866
" />
<path d="M41662 11866
L41662 12259
" />
<path d="M15826 5856
L15826 5069
" />
<path d="M16629 5069
L16629 5856
" />
<path d="M6221 9164
L5434 9164
" />
<path d="M5434 8361
L6221 8361
" />
<path d="M39621 17264
L38834 17264
" />
<path d="M38834 16461
L39621 16461
" />
<path d="M35329 17569
L35329 18356
" />
<path d="M34526 18356
L34526 17569
" />
<path d="M27134 7861
L27921 7861
" />
<path d="M27921 8664
L27134 8664
" />
<path d="M34621 8664
L33834 8664
" />
<path d="M33834 7861
L34621 7861
" />
<path d="M37845 10756
L37845 9969
" />
<path d="M39010 9969
L39010 10756
" />
<path d="M12808 16764
L12021 16764
" />
<path d="M12021 15961
L12808 15961
" />
</g>
<g style="fill:#000000; fill-opacity:0.0; 
stroke:#000000; stroke-width:59.0551; stroke-opacity:1; 
stroke-linecap:round; stroke-linejoin:round;">
<path d="M40779 11809
L40798 11791
L40816 11734
L40816 11697
L40798 11641
L40760 11603
L40723 11584
L40648 11566
L40591 11566
L40517 11584
L40479 11603
L40442 11641
L40423 11697
L40423 11734
L40442 11791
L40460 11809
" />
<path d="M40554 12147
L40816 12147
" />
<path d="M40404 12053
L40685 11959
L40685 12203
" />
<path d="M40460 12334
L40442 12353
L40423 12391
L40423 12484
L40442 12522
L40460 12541
L40498 12559
L40535 12559
L40591 12541
L40816 12316
L40816 12559
" />
<path d="M15679 5209
L15698 5191
L15716 5134
L15716 5097
L15698 5041
L15660 5003
L15623 4984
L15548 4966
L15491 4966
L15417 4984
L15379 5003
L15342 5041
L15323 5097
L15323 5134
L15342 5191
L15360 5209
" />
<path d="M15360 5359
L15342 5378
L15323 5416
L15323 5509
L15342 5547
L15360 5566
L15398 5584
L15435 5584
L15491 5566
L15716 5341
L15716 5584
" />
<path d="M15454 5922
L15716 5922
" />
<path d="M15304 5828
L15585 5734
L15585 5978
" />
<path d="M6080 9592
L6099 9611
L6155 9630
L6193 9630
L6249 9611
L6287 9573
L6305 9536
L6324 9461
L6324 9405
L6305 9330
L6287 9292
L6249 9255
L6193 9236
L6155 9236
L6099 9255
L6080 9273
" />
<path d="M5705 9630
L5930 9630
" />
<path d="M5818 9630
L5818 9236
L5855 9292
L5893 9330
L5930 9348
" />
<path d="M5368 9367
L5368 9630
" />
<path d="M5462 9217
L5555 9498
L5312 9498
" />
<path d="M39480 17692
L39499 17711
L39555 17730
L39593 17730
L39649 17711
L39687 17673
L39705 17636
L39724 17561
L39724 17505
L39705 17430
L39687 17392
L39649 17355
L39593 17336
L39555 17336
L39499 17355
L39480 17373
" />
<path d="M39349 17336
L39105 17336
L39237 17486
L39180 17486
L39143 17505
L39124 17523
L39105 17561
L39105 17655
L39124 17692
L39143 17711
L39180 17730
L39293 17730
L39330 17711
L39349 17692
" />
<path d="M38731 17730
L38955 17730
" />
<path d="M38843 17730
L38843 17336
L38881 17392
L38918 17430
L38955 17448
" />
<path d="M35757 17709
L35776 17691
L35794 17634
L35794 17597
L35776 17541
L35738 17503
L35701 17484
L35626 17466
L35569 17466
L35494 17484
L35457 17503
L35419 17541
L35401 17597
L35401 17634
L35419 17691
L35438 17709
" />
<path d="M35401 17841
L35401 18084
L35551 17953
L35551 18009
L35569 18047
L35588 18066
L35626 18084
L35719 18084
L35757 18066
L35776 18047
L35794 18009
L35794 17897
L35776 17859
L35757 17841
" />
<path d="M35438 18234
L35419 18253
L35401 18291
L35401 18384
L35419 18422
L35438 18441
L35476 18459
L35513 18459
L35569 18441
L35794 18216
L35794 18459
" />
<path d="M27780 7714
L27799 7733
L27855 7752
L27893 7752
L27949 7733
L27987 7695
L28005 7658
L28024 7583
L28024 7527
L28005 7452
L27987 7414
L27949 7377
L27893 7358
L27855 7358
L27799 7377
L27780 7395
" />
<path d="M27649 7358
L27405 7358
L27537 7508
L27480 7508
L27443 7527
L27424 7545
L27405 7583
L27405 7677
L27424 7714
L27443 7733
L27480 7752
L27593 7752
L27630 7733
L27649 7714
" />
<path d="M27274 7358
L27031 7358
L27162 7508
L27106 7508
L27068 7527
L27049 7545
L27031 7583
L27031 7677
L27049 7714
L27068 7733
L27106 7752
L27218 7752
L27255 7733
L27274 7714
" />
<path d="M34480 9092
L34499 9111
L34555 9130
L34593 9130
L34649 9111
L34687 9073
L34705 9036
L34724 8961
L34724 8905
L34705 8830
L34687 8792
L34649 8755
L34593 8736
L34555 8736
L34499 8755
L34480 8773
" />
<path d="M34349 8736
L34105 8736
L34237 8886
L34180 8886
L34143 8905
L34124 8923
L34105 8961
L34105 9055
L34124 9092
L34143 9111
L34180 9130
L34293 9130
L34330 9111
L34349 9092
" />
<path d="M33768 8867
L33768 9130
" />
<path d="M33862 8717
L33955 8998
L33712 8998
" />
<path d="M37682 10109
L37701 10091
L37720 10034
L37720 9997
L37701 9941
L37663 9903
L37626 9884
L37551 9866
L37495 9866
L37420 9884
L37382 9903
L37345 9941
L37326 9997
L37326 10034
L37345 10091
L37363 10109
" />
<path d="M37457 10447
L37720 10447
" />
<path d="M37307 10353
L37588 10259
L37588 10503
" />
<path d="M37720 10859
L37720 10634
" />
<path d="M37720 10747
L37326 10747
L37382 10709
L37420 10672
L37438 10634
" />
<path d="M12668 17192
L12687 17211
L12743 17230
L12780 17230
L12837 17211
L12874 17173
L12893 17136
L12912 17061
L12912 17005
L12893 16930
L12874 16892
L12837 16855
L12780 16836
L12743 16836
L12687 16855
L12668 16873
" />
<path d="M12293 17230
L12518 17230
" />
<path d="M12405 17230
L12405 16836
L12443 16892
L12480 16930
L12518 16948
" />
<path d="M12162 16836
L11918 16836
L12049 16986
L11993 16986
L11955 17005
L11937 17023
L11918 17061
L11918 17155
L11937 17192
L11955 17211
L11993 17230
L12105 17230
L12143 17211
L12162 17192
" />
</g>
<g style="fill:#000000; fill-opacity:0.0; 
stroke:#000000; stroke-width:47.2441; stroke-opacity:1; 
stroke-linecap:round; stroke-linejoin:round;">
<circle cx="45427.8" cy="21663" r="900" /> 
<circle cx="45427.8" cy="4062.99" r="900" /> 
<circle cx="2327.84" cy="21663" r="900" /> 
<path d="M21742 7865
L23482 7865
" />
<path d="M21742 8660
L23482 8660
" />
<path d="M21742 7865
L21742 7870
" />
<path d="M21742 8655
L21742 8660
" />
<path d="M23482 7865
L23482 7870
" />
<path d="M23482 8655
L23482 8660
" />
<path d="M13392.1 10643.2 A1275.59 1275.59 0.0 0 0 13392.4 8267.13 " />
<path d="M12463.3 8267.13 A1275.59 1275.59 0.0 0 0 12463.6 10643.2 " />
<path d="M12463.6 10643.2 A1275.59 1275.59 0.0 0 0 13392.4 10643.1 " />
<path d="M14187 9455
L11667 9455
" />
<path d="M14187 9470
L11667 9470
" />
<path d="M14187 9486
L11667 9486
" />
<path d="M14186 9502
L11668 9502
" />
<path d="M14186 9518
L11669 9518
" />
<path d="M14185 9533
L11670 9533
" />
<path d="M14184 9549
L11671 9549
" />
<path d="M14182 9565
L13313 9565
" />
<path d="M12542 9565
L11672 9565
" />
<path d="M14181 9581
L13313 9581
" />
<path d="M12542 9581
L11673 9581
" />
<path d="M14179 9596
L13313 9596
" />
<path d="M12542 9596
L11675 9596
" />
<path d="M14178 9612
L13313 9612
" />
<path d="M12542 9612
L11677 9612
" />
<path d="M14175 9628
L13313 9628
" />
<path d="M12542 9628
L11679 9628
" />
<path d="M14173 9644
L13313 9644
" />
<path d="M12542 9644
L11681 9644
" />
<path d="M14171 9659
L13313 9659
" />
<path d="M12542 9659
L11684 9659
" />
<path d="M14168 9675
L13313 9675
" />
<path d="M12542 9675
L11686 9675
" />
<path d="M14165 9691
L13313 9691
" />
<path d="M12542 9691
L11690 9691
" />
<path d="M14162 9707
L13313 9707
" />
<path d="M12542 9707
L11692 9707
" />
<path d="M14159 9722
L13313 9722
" />
<path d="M12542 9722
L11696 9722
" />
<path d="M14155 9738
L13313 9738
" />
<path d="M12542 9738
L11699 9738
" />
<path d="M14152 9754
L13313 9754
" />
<path d="M12542 9754
L11703 9754
" />
<path d="M14148 9770
L13313 9770
" />
<path d="M12542 9770
L11707 9770
" />
<path d="M14144 9786
L13313 9786
" />
<path d="M12542 9786
L11711 9786
" />
<path d="M14140 9801
L13313 9801
" />
<path d="M12542 9801
L11715 9801
" />
<path d="M14135 9817
L13313 9817
" />
<path d="M12542 9817
L11720 9817
" />
<path d="M14130 9833
L13313 9833
" />
<path d="M12542 9833
L11725 9833
" />
<path d="M14125 9849
L13313 9849
" />
<path d="M12542 9849
L11730 9849
" />
<path d="M14120 9864
L13313 9864
" />
<path d="M12542 9864
L11735 9864
" />
<path d="M14114 9880
L13313 9880
" />
<path d="M12542 9880
L11740 9880
" />
<path d="M14109 9896
L13313 9896
" />
<path d="M12542 9896
L11746 9896
" />
<path d="M14103 9912
L13313 9912
" />
<path d="M12542 9912
L11752 9912
" />
<path d="M14097 9927
L13313 9927
" />
<path d="M12542 9927
L11758 9927
" />
<path d="M14090 9943
L13313 9943
" />
<path d="M12542 9943
L11764 9943
" />
<path d="M14084 9959
L13313 9959
" />
<path d="M12542 9959
L11771 9959
" />
<path d="M14077 9975
L13313 9975
" />
<path d="M12542 9975
L11778 9975
" />
<path d="M14069 9990
L13313 9990
" />
<path d="M12542 9990
L11785 9990
" />
<path d="M14062 10006
L13313 10006
" />
<path d="M12542 10006
L11793 10006
" />
<path d="M14055 10022
L13313 10022
" />
<path d="M12542 10022
L11800 10022
" />
<path d="M14047 10038
L13313 10038
" />
<path d="M12542 10038
L11808 10038
" />
<path d="M14038 10053
L13313 10053
" />
<path d="M12542 10053
L11816 10053
" />
<path d="M14030 10069
L13313 10069
" />
<path d="M12542 10069
L11825 10069
" />
<path d="M14021 10085
L13313 10085
" />
<path d="M12542 10085
L11834 10085
" />
<path d="M14012 10101
L13313 10101
" />
<path d="M12542 10101
L11843 10101
" />
<path d="M14003 10116
L13313 10116
" />
<path d="M12542 10116
L11852 10116
" />
<path d="M13993 10132
L13313 10132
" />
<path d="M12542 10132
L11862 10132
" />
<path d="M13983 10148
L13313 10148
" />
<path d="M12542 10148
L11872 10148
" />
<path d="M13972 10164
L13313 10164
" />
<path d="M12542 10164
L11882 10164
" />
<path d="M13962 10179
L13313 10179
" />
<path d="M12542 10179
L11893 10179
" />
<path d="M13951 10195
L13313 10195
" />
<path d="M12542 10195
L11904 10195
" />
<path d="M13939 10211
L13313 10211
" />
<path d="M12542 10211
L11916 10211
" />
<path d="M13927 10227
L13313 10227
" />
<path d="M12542 10227
L11927 10227
" />
<path d="M13916 10242
L13313 10242
" />
<path d="M12542 10242
L11939 10242
" />
<path d="M13903 10258
L13313 10258
" />
<path d="M12542 10258
L11952 10258
" />
<path d="M13890 10274
L13313 10274
" />
<path d="M12542 10274
L11965 10274
" />
<path d="M13877 10290
L13313 10290
" />
<path d="M12542 10290
L11978 10290
" />
<path d="M13862 10305
L13313 10305
" />
<path d="M12542 10305
L11992 10305
" />
<path d="M13848 10321
L13313 10321
" />
<path d="M12542 10321
L12006 10321
" />
<path d="M13833 10337
L12021 10337
" />
<path d="M13818 10353
L12037 10353
" />
<path d="M13802 10368
L12053 10368
" />
<path d="M13786 10384
L12069 10384
" />
<path d="M13769 10400
L12086 10400
" />
<path d="M13751 10416
L12104 10416
" />
<path d="M13732 10431
L12122 10431
" />
<path d="M13714 10447
L12141 10447
" />
<path d="M13693 10463
L12161 10463
" />
<path d="M13673 10479
L12182 10479
" />
<path d="M13651 10494
L12203 10494
" />
<path d="M13629 10510
L12226 10510
" />
<path d="M13605 10526
L12250 10526
" />
<path d="M13580 10542
L12275 10542
" />
<path d="M13554 10557
L12301 10557
" />
<path d="M13526 10573
L12329 10573
" />
<path d="M13496 10589
L12358 10589
" />
<path d="M13464 10605
L12390 10605
" />
<path d="M13430 10620
L12424 10620
" />
<path d="M13393 10636
L12461 10636
" />
<path d="M13353 10652
L12502 10652
" />
<path d="M13308 10668
L12547 10668
" />
<path d="M13256 10683
L12599 10683
" />
<path d="M13193 10699
L12661 10699
" />
<path d="M13112 10715
L12743 10715
" />
<path d="M12927 8096
L12927 8569
" />
<path d="M13183 8333
L12671 8333
" />
<path d="M10492.1 10643.2 A1275.59 1275.59 0.0 0 0 10492.4 8267.13 " />
<path d="M9563.27 8267.13 A1275.59 1275.59 0.0 0 0 9563.61 10643.2 " />
<path d="M9563.61 10643.2 A1275.59 1275.59 0.0 0 0 10492.4 10643.1 " />
<path d="M11287 9455
L8767 9455
" />
<path d="M11287 9470
L8767 9470
" />
<path d="M11287 9486
L8767 9486
" />
<path d="M11286 9502
L8768 9502
" />
<path d="M11286 9518
L8769 9518
" />
<path d="M11285 9533
L8770 9533
" />
<path d="M11284 9549
L8771 9549
" />
<path d="M11282 9565
L10413 9565
" />
<path d="M9642 9565
L8772 9565
" />
<path d="M11281 9581
L10413 9581
" />
<path d="M9642 9581
L8773 9581
" />
<path d="M11279 9596
L10413 9596
" />
<path d="M9642 9596
L8775 9596
" />
<path d="M11278 9612
L10413 9612
" />
<path d="M9642 9612
L8777 9612
" />
<path d="M11275 9628
L10413 9628
" />
<path d="M9642 9628
L8779 9628
" />
<path d="M11273 9644
L10413 9644
" />
<path d="M9642 9644
L8781 9644
" />
<path d="M11271 9659
L10413 9659
" />
<path d="M9642 9659
L8784 9659
" />
<path d="M11268 9675
L10413 9675
" />
<path d="M9642 9675
L8786 9675
" />
<path d="M11265 9691
L10413 9691
" />
<path d="M9642 9691
L8790 9691
" />
<path d="M11262 9707
L10413 9707
" />
<path d="M9642 9707
L8792 9707
" />
<path d="M11259 9722
L10413 9722
" />
<path d="M9642 9722
L8796 9722
" />
<path d="M11255 9738
L10413 9738
" />
<path d="M9642 9738
L8799 9738
" />
<path d="M11252 9754
L10413 9754
" />
<path d="M9642 9754
L8803 9754
" />
<path d="M11248 9770
L10413 9770
" />
<path d="M9642 9770
L8807 9770
" />
<path d="M11244 9786
L10413 9786
" />
<path d="M9642 9786
L8811 9786
" />
<path d="M11240 9801
L10413 9801
" />
<path d="M9642 9801
L8815 9801
" />
<path d="M11235 9817
L10413 9817
" />
<path d="M9642 9817
L8820 9817
" />
<path d="M11230 9833
L10413 9833
" />
<path d="M9642 9833
L8825 9833
" />
<path d="M11225 9849
L10413 9849
" />
<path d="M9642 9849
L8830 9849
" />
<path d="M11220 9864
L10413 9864
" />
<path d="M9642 9864
L8835 9864
" />
<path d="M11214 9880
L10413 9880
" />
<path d="M9642 9880
L8840 9880
" />
<path d="M11209 9896
L10413 9896
" />
<path d="M9642 9896
L8846 9896
" />
<path d="M11203 9912
L10413 9912
" />
<path d="M9642 9912
L8852 9912
" />
<path d="M11197 9927
L10413 9927
" />
<path d="M9642 9927
L8858 9927
" />
<path d="M11190 9943
L10413 9943
" />
<path d="M9642 9943
L8864 9943
" />
<path d="M11184 9959
L10413 9959
" />
<path d="M9642 9959
L8871 9959
" />
<path d="M11177 9975
L10413 9975
" />
<path d="M9642 9975
L8878 9975
" />
<path d="M11169 9990
L10413 9990
" />
<path d="M9642 9990
L8885 9990
" />
<path d="M11162 10006
L10413 10006
" />
<path d="M9642 10006
L8893 10006
" />
<path d="M11155 10022
L10413 10022
" />
<path d="M9642 10022
L8900 10022
" />
<path d="M11147 10038
L10413 10038
" />
<path d="M9642 10038
L8908 10038
" />
<path d="M11138 10053
L10413 10053
" />
<path d="M9642 10053
L8916 10053
" />
<path d="M11130 10069
L10413 10069
" />
<path d="M9642 10069
L8925 10069
" />
<path d="M11121 10085
L10413 10085
" />
<path d="M9642 10085
L8934 10085
" />
<path d="M11112 10101
L10413 10101
" />
<path d="M9642 10101
L8943 10101
" />
<path d="M11103 10116
L10413 10116
" />
<path d="M9642 10116
L8952 10116
" />
<path d="M11093 10132
L10413 10132
" />
<path d="M9642 10132
L8962 10132
" />
<path d="M11083 10148
L10413 10148
" />
<path d="M9642 10148
L8972 10148
" />
<path d="M11072 10164
L10413 10164
" />
<path d="M9642 10164
L8982 10164
" />
<path d="M11062 10179
L10413 10179
" />
<path d="M9642 10179
L8993 10179
" />
<path d="M11051 10195
L10413 10195
" />
<path d="M9642 10195
L9004 10195
" />
<path d="M11039 10211
L10413 10211
" />
<path d="M9642 10211
L9016 10211
" />
<path d="M11027 10227
L10413 10227
" />
<path d="M9642 10227
L9027 10227
" />
<path d="M11016 10242
L10413 10242
" />
<path d="M9642 10242
L9039 10242
" />
<path d="M11003 10258
L10413 10258
" />
<path d="M9642 10258
L9052 10258
" />
<path d="M10990 10274
L10413 10274
" />
<path d="M9642 10274
L9065 10274
" />
<path d="M10977 10290
L10413 10290
" />
<path d="M9642 10290
L9078 10290
" />
<path d="M10962 10305
L10413 10305
" />
<path d="M9642 10305
L9092 10305
" />
<path d="M10948 10321
L10413 10321
" />
<path d="M9642 10321
L9106 10321
" />
<path d="M10933 10337
L9121 10337
" />
<path d="M10918 10353
L9137 10353
" />
<path d="M10902 10368
L9153 10368
" />
<path d="M10886 10384
L9169 10384
" />
<path d="M10869 10400
L9186 10400
" />
<path d="M10851 10416
L9204 10416
" />
<path d="M10832 10431
L9222 10431
" />
<path d="M10814 10447
L9241 10447
" />
<path d="M10793 10463
L9261 10463
" />
<path d="M10773 10479
L9282 10479
" />
<path d="M10751 10494
L9303 10494
" />
<path d="M10729 10510
L9326 10510
" />
<path d="M10705 10526
L9350 10526
" />
<path d="M10680 10542
L9375 10542
" />
<path d="M10654 10557
L9401 10557
" />
<path d="M10626 10573
L9429 10573
" />
<path d="M10596 10589
L9458 10589
" />
<path d="M10564 10605
L9490 10605
" />
<path d="M10530 10620
L9524 10620
" />
<path d="M10493 10636
L9561 10636
" />
<path d="M10453 10652
L9602 10652
" />
<path d="M10408 10668
L9647 10668
" />
<path d="M10356 10683
L9699 10683
" />
<path d="M10293 10699
L9761 10699
" />
<path d="M10212 10715
L9843 10715
" />
<path d="M10027 8096
L10027 8569
" />
<path d="M10283 8333
L9771 8333
" />
<path d="M20331 10015
L20382 10015
" />
<path d="M20382 10015
L20382 12110
" />
<path d="M20382 12110
L20331 12110
" />
<path d="M19323 10015
L19272 10015
" />
<path d="M19272 10015
L19272 12110
" />
<path d="M19272 12110
L19323 12110
" />
<path d="M20382 10346
L19272 10346
" />
<path d="M10575 13862
L8016 13862
" />
<path d="M10575 12485
L10575 15240
" />
<path d="M14020 15240
L10575 15240
" />
<path d="M14020 12485
L10575 12485
" />
<path d="M5064 14847
L4571 14847
" />
<path d="M5162 12878
L4571 12878
" />
<path d="M9886 14847
L5064 14847
" />
<path d="M9788 12878
L5162 12878
" />
<path d="M14020 14847
L9886 14847
" />
<path d="M14020 12878
L9788 12878
" />
<path d="M14020 12878
L14020 14847
" />
<path d="M14414 12485
L14020 12485
" />
<path d="M14414 12485
L14414 15240
" />
<path d="M14414 15240
L14020 15240
" />
<path d="M4571 12878
L4571 14847
" />
<path d="M8016 12485
L4178 12485
" />
<path d="M4178 12485
L4178 15240
" />
<path d="M8016 15240
L4178 15240
" />
<path d="M8016 12485
L8016 15240
" />
<path d="M32575 13862
L30016 13862
" />
<path d="M32575 12485
L32575 15240
" />
<path d="M36020 15240
L32575 15240
" />
<path d="M36020 12485
L32575 12485
" />
<path d="M27064 14847
L26571 14847
" />
<path d="M27162 12878
L26571 12878
" />
<path d="M31886 14847
L27064 14847
" />
<path d="M31788 12878
L27162 12878
" />
<path d="M36020 14847
L31886 14847
" />
<path d="M36020 12878
L31788 12878
" />
<path d="M36020 12878
L36020 14847
" />
<path d="M36414 12485
L36020 12485
" />
<path d="M36414 12485
L36414 15240
" />
<path d="M36414 15240
L36020 15240
" />
<path d="M26571 12878
L26571 14847
" />
<path d="M30016 12485
L26178 12485
" />
<path d="M26178 12485
L26178 15240
" />
<path d="M30016 15240
L26178 15240
" />
<path d="M30016 12485
L30016 15240
" />
<path d="M21612 2844
L25643 2844
" />
<path d="M21612 4671
L22208 4671
" />
<path d="M23047 4671
L23208 4671
" />
<path d="M24047 4671
L24208 4671
" />
<path d="M25047 4671
L25643 4671
" />
<path d="M21612 2844
L21612 4671
" />
<path d="M25643 2844
L25643 4671
" />
<path d="M21612 3438
L25643 3438
" />
<path d="M22899 2844
L22899 3438
" />
<path d="M24356 2844
L24356 3438
" />
<path d="M22127 4671
L22127 5706
" />
<path d="M23127 4671
L23127 5700
" />
<path d="M24127 4671
L24127 5700
" />
<path d="M25127 4671
L25127 5700
" />
<circle cx="16212.1" cy="8962.99" r="1570.87" /> 
<path d="M44259 8547
L44259 12578
" />
<path d="M42432 8547
L42432 12578
" />
<path d="M44259 8547
L42432 8547
" />
<path d="M44259 12578
L42432 12578
" />
<path d="M43664 8547
L43664 12578
" />
<path d="M44259 9834
L43664 9834
" />
<path d="M44259 11291
L43664 11291
" />
</g>
<g style="fill:#000000; fill-opacity:0.0; 
stroke:#000000; stroke-width:78.7402; stroke-opacity:1; 
stroke-linecap:round; stroke-linejoin:round;">
<path d="M11427 22814
L14459 22814
" />
<path d="M14459 22814
L14459 17893
" />
<path d="M14459 17893
L9872 17893
" />
<path d="M9872 17893
L9872 21062
" />
<path d="M12027 2911
L8996 2911
" />
<path d="M8996 2911
L8996 7832
" />
<path d="M8996 7832
L13582 7832
" />
<path d="M13582 7832
L13582 4662
" />
<path d="M7027 2911
L3996 2911
" />
<path d="M3996 2911
L3996 7832
" />
<path d="M3996 7832
L8582 7832
" />
<path d="M8582 7832
L8582 4662
" />
<path d="M35427 2911
L32396 2911
" />
<path d="M32396 2911
L32396 7832
" />
<path d="M32396 7832
L36982 7832
" />
<path d="M36982 7832
L36982 4662
" />
<path d="M30227 2911
L27196 2911
" />
<path d="M27196 2911
L27196 7832
" />
<path d="M27196 7832
L31782 7832
" />
<path d="M31782 7832
L31782 4662
" />
<path d="M36459 22814
L39490 22814
" />
<path d="M39490 22814
L39490 17893
" />
<path d="M39490 17893
L34904 17893
" />
<path d="M34904 17893
L34904 21062
" />
<path d="M31527 22814
L34559 22814
" />
<path d="M34559 22814
L34559 17893
" />
<path d="M34559 17893
L29972 17893
" />
<path d="M29972 17893
L29972 21062
" />
<path d="M42227 2911
L39196 2911
" />
<path d="M39196 2911
L39196 7832
" />
<path d="M39196 7832
L43782 7832
" />
<path d="M43782 7832
L43782 4662
" />
</g>
<g style="fill:#000000; fill-opacity:0.0; 
stroke:#000000; stroke-width:47.2441; stroke-opacity:1; 
stroke-linecap:round; stroke-linejoin:round;">
<circle cx="2327.84" cy="4062.99" r="900" /> 
</g>
<g style="fill:#000000; fill-opacity:0.0; 
stroke:#000000; stroke-width:59.0551; stroke-opacity:1; 
stroke-linecap:round; stroke-linejoin:round;">
<path d="M44902 20641
L44771 20453
" />
<path d="M44677 20641
L44677 20247
L44827 20247
L44865 20266
L44884 20284
L44902 20322
L44902 20378
L44884 20416
L44865 20434
L44827 20453
L44677 20453
" />
<path d="M45071 20434
L45202 20434
" />
<path d="M45259 20641
L45071 20641
L45071 20247
L45259 20247
" />
<path d="M45559 20434
L45427 20434
" />
<path d="M45427 20641
L45427 20247
L45615 20247
" />
<path d="M45821 20247
L45821 20341
" />
<path d="M45727 20303
L45821 20341
L45915 20303
" />
<path d="M45765 20416
L45821 20341
L45877 20416
" />
<path d="M46121 20247
L46121 20341
" />
<path d="M46027 20303
L46121 20341
L46215 20303
" />
<path d="M46065 20416
L46121 20341
L46177 20416
" />
<path d="M44902 3041
L44771 2853
" />
<path d="M44677 3041
L44677 2647
L44827 2647
L44865 2666
L44884 2684
L44902 2722
L44902 2778
L44884 2816
L44865 2834
L44827 2853
L44677 2853
" />
<path d="M45071 2834
L45202 2834
" />
<path d="M45259 3041
L45071 3041
L45071 2647
L45259 2647
" />
<path d="M45559 2834
L45427 2834
" />
<path d="M45427 3041
L45427 2647
L45615 2647
" />
<path d="M45821 2647
L45821 2741
" />
<path d="M45727 2703
L45821 2741
L45915 2703
" />
<path d="M45765 2816
L45821 2741
L45877 2816
" />
<path d="M46121 2647
L46121 2741
" />
<path d="M46027 2703
L46121 2741
L46215 2703
" />
<path d="M46065 2816
L46121 2741
L46177 2816
" />
<path d="M1802 20641
L1671 20453
" />
<path d="M1577 20641
L1577 20247
L1727 20247
L1765 20266
L1784 20284
L1802 20322
L1802 20378
L1784 20416
L1765 20434
L1727 20453
L1577 20453
" />
<path d="M1971 20434
L2102 20434
" />
<path d="M2159 20641
L1971 20641
L1971 20247
L2159 20247
" />
<path d="M2459 20434
L2327 20434
" />
<path d="M2327 20641
L2327 20247
L2515 20247
" />
<path d="M2721 20247
L2721 20341
" />
<path d="M2627 20303
L2721 20341
L2815 20303
" />
<path d="M2665 20416
L2721 20341
L2777 20416
" />
<path d="M3021 20247
L3021 20341
" />
<path d="M2927 20303
L3021 20341
L3115 20303
" />
<path d="M2965 20416
L3021 20341
L3077 20416
" />
<path d="M22358 7513
L22340 7532
L22284 7551
L22246 7551
L22190 7532
L22152 7495
L22134 7457
L22115 7382
L22115 7326
L22134 7251
L22152 7213
L22190 7176
L22246 7157
L22284 7157
L22340 7176
L22358 7195
" />
<path d="M22508 7195
L22527 7176
L22565 7157
L22658 7157
L22696 7176
L22715 7195
L22733 7232
L22733 7270
L22715 7326
L22490 7551
L22733 7551
" />
<path d="M23108 7551
L22883 7551
" />
<path d="M22996 7551
L22996 7157
L22958 7213
L22921 7251
L22883 7270
" />
<path d="M14824 9708
L14843 9726
L14861 9783
L14861 9820
L14843 9876
L14805 9914
L14768 9933
L14693 9951
L14636 9951
L14561 9933
L14524 9914
L14486 9876
L14468 9820
L14468 9783
L14486 9726
L14505 9708
" />
<path d="M14505 9558
L14486 9539
L14468 9501
L14468 9408
L14486 9370
L14505 9352
L14543 9333
L14580 9333
L14636 9352
L14861 9576
L14861 9333
" />
<path d="M14505 9183
L14486 9164
L14468 9127
L14468 9033
L14486 8995
L14505 8977
L14543 8958
L14580 8958
L14636 8977
L14861 9202
L14861 8958
" />
<path d="M11924 9708
L11943 9726
L11961 9783
L11961 9820
L11943 9876
L11905 9914
L11868 9933
L11793 9951
L11736 9951
L11661 9933
L11624 9914
L11586 9876
L11568 9820
L11568 9783
L11586 9726
L11605 9708
" />
<path d="M11605 9558
L11586 9539
L11568 9501
L11568 9408
L11586 9370
L11605 9352
L11643 9333
L11680 9333
L11736 9352
L11961 9576
L11961 9333
" />
<path d="M11568 9202
L11568 8958
L11718 9089
L11718 9033
L11736 8995
L11755 8977
L11793 8958
L11886 8958
L11924 8977
L11943 8995
L11961 9033
L11961 9145
L11943 9183
L11924 9202
" />
<path d="M20954 11541
L20561 11541
L20561 11447
L20579 11391
L20617 11353
L20654 11334
L20729 11316
L20786 11316
L20861 11334
L20898 11353
L20936 11391
L20954 11447
L20954 11541
" />
<path d="M20598 11166
L20579 11147
L20561 11109
L20561 11016
L20579 10978
L20598 10959
L20636 10941
L20673 10941
L20729 10959
L20954 11184
L20954 10941
" />
<path d="M20954 10566
L20954 10791
" />
<path d="M20954 10678
L20561 10678
L20617 10716
L20654 10753
L20673 10791
" />
<path d="M8977 13334
L8846 13334
" />
<path d="M8846 13541
L8846 13147
L9033 13147
" />
<path d="M9165 13184
L9183 13166
L9221 13147
L9315 13147
L9352 13166
L9371 13184
L9390 13222
L9390 13259
L9371 13316
L9146 13541
L9390 13541
" />
<path d="M9765 13541
L9540 13541
" />
<path d="M9652 13541
L9652 13147
L9615 13203
L9577 13241
L9540 13259
" />
<path d="M30977 11834
L30846 11834
" />
<path d="M30846 12041
L30846 11647
L31033 11647
" />
<path d="M31146 11647
L31390 11647
L31258 11797
L31315 11797
L31352 11816
L31371 11834
L31390 11872
L31390 11966
L31371 12003
L31352 12022
L31315 12041
L31202 12041
L31165 12022
L31146 12003
" />
<path d="M31765 12041
L31540 12041
" />
<path d="M31652 12041
L31652 11647
L31615 11703
L31577 11741
L31540 11759
" />
<path d="M23140 3647
L23140 3966
L23159 4003
L23177 4022
L23215 4041
L23290 4041
L23327 4022
L23346 4003
L23365 3966
L23365 3647
" />
<path d="M23534 3684
L23552 3666
L23590 3647
L23684 3647
L23721 3666
L23740 3684
L23759 3722
L23759 3759
L23740 3816
L23515 4041
L23759 4041
" />
<path d="M24134 4041
L23909 4041
" />
<path d="M24021 4041
L24021 3647
L23984 3703
L23946 3741
L23909 3759
" />
<path d="M15958 7188
L15771 7188
L15771 6794
" />
<path d="M16071 6832
L16090 6813
L16127 6794
L16221 6794
L16258 6813
L16277 6832
L16296 6869
L16296 6907
L16277 6963
L16052 7188
L16296 7188
" />
<path d="M16671 7188
L16446 7188
" />
<path d="M16558 7188
L16558 6794
L16521 6850
L16483 6888
L16446 6907
" />
<path d="M44437 11050
L44756 11050
L44793 11031
L44812 11012
L44831 10975
L44831 10900
L44812 10862
L44793 10844
L44756 10825
L44437 10825
" />
<path d="M44568 10469
L44831 10469
" />
<path d="M44418 10562
L44699 10656
L44699 10413
" />
<path d="M44831 10056
L44831 10281
" />
<path d="M44831 10169
L44437 10169
L44493 10206
L44531 10244
L44549 10281
" />
</g>
<g style="fill:#000000; fill-opacity:0.0; 
stroke:#000000; stroke-width:100; stroke-opacity:1; 
stroke-linecap:round; stroke-linejoin:round;">
<path d="M11023 20789
L11023 21146
L10999 21217
L10951 21265
L10880 21289
L10832 21289
" />
<path d="M11523 21289
L11237 21289
" />
<path d="M11380 21289
L11380 20789
L11332 20860
L11284 20908
L11237 20932
" />
<path d="M11999 21289
L11713 21289
" />
<path d="M11856 21289
L11856 20789
L11808 20860
L11761 20908
L11713 20932
" />
<path d="M11623 4389
L11623 4746
L11599 4817
L11551 4865
L11480 4889
L11432 4889
" />
<path d="M11837 4436
L11861 4412
L11908 4389
L12027 4389
L12075 4412
L12099 4436
L12123 4484
L12123 4532
L12099 4603
L11813 4889
L12123 4889
" />
<path d="M12599 4889
L12313 4889
" />
<path d="M12456 4889
L12456 4389
L12408 4460
L12361 4508
L12313 4532
" />
<path d="M6623 4389
L6623 4746
L6599 4817
L6551 4865
L6480 4889
L6432 4889
" />
<path d="M6813 4389
L7123 4389
L6956 4579
L7027 4579
L7075 4603
L7099 4627
L7123 4674
L7123 4793
L7099 4841
L7075 4865
L7027 4889
L6884 4889
L6837 4865
L6813 4841
" />
<path d="M7599 4889
L7313 4889
" />
<path d="M7456 4889
L7456 4389
L7408 4460
L7361 4508
L7313 4532
" />
<path d="M35023 4389
L35023 4746
L34999 4817
L34951 4865
L34880 4889
L34832 4889
" />
<path d="M35213 4389
L35523 4389
L35356 4579
L35427 4579
L35475 4603
L35499 4627
L35523 4674
L35523 4793
L35499 4841
L35475 4865
L35427 4889
L35284 4889
L35237 4865
L35213 4841
" />
<path d="M35713 4436
L35737 4412
L35784 4389
L35904 4389
L35951 4412
L35975 4436
L35999 4484
L35999 4532
L35975 4603
L35689 4889
L35999 4889
" />
<path d="M29823 4389
L29823 4746
L29799 4817
L29751 4865
L29680 4889
L29632 4889
" />
<path d="M30013 4389
L30323 4389
L30156 4579
L30227 4579
L30275 4603
L30299 4627
L30323 4674
L30323 4793
L30299 4841
L30275 4865
L30227 4889
L30084 4889
L30037 4865
L30013 4841
" />
<path d="M30489 4389
L30799 4389
L30632 4579
L30704 4579
L30751 4603
L30775 4627
L30799 4674
L30799 4793
L30775 4841
L30751 4865
L30704 4889
L30561 4889
L30513 4865
L30489 4841
" />
<path d="M36054 20789
L36054 21146
L36030 21217
L35983 21265
L35911 21289
L35864 21289
" />
<path d="M36245 20789
L36554 20789
L36387 20979
L36459 20979
L36506 21003
L36530 21027
L36554 21074
L36554 21193
L36530 21241
L36506 21265
L36459 21289
L36316 21289
L36268 21265
L36245 21241
" />
<path d="M36983 20955
L36983 21289
" />
<path d="M36864 20765
L36745 21122
L37054 21122
" />
<path d="M31123 20789
L31123 21146
L31099 21217
L31051 21265
L30980 21289
L30932 21289
" />
<path d="M31313 20789
L31623 20789
L31456 20979
L31527 20979
L31575 21003
L31599 21027
L31623 21074
L31623 21193
L31599 21241
L31575 21265
L31527 21289
L31384 21289
L31337 21265
L31313 21241
" />
<path d="M32075 20789
L31837 20789
L31813 21027
L31837 21003
L31884 20979
L32004 20979
L32051 21003
L32075 21027
L32099 21074
L32099 21193
L32075 21241
L32051 21265
L32004 21289
L31884 21289
L31837 21265
L31813 21241
" />
<path d="M41823 4389
L41823 4746
L41799 4817
L41751 4865
L41680 4889
L41632 4889
" />
<path d="M42275 4555
L42275 4889
" />
<path d="M42156 4365
L42037 4722
L42346 4722
" />
<path d="M42799 4889
L42513 4889
" />
<path d="M42656 4889
L42656 4389
L42608 4460
L42561 4508
L42513 4532
" />
</g>
<g style="fill:#000000; fill-opacity:0.0; 
stroke:#000000; stroke-width:59.0551; stroke-opacity:1; 
stroke-linecap:round; stroke-linejoin:round;">
<path d="M1802 3041
L1671 2853
" />
<path d="M1577 3041
L1577 2647
L1727 2647
L1765 2666
L1784 2684
L1802 2722
L1802 2778
L1784 2816
L1765 2834
L1727 2853
L1577 2853
" />
<path d="M1971 2834
L2102 2834
" />
<path d="M2159 3041
L1971 3041
L1971 2647
L2159 2647
" />
<path d="M2459 2834
L2327 2834
" />
<path d="M2327 3041
L2327 2647
L2515 2647
" />
<path d="M2721 2647
L2721 2741
" />
<path d="M2627 2703
L2721 2741
L2815 2703
" />
<path d="M2665 2816
L2721 2741
L2777 2816
" />
<path d="M3021 2647
L3021 2741
" />
<path d="M2927 2703
L3021 2741
L3115 2703
" />
<path d="M2965 2816
L3021 2741
L3077 2816
" />
</g>
<g style="fill:#000000; fill-opacity:0.0; 
stroke:#000000; stroke-width:39.3701; stroke-opacity:1; 
stroke-linecap:round; stroke-linejoin:round;">
<circle cx="45427.8" cy="21663" r="848.057" /> 
<circle cx="45427.8" cy="4062.99" r="848.057" /> 
<circle cx="2327.84" cy="21663" r="848.057" /> 
<path d="M21765 7888
L21765 8637
" />
<path d="M21765 8637
L23458 8637
" />
<path d="M23458 8637
L23458 7888
" />
<path d="M23458 7888
L21765 7888
" />
<circle cx="12927.8" cy="9455.12" r="1240.16" /> 
<path d="M12927 8096
L12927 8569
" />
<path d="M13183 8333
L12671 8333
" />
<circle cx="10027.8" cy="9455.12" r="1240.16" /> 
<path d="M10027 8096
L10027 8569
" />
<path d="M10283 8333
L9771 8333
" />
<path d="M20359 10039
L19296 10039
" />
<path d="M19296 10039
L19296 12086
" />
<path d="M19296 12086
L20359 12086
" />
<path d="M20359 12086
L20359 10039
" />
<path d="M19827 9562
L19827 10039
" />
<path d="M19827 12562
L19827 12086
" />
<path d="M20359 10346
L19296 10346
" />
<path d="M7327 13862
L11264 13862
" />
<path d="M4571 12878
L14020 12878
" />
<path d="M14020 12878
L14020 14847
" />
<path d="M14020 14847
L4571 14847
" />
<path d="M4571 14847
L4571 12878
" />
<path d="M10615 12524
L10615 15201
" />
<path d="M10615 15201
L14375 15201
" />
<path d="M14375 15201
L14375 12524
" />
<path d="M14375 12524
L10615 12524
" />
<path d="M4197 12524
L7977 12524
" />
<path d="M7977 12524
L7977 15201
" />
<path d="M7977 15201
L4217 15201
" />
<path d="M4217 15201
L4217 12524
" />
<path d="M29327 13862
L33264 13862
" />
<path d="M26571 12878
L36020 12878
" />
<path d="M36020 12878
L36020 14847
" />
<path d="M36020 14847
L26571 14847
" />
<path d="M26571 14847
L26571 12878
" />
<path d="M32615 12524
L32615 15201
" />
<path d="M32615 15201
L36375 15201
" />
<path d="M36375 15201
L36375 12524
" />
<path d="M36375 12524
L32615 12524
" />
<path d="M26197 12524
L29977 12524
" />
<path d="M29977 12524
L29977 15201
" />
<path d="M29977 15201
L26217 15201
" />
<path d="M26217 15201
L26217 12524
" />
<path d="M21659 2891
L21659 4623
" />
<path d="M21659 4623
L25596 4623
" />
<path d="M25596 4623
L25596 2891
" />
<path d="M25596 2891
L21659 2891
" />
<path d="M21659 3391
L25596 3391
" />
<path d="M22899 2891
L22899 3391
" />
<path d="M24356 2891
L24356 3391
" />
<path d="M22127 4623
L22127 6119
" />
<path d="M22627 4623
L22627 4662
" />
<path d="M23127 4623
L23127 6119
" />
<path d="M23627 4623
L23627 4662
" />
<path d="M24127 4623
L24127 6119
" />
<path d="M24627 4623
L24627 4662
" />
<path d="M25127 4623
L25127 6119
" />
<circle cx="16212.1" cy="8962.99" r="1535.43" /> 
<path d="M44212 8594
L42479 8594
" />
<path d="M42479 8594
L42479 12531
" />
<path d="M42479 12531
L44212 12531
" />
<path d="M44212 12531
L44212 8594
" />
<path d="M43712 8594
L43712 12531
" />
<path d="M44212 9834
L43712 9834
" />
<path d="M44212 11291
L43712 11291
" />
<circle cx="2327.84" cy="4062.99" r="848.057" /> 
</g>
<g style="fill:#000000; fill-opacity:0.0; 
stroke:#000000; stroke-width:59.0551; stroke-opacity:1; 
stroke-linecap:round; stroke-linejoin:round;">
<path d="M45090 23022
L44865 23022
" />
<path d="M44977 23022
L44977 22628
L44940 22684
L44902 22722
L44865 22740
" />
<path d="M45259 22759
L45259 23153
" />
<path d="M45259 22778
L45296 22759
L45371 22759
L45409 22778
L45427 22797
L45446 22834
L45446 22947
L45427 22984
L45409 23003
L45371 23022
L45296 23022
L45259 23003
" />
<path d="M45615 23022
L45615 22759
" />
<path d="M45615 22628
L45596 22647
L45615 22665
L45634 22647
L45615 22628
L45615 22665
" />
<path d="M45802 22759
L45802 23022
" />
<path d="M45802 22797
L45821 22778
L45859 22759
L45915 22759
L45952 22778
L45971 22815
L45971 23022
" />
<path d="M45090 5422
L44865 5422
" />
<path d="M44977 5422
L44977 5028
L44940 5084
L44902 5122
L44865 5140
" />
<path d="M45259 5159
L45259 5553
" />
<path d="M45259 5178
L45296 5159
L45371 5159
L45409 5178
L45427 5197
L45446 5234
L45446 5347
L45427 5384
L45409 5403
L45371 5422
L45296 5422
L45259 5403
" />
<path d="M45615 5422
L45615 5159
" />
<path d="M45615 5028
L45596 5047
L45615 5065
L45634 5047
L45615 5028
L45615 5065
" />
<path d="M45802 5159
L45802 5422
" />
<path d="M45802 5197
L45821 5178
L45859 5159
L45915 5159
L45952 5178
L45971 5215
L45971 5422
" />
<path d="M1990 23022
L1765 23022
" />
<path d="M1877 23022
L1877 22628
L1840 22684
L1802 22722
L1765 22740
" />
<path d="M2159 22759
L2159 23153
" />
<path d="M2159 22778
L2196 22759
L2271 22759
L2309 22778
L2327 22797
L2346 22834
L2346 22947
L2327 22984
L2309 23003
L2271 23022
L2196 23022
L2159 23003
" />
<path d="M2515 23022
L2515 22759
" />
<path d="M2515 22628
L2496 22647
L2515 22665
L2534 22647
L2515 22628
L2515 22665
" />
<path d="M2702 22759
L2702 23022
" />
<path d="M2702 22797
L2721 22778
L2759 22759
L2815 22759
L2852 22778
L2871 22815
L2871 23022
" />
<path d="M21777 8937
L21815 8937
L21852 8955
L21871 8974
L21890 9012
L21909 9087
L21909 9180
L21890 9255
L21871 9293
L21852 9312
L21815 9330
L21777 9330
L21740 9312
L21721 9293
L21702 9255
L21684 9180
L21684 9087
L21702 9012
L21721 8974
L21740 8955
L21777 8937
" />
<path d="M22077 9293
L22096 9312
L22077 9330
L22059 9312
L22077 9293
L22077 9330
" />
<path d="M22340 8937
L22377 8937
L22415 8955
L22433 8974
L22452 9012
L22471 9087
L22471 9180
L22452 9255
L22433 9293
L22415 9312
L22377 9330
L22340 9330
L22302 9312
L22284 9293
L22265 9255
L22246 9180
L22246 9087
L22265 9012
L22284 8974
L22302 8955
L22340 8937
" />
<path d="M22846 9330
L22621 9330
" />
<path d="M22733 9330
L22733 8937
L22696 8993
L22658 9030
L22621 9049
" />
<path d="M23183 9068
L23183 9330
" />
<path d="M23015 9068
L23015 9274
L23033 9312
L23071 9330
L23127 9330
L23165 9312
L23183 9293
" />
<path d="M23502 9124
L23371 9124
" />
<path d="M23371 9330
L23371 8937
L23558 8937
" />
<path d="M22358 8403
L22340 8422
L22284 8441
L22246 8441
L22190 8422
L22152 8384
L22134 8347
L22115 8272
L22115 8216
L22134 8141
L22152 8103
L22190 8066
L22246 8047
L22284 8047
L22340 8066
L22358 8084
" />
<path d="M22508 8084
L22527 8066
L22565 8047
L22658 8047
L22696 8066
L22715 8084
L22733 8122
L22733 8159
L22715 8216
L22490 8441
L22733 8441
" />
<path d="M23108 8441
L22883 8441
" />
<path d="M22996 8441
L22996 8047
L22958 8103
L22921 8141
L22883 8159
" />
<path d="M11350 10064
L11350 10289
" />
<path d="M11350 10176
L10956 10176
L11012 10214
L11050 10251
L11068 10289
" />
<path d="M10956 9820
L10956 9783
L10975 9745
L10993 9726
L11031 9708
L11106 9689
L11200 9689
L11275 9708
L11312 9726
L11331 9745
L11350 9783
L11350 9820
L11331 9858
L11312 9876
L11275 9895
L11200 9914
L11106 9914
L11031 9895
L10993 9876
L10975 9858
L10956 9820
" />
<path d="M10956 9445
L10956 9408
L10975 9370
L10993 9352
L11031 9333
L11106 9314
L11200 9314
L11275 9333
L11312 9352
L11331 9370
L11350 9408
L11350 9445
L11331 9483
L11312 9501
L11275 9520
L11200 9539
L11106 9539
L11031 9520
L10993 9501
L10975 9483
L10956 9445
" />
<path d="M11087 8977
L11350 8977
" />
<path d="M11087 9145
L11293 9145
L11331 9127
L11350 9089
L11350 9033
L11331 8995
L11312 8977
" />
<path d="M11143 8658
L11143 8789
" />
<path d="M11350 8789
L10956 8789
L10956 8602
" />
<path d="M13068 9708
L13087 9726
L13105 9783
L13105 9820
L13087 9876
L13049 9914
L13012 9933
L12937 9951
L12880 9951
L12805 9933
L12768 9914
L12730 9876
L12712 9820
L12712 9783
L12730 9726
L12749 9708
" />
<path d="M12749 9558
L12730 9539
L12712 9501
L12712 9408
L12730 9370
L12749 9352
L12787 9333
L12824 9333
L12880 9352
L13105 9576
L13105 9333
" />
<path d="M12749 9183
L12730 9164
L12712 9127
L12712 9033
L12730 8995
L12749 8977
L12787 8958
L12824 8958
L12880 8977
L13105 9202
L13105 8958
" />
<path d="M8450 10064
L8450 10289
" />
<path d="M8450 10176
L8056 10176
L8112 10214
L8150 10251
L8168 10289
" />
<path d="M8056 9820
L8056 9783
L8075 9745
L8093 9726
L8131 9708
L8206 9689
L8300 9689
L8375 9708
L8412 9726
L8431 9745
L8450 9783
L8450 9820
L8431 9858
L8412 9876
L8375 9895
L8300 9914
L8206 9914
L8131 9895
L8093 9876
L8075 9858
L8056 9820
" />
<path d="M8056 9445
L8056 9408
L8075 9370
L8093 9352
L8131 9333
L8206 9314
L8300 9314
L8375 9333
L8412 9352
L8431 9370
L8450 9408
L8450 9445
L8431 9483
L8412 9501
L8375 9520
L8300 9539
L8206 9539
L8131 9520
L8093 9501
L8075 9483
L8056 9445
" />
<path d="M8187 8977
L8450 8977
" />
<path d="M8187 9145
L8393 9145
L8431 9127
L8450 9089
L8450 9033
L8431 8995
L8412 8977
" />
<path d="M8243 8658
L8243 8789
" />
<path d="M8450 8789
L8056 8789
L8056 8602
" />
<path d="M10168 9708
L10187 9726
L10205 9783
L10205 9820
L10187 9876
L10149 9914
L10112 9933
L10037 9951
L9980 9951
L9905 9933
L9868 9914
L9830 9876
L9812 9820
L9812 9783
L9830 9726
L9849 9708
" />
<path d="M9849 9558
L9830 9539
L9812 9501
L9812 9408
L9830 9370
L9849 9352
L9887 9333
L9924 9333
L9980 9352
L10205 9576
L10205 9333
" />
<path d="M9812 9202
L9812 8958
L9962 9089
L9962 9033
L9980 8995
L9999 8977
L10037 8958
L10130 8958
L10168 8977
L10187 8995
L10205 9033
L10205 9145
L10187 9183
L10168 9202
" />
<path d="M19057 12562
L18663 12562
L18663 12469
L18682 12412
L18719 12375
L18757 12356
L18832 12337
L18888 12337
L18963 12356
L19000 12375
L19038 12412
L19057 12469
L19057 12562
" />
<path d="M19094 12262
L19094 11962
" />
<path d="M19038 11887
L19057 11831
L19057 11737
L19038 11700
L19019 11681
L18982 11662
L18944 11662
L18907 11681
L18888 11700
L18869 11737
L18850 11812
L18832 11850
L18813 11869
L18775 11887
L18738 11887
L18700 11869
L18682 11850
L18663 11812
L18663 11719
L18682 11662
" />
<path d="M19038 11325
L19057 11362
L19057 11437
L19038 11475
L19019 11494
L18982 11512
L18869 11512
L18832 11494
L18813 11475
L18794 11437
L18794 11362
L18813 11325
" />
<path d="M19057 11156
L18663 11156
" />
<path d="M19057 10988
L18850 10988
L18813 11006
L18794 11044
L18794 11100
L18813 11137
L18832 11156
" />
<path d="M19057 10744
L19038 10781
L19019 10800
L18982 10819
L18869 10819
L18832 10800
L18813 10781
L18794 10744
L18794 10688
L18813 10650
L18832 10631
L18869 10613
L18982 10613
L19019 10631
L19038 10650
L19057 10688
L19057 10744
" />
<path d="M18794 10500
L18794 10350
" />
<path d="M18663 10444
L19000 10444
L19038 10425
L19057 10388
L19057 10350
" />
<path d="M18794 10275
L18794 10125
" />
<path d="M18663 10219
L19000 10219
L19038 10200
L19057 10163
L19057 10125
" />
<path d="M19057 9994
L18663 9994
" />
<path d="M18907 9956
L19057 9844
" />
<path d="M18794 9844
L18944 9994
" />
<path d="M18794 9713
L19057 9619
" />
<path d="M18794 9525
L19057 9619
L19150 9656
L19169 9675
L19188 9713
" />
<path d="M20005 11541
L19612 11541
L19612 11447
L19630 11391
L19668 11353
L19705 11334
L19780 11316
L19837 11316
L19912 11334
L19949 11353
L19987 11391
L20005 11447
L20005 11541
" />
<path d="M19649 11166
L19630 11147
L19612 11109
L19612 11016
L19630 10978
L19649 10959
L19687 10941
L19724 10941
L19780 10959
L20005 11184
L20005 10941
" />
<path d="M20005 10566
L20005 10791
" />
<path d="M20005 10678
L19612 10678
L19668 10716
L19705 10753
L19724 10791
" />
<path d="M9346 15834
L9215 15834
" />
<path d="M9215 16041
L9215 15647
L9402 15647
" />
<path d="M9721 15778
L9721 16041
" />
<path d="M9552 15778
L9552 15984
L9571 16022
L9608 16041
L9665 16041
L9702 16022
L9721 16003
" />
<path d="M9890 16022
L9927 16041
L10002 16041
L10040 16022
L10058 15984
L10058 15966
L10040 15928
L10002 15909
L9946 15909
L9908 15891
L9890 15853
L9890 15834
L9908 15797
L9946 15778
L10002 15778
L10040 15797
" />
<path d="M10377 16022
L10340 16041
L10265 16041
L10227 16022
L10208 15984
L10208 15834
L10227 15797
L10265 15778
L10340 15778
L10377 15797
L10396 15834
L10396 15872
L10208 15909
" />
<path d="M31046 15647
L31271 15647
" />
<path d="M31158 16041
L31158 15647
" />
<path d="M31571 15647
L31496 15647
L31458 15666
L31440 15684
L31402 15741
L31383 15816
L31383 15966
L31402 16003
L31421 16022
L31458 16041
L31533 16041
L31571 16022
L31590 16003
L31608 15966
L31608 15872
L31590 15834
L31571 15816
L31533 15797
L31458 15797
L31421 15816
L31402 15834
L31383 15872
" />
<path d="M31796 16022
L31796 16041
L31777 16078
L31758 16097
" />
<path d="M31927 15647
L32171 15647
L32040 15797
L32096 15797
L32133 15816
L32152 15834
L32171 15872
L32171 15966
L32152 16003
L32133 16022
L32096 16041
L31983 16041
L31946 16022
L31927 16003
" />
<path d="M32321 15928
L32508 15928
" />
<path d="M32283 16041
L32415 15647
L32546 16041
" />
<path d="M22774 7053
L22587 7053
L22587 6659
" />
<path d="M22906 7053
L22906 6659
L23037 6941
L23168 6659
L23168 7053
" />
<path d="M23337 6697
L23355 6678
L23393 6659
L23487 6659
L23524 6678
L23543 6697
L23562 6734
L23562 6772
L23543 6828
L23318 7053
L23562 7053
" />
<path d="M23899 6659
L23824 6659
L23787 6678
L23768 6697
L23730 6753
L23712 6828
L23712 6978
L23730 7016
L23749 7034
L23787 7053
L23862 7053
L23899 7034
L23918 7016
L23937 6978
L23937 6884
L23918 6847
L23899 6828
L23862 6809
L23787 6809
L23749 6828
L23730 6847
L23712 6884
" />
<path d="M24068 6659
L24330 6659
L24162 7053
" />
<path d="M24537 6828
L24499 6809
L24480 6791
L24462 6753
L24462 6734
L24480 6697
L24499 6678
L24537 6659
L24612 6659
L24649 6678
L24668 6697
L24687 6734
L24687 6753
L24668 6791
L24649 6809
L24612 6828
L24537 6828
L24499 6847
L24480 6866
L24462 6903
L24462 6978
L24480 7016
L24499 7034
L24537 7053
L24612 7053
L24649 7034
L24668 7016
L24687 6978
L24687 6903
L24668 6866
L24649 6847
L24612 6828
" />
<path d="M23140 2234
L23140 2553
L23159 2591
L23177 2609
L23215 2628
L23290 2628
L23327 2609
L23346 2591
L23365 2553
L23365 2234
" />
<path d="M23534 2272
L23552 2253
L23590 2234
L23684 2234
L23721 2253
L23740 2272
L23759 2309
L23759 2347
L23740 2403
L23515 2628
L23759 2628
" />
<path d="M24134 2628
L23909 2628
" />
<path d="M24021 2628
L24021 2234
L23984 2291
L23946 2328
L23909 2347
" />
<path d="M15527 10737
L15546 10718
L15584 10700
L15677 10700
L15715 10718
L15734 10737
L15752 10775
L15752 10812
L15734 10868
L15509 11093
L15752 11093
" />
<path d="M15884 10700
L16146 10700
L15977 11093
" />
<path d="M16465 10831
L16465 11093
" />
<path d="M16296 10831
L16296 11037
L16315 11075
L16352 11093
L16408 11093
L16446 11075
L16465 11056
" />
<path d="M16652 11093
L16652 10700
" />
<path d="M16652 10887
L16877 10887
" />
<path d="M16877 11093
L16877 10700
" />
<path d="M41862 12484
L41862 12672
L41468 12672
" />
<path d="M41862 12353
L41468 12353
L41750 12222
L41468 12090
L41862 12090
" />
<path d="M41468 11940
L41468 11678
L41862 11847
" />
<path d="M41637 11472
L41618 11509
L41600 11528
L41562 11547
L41543 11547
L41506 11528
L41487 11509
L41468 11472
L41468 11397
L41487 11359
L41506 11341
L41543 11322
L41562 11322
L41600 11341
L41618 11359
L41637 11397
L41637 11472
L41656 11509
L41675 11528
L41712 11547
L41787 11547
L41825 11528
L41843 11509
L41862 11472
L41862 11397
L41843 11359
L41825 11341
L41787 11322
L41712 11322
L41675 11341
L41656 11359
L41637 11397
" />
<path d="M41862 10947
L41862 11172
" />
<path d="M41862 11059
L41468 11059
L41525 11097
L41562 11134
L41581 11172
" />
<path d="M41506 10797
L41487 10778
L41468 10741
L41468 10647
L41487 10609
L41506 10591
L41543 10572
L41581 10572
L41637 10591
L41862 10816
L41862 10572
" />
<path d="M41900 10497
L41900 10197
" />
<path d="M41468 10159
L41468 9934
" />
<path d="M41862 10047
L41468 10047
" />
<path d="M41468 9728
L41468 9653
L41487 9616
L41525 9578
L41600 9559
L41731 9559
L41806 9578
L41843 9616
L41862 9653
L41862 9728
L41843 9766
L41806 9803
L41731 9822
L41600 9822
L41525 9803
L41487 9766
L41468 9728
" />
<path d="M41506 9410
L41487 9391
L41468 9353
L41468 9260
L41487 9222
L41506 9203
L41543 9185
L41581 9185
L41637 9203
L41862 9428
L41862 9185
" />
<path d="M41506 9035
L41487 9016
L41468 8978
L41468 8885
L41487 8847
L41506 8828
L41543 8810
L41581 8810
L41637 8828
L41862 9053
L41862 8810
" />
<path d="M41468 8566
L41468 8528
L41487 8491
L41506 8472
L41543 8453
L41618 8435
L41712 8435
L41787 8453
L41825 8472
L41843 8491
L41862 8528
L41862 8566
L41843 8603
L41825 8622
L41787 8641
L41712 8660
L41618 8660
L41543 8641
L41506 8622
L41487 8603
L41468 8566
" />
<path d="M44437 11050
L44756 11050
L44793 11031
L44812 11012
L44831 10975
L44831 10900
L44812 10862
L44793 10844
L44756 10825
L44437 10825
" />
<path d="M44568 10469
L44831 10469
" />
<path d="M44418 10562
L44699 10656
L44699 10413
" />
<path d="M44831 10056
L44831 10281
" />
<path d="M44831 10169
L44437 10169
L44493 10206
L44531 10244
L44549 10281
" />
<path d="M1990 5422
L1765 5422
" />
<path d="M1877 5422
L1877 5028
L1840 5084
L1802 5122
L1765 5140
" />
<path d="M2159 5159
L2159 5553
" />
<path d="M2159 5178
L2196 5159
L2271 5159
L2309 5178
L2327 5197
L2346 5234
L2346 5347
L2327 5384
L2309 5403
L2271 5422
L2196 5422
L2159 5403
" />
<path d="M2515 5422
L2515 5159
" />
<path d="M2515 5028
L2496 5047
L2515 5065
L2534 5047
L2515 5028
L2515 5065
" />
<path d="M2702 5159
L2702 5422
" />
<path d="M2702 5197
L2721 5178
L2759 5159
L2815 5159
L2852 5178
L2871 5215
L2871 5422
" />
<path d="M1027 2762
L1027 22962
" />
<path d="M46727 2762
L1027 2762
" />
<path d="M46727 22962
L46727 2762
" />
<path d="M1027 22962
L46727 22962
" />
</g> 
</svg>
