<?xml version="1.0" standalone="no"?>
 <!DOCTYPE svg PUBLIC "-//W3C//DTD SVG 1.1//EN" 
 "http://www.w3.org/Graphics/SVG/1.1/DTD/svg11.dtd"> 
<svg xmlns="http://www.w3.org/2000/svg" version="1.1" 
    width="29.7002cm" height="21.0007cm" viewBox="0 0 116930 82680 ">
<title>SVG Picture created as Carte_Alim-B.Cu.svg date 2019/02/14 14:28:11 </title>
  <desc>Picture generated by PCBNEW </desc>
<g style="fill:#000000; fill-opacity:1;stroke:#000000; stroke-opacity:1;
stroke-linecap:round; stroke-linejoin:round; "
 transform="translate(0 0) scale(1 1)">
</g>
<g style="fill:#000000; fill-opacity:0.0; 
stroke:#000000; stroke-width:-0.000393701; stroke-opacity:1; 
stroke-linecap:round; stroke-linejoin:round;">
</g>
<g style="fill:#000000; fill-opacity:0.0; 
stroke:#000000; stroke-width:78.7402; stroke-opacity:1; 
stroke-linecap:round; stroke-linejoin:round;">
<path d="M38600 59200
L38600 43400
" />
<path d="M73000 59200
L38600 59200
" />
<path d="M73000 36000
L73000 59200
" />
<path d="M38600 36000
L73000 36000
" />
<path d="M38600 43400
L38600 36000
" />
</g>
<g style="fill:#000000; fill-opacity:0.0; 
stroke:#000000; stroke-width:0; stroke-opacity:1; 
stroke-linecap:round; stroke-linejoin:round;">
</g>
<g style="fill:#000000; fill-opacity:1.0; 
stroke:#000000; stroke-width:0; stroke-opacity:1; 
stroke-linecap:round; stroke-linejoin:round;">
<polyline style="fill-rule:evenodd;"
points="58937,48149
58228,48149
58228,47440
58937,47440
58937,48149
" /> 
</g>
<g style="fill:#000000; fill-opacity:1.0; 
stroke:#000000; stroke-width:708.661; stroke-opacity:1; 
stroke-linecap:round; stroke-linejoin:round;">
</g>
<g style="fill:#000000; fill-opacity:0.0; 
stroke:#000000; stroke-width:708.661; stroke-opacity:1; 
stroke-linecap:round; stroke-linejoin:round;">
<path d="M58582 44795
L58582 44795
" />
<path d="M44300 48300
L44300 48300
" />
</g>
<g style="fill:#000000; fill-opacity:0.0; 
stroke:#000000; stroke-width:0; stroke-opacity:1; 
stroke-linecap:round; stroke-linejoin:round;">
</g>
<g style="fill:#000000; fill-opacity:1.0; 
stroke:#000000; stroke-width:0; stroke-opacity:1; 
stroke-linecap:round; stroke-linejoin:round;">
<polyline style="fill-rule:evenodd;"
points="40945,48654
40945,47945
41654,47945
41654,48654
40945,48654
" /> 
<polyline style="fill-rule:evenodd;"
points="71929,44055
72637,44055
72637,44763
71929,44763
71929,44055
" /> 
</g>
<g style="fill:#000000; fill-opacity:1.0; 
stroke:#000000; stroke-width:708.661; stroke-opacity:1; 
stroke-linecap:round; stroke-linejoin:round;">
</g>
<g style="fill:#000000; fill-opacity:0.0; 
stroke:#000000; stroke-width:708.661; stroke-opacity:1; 
stroke-linecap:round; stroke-linejoin:round;">
<path d="M72283 47409
L72283 47409
" />
<path d="M49700 56845
L49700 57554
" />
</g>
<g style="fill:#000000; fill-opacity:0.0; 
stroke:#000000; stroke-width:0; stroke-opacity:1; 
stroke-linecap:round; stroke-linejoin:round;">
</g>
<g style="fill:#000000; fill-opacity:1.0; 
stroke:#000000; stroke-width:0; stroke-opacity:1; 
stroke-linecap:round; stroke-linejoin:round;">
<polyline style="fill-rule:evenodd;"
points="47345,57908
47345,56491
48054,56491
48054,57908
47345,57908
" /> 
<polyline style="fill-rule:evenodd;"
points="67574,55991
67574,57408
66865,57408
66865,55991
67574,55991
" /> 
</g>
<g style="fill:#000000; fill-opacity:1.0; 
stroke:#000000; stroke-width:708.661; stroke-opacity:1; 
stroke-linecap:round; stroke-linejoin:round;">
</g>
<g style="fill:#000000; fill-opacity:0.0; 
stroke:#000000; stroke-width:708.661; stroke-opacity:1; 
stroke-linecap:round; stroke-linejoin:round;">
<path d="M65220 57054
L65220 56345
" />
</g>
<g style="fill:#000000; fill-opacity:0.0; 
stroke:#000000; stroke-width:0; stroke-opacity:1; 
stroke-linecap:round; stroke-linejoin:round;">
</g>
<g style="fill:#000000; fill-opacity:1.0; 
stroke:#000000; stroke-width:0; stroke-opacity:1; 
stroke-linecap:round; stroke-linejoin:round;">
<polyline style="fill-rule:evenodd;"
points="59354,37091
59354,38508
58645,38508
58645,37091
59354,37091
" /> 
</g>
<g style="fill:#000000; fill-opacity:1.0; 
stroke:#000000; stroke-width:708.661; stroke-opacity:1; 
stroke-linecap:round; stroke-linejoin:round;">
</g>
<g style="fill:#000000; fill-opacity:0.0; 
stroke:#000000; stroke-width:708.661; stroke-opacity:1; 
stroke-linecap:round; stroke-linejoin:round;">
<path d="M57000 38154
L57000 37445
" />
<path d="M40954 53000
L40245 53000
" />
</g>
<g style="fill:#000000; fill-opacity:0.0; 
stroke:#000000; stroke-width:0; stroke-opacity:1; 
stroke-linecap:round; stroke-linejoin:round;">
</g>
<g style="fill:#000000; fill-opacity:1.0; 
stroke:#000000; stroke-width:0; stroke-opacity:1; 
stroke-linecap:round; stroke-linejoin:round;">
<polyline style="fill-rule:evenodd;"
points="39891,50645
41308,50645
41308,51354
39891,51354
39891,50645
" /> 
<polyline style="fill-rule:evenodd;"
points="53554,37141
53554,38558
52845,38558
52845,37141
53554,37141
" /> 
</g>
<g style="fill:#000000; fill-opacity:1.0; 
stroke:#000000; stroke-width:708.661; stroke-opacity:1; 
stroke-linecap:round; stroke-linejoin:round;">
</g>
<g style="fill:#000000; fill-opacity:0.0; 
stroke:#000000; stroke-width:708.661; stroke-opacity:1; 
stroke-linecap:round; stroke-linejoin:round;">
<path d="M51200 38204
L51200 37495
" />
<path d="M46700 38204
L46700 37495
" />
</g>
<g style="fill:#000000; fill-opacity:0.0; 
stroke:#000000; stroke-width:0; stroke-opacity:1; 
stroke-linecap:round; stroke-linejoin:round;">
</g>
<g style="fill:#000000; fill-opacity:1.0; 
stroke:#000000; stroke-width:0; stroke-opacity:1; 
stroke-linecap:round; stroke-linejoin:round;">
<polyline style="fill-rule:evenodd;"
points="49054,37141
49054,38558
48345,38558
48345,37141
49054,37141
" /> 
<polyline style="fill-rule:evenodd;"
points="44554,37141
44554,38558
43845,38558
43845,37141
44554,37141
" /> 
</g>
<g style="fill:#000000; fill-opacity:1.0; 
stroke:#000000; stroke-width:708.661; stroke-opacity:1; 
stroke-linecap:round; stroke-linejoin:round;">
</g>
<g style="fill:#000000; fill-opacity:0.0; 
stroke:#000000; stroke-width:708.661; stroke-opacity:1; 
stroke-linecap:round; stroke-linejoin:round;">
<path d="M42200 38204
L42200 37495
" />
<path d="M61400 38154
L61400 37445
" />
</g>
<g style="fill:#000000; fill-opacity:0.0; 
stroke:#000000; stroke-width:0; stroke-opacity:1; 
stroke-linecap:round; stroke-linejoin:round;">
</g>
<g style="fill:#000000; fill-opacity:1.0; 
stroke:#000000; stroke-width:0; stroke-opacity:1; 
stroke-linecap:round; stroke-linejoin:round;">
<polyline style="fill-rule:evenodd;"
points="63754,37091
63754,38508
63045,38508
63045,37091
63754,37091
" /> 
<circle cx="55118.1" cy="45433.1" r="511.811" /> 
</g>
<g style="fill:#000000; fill-opacity:1.0; 
stroke:#000000; stroke-width:39.3701; stroke-opacity:1; 
stroke-linecap:round; stroke-linejoin:round;">
</g>
<g style="fill:#000000; fill-opacity:1.0; 
stroke:#000000; stroke-width:0; stroke-opacity:1; 
stroke-linecap:round; stroke-linejoin:round;">
<circle cx="56510.1" cy="46825" r="511.811" /> 
</g>
<g style="fill:#000000; fill-opacity:1.0; 
stroke:#000000; stroke-width:39.3701; stroke-opacity:1; 
stroke-linecap:round; stroke-linejoin:round;">
</g>
<g style="fill:#000000; fill-opacity:1.0; 
stroke:#000000; stroke-width:0; stroke-opacity:1; 
stroke-linecap:round; stroke-linejoin:round;">
<circle cx="45400" cy="50131.5" r="511.811" /> 
</g>
<g style="fill:#000000; fill-opacity:1.0; 
stroke:#000000; stroke-width:39.3701; stroke-opacity:1; 
stroke-linecap:round; stroke-linejoin:round;">
</g>
<g style="fill:#000000; fill-opacity:1.0; 
stroke:#000000; stroke-width:0; stroke-opacity:1; 
stroke-linecap:round; stroke-linejoin:round;">
<circle cx="45400" cy="52100" r="511.811" /> 
</g>
<g style="fill:#000000; fill-opacity:1.0; 
stroke:#000000; stroke-width:39.3701; stroke-opacity:1; 
stroke-linecap:round; stroke-linejoin:round;">
</g>
<g style="fill:#000000; fill-opacity:1.0; 
stroke:#000000; stroke-width:0; stroke-opacity:1; 
stroke-linecap:round; stroke-linejoin:round;">
<circle cx="68800" cy="40700" r="511.811" /> 
</g>
<g style="fill:#000000; fill-opacity:1.0; 
stroke:#000000; stroke-width:39.3701; stroke-opacity:1; 
stroke-linecap:round; stroke-linejoin:round;">
</g>
<g style="fill:#000000; fill-opacity:1.0; 
stroke:#000000; stroke-width:0; stroke-opacity:1; 
stroke-linecap:round; stroke-linejoin:round;">
<circle cx="70768.5" cy="40700" r="511.811" /> 
</g>
<g style="fill:#000000; fill-opacity:1.0; 
stroke:#000000; stroke-width:39.3701; stroke-opacity:1; 
stroke-linecap:round; stroke-linejoin:round;">
</g>
<g style="fill:#000000; fill-opacity:1.0; 
stroke:#000000; stroke-width:708.661; stroke-opacity:1; 
stroke-linecap:round; stroke-linejoin:round;">
</g>
<g style="fill:#000000; fill-opacity:0.0; 
stroke:#000000; stroke-width:708.661; stroke-opacity:1; 
stroke-linecap:round; stroke-linejoin:round;">
<path d="M54566 51811
L54409 51811
" />
<path d="M56023 51141
L55866 51141
" />
<path d="M54566 50472
L54409 50472
" />
<path d="M56023 49803
L55866 49803
" />
</g>
<g style="fill:#000000; fill-opacity:0.0; 
stroke:#000000; stroke-width:0; stroke-opacity:1; 
stroke-linecap:round; stroke-linejoin:round;">
</g>
<g style="fill:#000000; fill-opacity:1.0; 
stroke:#000000; stroke-width:0; stroke-opacity:1; 
stroke-linecap:round; stroke-linejoin:round;">
<polyline style="fill-rule:evenodd;"
points="54055,48779
54921,48779
54921,49488
54055,49488
54055,48779
" /> 
<polyline style="fill-rule:evenodd;"
points="42333,47154
41466,47154
41466,46445
42333,46445
42333,47154
" /> 
</g>
<g style="fill:#000000; fill-opacity:1.0; 
stroke:#000000; stroke-width:708.661; stroke-opacity:1; 
stroke-linecap:round; stroke-linejoin:round;">
</g>
<g style="fill:#000000; fill-opacity:0.0; 
stroke:#000000; stroke-width:708.661; stroke-opacity:1; 
stroke-linecap:round; stroke-linejoin:round;">
<path d="M40364 46130
L40522 46130
" />
<path d="M41821 45461
L41978 45461
" />
<path d="M40364 44792
L40522 44792
" />
<path d="M41821 44122
L41978 44122
" />
</g>
<g style="fill:#000000; fill-opacity:0.0; 
stroke:#000000; stroke-width:0; stroke-opacity:1; 
stroke-linecap:round; stroke-linejoin:round;">
</g>
<g style="fill:#000000; fill-opacity:1.0; 
stroke:#000000; stroke-width:0; stroke-opacity:1; 
stroke-linecap:round; stroke-linejoin:round;">
<polyline style="fill-rule:evenodd;"
points="69251,43145
70118,43145
70118,43854
69251,43854
69251,43145
" /> 
</g>
<g style="fill:#000000; fill-opacity:1.0; 
stroke:#000000; stroke-width:708.661; stroke-opacity:1; 
stroke-linecap:round; stroke-linejoin:round;">
</g>
<g style="fill:#000000; fill-opacity:0.0; 
stroke:#000000; stroke-width:708.661; stroke-opacity:1; 
stroke-linecap:round; stroke-linejoin:round;">
<path d="M71220 44169
L71062 44169
" />
<path d="M69763 44838
L69606 44838
" />
<path d="M71220 45507
L71062 45507
" />
<path d="M69763 46177
L69606 46177
" />
</g>
<g style="fill:#000000; fill-opacity:1.0; 
stroke:#000000; stroke-width:0; stroke-opacity:1; 
stroke-linecap:round; stroke-linejoin:round;">
<circle cx="48779.5" cy="52992.1" r="551.181" /> 
</g>
<g style="fill:#000000; fill-opacity:1.0; 
stroke:#000000; stroke-width:39.3701; stroke-opacity:1; 
stroke-linecap:round; stroke-linejoin:round;">
</g>
<g style="fill:#000000; fill-opacity:1.0; 
stroke:#000000; stroke-width:0; stroke-opacity:1; 
stroke-linecap:round; stroke-linejoin:round;">
<circle cx="48779.5" cy="51023.6" r="551.181" /> 
</g>
<g style="fill:#000000; fill-opacity:1.0; 
stroke:#000000; stroke-width:39.3701; stroke-opacity:1; 
stroke-linecap:round; stroke-linejoin:round;">
</g>
<g style="fill:#000000; fill-opacity:1.0; 
stroke:#000000; stroke-width:0; stroke-opacity:1; 
stroke-linecap:round; stroke-linejoin:round;">
<circle cx="48779.5" cy="45118.1" r="551.181" /> 
</g>
<g style="fill:#000000; fill-opacity:1.0; 
stroke:#000000; stroke-width:39.3701; stroke-opacity:1; 
stroke-linecap:round; stroke-linejoin:round;">
</g>
<g style="fill:#000000; fill-opacity:1.0; 
stroke:#000000; stroke-width:0; stroke-opacity:1; 
stroke-linecap:round; stroke-linejoin:round;">
<circle cx="48779.5" cy="47086.6" r="551.181" /> 
</g>
<g style="fill:#000000; fill-opacity:1.0; 
stroke:#000000; stroke-width:39.3701; stroke-opacity:1; 
stroke-linecap:round; stroke-linejoin:round;">
</g>
<g style="fill:#000000; fill-opacity:1.0; 
stroke:#000000; stroke-width:0; stroke-opacity:1; 
stroke-linecap:round; stroke-linejoin:round;">
<circle cx="66378" cy="46850.4" r="551.181" /> 
</g>
<g style="fill:#000000; fill-opacity:1.0; 
stroke:#000000; stroke-width:39.3701; stroke-opacity:1; 
stroke-linecap:round; stroke-linejoin:round;">
</g>
<g style="fill:#000000; fill-opacity:1.0; 
stroke:#000000; stroke-width:0; stroke-opacity:1; 
stroke-linecap:round; stroke-linejoin:round;">
<circle cx="66378" cy="44881.9" r="551.181" /> 
</g>
<g style="fill:#000000; fill-opacity:1.0; 
stroke:#000000; stroke-width:39.3701; stroke-opacity:1; 
stroke-linecap:round; stroke-linejoin:round;">
</g>
<g style="fill:#000000; fill-opacity:1.0; 
stroke:#000000; stroke-width:0; stroke-opacity:1; 
stroke-linecap:round; stroke-linejoin:round;">
<circle cx="66378" cy="50787.4" r="551.181" /> 
</g>
<g style="fill:#000000; fill-opacity:1.0; 
stroke:#000000; stroke-width:39.3701; stroke-opacity:1; 
stroke-linecap:round; stroke-linejoin:round;">
</g>
<g style="fill:#000000; fill-opacity:1.0; 
stroke:#000000; stroke-width:0; stroke-opacity:1; 
stroke-linecap:round; stroke-linejoin:round;">
<circle cx="66378" cy="52755.9" r="551.181" /> 
</g>
<g style="fill:#000000; fill-opacity:1.0; 
stroke:#000000; stroke-width:39.3701; stroke-opacity:1; 
stroke-linecap:round; stroke-linejoin:round;">
</g>
<g style="fill:#000000; fill-opacity:1.0; 
stroke:#000000; stroke-width:0; stroke-opacity:1; 
stroke-linecap:round; stroke-linejoin:round;">
<circle cx="63342.5" cy="42633.9" r="314.961" /> 
</g>
<g style="fill:#000000; fill-opacity:1.0; 
stroke:#000000; stroke-width:39.3701; stroke-opacity:1; 
stroke-linecap:round; stroke-linejoin:round;">
</g>
<g style="fill:#000000; fill-opacity:1.0; 
stroke:#000000; stroke-width:0; stroke-opacity:1; 
stroke-linecap:round; stroke-linejoin:round;">
<circle cx="53300" cy="42300" r="314.961" /> 
</g>
<g style="fill:#000000; fill-opacity:1.0; 
stroke:#000000; stroke-width:39.3701; stroke-opacity:1; 
stroke-linecap:round; stroke-linejoin:round;">
</g>
<g style="fill:#000000; fill-opacity:1.0; 
stroke:#000000; stroke-width:0; stroke-opacity:1; 
stroke-linecap:round; stroke-linejoin:round;">
<circle cx="41800" cy="42400" r="314.961" /> 
</g>
<g style="fill:#000000; fill-opacity:1.0; 
stroke:#000000; stroke-width:39.3701; stroke-opacity:1; 
stroke-linecap:round; stroke-linejoin:round;">
</g>
<g style="fill:#000000; fill-opacity:1.0; 
stroke:#000000; stroke-width:0; stroke-opacity:1; 
stroke-linecap:round; stroke-linejoin:round;">
<circle cx="61400" cy="44700" r="314.961" /> 
</g>
<g style="fill:#000000; fill-opacity:1.0; 
stroke:#000000; stroke-width:39.3701; stroke-opacity:1; 
stroke-linecap:round; stroke-linejoin:round;">
</g>
<g style="fill:#000000; fill-opacity:1.0; 
stroke:#000000; stroke-width:0; stroke-opacity:1; 
stroke-linecap:round; stroke-linejoin:round;">
<circle cx="51417.3" cy="44094.5" r="314.961" /> 
</g>
<g style="fill:#000000; fill-opacity:1.0; 
stroke:#000000; stroke-width:39.3701; stroke-opacity:1; 
stroke-linecap:round; stroke-linejoin:round;">
</g>
<g style="fill:#000000; fill-opacity:1.0; 
stroke:#000000; stroke-width:0; stroke-opacity:1; 
stroke-linecap:round; stroke-linejoin:round;">
<circle cx="44724.4" cy="57480.3" r="314.961" /> 
</g>
<g style="fill:#000000; fill-opacity:1.0; 
stroke:#000000; stroke-width:39.3701; stroke-opacity:1; 
stroke-linecap:round; stroke-linejoin:round;">
</g>
<g style="fill:#000000; fill-opacity:1.0; 
stroke:#000000; stroke-width:0; stroke-opacity:1; 
stroke-linecap:round; stroke-linejoin:round;">
<circle cx="47322.8" cy="54409.4" r="314.961" /> 
</g>
<g style="fill:#000000; fill-opacity:1.0; 
stroke:#000000; stroke-width:39.3701; stroke-opacity:1; 
stroke-linecap:round; stroke-linejoin:round;">
</g>
<g style="fill:#000000; fill-opacity:1.0; 
stroke:#000000; stroke-width:0; stroke-opacity:1; 
stroke-linecap:round; stroke-linejoin:round;">
<circle cx="63228.3" cy="54645.7" r="314.961" /> 
</g>
<g style="fill:#000000; fill-opacity:1.0; 
stroke:#000000; stroke-width:39.3701; stroke-opacity:1; 
stroke-linecap:round; stroke-linejoin:round;">
</g>
<g style="fill:#000000; fill-opacity:1.0; 
stroke:#000000; stroke-width:0; stroke-opacity:1; 
stroke-linecap:round; stroke-linejoin:round;">
<circle cx="58897.6" cy="40157.5" r="314.961" /> 
</g>
<g style="fill:#000000; fill-opacity:1.0; 
stroke:#000000; stroke-width:39.3701; stroke-opacity:1; 
stroke-linecap:round; stroke-linejoin:round;">
</g>
<g style="fill:#000000; fill-opacity:1.0; 
stroke:#000000; stroke-width:0; stroke-opacity:1; 
stroke-linecap:round; stroke-linejoin:round;">
<circle cx="44173.2" cy="42913.4" r="314.961" /> 
</g>
<g style="fill:#000000; fill-opacity:1.0; 
stroke:#000000; stroke-width:39.3701; stroke-opacity:1; 
stroke-linecap:round; stroke-linejoin:round;">
</g>
<g style="fill:#000000; fill-opacity:1.0; 
stroke:#000000; stroke-width:0; stroke-opacity:1; 
stroke-linecap:round; stroke-linejoin:round;">
<circle cx="42600" cy="53100" r="433.071" /> 
</g>
<g style="fill:#000000; fill-opacity:1.0; 
stroke:#000000; stroke-width:39.3701; stroke-opacity:1; 
stroke-linecap:round; stroke-linejoin:round;">
</g>
<g style="fill:#000000; fill-opacity:1.0; 
stroke:#000000; stroke-width:0; stroke-opacity:1; 
stroke-linecap:round; stroke-linejoin:round;">
<circle cx="50600" cy="54600" r="433.071" /> 
</g>
<g style="fill:#000000; fill-opacity:1.0; 
stroke:#000000; stroke-width:39.3701; stroke-opacity:1; 
stroke-linecap:round; stroke-linejoin:round;">
</g>
<g style="fill:#000000; fill-opacity:1.0; 
stroke:#000000; stroke-width:0; stroke-opacity:1; 
stroke-linecap:round; stroke-linejoin:round;">
<circle cx="66929.1" cy="54409.4" r="433.071" /> 
</g>
<g style="fill:#000000; fill-opacity:1.0; 
stroke:#000000; stroke-width:39.3701; stroke-opacity:1; 
stroke-linecap:round; stroke-linejoin:round;">
</g>
<g style="fill:#000000; fill-opacity:1.0; 
stroke:#000000; stroke-width:0; stroke-opacity:1; 
stroke-linecap:round; stroke-linejoin:round;">
<circle cx="42200" cy="40000" r="433.071" /> 
</g>
<g style="fill:#000000; fill-opacity:1.0; 
stroke:#000000; stroke-width:39.3701; stroke-opacity:1; 
stroke-linecap:round; stroke-linejoin:round;">
</g>
<g style="fill:#000000; fill-opacity:1.0; 
stroke:#000000; stroke-width:0; stroke-opacity:1; 
stroke-linecap:round; stroke-linejoin:round;">
<circle cx="46700" cy="40000" r="433.071" /> 
</g>
<g style="fill:#000000; fill-opacity:1.0; 
stroke:#000000; stroke-width:39.3701; stroke-opacity:1; 
stroke-linecap:round; stroke-linejoin:round;">
</g>
<g style="fill:#000000; fill-opacity:1.0; 
stroke:#000000; stroke-width:0; stroke-opacity:1; 
stroke-linecap:round; stroke-linejoin:round;">
<circle cx="51100" cy="40000" r="433.071" /> 
</g>
<g style="fill:#000000; fill-opacity:1.0; 
stroke:#000000; stroke-width:39.3701; stroke-opacity:1; 
stroke-linecap:round; stroke-linejoin:round;">
</g>
<g style="fill:#000000; fill-opacity:1.0; 
stroke:#000000; stroke-width:0; stroke-opacity:1; 
stroke-linecap:round; stroke-linejoin:round;">
<circle cx="56700" cy="40000" r="433.071" /> 
</g>
<g style="fill:#000000; fill-opacity:1.0; 
stroke:#000000; stroke-width:39.3701; stroke-opacity:1; 
stroke-linecap:round; stroke-linejoin:round;">
</g>
<g style="fill:#000000; fill-opacity:1.0; 
stroke:#000000; stroke-width:0; stroke-opacity:1; 
stroke-linecap:round; stroke-linejoin:round;">
<circle cx="61400" cy="39800" r="433.071" /> 
</g>
<g style="fill:#000000; fill-opacity:1.0; 
stroke:#000000; stroke-width:39.3701; stroke-opacity:1; 
stroke-linecap:round; stroke-linejoin:round;">
</g>
<g style="fill:#000000; fill-opacity:1.0; 
stroke:#000000; stroke-width:1968.5; stroke-opacity:1; 
stroke-linecap:round; stroke-linejoin:round;">
</g>
<g style="fill:#000000; fill-opacity:0.0; 
stroke:#000000; stroke-width:1968.5; stroke-opacity:1; 
stroke-linecap:round; stroke-linejoin:round;">
<path d="M40700 53100
L40600 53000
" />
<path d="M42600 53100
L40700 53100
" />
<path d="M50251 57200
L49700 57200
" />
<path d="M50600 56851
L50251 57200
" />
<path d="M50600 54600
L50600 56851
" />
<path d="M67220 56700
L67220 54700
" />
<path d="M67220 54700
L66929 54409
" />
<path d="M51200 39900
L51100 40000
" />
<path d="M51200 37850
L51200 39900
" />
<path d="M46700 40000
L46700 37850
" />
<path d="M42200 40000
L42200 37850
" />
<path d="M57000 39700
L56700 40000
" />
<path d="M57000 37800
L57000 39700
" />
<path d="M61400 39800
L61400 37800
" />
</g>
<g style="fill:#000000; fill-opacity:0.0; 
stroke:#000000; stroke-width:196.85; stroke-opacity:1; 
stroke-linecap:round; stroke-linejoin:round;">
<path d="M71062 45507
L71141 45507
" />
<path d="M70472 44917
L71062 45507
" />
<path d="M68800 40700
L70472 42372
" />
<path d="M70472 42372
L70472 44917
" />
</g>
<g style="fill:#000000; fill-opacity:1.0; 
stroke:#000000; stroke-width:100; stroke-opacity:1; 
stroke-linecap:round; stroke-linejoin:round;">
<polyline style="fill-rule:evenodd;"
points="70868,36366
70697,36538
70562,36739
70469,36963
70422,37201
70422,37444
70469,37681
70562,37905
70697,38107
70868,38279
71070,38413
71294,38506
71532,38553
71774,38553
72012,38506
72236,38413
72438,38279
72609,38107
72710,37956
72710,43815
72686,43808
72637,43803
71929,43803
71880,43808
71833,43823
71789,43846
71751,43877
71750,43878
71725,43831
71649,43739
71557,43664
71452,43608
71338,43573
71250,43564
71033,43564
70944,43573
70830,43608
70820,43613
70820,42389
70822,42372
70820,42355
70820,42355
70815,42304
70795,42238
70763,42177
70720,42124
70706,42113
69527,40934
69532,40922
69561,40775
69561,40624
70006,40624
70006,40775
70035,40922
70093,41060
70176,41185
70282,41291
70407,41375
70546,41432
70693,41461
70843,41461
70990,41432
71129,41375
71254,41291
71360,41185
71443,41060
71501,40922
71530,40775
71530,40624
71501,40477
71443,40339
71360,40214
71254,40108
71129,40024
70990,39967
70843,39938
70693,39938
70546,39967
70407,40024
70282,40108
70176,40214
70093,40339
70035,40477
70006,40624
69561,40624
69532,40477
69475,40339
69391,40214
69285,40108
69160,40024
69022,39967
68875,39938
68724,39938
68577,39967
68439,40024
68314,40108
68208,40214
68124,40339
68067,40477
68038,40624
68038,40775
68067,40922
68124,41060
68208,41185
68314,41291
68439,41375
68577,41432
68724,41461
68875,41461
69022,41432
69034,41427
70124,42516
70124,42895
70118,42894
69251,42894
69202,42899
69155,42913
69112,42936
69074,42968
69043,43006
69019,43049
69005,43096
69000,43145
69000,43854
69005,43903
69019,43950
69043,43993
69074,44031
69112,44063
69155,44086
69202,44100
69251,44105
70118,44105
70124,44104
70124,44367
70093,44342
69990,44288
69901,44321
69901,44661
70036,44661
70036,45015
69901,45015
69901,45355
69990,45389
70093,45334
70183,45260
70246,45184
70466,45403
70455,45507
70467,45626
70501,45740
70558,45845
70633,45937
70725,46012
70830,46068
70944,46103
71033,46112
71250,46112
71338,46103
71452,46068
71557,46012
71649,45937
71725,45845
71781,45740
71816,45626
71827,45507
71816,45389
71781,45275
71725,45170
71649,45078
71557,45002
71452,44946
71338,44912
71250,44903
71033,44903
70958,44910
70820,44773
70820,44725
70830,44730
70944,44764
71033,44773
71250,44773
71338,44764
71452,44730
71557,44674
71649,44598
71677,44564
71677,44763
71682,44812
71697,44859
71720,44903
71751,44941
71789,44972
71833,44995
71880,45010
71929,45014
72637,45014
72686,45010
72710,45002
72710,46985
72683,46956
72587,46887
72548,46866
72460,46897
72460,47232
72635,47232
72635,47586
72460,47586
72460,47921
72548,47952
72587,47931
72683,47862
72710,47833
72710,57240
72609,57089
72438,56917
72236,56783
72012,56690
71774,56642
71532,56642
71294,56690
71070,56783
70868,56917
70697,57089
70562,57290
70469,57514
70422,57752
70422,57995
70469,58233
70562,58457
70697,58658
70868,58830
70989,58910
40585,58910
40706,58830
40877,58658
41012,58457
41105,58233
41152,57995
41152,57752
41123,57606
47095,57606
47095,57933
47105,57981
47124,58027
47151,58068
47186,58102
47227,58130
47272,58149
47321,58158
47460,58158
47522,58096
47522,57543
47877,57543
47877,58096
47939,58158
48078,58158
48127,58149
48172,58130
48213,58102
48248,58068
48275,58027
48294,57981
48304,57933
48304,57606
48241,57543
47877,57543
47522,57543
47158,57543
47095,57606
41123,57606
41105,57514
41012,57290
40951,57200
48459,57200
48483,57441
48554,57674
48668,57889
48823,58076
49010,58231
49225,58345
49458,58416
49639,58434
50190,58434
50251,58440
50311,58434
50311,58434
50493,58416
50725,58345
50940,58231
51128,58076
51166,58029
51429,57766
51476,57728
51631,57540
51745,57325
51802,57138
64618,57138
64646,57254
64696,57362
64766,57458
64854,57539
64954,57597
65042,57566
65042,57043
65397,57043
65397,57566
65485,57597
65585,57539
65673,57458
65743,57362
65793,57254
65821,57138
65764,57043
65397,57043
65042,57043
64675,57043
64618,57138
51802,57138
51816,57093
51834,56911
51834,56911
51840,56851
51834,56790
51834,56261
64618,56261
64675,56356
65042,56356
65042,55833
65397,55833
65397,56356
65764,56356
65821,56261
65793,56145
65743,56037
65673,55941
65585,55860
65485,55802
65397,55833
65042,55833
64954,55802
64854,55860
64766,55941
64696,56037
64646,56145
64618,56261
51834,56261
51834,54539
51816,54358
51745,54125
51631,53910
51476,53723
51289,53568
51074,53454
50841,53383
50600,53359
50358,53383
50125,53454
49910,53568
49723,53723
49568,53910
49454,54125
49383,54358
49365,54539
49365,56011
49225,56054
49010,56168
48823,56323
48668,56510
48554,56725
48483,56958
48459,57200
40951,57200
40877,57089
40706,56917
40504,56783
40280,56690
40042,56642
39800,56642
39562,56690
39338,56783
39136,56917
38965,57089
38889,57202
38889,56466
47095,56466
47095,56793
47158,56856
47522,56856
47522,56303
47877,56303
47877,56856
48241,56856
48304,56793
48304,56466
48294,56418
48275,56372
48248,56331
48213,56297
48172,56269
48127,56250
48078,56241
47939,56241
47877,56303
47522,56303
47460,56241
47321,56241
47272,56250
47227,56269
47186,56297
47151,56331
47124,56372
47105,56418
47095,56466
38889,56466
38889,53000
39359,53000
39383,53241
39454,53474
39568,53689
39684,53829
39784,53929
39823,53976
40010,54131
40225,54245
40458,54316
40639,54334
40639,54334
40699,54340
40760,54334
42660,54334
42841,54316
43074,54245
43289,54131
43476,53976
43631,53789
43745,53574
43816,53341
43840,53100
43821,52913
47978,52913
47978,53071
48009,53225
48069,53371
48157,53502
48268,53614
48400,53702
48545,53762
48700,53793
48858,53793
49013,53762
49159,53702
49290,53614
49401,53502
49489,53371
49549,53225
49580,53071
49580,52913
49549,52758
49516,52676
65576,52676
65576,52834
65607,52989
65667,53135
65755,53266
65867,53378
65998,53465
66088,53503
66052,53532
65897,53720
65783,53934
65712,54167
65688,54409
65712,54651
65783,54884
65897,55098
65985,55205
65985,56760
66003,56941
66074,57174
66188,57389
66343,57576
66530,57731
66745,57845
66978,57916
67220,57940
67461,57916
67694,57845
67909,57731
68096,57576
68251,57389
68365,57174
68436,56941
68454,56760
68454,54760
68460,54700
68454,54639
68454,54639
68436,54458
68365,54225
68251,54011
68096,53823
68049,53784
67759,53493
67618,53378
67403,53263
67171,53193
67056,53181
67087,53135
67148,52989
67179,52834
67179,52676
67148,52522
67087,52376
67000,52245
66888,52133
66757,52045
66611,51985
66456,51954
66299,51954
66144,51985
65998,52045
65867,52133
65755,52245
65667,52376
65607,52522
65576,52676
49516,52676
49489,52612
49401,52481
49290,52369
49159,52282
49013,52221
48858,52190
48700,52190
48545,52221
48400,52282
48268,52369
48157,52481
48069,52612
48009,52758
47978,52913
43821,52913
43816,52858
43745,52625
43631,52410
43476,52223
43289,52068
43207,52024
44638,52024
44638,52175
44667,52322
44724,52460
44808,52585
44914,52691
45039,52775
45177,52832
45324,52861
45475,52861
45622,52832
45760,52775
45885,52691
45991,52585
46075,52460
46132,52322
46161,52175
46161,52076
53866,52076
53915,52142
53989,52232
54079,52306
54182,52361
54271,52327
54271,51988
54704,51988
54704,52327
54793,52361
54896,52306
54987,52232
55061,52142
55109,52076
55078,51988
54704,51988
54271,51988
53897,51988
53866,52076
46161,52076
46161,52024
46132,51877
46075,51739
45991,51614
45885,51508
45760,51424
45622,51367
45475,51338
45324,51338
45177,51367
45039,51424
44914,51508
44808,51614
44724,51739
44667,51877
44638,52024
43207,52024
43074,51954
42841,51883
42660,51865
41096,51865
41074,51854
40841,51783
40600,51759
40358,51783
40125,51854
39910,51968
39723,52123
39568,52310
39454,52525
39383,52758
39359,53000
38889,53000
38889,51239
39641,51239
39641,51378
39650,51427
39669,51472
39697,51513
39731,51548
39772,51575
39818,51594
39866,51604
40193,51604
40256,51541
40256,51177
40943,51177
40943,51541
41006,51604
41333,51604
41381,51594
41427,51575
41468,51548
41502,51513
41530,51472
41549,51427
41558,51378
41558,51239
41496,51177
40943,51177
40256,51177
39703,51177
39641,51239
38889,51239
38889,50944
47978,50944
47978,51102
48009,51257
48069,51403
48157,51534
48268,51645
48400,51733
48545,51794
48700,51824
48858,51824
49013,51794
49159,51733
49290,51645
49390,51545
53866,51545
53897,51633
54271,51633
54271,51294
54704,51294
54704,51633
55078,51633
55109,51545
55061,51479
54987,51389
54896,51315
54793,51260
54704,51294
54271,51294
54182,51260
54079,51315
53989,51389
53915,51479
53866,51545
49390,51545
49401,51534
49489,51403
49549,51257
49572,51141
55258,51141
55270,51260
55305,51374
55361,51479
55436,51571
55528,51646
55633,51702
55747,51737
55836,51746
56053,51746
56142,51737
56256,51702
56360,51646
56453,51571
56528,51479
56584,51374
56619,51260
56630,51141
56619,51023
56584,50909
56528,50804
56453,50712
56448,50708
65576,50708
65576,50866
65607,51021
65667,51166
65755,51298
65867,51409
65998,51497
66144,51557
66299,51588
66456,51588
66611,51557
66757,51497
66888,51409
67000,51298
67087,51166
67148,51021
67179,50866
67179,50708
67148,50553
67087,50407
67000,50276
66888,50165
66757,50077
66611,50017
66456,49986
66299,49986
66144,50017
65998,50077
65867,50165
65755,50276
65667,50407
65607,50553
65576,50708
56448,50708
56360,50636
56256,50580
56142,50546
56053,50537
55836,50537
55747,50546
55633,50580
55528,50636
55436,50712
55361,50804
55305,50909
55270,51023
55258,51141
49572,51141
49580,51102
49580,50944
49549,50789
49528,50737
53866,50737
53915,50804
53989,50894
54079,50968
54182,51022
54271,50989
54271,50649
54704,50649
54704,50989
54793,51022
54896,50968
54987,50894
55061,50804
55109,50737
55078,50649
54704,50649
54271,50649
53897,50649
53866,50737
49528,50737
49489,50644
49401,50512
49290,50401
49159,50313
49013,50253
48858,50222
48700,50222
48545,50253
48400,50313
48268,50401
48157,50512
48069,50644
48009,50789
47978,50944
38889,50944
38889,50621
39641,50621
39641,50760
39703,50822
40256,50822
40256,50458
40943,50458
40943,50822
41496,50822
41558,50760
41558,50621
41549,50572
41530,50527
41502,50486
41468,50451
41427,50424
41381,50405
41333,50395
41006,50395
40943,50458
40256,50458
40193,50395
39866,50395
39818,50405
39772,50424
39731,50451
39697,50486
39669,50527
39650,50572
39641,50621
38889,50621
38889,50056
44638,50056
44638,50206
44667,50353
44724,50492
44808,50617
44914,50723
45039,50806
45177,50864
45324,50893
45475,50893
45622,50864
45760,50806
45885,50723
45991,50617
46075,50492
46132,50353
46161,50207
53866,50207
53897,50295
54271,50295
54271,49955
54704,49955
54704,50295
55078,50295
55109,50207
55061,50140
54987,50050
54896,49976
54793,49922
54704,49955
54271,49955
54182,49922
54079,49976
53989,50050
53915,50140
53866,50207
46161,50207
46161,50206
46161,50056
46132,49909
46088,49803
55258,49803
55270,49921
55305,50035
55361,50140
55436,50232
55528,50308
55633,50364
55747,50398
55836,50407
56053,50407
56142,50398
56256,50364
56360,50308
56453,50232
56528,50140
56584,50035
56619,49921
56630,49803
56619,49684
56584,49570
56528,49465
56453,49373
56360,49298
56256,49242
56142,49207
56053,49198
55836,49198
55747,49207
55633,49242
55528,49298
55436,49373
55361,49465
55305,49570
55270,49684
55258,49803
46088,49803
46075,49770
45991,49645
45885,49539
45760,49456
45622,49398
45475,49369
45324,49369
45177,49398
45039,49456
44914,49539
44808,49645
44724,49770
44667,49909
44638,50056
38889,50056
38889,47945
40694,47945
40694,48654
40699,48703
40713,48750
40736,48793
40768,48831
40806,48863
40849,48886
40896,48900
40945,48905
41654,48905
41703,48900
41750,48886
41793,48863
41831,48831
41863,48793
41886,48750
41900,48703
41905,48654
41905,48565
43757,48565
43777,48604
43847,48700
43933,48780
44034,48842
44122,48815
44122,48477
44477,48477
44477,48815
44565,48842
44666,48780
44667,48779
53803,48779
53803,49488
53808,49537
53823,49584
53846,49627
53877,49665
53915,49697
53958,49720
54006,49734
54055,49739
54921,49739
54970,49734
55017,49720
55060,49697
55098,49665
55130,49627
55153,49584
55167,49537
55172,49488
55172,48779
55167,48730
55153,48683
55130,48639
55098,48601
55060,48570
55017,48547
54970,48533
54921,48528
54055,48528
54006,48533
53958,48547
53915,48570
53877,48601
53846,48639
53823,48683
53808,48730
53803,48779
44667,48779
44752,48700
44822,48604
44842,48565
44812,48477
44477,48477
44122,48477
43787,48477
43757,48565
41905,48565
41905,48034
43757,48034
43787,48122
44122,48122
44122,47784
44477,47784
44477,48122
44812,48122
44842,48034
44822,47995
44752,47899
44666,47819
44565,47757
44477,47784
44122,47784
44034,47757
43933,47819
43847,47899
43777,47995
43757,48034
41905,48034
41905,47945
41900,47896
41886,47849
41863,47806
41831,47768
41793,47736
41750,47713
41703,47699
41654,47694
40945,47694
40896,47699
40849,47713
40806,47736
40768,47768
40736,47806
40713,47849
40699,47896
40694,47945
38889,47945
38889,46130
39757,46130
39768,46249
39803,46363
39859,46468
39935,46560
40027,46635
40132,46691
40246,46726
40334,46735
40551,46735
40640,46726
40754,46691
40859,46635
40951,46560
41026,46468
41038,46445
41215,46445
41215,47154
41220,47203
41234,47250
41258,47293
41289,47331
41327,47363
41370,47386
41417,47400
41466,47405
42333,47405
42382,47400
42429,47386
42472,47363
42510,47331
42541,47293
42565,47250
42579,47203
42584,47154
42584,47007
47978,47007
47978,47165
48009,47320
48069,47466
48157,47597
48268,47708
48400,47796
48545,47857
48700,47887
48858,47887
49013,47857
49159,47796
49290,47708
49401,47597
49489,47466
49549,47320
49580,47165
49580,47007
49549,46852
49507,46749
55748,46749
55748,46900
55777,47047
55834,47185
55918,47310
56024,47416
56149,47500
56287,47557
56435,47586
56585,47586
56732,47557
56870,47500
56959,47440
57977,47440
57977,48149
57981,48198
57996,48245
58019,48289
58050,48327
58088,48358
58132,48381
58179,48395
58228,48400
58937,48400
58986,48395
59033,48381
59076,48358
59114,48327
59145,48289
59169,48245
59183,48198
59188,48149
59188,47674
71740,47674
71802,47775
71883,47862
71979,47931
72018,47952
72106,47921
72106,47586
71768,47586
71740,47674
59188,47674
59188,47440
59183,47391
59169,47344
59145,47301
59114,47263
59076,47232
59033,47208
58986,47194
58937,47189
58228,47189
58179,47194
58132,47208
58088,47232
58050,47263
58019,47301
57996,47344
57981,47391
57977,47440
56959,47440
56995,47416
57101,47310
57185,47185
57242,47047
57271,46900
57271,46771
65576,46771
65576,46929
65607,47084
65667,47229
65755,47361
65867,47472
65998,47560
66144,47620
66299,47651
66456,47651
66611,47620
66757,47560
66888,47472
67000,47361
67087,47229
67123,47144
71740,47144
71768,47232
72106,47232
72106,46897
72018,46866
71979,46887
71883,46956
71802,47043
71740,47144
67123,47144
67148,47084
67179,46929
67179,46771
67148,46616
67087,46470
67069,46442
69063,46442
69112,46508
69186,46598
69276,46672
69379,46727
69468,46693
69468,46354
69901,46354
69901,46693
69990,46727
70093,46672
70183,46598
70258,46508
70306,46442
70275,46354
69901,46354
69468,46354
69094,46354
69063,46442
67069,46442
67000,46339
66888,46228
66757,46140
66611,46080
66456,46049
66299,46049
66144,46080
65998,46140
65867,46228
65755,46339
65667,46470
65607,46616
65576,46771
57271,46771
57271,46749
57242,46602
57185,46464
57101,46339
56995,46233
56870,46149
56732,46092
56585,46063
56435,46063
56287,46092
56149,46149
56024,46233
55918,46339
55834,46464
55777,46602
55748,46749
49507,46749
49489,46707
49401,46575
49290,46464
49159,46376
49013,46316
48858,46285
48700,46285
48545,46316
48400,46376
48268,46464
48157,46575
48069,46707
48009,46852
47978,47007
42584,47007
42584,46445
42579,46396
42565,46349
42541,46306
42510,46268
42472,46236
42429,46213
42382,46199
42333,46194
41466,46194
41417,46199
41370,46213
41327,46236
41289,46268
41258,46306
41234,46349
41220,46396
41215,46445
41038,46445
41083,46363
41117,46249
41129,46130
41117,46012
41083,45898
41026,45793
40972,45726
41278,45726
41326,45793
41401,45883
41491,45957
41594,46011
41683,45978
41683,45638
42116,45638
42116,45978
42205,46011
42308,45957
42398,45883
42473,45793
42521,45726
42490,45638
42116,45638
41683,45638
41309,45638
41278,45726
40972,45726
40951,45701
40859,45625
40754,45569
40640,45535
40551,45526
40334,45526
40246,45535
40132,45569
40027,45625
39935,45701
39859,45793
39803,45898
39768,46012
39757,46130
38889,46130
38889,44792
39757,44792
39768,44910
39803,45024
39859,45129
39935,45221
40027,45297
40132,45353
40246,45387
40334,45396
40551,45396
40640,45387
40754,45353
40859,45297
40951,45221
40972,45196
41278,45196
41309,45284
41683,45284
41683,44944
42116,44944
42116,45284
42490,45284
42521,45196
42473,45129
42398,45039
42398,45039
47978,45039
47978,45197
48009,45351
48069,45497
48157,45628
48268,45740
48400,45828
48545,45888
48700,45919
48858,45919
49013,45888
49159,45828
49290,45740
49401,45628
49489,45497
49547,45358
54356,45358
54356,45508
54385,45655
54443,45793
54526,45918
54632,46024
54757,46108
54895,46165
55043,46194
55193,46194
55340,46165
55478,46108
55603,46024
55709,45918
55714,45911
69063,45911
69094,46000
69468,46000
69468,45660
69901,45660
69901,46000
70275,46000
70306,45911
70258,45845
70183,45755
70093,45681
69990,45626
69901,45660
69468,45660
69379,45626
69276,45681
69186,45755
69112,45845
69063,45911
55714,45911
55793,45793
55850,45655
55879,45508
55879,45358
55850,45210
55793,45072
55785,45060
58039,45060
58101,45161
58182,45248
58278,45317
58317,45338
58405,45307
58405,44972
58759,44972
58759,45307
58848,45338
58886,45317
58982,45248
59063,45161
59125,45060
59097,44972
58759,44972
58405,44972
58067,44972
58039,45060
55785,45060
55709,44947
55603,44841
55546,44802
65576,44802
65576,44960
65607,45115
65667,45261
65755,45392
65867,45504
65998,45591
66144,45652
66299,45683
66456,45683
66611,45652
66757,45591
66888,45504
67000,45392
67087,45261
67148,45115
67150,45103
69063,45103
69112,45170
69186,45260
69276,45334
69379,45389
69468,45355
69468,45015
69094,45015
69063,45103
67150,45103
67179,44960
67179,44802
67148,44648
67117,44573
69063,44573
69094,44661
69468,44661
69468,44321
69379,44288
69276,44342
69186,44416
69112,44506
69063,44573
67117,44573
67087,44502
67000,44371
66888,44259
66757,44171
66611,44111
66456,44080
66299,44080
66144,44111
65998,44171
65867,44259
65755,44371
65667,44502
65607,44648
65576,44802
55546,44802
55478,44757
55340,44700
55193,44671
55043,44671
54895,44700
54757,44757
54632,44841
54526,44947
54443,45072
54385,45210
54356,45358
49547,45358
49549,45351
49580,45197
49580,45039
49549,44884
49489,44738
49401,44607
49324,44529
58039,44529
58067,44618
58405,44618
58405,44283
58759,44283
58759,44618
59097,44618
59125,44529
59063,44429
58982,44342
58886,44272
58848,44252
58759,44283
58405,44283
58317,44252
58278,44272
58182,44342
58101,44429
58039,44529
49324,44529
49290,44495
49159,44408
49013,44347
48858,44316
48700,44316
48545,44347
48400,44408
48268,44495
48157,44607
48069,44738
48009,44884
47978,45039
42398,45039
42308,44965
42205,44910
42116,44944
41683,44944
41594,44910
41491,44965
41401,45039
41326,45129
41278,45196
40972,45196
41026,45129
41083,45024
41117,44910
41129,44792
41117,44673
41083,44559
41026,44454
40972,44388
41278,44388
41326,44454
41401,44544
41491,44618
41594,44673
41683,44639
41683,44300
42116,44300
42116,44639
42205,44673
42308,44618
42398,44544
42473,44454
42521,44388
42490,44300
42116,44300
41683,44300
41309,44300
41278,44388
40972,44388
40951,44362
40859,44287
40754,44231
40640,44196
40551,44187
40334,44187
40246,44196
40132,44231
40027,44287
39935,44362
39859,44454
39803,44559
39768,44673
39757,44792
38889,44792
38889,43857
41278,43857
41309,43945
41683,43945
41683,43606
42116,43606
42116,43945
42490,43945
42521,43857
42473,43791
42398,43701
42308,43627
42205,43572
42116,43606
41683,43606
41594,43572
41491,43627
41401,43701
41326,43791
41278,43857
38889,43857
38889,37994
38965,38107
39136,38279
39338,38413
39562,38506
39800,38553
40042,38553
40280,38506
40504,38413
40706,38279
40877,38107
40965,37975
40965,40060
40983,40241
41054,40474
41168,40689
41323,40876
41510,41031
41725,41145
41958,41216
42200,41240
42441,41216
42674,41145
42889,41031
43076,40876
43231,40689
43345,40474
43416,40241
43434,40060
43434,40060
45465,40060
45483,40241
45554,40474
45668,40689
45823,40876
46010,41031
46225,41145
46458,41216
46700,41240
46941,41216
47174,41145
47389,41031
47576,40876
47731,40689
47845,40474
47916,40241
47934,40060
47934,40000
49859,40000
49883,40241
49954,40474
50068,40689
50223,40876
50410,41031
50625,41145
50858,41216
51100,41240
51341,41216
51574,41145
51789,41031
51929,40915
52029,40815
52076,40776
52231,40589
52345,40374
52416,40141
52430,40000
55459,40000
55483,40241
55554,40474
55668,40689
55823,40876
56010,41031
56225,41145
56458,41216
56700,41240
56941,41216
57174,41145
57389,41031
57529,40915
57829,40615
57876,40576
58031,40389
58145,40174
58216,39941
58224,39860
60165,39860
60183,40041
60254,40274
60368,40489
60523,40676
60710,40831
60925,40945
61158,41016
61400,41040
61641,41016
61874,40945
62089,40831
62276,40676
62431,40489
62545,40274
62616,40041
62634,39860
62634,38206
62795,38206
62795,38533
62805,38581
62824,38627
62851,38668
62886,38702
62927,38730
62972,38749
63021,38758
63160,38758
63222,38696
63222,38143
63577,38143
63577,38696
63639,38758
63778,38758
63827,38749
63872,38730
63913,38702
63948,38668
63975,38627
63994,38581
64004,38533
64004,38206
63941,38143
63577,38143
63222,38143
62858,38143
62795,38206
62634,38206
62634,37739
62616,37558
62545,37325
62431,37110
62394,37066
62795,37066
62795,37393
62858,37456
63222,37456
63222,36903
63577,36903
63577,37456
63941,37456
64004,37393
64004,37066
63994,37018
63975,36972
63948,36931
63913,36897
63872,36869
63827,36850
63778,36841
63639,36841
63577,36903
63222,36903
63160,36841
63021,36841
62972,36850
62927,36869
62886,36897
62851,36931
62824,36972
62805,37018
62795,37066
62394,37066
62276,36923
62089,36768
61874,36654
61641,36583
61400,36559
61158,36583
60925,36654
60710,36768
60523,36923
60368,37110
60254,37325
60183,37558
60165,37739
60165,39860
58224,39860
58234,39760
58234,39760
58240,39700
58234,39639
58234,38206
58395,38206
58395,38533
58405,38581
58424,38627
58451,38668
58486,38702
58527,38730
58572,38749
58621,38758
58760,38758
58822,38696
58822,38143
59177,38143
59177,38696
59239,38758
59378,38758
59427,38749
59472,38730
59513,38702
59548,38668
59575,38627
59594,38581
59604,38533
59604,38206
59541,38143
59177,38143
58822,38143
58458,38143
58395,38206
58234,38206
58234,37739
58216,37558
58145,37325
58031,37110
57994,37066
58395,37066
58395,37393
58458,37456
58822,37456
58822,36903
59177,36903
59177,37456
59541,37456
59604,37393
59604,37066
59594,37018
59575,36972
59548,36931
59513,36897
59472,36869
59427,36850
59378,36841
59239,36841
59177,36903
58822,36903
58760,36841
58621,36841
58572,36850
58527,36869
58486,36897
58451,36931
58424,36972
58405,37018
58395,37066
57994,37066
57876,36923
57689,36768
57474,36654
57241,36583
57000,36559
56758,36583
56525,36654
56310,36768
56123,36923
55968,37110
55854,37325
55783,37558
55765,37739
55765,39192
55668,39310
55554,39525
55483,39758
55459,40000
52430,40000
52434,39960
52434,39960
52440,39900
52434,39839
52434,38256
52595,38256
52595,38583
52605,38631
52624,38677
52651,38718
52686,38752
52727,38780
52772,38799
52821,38808
52960,38808
53022,38746
53022,38193
53377,38193
53377,38746
53439,38808
53578,38808
53627,38799
53672,38780
53713,38752
53748,38718
53775,38677
53794,38631
53804,38583
53804,38256
53741,38193
53377,38193
53022,38193
52658,38193
52595,38256
52434,38256
52434,37789
52416,37608
52345,37375
52231,37160
52194,37116
52595,37116
52595,37443
52658,37506
53022,37506
53022,36953
53377,36953
53377,37506
53741,37506
53804,37443
53804,37116
53794,37068
53775,37022
53748,36981
53713,36947
53672,36919
53627,36900
53578,36891
53439,36891
53377,36953
53022,36953
52960,36891
52821,36891
52772,36900
52727,36919
52686,36947
52651,36981
52624,37022
52605,37068
52595,37116
52194,37116
52076,36973
51889,36818
51674,36704
51441,36633
51200,36609
50958,36633
50725,36704
50510,36818
50323,36973
50168,37160
50054,37375
49983,37608
49965,37789
49965,39503
49954,39525
49883,39758
49859,40000
47934,40000
47934,38256
48095,38256
48095,38583
48105,38631
48124,38677
48151,38718
48186,38752
48227,38780
48272,38799
48321,38808
48460,38808
48522,38746
48522,38193
48877,38193
48877,38746
48939,38808
49078,38808
49127,38799
49172,38780
49213,38752
49248,38718
49275,38677
49294,38631
49304,38583
49304,38256
49241,38193
48877,38193
48522,38193
48158,38193
48095,38256
47934,38256
47934,37789
47916,37608
47845,37375
47731,37160
47694,37116
48095,37116
48095,37443
48158,37506
48522,37506
48522,36953
48877,36953
48877,37506
49241,37506
49304,37443
49304,37116
49294,37068
49275,37022
49248,36981
49213,36947
49172,36919
49127,36900
49078,36891
48939,36891
48877,36953
48522,36953
48460,36891
48321,36891
48272,36900
48227,36919
48186,36947
48151,36981
48124,37022
48105,37068
48095,37116
47694,37116
47576,36973
47389,36818
47174,36704
46941,36633
46700,36609
46458,36633
46225,36704
46010,36818
45823,36973
45668,37160
45554,37375
45483,37608
45465,37789
45465,40060
43434,40060
43434,38256
43595,38256
43595,38583
43605,38631
43624,38677
43651,38718
43686,38752
43727,38780
43772,38799
43821,38808
43960,38808
44022,38746
44022,38193
44377,38193
44377,38746
44439,38808
44578,38808
44627,38799
44672,38780
44713,38752
44748,38718
44775,38677
44794,38631
44804,38583
44804,38256
44741,38193
44377,38193
44022,38193
43658,38193
43595,38256
43434,38256
43434,37789
43416,37608
43345,37375
43231,37160
43194,37116
43595,37116
43595,37443
43658,37506
44022,37506
44022,36953
44377,36953
44377,37506
44741,37506
44804,37443
44804,37116
44794,37068
44775,37022
44748,36981
44713,36947
44672,36919
44627,36900
44578,36891
44439,36891
44377,36953
44022,36953
43960,36891
43821,36891
43772,36900
43727,36919
43686,36947
43651,36981
43624,37022
43605,37068
43595,37116
43194,37116
43076,36973
42889,36818
42674,36704
42441,36633
42200,36609
41958,36633
41725,36704
41510,36818
41323,36973
41168,37160
41150,37194
41105,36963
41012,36739
40877,36538
40706,36366
40590,36289
70984,36289
70868,36366
" /> 
</g>
<g style="fill:#FFFFFF; fill-opacity:1.0; 
stroke:#FFFFFF; stroke-width:100; stroke-opacity:1; 
stroke-linecap:round; stroke-linejoin:round;">
</g>
<g style="fill:#FFFFFF; fill-opacity:1.0; 
stroke:#FFFFFF; stroke-width:0; stroke-opacity:1; 
stroke-linecap:round; stroke-linejoin:round;">
<circle cx="63342.5" cy="42633.9" r="68.8976" /> 
</g>
<g style="fill:#FFFFFF; fill-opacity:1.0; 
stroke:#FFFFFF; stroke-width:39.3701; stroke-opacity:1; 
stroke-linecap:round; stroke-linejoin:round;">
</g>
<g style="fill:#FFFFFF; fill-opacity:1.0; 
stroke:#FFFFFF; stroke-width:0; stroke-opacity:1; 
stroke-linecap:round; stroke-linejoin:round;">
<circle cx="53300" cy="42300" r="68.8976" /> 
</g>
<g style="fill:#FFFFFF; fill-opacity:1.0; 
stroke:#FFFFFF; stroke-width:39.3701; stroke-opacity:1; 
stroke-linecap:round; stroke-linejoin:round;">
</g>
<g style="fill:#FFFFFF; fill-opacity:1.0; 
stroke:#FFFFFF; stroke-width:0; stroke-opacity:1; 
stroke-linecap:round; stroke-linejoin:round;">
<circle cx="41800" cy="42400" r="68.8976" /> 
</g>
<g style="fill:#FFFFFF; fill-opacity:1.0; 
stroke:#FFFFFF; stroke-width:39.3701; stroke-opacity:1; 
stroke-linecap:round; stroke-linejoin:round;">
</g>
<g style="fill:#FFFFFF; fill-opacity:1.0; 
stroke:#FFFFFF; stroke-width:0; stroke-opacity:1; 
stroke-linecap:round; stroke-linejoin:round;">
<circle cx="61400" cy="44700" r="68.8976" /> 
</g>
<g style="fill:#FFFFFF; fill-opacity:1.0; 
stroke:#FFFFFF; stroke-width:39.3701; stroke-opacity:1; 
stroke-linecap:round; stroke-linejoin:round;">
</g>
<g style="fill:#FFFFFF; fill-opacity:1.0; 
stroke:#FFFFFF; stroke-width:0; stroke-opacity:1; 
stroke-linecap:round; stroke-linejoin:round;">
<circle cx="51417.3" cy="44094.5" r="68.8976" /> 
</g>
<g style="fill:#FFFFFF; fill-opacity:1.0; 
stroke:#FFFFFF; stroke-width:39.3701; stroke-opacity:1; 
stroke-linecap:round; stroke-linejoin:round;">
</g>
<g style="fill:#FFFFFF; fill-opacity:1.0; 
stroke:#FFFFFF; stroke-width:0; stroke-opacity:1; 
stroke-linecap:round; stroke-linejoin:round;">
<circle cx="44724.4" cy="57480.3" r="68.8976" /> 
</g>
<g style="fill:#FFFFFF; fill-opacity:1.0; 
stroke:#FFFFFF; stroke-width:39.3701; stroke-opacity:1; 
stroke-linecap:round; stroke-linejoin:round;">
</g>
<g style="fill:#FFFFFF; fill-opacity:1.0; 
stroke:#FFFFFF; stroke-width:0; stroke-opacity:1; 
stroke-linecap:round; stroke-linejoin:round;">
<circle cx="47322.8" cy="54409.4" r="68.8976" /> 
</g>
<g style="fill:#FFFFFF; fill-opacity:1.0; 
stroke:#FFFFFF; stroke-width:39.3701; stroke-opacity:1; 
stroke-linecap:round; stroke-linejoin:round;">
</g>
<g style="fill:#FFFFFF; fill-opacity:1.0; 
stroke:#FFFFFF; stroke-width:0; stroke-opacity:1; 
stroke-linecap:round; stroke-linejoin:round;">
<circle cx="63228.3" cy="54645.7" r="68.8976" /> 
</g>
<g style="fill:#FFFFFF; fill-opacity:1.0; 
stroke:#FFFFFF; stroke-width:39.3701; stroke-opacity:1; 
stroke-linecap:round; stroke-linejoin:round;">
</g>
<g style="fill:#FFFFFF; fill-opacity:1.0; 
stroke:#FFFFFF; stroke-width:0; stroke-opacity:1; 
stroke-linecap:round; stroke-linejoin:round;">
<circle cx="58897.6" cy="40157.5" r="68.8976" /> 
</g>
<g style="fill:#FFFFFF; fill-opacity:1.0; 
stroke:#FFFFFF; stroke-width:39.3701; stroke-opacity:1; 
stroke-linecap:round; stroke-linejoin:round;">
</g>
<g style="fill:#FFFFFF; fill-opacity:1.0; 
stroke:#FFFFFF; stroke-width:0; stroke-opacity:1; 
stroke-linecap:round; stroke-linejoin:round;">
<circle cx="44173.2" cy="42913.4" r="68.8976" /> 
</g>
<g style="fill:#FFFFFF; fill-opacity:1.0; 
stroke:#FFFFFF; stroke-width:39.3701; stroke-opacity:1; 
stroke-linecap:round; stroke-linejoin:round;">
</g>
<g style="fill:#FFFFFF; fill-opacity:1.0; 
stroke:#FFFFFF; stroke-width:0; stroke-opacity:1; 
stroke-linecap:round; stroke-linejoin:round;">
<circle cx="42600" cy="53100" r="68.8976" /> 
</g>
<g style="fill:#FFFFFF; fill-opacity:1.0; 
stroke:#FFFFFF; stroke-width:39.3701; stroke-opacity:1; 
stroke-linecap:round; stroke-linejoin:round;">
</g>
<g style="fill:#FFFFFF; fill-opacity:1.0; 
stroke:#FFFFFF; stroke-width:0; stroke-opacity:1; 
stroke-linecap:round; stroke-linejoin:round;">
<circle cx="50600" cy="54600" r="68.8976" /> 
</g>
<g style="fill:#FFFFFF; fill-opacity:1.0; 
stroke:#FFFFFF; stroke-width:39.3701; stroke-opacity:1; 
stroke-linecap:round; stroke-linejoin:round;">
</g>
<g style="fill:#FFFFFF; fill-opacity:1.0; 
stroke:#FFFFFF; stroke-width:0; stroke-opacity:1; 
stroke-linecap:round; stroke-linejoin:round;">
<circle cx="66929.1" cy="54409.4" r="68.8976" /> 
</g>
<g style="fill:#FFFFFF; fill-opacity:1.0; 
stroke:#FFFFFF; stroke-width:39.3701; stroke-opacity:1; 
stroke-linecap:round; stroke-linejoin:round;">
</g>
<g style="fill:#FFFFFF; fill-opacity:1.0; 
stroke:#FFFFFF; stroke-width:0; stroke-opacity:1; 
stroke-linecap:round; stroke-linejoin:round;">
<circle cx="42200" cy="40000" r="68.8976" /> 
</g>
<g style="fill:#FFFFFF; fill-opacity:1.0; 
stroke:#FFFFFF; stroke-width:39.3701; stroke-opacity:1; 
stroke-linecap:round; stroke-linejoin:round;">
</g>
<g style="fill:#FFFFFF; fill-opacity:1.0; 
stroke:#FFFFFF; stroke-width:0; stroke-opacity:1; 
stroke-linecap:round; stroke-linejoin:round;">
<circle cx="46700" cy="40000" r="68.8976" /> 
</g>
<g style="fill:#FFFFFF; fill-opacity:1.0; 
stroke:#FFFFFF; stroke-width:39.3701; stroke-opacity:1; 
stroke-linecap:round; stroke-linejoin:round;">
</g>
<g style="fill:#FFFFFF; fill-opacity:1.0; 
stroke:#FFFFFF; stroke-width:0; stroke-opacity:1; 
stroke-linecap:round; stroke-linejoin:round;">
<circle cx="51100" cy="40000" r="68.8976" /> 
</g>
<g style="fill:#FFFFFF; fill-opacity:1.0; 
stroke:#FFFFFF; stroke-width:39.3701; stroke-opacity:1; 
stroke-linecap:round; stroke-linejoin:round;">
</g>
<g style="fill:#FFFFFF; fill-opacity:1.0; 
stroke:#FFFFFF; stroke-width:0; stroke-opacity:1; 
stroke-linecap:round; stroke-linejoin:round;">
<circle cx="56700" cy="40000" r="68.8976" /> 
</g>
<g style="fill:#FFFFFF; fill-opacity:1.0; 
stroke:#FFFFFF; stroke-width:39.3701; stroke-opacity:1; 
stroke-linecap:round; stroke-linejoin:round;">
</g>
<g style="fill:#FFFFFF; fill-opacity:1.0; 
stroke:#FFFFFF; stroke-width:0; stroke-opacity:1; 
stroke-linecap:round; stroke-linejoin:round;">
<circle cx="61400" cy="39800" r="68.8976" /> 
</g>
<g style="fill:#FFFFFF; fill-opacity:1.0; 
stroke:#FFFFFF; stroke-width:39.3701; stroke-opacity:1; 
stroke-linecap:round; stroke-linejoin:round;">
</g>
<g style="fill:#FFFFFF; fill-opacity:1.0; 
stroke:#FFFFFF; stroke-width:0; stroke-opacity:1; 
stroke-linecap:round; stroke-linejoin:round;">
<circle cx="71653.5" cy="37322.8" r="68.8976" /> 
</g>
<g style="fill:#FFFFFF; fill-opacity:1.0; 
stroke:#FFFFFF; stroke-width:39.3701; stroke-opacity:1; 
stroke-linecap:round; stroke-linejoin:round;">
</g>
<g style="fill:#FFFFFF; fill-opacity:1.0; 
stroke:#FFFFFF; stroke-width:0; stroke-opacity:1; 
stroke-linecap:round; stroke-linejoin:round;">
<circle cx="71653.5" cy="57874" r="68.8976" /> 
</g>
<g style="fill:#FFFFFF; fill-opacity:1.0; 
stroke:#FFFFFF; stroke-width:39.3701; stroke-opacity:1; 
stroke-linecap:round; stroke-linejoin:round;">
</g>
<g style="fill:#FFFFFF; fill-opacity:1.0; 
stroke:#FFFFFF; stroke-width:0; stroke-opacity:1; 
stroke-linecap:round; stroke-linejoin:round;">
<circle cx="39921.3" cy="37322.8" r="68.8976" /> 
</g>
<g style="fill:#FFFFFF; fill-opacity:1.0; 
stroke:#FFFFFF; stroke-width:39.3701; stroke-opacity:1; 
stroke-linecap:round; stroke-linejoin:round;">
</g>
<g style="fill:#FFFFFF; fill-opacity:1.0; 
stroke:#FFFFFF; stroke-width:0; stroke-opacity:1; 
stroke-linecap:round; stroke-linejoin:round;">
<circle cx="58582.7" cy="47795.3" r="68.8976" /> 
</g>
<g style="fill:#FFFFFF; fill-opacity:1.0; 
stroke:#FFFFFF; stroke-width:39.3701; stroke-opacity:1; 
stroke-linecap:round; stroke-linejoin:round;">
</g>
<g style="fill:#FFFFFF; fill-opacity:1.0; 
stroke:#FFFFFF; stroke-width:0; stroke-opacity:1; 
stroke-linecap:round; stroke-linejoin:round;">
<circle cx="58582.7" cy="44795.3" r="68.8976" /> 
</g>
<g style="fill:#FFFFFF; fill-opacity:1.0; 
stroke:#FFFFFF; stroke-width:39.3701; stroke-opacity:1; 
stroke-linecap:round; stroke-linejoin:round;">
</g>
<g style="fill:#FFFFFF; fill-opacity:1.0; 
stroke:#FFFFFF; stroke-width:0; stroke-opacity:1; 
stroke-linecap:round; stroke-linejoin:round;">
<circle cx="44300" cy="48300" r="68.8976" /> 
</g>
<g style="fill:#FFFFFF; fill-opacity:1.0; 
stroke:#FFFFFF; stroke-width:39.3701; stroke-opacity:1; 
stroke-linecap:round; stroke-linejoin:round;">
</g>
<g style="fill:#FFFFFF; fill-opacity:1.0; 
stroke:#FFFFFF; stroke-width:0; stroke-opacity:1; 
stroke-linecap:round; stroke-linejoin:round;">
<circle cx="41300" cy="48300" r="68.8976" /> 
</g>
<g style="fill:#FFFFFF; fill-opacity:1.0; 
stroke:#FFFFFF; stroke-width:39.3701; stroke-opacity:1; 
stroke-linecap:round; stroke-linejoin:round;">
</g>
<g style="fill:#FFFFFF; fill-opacity:1.0; 
stroke:#FFFFFF; stroke-width:0; stroke-opacity:1; 
stroke-linecap:round; stroke-linejoin:round;">
<circle cx="72283.5" cy="44409.4" r="68.8976" /> 
</g>
<g style="fill:#FFFFFF; fill-opacity:1.0; 
stroke:#FFFFFF; stroke-width:39.3701; stroke-opacity:1; 
stroke-linecap:round; stroke-linejoin:round;">
</g>
<g style="fill:#FFFFFF; fill-opacity:1.0; 
stroke:#FFFFFF; stroke-width:0; stroke-opacity:1; 
stroke-linecap:round; stroke-linejoin:round;">
<circle cx="72283.5" cy="47409.4" r="68.8976" /> 
</g>
<g style="fill:#FFFFFF; fill-opacity:1.0; 
stroke:#FFFFFF; stroke-width:39.3701; stroke-opacity:1; 
stroke-linecap:round; stroke-linejoin:round;">
</g>
<g style="fill:#FFFFFF; fill-opacity:1.0; 
stroke:#FFFFFF; stroke-width:0; stroke-opacity:1; 
stroke-linecap:round; stroke-linejoin:round;">
<circle cx="49700" cy="57200" r="68.8976" /> 
</g>
<g style="fill:#FFFFFF; fill-opacity:1.0; 
stroke:#FFFFFF; stroke-width:39.3701; stroke-opacity:1; 
stroke-linecap:round; stroke-linejoin:round;">
</g>
<g style="fill:#FFFFFF; fill-opacity:1.0; 
stroke:#FFFFFF; stroke-width:0; stroke-opacity:1; 
stroke-linecap:round; stroke-linejoin:round;">
<circle cx="47700" cy="57200" r="68.8976" /> 
</g>
<g style="fill:#FFFFFF; fill-opacity:1.0; 
stroke:#FFFFFF; stroke-width:39.3701; stroke-opacity:1; 
stroke-linecap:round; stroke-linejoin:round;">
</g>
<g style="fill:#FFFFFF; fill-opacity:1.0; 
stroke:#FFFFFF; stroke-width:0; stroke-opacity:1; 
stroke-linecap:round; stroke-linejoin:round;">
<circle cx="67220" cy="56700" r="68.8976" /> 
</g>
<g style="fill:#FFFFFF; fill-opacity:1.0; 
stroke:#FFFFFF; stroke-width:39.3701; stroke-opacity:1; 
stroke-linecap:round; stroke-linejoin:round;">
</g>
<g style="fill:#FFFFFF; fill-opacity:1.0; 
stroke:#FFFFFF; stroke-width:0; stroke-opacity:1; 
stroke-linecap:round; stroke-linejoin:round;">
<circle cx="65220" cy="56700" r="68.8976" /> 
</g>
<g style="fill:#FFFFFF; fill-opacity:1.0; 
stroke:#FFFFFF; stroke-width:39.3701; stroke-opacity:1; 
stroke-linecap:round; stroke-linejoin:round;">
</g>
<g style="fill:#FFFFFF; fill-opacity:1.0; 
stroke:#FFFFFF; stroke-width:0; stroke-opacity:1; 
stroke-linecap:round; stroke-linejoin:round;">
<circle cx="59000" cy="37800" r="68.8976" /> 
</g>
<g style="fill:#FFFFFF; fill-opacity:1.0; 
stroke:#FFFFFF; stroke-width:39.3701; stroke-opacity:1; 
stroke-linecap:round; stroke-linejoin:round;">
</g>
<g style="fill:#FFFFFF; fill-opacity:1.0; 
stroke:#FFFFFF; stroke-width:0; stroke-opacity:1; 
stroke-linecap:round; stroke-linejoin:round;">
<circle cx="57000" cy="37800" r="68.8976" /> 
</g>
<g style="fill:#FFFFFF; fill-opacity:1.0; 
stroke:#FFFFFF; stroke-width:39.3701; stroke-opacity:1; 
stroke-linecap:round; stroke-linejoin:round;">
</g>
<g style="fill:#FFFFFF; fill-opacity:1.0; 
stroke:#FFFFFF; stroke-width:0; stroke-opacity:1; 
stroke-linecap:round; stroke-linejoin:round;">
<circle cx="40600" cy="53000" r="68.8976" /> 
</g>
<g style="fill:#FFFFFF; fill-opacity:1.0; 
stroke:#FFFFFF; stroke-width:39.3701; stroke-opacity:1; 
stroke-linecap:round; stroke-linejoin:round;">
</g>
<g style="fill:#FFFFFF; fill-opacity:1.0; 
stroke:#FFFFFF; stroke-width:0; stroke-opacity:1; 
stroke-linecap:round; stroke-linejoin:round;">
<circle cx="40600" cy="51000" r="68.8976" /> 
</g>
<g style="fill:#FFFFFF; fill-opacity:1.0; 
stroke:#FFFFFF; stroke-width:39.3701; stroke-opacity:1; 
stroke-linecap:round; stroke-linejoin:round;">
</g>
<g style="fill:#FFFFFF; fill-opacity:1.0; 
stroke:#FFFFFF; stroke-width:0; stroke-opacity:1; 
stroke-linecap:round; stroke-linejoin:round;">
<circle cx="53200" cy="37850" r="68.8976" /> 
</g>
<g style="fill:#FFFFFF; fill-opacity:1.0; 
stroke:#FFFFFF; stroke-width:39.3701; stroke-opacity:1; 
stroke-linecap:round; stroke-linejoin:round;">
</g>
<g style="fill:#FFFFFF; fill-opacity:1.0; 
stroke:#FFFFFF; stroke-width:0; stroke-opacity:1; 
stroke-linecap:round; stroke-linejoin:round;">
<circle cx="51200" cy="37850" r="68.8976" /> 
</g>
<g style="fill:#FFFFFF; fill-opacity:1.0; 
stroke:#FFFFFF; stroke-width:39.3701; stroke-opacity:1; 
stroke-linecap:round; stroke-linejoin:round;">
</g>
<g style="fill:#FFFFFF; fill-opacity:1.0; 
stroke:#FFFFFF; stroke-width:0; stroke-opacity:1; 
stroke-linecap:round; stroke-linejoin:round;">
<circle cx="46700" cy="37850" r="68.8976" /> 
</g>
<g style="fill:#FFFFFF; fill-opacity:1.0; 
stroke:#FFFFFF; stroke-width:39.3701; stroke-opacity:1; 
stroke-linecap:round; stroke-linejoin:round;">
</g>
<g style="fill:#FFFFFF; fill-opacity:1.0; 
stroke:#FFFFFF; stroke-width:0; stroke-opacity:1; 
stroke-linecap:round; stroke-linejoin:round;">
<circle cx="48700" cy="37850" r="68.8976" /> 
</g>
<g style="fill:#FFFFFF; fill-opacity:1.0; 
stroke:#FFFFFF; stroke-width:39.3701; stroke-opacity:1; 
stroke-linecap:round; stroke-linejoin:round;">
</g>
<g style="fill:#FFFFFF; fill-opacity:1.0; 
stroke:#FFFFFF; stroke-width:0; stroke-opacity:1; 
stroke-linecap:round; stroke-linejoin:round;">
<circle cx="44200" cy="37850" r="68.8976" /> 
</g>
<g style="fill:#FFFFFF; fill-opacity:1.0; 
stroke:#FFFFFF; stroke-width:39.3701; stroke-opacity:1; 
stroke-linecap:round; stroke-linejoin:round;">
</g>
<g style="fill:#FFFFFF; fill-opacity:1.0; 
stroke:#FFFFFF; stroke-width:0; stroke-opacity:1; 
stroke-linecap:round; stroke-linejoin:round;">
<circle cx="42200" cy="37850" r="68.8976" /> 
</g>
<g style="fill:#FFFFFF; fill-opacity:1.0; 
stroke:#FFFFFF; stroke-width:39.3701; stroke-opacity:1; 
stroke-linecap:round; stroke-linejoin:round;">
</g>
<g style="fill:#FFFFFF; fill-opacity:1.0; 
stroke:#FFFFFF; stroke-width:0; stroke-opacity:1; 
stroke-linecap:round; stroke-linejoin:round;">
<circle cx="61400" cy="37800" r="68.8976" /> 
</g>
<g style="fill:#FFFFFF; fill-opacity:1.0; 
stroke:#FFFFFF; stroke-width:39.3701; stroke-opacity:1; 
stroke-linecap:round; stroke-linejoin:round;">
</g>
<g style="fill:#FFFFFF; fill-opacity:1.0; 
stroke:#FFFFFF; stroke-width:0; stroke-opacity:1; 
stroke-linecap:round; stroke-linejoin:round;">
<circle cx="63400" cy="37800" r="68.8976" /> 
</g>
<g style="fill:#FFFFFF; fill-opacity:1.0; 
stroke:#FFFFFF; stroke-width:39.3701; stroke-opacity:1; 
stroke-linecap:round; stroke-linejoin:round;">
</g>
<g style="fill:#FFFFFF; fill-opacity:1.0; 
stroke:#FFFFFF; stroke-width:0; stroke-opacity:1; 
stroke-linecap:round; stroke-linejoin:round;">
<circle cx="55118.1" cy="45433.1" r="68.8976" /> 
</g>
<g style="fill:#FFFFFF; fill-opacity:1.0; 
stroke:#FFFFFF; stroke-width:39.3701; stroke-opacity:1; 
stroke-linecap:round; stroke-linejoin:round;">
</g>
<g style="fill:#FFFFFF; fill-opacity:1.0; 
stroke:#FFFFFF; stroke-width:0; stroke-opacity:1; 
stroke-linecap:round; stroke-linejoin:round;">
<circle cx="56510.1" cy="46825" r="68.8976" /> 
</g>
<g style="fill:#FFFFFF; fill-opacity:1.0; 
stroke:#FFFFFF; stroke-width:39.3701; stroke-opacity:1; 
stroke-linecap:round; stroke-linejoin:round;">
</g>
<g style="fill:#FFFFFF; fill-opacity:1.0; 
stroke:#FFFFFF; stroke-width:0; stroke-opacity:1; 
stroke-linecap:round; stroke-linejoin:round;">
<circle cx="45400" cy="50131.5" r="68.8976" /> 
</g>
<g style="fill:#FFFFFF; fill-opacity:1.0; 
stroke:#FFFFFF; stroke-width:39.3701; stroke-opacity:1; 
stroke-linecap:round; stroke-linejoin:round;">
</g>
<g style="fill:#FFFFFF; fill-opacity:1.0; 
stroke:#FFFFFF; stroke-width:0; stroke-opacity:1; 
stroke-linecap:round; stroke-linejoin:round;">
<circle cx="45400" cy="52100" r="68.8976" /> 
</g>
<g style="fill:#FFFFFF; fill-opacity:1.0; 
stroke:#FFFFFF; stroke-width:39.3701; stroke-opacity:1; 
stroke-linecap:round; stroke-linejoin:round;">
</g>
<g style="fill:#FFFFFF; fill-opacity:1.0; 
stroke:#FFFFFF; stroke-width:0; stroke-opacity:1; 
stroke-linecap:round; stroke-linejoin:round;">
<circle cx="68800" cy="40700" r="68.8976" /> 
</g>
<g style="fill:#FFFFFF; fill-opacity:1.0; 
stroke:#FFFFFF; stroke-width:39.3701; stroke-opacity:1; 
stroke-linecap:round; stroke-linejoin:round;">
</g>
<g style="fill:#FFFFFF; fill-opacity:1.0; 
stroke:#FFFFFF; stroke-width:0; stroke-opacity:1; 
stroke-linecap:round; stroke-linejoin:round;">
<circle cx="70768.5" cy="40700" r="68.8976" /> 
</g>
<g style="fill:#FFFFFF; fill-opacity:1.0; 
stroke:#FFFFFF; stroke-width:39.3701; stroke-opacity:1; 
stroke-linecap:round; stroke-linejoin:round;">
</g>
<g style="fill:#FFFFFF; fill-opacity:1.0; 
stroke:#FFFFFF; stroke-width:0; stroke-opacity:1; 
stroke-linecap:round; stroke-linejoin:round;">
<circle cx="54488.2" cy="51811" r="68.8976" /> 
</g>
<g style="fill:#FFFFFF; fill-opacity:1.0; 
stroke:#FFFFFF; stroke-width:39.3701; stroke-opacity:1; 
stroke-linecap:round; stroke-linejoin:round;">
</g>
<g style="fill:#FFFFFF; fill-opacity:1.0; 
stroke:#FFFFFF; stroke-width:0; stroke-opacity:1; 
stroke-linecap:round; stroke-linejoin:round;">
<circle cx="55944.9" cy="51141.7" r="68.8976" /> 
</g>
<g style="fill:#FFFFFF; fill-opacity:1.0; 
stroke:#FFFFFF; stroke-width:39.3701; stroke-opacity:1; 
stroke-linecap:round; stroke-linejoin:round;">
</g>
<g style="fill:#FFFFFF; fill-opacity:1.0; 
stroke:#FFFFFF; stroke-width:0; stroke-opacity:1; 
stroke-linecap:round; stroke-linejoin:round;">
<circle cx="54488.2" cy="50472.4" r="68.8976" /> 
</g>
<g style="fill:#FFFFFF; fill-opacity:1.0; 
stroke:#FFFFFF; stroke-width:39.3701; stroke-opacity:1; 
stroke-linecap:round; stroke-linejoin:round;">
</g>
<g style="fill:#FFFFFF; fill-opacity:1.0; 
stroke:#FFFFFF; stroke-width:0; stroke-opacity:1; 
stroke-linecap:round; stroke-linejoin:round;">
<circle cx="55944.9" cy="49803.1" r="68.8976" /> 
</g>
<g style="fill:#FFFFFF; fill-opacity:1.0; 
stroke:#FFFFFF; stroke-width:39.3701; stroke-opacity:1; 
stroke-linecap:round; stroke-linejoin:round;">
</g>
<g style="fill:#FFFFFF; fill-opacity:1.0; 
stroke:#FFFFFF; stroke-width:0; stroke-opacity:1; 
stroke-linecap:round; stroke-linejoin:round;">
<circle cx="54488.2" cy="49133.9" r="68.8976" /> 
</g>
<g style="fill:#FFFFFF; fill-opacity:1.0; 
stroke:#FFFFFF; stroke-width:39.3701; stroke-opacity:1; 
stroke-linecap:round; stroke-linejoin:round;">
</g>
<g style="fill:#FFFFFF; fill-opacity:1.0; 
stroke:#FFFFFF; stroke-width:0; stroke-opacity:1; 
stroke-linecap:round; stroke-linejoin:round;">
<circle cx="41900" cy="46800" r="68.8976" /> 
</g>
<g style="fill:#FFFFFF; fill-opacity:1.0; 
stroke:#FFFFFF; stroke-width:39.3701; stroke-opacity:1; 
stroke-linecap:round; stroke-linejoin:round;">
</g>
<g style="fill:#FFFFFF; fill-opacity:1.0; 
stroke:#FFFFFF; stroke-width:0; stroke-opacity:1; 
stroke-linecap:round; stroke-linejoin:round;">
<circle cx="40443.3" cy="46130.7" r="68.8976" /> 
</g>
<g style="fill:#FFFFFF; fill-opacity:1.0; 
stroke:#FFFFFF; stroke-width:39.3701; stroke-opacity:1; 
stroke-linecap:round; stroke-linejoin:round;">
</g>
<g style="fill:#FFFFFF; fill-opacity:1.0; 
stroke:#FFFFFF; stroke-width:0; stroke-opacity:1; 
stroke-linecap:round; stroke-linejoin:round;">
<circle cx="41900" cy="45461.4" r="68.8976" /> 
</g>
<g style="fill:#FFFFFF; fill-opacity:1.0; 
stroke:#FFFFFF; stroke-width:39.3701; stroke-opacity:1; 
stroke-linecap:round; stroke-linejoin:round;">
</g>
<g style="fill:#FFFFFF; fill-opacity:1.0; 
stroke:#FFFFFF; stroke-width:0; stroke-opacity:1; 
stroke-linecap:round; stroke-linejoin:round;">
<circle cx="40443.3" cy="44792.1" r="68.8976" /> 
</g>
<g style="fill:#FFFFFF; fill-opacity:1.0; 
stroke:#FFFFFF; stroke-width:39.3701; stroke-opacity:1; 
stroke-linecap:round; stroke-linejoin:round;">
</g>
<g style="fill:#FFFFFF; fill-opacity:1.0; 
stroke:#FFFFFF; stroke-width:0; stroke-opacity:1; 
stroke-linecap:round; stroke-linejoin:round;">
<circle cx="41900" cy="44122.8" r="68.8976" /> 
</g>
<g style="fill:#FFFFFF; fill-opacity:1.0; 
stroke:#FFFFFF; stroke-width:39.3701; stroke-opacity:1; 
stroke-linecap:round; stroke-linejoin:round;">
</g>
<g style="fill:#FFFFFF; fill-opacity:1.0; 
stroke:#FFFFFF; stroke-width:0; stroke-opacity:1; 
stroke-linecap:round; stroke-linejoin:round;">
<circle cx="69685" cy="43500" r="68.8976" /> 
</g>
<g style="fill:#FFFFFF; fill-opacity:1.0; 
stroke:#FFFFFF; stroke-width:39.3701; stroke-opacity:1; 
stroke-linecap:round; stroke-linejoin:round;">
</g>
<g style="fill:#FFFFFF; fill-opacity:1.0; 
stroke:#FFFFFF; stroke-width:0; stroke-opacity:1; 
stroke-linecap:round; stroke-linejoin:round;">
<circle cx="71141.7" cy="44169.3" r="68.8976" /> 
</g>
<g style="fill:#FFFFFF; fill-opacity:1.0; 
stroke:#FFFFFF; stroke-width:39.3701; stroke-opacity:1; 
stroke-linecap:round; stroke-linejoin:round;">
</g>
<g style="fill:#FFFFFF; fill-opacity:1.0; 
stroke:#FFFFFF; stroke-width:0; stroke-opacity:1; 
stroke-linecap:round; stroke-linejoin:round;">
<circle cx="69685" cy="44838.6" r="68.8976" /> 
</g>
<g style="fill:#FFFFFF; fill-opacity:1.0; 
stroke:#FFFFFF; stroke-width:39.3701; stroke-opacity:1; 
stroke-linecap:round; stroke-linejoin:round;">
</g>
<g style="fill:#FFFFFF; fill-opacity:1.0; 
stroke:#FFFFFF; stroke-width:0; stroke-opacity:1; 
stroke-linecap:round; stroke-linejoin:round;">
<circle cx="71141.7" cy="45507.9" r="68.8976" /> 
</g>
<g style="fill:#FFFFFF; fill-opacity:1.0; 
stroke:#FFFFFF; stroke-width:39.3701; stroke-opacity:1; 
stroke-linecap:round; stroke-linejoin:round;">
</g>
<g style="fill:#FFFFFF; fill-opacity:1.0; 
stroke:#FFFFFF; stroke-width:0; stroke-opacity:1; 
stroke-linecap:round; stroke-linejoin:round;">
<circle cx="69685" cy="46177.2" r="68.8976" /> 
</g>
<g style="fill:#FFFFFF; fill-opacity:1.0; 
stroke:#FFFFFF; stroke-width:39.3701; stroke-opacity:1; 
stroke-linecap:round; stroke-linejoin:round;">
</g>
<g style="fill:#FFFFFF; fill-opacity:1.0; 
stroke:#FFFFFF; stroke-width:0; stroke-opacity:1; 
stroke-linecap:round; stroke-linejoin:round;">
<circle cx="48779.5" cy="52992.1" r="68.8976" /> 
</g>
<g style="fill:#FFFFFF; fill-opacity:1.0; 
stroke:#FFFFFF; stroke-width:39.3701; stroke-opacity:1; 
stroke-linecap:round; stroke-linejoin:round;">
</g>
<g style="fill:#FFFFFF; fill-opacity:1.0; 
stroke:#FFFFFF; stroke-width:0; stroke-opacity:1; 
stroke-linecap:round; stroke-linejoin:round;">
<circle cx="48779.5" cy="51023.6" r="68.8976" /> 
</g>
<g style="fill:#FFFFFF; fill-opacity:1.0; 
stroke:#FFFFFF; stroke-width:39.3701; stroke-opacity:1; 
stroke-linecap:round; stroke-linejoin:round;">
</g>
<g style="fill:#FFFFFF; fill-opacity:1.0; 
stroke:#FFFFFF; stroke-width:0; stroke-opacity:1; 
stroke-linecap:round; stroke-linejoin:round;">
<circle cx="48779.5" cy="45118.1" r="68.8976" /> 
</g>
<g style="fill:#FFFFFF; fill-opacity:1.0; 
stroke:#FFFFFF; stroke-width:39.3701; stroke-opacity:1; 
stroke-linecap:round; stroke-linejoin:round;">
</g>
<g style="fill:#FFFFFF; fill-opacity:1.0; 
stroke:#FFFFFF; stroke-width:0; stroke-opacity:1; 
stroke-linecap:round; stroke-linejoin:round;">
<circle cx="48779.5" cy="47086.6" r="68.8976" /> 
</g>
<g style="fill:#FFFFFF; fill-opacity:1.0; 
stroke:#FFFFFF; stroke-width:39.3701; stroke-opacity:1; 
stroke-linecap:round; stroke-linejoin:round;">
</g>
<g style="fill:#FFFFFF; fill-opacity:1.0; 
stroke:#FFFFFF; stroke-width:0; stroke-opacity:1; 
stroke-linecap:round; stroke-linejoin:round;">
<circle cx="66378" cy="46850.4" r="68.8976" /> 
</g>
<g style="fill:#FFFFFF; fill-opacity:1.0; 
stroke:#FFFFFF; stroke-width:39.3701; stroke-opacity:1; 
stroke-linecap:round; stroke-linejoin:round;">
</g>
<g style="fill:#FFFFFF; fill-opacity:1.0; 
stroke:#FFFFFF; stroke-width:0; stroke-opacity:1; 
stroke-linecap:round; stroke-linejoin:round;">
<circle cx="66378" cy="44881.9" r="68.8976" /> 
</g>
<g style="fill:#FFFFFF; fill-opacity:1.0; 
stroke:#FFFFFF; stroke-width:39.3701; stroke-opacity:1; 
stroke-linecap:round; stroke-linejoin:round;">
</g>
<g style="fill:#FFFFFF; fill-opacity:1.0; 
stroke:#FFFFFF; stroke-width:0; stroke-opacity:1; 
stroke-linecap:round; stroke-linejoin:round;">
<circle cx="66378" cy="50787.4" r="68.8976" /> 
</g>
<g style="fill:#FFFFFF; fill-opacity:1.0; 
stroke:#FFFFFF; stroke-width:39.3701; stroke-opacity:1; 
stroke-linecap:round; stroke-linejoin:round;">
</g>
<g style="fill:#FFFFFF; fill-opacity:1.0; 
stroke:#FFFFFF; stroke-width:0; stroke-opacity:1; 
stroke-linecap:round; stroke-linejoin:round;">
<circle cx="66378" cy="52755.9" r="68.8976" /> 
</g>
<g style="fill:#FFFFFF; fill-opacity:1.0; 
stroke:#FFFFFF; stroke-width:39.3701; stroke-opacity:1; 
stroke-linecap:round; stroke-linejoin:round;">
</g>
<g style="fill:#FFFFFF; fill-opacity:1.0; 
stroke:#FFFFFF; stroke-width:0; stroke-opacity:1; 
stroke-linecap:round; stroke-linejoin:round;">
<circle cx="39921.3" cy="57874" r="68.8976" /> 
</g>
<g style="fill:#FFFFFF; fill-opacity:1.0; 
stroke:#FFFFFF; stroke-width:39.3701; stroke-opacity:1; 
stroke-linecap:round; stroke-linejoin:round;">
</g>
<g style="fill:#000000; fill-opacity:1.0; 
stroke:#000000; stroke-width:39.3701; stroke-opacity:1; 
stroke-linecap:round; stroke-linejoin:round;">
</g> 
</svg>
