M48
; DRILL file {KiCad 9.0.0} date 2025-05-01T09:51:45+0200
; FORMAT={-:-/ absolute / metric / decimal}
; #@! TF.CreationDate,2025-05-01T09:51:45+02:00
; #@! TF.GenerationSoftware,Kicad,Pcbnew,9.0.0
; #@! TF.FileFunction,Plated,1,4,PTH
FMAT,2
METRIC
; #@! TA.AperFunction,Plated,PTH,ViaDrill
T1C0.400
; #@! TA.AperFunction,Plated,PTH,ComponentDrill
T2C0.550
; #@! TA.AperFunction,Plated,PTH,ComponentDrill
T3C0.850
; #@! TA.AperFunction,Plated,PTH,ComponentDrill
T4C1.000
; #@! TA.AperFunction,Plated,PTH,ComponentDrill
T5C1.190
; #@! TA.AperFunction,Plated,PTH,ComponentDrill
T6C1.200
; #@! TA.AperFunction,Plated,PTH,ComponentDrill
T7C3.100
%
G90
G05
T1
X41.148Y-39.878
X41.148Y-42.529
X41.148Y-45.18
X41.148Y-47.831
X41.148Y-50.482
X41.148Y-53.134
X41.148Y-55.785
X41.148Y-58.436
X41.148Y-61.087
X41.148Y-63.738
X41.148Y-66.389
X41.148Y-69.04
X41.148Y-71.691
X41.148Y-74.343
X41.148Y-76.994
X41.148Y-79.645
X41.148Y-82.296
X44.514Y-82.296
X46.977Y-57.886
X47.244Y-69.603
X47.398Y-73.761
X47.879Y-82.296
X49.494Y-63.718
X49.53Y-56.489
X49.53Y-60.032
X49.784Y-110.744
X49.784Y-113.538
X50.038Y-87.884
X50.038Y-91.186
X50.089Y-65.36
X50.8Y-60.299
X51.244Y-82.296
X52.07Y-52.679
X52.07Y-64.617
X52.527Y-73.711
X53.086Y-69.697
X53.086Y-110.744
X53.086Y-113.538
X53.34Y-124.714
X54.61Y-82.296
X55.88Y-91.186
X56.134Y-58.521
X56.388Y-110.744
X56.388Y-113.538
X57.15Y-53.037
X57.975Y-82.296
X60.009Y-53.77
X60.771Y-46.15
X61.341Y-82.296
X64.516Y-94.234
X64.706Y-82.296
X68.072Y-39.878
X68.072Y-42.529
X68.072Y-45.18
X68.072Y-47.831
X68.072Y-50.482
X68.072Y-53.134
X68.072Y-55.785
X68.072Y-58.436
X68.072Y-61.087
X68.072Y-63.738
X68.072Y-66.389
X68.072Y-69.04
X68.072Y-71.691
X68.072Y-74.343
X68.072Y-79.645
X68.072Y-82.296
X69.342Y-94.234
X77.47Y-96.012
X78.486Y-99.568
X78.74Y-76.454
X78.994Y-105.918
X80.01Y-70.866
X81.534Y-74.422
X84.836Y-66.802
X85.852Y-120.65
X88.646Y-55.118
X89.154Y-105.664
X94.488Y-120.65
X95.25Y-66.802
X100.838Y-60.198
X101.092Y-66.802
X101.854Y-120.65
X103.886Y-60.198
X105.664Y-92.964
X109.22Y-120.65
X113.538Y-95.25
X113.538Y-102.616
X113.538Y-115.57
X117.187Y-61.307
X118.364Y-120.65
X118.364Y-125.984
X122.712Y-60.99
X125.984Y-120.396
T4
X44.196Y-55.727
X44.196Y-58.267
X44.196Y-60.807
X44.196Y-63.347
X44.196Y-65.887
X44.196Y-68.427
X47.498Y-86.853
X47.498Y-89.393
X47.498Y-91.933
X47.498Y-94.473
X47.498Y-97.013
X47.498Y-99.553
X47.498Y-102.093
X47.498Y-104.633
X47.498Y-109.474
X47.498Y-112.014
X47.498Y-114.554
X47.498Y-117.094
X47.498Y-119.634
X47.498Y-122.174
X47.498Y-124.714
X47.498Y-127.254
X60.198Y-86.853
X60.198Y-89.393
X60.198Y-91.933
X60.198Y-94.473
X60.198Y-97.013
X60.198Y-99.553
X60.198Y-102.093
X60.198Y-104.633
X60.198Y-109.474
X60.198Y-112.014
X60.198Y-114.554
X60.198Y-117.094
X60.198Y-119.634
X60.198Y-122.174
X60.198Y-124.714
X60.198Y-127.254
X60.706Y-61.569
X60.706Y-64.109
X60.706Y-66.649
X60.706Y-69.189
X60.706Y-71.729
X60.706Y-74.269
X60.706Y-76.809
X63.246Y-61.569
X63.246Y-64.109
X63.246Y-66.649
X63.246Y-69.189
X63.246Y-71.729
X63.246Y-74.269
X63.246Y-76.809
X72.898Y-53.848
X72.898Y-56.388
X72.898Y-58.928
X72.898Y-61.468
X72.898Y-64.008
X72.898Y-66.548
X72.898Y-69.088
X72.898Y-71.628
X72.898Y-74.168
X72.898Y-76.708
X72.898Y-79.248
X72.898Y-81.788
X72.898Y-84.328
X72.898Y-86.868
X72.898Y-89.408
X72.898Y-91.948
X72.898Y-94.488
X72.898Y-97.028
X72.898Y-99.568
X72.898Y-102.108
X72.898Y-104.648
X72.898Y-107.188
X75.438Y-53.848
X75.438Y-56.388
X75.438Y-58.928
X75.438Y-61.468
X75.438Y-64.008
X75.438Y-66.548
X75.438Y-69.088
X75.438Y-71.628
X75.438Y-74.168
X75.438Y-76.708
X75.438Y-79.248
X75.438Y-81.788
X75.438Y-84.328
X75.438Y-86.868
X75.438Y-89.408
X75.438Y-91.948
X75.438Y-94.488
X75.438Y-97.028
X75.438Y-99.568
X75.438Y-102.108
X75.438Y-104.648
X75.438Y-107.188
X97.028Y-55.118
X99.568Y-55.118
X102.108Y-55.118
X104.648Y-55.118
X108.458Y-53.848
X108.458Y-56.388
X108.458Y-58.928
X108.458Y-61.468
X108.458Y-64.008
X108.458Y-66.548
X108.458Y-69.088
X108.458Y-71.628
X108.458Y-74.168
X108.458Y-76.708
X108.458Y-79.248
X108.458Y-81.788
X108.458Y-84.328
X108.458Y-86.868
X108.458Y-89.408
X108.458Y-91.948
X108.458Y-94.488
X108.458Y-97.028
X108.458Y-99.568
X108.458Y-102.108
X108.458Y-104.648
X108.458Y-107.188
X110.998Y-53.848
X110.998Y-56.388
X110.998Y-58.928
X110.998Y-61.468
X110.998Y-64.008
X110.998Y-66.548
X110.998Y-69.088
X110.998Y-71.628
X110.998Y-74.168
X110.998Y-76.708
X110.998Y-79.248
X110.998Y-81.788
X110.998Y-84.328
X110.998Y-86.868
X110.998Y-89.408
X110.998Y-91.948
X110.998Y-94.488
X110.998Y-97.028
X110.998Y-99.568
X110.998Y-102.108
X110.998Y-104.648
X110.998Y-107.188
T5
X39.37Y-90.17
X39.37Y-92.71
X39.37Y-95.25
X39.37Y-97.79
X39.37Y-111.76
X39.37Y-114.3
X39.37Y-116.84
X39.37Y-119.38
X87.376Y-41.402
X87.376Y-43.942
X87.884Y-124.714
X87.884Y-127.254
X87.884Y-129.794
X94.254Y-41.402
X94.254Y-43.942
X96.52Y-124.714
X96.52Y-127.254
X96.52Y-129.794
X101.112Y-41.402
X101.112Y-43.942
X104.902Y-124.714
X104.902Y-127.254
X104.902Y-129.794
X107.95Y-41.402
X107.95Y-43.942
X113.03Y-124.714
X113.03Y-127.254
X113.03Y-129.794
X114.808Y-41.402
X114.808Y-43.942
X115.824Y-114.554
X118.11Y-97.536
X118.11Y-104.648
X118.364Y-114.554
X118.831Y-52.356
X118.831Y-54.896
X118.831Y-57.436
X119.126Y-64.516
X119.126Y-67.056
X119.126Y-69.596
X120.65Y-97.536
X120.65Y-104.648
X120.904Y-114.554
X121.412Y-75.438
X121.412Y-77.978
X121.412Y-80.518
X121.412Y-83.058
X121.412Y-85.598
X121.412Y-88.138
X121.412Y-90.678
X121.646Y-41.402
X121.646Y-43.942
X123.19Y-97.536
X123.19Y-104.648
X123.444Y-114.554
X125.73Y-97.536
X125.73Y-104.648
X125.984Y-114.554
X126.976Y-64.516
X126.976Y-67.056
X126.976Y-69.596
X127.467Y-52.356
X127.467Y-54.896
X127.467Y-57.436
T6
X71.12Y-124.754
X71.12Y-127.254
X73.62Y-124.754
X73.62Y-127.254
X76.12Y-124.754
X76.12Y-127.254
X78.62Y-124.754
X78.62Y-127.254
T7
X74.168Y-49.828
X74.168Y-111.208
X109.728Y-49.828
X109.728Y-111.208
T2
G00X45.401Y-41.141
M15
G01X45.401Y-40.491
M16
G05
G00X53.151Y-41.141
M15
G01X53.151Y-40.491
M16
G05
T3
G00X45.551Y-44.891
M15
G01X45.551Y-44.341
M16
G05
G00X53.001Y-44.891
M15
G01X53.001Y-44.341
M16
G05
M30
