%TF.GenerationSoftware,KiCad,Pcbnew,6.0.4-6f826c9f35~116~ubuntu21.10.1*%
%TF.CreationDate,2022-04-21T21:07:43+02:00*%
%TF.ProjectId,Interco_nucleo_4couches-rounded,496e7465-7263-46f5-9f6e-75636c656f5f,rev?*%
%TF.SameCoordinates,Original*%
%TF.FileFunction,Soldermask,Top*%
%TF.FilePolarity,Negative*%
%FSLAX46Y46*%
G04 Gerber Fmt 4.6, Leading zero omitted, Abs format (unit mm)*
G04 Created by KiCad (PCBNEW 6.0.4-6f826c9f35~116~ubuntu21.10.1) date 2022-04-21 21:07:43*
%MOMM*%
%LPD*%
G01*
G04 APERTURE LIST*
G04 Aperture macros list*
%AMRoundRect*
0 Rectangle with rounded corners*
0 $1 Rounding radius*
0 $2 $3 $4 $5 $6 $7 $8 $9 X,Y pos of 4 corners*
0 Add a 4 corners polygon primitive as box body*
4,1,4,$2,$3,$4,$5,$6,$7,$8,$9,$2,$3,0*
0 Add four circle primitives for the rounded corners*
1,1,$1+$1,$2,$3*
1,1,$1+$1,$4,$5*
1,1,$1+$1,$6,$7*
1,1,$1+$1,$8,$9*
0 Add four rect primitives between the rounded corners*
20,1,$1+$1,$2,$3,$4,$5,0*
20,1,$1+$1,$4,$5,$6,$7,0*
20,1,$1+$1,$6,$7,$8,$9,0*
20,1,$1+$1,$8,$9,$2,$3,0*%
G04 Aperture macros list end*
%ADD10RoundRect,0.250000X-0.650000X0.412500X-0.650000X-0.412500X0.650000X-0.412500X0.650000X0.412500X0*%
%ADD11R,1.700000X1.700000*%
%ADD12O,1.700000X1.700000*%
%ADD13RoundRect,0.250000X-0.412500X-0.650000X0.412500X-0.650000X0.412500X0.650000X-0.412500X0.650000X0*%
%ADD14RoundRect,0.250000X0.412500X0.650000X-0.412500X0.650000X-0.412500X-0.650000X0.412500X-0.650000X0*%
%ADD15RoundRect,0.250000X0.845000X-0.620000X0.845000X0.620000X-0.845000X0.620000X-0.845000X-0.620000X0*%
%ADD16O,2.190000X1.740000*%
%ADD17RoundRect,0.250000X-0.845000X0.620000X-0.845000X-0.620000X0.845000X-0.620000X0.845000X0.620000X0*%
%ADD18RoundRect,0.250000X-1.330000X-1.800000X1.330000X-1.800000X1.330000X1.800000X-1.330000X1.800000X0*%
%ADD19O,3.160000X4.100000*%
%ADD20R,2.200000X2.200000*%
%ADD21O,2.200000X2.200000*%
%ADD22R,1.600000X1.600000*%
%ADD23O,1.600000X1.600000*%
%ADD24C,3.200000*%
%ADD25R,2.000000X1.500000*%
%ADD26R,2.000000X3.800000*%
%ADD27RoundRect,0.250000X1.330000X1.800000X-1.330000X1.800000X-1.330000X-1.800000X1.330000X-1.800000X0*%
%ADD28R,2.000000X1.905000*%
%ADD29O,2.000000X1.905000*%
%ADD30RoundRect,0.250000X0.475000X-0.337500X0.475000X0.337500X-0.475000X0.337500X-0.475000X-0.337500X0*%
%ADD31RoundRect,0.250000X0.650000X-0.412500X0.650000X0.412500X-0.650000X0.412500X-0.650000X-0.412500X0*%
G04 APERTURE END LIST*
D10*
%TO.C,C74*%
X69850000Y-125730000D03*
X69850000Y-128855000D03*
%TD*%
D11*
%TO.C,J28*%
X121666000Y-129794000D03*
D12*
X121666000Y-127254000D03*
X121666000Y-124714000D03*
X121666000Y-122174000D03*
X121666000Y-119634000D03*
X121666000Y-117094000D03*
%TD*%
D11*
%TO.C,U12*%
X66548000Y-83820000D03*
D12*
X69088000Y-83820000D03*
X71628000Y-83820000D03*
X74168000Y-83820000D03*
X76708000Y-83820000D03*
X79248000Y-83820000D03*
X81788000Y-83820000D03*
X84328000Y-83820000D03*
X84328000Y-71120000D03*
X81788000Y-71120000D03*
X79248000Y-71120000D03*
X76708000Y-71120000D03*
X74168000Y-71120000D03*
X71628000Y-71120000D03*
X69088000Y-71120000D03*
D11*
X66548000Y-71120000D03*
%TD*%
D13*
%TO.C,C515*%
X80264000Y-91186000D03*
X83389000Y-91186000D03*
%TD*%
D14*
%TO.C,C52*%
X63754000Y-88392000D03*
X60629000Y-88392000D03*
%TD*%
D15*
%TO.C,J34*%
X127762000Y-94234000D03*
D16*
X127762000Y-91694000D03*
%TD*%
D17*
%TO.C,J41*%
X38862000Y-90678000D03*
D16*
X38862000Y-93218000D03*
%TD*%
D18*
%TO.C,J52*%
X98910000Y-127000000D03*
D19*
X102870000Y-127000000D03*
%TD*%
D20*
%TO.C,D22*%
X101600000Y-52832000D03*
D21*
X101600000Y-62992000D03*
%TD*%
D15*
%TO.C,J12*%
X89916000Y-81280000D03*
D16*
X89916000Y-78740000D03*
X89916000Y-76200000D03*
X89916000Y-73660000D03*
%TD*%
D22*
%TO.C,SW20*%
X59182000Y-65532000D03*
D23*
X61722000Y-65532000D03*
X61722000Y-57912000D03*
X59182000Y-57912000D03*
%TD*%
D20*
%TO.C,D20*%
X101600000Y-66294000D03*
D21*
X101600000Y-76454000D03*
%TD*%
D10*
%TO.C,C513*%
X81280000Y-127000000D03*
X81280000Y-130125000D03*
%TD*%
D15*
%TO.C,J24*%
X106680000Y-86106000D03*
D16*
X106680000Y-83566000D03*
%TD*%
D24*
%TO.C,H2*%
X37846000Y-44196000D03*
%TD*%
D14*
%TO.C,C53*%
X63754000Y-105664000D03*
X60629000Y-105664000D03*
%TD*%
D17*
%TO.C,J43*%
X38862000Y-98044000D03*
D16*
X38862000Y-100584000D03*
%TD*%
D24*
%TO.C,H0*%
X129286000Y-128016000D03*
%TD*%
D11*
%TO.C,J29*%
X118110000Y-129794000D03*
D12*
X118110000Y-127254000D03*
X118110000Y-124714000D03*
X118110000Y-122174000D03*
X118110000Y-119634000D03*
X118110000Y-117094000D03*
%TD*%
D13*
%TO.C,C56*%
X104140000Y-80518000D03*
X107265000Y-80518000D03*
%TD*%
D25*
%TO.C,U70*%
X78690000Y-129046000D03*
X78690000Y-126746000D03*
D26*
X72390000Y-126746000D03*
D25*
X78690000Y-124446000D03*
%TD*%
D27*
%TO.C,J500*%
X76858000Y-44450000D03*
D19*
X72898000Y-44450000D03*
%TD*%
D28*
%TO.C,Q21*%
X98298000Y-87884000D03*
D29*
X98298000Y-85344000D03*
X98298000Y-82804000D03*
%TD*%
D14*
%TO.C,C58*%
X41402000Y-76962000D03*
X38277000Y-76962000D03*
%TD*%
D13*
%TO.C,C54*%
X104140000Y-53594000D03*
X107265000Y-53594000D03*
%TD*%
D15*
%TO.C,J22*%
X99822000Y-118618000D03*
D16*
X99822000Y-116078000D03*
X99822000Y-113538000D03*
%TD*%
D13*
%TO.C,C55*%
X104140000Y-67056000D03*
X107265000Y-67056000D03*
%TD*%
D15*
%TO.C,J21*%
X99822000Y-109220000D03*
D16*
X99822000Y-106680000D03*
X99822000Y-104140000D03*
%TD*%
D11*
%TO.C,U20*%
X66548000Y-66548000D03*
D12*
X69088000Y-66548000D03*
X71628000Y-66548000D03*
X74168000Y-66548000D03*
X76708000Y-66548000D03*
X79248000Y-66548000D03*
X81788000Y-66548000D03*
X84328000Y-66548000D03*
X84328000Y-53848000D03*
X81788000Y-53848000D03*
X79248000Y-53848000D03*
X76708000Y-53848000D03*
X74168000Y-53848000D03*
X71628000Y-53848000D03*
X69088000Y-53848000D03*
D11*
X66548000Y-53848000D03*
%TD*%
D15*
%TO.C,J36*%
X120015000Y-62230000D03*
D16*
X120015000Y-59690000D03*
X120015000Y-57150000D03*
X120015000Y-54610000D03*
%TD*%
D17*
%TO.C,J26*%
X38862000Y-63754000D03*
D16*
X38862000Y-66294000D03*
X38862000Y-68834000D03*
X38862000Y-71374000D03*
X38862000Y-73914000D03*
%TD*%
D15*
%TO.C,J25*%
X106680000Y-59182000D03*
D16*
X106680000Y-56642000D03*
%TD*%
D13*
%TO.C,C516*%
X80264000Y-73914000D03*
X83389000Y-73914000D03*
%TD*%
D11*
%TO.C,J03*%
X50546000Y-86360000D03*
D12*
X50546000Y-88900000D03*
X50546000Y-91440000D03*
X50546000Y-93980000D03*
%TD*%
D11*
%TO.C,J54*%
X49276000Y-131826000D03*
D12*
X51816000Y-131826000D03*
X54356000Y-131826000D03*
X56896000Y-131826000D03*
X59436000Y-131826000D03*
X61976000Y-131826000D03*
%TD*%
D24*
%TO.C,H1*%
X129286000Y-44196000D03*
%TD*%
D10*
%TO.C,C57*%
X104648000Y-95885000D03*
X104648000Y-99010000D03*
%TD*%
D30*
%TO.C,R23*%
X115316000Y-119169000D03*
X115316000Y-117094000D03*
%TD*%
D31*
%TO.C,C591*%
X95250000Y-110059000D03*
X95250000Y-106934000D03*
%TD*%
D10*
%TO.C,C590*%
X95250000Y-116332000D03*
X95250000Y-119457000D03*
%TD*%
D24*
%TO.C,H3*%
X37846000Y-128016000D03*
%TD*%
D15*
%TO.C,J11*%
X89916000Y-98552000D03*
D16*
X89916000Y-96012000D03*
X89916000Y-93472000D03*
X89916000Y-90932000D03*
%TD*%
D22*
%TO.C,SW12*%
X59182000Y-82804000D03*
D23*
X61722000Y-82804000D03*
X61722000Y-75184000D03*
X59182000Y-75184000D03*
%TD*%
D15*
%TO.C,J23*%
X106680000Y-72644000D03*
D16*
X106680000Y-70104000D03*
%TD*%
D22*
%TO.C,SW10*%
X59182000Y-117348000D03*
D23*
X61722000Y-117348000D03*
X61722000Y-109728000D03*
X59182000Y-109728000D03*
%TD*%
D17*
%TO.C,J40*%
X38862000Y-80010000D03*
D16*
X38862000Y-82550000D03*
%TD*%
D27*
%TO.C,J502*%
X67460000Y-44450000D03*
D19*
X63500000Y-44450000D03*
%TD*%
D10*
%TO.C,C72*%
X88900000Y-124714000D03*
X88900000Y-127839000D03*
%TD*%
D15*
%TO.C,J32*%
X127762000Y-81534000D03*
D16*
X127762000Y-78994000D03*
%TD*%
D15*
%TO.C,J33*%
X127762000Y-87884000D03*
D16*
X127762000Y-85344000D03*
%TD*%
D15*
%TO.C,J42*%
X127762000Y-114554000D03*
D16*
X127762000Y-112014000D03*
%TD*%
D31*
%TO.C,C512*%
X115316000Y-54356000D03*
X115316000Y-51231000D03*
%TD*%
D13*
%TO.C,C514*%
X80264000Y-108458000D03*
X83389000Y-108458000D03*
%TD*%
D11*
%TO.C,J60*%
X107696000Y-117856000D03*
D12*
X107696000Y-120396000D03*
X107696000Y-122936000D03*
X107696000Y-125476000D03*
X107696000Y-128016000D03*
X107696000Y-130556000D03*
%TD*%
D27*
%TO.C,J51*%
X105560000Y-44450000D03*
D19*
X101600000Y-44450000D03*
%TD*%
D27*
%TO.C,J501*%
X86256000Y-44450000D03*
D19*
X82296000Y-44450000D03*
%TD*%
D11*
%TO.C,J39*%
X114808000Y-104902000D03*
D12*
X114808000Y-102362000D03*
X114808000Y-99822000D03*
X114808000Y-97282000D03*
X114808000Y-94742000D03*
X114808000Y-92202000D03*
%TD*%
D10*
%TO.C,C73*%
X67310000Y-125730000D03*
X67310000Y-128855000D03*
%TD*%
%TO.C,C71*%
X86360000Y-124714000D03*
X86360000Y-127839000D03*
%TD*%
D20*
%TO.C,D21*%
X101600000Y-79756000D03*
D21*
X101600000Y-89916000D03*
%TD*%
D11*
%TO.C,J04*%
X114808000Y-88392000D03*
D12*
X114808000Y-85852000D03*
X114808000Y-83312000D03*
X114808000Y-80772000D03*
%TD*%
D15*
%TO.C,D40*%
X109220000Y-114046000D03*
D16*
X109220000Y-111506000D03*
X109220000Y-108966000D03*
X109220000Y-106426000D03*
%TD*%
D14*
%TO.C,C51*%
X63754000Y-71120000D03*
X60629000Y-71120000D03*
%TD*%
D13*
%TO.C,C510*%
X40132000Y-116078000D03*
X43257000Y-116078000D03*
%TD*%
D11*
%TO.C,U11*%
X66548000Y-101092000D03*
D12*
X69088000Y-101092000D03*
X71628000Y-101092000D03*
X74168000Y-101092000D03*
X76708000Y-101092000D03*
X79248000Y-101092000D03*
X81788000Y-101092000D03*
X84328000Y-101092000D03*
X84328000Y-88392000D03*
X81788000Y-88392000D03*
X79248000Y-88392000D03*
X76708000Y-88392000D03*
X74168000Y-88392000D03*
X71628000Y-88392000D03*
X69088000Y-88392000D03*
D11*
X66548000Y-88392000D03*
%TD*%
D13*
%TO.C,C517*%
X80264000Y-56642000D03*
X83389000Y-56642000D03*
%TD*%
D17*
%TO.C,J38*%
X38862000Y-105410000D03*
D16*
X38862000Y-107950000D03*
X38862000Y-110490000D03*
X38862000Y-113030000D03*
%TD*%
D15*
%TO.C,J31*%
X127762000Y-75184000D03*
D16*
X127762000Y-72644000D03*
%TD*%
D15*
%TO.C,J20*%
X99822000Y-99822000D03*
D16*
X99822000Y-97282000D03*
X99822000Y-94742000D03*
%TD*%
D15*
%TO.C,J30*%
X127762000Y-68834000D03*
D16*
X127762000Y-66294000D03*
%TD*%
D31*
%TO.C,C592*%
X95250000Y-100661000D03*
X95250000Y-97536000D03*
%TD*%
D14*
%TO.C,C511*%
X41656000Y-86614000D03*
X38531000Y-86614000D03*
%TD*%
D15*
%TO.C,J35*%
X127762000Y-100584000D03*
D16*
X127762000Y-98044000D03*
%TD*%
D15*
%TO.C,J27*%
X89916000Y-64008000D03*
D16*
X89916000Y-61468000D03*
X89916000Y-58928000D03*
X89916000Y-56388000D03*
%TD*%
D28*
%TO.C,Q20*%
X98298000Y-74422000D03*
D29*
X98298000Y-71882000D03*
X98298000Y-69342000D03*
%TD*%
D15*
%TO.C,J37*%
X109220000Y-102362000D03*
D16*
X109220000Y-99822000D03*
X109220000Y-97282000D03*
X109220000Y-94742000D03*
%TD*%
D14*
%TO.C,C50*%
X63754000Y-53848000D03*
X60629000Y-53848000D03*
%TD*%
D11*
%TO.C,J53*%
X49276000Y-129286000D03*
D12*
X51816000Y-129286000D03*
X54356000Y-129286000D03*
X56896000Y-129286000D03*
X59436000Y-129286000D03*
X61976000Y-129286000D03*
%TD*%
D10*
%TO.C,C518*%
X115062000Y-121158000D03*
X115062000Y-124283000D03*
%TD*%
D22*
%TO.C,SW11*%
X59182000Y-100076000D03*
D23*
X61722000Y-100076000D03*
X61722000Y-92456000D03*
X59182000Y-92456000D03*
%TD*%
D11*
%TO.C,U10*%
X66548000Y-118364000D03*
D12*
X69088000Y-118364000D03*
X71628000Y-118364000D03*
X74168000Y-118364000D03*
X76708000Y-118364000D03*
X79248000Y-118364000D03*
X81788000Y-118364000D03*
X84328000Y-118364000D03*
X84328000Y-105664000D03*
X81788000Y-105664000D03*
X79248000Y-105664000D03*
X76708000Y-105664000D03*
X74168000Y-105664000D03*
X71628000Y-105664000D03*
X69088000Y-105664000D03*
D11*
X66548000Y-105664000D03*
%TD*%
D10*
%TO.C,C70*%
X83820000Y-124714000D03*
X83820000Y-127839000D03*
%TD*%
D11*
%TO.C,J61*%
X110236000Y-117856000D03*
D12*
X110236000Y-120396000D03*
X110236000Y-122936000D03*
X110236000Y-125476000D03*
X110236000Y-128016000D03*
X110236000Y-130556000D03*
%TD*%
D28*
%TO.C,Q22*%
X98298000Y-60960000D03*
D29*
X98298000Y-58420000D03*
X98298000Y-55880000D03*
%TD*%
D30*
%TO.C,R22*%
X124460000Y-119423000D03*
X124460000Y-117348000D03*
%TD*%
D15*
%TO.C,J10*%
X89916000Y-115824000D03*
D16*
X89916000Y-113284000D03*
X89916000Y-110744000D03*
X89916000Y-108204000D03*
%TD*%
D11*
%TO.C,J01*%
X46990000Y-113030000D03*
D12*
X44450000Y-113030000D03*
X46990000Y-110490000D03*
X44450000Y-110490000D03*
X46990000Y-107950000D03*
X44450000Y-107950000D03*
X46990000Y-105410000D03*
X44450000Y-105410000D03*
X46990000Y-102870000D03*
X44450000Y-102870000D03*
X46990000Y-100330000D03*
X44450000Y-100330000D03*
X46990000Y-97790000D03*
X44450000Y-97790000D03*
X46990000Y-95250000D03*
X44450000Y-95250000D03*
X46990000Y-92710000D03*
X44450000Y-92710000D03*
X46990000Y-90170000D03*
X44450000Y-90170000D03*
X46990000Y-87630000D03*
X44450000Y-87630000D03*
X46990000Y-85090000D03*
X44450000Y-85090000D03*
X46990000Y-82550000D03*
X44450000Y-82550000D03*
X46990000Y-80010000D03*
X44450000Y-80010000D03*
X46990000Y-77470000D03*
X44450000Y-77470000D03*
X46990000Y-74930000D03*
X44450000Y-74930000D03*
X46990000Y-72390000D03*
X44450000Y-72390000D03*
X46990000Y-69850000D03*
X44450000Y-69850000D03*
X46990000Y-67310000D03*
X44450000Y-67310000D03*
%TD*%
D11*
%TO.C,J02*%
X121158000Y-113030000D03*
D12*
X118618000Y-113030000D03*
X121158000Y-110490000D03*
X118618000Y-110490000D03*
X121158000Y-107950000D03*
X118618000Y-107950000D03*
X121158000Y-105410000D03*
X118618000Y-105410000D03*
X121158000Y-102870000D03*
X118618000Y-102870000D03*
X121158000Y-100330000D03*
X118618000Y-100330000D03*
X121158000Y-97790000D03*
X118618000Y-97790000D03*
X121158000Y-95250000D03*
X118618000Y-95250000D03*
X121158000Y-92710000D03*
X118618000Y-92710000D03*
X121158000Y-90170000D03*
X118618000Y-90170000D03*
X121158000Y-87630000D03*
X118618000Y-87630000D03*
X121158000Y-85090000D03*
X118618000Y-85090000D03*
X121158000Y-82550000D03*
X118618000Y-82550000D03*
X121158000Y-80010000D03*
X118618000Y-80010000D03*
X121158000Y-77470000D03*
X118618000Y-77470000D03*
X121158000Y-74930000D03*
X118618000Y-74930000D03*
X121158000Y-72390000D03*
X118618000Y-72390000D03*
X121158000Y-69850000D03*
X118618000Y-69850000D03*
X121158000Y-67310000D03*
X118618000Y-67310000D03*
%TD*%
M02*
