%TF.GenerationSoftware,KiCad,Pcbnew,6.0.4-6f826c9f35~116~ubuntu21.10.1*%
%TF.CreationDate,2022-04-21T21:07:43+02:00*%
%TF.ProjectId,Interco_nucleo_4couches-rounded,496e7465-7263-46f5-9f6e-75636c656f5f,rev?*%
%TF.SameCoordinates,Original*%
%TF.FileFunction,Paste,Top*%
%TF.FilePolarity,Positive*%
%FSLAX46Y46*%
G04 Gerber Fmt 4.6, Leading zero omitted, Abs format (unit mm)*
G04 Created by KiCad (PCBNEW 6.0.4-6f826c9f35~116~ubuntu21.10.1) date 2022-04-21 21:07:43*
%MOMM*%
%LPD*%
G01*
G04 APERTURE LIST*
G04 Aperture macros list*
%AMRoundRect*
0 Rectangle with rounded corners*
0 $1 Rounding radius*
0 $2 $3 $4 $5 $6 $7 $8 $9 X,Y pos of 4 corners*
0 Add a 4 corners polygon primitive as box body*
4,1,4,$2,$3,$4,$5,$6,$7,$8,$9,$2,$3,0*
0 Add four circle primitives for the rounded corners*
1,1,$1+$1,$2,$3*
1,1,$1+$1,$4,$5*
1,1,$1+$1,$6,$7*
1,1,$1+$1,$8,$9*
0 Add four rect primitives between the rounded corners*
20,1,$1+$1,$2,$3,$4,$5,0*
20,1,$1+$1,$4,$5,$6,$7,0*
20,1,$1+$1,$6,$7,$8,$9,0*
20,1,$1+$1,$8,$9,$2,$3,0*%
G04 Aperture macros list end*
%ADD10RoundRect,0.250000X-0.650000X0.412500X-0.650000X-0.412500X0.650000X-0.412500X0.650000X0.412500X0*%
%ADD11RoundRect,0.250000X-0.412500X-0.650000X0.412500X-0.650000X0.412500X0.650000X-0.412500X0.650000X0*%
%ADD12RoundRect,0.250000X0.412500X0.650000X-0.412500X0.650000X-0.412500X-0.650000X0.412500X-0.650000X0*%
%ADD13R,2.000000X1.500000*%
%ADD14R,2.000000X3.800000*%
%ADD15RoundRect,0.250000X0.475000X-0.337500X0.475000X0.337500X-0.475000X0.337500X-0.475000X-0.337500X0*%
%ADD16RoundRect,0.250000X0.650000X-0.412500X0.650000X0.412500X-0.650000X0.412500X-0.650000X-0.412500X0*%
G04 APERTURE END LIST*
D10*
%TO.C,C74*%
X69850000Y-125730000D03*
X69850000Y-128855000D03*
%TD*%
D11*
%TO.C,C515*%
X80264000Y-91186000D03*
X83389000Y-91186000D03*
%TD*%
D12*
%TO.C,C52*%
X63754000Y-88392000D03*
X60629000Y-88392000D03*
%TD*%
D10*
%TO.C,C513*%
X81280000Y-127000000D03*
X81280000Y-130125000D03*
%TD*%
D12*
%TO.C,C53*%
X63754000Y-105664000D03*
X60629000Y-105664000D03*
%TD*%
D11*
%TO.C,C56*%
X104140000Y-80518000D03*
X107265000Y-80518000D03*
%TD*%
D13*
%TO.C,U70*%
X78690000Y-129046000D03*
X78690000Y-126746000D03*
D14*
X72390000Y-126746000D03*
D13*
X78690000Y-124446000D03*
%TD*%
D12*
%TO.C,C58*%
X41402000Y-76962000D03*
X38277000Y-76962000D03*
%TD*%
D11*
%TO.C,C54*%
X104140000Y-53594000D03*
X107265000Y-53594000D03*
%TD*%
%TO.C,C55*%
X104140000Y-67056000D03*
X107265000Y-67056000D03*
%TD*%
%TO.C,C516*%
X80264000Y-73914000D03*
X83389000Y-73914000D03*
%TD*%
D10*
%TO.C,C57*%
X104648000Y-95885000D03*
X104648000Y-99010000D03*
%TD*%
D15*
%TO.C,R23*%
X115316000Y-119169000D03*
X115316000Y-117094000D03*
%TD*%
D16*
%TO.C,C591*%
X95250000Y-110059000D03*
X95250000Y-106934000D03*
%TD*%
D10*
%TO.C,C590*%
X95250000Y-116332000D03*
X95250000Y-119457000D03*
%TD*%
%TO.C,C72*%
X88900000Y-124714000D03*
X88900000Y-127839000D03*
%TD*%
D16*
%TO.C,C512*%
X115316000Y-54356000D03*
X115316000Y-51231000D03*
%TD*%
D11*
%TO.C,C514*%
X80264000Y-108458000D03*
X83389000Y-108458000D03*
%TD*%
D10*
%TO.C,C73*%
X67310000Y-125730000D03*
X67310000Y-128855000D03*
%TD*%
%TO.C,C71*%
X86360000Y-124714000D03*
X86360000Y-127839000D03*
%TD*%
D12*
%TO.C,C51*%
X63754000Y-71120000D03*
X60629000Y-71120000D03*
%TD*%
D11*
%TO.C,C510*%
X40132000Y-116078000D03*
X43257000Y-116078000D03*
%TD*%
%TO.C,C517*%
X80264000Y-56642000D03*
X83389000Y-56642000D03*
%TD*%
D16*
%TO.C,C592*%
X95250000Y-100661000D03*
X95250000Y-97536000D03*
%TD*%
D12*
%TO.C,C511*%
X41656000Y-86614000D03*
X38531000Y-86614000D03*
%TD*%
%TO.C,C50*%
X63754000Y-53848000D03*
X60629000Y-53848000D03*
%TD*%
D10*
%TO.C,C518*%
X115062000Y-121158000D03*
X115062000Y-124283000D03*
%TD*%
%TO.C,C70*%
X83820000Y-124714000D03*
X83820000Y-127839000D03*
%TD*%
D15*
%TO.C,R22*%
X124460000Y-119423000D03*
X124460000Y-117348000D03*
%TD*%
M02*
