%TF.GenerationSoftware,KiCad,Pcbnew,6.0.4-6f826c9f35~116~ubuntu21.10.1*%
%TF.CreationDate,2022-04-21T21:07:43+02:00*%
%TF.ProjectId,Interco_nucleo_4couches-rounded,496e7465-7263-46f5-9f6e-75636c656f5f,rev?*%
%TF.SameCoordinates,Original*%
%TF.FileFunction,Paste,Bot*%
%TF.FilePolarity,Positive*%
%FSLAX46Y46*%
G04 Gerber Fmt 4.6, Leading zero omitted, Abs format (unit mm)*
G04 Created by KiCad (PCBNEW 6.0.4-6f826c9f35~116~ubuntu21.10.1) date 2022-04-21 21:07:43*
%MOMM*%
%LPD*%
G01*
G04 APERTURE LIST*
G04 Aperture macros list*
%AMRoundRect*
0 Rectangle with rounded corners*
0 $1 Rounding radius*
0 $2 $3 $4 $5 $6 $7 $8 $9 X,Y pos of 4 corners*
0 Add a 4 corners polygon primitive as box body*
4,1,4,$2,$3,$4,$5,$6,$7,$8,$9,$2,$3,0*
0 Add four circle primitives for the rounded corners*
1,1,$1+$1,$2,$3*
1,1,$1+$1,$4,$5*
1,1,$1+$1,$6,$7*
1,1,$1+$1,$8,$9*
0 Add four rect primitives between the rounded corners*
20,1,$1+$1,$2,$3,$4,$5,0*
20,1,$1+$1,$4,$5,$6,$7,0*
20,1,$1+$1,$6,$7,$8,$9,0*
20,1,$1+$1,$8,$9,$2,$3,0*%
G04 Aperture macros list end*
%ADD10RoundRect,0.250000X-0.337500X-0.475000X0.337500X-0.475000X0.337500X0.475000X-0.337500X0.475000X0*%
%ADD11RoundRect,0.250000X0.475000X-0.337500X0.475000X0.337500X-0.475000X0.337500X-0.475000X-0.337500X0*%
%ADD12RoundRect,0.250000X0.337500X0.475000X-0.337500X0.475000X-0.337500X-0.475000X0.337500X-0.475000X0*%
G04 APERTURE END LIST*
D10*
%TO.C,R44*%
X123698000Y-112014000D03*
X125773000Y-112014000D03*
%TD*%
D11*
%TO.C,R33*%
X129794000Y-74973000D03*
X129794000Y-72898000D03*
%TD*%
%TO.C,R34*%
X123952000Y-81280000D03*
X123952000Y-79205000D03*
%TD*%
%TO.C,R32*%
X123952000Y-76200000D03*
X123952000Y-74125000D03*
%TD*%
D12*
%TO.C,R48*%
X114300000Y-109220000D03*
X112225000Y-109220000D03*
%TD*%
D11*
%TO.C,R10*%
X71628000Y-116078000D03*
X71628000Y-114003000D03*
%TD*%
D12*
%TO.C,R46*%
X41656000Y-102362000D03*
X39581000Y-102362000D03*
%TD*%
D10*
%TO.C,R47*%
X35771000Y-102362000D03*
X37846000Y-102362000D03*
%TD*%
%TO.C,R310*%
X123698000Y-98806000D03*
X125773000Y-98806000D03*
%TD*%
D12*
%TO.C,R49*%
X114300000Y-111760000D03*
X112225000Y-111760000D03*
%TD*%
D11*
%TO.C,R21*%
X69088000Y-64262000D03*
X69088000Y-62187000D03*
%TD*%
%TO.C,R11*%
X69088000Y-116078000D03*
X69088000Y-114003000D03*
%TD*%
%TO.C,R16*%
X49784000Y-110998000D03*
X49784000Y-108923000D03*
%TD*%
%TO.C,R14*%
X71628000Y-81534000D03*
X71628000Y-79459000D03*
%TD*%
D10*
%TO.C,R43*%
X35771000Y-94996000D03*
X37846000Y-94996000D03*
%TD*%
D12*
%TO.C,R40*%
X41656000Y-84328000D03*
X39581000Y-84328000D03*
%TD*%
D11*
%TO.C,R13*%
X69088000Y-98806000D03*
X69088000Y-96731000D03*
%TD*%
D12*
%TO.C,R42*%
X41656000Y-94996000D03*
X39581000Y-94996000D03*
%TD*%
%TO.C,R410*%
X114300000Y-114300000D03*
X112225000Y-114300000D03*
%TD*%
D11*
%TO.C,R31*%
X129794000Y-68623000D03*
X129794000Y-66548000D03*
%TD*%
%TO.C,R36*%
X123952000Y-90678000D03*
X123952000Y-88603000D03*
%TD*%
%TO.C,R35*%
X129794000Y-81323000D03*
X129794000Y-79248000D03*
%TD*%
%TO.C,R15*%
X69088000Y-81534000D03*
X69088000Y-79459000D03*
%TD*%
%TO.C,R20*%
X71628000Y-64262000D03*
X71628000Y-62187000D03*
%TD*%
%TO.C,R30*%
X123952000Y-71882000D03*
X123952000Y-69807000D03*
%TD*%
%TO.C,R37*%
X129794000Y-87673000D03*
X129794000Y-85598000D03*
%TD*%
D10*
%TO.C,R41*%
X35771000Y-84328000D03*
X37846000Y-84328000D03*
%TD*%
D11*
%TO.C,R39*%
X129794000Y-94023000D03*
X129794000Y-91948000D03*
%TD*%
%TO.C,R12*%
X71628000Y-98806000D03*
X71628000Y-96731000D03*
%TD*%
%TO.C,R45*%
X129794000Y-114089000D03*
X129794000Y-112014000D03*
%TD*%
%TO.C,R311*%
X129794000Y-100373000D03*
X129794000Y-98298000D03*
%TD*%
%TO.C,R38*%
X123952000Y-95504000D03*
X123952000Y-93429000D03*
%TD*%
M02*
