%TF.GenerationSoftware,KiCad,Pcbnew,9.0.0-unknown-202503072020~4df101b94e~ubuntu22.04.1*%
%TF.CreationDate,2025-03-08T19:03:23+01:00*%
%TF.ProjectId,PowkiBoard,506f776b-6942-46f6-9172-642e6b696361,rev?*%
%TF.SameCoordinates,Original*%
%TF.FileFunction,Legend,Bot*%
%TF.FilePolarity,Positive*%
%FSLAX46Y46*%
G04 Gerber Fmt 4.6, Leading zero omitted, Abs format (unit mm)*
G04 Created by KiCad (PCBNEW 9.0.0-unknown-202503072020~4df101b94e~ubuntu22.04.1) date 2025-03-08 19:03:23*
%MOMM*%
%LPD*%
G01*
G04 APERTURE LIST*
%ADD10C,0.150000*%
%ADD11C,0.120000*%
G04 APERTURE END LIST*
D10*
X199154819Y-105933333D02*
X198678628Y-105600000D01*
X199154819Y-105361905D02*
X198154819Y-105361905D01*
X198154819Y-105361905D02*
X198154819Y-105742857D01*
X198154819Y-105742857D02*
X198202438Y-105838095D01*
X198202438Y-105838095D02*
X198250057Y-105885714D01*
X198250057Y-105885714D02*
X198345295Y-105933333D01*
X198345295Y-105933333D02*
X198488152Y-105933333D01*
X198488152Y-105933333D02*
X198583390Y-105885714D01*
X198583390Y-105885714D02*
X198631009Y-105838095D01*
X198631009Y-105838095D02*
X198678628Y-105742857D01*
X198678628Y-105742857D02*
X198678628Y-105361905D01*
X198250057Y-106314286D02*
X198202438Y-106361905D01*
X198202438Y-106361905D02*
X198154819Y-106457143D01*
X198154819Y-106457143D02*
X198154819Y-106695238D01*
X198154819Y-106695238D02*
X198202438Y-106790476D01*
X198202438Y-106790476D02*
X198250057Y-106838095D01*
X198250057Y-106838095D02*
X198345295Y-106885714D01*
X198345295Y-106885714D02*
X198440533Y-106885714D01*
X198440533Y-106885714D02*
X198583390Y-106838095D01*
X198583390Y-106838095D02*
X199154819Y-106266667D01*
X199154819Y-106266667D02*
X199154819Y-106885714D01*
X205817857Y-119759580D02*
X205865476Y-119807200D01*
X205865476Y-119807200D02*
X206008333Y-119854819D01*
X206008333Y-119854819D02*
X206103571Y-119854819D01*
X206103571Y-119854819D02*
X206246428Y-119807200D01*
X206246428Y-119807200D02*
X206341666Y-119711961D01*
X206341666Y-119711961D02*
X206389285Y-119616723D01*
X206389285Y-119616723D02*
X206436904Y-119426247D01*
X206436904Y-119426247D02*
X206436904Y-119283390D01*
X206436904Y-119283390D02*
X206389285Y-119092914D01*
X206389285Y-119092914D02*
X206341666Y-118997676D01*
X206341666Y-118997676D02*
X206246428Y-118902438D01*
X206246428Y-118902438D02*
X206103571Y-118854819D01*
X206103571Y-118854819D02*
X206008333Y-118854819D01*
X206008333Y-118854819D02*
X205865476Y-118902438D01*
X205865476Y-118902438D02*
X205817857Y-118950057D01*
X205484523Y-118854819D02*
X204865476Y-118854819D01*
X204865476Y-118854819D02*
X205198809Y-119235771D01*
X205198809Y-119235771D02*
X205055952Y-119235771D01*
X205055952Y-119235771D02*
X204960714Y-119283390D01*
X204960714Y-119283390D02*
X204913095Y-119331009D01*
X204913095Y-119331009D02*
X204865476Y-119426247D01*
X204865476Y-119426247D02*
X204865476Y-119664342D01*
X204865476Y-119664342D02*
X204913095Y-119759580D01*
X204913095Y-119759580D02*
X204960714Y-119807200D01*
X204960714Y-119807200D02*
X205055952Y-119854819D01*
X205055952Y-119854819D02*
X205341666Y-119854819D01*
X205341666Y-119854819D02*
X205436904Y-119807200D01*
X205436904Y-119807200D02*
X205484523Y-119759580D01*
X203960714Y-118854819D02*
X204436904Y-118854819D01*
X204436904Y-118854819D02*
X204484523Y-119331009D01*
X204484523Y-119331009D02*
X204436904Y-119283390D01*
X204436904Y-119283390D02*
X204341666Y-119235771D01*
X204341666Y-119235771D02*
X204103571Y-119235771D01*
X204103571Y-119235771D02*
X204008333Y-119283390D01*
X204008333Y-119283390D02*
X203960714Y-119331009D01*
X203960714Y-119331009D02*
X203913095Y-119426247D01*
X203913095Y-119426247D02*
X203913095Y-119664342D01*
X203913095Y-119664342D02*
X203960714Y-119759580D01*
X203960714Y-119759580D02*
X204008333Y-119807200D01*
X204008333Y-119807200D02*
X204103571Y-119854819D01*
X204103571Y-119854819D02*
X204341666Y-119854819D01*
X204341666Y-119854819D02*
X204436904Y-119807200D01*
X204436904Y-119807200D02*
X204484523Y-119759580D01*
X205842857Y-101859580D02*
X205890476Y-101907200D01*
X205890476Y-101907200D02*
X206033333Y-101954819D01*
X206033333Y-101954819D02*
X206128571Y-101954819D01*
X206128571Y-101954819D02*
X206271428Y-101907200D01*
X206271428Y-101907200D02*
X206366666Y-101811961D01*
X206366666Y-101811961D02*
X206414285Y-101716723D01*
X206414285Y-101716723D02*
X206461904Y-101526247D01*
X206461904Y-101526247D02*
X206461904Y-101383390D01*
X206461904Y-101383390D02*
X206414285Y-101192914D01*
X206414285Y-101192914D02*
X206366666Y-101097676D01*
X206366666Y-101097676D02*
X206271428Y-101002438D01*
X206271428Y-101002438D02*
X206128571Y-100954819D01*
X206128571Y-100954819D02*
X206033333Y-100954819D01*
X206033333Y-100954819D02*
X205890476Y-101002438D01*
X205890476Y-101002438D02*
X205842857Y-101050057D01*
X205509523Y-100954819D02*
X204890476Y-100954819D01*
X204890476Y-100954819D02*
X205223809Y-101335771D01*
X205223809Y-101335771D02*
X205080952Y-101335771D01*
X205080952Y-101335771D02*
X204985714Y-101383390D01*
X204985714Y-101383390D02*
X204938095Y-101431009D01*
X204938095Y-101431009D02*
X204890476Y-101526247D01*
X204890476Y-101526247D02*
X204890476Y-101764342D01*
X204890476Y-101764342D02*
X204938095Y-101859580D01*
X204938095Y-101859580D02*
X204985714Y-101907200D01*
X204985714Y-101907200D02*
X205080952Y-101954819D01*
X205080952Y-101954819D02*
X205366666Y-101954819D01*
X205366666Y-101954819D02*
X205461904Y-101907200D01*
X205461904Y-101907200D02*
X205509523Y-101859580D01*
X204509523Y-101050057D02*
X204461904Y-101002438D01*
X204461904Y-101002438D02*
X204366666Y-100954819D01*
X204366666Y-100954819D02*
X204128571Y-100954819D01*
X204128571Y-100954819D02*
X204033333Y-101002438D01*
X204033333Y-101002438D02*
X203985714Y-101050057D01*
X203985714Y-101050057D02*
X203938095Y-101145295D01*
X203938095Y-101145295D02*
X203938095Y-101240533D01*
X203938095Y-101240533D02*
X203985714Y-101383390D01*
X203985714Y-101383390D02*
X204557142Y-101954819D01*
X204557142Y-101954819D02*
X203938095Y-101954819D01*
X201196397Y-105054819D02*
X201529730Y-104578628D01*
X201767825Y-105054819D02*
X201767825Y-104054819D01*
X201767825Y-104054819D02*
X201386873Y-104054819D01*
X201386873Y-104054819D02*
X201291635Y-104102438D01*
X201291635Y-104102438D02*
X201244016Y-104150057D01*
X201244016Y-104150057D02*
X201196397Y-104245295D01*
X201196397Y-104245295D02*
X201196397Y-104388152D01*
X201196397Y-104388152D02*
X201244016Y-104483390D01*
X201244016Y-104483390D02*
X201291635Y-104531009D01*
X201291635Y-104531009D02*
X201386873Y-104578628D01*
X201386873Y-104578628D02*
X201767825Y-104578628D01*
X200244016Y-105054819D02*
X200815444Y-105054819D01*
X200529730Y-105054819D02*
X200529730Y-104054819D01*
X200529730Y-104054819D02*
X200624968Y-104197676D01*
X200624968Y-104197676D02*
X200720206Y-104292914D01*
X200720206Y-104292914D02*
X200815444Y-104340533D01*
X195054849Y-71457142D02*
X195102469Y-71409523D01*
X195102469Y-71409523D02*
X195150088Y-71266666D01*
X195150088Y-71266666D02*
X195150088Y-71171428D01*
X195150088Y-71171428D02*
X195102469Y-71028571D01*
X195102469Y-71028571D02*
X195007230Y-70933333D01*
X195007230Y-70933333D02*
X194911992Y-70885714D01*
X194911992Y-70885714D02*
X194721516Y-70838095D01*
X194721516Y-70838095D02*
X194578659Y-70838095D01*
X194578659Y-70838095D02*
X194388183Y-70885714D01*
X194388183Y-70885714D02*
X194292945Y-70933333D01*
X194292945Y-70933333D02*
X194197707Y-71028571D01*
X194197707Y-71028571D02*
X194150088Y-71171428D01*
X194150088Y-71171428D02*
X194150088Y-71266666D01*
X194150088Y-71266666D02*
X194197707Y-71409523D01*
X194197707Y-71409523D02*
X194245326Y-71457142D01*
X194483421Y-72314285D02*
X195150088Y-72314285D01*
X194102469Y-72076190D02*
X194816754Y-71838095D01*
X194816754Y-71838095D02*
X194816754Y-72457142D01*
X194150088Y-72742857D02*
X194150088Y-73361904D01*
X194150088Y-73361904D02*
X194531040Y-73028571D01*
X194531040Y-73028571D02*
X194531040Y-73171428D01*
X194531040Y-73171428D02*
X194578659Y-73266666D01*
X194578659Y-73266666D02*
X194626278Y-73314285D01*
X194626278Y-73314285D02*
X194721516Y-73361904D01*
X194721516Y-73361904D02*
X194959611Y-73361904D01*
X194959611Y-73361904D02*
X195054849Y-73314285D01*
X195054849Y-73314285D02*
X195102469Y-73266666D01*
X195102469Y-73266666D02*
X195150088Y-73171428D01*
X195150088Y-73171428D02*
X195150088Y-72885714D01*
X195150088Y-72885714D02*
X195102469Y-72790476D01*
X195102469Y-72790476D02*
X195054849Y-72742857D01*
X205842857Y-66359580D02*
X205890476Y-66407200D01*
X205890476Y-66407200D02*
X206033333Y-66454819D01*
X206033333Y-66454819D02*
X206128571Y-66454819D01*
X206128571Y-66454819D02*
X206271428Y-66407200D01*
X206271428Y-66407200D02*
X206366666Y-66311961D01*
X206366666Y-66311961D02*
X206414285Y-66216723D01*
X206414285Y-66216723D02*
X206461904Y-66026247D01*
X206461904Y-66026247D02*
X206461904Y-65883390D01*
X206461904Y-65883390D02*
X206414285Y-65692914D01*
X206414285Y-65692914D02*
X206366666Y-65597676D01*
X206366666Y-65597676D02*
X206271428Y-65502438D01*
X206271428Y-65502438D02*
X206128571Y-65454819D01*
X206128571Y-65454819D02*
X206033333Y-65454819D01*
X206033333Y-65454819D02*
X205890476Y-65502438D01*
X205890476Y-65502438D02*
X205842857Y-65550057D01*
X204985714Y-65788152D02*
X204985714Y-66454819D01*
X205223809Y-65407200D02*
X205461904Y-66121485D01*
X205461904Y-66121485D02*
X204842857Y-66121485D01*
X203938095Y-66454819D02*
X204509523Y-66454819D01*
X204223809Y-66454819D02*
X204223809Y-65454819D01*
X204223809Y-65454819D02*
X204319047Y-65597676D01*
X204319047Y-65597676D02*
X204414285Y-65692914D01*
X204414285Y-65692914D02*
X204509523Y-65740533D01*
X201241666Y-124454819D02*
X201574999Y-123978628D01*
X201813094Y-124454819D02*
X201813094Y-123454819D01*
X201813094Y-123454819D02*
X201432142Y-123454819D01*
X201432142Y-123454819D02*
X201336904Y-123502438D01*
X201336904Y-123502438D02*
X201289285Y-123550057D01*
X201289285Y-123550057D02*
X201241666Y-123645295D01*
X201241666Y-123645295D02*
X201241666Y-123788152D01*
X201241666Y-123788152D02*
X201289285Y-123883390D01*
X201289285Y-123883390D02*
X201336904Y-123931009D01*
X201336904Y-123931009D02*
X201432142Y-123978628D01*
X201432142Y-123978628D02*
X201813094Y-123978628D01*
X200336904Y-123454819D02*
X200813094Y-123454819D01*
X200813094Y-123454819D02*
X200860713Y-123931009D01*
X200860713Y-123931009D02*
X200813094Y-123883390D01*
X200813094Y-123883390D02*
X200717856Y-123835771D01*
X200717856Y-123835771D02*
X200479761Y-123835771D01*
X200479761Y-123835771D02*
X200384523Y-123883390D01*
X200384523Y-123883390D02*
X200336904Y-123931009D01*
X200336904Y-123931009D02*
X200289285Y-124026247D01*
X200289285Y-124026247D02*
X200289285Y-124264342D01*
X200289285Y-124264342D02*
X200336904Y-124359580D01*
X200336904Y-124359580D02*
X200384523Y-124407200D01*
X200384523Y-124407200D02*
X200479761Y-124454819D01*
X200479761Y-124454819D02*
X200717856Y-124454819D01*
X200717856Y-124454819D02*
X200813094Y-124407200D01*
X200813094Y-124407200D02*
X200860713Y-124359580D01*
X199154819Y-71957142D02*
X198678628Y-71623809D01*
X199154819Y-71385714D02*
X198154819Y-71385714D01*
X198154819Y-71385714D02*
X198154819Y-71766666D01*
X198154819Y-71766666D02*
X198202438Y-71861904D01*
X198202438Y-71861904D02*
X198250057Y-71909523D01*
X198250057Y-71909523D02*
X198345295Y-71957142D01*
X198345295Y-71957142D02*
X198488152Y-71957142D01*
X198488152Y-71957142D02*
X198583390Y-71909523D01*
X198583390Y-71909523D02*
X198631009Y-71861904D01*
X198631009Y-71861904D02*
X198678628Y-71766666D01*
X198678628Y-71766666D02*
X198678628Y-71385714D01*
X198250057Y-72338095D02*
X198202438Y-72385714D01*
X198202438Y-72385714D02*
X198154819Y-72480952D01*
X198154819Y-72480952D02*
X198154819Y-72719047D01*
X198154819Y-72719047D02*
X198202438Y-72814285D01*
X198202438Y-72814285D02*
X198250057Y-72861904D01*
X198250057Y-72861904D02*
X198345295Y-72909523D01*
X198345295Y-72909523D02*
X198440533Y-72909523D01*
X198440533Y-72909523D02*
X198583390Y-72861904D01*
X198583390Y-72861904D02*
X199154819Y-72290476D01*
X199154819Y-72290476D02*
X199154819Y-72909523D01*
X198154819Y-73528571D02*
X198154819Y-73623809D01*
X198154819Y-73623809D02*
X198202438Y-73719047D01*
X198202438Y-73719047D02*
X198250057Y-73766666D01*
X198250057Y-73766666D02*
X198345295Y-73814285D01*
X198345295Y-73814285D02*
X198535771Y-73861904D01*
X198535771Y-73861904D02*
X198773866Y-73861904D01*
X198773866Y-73861904D02*
X198964342Y-73814285D01*
X198964342Y-73814285D02*
X199059580Y-73766666D01*
X199059580Y-73766666D02*
X199107200Y-73719047D01*
X199107200Y-73719047D02*
X199154819Y-73623809D01*
X199154819Y-73623809D02*
X199154819Y-73528571D01*
X199154819Y-73528571D02*
X199107200Y-73433333D01*
X199107200Y-73433333D02*
X199059580Y-73385714D01*
X199059580Y-73385714D02*
X198964342Y-73338095D01*
X198964342Y-73338095D02*
X198773866Y-73290476D01*
X198773866Y-73290476D02*
X198535771Y-73290476D01*
X198535771Y-73290476D02*
X198345295Y-73338095D01*
X198345295Y-73338095D02*
X198250057Y-73385714D01*
X198250057Y-73385714D02*
X198202438Y-73433333D01*
X198202438Y-73433333D02*
X198154819Y-73528571D01*
X201201128Y-87454819D02*
X201534461Y-86978628D01*
X201772556Y-87454819D02*
X201772556Y-86454819D01*
X201772556Y-86454819D02*
X201391604Y-86454819D01*
X201391604Y-86454819D02*
X201296366Y-86502438D01*
X201296366Y-86502438D02*
X201248747Y-86550057D01*
X201248747Y-86550057D02*
X201201128Y-86645295D01*
X201201128Y-86645295D02*
X201201128Y-86788152D01*
X201201128Y-86788152D02*
X201248747Y-86883390D01*
X201248747Y-86883390D02*
X201296366Y-86931009D01*
X201296366Y-86931009D02*
X201391604Y-86978628D01*
X201391604Y-86978628D02*
X201772556Y-86978628D01*
X200867794Y-86454819D02*
X200248747Y-86454819D01*
X200248747Y-86454819D02*
X200582080Y-86835771D01*
X200582080Y-86835771D02*
X200439223Y-86835771D01*
X200439223Y-86835771D02*
X200343985Y-86883390D01*
X200343985Y-86883390D02*
X200296366Y-86931009D01*
X200296366Y-86931009D02*
X200248747Y-87026247D01*
X200248747Y-87026247D02*
X200248747Y-87264342D01*
X200248747Y-87264342D02*
X200296366Y-87359580D01*
X200296366Y-87359580D02*
X200343985Y-87407200D01*
X200343985Y-87407200D02*
X200439223Y-87454819D01*
X200439223Y-87454819D02*
X200724937Y-87454819D01*
X200724937Y-87454819D02*
X200820175Y-87407200D01*
X200820175Y-87407200D02*
X200867794Y-87359580D01*
X197354819Y-105957142D02*
X196878628Y-105623809D01*
X197354819Y-105385714D02*
X196354819Y-105385714D01*
X196354819Y-105385714D02*
X196354819Y-105766666D01*
X196354819Y-105766666D02*
X196402438Y-105861904D01*
X196402438Y-105861904D02*
X196450057Y-105909523D01*
X196450057Y-105909523D02*
X196545295Y-105957142D01*
X196545295Y-105957142D02*
X196688152Y-105957142D01*
X196688152Y-105957142D02*
X196783390Y-105909523D01*
X196783390Y-105909523D02*
X196831009Y-105861904D01*
X196831009Y-105861904D02*
X196878628Y-105766666D01*
X196878628Y-105766666D02*
X196878628Y-105385714D01*
X197354819Y-106909523D02*
X197354819Y-106338095D01*
X197354819Y-106623809D02*
X196354819Y-106623809D01*
X196354819Y-106623809D02*
X196497676Y-106528571D01*
X196497676Y-106528571D02*
X196592914Y-106433333D01*
X196592914Y-106433333D02*
X196640533Y-106338095D01*
X197354819Y-107861904D02*
X197354819Y-107290476D01*
X197354819Y-107576190D02*
X196354819Y-107576190D01*
X196354819Y-107576190D02*
X196497676Y-107480952D01*
X196497676Y-107480952D02*
X196592914Y-107385714D01*
X196592914Y-107385714D02*
X196640533Y-107290476D01*
X201642857Y-71054819D02*
X201976190Y-70578628D01*
X202214285Y-71054819D02*
X202214285Y-70054819D01*
X202214285Y-70054819D02*
X201833333Y-70054819D01*
X201833333Y-70054819D02*
X201738095Y-70102438D01*
X201738095Y-70102438D02*
X201690476Y-70150057D01*
X201690476Y-70150057D02*
X201642857Y-70245295D01*
X201642857Y-70245295D02*
X201642857Y-70388152D01*
X201642857Y-70388152D02*
X201690476Y-70483390D01*
X201690476Y-70483390D02*
X201738095Y-70531009D01*
X201738095Y-70531009D02*
X201833333Y-70578628D01*
X201833333Y-70578628D02*
X202214285Y-70578628D01*
X200690476Y-71054819D02*
X201261904Y-71054819D01*
X200976190Y-71054819D02*
X200976190Y-70054819D01*
X200976190Y-70054819D02*
X201071428Y-70197676D01*
X201071428Y-70197676D02*
X201166666Y-70292914D01*
X201166666Y-70292914D02*
X201261904Y-70340533D01*
X200214285Y-71054819D02*
X200023809Y-71054819D01*
X200023809Y-71054819D02*
X199928571Y-71007200D01*
X199928571Y-71007200D02*
X199880952Y-70959580D01*
X199880952Y-70959580D02*
X199785714Y-70816723D01*
X199785714Y-70816723D02*
X199738095Y-70626247D01*
X199738095Y-70626247D02*
X199738095Y-70245295D01*
X199738095Y-70245295D02*
X199785714Y-70150057D01*
X199785714Y-70150057D02*
X199833333Y-70102438D01*
X199833333Y-70102438D02*
X199928571Y-70054819D01*
X199928571Y-70054819D02*
X200119047Y-70054819D01*
X200119047Y-70054819D02*
X200214285Y-70102438D01*
X200214285Y-70102438D02*
X200261904Y-70150057D01*
X200261904Y-70150057D02*
X200309523Y-70245295D01*
X200309523Y-70245295D02*
X200309523Y-70483390D01*
X200309523Y-70483390D02*
X200261904Y-70578628D01*
X200261904Y-70578628D02*
X200214285Y-70626247D01*
X200214285Y-70626247D02*
X200119047Y-70673866D01*
X200119047Y-70673866D02*
X199928571Y-70673866D01*
X199928571Y-70673866D02*
X199833333Y-70626247D01*
X199833333Y-70626247D02*
X199785714Y-70578628D01*
X199785714Y-70578628D02*
X199738095Y-70483390D01*
X199629819Y-119757142D02*
X199153628Y-119423809D01*
X199629819Y-119185714D02*
X198629819Y-119185714D01*
X198629819Y-119185714D02*
X198629819Y-119566666D01*
X198629819Y-119566666D02*
X198677438Y-119661904D01*
X198677438Y-119661904D02*
X198725057Y-119709523D01*
X198725057Y-119709523D02*
X198820295Y-119757142D01*
X198820295Y-119757142D02*
X198963152Y-119757142D01*
X198963152Y-119757142D02*
X199058390Y-119709523D01*
X199058390Y-119709523D02*
X199106009Y-119661904D01*
X199106009Y-119661904D02*
X199153628Y-119566666D01*
X199153628Y-119566666D02*
X199153628Y-119185714D01*
X199629819Y-120709523D02*
X199629819Y-120138095D01*
X199629819Y-120423809D02*
X198629819Y-120423809D01*
X198629819Y-120423809D02*
X198772676Y-120328571D01*
X198772676Y-120328571D02*
X198867914Y-120233333D01*
X198867914Y-120233333D02*
X198915533Y-120138095D01*
X198963152Y-121566666D02*
X199629819Y-121566666D01*
X198582200Y-121328571D02*
X199296485Y-121090476D01*
X199296485Y-121090476D02*
X199296485Y-121709523D01*
X205817857Y-121259580D02*
X205865476Y-121307200D01*
X205865476Y-121307200D02*
X206008333Y-121354819D01*
X206008333Y-121354819D02*
X206103571Y-121354819D01*
X206103571Y-121354819D02*
X206246428Y-121307200D01*
X206246428Y-121307200D02*
X206341666Y-121211961D01*
X206341666Y-121211961D02*
X206389285Y-121116723D01*
X206389285Y-121116723D02*
X206436904Y-120926247D01*
X206436904Y-120926247D02*
X206436904Y-120783390D01*
X206436904Y-120783390D02*
X206389285Y-120592914D01*
X206389285Y-120592914D02*
X206341666Y-120497676D01*
X206341666Y-120497676D02*
X206246428Y-120402438D01*
X206246428Y-120402438D02*
X206103571Y-120354819D01*
X206103571Y-120354819D02*
X206008333Y-120354819D01*
X206008333Y-120354819D02*
X205865476Y-120402438D01*
X205865476Y-120402438D02*
X205817857Y-120450057D01*
X205484523Y-120354819D02*
X204865476Y-120354819D01*
X204865476Y-120354819D02*
X205198809Y-120735771D01*
X205198809Y-120735771D02*
X205055952Y-120735771D01*
X205055952Y-120735771D02*
X204960714Y-120783390D01*
X204960714Y-120783390D02*
X204913095Y-120831009D01*
X204913095Y-120831009D02*
X204865476Y-120926247D01*
X204865476Y-120926247D02*
X204865476Y-121164342D01*
X204865476Y-121164342D02*
X204913095Y-121259580D01*
X204913095Y-121259580D02*
X204960714Y-121307200D01*
X204960714Y-121307200D02*
X205055952Y-121354819D01*
X205055952Y-121354819D02*
X205341666Y-121354819D01*
X205341666Y-121354819D02*
X205436904Y-121307200D01*
X205436904Y-121307200D02*
X205484523Y-121259580D01*
X204008333Y-120354819D02*
X204198809Y-120354819D01*
X204198809Y-120354819D02*
X204294047Y-120402438D01*
X204294047Y-120402438D02*
X204341666Y-120450057D01*
X204341666Y-120450057D02*
X204436904Y-120592914D01*
X204436904Y-120592914D02*
X204484523Y-120783390D01*
X204484523Y-120783390D02*
X204484523Y-121164342D01*
X204484523Y-121164342D02*
X204436904Y-121259580D01*
X204436904Y-121259580D02*
X204389285Y-121307200D01*
X204389285Y-121307200D02*
X204294047Y-121354819D01*
X204294047Y-121354819D02*
X204103571Y-121354819D01*
X204103571Y-121354819D02*
X204008333Y-121307200D01*
X204008333Y-121307200D02*
X203960714Y-121259580D01*
X203960714Y-121259580D02*
X203913095Y-121164342D01*
X203913095Y-121164342D02*
X203913095Y-120926247D01*
X203913095Y-120926247D02*
X203960714Y-120831009D01*
X203960714Y-120831009D02*
X204008333Y-120783390D01*
X204008333Y-120783390D02*
X204103571Y-120735771D01*
X204103571Y-120735771D02*
X204294047Y-120735771D01*
X204294047Y-120735771D02*
X204389285Y-120783390D01*
X204389285Y-120783390D02*
X204436904Y-120831009D01*
X204436904Y-120831009D02*
X204484523Y-120926247D01*
X195029849Y-124857142D02*
X195077469Y-124809523D01*
X195077469Y-124809523D02*
X195125088Y-124666666D01*
X195125088Y-124666666D02*
X195125088Y-124571428D01*
X195125088Y-124571428D02*
X195077469Y-124428571D01*
X195077469Y-124428571D02*
X194982230Y-124333333D01*
X194982230Y-124333333D02*
X194886992Y-124285714D01*
X194886992Y-124285714D02*
X194696516Y-124238095D01*
X194696516Y-124238095D02*
X194553659Y-124238095D01*
X194553659Y-124238095D02*
X194363183Y-124285714D01*
X194363183Y-124285714D02*
X194267945Y-124333333D01*
X194267945Y-124333333D02*
X194172707Y-124428571D01*
X194172707Y-124428571D02*
X194125088Y-124571428D01*
X194125088Y-124571428D02*
X194125088Y-124666666D01*
X194125088Y-124666666D02*
X194172707Y-124809523D01*
X194172707Y-124809523D02*
X194220326Y-124857142D01*
X194125088Y-125190476D02*
X194125088Y-125809523D01*
X194125088Y-125809523D02*
X194506040Y-125476190D01*
X194506040Y-125476190D02*
X194506040Y-125619047D01*
X194506040Y-125619047D02*
X194553659Y-125714285D01*
X194553659Y-125714285D02*
X194601278Y-125761904D01*
X194601278Y-125761904D02*
X194696516Y-125809523D01*
X194696516Y-125809523D02*
X194934611Y-125809523D01*
X194934611Y-125809523D02*
X195029849Y-125761904D01*
X195029849Y-125761904D02*
X195077469Y-125714285D01*
X195077469Y-125714285D02*
X195125088Y-125619047D01*
X195125088Y-125619047D02*
X195125088Y-125333333D01*
X195125088Y-125333333D02*
X195077469Y-125238095D01*
X195077469Y-125238095D02*
X195029849Y-125190476D01*
X194125088Y-126428571D02*
X194125088Y-126523809D01*
X194125088Y-126523809D02*
X194172707Y-126619047D01*
X194172707Y-126619047D02*
X194220326Y-126666666D01*
X194220326Y-126666666D02*
X194315564Y-126714285D01*
X194315564Y-126714285D02*
X194506040Y-126761904D01*
X194506040Y-126761904D02*
X194744135Y-126761904D01*
X194744135Y-126761904D02*
X194934611Y-126714285D01*
X194934611Y-126714285D02*
X195029849Y-126666666D01*
X195029849Y-126666666D02*
X195077469Y-126619047D01*
X195077469Y-126619047D02*
X195125088Y-126523809D01*
X195125088Y-126523809D02*
X195125088Y-126428571D01*
X195125088Y-126428571D02*
X195077469Y-126333333D01*
X195077469Y-126333333D02*
X195029849Y-126285714D01*
X195029849Y-126285714D02*
X194934611Y-126238095D01*
X194934611Y-126238095D02*
X194744135Y-126190476D01*
X194744135Y-126190476D02*
X194506040Y-126190476D01*
X194506040Y-126190476D02*
X194315564Y-126238095D01*
X194315564Y-126238095D02*
X194220326Y-126285714D01*
X194220326Y-126285714D02*
X194172707Y-126333333D01*
X194172707Y-126333333D02*
X194125088Y-126428571D01*
X197450088Y-72057142D02*
X196973897Y-71723809D01*
X197450088Y-71485714D02*
X196450088Y-71485714D01*
X196450088Y-71485714D02*
X196450088Y-71866666D01*
X196450088Y-71866666D02*
X196497707Y-71961904D01*
X196497707Y-71961904D02*
X196545326Y-72009523D01*
X196545326Y-72009523D02*
X196640564Y-72057142D01*
X196640564Y-72057142D02*
X196783421Y-72057142D01*
X196783421Y-72057142D02*
X196878659Y-72009523D01*
X196878659Y-72009523D02*
X196926278Y-71961904D01*
X196926278Y-71961904D02*
X196973897Y-71866666D01*
X196973897Y-71866666D02*
X196973897Y-71485714D01*
X197450088Y-73009523D02*
X197450088Y-72438095D01*
X197450088Y-72723809D02*
X196450088Y-72723809D01*
X196450088Y-72723809D02*
X196592945Y-72628571D01*
X196592945Y-72628571D02*
X196688183Y-72533333D01*
X196688183Y-72533333D02*
X196735802Y-72438095D01*
X196878659Y-73580952D02*
X196831040Y-73485714D01*
X196831040Y-73485714D02*
X196783421Y-73438095D01*
X196783421Y-73438095D02*
X196688183Y-73390476D01*
X196688183Y-73390476D02*
X196640564Y-73390476D01*
X196640564Y-73390476D02*
X196545326Y-73438095D01*
X196545326Y-73438095D02*
X196497707Y-73485714D01*
X196497707Y-73485714D02*
X196450088Y-73580952D01*
X196450088Y-73580952D02*
X196450088Y-73771428D01*
X196450088Y-73771428D02*
X196497707Y-73866666D01*
X196497707Y-73866666D02*
X196545326Y-73914285D01*
X196545326Y-73914285D02*
X196640564Y-73961904D01*
X196640564Y-73961904D02*
X196688183Y-73961904D01*
X196688183Y-73961904D02*
X196783421Y-73914285D01*
X196783421Y-73914285D02*
X196831040Y-73866666D01*
X196831040Y-73866666D02*
X196878659Y-73771428D01*
X196878659Y-73771428D02*
X196878659Y-73580952D01*
X196878659Y-73580952D02*
X196926278Y-73485714D01*
X196926278Y-73485714D02*
X196973897Y-73438095D01*
X196973897Y-73438095D02*
X197069135Y-73390476D01*
X197069135Y-73390476D02*
X197259611Y-73390476D01*
X197259611Y-73390476D02*
X197354849Y-73438095D01*
X197354849Y-73438095D02*
X197402469Y-73485714D01*
X197402469Y-73485714D02*
X197450088Y-73580952D01*
X197450088Y-73580952D02*
X197450088Y-73771428D01*
X197450088Y-73771428D02*
X197402469Y-73866666D01*
X197402469Y-73866666D02*
X197354849Y-73914285D01*
X197354849Y-73914285D02*
X197259611Y-73961904D01*
X197259611Y-73961904D02*
X197069135Y-73961904D01*
X197069135Y-73961904D02*
X196973897Y-73914285D01*
X196973897Y-73914285D02*
X196926278Y-73866666D01*
X196926278Y-73866666D02*
X196878659Y-73771428D01*
X199159550Y-88433333D02*
X198683359Y-88100000D01*
X199159550Y-87861905D02*
X198159550Y-87861905D01*
X198159550Y-87861905D02*
X198159550Y-88242857D01*
X198159550Y-88242857D02*
X198207169Y-88338095D01*
X198207169Y-88338095D02*
X198254788Y-88385714D01*
X198254788Y-88385714D02*
X198350026Y-88433333D01*
X198350026Y-88433333D02*
X198492883Y-88433333D01*
X198492883Y-88433333D02*
X198588121Y-88385714D01*
X198588121Y-88385714D02*
X198635740Y-88338095D01*
X198635740Y-88338095D02*
X198683359Y-88242857D01*
X198683359Y-88242857D02*
X198683359Y-87861905D01*
X198492883Y-89290476D02*
X199159550Y-89290476D01*
X198111931Y-89052381D02*
X198826216Y-88814286D01*
X198826216Y-88814286D02*
X198826216Y-89433333D01*
X199654819Y-66457142D02*
X199178628Y-66123809D01*
X199654819Y-65885714D02*
X198654819Y-65885714D01*
X198654819Y-65885714D02*
X198654819Y-66266666D01*
X198654819Y-66266666D02*
X198702438Y-66361904D01*
X198702438Y-66361904D02*
X198750057Y-66409523D01*
X198750057Y-66409523D02*
X198845295Y-66457142D01*
X198845295Y-66457142D02*
X198988152Y-66457142D01*
X198988152Y-66457142D02*
X199083390Y-66409523D01*
X199083390Y-66409523D02*
X199131009Y-66361904D01*
X199131009Y-66361904D02*
X199178628Y-66266666D01*
X199178628Y-66266666D02*
X199178628Y-65885714D01*
X199654819Y-67409523D02*
X199654819Y-66838095D01*
X199654819Y-67123809D02*
X198654819Y-67123809D01*
X198654819Y-67123809D02*
X198797676Y-67028571D01*
X198797676Y-67028571D02*
X198892914Y-66933333D01*
X198892914Y-66933333D02*
X198940533Y-66838095D01*
X198654819Y-67742857D02*
X198654819Y-68409523D01*
X198654819Y-68409523D02*
X199654819Y-67980952D01*
X199654819Y-100457142D02*
X199178628Y-100123809D01*
X199654819Y-99885714D02*
X198654819Y-99885714D01*
X198654819Y-99885714D02*
X198654819Y-100266666D01*
X198654819Y-100266666D02*
X198702438Y-100361904D01*
X198702438Y-100361904D02*
X198750057Y-100409523D01*
X198750057Y-100409523D02*
X198845295Y-100457142D01*
X198845295Y-100457142D02*
X198988152Y-100457142D01*
X198988152Y-100457142D02*
X199083390Y-100409523D01*
X199083390Y-100409523D02*
X199131009Y-100361904D01*
X199131009Y-100361904D02*
X199178628Y-100266666D01*
X199178628Y-100266666D02*
X199178628Y-99885714D01*
X199654819Y-101409523D02*
X199654819Y-100838095D01*
X199654819Y-101123809D02*
X198654819Y-101123809D01*
X198654819Y-101123809D02*
X198797676Y-101028571D01*
X198797676Y-101028571D02*
X198892914Y-100933333D01*
X198892914Y-100933333D02*
X198940533Y-100838095D01*
X198654819Y-102028571D02*
X198654819Y-102123809D01*
X198654819Y-102123809D02*
X198702438Y-102219047D01*
X198702438Y-102219047D02*
X198750057Y-102266666D01*
X198750057Y-102266666D02*
X198845295Y-102314285D01*
X198845295Y-102314285D02*
X199035771Y-102361904D01*
X199035771Y-102361904D02*
X199273866Y-102361904D01*
X199273866Y-102361904D02*
X199464342Y-102314285D01*
X199464342Y-102314285D02*
X199559580Y-102266666D01*
X199559580Y-102266666D02*
X199607200Y-102219047D01*
X199607200Y-102219047D02*
X199654819Y-102123809D01*
X199654819Y-102123809D02*
X199654819Y-102028571D01*
X199654819Y-102028571D02*
X199607200Y-101933333D01*
X199607200Y-101933333D02*
X199559580Y-101885714D01*
X199559580Y-101885714D02*
X199464342Y-101838095D01*
X199464342Y-101838095D02*
X199273866Y-101790476D01*
X199273866Y-101790476D02*
X199035771Y-101790476D01*
X199035771Y-101790476D02*
X198845295Y-101838095D01*
X198845295Y-101838095D02*
X198750057Y-101885714D01*
X198750057Y-101885714D02*
X198702438Y-101933333D01*
X198702438Y-101933333D02*
X198654819Y-102028571D01*
X199129819Y-125333333D02*
X198653628Y-125000000D01*
X199129819Y-124761905D02*
X198129819Y-124761905D01*
X198129819Y-124761905D02*
X198129819Y-125142857D01*
X198129819Y-125142857D02*
X198177438Y-125238095D01*
X198177438Y-125238095D02*
X198225057Y-125285714D01*
X198225057Y-125285714D02*
X198320295Y-125333333D01*
X198320295Y-125333333D02*
X198463152Y-125333333D01*
X198463152Y-125333333D02*
X198558390Y-125285714D01*
X198558390Y-125285714D02*
X198606009Y-125238095D01*
X198606009Y-125238095D02*
X198653628Y-125142857D01*
X198653628Y-125142857D02*
X198653628Y-124761905D01*
X198129819Y-126190476D02*
X198129819Y-126000000D01*
X198129819Y-126000000D02*
X198177438Y-125904762D01*
X198177438Y-125904762D02*
X198225057Y-125857143D01*
X198225057Y-125857143D02*
X198367914Y-125761905D01*
X198367914Y-125761905D02*
X198558390Y-125714286D01*
X198558390Y-125714286D02*
X198939342Y-125714286D01*
X198939342Y-125714286D02*
X199034580Y-125761905D01*
X199034580Y-125761905D02*
X199082200Y-125809524D01*
X199082200Y-125809524D02*
X199129819Y-125904762D01*
X199129819Y-125904762D02*
X199129819Y-126095238D01*
X199129819Y-126095238D02*
X199082200Y-126190476D01*
X199082200Y-126190476D02*
X199034580Y-126238095D01*
X199034580Y-126238095D02*
X198939342Y-126285714D01*
X198939342Y-126285714D02*
X198701247Y-126285714D01*
X198701247Y-126285714D02*
X198606009Y-126238095D01*
X198606009Y-126238095D02*
X198558390Y-126190476D01*
X198558390Y-126190476D02*
X198510771Y-126095238D01*
X198510771Y-126095238D02*
X198510771Y-125904762D01*
X198510771Y-125904762D02*
X198558390Y-125809524D01*
X198558390Y-125809524D02*
X198606009Y-125761905D01*
X198606009Y-125761905D02*
X198701247Y-125714286D01*
X205842857Y-100359580D02*
X205890476Y-100407200D01*
X205890476Y-100407200D02*
X206033333Y-100454819D01*
X206033333Y-100454819D02*
X206128571Y-100454819D01*
X206128571Y-100454819D02*
X206271428Y-100407200D01*
X206271428Y-100407200D02*
X206366666Y-100311961D01*
X206366666Y-100311961D02*
X206414285Y-100216723D01*
X206414285Y-100216723D02*
X206461904Y-100026247D01*
X206461904Y-100026247D02*
X206461904Y-99883390D01*
X206461904Y-99883390D02*
X206414285Y-99692914D01*
X206414285Y-99692914D02*
X206366666Y-99597676D01*
X206366666Y-99597676D02*
X206271428Y-99502438D01*
X206271428Y-99502438D02*
X206128571Y-99454819D01*
X206128571Y-99454819D02*
X206033333Y-99454819D01*
X206033333Y-99454819D02*
X205890476Y-99502438D01*
X205890476Y-99502438D02*
X205842857Y-99550057D01*
X205509523Y-99454819D02*
X204890476Y-99454819D01*
X204890476Y-99454819D02*
X205223809Y-99835771D01*
X205223809Y-99835771D02*
X205080952Y-99835771D01*
X205080952Y-99835771D02*
X204985714Y-99883390D01*
X204985714Y-99883390D02*
X204938095Y-99931009D01*
X204938095Y-99931009D02*
X204890476Y-100026247D01*
X204890476Y-100026247D02*
X204890476Y-100264342D01*
X204890476Y-100264342D02*
X204938095Y-100359580D01*
X204938095Y-100359580D02*
X204985714Y-100407200D01*
X204985714Y-100407200D02*
X205080952Y-100454819D01*
X205080952Y-100454819D02*
X205366666Y-100454819D01*
X205366666Y-100454819D02*
X205461904Y-100407200D01*
X205461904Y-100407200D02*
X205509523Y-100359580D01*
X203938095Y-100454819D02*
X204509523Y-100454819D01*
X204223809Y-100454819D02*
X204223809Y-99454819D01*
X204223809Y-99454819D02*
X204319047Y-99597676D01*
X204319047Y-99597676D02*
X204414285Y-99692914D01*
X204414285Y-99692914D02*
X204509523Y-99740533D01*
X200772588Y-63424819D02*
X201105921Y-62948628D01*
X201344016Y-63424819D02*
X201344016Y-62424819D01*
X201344016Y-62424819D02*
X200963064Y-62424819D01*
X200963064Y-62424819D02*
X200867826Y-62472438D01*
X200867826Y-62472438D02*
X200820207Y-62520057D01*
X200820207Y-62520057D02*
X200772588Y-62615295D01*
X200772588Y-62615295D02*
X200772588Y-62758152D01*
X200772588Y-62758152D02*
X200820207Y-62853390D01*
X200820207Y-62853390D02*
X200867826Y-62901009D01*
X200867826Y-62901009D02*
X200963064Y-62948628D01*
X200963064Y-62948628D02*
X201344016Y-62948628D01*
X199820207Y-63424819D02*
X200391635Y-63424819D01*
X200105921Y-63424819D02*
X200105921Y-62424819D01*
X200105921Y-62424819D02*
X200201159Y-62567676D01*
X200201159Y-62567676D02*
X200296397Y-62662914D01*
X200296397Y-62662914D02*
X200391635Y-62710533D01*
X198963064Y-62424819D02*
X199153540Y-62424819D01*
X199153540Y-62424819D02*
X199248778Y-62472438D01*
X199248778Y-62472438D02*
X199296397Y-62520057D01*
X199296397Y-62520057D02*
X199391635Y-62662914D01*
X199391635Y-62662914D02*
X199439254Y-62853390D01*
X199439254Y-62853390D02*
X199439254Y-63234342D01*
X199439254Y-63234342D02*
X199391635Y-63329580D01*
X199391635Y-63329580D02*
X199344016Y-63377200D01*
X199344016Y-63377200D02*
X199248778Y-63424819D01*
X199248778Y-63424819D02*
X199058302Y-63424819D01*
X199058302Y-63424819D02*
X198963064Y-63377200D01*
X198963064Y-63377200D02*
X198915445Y-63329580D01*
X198915445Y-63329580D02*
X198867826Y-63234342D01*
X198867826Y-63234342D02*
X198867826Y-62996247D01*
X198867826Y-62996247D02*
X198915445Y-62901009D01*
X198915445Y-62901009D02*
X198963064Y-62853390D01*
X198963064Y-62853390D02*
X199058302Y-62805771D01*
X199058302Y-62805771D02*
X199248778Y-62805771D01*
X199248778Y-62805771D02*
X199344016Y-62853390D01*
X199344016Y-62853390D02*
X199391635Y-62901009D01*
X199391635Y-62901009D02*
X199439254Y-62996247D01*
X197450088Y-88557142D02*
X196973897Y-88223809D01*
X197450088Y-87985714D02*
X196450088Y-87985714D01*
X196450088Y-87985714D02*
X196450088Y-88366666D01*
X196450088Y-88366666D02*
X196497707Y-88461904D01*
X196497707Y-88461904D02*
X196545326Y-88509523D01*
X196545326Y-88509523D02*
X196640564Y-88557142D01*
X196640564Y-88557142D02*
X196783421Y-88557142D01*
X196783421Y-88557142D02*
X196878659Y-88509523D01*
X196878659Y-88509523D02*
X196926278Y-88461904D01*
X196926278Y-88461904D02*
X196973897Y-88366666D01*
X196973897Y-88366666D02*
X196973897Y-87985714D01*
X197450088Y-89509523D02*
X197450088Y-88938095D01*
X197450088Y-89223809D02*
X196450088Y-89223809D01*
X196450088Y-89223809D02*
X196592945Y-89128571D01*
X196592945Y-89128571D02*
X196688183Y-89033333D01*
X196688183Y-89033333D02*
X196735802Y-88938095D01*
X196450088Y-89842857D02*
X196450088Y-90461904D01*
X196450088Y-90461904D02*
X196831040Y-90128571D01*
X196831040Y-90128571D02*
X196831040Y-90271428D01*
X196831040Y-90271428D02*
X196878659Y-90366666D01*
X196878659Y-90366666D02*
X196926278Y-90414285D01*
X196926278Y-90414285D02*
X197021516Y-90461904D01*
X197021516Y-90461904D02*
X197259611Y-90461904D01*
X197259611Y-90461904D02*
X197354849Y-90414285D01*
X197354849Y-90414285D02*
X197402469Y-90366666D01*
X197402469Y-90366666D02*
X197450088Y-90271428D01*
X197450088Y-90271428D02*
X197450088Y-89985714D01*
X197450088Y-89985714D02*
X197402469Y-89890476D01*
X197402469Y-89890476D02*
X197354849Y-89842857D01*
X200296397Y-97424819D02*
X200629730Y-96948628D01*
X200867825Y-97424819D02*
X200867825Y-96424819D01*
X200867825Y-96424819D02*
X200486873Y-96424819D01*
X200486873Y-96424819D02*
X200391635Y-96472438D01*
X200391635Y-96472438D02*
X200344016Y-96520057D01*
X200344016Y-96520057D02*
X200296397Y-96615295D01*
X200296397Y-96615295D02*
X200296397Y-96758152D01*
X200296397Y-96758152D02*
X200344016Y-96853390D01*
X200344016Y-96853390D02*
X200391635Y-96901009D01*
X200391635Y-96901009D02*
X200486873Y-96948628D01*
X200486873Y-96948628D02*
X200867825Y-96948628D01*
X199963063Y-96424819D02*
X199296397Y-96424819D01*
X199296397Y-96424819D02*
X199724968Y-97424819D01*
X196729819Y-125457142D02*
X196253628Y-125123809D01*
X196729819Y-124885714D02*
X195729819Y-124885714D01*
X195729819Y-124885714D02*
X195729819Y-125266666D01*
X195729819Y-125266666D02*
X195777438Y-125361904D01*
X195777438Y-125361904D02*
X195825057Y-125409523D01*
X195825057Y-125409523D02*
X195920295Y-125457142D01*
X195920295Y-125457142D02*
X196063152Y-125457142D01*
X196063152Y-125457142D02*
X196158390Y-125409523D01*
X196158390Y-125409523D02*
X196206009Y-125361904D01*
X196206009Y-125361904D02*
X196253628Y-125266666D01*
X196253628Y-125266666D02*
X196253628Y-124885714D01*
X196729819Y-126409523D02*
X196729819Y-125838095D01*
X196729819Y-126123809D02*
X195729819Y-126123809D01*
X195729819Y-126123809D02*
X195872676Y-126028571D01*
X195872676Y-126028571D02*
X195967914Y-125933333D01*
X195967914Y-125933333D02*
X196015533Y-125838095D01*
X195729819Y-127314285D02*
X195729819Y-126838095D01*
X195729819Y-126838095D02*
X196206009Y-126790476D01*
X196206009Y-126790476D02*
X196158390Y-126838095D01*
X196158390Y-126838095D02*
X196110771Y-126933333D01*
X196110771Y-126933333D02*
X196110771Y-127171428D01*
X196110771Y-127171428D02*
X196158390Y-127266666D01*
X196158390Y-127266666D02*
X196206009Y-127314285D01*
X196206009Y-127314285D02*
X196301247Y-127361904D01*
X196301247Y-127361904D02*
X196539342Y-127361904D01*
X196539342Y-127361904D02*
X196634580Y-127314285D01*
X196634580Y-127314285D02*
X196682200Y-127266666D01*
X196682200Y-127266666D02*
X196729819Y-127171428D01*
X196729819Y-127171428D02*
X196729819Y-126933333D01*
X196729819Y-126933333D02*
X196682200Y-126838095D01*
X196682200Y-126838095D02*
X196634580Y-126790476D01*
X200301128Y-80054819D02*
X200634461Y-79578628D01*
X200872556Y-80054819D02*
X200872556Y-79054819D01*
X200872556Y-79054819D02*
X200491604Y-79054819D01*
X200491604Y-79054819D02*
X200396366Y-79102438D01*
X200396366Y-79102438D02*
X200348747Y-79150057D01*
X200348747Y-79150057D02*
X200301128Y-79245295D01*
X200301128Y-79245295D02*
X200301128Y-79388152D01*
X200301128Y-79388152D02*
X200348747Y-79483390D01*
X200348747Y-79483390D02*
X200396366Y-79531009D01*
X200396366Y-79531009D02*
X200491604Y-79578628D01*
X200491604Y-79578628D02*
X200872556Y-79578628D01*
X199824937Y-80054819D02*
X199634461Y-80054819D01*
X199634461Y-80054819D02*
X199539223Y-80007200D01*
X199539223Y-80007200D02*
X199491604Y-79959580D01*
X199491604Y-79959580D02*
X199396366Y-79816723D01*
X199396366Y-79816723D02*
X199348747Y-79626247D01*
X199348747Y-79626247D02*
X199348747Y-79245295D01*
X199348747Y-79245295D02*
X199396366Y-79150057D01*
X199396366Y-79150057D02*
X199443985Y-79102438D01*
X199443985Y-79102438D02*
X199539223Y-79054819D01*
X199539223Y-79054819D02*
X199729699Y-79054819D01*
X199729699Y-79054819D02*
X199824937Y-79102438D01*
X199824937Y-79102438D02*
X199872556Y-79150057D01*
X199872556Y-79150057D02*
X199920175Y-79245295D01*
X199920175Y-79245295D02*
X199920175Y-79483390D01*
X199920175Y-79483390D02*
X199872556Y-79578628D01*
X199872556Y-79578628D02*
X199824937Y-79626247D01*
X199824937Y-79626247D02*
X199729699Y-79673866D01*
X199729699Y-79673866D02*
X199539223Y-79673866D01*
X199539223Y-79673866D02*
X199443985Y-79626247D01*
X199443985Y-79626247D02*
X199396366Y-79578628D01*
X199396366Y-79578628D02*
X199348747Y-79483390D01*
X205842857Y-67859580D02*
X205890476Y-67907200D01*
X205890476Y-67907200D02*
X206033333Y-67954819D01*
X206033333Y-67954819D02*
X206128571Y-67954819D01*
X206128571Y-67954819D02*
X206271428Y-67907200D01*
X206271428Y-67907200D02*
X206366666Y-67811961D01*
X206366666Y-67811961D02*
X206414285Y-67716723D01*
X206414285Y-67716723D02*
X206461904Y-67526247D01*
X206461904Y-67526247D02*
X206461904Y-67383390D01*
X206461904Y-67383390D02*
X206414285Y-67192914D01*
X206414285Y-67192914D02*
X206366666Y-67097676D01*
X206366666Y-67097676D02*
X206271428Y-67002438D01*
X206271428Y-67002438D02*
X206128571Y-66954819D01*
X206128571Y-66954819D02*
X206033333Y-66954819D01*
X206033333Y-66954819D02*
X205890476Y-67002438D01*
X205890476Y-67002438D02*
X205842857Y-67050057D01*
X204985714Y-67288152D02*
X204985714Y-67954819D01*
X205223809Y-66907200D02*
X205461904Y-67621485D01*
X205461904Y-67621485D02*
X204842857Y-67621485D01*
X204509523Y-67050057D02*
X204461904Y-67002438D01*
X204461904Y-67002438D02*
X204366666Y-66954819D01*
X204366666Y-66954819D02*
X204128571Y-66954819D01*
X204128571Y-66954819D02*
X204033333Y-67002438D01*
X204033333Y-67002438D02*
X203985714Y-67050057D01*
X203985714Y-67050057D02*
X203938095Y-67145295D01*
X203938095Y-67145295D02*
X203938095Y-67240533D01*
X203938095Y-67240533D02*
X203985714Y-67383390D01*
X203985714Y-67383390D02*
X204557142Y-67954819D01*
X204557142Y-67954819D02*
X203938095Y-67954819D01*
X194959580Y-105357142D02*
X195007200Y-105309523D01*
X195007200Y-105309523D02*
X195054819Y-105166666D01*
X195054819Y-105166666D02*
X195054819Y-105071428D01*
X195054819Y-105071428D02*
X195007200Y-104928571D01*
X195007200Y-104928571D02*
X194911961Y-104833333D01*
X194911961Y-104833333D02*
X194816723Y-104785714D01*
X194816723Y-104785714D02*
X194626247Y-104738095D01*
X194626247Y-104738095D02*
X194483390Y-104738095D01*
X194483390Y-104738095D02*
X194292914Y-104785714D01*
X194292914Y-104785714D02*
X194197676Y-104833333D01*
X194197676Y-104833333D02*
X194102438Y-104928571D01*
X194102438Y-104928571D02*
X194054819Y-105071428D01*
X194054819Y-105071428D02*
X194054819Y-105166666D01*
X194054819Y-105166666D02*
X194102438Y-105309523D01*
X194102438Y-105309523D02*
X194150057Y-105357142D01*
X194150057Y-105738095D02*
X194102438Y-105785714D01*
X194102438Y-105785714D02*
X194054819Y-105880952D01*
X194054819Y-105880952D02*
X194054819Y-106119047D01*
X194054819Y-106119047D02*
X194102438Y-106214285D01*
X194102438Y-106214285D02*
X194150057Y-106261904D01*
X194150057Y-106261904D02*
X194245295Y-106309523D01*
X194245295Y-106309523D02*
X194340533Y-106309523D01*
X194340533Y-106309523D02*
X194483390Y-106261904D01*
X194483390Y-106261904D02*
X195054819Y-105690476D01*
X195054819Y-105690476D02*
X195054819Y-106309523D01*
X194483390Y-106880952D02*
X194435771Y-106785714D01*
X194435771Y-106785714D02*
X194388152Y-106738095D01*
X194388152Y-106738095D02*
X194292914Y-106690476D01*
X194292914Y-106690476D02*
X194245295Y-106690476D01*
X194245295Y-106690476D02*
X194150057Y-106738095D01*
X194150057Y-106738095D02*
X194102438Y-106785714D01*
X194102438Y-106785714D02*
X194054819Y-106880952D01*
X194054819Y-106880952D02*
X194054819Y-107071428D01*
X194054819Y-107071428D02*
X194102438Y-107166666D01*
X194102438Y-107166666D02*
X194150057Y-107214285D01*
X194150057Y-107214285D02*
X194245295Y-107261904D01*
X194245295Y-107261904D02*
X194292914Y-107261904D01*
X194292914Y-107261904D02*
X194388152Y-107214285D01*
X194388152Y-107214285D02*
X194435771Y-107166666D01*
X194435771Y-107166666D02*
X194483390Y-107071428D01*
X194483390Y-107071428D02*
X194483390Y-106880952D01*
X194483390Y-106880952D02*
X194531009Y-106785714D01*
X194531009Y-106785714D02*
X194578628Y-106738095D01*
X194578628Y-106738095D02*
X194673866Y-106690476D01*
X194673866Y-106690476D02*
X194864342Y-106690476D01*
X194864342Y-106690476D02*
X194959580Y-106738095D01*
X194959580Y-106738095D02*
X195007200Y-106785714D01*
X195007200Y-106785714D02*
X195054819Y-106880952D01*
X195054819Y-106880952D02*
X195054819Y-107071428D01*
X195054819Y-107071428D02*
X195007200Y-107166666D01*
X195007200Y-107166666D02*
X194959580Y-107214285D01*
X194959580Y-107214285D02*
X194864342Y-107261904D01*
X194864342Y-107261904D02*
X194673866Y-107261904D01*
X194673866Y-107261904D02*
X194578628Y-107214285D01*
X194578628Y-107214285D02*
X194531009Y-107166666D01*
X194531009Y-107166666D02*
X194483390Y-107071428D01*
X195054849Y-87957142D02*
X195102469Y-87909523D01*
X195102469Y-87909523D02*
X195150088Y-87766666D01*
X195150088Y-87766666D02*
X195150088Y-87671428D01*
X195150088Y-87671428D02*
X195102469Y-87528571D01*
X195102469Y-87528571D02*
X195007230Y-87433333D01*
X195007230Y-87433333D02*
X194911992Y-87385714D01*
X194911992Y-87385714D02*
X194721516Y-87338095D01*
X194721516Y-87338095D02*
X194578659Y-87338095D01*
X194578659Y-87338095D02*
X194388183Y-87385714D01*
X194388183Y-87385714D02*
X194292945Y-87433333D01*
X194292945Y-87433333D02*
X194197707Y-87528571D01*
X194197707Y-87528571D02*
X194150088Y-87671428D01*
X194150088Y-87671428D02*
X194150088Y-87766666D01*
X194150088Y-87766666D02*
X194197707Y-87909523D01*
X194197707Y-87909523D02*
X194245326Y-87957142D01*
X194245326Y-88338095D02*
X194197707Y-88385714D01*
X194197707Y-88385714D02*
X194150088Y-88480952D01*
X194150088Y-88480952D02*
X194150088Y-88719047D01*
X194150088Y-88719047D02*
X194197707Y-88814285D01*
X194197707Y-88814285D02*
X194245326Y-88861904D01*
X194245326Y-88861904D02*
X194340564Y-88909523D01*
X194340564Y-88909523D02*
X194435802Y-88909523D01*
X194435802Y-88909523D02*
X194578659Y-88861904D01*
X194578659Y-88861904D02*
X195150088Y-88290476D01*
X195150088Y-88290476D02*
X195150088Y-88909523D01*
X195150088Y-89385714D02*
X195150088Y-89576190D01*
X195150088Y-89576190D02*
X195102469Y-89671428D01*
X195102469Y-89671428D02*
X195054849Y-89719047D01*
X195054849Y-89719047D02*
X194911992Y-89814285D01*
X194911992Y-89814285D02*
X194721516Y-89861904D01*
X194721516Y-89861904D02*
X194340564Y-89861904D01*
X194340564Y-89861904D02*
X194245326Y-89814285D01*
X194245326Y-89814285D02*
X194197707Y-89766666D01*
X194197707Y-89766666D02*
X194150088Y-89671428D01*
X194150088Y-89671428D02*
X194150088Y-89480952D01*
X194150088Y-89480952D02*
X194197707Y-89385714D01*
X194197707Y-89385714D02*
X194245326Y-89338095D01*
X194245326Y-89338095D02*
X194340564Y-89290476D01*
X194340564Y-89290476D02*
X194578659Y-89290476D01*
X194578659Y-89290476D02*
X194673897Y-89338095D01*
X194673897Y-89338095D02*
X194721516Y-89385714D01*
X194721516Y-89385714D02*
X194769135Y-89480952D01*
X194769135Y-89480952D02*
X194769135Y-89671428D01*
X194769135Y-89671428D02*
X194721516Y-89766666D01*
X194721516Y-89766666D02*
X194673897Y-89814285D01*
X194673897Y-89814285D02*
X194578659Y-89861904D01*
X200296397Y-116954819D02*
X200629730Y-116478628D01*
X200867825Y-116954819D02*
X200867825Y-115954819D01*
X200867825Y-115954819D02*
X200486873Y-115954819D01*
X200486873Y-115954819D02*
X200391635Y-116002438D01*
X200391635Y-116002438D02*
X200344016Y-116050057D01*
X200344016Y-116050057D02*
X200296397Y-116145295D01*
X200296397Y-116145295D02*
X200296397Y-116288152D01*
X200296397Y-116288152D02*
X200344016Y-116383390D01*
X200344016Y-116383390D02*
X200391635Y-116431009D01*
X200391635Y-116431009D02*
X200486873Y-116478628D01*
X200486873Y-116478628D02*
X200867825Y-116478628D01*
X199724968Y-116383390D02*
X199820206Y-116335771D01*
X199820206Y-116335771D02*
X199867825Y-116288152D01*
X199867825Y-116288152D02*
X199915444Y-116192914D01*
X199915444Y-116192914D02*
X199915444Y-116145295D01*
X199915444Y-116145295D02*
X199867825Y-116050057D01*
X199867825Y-116050057D02*
X199820206Y-116002438D01*
X199820206Y-116002438D02*
X199724968Y-115954819D01*
X199724968Y-115954819D02*
X199534492Y-115954819D01*
X199534492Y-115954819D02*
X199439254Y-116002438D01*
X199439254Y-116002438D02*
X199391635Y-116050057D01*
X199391635Y-116050057D02*
X199344016Y-116145295D01*
X199344016Y-116145295D02*
X199344016Y-116192914D01*
X199344016Y-116192914D02*
X199391635Y-116288152D01*
X199391635Y-116288152D02*
X199439254Y-116335771D01*
X199439254Y-116335771D02*
X199534492Y-116383390D01*
X199534492Y-116383390D02*
X199724968Y-116383390D01*
X199724968Y-116383390D02*
X199820206Y-116431009D01*
X199820206Y-116431009D02*
X199867825Y-116478628D01*
X199867825Y-116478628D02*
X199915444Y-116573866D01*
X199915444Y-116573866D02*
X199915444Y-116764342D01*
X199915444Y-116764342D02*
X199867825Y-116859580D01*
X199867825Y-116859580D02*
X199820206Y-116907200D01*
X199820206Y-116907200D02*
X199724968Y-116954819D01*
X199724968Y-116954819D02*
X199534492Y-116954819D01*
X199534492Y-116954819D02*
X199439254Y-116907200D01*
X199439254Y-116907200D02*
X199391635Y-116859580D01*
X199391635Y-116859580D02*
X199344016Y-116764342D01*
X199344016Y-116764342D02*
X199344016Y-116573866D01*
X199344016Y-116573866D02*
X199391635Y-116478628D01*
X199391635Y-116478628D02*
X199439254Y-116431009D01*
X199439254Y-116431009D02*
X199534492Y-116383390D01*
X205847588Y-82859580D02*
X205895207Y-82907200D01*
X205895207Y-82907200D02*
X206038064Y-82954819D01*
X206038064Y-82954819D02*
X206133302Y-82954819D01*
X206133302Y-82954819D02*
X206276159Y-82907200D01*
X206276159Y-82907200D02*
X206371397Y-82811961D01*
X206371397Y-82811961D02*
X206419016Y-82716723D01*
X206419016Y-82716723D02*
X206466635Y-82526247D01*
X206466635Y-82526247D02*
X206466635Y-82383390D01*
X206466635Y-82383390D02*
X206419016Y-82192914D01*
X206419016Y-82192914D02*
X206371397Y-82097676D01*
X206371397Y-82097676D02*
X206276159Y-82002438D01*
X206276159Y-82002438D02*
X206133302Y-81954819D01*
X206133302Y-81954819D02*
X206038064Y-81954819D01*
X206038064Y-81954819D02*
X205895207Y-82002438D01*
X205895207Y-82002438D02*
X205847588Y-82050057D01*
X205514254Y-81954819D02*
X204895207Y-81954819D01*
X204895207Y-81954819D02*
X205228540Y-82335771D01*
X205228540Y-82335771D02*
X205085683Y-82335771D01*
X205085683Y-82335771D02*
X204990445Y-82383390D01*
X204990445Y-82383390D02*
X204942826Y-82431009D01*
X204942826Y-82431009D02*
X204895207Y-82526247D01*
X204895207Y-82526247D02*
X204895207Y-82764342D01*
X204895207Y-82764342D02*
X204942826Y-82859580D01*
X204942826Y-82859580D02*
X204990445Y-82907200D01*
X204990445Y-82907200D02*
X205085683Y-82954819D01*
X205085683Y-82954819D02*
X205371397Y-82954819D01*
X205371397Y-82954819D02*
X205466635Y-82907200D01*
X205466635Y-82907200D02*
X205514254Y-82859580D01*
X204561873Y-81954819D02*
X203942826Y-81954819D01*
X203942826Y-81954819D02*
X204276159Y-82335771D01*
X204276159Y-82335771D02*
X204133302Y-82335771D01*
X204133302Y-82335771D02*
X204038064Y-82383390D01*
X204038064Y-82383390D02*
X203990445Y-82431009D01*
X203990445Y-82431009D02*
X203942826Y-82526247D01*
X203942826Y-82526247D02*
X203942826Y-82764342D01*
X203942826Y-82764342D02*
X203990445Y-82859580D01*
X203990445Y-82859580D02*
X204038064Y-82907200D01*
X204038064Y-82907200D02*
X204133302Y-82954819D01*
X204133302Y-82954819D02*
X204419016Y-82954819D01*
X204419016Y-82954819D02*
X204514254Y-82907200D01*
X204514254Y-82907200D02*
X204561873Y-82859580D01*
X199659550Y-82957142D02*
X199183359Y-82623809D01*
X199659550Y-82385714D02*
X198659550Y-82385714D01*
X198659550Y-82385714D02*
X198659550Y-82766666D01*
X198659550Y-82766666D02*
X198707169Y-82861904D01*
X198707169Y-82861904D02*
X198754788Y-82909523D01*
X198754788Y-82909523D02*
X198850026Y-82957142D01*
X198850026Y-82957142D02*
X198992883Y-82957142D01*
X198992883Y-82957142D02*
X199088121Y-82909523D01*
X199088121Y-82909523D02*
X199135740Y-82861904D01*
X199135740Y-82861904D02*
X199183359Y-82766666D01*
X199183359Y-82766666D02*
X199183359Y-82385714D01*
X199659550Y-83909523D02*
X199659550Y-83338095D01*
X199659550Y-83623809D02*
X198659550Y-83623809D01*
X198659550Y-83623809D02*
X198802407Y-83528571D01*
X198802407Y-83528571D02*
X198897645Y-83433333D01*
X198897645Y-83433333D02*
X198945264Y-83338095D01*
X198754788Y-84290476D02*
X198707169Y-84338095D01*
X198707169Y-84338095D02*
X198659550Y-84433333D01*
X198659550Y-84433333D02*
X198659550Y-84671428D01*
X198659550Y-84671428D02*
X198707169Y-84766666D01*
X198707169Y-84766666D02*
X198754788Y-84814285D01*
X198754788Y-84814285D02*
X198850026Y-84861904D01*
X198850026Y-84861904D02*
X198945264Y-84861904D01*
X198945264Y-84861904D02*
X199088121Y-84814285D01*
X199088121Y-84814285D02*
X199659550Y-84242857D01*
X199659550Y-84242857D02*
X199659550Y-84861904D01*
X205847588Y-84359580D02*
X205895207Y-84407200D01*
X205895207Y-84407200D02*
X206038064Y-84454819D01*
X206038064Y-84454819D02*
X206133302Y-84454819D01*
X206133302Y-84454819D02*
X206276159Y-84407200D01*
X206276159Y-84407200D02*
X206371397Y-84311961D01*
X206371397Y-84311961D02*
X206419016Y-84216723D01*
X206419016Y-84216723D02*
X206466635Y-84026247D01*
X206466635Y-84026247D02*
X206466635Y-83883390D01*
X206466635Y-83883390D02*
X206419016Y-83692914D01*
X206419016Y-83692914D02*
X206371397Y-83597676D01*
X206371397Y-83597676D02*
X206276159Y-83502438D01*
X206276159Y-83502438D02*
X206133302Y-83454819D01*
X206133302Y-83454819D02*
X206038064Y-83454819D01*
X206038064Y-83454819D02*
X205895207Y-83502438D01*
X205895207Y-83502438D02*
X205847588Y-83550057D01*
X205514254Y-83454819D02*
X204895207Y-83454819D01*
X204895207Y-83454819D02*
X205228540Y-83835771D01*
X205228540Y-83835771D02*
X205085683Y-83835771D01*
X205085683Y-83835771D02*
X204990445Y-83883390D01*
X204990445Y-83883390D02*
X204942826Y-83931009D01*
X204942826Y-83931009D02*
X204895207Y-84026247D01*
X204895207Y-84026247D02*
X204895207Y-84264342D01*
X204895207Y-84264342D02*
X204942826Y-84359580D01*
X204942826Y-84359580D02*
X204990445Y-84407200D01*
X204990445Y-84407200D02*
X205085683Y-84454819D01*
X205085683Y-84454819D02*
X205371397Y-84454819D01*
X205371397Y-84454819D02*
X205466635Y-84407200D01*
X205466635Y-84407200D02*
X205514254Y-84359580D01*
X204038064Y-83788152D02*
X204038064Y-84454819D01*
X204276159Y-83407200D02*
X204514254Y-84121485D01*
X204514254Y-84121485D02*
X203895207Y-84121485D01*
D11*
%TO.C,R2*%
X198182231Y-103587742D02*
X198182231Y-104062258D01*
X199227231Y-103587742D02*
X199227231Y-104062258D01*
%TO.C,C35*%
X202720311Y-118890000D02*
X202439151Y-118890000D01*
X202720311Y-119910000D02*
X202439151Y-119910000D01*
%TO.C,C32*%
X202720311Y-100990000D02*
X202439151Y-100990000D01*
X202720311Y-102010000D02*
X202439151Y-102010000D01*
%TO.C,R1*%
X201266989Y-102577500D02*
X200792473Y-102577500D01*
X201266989Y-103622500D02*
X200792473Y-103622500D01*
%TO.C,C43*%
X194190000Y-69034420D02*
X194190000Y-69315580D01*
X195210000Y-69034420D02*
X195210000Y-69315580D01*
%TO.C,C41*%
X202720311Y-65490000D02*
X202439151Y-65490000D01*
X202720311Y-66510000D02*
X202439151Y-66510000D01*
%TO.C,R5*%
X201266989Y-121977500D02*
X200792473Y-121977500D01*
X201266989Y-123022500D02*
X200792473Y-123022500D01*
%TO.C,R20*%
X198182231Y-69587742D02*
X198182231Y-70062258D01*
X199227231Y-69587742D02*
X199227231Y-70062258D01*
%TO.C,R3*%
X201271720Y-85077500D02*
X200797204Y-85077500D01*
X201271720Y-86122500D02*
X200797204Y-86122500D01*
%TO.C,R11*%
X196477500Y-103587742D02*
X196477500Y-104062258D01*
X197522500Y-103587742D02*
X197522500Y-104062258D01*
%TO.C,R19*%
X201266989Y-68577500D02*
X200792473Y-68577500D01*
X201266989Y-69622500D02*
X200792473Y-69622500D01*
%TO.C,R14*%
X199782231Y-119987742D02*
X199782231Y-120462258D01*
X200827231Y-119987742D02*
X200827231Y-120462258D01*
%TO.C,C36*%
X202720311Y-120390000D02*
X202439151Y-120390000D01*
X202720311Y-121410000D02*
X202439151Y-121410000D01*
%TO.C,C30*%
X194190000Y-122434420D02*
X194190000Y-122715580D01*
X195210000Y-122434420D02*
X195210000Y-122715580D01*
%TO.C,R18*%
X196477500Y-69587742D02*
X196477500Y-70062258D01*
X197522500Y-69587742D02*
X197522500Y-70062258D01*
%TO.C,R4*%
X198186962Y-86087742D02*
X198186962Y-86562258D01*
X199231962Y-86087742D02*
X199231962Y-86562258D01*
%TO.C,R17*%
X199782231Y-66587742D02*
X199782231Y-67062258D01*
X200827231Y-66587742D02*
X200827231Y-67062258D01*
%TO.C,R10*%
X199782231Y-100587742D02*
X199782231Y-101062258D01*
X200827231Y-100587742D02*
X200827231Y-101062258D01*
%TO.C,R6*%
X198182231Y-122987742D02*
X198182231Y-123462258D01*
X199227231Y-122987742D02*
X199227231Y-123462258D01*
%TO.C,C31*%
X202720311Y-99490000D02*
X202439151Y-99490000D01*
X202720311Y-100510000D02*
X202439151Y-100510000D01*
%TO.C,R16*%
X200366989Y-63877500D02*
X199892473Y-63877500D01*
X200366989Y-64922500D02*
X199892473Y-64922500D01*
%TO.C,R13*%
X196477500Y-86087742D02*
X196477500Y-86562258D01*
X197522500Y-86087742D02*
X197522500Y-86562258D01*
%TO.C,R7*%
X200366989Y-97877500D02*
X199892473Y-97877500D01*
X200366989Y-98922500D02*
X199892473Y-98922500D01*
%TO.C,R15*%
X195782231Y-122987742D02*
X195782231Y-123462258D01*
X196827231Y-122987742D02*
X196827231Y-123462258D01*
%TO.C,R9*%
X200371720Y-80377500D02*
X199897204Y-80377500D01*
X200371720Y-81422500D02*
X199897204Y-81422500D01*
%TO.C,C42*%
X202720311Y-66990000D02*
X202439151Y-66990000D01*
X202720311Y-68010000D02*
X202439151Y-68010000D01*
%TO.C,C28*%
X194190000Y-103034420D02*
X194190000Y-103315580D01*
X195210000Y-103034420D02*
X195210000Y-103315580D01*
%TO.C,C29*%
X194190000Y-85534420D02*
X194190000Y-85815580D01*
X195210000Y-85534420D02*
X195210000Y-85815580D01*
%TO.C,R8*%
X200366989Y-117277500D02*
X199892473Y-117277500D01*
X200366989Y-118322500D02*
X199892473Y-118322500D01*
%TO.C,C33*%
X202725042Y-81990000D02*
X202443882Y-81990000D01*
X202725042Y-83010000D02*
X202443882Y-83010000D01*
%TO.C,R12*%
X199786962Y-83087742D02*
X199786962Y-83562258D01*
X200831962Y-83087742D02*
X200831962Y-83562258D01*
%TO.C,C34*%
X202725042Y-83490000D02*
X202443882Y-83490000D01*
X202725042Y-84510000D02*
X202443882Y-84510000D01*
%TD*%
M02*
