%TF.GenerationSoftware,KiCad,Pcbnew,9.0.0-unknown-202503082020~491af0df39~ubuntu22.04.1*%
%TF.CreationDate,2025-03-09T22:30:16+01:00*%
%TF.ProjectId,PowkiBoard,506f776b-6942-46f6-9172-642e6b696361,rev?*%
%TF.SameCoordinates,Original*%
%TF.FileFunction,Legend,Top*%
%TF.FilePolarity,Positive*%
%FSLAX46Y46*%
G04 Gerber Fmt 4.6, Leading zero omitted, Abs format (unit mm)*
G04 Created by KiCad (PCBNEW 9.0.0-unknown-202503082020~491af0df39~ubuntu22.04.1) date 2025-03-09 22:30:16*
%MOMM*%
%LPD*%
G01*
G04 APERTURE LIST*
%ADD10C,0.150000*%
%ADD11C,0.100000*%
%ADD12C,0.120000*%
G04 APERTURE END LIST*
D10*
X186185714Y-59254819D02*
X186185714Y-58254819D01*
X186185714Y-58254819D02*
X186423809Y-58254819D01*
X186423809Y-58254819D02*
X186566666Y-58302438D01*
X186566666Y-58302438D02*
X186661904Y-58397676D01*
X186661904Y-58397676D02*
X186709523Y-58492914D01*
X186709523Y-58492914D02*
X186757142Y-58683390D01*
X186757142Y-58683390D02*
X186757142Y-58826247D01*
X186757142Y-58826247D02*
X186709523Y-59016723D01*
X186709523Y-59016723D02*
X186661904Y-59111961D01*
X186661904Y-59111961D02*
X186566666Y-59207200D01*
X186566666Y-59207200D02*
X186423809Y-59254819D01*
X186423809Y-59254819D02*
X186185714Y-59254819D01*
X187709523Y-59254819D02*
X187138095Y-59254819D01*
X187423809Y-59254819D02*
X187423809Y-58254819D01*
X187423809Y-58254819D02*
X187328571Y-58397676D01*
X187328571Y-58397676D02*
X187233333Y-58492914D01*
X187233333Y-58492914D02*
X187138095Y-58540533D01*
X188328571Y-58254819D02*
X188423809Y-58254819D01*
X188423809Y-58254819D02*
X188519047Y-58302438D01*
X188519047Y-58302438D02*
X188566666Y-58350057D01*
X188566666Y-58350057D02*
X188614285Y-58445295D01*
X188614285Y-58445295D02*
X188661904Y-58635771D01*
X188661904Y-58635771D02*
X188661904Y-58873866D01*
X188661904Y-58873866D02*
X188614285Y-59064342D01*
X188614285Y-59064342D02*
X188566666Y-59159580D01*
X188566666Y-59159580D02*
X188519047Y-59207200D01*
X188519047Y-59207200D02*
X188423809Y-59254819D01*
X188423809Y-59254819D02*
X188328571Y-59254819D01*
X188328571Y-59254819D02*
X188233333Y-59207200D01*
X188233333Y-59207200D02*
X188185714Y-59159580D01*
X188185714Y-59159580D02*
X188138095Y-59064342D01*
X188138095Y-59064342D02*
X188090476Y-58873866D01*
X188090476Y-58873866D02*
X188090476Y-58635771D01*
X188090476Y-58635771D02*
X188138095Y-58445295D01*
X188138095Y-58445295D02*
X188185714Y-58350057D01*
X188185714Y-58350057D02*
X188233333Y-58302438D01*
X188233333Y-58302438D02*
X188328571Y-58254819D01*
X196491604Y-79829580D02*
X196443985Y-79877200D01*
X196443985Y-79877200D02*
X196301128Y-79924819D01*
X196301128Y-79924819D02*
X196205890Y-79924819D01*
X196205890Y-79924819D02*
X196063033Y-79877200D01*
X196063033Y-79877200D02*
X195967795Y-79781961D01*
X195967795Y-79781961D02*
X195920176Y-79686723D01*
X195920176Y-79686723D02*
X195872557Y-79496247D01*
X195872557Y-79496247D02*
X195872557Y-79353390D01*
X195872557Y-79353390D02*
X195920176Y-79162914D01*
X195920176Y-79162914D02*
X195967795Y-79067676D01*
X195967795Y-79067676D02*
X196063033Y-78972438D01*
X196063033Y-78972438D02*
X196205890Y-78924819D01*
X196205890Y-78924819D02*
X196301128Y-78924819D01*
X196301128Y-78924819D02*
X196443985Y-78972438D01*
X196443985Y-78972438D02*
X196491604Y-79020057D01*
X197443985Y-79924819D02*
X196872557Y-79924819D01*
X197158271Y-79924819D02*
X197158271Y-78924819D01*
X197158271Y-78924819D02*
X197063033Y-79067676D01*
X197063033Y-79067676D02*
X196967795Y-79162914D01*
X196967795Y-79162914D02*
X196872557Y-79210533D01*
X197777319Y-78924819D02*
X198443985Y-78924819D01*
X198443985Y-78924819D02*
X198015414Y-79924819D01*
D11*
X211033333Y-58957419D02*
X210557143Y-58957419D01*
X210557143Y-58957419D02*
X210557143Y-57957419D01*
X211795238Y-58290752D02*
X211795238Y-58957419D01*
X211557143Y-57909800D02*
X211319048Y-58624085D01*
X211319048Y-58624085D02*
X211938095Y-58624085D01*
D10*
X194264311Y-81366666D02*
X194311931Y-81414285D01*
X194311931Y-81414285D02*
X194359550Y-81557142D01*
X194359550Y-81557142D02*
X194359550Y-81652380D01*
X194359550Y-81652380D02*
X194311931Y-81795237D01*
X194311931Y-81795237D02*
X194216692Y-81890475D01*
X194216692Y-81890475D02*
X194121454Y-81938094D01*
X194121454Y-81938094D02*
X193930978Y-81985713D01*
X193930978Y-81985713D02*
X193788121Y-81985713D01*
X193788121Y-81985713D02*
X193597645Y-81938094D01*
X193597645Y-81938094D02*
X193502407Y-81890475D01*
X193502407Y-81890475D02*
X193407169Y-81795237D01*
X193407169Y-81795237D02*
X193359550Y-81652380D01*
X193359550Y-81652380D02*
X193359550Y-81557142D01*
X193359550Y-81557142D02*
X193407169Y-81414285D01*
X193407169Y-81414285D02*
X193454788Y-81366666D01*
X194359550Y-80890475D02*
X194359550Y-80699999D01*
X194359550Y-80699999D02*
X194311931Y-80604761D01*
X194311931Y-80604761D02*
X194264311Y-80557142D01*
X194264311Y-80557142D02*
X194121454Y-80461904D01*
X194121454Y-80461904D02*
X193930978Y-80414285D01*
X193930978Y-80414285D02*
X193550026Y-80414285D01*
X193550026Y-80414285D02*
X193454788Y-80461904D01*
X193454788Y-80461904D02*
X193407169Y-80509523D01*
X193407169Y-80509523D02*
X193359550Y-80604761D01*
X193359550Y-80604761D02*
X193359550Y-80795237D01*
X193359550Y-80795237D02*
X193407169Y-80890475D01*
X193407169Y-80890475D02*
X193454788Y-80938094D01*
X193454788Y-80938094D02*
X193550026Y-80985713D01*
X193550026Y-80985713D02*
X193788121Y-80985713D01*
X193788121Y-80985713D02*
X193883359Y-80938094D01*
X193883359Y-80938094D02*
X193930978Y-80890475D01*
X193930978Y-80890475D02*
X193978597Y-80795237D01*
X193978597Y-80795237D02*
X193978597Y-80604761D01*
X193978597Y-80604761D02*
X193930978Y-80509523D01*
X193930978Y-80509523D02*
X193883359Y-80461904D01*
X193883359Y-80461904D02*
X193788121Y-80414285D01*
X164738095Y-47754819D02*
X164738095Y-46754819D01*
X164738095Y-47231009D02*
X165309523Y-47231009D01*
X165309523Y-47754819D02*
X165309523Y-46754819D01*
X166214285Y-47088152D02*
X166214285Y-47754819D01*
X165976190Y-46707200D02*
X165738095Y-47421485D01*
X165738095Y-47421485D02*
X166357142Y-47421485D01*
X224857142Y-125259580D02*
X224809523Y-125307200D01*
X224809523Y-125307200D02*
X224666666Y-125354819D01*
X224666666Y-125354819D02*
X224571428Y-125354819D01*
X224571428Y-125354819D02*
X224428571Y-125307200D01*
X224428571Y-125307200D02*
X224333333Y-125211961D01*
X224333333Y-125211961D02*
X224285714Y-125116723D01*
X224285714Y-125116723D02*
X224238095Y-124926247D01*
X224238095Y-124926247D02*
X224238095Y-124783390D01*
X224238095Y-124783390D02*
X224285714Y-124592914D01*
X224285714Y-124592914D02*
X224333333Y-124497676D01*
X224333333Y-124497676D02*
X224428571Y-124402438D01*
X224428571Y-124402438D02*
X224571428Y-124354819D01*
X224571428Y-124354819D02*
X224666666Y-124354819D01*
X224666666Y-124354819D02*
X224809523Y-124402438D01*
X224809523Y-124402438D02*
X224857142Y-124450057D01*
X225238095Y-124450057D02*
X225285714Y-124402438D01*
X225285714Y-124402438D02*
X225380952Y-124354819D01*
X225380952Y-124354819D02*
X225619047Y-124354819D01*
X225619047Y-124354819D02*
X225714285Y-124402438D01*
X225714285Y-124402438D02*
X225761904Y-124450057D01*
X225761904Y-124450057D02*
X225809523Y-124545295D01*
X225809523Y-124545295D02*
X225809523Y-124640533D01*
X225809523Y-124640533D02*
X225761904Y-124783390D01*
X225761904Y-124783390D02*
X225190476Y-125354819D01*
X225190476Y-125354819D02*
X225809523Y-125354819D01*
X226142857Y-124354819D02*
X226809523Y-124354819D01*
X226809523Y-124354819D02*
X226380952Y-125354819D01*
X191759580Y-64842857D02*
X191807200Y-64890476D01*
X191807200Y-64890476D02*
X191854819Y-65033333D01*
X191854819Y-65033333D02*
X191854819Y-65128571D01*
X191854819Y-65128571D02*
X191807200Y-65271428D01*
X191807200Y-65271428D02*
X191711961Y-65366666D01*
X191711961Y-65366666D02*
X191616723Y-65414285D01*
X191616723Y-65414285D02*
X191426247Y-65461904D01*
X191426247Y-65461904D02*
X191283390Y-65461904D01*
X191283390Y-65461904D02*
X191092914Y-65414285D01*
X191092914Y-65414285D02*
X190997676Y-65366666D01*
X190997676Y-65366666D02*
X190902438Y-65271428D01*
X190902438Y-65271428D02*
X190854819Y-65128571D01*
X190854819Y-65128571D02*
X190854819Y-65033333D01*
X190854819Y-65033333D02*
X190902438Y-64890476D01*
X190902438Y-64890476D02*
X190950057Y-64842857D01*
X190854819Y-64509523D02*
X190854819Y-63890476D01*
X190854819Y-63890476D02*
X191235771Y-64223809D01*
X191235771Y-64223809D02*
X191235771Y-64080952D01*
X191235771Y-64080952D02*
X191283390Y-63985714D01*
X191283390Y-63985714D02*
X191331009Y-63938095D01*
X191331009Y-63938095D02*
X191426247Y-63890476D01*
X191426247Y-63890476D02*
X191664342Y-63890476D01*
X191664342Y-63890476D02*
X191759580Y-63938095D01*
X191759580Y-63938095D02*
X191807200Y-63985714D01*
X191807200Y-63985714D02*
X191854819Y-64080952D01*
X191854819Y-64080952D02*
X191854819Y-64366666D01*
X191854819Y-64366666D02*
X191807200Y-64461904D01*
X191807200Y-64461904D02*
X191759580Y-64509523D01*
X191283390Y-63319047D02*
X191235771Y-63414285D01*
X191235771Y-63414285D02*
X191188152Y-63461904D01*
X191188152Y-63461904D02*
X191092914Y-63509523D01*
X191092914Y-63509523D02*
X191045295Y-63509523D01*
X191045295Y-63509523D02*
X190950057Y-63461904D01*
X190950057Y-63461904D02*
X190902438Y-63414285D01*
X190902438Y-63414285D02*
X190854819Y-63319047D01*
X190854819Y-63319047D02*
X190854819Y-63128571D01*
X190854819Y-63128571D02*
X190902438Y-63033333D01*
X190902438Y-63033333D02*
X190950057Y-62985714D01*
X190950057Y-62985714D02*
X191045295Y-62938095D01*
X191045295Y-62938095D02*
X191092914Y-62938095D01*
X191092914Y-62938095D02*
X191188152Y-62985714D01*
X191188152Y-62985714D02*
X191235771Y-63033333D01*
X191235771Y-63033333D02*
X191283390Y-63128571D01*
X191283390Y-63128571D02*
X191283390Y-63319047D01*
X191283390Y-63319047D02*
X191331009Y-63414285D01*
X191331009Y-63414285D02*
X191378628Y-63461904D01*
X191378628Y-63461904D02*
X191473866Y-63509523D01*
X191473866Y-63509523D02*
X191664342Y-63509523D01*
X191664342Y-63509523D02*
X191759580Y-63461904D01*
X191759580Y-63461904D02*
X191807200Y-63414285D01*
X191807200Y-63414285D02*
X191854819Y-63319047D01*
X191854819Y-63319047D02*
X191854819Y-63128571D01*
X191854819Y-63128571D02*
X191807200Y-63033333D01*
X191807200Y-63033333D02*
X191759580Y-62985714D01*
X191759580Y-62985714D02*
X191664342Y-62938095D01*
X191664342Y-62938095D02*
X191473866Y-62938095D01*
X191473866Y-62938095D02*
X191378628Y-62985714D01*
X191378628Y-62985714D02*
X191331009Y-63033333D01*
X191331009Y-63033333D02*
X191283390Y-63128571D01*
X184361905Y-47994819D02*
X184361905Y-46994819D01*
X184361905Y-46994819D02*
X184600000Y-46994819D01*
X184600000Y-46994819D02*
X184742857Y-47042438D01*
X184742857Y-47042438D02*
X184838095Y-47137676D01*
X184838095Y-47137676D02*
X184885714Y-47232914D01*
X184885714Y-47232914D02*
X184933333Y-47423390D01*
X184933333Y-47423390D02*
X184933333Y-47566247D01*
X184933333Y-47566247D02*
X184885714Y-47756723D01*
X184885714Y-47756723D02*
X184838095Y-47851961D01*
X184838095Y-47851961D02*
X184742857Y-47947200D01*
X184742857Y-47947200D02*
X184600000Y-47994819D01*
X184600000Y-47994819D02*
X184361905Y-47994819D01*
X185266667Y-46994819D02*
X185933333Y-46994819D01*
X185933333Y-46994819D02*
X185504762Y-47994819D01*
X229238095Y-47754819D02*
X229238095Y-46754819D01*
X229238095Y-47231009D02*
X229809523Y-47231009D01*
X229809523Y-47754819D02*
X229809523Y-46754819D01*
X230809523Y-47754819D02*
X230238095Y-47754819D01*
X230523809Y-47754819D02*
X230523809Y-46754819D01*
X230523809Y-46754819D02*
X230428571Y-46897676D01*
X230428571Y-46897676D02*
X230333333Y-46992914D01*
X230333333Y-46992914D02*
X230238095Y-47040533D01*
X189264311Y-81342857D02*
X189311931Y-81390476D01*
X189311931Y-81390476D02*
X189359550Y-81533333D01*
X189359550Y-81533333D02*
X189359550Y-81628571D01*
X189359550Y-81628571D02*
X189311931Y-81771428D01*
X189311931Y-81771428D02*
X189216692Y-81866666D01*
X189216692Y-81866666D02*
X189121454Y-81914285D01*
X189121454Y-81914285D02*
X188930978Y-81961904D01*
X188930978Y-81961904D02*
X188788121Y-81961904D01*
X188788121Y-81961904D02*
X188597645Y-81914285D01*
X188597645Y-81914285D02*
X188502407Y-81866666D01*
X188502407Y-81866666D02*
X188407169Y-81771428D01*
X188407169Y-81771428D02*
X188359550Y-81628571D01*
X188359550Y-81628571D02*
X188359550Y-81533333D01*
X188359550Y-81533333D02*
X188407169Y-81390476D01*
X188407169Y-81390476D02*
X188454788Y-81342857D01*
X189359550Y-80390476D02*
X189359550Y-80961904D01*
X189359550Y-80676190D02*
X188359550Y-80676190D01*
X188359550Y-80676190D02*
X188502407Y-80771428D01*
X188502407Y-80771428D02*
X188597645Y-80866666D01*
X188597645Y-80866666D02*
X188645264Y-80961904D01*
X189359550Y-79438095D02*
X189359550Y-80009523D01*
X189359550Y-79723809D02*
X188359550Y-79723809D01*
X188359550Y-79723809D02*
X188502407Y-79819047D01*
X188502407Y-79819047D02*
X188597645Y-79914285D01*
X188597645Y-79914285D02*
X188645264Y-80009523D01*
X202736905Y-127594819D02*
X202736905Y-126594819D01*
X202736905Y-126594819D02*
X202975000Y-126594819D01*
X202975000Y-126594819D02*
X203117857Y-126642438D01*
X203117857Y-126642438D02*
X203213095Y-126737676D01*
X203213095Y-126737676D02*
X203260714Y-126832914D01*
X203260714Y-126832914D02*
X203308333Y-127023390D01*
X203308333Y-127023390D02*
X203308333Y-127166247D01*
X203308333Y-127166247D02*
X203260714Y-127356723D01*
X203260714Y-127356723D02*
X203213095Y-127451961D01*
X203213095Y-127451961D02*
X203117857Y-127547200D01*
X203117857Y-127547200D02*
X202975000Y-127594819D01*
X202975000Y-127594819D02*
X202736905Y-127594819D01*
X203689286Y-126690057D02*
X203736905Y-126642438D01*
X203736905Y-126642438D02*
X203832143Y-126594819D01*
X203832143Y-126594819D02*
X204070238Y-126594819D01*
X204070238Y-126594819D02*
X204165476Y-126642438D01*
X204165476Y-126642438D02*
X204213095Y-126690057D01*
X204213095Y-126690057D02*
X204260714Y-126785295D01*
X204260714Y-126785295D02*
X204260714Y-126880533D01*
X204260714Y-126880533D02*
X204213095Y-127023390D01*
X204213095Y-127023390D02*
X203641667Y-127594819D01*
X203641667Y-127594819D02*
X204260714Y-127594819D01*
X213742826Y-78506819D02*
X214314254Y-78506819D01*
X214028540Y-79506819D02*
X214028540Y-78506819D01*
X214647588Y-79506819D02*
X214647588Y-78506819D01*
X214647588Y-78506819D02*
X215028540Y-78506819D01*
X215028540Y-78506819D02*
X215123778Y-78554438D01*
X215123778Y-78554438D02*
X215171397Y-78602057D01*
X215171397Y-78602057D02*
X215219016Y-78697295D01*
X215219016Y-78697295D02*
X215219016Y-78840152D01*
X215219016Y-78840152D02*
X215171397Y-78935390D01*
X215171397Y-78935390D02*
X215123778Y-78983009D01*
X215123778Y-78983009D02*
X215028540Y-79030628D01*
X215028540Y-79030628D02*
X214647588Y-79030628D01*
X215552350Y-78506819D02*
X216171397Y-78506819D01*
X216171397Y-78506819D02*
X215838064Y-78887771D01*
X215838064Y-78887771D02*
X215980921Y-78887771D01*
X215980921Y-78887771D02*
X216076159Y-78935390D01*
X216076159Y-78935390D02*
X216123778Y-78983009D01*
X216123778Y-78983009D02*
X216171397Y-79078247D01*
X216171397Y-79078247D02*
X216171397Y-79316342D01*
X216171397Y-79316342D02*
X216123778Y-79411580D01*
X216123778Y-79411580D02*
X216076159Y-79459200D01*
X216076159Y-79459200D02*
X215980921Y-79506819D01*
X215980921Y-79506819D02*
X215695207Y-79506819D01*
X215695207Y-79506819D02*
X215599969Y-79459200D01*
X215599969Y-79459200D02*
X215552350Y-79411580D01*
X229901666Y-101184819D02*
X229901666Y-101899104D01*
X229901666Y-101899104D02*
X229854047Y-102041961D01*
X229854047Y-102041961D02*
X229758809Y-102137200D01*
X229758809Y-102137200D02*
X229615952Y-102184819D01*
X229615952Y-102184819D02*
X229520714Y-102184819D01*
X230282619Y-101184819D02*
X230949285Y-101184819D01*
X230949285Y-101184819D02*
X230520714Y-102184819D01*
X189259580Y-98866666D02*
X189307200Y-98914285D01*
X189307200Y-98914285D02*
X189354819Y-99057142D01*
X189354819Y-99057142D02*
X189354819Y-99152380D01*
X189354819Y-99152380D02*
X189307200Y-99295237D01*
X189307200Y-99295237D02*
X189211961Y-99390475D01*
X189211961Y-99390475D02*
X189116723Y-99438094D01*
X189116723Y-99438094D02*
X188926247Y-99485713D01*
X188926247Y-99485713D02*
X188783390Y-99485713D01*
X188783390Y-99485713D02*
X188592914Y-99438094D01*
X188592914Y-99438094D02*
X188497676Y-99390475D01*
X188497676Y-99390475D02*
X188402438Y-99295237D01*
X188402438Y-99295237D02*
X188354819Y-99152380D01*
X188354819Y-99152380D02*
X188354819Y-99057142D01*
X188354819Y-99057142D02*
X188402438Y-98914285D01*
X188402438Y-98914285D02*
X188450057Y-98866666D01*
X188354819Y-98533332D02*
X188354819Y-97914285D01*
X188354819Y-97914285D02*
X188735771Y-98247618D01*
X188735771Y-98247618D02*
X188735771Y-98104761D01*
X188735771Y-98104761D02*
X188783390Y-98009523D01*
X188783390Y-98009523D02*
X188831009Y-97961904D01*
X188831009Y-97961904D02*
X188926247Y-97914285D01*
X188926247Y-97914285D02*
X189164342Y-97914285D01*
X189164342Y-97914285D02*
X189259580Y-97961904D01*
X189259580Y-97961904D02*
X189307200Y-98009523D01*
X189307200Y-98009523D02*
X189354819Y-98104761D01*
X189354819Y-98104761D02*
X189354819Y-98390475D01*
X189354819Y-98390475D02*
X189307200Y-98485713D01*
X189307200Y-98485713D02*
X189259580Y-98533332D01*
D11*
X169166666Y-92057419D02*
X169166666Y-92771704D01*
X169166666Y-92771704D02*
X169119047Y-92914561D01*
X169119047Y-92914561D02*
X169023809Y-93009800D01*
X169023809Y-93009800D02*
X168880952Y-93057419D01*
X168880952Y-93057419D02*
X168785714Y-93057419D01*
X169595238Y-92152657D02*
X169642857Y-92105038D01*
X169642857Y-92105038D02*
X169738095Y-92057419D01*
X169738095Y-92057419D02*
X169976190Y-92057419D01*
X169976190Y-92057419D02*
X170071428Y-92105038D01*
X170071428Y-92105038D02*
X170119047Y-92152657D01*
X170119047Y-92152657D02*
X170166666Y-92247895D01*
X170166666Y-92247895D02*
X170166666Y-92343133D01*
X170166666Y-92343133D02*
X170119047Y-92485990D01*
X170119047Y-92485990D02*
X169547619Y-93057419D01*
X169547619Y-93057419D02*
X170166666Y-93057419D01*
D10*
X197013095Y-124854819D02*
X197584523Y-124854819D01*
X197298809Y-125854819D02*
X197298809Y-124854819D01*
X197917857Y-125854819D02*
X197917857Y-124854819D01*
X197917857Y-124854819D02*
X198298809Y-124854819D01*
X198298809Y-124854819D02*
X198394047Y-124902438D01*
X198394047Y-124902438D02*
X198441666Y-124950057D01*
X198441666Y-124950057D02*
X198489285Y-125045295D01*
X198489285Y-125045295D02*
X198489285Y-125188152D01*
X198489285Y-125188152D02*
X198441666Y-125283390D01*
X198441666Y-125283390D02*
X198394047Y-125331009D01*
X198394047Y-125331009D02*
X198298809Y-125378628D01*
X198298809Y-125378628D02*
X197917857Y-125378628D01*
X199346428Y-124854819D02*
X199155952Y-124854819D01*
X199155952Y-124854819D02*
X199060714Y-124902438D01*
X199060714Y-124902438D02*
X199013095Y-124950057D01*
X199013095Y-124950057D02*
X198917857Y-125092914D01*
X198917857Y-125092914D02*
X198870238Y-125283390D01*
X198870238Y-125283390D02*
X198870238Y-125664342D01*
X198870238Y-125664342D02*
X198917857Y-125759580D01*
X198917857Y-125759580D02*
X198965476Y-125807200D01*
X198965476Y-125807200D02*
X199060714Y-125854819D01*
X199060714Y-125854819D02*
X199251190Y-125854819D01*
X199251190Y-125854819D02*
X199346428Y-125807200D01*
X199346428Y-125807200D02*
X199394047Y-125759580D01*
X199394047Y-125759580D02*
X199441666Y-125664342D01*
X199441666Y-125664342D02*
X199441666Y-125426247D01*
X199441666Y-125426247D02*
X199394047Y-125331009D01*
X199394047Y-125331009D02*
X199346428Y-125283390D01*
X199346428Y-125283390D02*
X199251190Y-125235771D01*
X199251190Y-125235771D02*
X199060714Y-125235771D01*
X199060714Y-125235771D02*
X198965476Y-125283390D01*
X198965476Y-125283390D02*
X198917857Y-125331009D01*
X198917857Y-125331009D02*
X198870238Y-125426247D01*
X177804761Y-56650057D02*
X177709523Y-56602438D01*
X177709523Y-56602438D02*
X177614285Y-56507200D01*
X177614285Y-56507200D02*
X177471428Y-56364342D01*
X177471428Y-56364342D02*
X177376190Y-56316723D01*
X177376190Y-56316723D02*
X177280952Y-56316723D01*
X177328571Y-56554819D02*
X177233333Y-56507200D01*
X177233333Y-56507200D02*
X177138095Y-56411961D01*
X177138095Y-56411961D02*
X177090476Y-56221485D01*
X177090476Y-56221485D02*
X177090476Y-55888152D01*
X177090476Y-55888152D02*
X177138095Y-55697676D01*
X177138095Y-55697676D02*
X177233333Y-55602438D01*
X177233333Y-55602438D02*
X177328571Y-55554819D01*
X177328571Y-55554819D02*
X177519047Y-55554819D01*
X177519047Y-55554819D02*
X177614285Y-55602438D01*
X177614285Y-55602438D02*
X177709523Y-55697676D01*
X177709523Y-55697676D02*
X177757142Y-55888152D01*
X177757142Y-55888152D02*
X177757142Y-56221485D01*
X177757142Y-56221485D02*
X177709523Y-56411961D01*
X177709523Y-56411961D02*
X177614285Y-56507200D01*
X177614285Y-56507200D02*
X177519047Y-56554819D01*
X177519047Y-56554819D02*
X177328571Y-56554819D01*
X178090476Y-55554819D02*
X178709523Y-55554819D01*
X178709523Y-55554819D02*
X178376190Y-55935771D01*
X178376190Y-55935771D02*
X178519047Y-55935771D01*
X178519047Y-55935771D02*
X178614285Y-55983390D01*
X178614285Y-55983390D02*
X178661904Y-56031009D01*
X178661904Y-56031009D02*
X178709523Y-56126247D01*
X178709523Y-56126247D02*
X178709523Y-56364342D01*
X178709523Y-56364342D02*
X178661904Y-56459580D01*
X178661904Y-56459580D02*
X178614285Y-56507200D01*
X178614285Y-56507200D02*
X178519047Y-56554819D01*
X178519047Y-56554819D02*
X178233333Y-56554819D01*
X178233333Y-56554819D02*
X178138095Y-56507200D01*
X178138095Y-56507200D02*
X178090476Y-56459580D01*
X178238095Y-92306819D02*
X178809523Y-92306819D01*
X178523809Y-93306819D02*
X178523809Y-92306819D01*
X179142857Y-93306819D02*
X179142857Y-92306819D01*
X179142857Y-92306819D02*
X179523809Y-92306819D01*
X179523809Y-92306819D02*
X179619047Y-92354438D01*
X179619047Y-92354438D02*
X179666666Y-92402057D01*
X179666666Y-92402057D02*
X179714285Y-92497295D01*
X179714285Y-92497295D02*
X179714285Y-92640152D01*
X179714285Y-92640152D02*
X179666666Y-92735390D01*
X179666666Y-92735390D02*
X179619047Y-92783009D01*
X179619047Y-92783009D02*
X179523809Y-92830628D01*
X179523809Y-92830628D02*
X179142857Y-92830628D01*
X180047619Y-92306819D02*
X180714285Y-92306819D01*
X180714285Y-92306819D02*
X180285714Y-93306819D01*
X214361873Y-88359580D02*
X214314254Y-88407200D01*
X214314254Y-88407200D02*
X214171397Y-88454819D01*
X214171397Y-88454819D02*
X214076159Y-88454819D01*
X214076159Y-88454819D02*
X213933302Y-88407200D01*
X213933302Y-88407200D02*
X213838064Y-88311961D01*
X213838064Y-88311961D02*
X213790445Y-88216723D01*
X213790445Y-88216723D02*
X213742826Y-88026247D01*
X213742826Y-88026247D02*
X213742826Y-87883390D01*
X213742826Y-87883390D02*
X213790445Y-87692914D01*
X213790445Y-87692914D02*
X213838064Y-87597676D01*
X213838064Y-87597676D02*
X213933302Y-87502438D01*
X213933302Y-87502438D02*
X214076159Y-87454819D01*
X214076159Y-87454819D02*
X214171397Y-87454819D01*
X214171397Y-87454819D02*
X214314254Y-87502438D01*
X214314254Y-87502438D02*
X214361873Y-87550057D01*
X214742826Y-87550057D02*
X214790445Y-87502438D01*
X214790445Y-87502438D02*
X214885683Y-87454819D01*
X214885683Y-87454819D02*
X215123778Y-87454819D01*
X215123778Y-87454819D02*
X215219016Y-87502438D01*
X215219016Y-87502438D02*
X215266635Y-87550057D01*
X215266635Y-87550057D02*
X215314254Y-87645295D01*
X215314254Y-87645295D02*
X215314254Y-87740533D01*
X215314254Y-87740533D02*
X215266635Y-87883390D01*
X215266635Y-87883390D02*
X214695207Y-88454819D01*
X214695207Y-88454819D02*
X215314254Y-88454819D01*
X216266635Y-88454819D02*
X215695207Y-88454819D01*
X215980921Y-88454819D02*
X215980921Y-87454819D01*
X215980921Y-87454819D02*
X215885683Y-87597676D01*
X215885683Y-87597676D02*
X215790445Y-87692914D01*
X215790445Y-87692914D02*
X215695207Y-87740533D01*
X229901666Y-86084819D02*
X229901666Y-86799104D01*
X229901666Y-86799104D02*
X229854047Y-86941961D01*
X229854047Y-86941961D02*
X229758809Y-87037200D01*
X229758809Y-87037200D02*
X229615952Y-87084819D01*
X229615952Y-87084819D02*
X229520714Y-87084819D01*
X230806428Y-86084819D02*
X230615952Y-86084819D01*
X230615952Y-86084819D02*
X230520714Y-86132438D01*
X230520714Y-86132438D02*
X230473095Y-86180057D01*
X230473095Y-86180057D02*
X230377857Y-86322914D01*
X230377857Y-86322914D02*
X230330238Y-86513390D01*
X230330238Y-86513390D02*
X230330238Y-86894342D01*
X230330238Y-86894342D02*
X230377857Y-86989580D01*
X230377857Y-86989580D02*
X230425476Y-87037200D01*
X230425476Y-87037200D02*
X230520714Y-87084819D01*
X230520714Y-87084819D02*
X230711190Y-87084819D01*
X230711190Y-87084819D02*
X230806428Y-87037200D01*
X230806428Y-87037200D02*
X230854047Y-86989580D01*
X230854047Y-86989580D02*
X230901666Y-86894342D01*
X230901666Y-86894342D02*
X230901666Y-86656247D01*
X230901666Y-86656247D02*
X230854047Y-86561009D01*
X230854047Y-86561009D02*
X230806428Y-86513390D01*
X230806428Y-86513390D02*
X230711190Y-86465771D01*
X230711190Y-86465771D02*
X230520714Y-86465771D01*
X230520714Y-86465771D02*
X230425476Y-86513390D01*
X230425476Y-86513390D02*
X230377857Y-86561009D01*
X230377857Y-86561009D02*
X230330238Y-86656247D01*
X172761905Y-47994819D02*
X172761905Y-46994819D01*
X172761905Y-46994819D02*
X173000000Y-46994819D01*
X173000000Y-46994819D02*
X173142857Y-47042438D01*
X173142857Y-47042438D02*
X173238095Y-47137676D01*
X173238095Y-47137676D02*
X173285714Y-47232914D01*
X173285714Y-47232914D02*
X173333333Y-47423390D01*
X173333333Y-47423390D02*
X173333333Y-47566247D01*
X173333333Y-47566247D02*
X173285714Y-47756723D01*
X173285714Y-47756723D02*
X173238095Y-47851961D01*
X173238095Y-47851961D02*
X173142857Y-47947200D01*
X173142857Y-47947200D02*
X173000000Y-47994819D01*
X173000000Y-47994819D02*
X172761905Y-47994819D01*
X174238095Y-46994819D02*
X173761905Y-46994819D01*
X173761905Y-46994819D02*
X173714286Y-47471009D01*
X173714286Y-47471009D02*
X173761905Y-47423390D01*
X173761905Y-47423390D02*
X173857143Y-47375771D01*
X173857143Y-47375771D02*
X174095238Y-47375771D01*
X174095238Y-47375771D02*
X174190476Y-47423390D01*
X174190476Y-47423390D02*
X174238095Y-47471009D01*
X174238095Y-47471009D02*
X174285714Y-47566247D01*
X174285714Y-47566247D02*
X174285714Y-47804342D01*
X174285714Y-47804342D02*
X174238095Y-47899580D01*
X174238095Y-47899580D02*
X174190476Y-47947200D01*
X174190476Y-47947200D02*
X174095238Y-47994819D01*
X174095238Y-47994819D02*
X173857143Y-47994819D01*
X173857143Y-47994819D02*
X173761905Y-47947200D01*
X173761905Y-47947200D02*
X173714286Y-47899580D01*
X194259580Y-98866666D02*
X194307200Y-98914285D01*
X194307200Y-98914285D02*
X194354819Y-99057142D01*
X194354819Y-99057142D02*
X194354819Y-99152380D01*
X194354819Y-99152380D02*
X194307200Y-99295237D01*
X194307200Y-99295237D02*
X194211961Y-99390475D01*
X194211961Y-99390475D02*
X194116723Y-99438094D01*
X194116723Y-99438094D02*
X193926247Y-99485713D01*
X193926247Y-99485713D02*
X193783390Y-99485713D01*
X193783390Y-99485713D02*
X193592914Y-99438094D01*
X193592914Y-99438094D02*
X193497676Y-99390475D01*
X193497676Y-99390475D02*
X193402438Y-99295237D01*
X193402438Y-99295237D02*
X193354819Y-99152380D01*
X193354819Y-99152380D02*
X193354819Y-99057142D01*
X193354819Y-99057142D02*
X193402438Y-98914285D01*
X193402438Y-98914285D02*
X193450057Y-98866666D01*
X194354819Y-97914285D02*
X194354819Y-98485713D01*
X194354819Y-98199999D02*
X193354819Y-98199999D01*
X193354819Y-98199999D02*
X193497676Y-98295237D01*
X193497676Y-98295237D02*
X193592914Y-98390475D01*
X193592914Y-98390475D02*
X193640533Y-98485713D01*
X194234580Y-118242857D02*
X194282200Y-118290476D01*
X194282200Y-118290476D02*
X194329819Y-118433333D01*
X194329819Y-118433333D02*
X194329819Y-118528571D01*
X194329819Y-118528571D02*
X194282200Y-118671428D01*
X194282200Y-118671428D02*
X194186961Y-118766666D01*
X194186961Y-118766666D02*
X194091723Y-118814285D01*
X194091723Y-118814285D02*
X193901247Y-118861904D01*
X193901247Y-118861904D02*
X193758390Y-118861904D01*
X193758390Y-118861904D02*
X193567914Y-118814285D01*
X193567914Y-118814285D02*
X193472676Y-118766666D01*
X193472676Y-118766666D02*
X193377438Y-118671428D01*
X193377438Y-118671428D02*
X193329819Y-118528571D01*
X193329819Y-118528571D02*
X193329819Y-118433333D01*
X193329819Y-118433333D02*
X193377438Y-118290476D01*
X193377438Y-118290476D02*
X193425057Y-118242857D01*
X194329819Y-117290476D02*
X194329819Y-117861904D01*
X194329819Y-117576190D02*
X193329819Y-117576190D01*
X193329819Y-117576190D02*
X193472676Y-117671428D01*
X193472676Y-117671428D02*
X193567914Y-117766666D01*
X193567914Y-117766666D02*
X193615533Y-117861904D01*
X193329819Y-116957142D02*
X193329819Y-116338095D01*
X193329819Y-116338095D02*
X193710771Y-116671428D01*
X193710771Y-116671428D02*
X193710771Y-116528571D01*
X193710771Y-116528571D02*
X193758390Y-116433333D01*
X193758390Y-116433333D02*
X193806009Y-116385714D01*
X193806009Y-116385714D02*
X193901247Y-116338095D01*
X193901247Y-116338095D02*
X194139342Y-116338095D01*
X194139342Y-116338095D02*
X194234580Y-116385714D01*
X194234580Y-116385714D02*
X194282200Y-116433333D01*
X194282200Y-116433333D02*
X194329819Y-116528571D01*
X194329819Y-116528571D02*
X194329819Y-116814285D01*
X194329819Y-116814285D02*
X194282200Y-116909523D01*
X194282200Y-116909523D02*
X194234580Y-116957142D01*
X197042826Y-105454819D02*
X197614254Y-105454819D01*
X197328540Y-106454819D02*
X197328540Y-105454819D01*
X197947588Y-106454819D02*
X197947588Y-105454819D01*
X197947588Y-105454819D02*
X198328540Y-105454819D01*
X198328540Y-105454819D02*
X198423778Y-105502438D01*
X198423778Y-105502438D02*
X198471397Y-105550057D01*
X198471397Y-105550057D02*
X198519016Y-105645295D01*
X198519016Y-105645295D02*
X198519016Y-105788152D01*
X198519016Y-105788152D02*
X198471397Y-105883390D01*
X198471397Y-105883390D02*
X198423778Y-105931009D01*
X198423778Y-105931009D02*
X198328540Y-105978628D01*
X198328540Y-105978628D02*
X197947588Y-105978628D01*
X198899969Y-105550057D02*
X198947588Y-105502438D01*
X198947588Y-105502438D02*
X199042826Y-105454819D01*
X199042826Y-105454819D02*
X199280921Y-105454819D01*
X199280921Y-105454819D02*
X199376159Y-105502438D01*
X199376159Y-105502438D02*
X199423778Y-105550057D01*
X199423778Y-105550057D02*
X199471397Y-105645295D01*
X199471397Y-105645295D02*
X199471397Y-105740533D01*
X199471397Y-105740533D02*
X199423778Y-105883390D01*
X199423778Y-105883390D02*
X198852350Y-106454819D01*
X198852350Y-106454819D02*
X199471397Y-106454819D01*
D11*
X169166666Y-83057419D02*
X169166666Y-83771704D01*
X169166666Y-83771704D02*
X169119047Y-83914561D01*
X169119047Y-83914561D02*
X169023809Y-84009800D01*
X169023809Y-84009800D02*
X168880952Y-84057419D01*
X168880952Y-84057419D02*
X168785714Y-84057419D01*
X169547619Y-83057419D02*
X170166666Y-83057419D01*
X170166666Y-83057419D02*
X169833333Y-83438371D01*
X169833333Y-83438371D02*
X169976190Y-83438371D01*
X169976190Y-83438371D02*
X170071428Y-83485990D01*
X170071428Y-83485990D02*
X170119047Y-83533609D01*
X170119047Y-83533609D02*
X170166666Y-83628847D01*
X170166666Y-83628847D02*
X170166666Y-83866942D01*
X170166666Y-83866942D02*
X170119047Y-83962180D01*
X170119047Y-83962180D02*
X170071428Y-84009800D01*
X170071428Y-84009800D02*
X169976190Y-84057419D01*
X169976190Y-84057419D02*
X169690476Y-84057419D01*
X169690476Y-84057419D02*
X169595238Y-84009800D01*
X169595238Y-84009800D02*
X169547619Y-83962180D01*
D10*
X198842826Y-80354819D02*
X198842826Y-81164342D01*
X198842826Y-81164342D02*
X198890445Y-81259580D01*
X198890445Y-81259580D02*
X198938064Y-81307200D01*
X198938064Y-81307200D02*
X199033302Y-81354819D01*
X199033302Y-81354819D02*
X199223778Y-81354819D01*
X199223778Y-81354819D02*
X199319016Y-81307200D01*
X199319016Y-81307200D02*
X199366635Y-81259580D01*
X199366635Y-81259580D02*
X199414254Y-81164342D01*
X199414254Y-81164342D02*
X199414254Y-80354819D01*
X199842826Y-80450057D02*
X199890445Y-80402438D01*
X199890445Y-80402438D02*
X199985683Y-80354819D01*
X199985683Y-80354819D02*
X200223778Y-80354819D01*
X200223778Y-80354819D02*
X200319016Y-80402438D01*
X200319016Y-80402438D02*
X200366635Y-80450057D01*
X200366635Y-80450057D02*
X200414254Y-80545295D01*
X200414254Y-80545295D02*
X200414254Y-80640533D01*
X200414254Y-80640533D02*
X200366635Y-80783390D01*
X200366635Y-80783390D02*
X199795207Y-81354819D01*
X199795207Y-81354819D02*
X200414254Y-81354819D01*
X189259580Y-64842857D02*
X189307200Y-64890476D01*
X189307200Y-64890476D02*
X189354819Y-65033333D01*
X189354819Y-65033333D02*
X189354819Y-65128571D01*
X189354819Y-65128571D02*
X189307200Y-65271428D01*
X189307200Y-65271428D02*
X189211961Y-65366666D01*
X189211961Y-65366666D02*
X189116723Y-65414285D01*
X189116723Y-65414285D02*
X188926247Y-65461904D01*
X188926247Y-65461904D02*
X188783390Y-65461904D01*
X188783390Y-65461904D02*
X188592914Y-65414285D01*
X188592914Y-65414285D02*
X188497676Y-65366666D01*
X188497676Y-65366666D02*
X188402438Y-65271428D01*
X188402438Y-65271428D02*
X188354819Y-65128571D01*
X188354819Y-65128571D02*
X188354819Y-65033333D01*
X188354819Y-65033333D02*
X188402438Y-64890476D01*
X188402438Y-64890476D02*
X188450057Y-64842857D01*
X188354819Y-64509523D02*
X188354819Y-63890476D01*
X188354819Y-63890476D02*
X188735771Y-64223809D01*
X188735771Y-64223809D02*
X188735771Y-64080952D01*
X188735771Y-64080952D02*
X188783390Y-63985714D01*
X188783390Y-63985714D02*
X188831009Y-63938095D01*
X188831009Y-63938095D02*
X188926247Y-63890476D01*
X188926247Y-63890476D02*
X189164342Y-63890476D01*
X189164342Y-63890476D02*
X189259580Y-63938095D01*
X189259580Y-63938095D02*
X189307200Y-63985714D01*
X189307200Y-63985714D02*
X189354819Y-64080952D01*
X189354819Y-64080952D02*
X189354819Y-64366666D01*
X189354819Y-64366666D02*
X189307200Y-64461904D01*
X189307200Y-64461904D02*
X189259580Y-64509523D01*
X189354819Y-63414285D02*
X189354819Y-63223809D01*
X189354819Y-63223809D02*
X189307200Y-63128571D01*
X189307200Y-63128571D02*
X189259580Y-63080952D01*
X189259580Y-63080952D02*
X189116723Y-62985714D01*
X189116723Y-62985714D02*
X188926247Y-62938095D01*
X188926247Y-62938095D02*
X188545295Y-62938095D01*
X188545295Y-62938095D02*
X188450057Y-62985714D01*
X188450057Y-62985714D02*
X188402438Y-63033333D01*
X188402438Y-63033333D02*
X188354819Y-63128571D01*
X188354819Y-63128571D02*
X188354819Y-63319047D01*
X188354819Y-63319047D02*
X188402438Y-63414285D01*
X188402438Y-63414285D02*
X188450057Y-63461904D01*
X188450057Y-63461904D02*
X188545295Y-63509523D01*
X188545295Y-63509523D02*
X188783390Y-63509523D01*
X188783390Y-63509523D02*
X188878628Y-63461904D01*
X188878628Y-63461904D02*
X188926247Y-63414285D01*
X188926247Y-63414285D02*
X188973866Y-63319047D01*
X188973866Y-63319047D02*
X188973866Y-63128571D01*
X188973866Y-63128571D02*
X188926247Y-63033333D01*
X188926247Y-63033333D02*
X188878628Y-62985714D01*
X188878628Y-62985714D02*
X188783390Y-62938095D01*
X191624819Y-54942857D02*
X191148628Y-55276190D01*
X191624819Y-55514285D02*
X190624819Y-55514285D01*
X190624819Y-55514285D02*
X190624819Y-55133333D01*
X190624819Y-55133333D02*
X190672438Y-55038095D01*
X190672438Y-55038095D02*
X190720057Y-54990476D01*
X190720057Y-54990476D02*
X190815295Y-54942857D01*
X190815295Y-54942857D02*
X190958152Y-54942857D01*
X190958152Y-54942857D02*
X191053390Y-54990476D01*
X191053390Y-54990476D02*
X191101009Y-55038095D01*
X191101009Y-55038095D02*
X191148628Y-55133333D01*
X191148628Y-55133333D02*
X191148628Y-55514285D01*
X190720057Y-54561904D02*
X190672438Y-54514285D01*
X190672438Y-54514285D02*
X190624819Y-54419047D01*
X190624819Y-54419047D02*
X190624819Y-54180952D01*
X190624819Y-54180952D02*
X190672438Y-54085714D01*
X190672438Y-54085714D02*
X190720057Y-54038095D01*
X190720057Y-54038095D02*
X190815295Y-53990476D01*
X190815295Y-53990476D02*
X190910533Y-53990476D01*
X190910533Y-53990476D02*
X191053390Y-54038095D01*
X191053390Y-54038095D02*
X191624819Y-54609523D01*
X191624819Y-54609523D02*
X191624819Y-53990476D01*
X190958152Y-53133333D02*
X191624819Y-53133333D01*
X190577200Y-53371428D02*
X191291485Y-53609523D01*
X191291485Y-53609523D02*
X191291485Y-52990476D01*
X180024819Y-54942857D02*
X179548628Y-55276190D01*
X180024819Y-55514285D02*
X179024819Y-55514285D01*
X179024819Y-55514285D02*
X179024819Y-55133333D01*
X179024819Y-55133333D02*
X179072438Y-55038095D01*
X179072438Y-55038095D02*
X179120057Y-54990476D01*
X179120057Y-54990476D02*
X179215295Y-54942857D01*
X179215295Y-54942857D02*
X179358152Y-54942857D01*
X179358152Y-54942857D02*
X179453390Y-54990476D01*
X179453390Y-54990476D02*
X179501009Y-55038095D01*
X179501009Y-55038095D02*
X179548628Y-55133333D01*
X179548628Y-55133333D02*
X179548628Y-55514285D01*
X179120057Y-54561904D02*
X179072438Y-54514285D01*
X179072438Y-54514285D02*
X179024819Y-54419047D01*
X179024819Y-54419047D02*
X179024819Y-54180952D01*
X179024819Y-54180952D02*
X179072438Y-54085714D01*
X179072438Y-54085714D02*
X179120057Y-54038095D01*
X179120057Y-54038095D02*
X179215295Y-53990476D01*
X179215295Y-53990476D02*
X179310533Y-53990476D01*
X179310533Y-53990476D02*
X179453390Y-54038095D01*
X179453390Y-54038095D02*
X180024819Y-54609523D01*
X180024819Y-54609523D02*
X180024819Y-53990476D01*
X179120057Y-53609523D02*
X179072438Y-53561904D01*
X179072438Y-53561904D02*
X179024819Y-53466666D01*
X179024819Y-53466666D02*
X179024819Y-53228571D01*
X179024819Y-53228571D02*
X179072438Y-53133333D01*
X179072438Y-53133333D02*
X179120057Y-53085714D01*
X179120057Y-53085714D02*
X179215295Y-53038095D01*
X179215295Y-53038095D02*
X179310533Y-53038095D01*
X179310533Y-53038095D02*
X179453390Y-53085714D01*
X179453390Y-53085714D02*
X180024819Y-53657142D01*
X180024819Y-53657142D02*
X180024819Y-53038095D01*
X189234580Y-118242857D02*
X189282200Y-118290476D01*
X189282200Y-118290476D02*
X189329819Y-118433333D01*
X189329819Y-118433333D02*
X189329819Y-118528571D01*
X189329819Y-118528571D02*
X189282200Y-118671428D01*
X189282200Y-118671428D02*
X189186961Y-118766666D01*
X189186961Y-118766666D02*
X189091723Y-118814285D01*
X189091723Y-118814285D02*
X188901247Y-118861904D01*
X188901247Y-118861904D02*
X188758390Y-118861904D01*
X188758390Y-118861904D02*
X188567914Y-118814285D01*
X188567914Y-118814285D02*
X188472676Y-118766666D01*
X188472676Y-118766666D02*
X188377438Y-118671428D01*
X188377438Y-118671428D02*
X188329819Y-118528571D01*
X188329819Y-118528571D02*
X188329819Y-118433333D01*
X188329819Y-118433333D02*
X188377438Y-118290476D01*
X188377438Y-118290476D02*
X188425057Y-118242857D01*
X189329819Y-117290476D02*
X189329819Y-117861904D01*
X189329819Y-117576190D02*
X188329819Y-117576190D01*
X188329819Y-117576190D02*
X188472676Y-117671428D01*
X188472676Y-117671428D02*
X188567914Y-117766666D01*
X188567914Y-117766666D02*
X188615533Y-117861904D01*
X188329819Y-116385714D02*
X188329819Y-116861904D01*
X188329819Y-116861904D02*
X188806009Y-116909523D01*
X188806009Y-116909523D02*
X188758390Y-116861904D01*
X188758390Y-116861904D02*
X188710771Y-116766666D01*
X188710771Y-116766666D02*
X188710771Y-116528571D01*
X188710771Y-116528571D02*
X188758390Y-116433333D01*
X188758390Y-116433333D02*
X188806009Y-116385714D01*
X188806009Y-116385714D02*
X188901247Y-116338095D01*
X188901247Y-116338095D02*
X189139342Y-116338095D01*
X189139342Y-116338095D02*
X189234580Y-116385714D01*
X189234580Y-116385714D02*
X189282200Y-116433333D01*
X189282200Y-116433333D02*
X189329819Y-116528571D01*
X189329819Y-116528571D02*
X189329819Y-116766666D01*
X189329819Y-116766666D02*
X189282200Y-116861904D01*
X189282200Y-116861904D02*
X189234580Y-116909523D01*
X211333333Y-105859580D02*
X211285714Y-105907200D01*
X211285714Y-105907200D02*
X211142857Y-105954819D01*
X211142857Y-105954819D02*
X211047619Y-105954819D01*
X211047619Y-105954819D02*
X210904762Y-105907200D01*
X210904762Y-105907200D02*
X210809524Y-105811961D01*
X210809524Y-105811961D02*
X210761905Y-105716723D01*
X210761905Y-105716723D02*
X210714286Y-105526247D01*
X210714286Y-105526247D02*
X210714286Y-105383390D01*
X210714286Y-105383390D02*
X210761905Y-105192914D01*
X210761905Y-105192914D02*
X210809524Y-105097676D01*
X210809524Y-105097676D02*
X210904762Y-105002438D01*
X210904762Y-105002438D02*
X211047619Y-104954819D01*
X211047619Y-104954819D02*
X211142857Y-104954819D01*
X211142857Y-104954819D02*
X211285714Y-105002438D01*
X211285714Y-105002438D02*
X211333333Y-105050057D01*
X211666667Y-104954819D02*
X212333333Y-104954819D01*
X212333333Y-104954819D02*
X211904762Y-105954819D01*
X190161905Y-47994819D02*
X190161905Y-46994819D01*
X190161905Y-46994819D02*
X190400000Y-46994819D01*
X190400000Y-46994819D02*
X190542857Y-47042438D01*
X190542857Y-47042438D02*
X190638095Y-47137676D01*
X190638095Y-47137676D02*
X190685714Y-47232914D01*
X190685714Y-47232914D02*
X190733333Y-47423390D01*
X190733333Y-47423390D02*
X190733333Y-47566247D01*
X190733333Y-47566247D02*
X190685714Y-47756723D01*
X190685714Y-47756723D02*
X190638095Y-47851961D01*
X190638095Y-47851961D02*
X190542857Y-47947200D01*
X190542857Y-47947200D02*
X190400000Y-47994819D01*
X190400000Y-47994819D02*
X190161905Y-47994819D01*
X191304762Y-47423390D02*
X191209524Y-47375771D01*
X191209524Y-47375771D02*
X191161905Y-47328152D01*
X191161905Y-47328152D02*
X191114286Y-47232914D01*
X191114286Y-47232914D02*
X191114286Y-47185295D01*
X191114286Y-47185295D02*
X191161905Y-47090057D01*
X191161905Y-47090057D02*
X191209524Y-47042438D01*
X191209524Y-47042438D02*
X191304762Y-46994819D01*
X191304762Y-46994819D02*
X191495238Y-46994819D01*
X191495238Y-46994819D02*
X191590476Y-47042438D01*
X191590476Y-47042438D02*
X191638095Y-47090057D01*
X191638095Y-47090057D02*
X191685714Y-47185295D01*
X191685714Y-47185295D02*
X191685714Y-47232914D01*
X191685714Y-47232914D02*
X191638095Y-47328152D01*
X191638095Y-47328152D02*
X191590476Y-47375771D01*
X191590476Y-47375771D02*
X191495238Y-47423390D01*
X191495238Y-47423390D02*
X191304762Y-47423390D01*
X191304762Y-47423390D02*
X191209524Y-47471009D01*
X191209524Y-47471009D02*
X191161905Y-47518628D01*
X191161905Y-47518628D02*
X191114286Y-47613866D01*
X191114286Y-47613866D02*
X191114286Y-47804342D01*
X191114286Y-47804342D02*
X191161905Y-47899580D01*
X191161905Y-47899580D02*
X191209524Y-47947200D01*
X191209524Y-47947200D02*
X191304762Y-47994819D01*
X191304762Y-47994819D02*
X191495238Y-47994819D01*
X191495238Y-47994819D02*
X191590476Y-47947200D01*
X191590476Y-47947200D02*
X191638095Y-47899580D01*
X191638095Y-47899580D02*
X191685714Y-47804342D01*
X191685714Y-47804342D02*
X191685714Y-47613866D01*
X191685714Y-47613866D02*
X191638095Y-47518628D01*
X191638095Y-47518628D02*
X191590476Y-47471009D01*
X191590476Y-47471009D02*
X191495238Y-47423390D01*
X189404761Y-56650057D02*
X189309523Y-56602438D01*
X189309523Y-56602438D02*
X189214285Y-56507200D01*
X189214285Y-56507200D02*
X189071428Y-56364342D01*
X189071428Y-56364342D02*
X188976190Y-56316723D01*
X188976190Y-56316723D02*
X188880952Y-56316723D01*
X188928571Y-56554819D02*
X188833333Y-56507200D01*
X188833333Y-56507200D02*
X188738095Y-56411961D01*
X188738095Y-56411961D02*
X188690476Y-56221485D01*
X188690476Y-56221485D02*
X188690476Y-55888152D01*
X188690476Y-55888152D02*
X188738095Y-55697676D01*
X188738095Y-55697676D02*
X188833333Y-55602438D01*
X188833333Y-55602438D02*
X188928571Y-55554819D01*
X188928571Y-55554819D02*
X189119047Y-55554819D01*
X189119047Y-55554819D02*
X189214285Y-55602438D01*
X189214285Y-55602438D02*
X189309523Y-55697676D01*
X189309523Y-55697676D02*
X189357142Y-55888152D01*
X189357142Y-55888152D02*
X189357142Y-56221485D01*
X189357142Y-56221485D02*
X189309523Y-56411961D01*
X189309523Y-56411961D02*
X189214285Y-56507200D01*
X189214285Y-56507200D02*
X189119047Y-56554819D01*
X189119047Y-56554819D02*
X188928571Y-56554819D01*
X190261904Y-55554819D02*
X189785714Y-55554819D01*
X189785714Y-55554819D02*
X189738095Y-56031009D01*
X189738095Y-56031009D02*
X189785714Y-55983390D01*
X189785714Y-55983390D02*
X189880952Y-55935771D01*
X189880952Y-55935771D02*
X190119047Y-55935771D01*
X190119047Y-55935771D02*
X190214285Y-55983390D01*
X190214285Y-55983390D02*
X190261904Y-56031009D01*
X190261904Y-56031009D02*
X190309523Y-56126247D01*
X190309523Y-56126247D02*
X190309523Y-56364342D01*
X190309523Y-56364342D02*
X190261904Y-56459580D01*
X190261904Y-56459580D02*
X190214285Y-56507200D01*
X190214285Y-56507200D02*
X190119047Y-56554819D01*
X190119047Y-56554819D02*
X189880952Y-56554819D01*
X189880952Y-56554819D02*
X189785714Y-56507200D01*
X189785714Y-56507200D02*
X189738095Y-56459580D01*
X214357142Y-125259580D02*
X214309523Y-125307200D01*
X214309523Y-125307200D02*
X214166666Y-125354819D01*
X214166666Y-125354819D02*
X214071428Y-125354819D01*
X214071428Y-125354819D02*
X213928571Y-125307200D01*
X213928571Y-125307200D02*
X213833333Y-125211961D01*
X213833333Y-125211961D02*
X213785714Y-125116723D01*
X213785714Y-125116723D02*
X213738095Y-124926247D01*
X213738095Y-124926247D02*
X213738095Y-124783390D01*
X213738095Y-124783390D02*
X213785714Y-124592914D01*
X213785714Y-124592914D02*
X213833333Y-124497676D01*
X213833333Y-124497676D02*
X213928571Y-124402438D01*
X213928571Y-124402438D02*
X214071428Y-124354819D01*
X214071428Y-124354819D02*
X214166666Y-124354819D01*
X214166666Y-124354819D02*
X214309523Y-124402438D01*
X214309523Y-124402438D02*
X214357142Y-124450057D01*
X214738095Y-124450057D02*
X214785714Y-124402438D01*
X214785714Y-124402438D02*
X214880952Y-124354819D01*
X214880952Y-124354819D02*
X215119047Y-124354819D01*
X215119047Y-124354819D02*
X215214285Y-124402438D01*
X215214285Y-124402438D02*
X215261904Y-124450057D01*
X215261904Y-124450057D02*
X215309523Y-124545295D01*
X215309523Y-124545295D02*
X215309523Y-124640533D01*
X215309523Y-124640533D02*
X215261904Y-124783390D01*
X215261904Y-124783390D02*
X214690476Y-125354819D01*
X214690476Y-125354819D02*
X215309523Y-125354819D01*
X216166666Y-124688152D02*
X216166666Y-125354819D01*
X215928571Y-124307200D02*
X215690476Y-125021485D01*
X215690476Y-125021485D02*
X216309523Y-125021485D01*
X197042826Y-87954819D02*
X197614254Y-87954819D01*
X197328540Y-88954819D02*
X197328540Y-87954819D01*
X197947588Y-88954819D02*
X197947588Y-87954819D01*
X197947588Y-87954819D02*
X198328540Y-87954819D01*
X198328540Y-87954819D02*
X198423778Y-88002438D01*
X198423778Y-88002438D02*
X198471397Y-88050057D01*
X198471397Y-88050057D02*
X198519016Y-88145295D01*
X198519016Y-88145295D02*
X198519016Y-88288152D01*
X198519016Y-88288152D02*
X198471397Y-88383390D01*
X198471397Y-88383390D02*
X198423778Y-88431009D01*
X198423778Y-88431009D02*
X198328540Y-88478628D01*
X198328540Y-88478628D02*
X197947588Y-88478628D01*
X199376159Y-88288152D02*
X199376159Y-88954819D01*
X199138064Y-87907200D02*
X198899969Y-88621485D01*
X198899969Y-88621485D02*
X199519016Y-88621485D01*
X174254819Y-54942857D02*
X173778628Y-55276190D01*
X174254819Y-55514285D02*
X173254819Y-55514285D01*
X173254819Y-55514285D02*
X173254819Y-55133333D01*
X173254819Y-55133333D02*
X173302438Y-55038095D01*
X173302438Y-55038095D02*
X173350057Y-54990476D01*
X173350057Y-54990476D02*
X173445295Y-54942857D01*
X173445295Y-54942857D02*
X173588152Y-54942857D01*
X173588152Y-54942857D02*
X173683390Y-54990476D01*
X173683390Y-54990476D02*
X173731009Y-55038095D01*
X173731009Y-55038095D02*
X173778628Y-55133333D01*
X173778628Y-55133333D02*
X173778628Y-55514285D01*
X173350057Y-54561904D02*
X173302438Y-54514285D01*
X173302438Y-54514285D02*
X173254819Y-54419047D01*
X173254819Y-54419047D02*
X173254819Y-54180952D01*
X173254819Y-54180952D02*
X173302438Y-54085714D01*
X173302438Y-54085714D02*
X173350057Y-54038095D01*
X173350057Y-54038095D02*
X173445295Y-53990476D01*
X173445295Y-53990476D02*
X173540533Y-53990476D01*
X173540533Y-53990476D02*
X173683390Y-54038095D01*
X173683390Y-54038095D02*
X174254819Y-54609523D01*
X174254819Y-54609523D02*
X174254819Y-53990476D01*
X174254819Y-53038095D02*
X174254819Y-53609523D01*
X174254819Y-53323809D02*
X173254819Y-53323809D01*
X173254819Y-53323809D02*
X173397676Y-53419047D01*
X173397676Y-53419047D02*
X173492914Y-53514285D01*
X173492914Y-53514285D02*
X173540533Y-53609523D01*
X198838095Y-63854819D02*
X198838095Y-64664342D01*
X198838095Y-64664342D02*
X198885714Y-64759580D01*
X198885714Y-64759580D02*
X198933333Y-64807200D01*
X198933333Y-64807200D02*
X199028571Y-64854819D01*
X199028571Y-64854819D02*
X199219047Y-64854819D01*
X199219047Y-64854819D02*
X199314285Y-64807200D01*
X199314285Y-64807200D02*
X199361904Y-64759580D01*
X199361904Y-64759580D02*
X199409523Y-64664342D01*
X199409523Y-64664342D02*
X199409523Y-63854819D01*
X200314285Y-64188152D02*
X200314285Y-64854819D01*
X200076190Y-63807200D02*
X199838095Y-64521485D01*
X199838095Y-64521485D02*
X200457142Y-64521485D01*
D11*
X214208333Y-109557419D02*
X213732143Y-109557419D01*
X213732143Y-109557419D02*
X213732143Y-108557419D01*
X214446429Y-108557419D02*
X215065476Y-108557419D01*
X215065476Y-108557419D02*
X214732143Y-108938371D01*
X214732143Y-108938371D02*
X214875000Y-108938371D01*
X214875000Y-108938371D02*
X214970238Y-108985990D01*
X214970238Y-108985990D02*
X215017857Y-109033609D01*
X215017857Y-109033609D02*
X215065476Y-109128847D01*
X215065476Y-109128847D02*
X215065476Y-109366942D01*
X215065476Y-109366942D02*
X215017857Y-109462180D01*
X215017857Y-109462180D02*
X214970238Y-109509800D01*
X214970238Y-109509800D02*
X214875000Y-109557419D01*
X214875000Y-109557419D02*
X214589286Y-109557419D01*
X214589286Y-109557419D02*
X214494048Y-109509800D01*
X214494048Y-109509800D02*
X214446429Y-109462180D01*
D10*
X229238095Y-123254819D02*
X229238095Y-122254819D01*
X229238095Y-122731009D02*
X229809523Y-122731009D01*
X229809523Y-123254819D02*
X229809523Y-122254819D01*
X230238095Y-122350057D02*
X230285714Y-122302438D01*
X230285714Y-122302438D02*
X230380952Y-122254819D01*
X230380952Y-122254819D02*
X230619047Y-122254819D01*
X230619047Y-122254819D02*
X230714285Y-122302438D01*
X230714285Y-122302438D02*
X230761904Y-122350057D01*
X230761904Y-122350057D02*
X230809523Y-122445295D01*
X230809523Y-122445295D02*
X230809523Y-122540533D01*
X230809523Y-122540533D02*
X230761904Y-122683390D01*
X230761904Y-122683390D02*
X230190476Y-123254819D01*
X230190476Y-123254819D02*
X230809523Y-123254819D01*
X213738095Y-96006819D02*
X214309523Y-96006819D01*
X214023809Y-97006819D02*
X214023809Y-96006819D01*
X214642857Y-97006819D02*
X214642857Y-96006819D01*
X214642857Y-96006819D02*
X215023809Y-96006819D01*
X215023809Y-96006819D02*
X215119047Y-96054438D01*
X215119047Y-96054438D02*
X215166666Y-96102057D01*
X215166666Y-96102057D02*
X215214285Y-96197295D01*
X215214285Y-96197295D02*
X215214285Y-96340152D01*
X215214285Y-96340152D02*
X215166666Y-96435390D01*
X215166666Y-96435390D02*
X215119047Y-96483009D01*
X215119047Y-96483009D02*
X215023809Y-96530628D01*
X215023809Y-96530628D02*
X214642857Y-96530628D01*
X216166666Y-97006819D02*
X215595238Y-97006819D01*
X215880952Y-97006819D02*
X215880952Y-96006819D01*
X215880952Y-96006819D02*
X215785714Y-96149676D01*
X215785714Y-96149676D02*
X215690476Y-96244914D01*
X215690476Y-96244914D02*
X215595238Y-96292533D01*
X198838095Y-97854819D02*
X198838095Y-98664342D01*
X198838095Y-98664342D02*
X198885714Y-98759580D01*
X198885714Y-98759580D02*
X198933333Y-98807200D01*
X198933333Y-98807200D02*
X199028571Y-98854819D01*
X199028571Y-98854819D02*
X199219047Y-98854819D01*
X199219047Y-98854819D02*
X199314285Y-98807200D01*
X199314285Y-98807200D02*
X199361904Y-98759580D01*
X199361904Y-98759580D02*
X199409523Y-98664342D01*
X199409523Y-98664342D02*
X199409523Y-97854819D01*
X200409523Y-98854819D02*
X199838095Y-98854819D01*
X200123809Y-98854819D02*
X200123809Y-97854819D01*
X200123809Y-97854819D02*
X200028571Y-97997676D01*
X200028571Y-97997676D02*
X199933333Y-98092914D01*
X199933333Y-98092914D02*
X199838095Y-98140533D01*
X183604761Y-56650057D02*
X183509523Y-56602438D01*
X183509523Y-56602438D02*
X183414285Y-56507200D01*
X183414285Y-56507200D02*
X183271428Y-56364342D01*
X183271428Y-56364342D02*
X183176190Y-56316723D01*
X183176190Y-56316723D02*
X183080952Y-56316723D01*
X183128571Y-56554819D02*
X183033333Y-56507200D01*
X183033333Y-56507200D02*
X182938095Y-56411961D01*
X182938095Y-56411961D02*
X182890476Y-56221485D01*
X182890476Y-56221485D02*
X182890476Y-55888152D01*
X182890476Y-55888152D02*
X182938095Y-55697676D01*
X182938095Y-55697676D02*
X183033333Y-55602438D01*
X183033333Y-55602438D02*
X183128571Y-55554819D01*
X183128571Y-55554819D02*
X183319047Y-55554819D01*
X183319047Y-55554819D02*
X183414285Y-55602438D01*
X183414285Y-55602438D02*
X183509523Y-55697676D01*
X183509523Y-55697676D02*
X183557142Y-55888152D01*
X183557142Y-55888152D02*
X183557142Y-56221485D01*
X183557142Y-56221485D02*
X183509523Y-56411961D01*
X183509523Y-56411961D02*
X183414285Y-56507200D01*
X183414285Y-56507200D02*
X183319047Y-56554819D01*
X183319047Y-56554819D02*
X183128571Y-56554819D01*
X184414285Y-55888152D02*
X184414285Y-56554819D01*
X184176190Y-55507200D02*
X183938095Y-56221485D01*
X183938095Y-56221485D02*
X184557142Y-56221485D01*
X229901666Y-55884819D02*
X229901666Y-56599104D01*
X229901666Y-56599104D02*
X229854047Y-56741961D01*
X229854047Y-56741961D02*
X229758809Y-56837200D01*
X229758809Y-56837200D02*
X229615952Y-56884819D01*
X229615952Y-56884819D02*
X229520714Y-56884819D01*
X230806428Y-56218152D02*
X230806428Y-56884819D01*
X230568333Y-55837200D02*
X230330238Y-56551485D01*
X230330238Y-56551485D02*
X230949285Y-56551485D01*
X185824819Y-54942857D02*
X185348628Y-55276190D01*
X185824819Y-55514285D02*
X184824819Y-55514285D01*
X184824819Y-55514285D02*
X184824819Y-55133333D01*
X184824819Y-55133333D02*
X184872438Y-55038095D01*
X184872438Y-55038095D02*
X184920057Y-54990476D01*
X184920057Y-54990476D02*
X185015295Y-54942857D01*
X185015295Y-54942857D02*
X185158152Y-54942857D01*
X185158152Y-54942857D02*
X185253390Y-54990476D01*
X185253390Y-54990476D02*
X185301009Y-55038095D01*
X185301009Y-55038095D02*
X185348628Y-55133333D01*
X185348628Y-55133333D02*
X185348628Y-55514285D01*
X184920057Y-54561904D02*
X184872438Y-54514285D01*
X184872438Y-54514285D02*
X184824819Y-54419047D01*
X184824819Y-54419047D02*
X184824819Y-54180952D01*
X184824819Y-54180952D02*
X184872438Y-54085714D01*
X184872438Y-54085714D02*
X184920057Y-54038095D01*
X184920057Y-54038095D02*
X185015295Y-53990476D01*
X185015295Y-53990476D02*
X185110533Y-53990476D01*
X185110533Y-53990476D02*
X185253390Y-54038095D01*
X185253390Y-54038095D02*
X185824819Y-54609523D01*
X185824819Y-54609523D02*
X185824819Y-53990476D01*
X184824819Y-53657142D02*
X184824819Y-53038095D01*
X184824819Y-53038095D02*
X185205771Y-53371428D01*
X185205771Y-53371428D02*
X185205771Y-53228571D01*
X185205771Y-53228571D02*
X185253390Y-53133333D01*
X185253390Y-53133333D02*
X185301009Y-53085714D01*
X185301009Y-53085714D02*
X185396247Y-53038095D01*
X185396247Y-53038095D02*
X185634342Y-53038095D01*
X185634342Y-53038095D02*
X185729580Y-53085714D01*
X185729580Y-53085714D02*
X185777200Y-53133333D01*
X185777200Y-53133333D02*
X185824819Y-53228571D01*
X185824819Y-53228571D02*
X185824819Y-53514285D01*
X185824819Y-53514285D02*
X185777200Y-53609523D01*
X185777200Y-53609523D02*
X185729580Y-53657142D01*
X186759580Y-98866666D02*
X186807200Y-98914285D01*
X186807200Y-98914285D02*
X186854819Y-99057142D01*
X186854819Y-99057142D02*
X186854819Y-99152380D01*
X186854819Y-99152380D02*
X186807200Y-99295237D01*
X186807200Y-99295237D02*
X186711961Y-99390475D01*
X186711961Y-99390475D02*
X186616723Y-99438094D01*
X186616723Y-99438094D02*
X186426247Y-99485713D01*
X186426247Y-99485713D02*
X186283390Y-99485713D01*
X186283390Y-99485713D02*
X186092914Y-99438094D01*
X186092914Y-99438094D02*
X185997676Y-99390475D01*
X185997676Y-99390475D02*
X185902438Y-99295237D01*
X185902438Y-99295237D02*
X185854819Y-99152380D01*
X185854819Y-99152380D02*
X185854819Y-99057142D01*
X185854819Y-99057142D02*
X185902438Y-98914285D01*
X185902438Y-98914285D02*
X185950057Y-98866666D01*
X186188152Y-98009523D02*
X186854819Y-98009523D01*
X185807200Y-98247618D02*
X186521485Y-98485713D01*
X186521485Y-98485713D02*
X186521485Y-97866666D01*
X174661905Y-59254819D02*
X174661905Y-58254819D01*
X174661905Y-58254819D02*
X174900000Y-58254819D01*
X174900000Y-58254819D02*
X175042857Y-58302438D01*
X175042857Y-58302438D02*
X175138095Y-58397676D01*
X175138095Y-58397676D02*
X175185714Y-58492914D01*
X175185714Y-58492914D02*
X175233333Y-58683390D01*
X175233333Y-58683390D02*
X175233333Y-58826247D01*
X175233333Y-58826247D02*
X175185714Y-59016723D01*
X175185714Y-59016723D02*
X175138095Y-59111961D01*
X175138095Y-59111961D02*
X175042857Y-59207200D01*
X175042857Y-59207200D02*
X174900000Y-59254819D01*
X174900000Y-59254819D02*
X174661905Y-59254819D01*
X175709524Y-59254819D02*
X175900000Y-59254819D01*
X175900000Y-59254819D02*
X175995238Y-59207200D01*
X175995238Y-59207200D02*
X176042857Y-59159580D01*
X176042857Y-59159580D02*
X176138095Y-59016723D01*
X176138095Y-59016723D02*
X176185714Y-58826247D01*
X176185714Y-58826247D02*
X176185714Y-58445295D01*
X176185714Y-58445295D02*
X176138095Y-58350057D01*
X176138095Y-58350057D02*
X176090476Y-58302438D01*
X176090476Y-58302438D02*
X175995238Y-58254819D01*
X175995238Y-58254819D02*
X175804762Y-58254819D01*
X175804762Y-58254819D02*
X175709524Y-58302438D01*
X175709524Y-58302438D02*
X175661905Y-58350057D01*
X175661905Y-58350057D02*
X175614286Y-58445295D01*
X175614286Y-58445295D02*
X175614286Y-58683390D01*
X175614286Y-58683390D02*
X175661905Y-58778628D01*
X175661905Y-58778628D02*
X175709524Y-58826247D01*
X175709524Y-58826247D02*
X175804762Y-58873866D01*
X175804762Y-58873866D02*
X175995238Y-58873866D01*
X175995238Y-58873866D02*
X176090476Y-58826247D01*
X176090476Y-58826247D02*
X176138095Y-58778628D01*
X176138095Y-58778628D02*
X176185714Y-58683390D01*
X207833333Y-105859580D02*
X207785714Y-105907200D01*
X207785714Y-105907200D02*
X207642857Y-105954819D01*
X207642857Y-105954819D02*
X207547619Y-105954819D01*
X207547619Y-105954819D02*
X207404762Y-105907200D01*
X207404762Y-105907200D02*
X207309524Y-105811961D01*
X207309524Y-105811961D02*
X207261905Y-105716723D01*
X207261905Y-105716723D02*
X207214286Y-105526247D01*
X207214286Y-105526247D02*
X207214286Y-105383390D01*
X207214286Y-105383390D02*
X207261905Y-105192914D01*
X207261905Y-105192914D02*
X207309524Y-105097676D01*
X207309524Y-105097676D02*
X207404762Y-105002438D01*
X207404762Y-105002438D02*
X207547619Y-104954819D01*
X207547619Y-104954819D02*
X207642857Y-104954819D01*
X207642857Y-104954819D02*
X207785714Y-105002438D01*
X207785714Y-105002438D02*
X207833333Y-105050057D01*
X208690476Y-104954819D02*
X208500000Y-104954819D01*
X208500000Y-104954819D02*
X208404762Y-105002438D01*
X208404762Y-105002438D02*
X208357143Y-105050057D01*
X208357143Y-105050057D02*
X208261905Y-105192914D01*
X208261905Y-105192914D02*
X208214286Y-105383390D01*
X208214286Y-105383390D02*
X208214286Y-105764342D01*
X208214286Y-105764342D02*
X208261905Y-105859580D01*
X208261905Y-105859580D02*
X208309524Y-105907200D01*
X208309524Y-105907200D02*
X208404762Y-105954819D01*
X208404762Y-105954819D02*
X208595238Y-105954819D01*
X208595238Y-105954819D02*
X208690476Y-105907200D01*
X208690476Y-105907200D02*
X208738095Y-105859580D01*
X208738095Y-105859580D02*
X208785714Y-105764342D01*
X208785714Y-105764342D02*
X208785714Y-105526247D01*
X208785714Y-105526247D02*
X208738095Y-105431009D01*
X208738095Y-105431009D02*
X208690476Y-105383390D01*
X208690476Y-105383390D02*
X208595238Y-105335771D01*
X208595238Y-105335771D02*
X208404762Y-105335771D01*
X208404762Y-105335771D02*
X208309524Y-105383390D01*
X208309524Y-105383390D02*
X208261905Y-105431009D01*
X208261905Y-105431009D02*
X208214286Y-105526247D01*
X207407142Y-88334580D02*
X207359523Y-88382200D01*
X207359523Y-88382200D02*
X207216666Y-88429819D01*
X207216666Y-88429819D02*
X207121428Y-88429819D01*
X207121428Y-88429819D02*
X206978571Y-88382200D01*
X206978571Y-88382200D02*
X206883333Y-88286961D01*
X206883333Y-88286961D02*
X206835714Y-88191723D01*
X206835714Y-88191723D02*
X206788095Y-88001247D01*
X206788095Y-88001247D02*
X206788095Y-87858390D01*
X206788095Y-87858390D02*
X206835714Y-87667914D01*
X206835714Y-87667914D02*
X206883333Y-87572676D01*
X206883333Y-87572676D02*
X206978571Y-87477438D01*
X206978571Y-87477438D02*
X207121428Y-87429819D01*
X207121428Y-87429819D02*
X207216666Y-87429819D01*
X207216666Y-87429819D02*
X207359523Y-87477438D01*
X207359523Y-87477438D02*
X207407142Y-87525057D01*
X208359523Y-88429819D02*
X207788095Y-88429819D01*
X208073809Y-88429819D02*
X208073809Y-87429819D01*
X208073809Y-87429819D02*
X207978571Y-87572676D01*
X207978571Y-87572676D02*
X207883333Y-87667914D01*
X207883333Y-87667914D02*
X207788095Y-87715533D01*
X208835714Y-88429819D02*
X209026190Y-88429819D01*
X209026190Y-88429819D02*
X209121428Y-88382200D01*
X209121428Y-88382200D02*
X209169047Y-88334580D01*
X209169047Y-88334580D02*
X209264285Y-88191723D01*
X209264285Y-88191723D02*
X209311904Y-88001247D01*
X209311904Y-88001247D02*
X209311904Y-87620295D01*
X209311904Y-87620295D02*
X209264285Y-87525057D01*
X209264285Y-87525057D02*
X209216666Y-87477438D01*
X209216666Y-87477438D02*
X209121428Y-87429819D01*
X209121428Y-87429819D02*
X208930952Y-87429819D01*
X208930952Y-87429819D02*
X208835714Y-87477438D01*
X208835714Y-87477438D02*
X208788095Y-87525057D01*
X208788095Y-87525057D02*
X208740476Y-87620295D01*
X208740476Y-87620295D02*
X208740476Y-87858390D01*
X208740476Y-87858390D02*
X208788095Y-87953628D01*
X208788095Y-87953628D02*
X208835714Y-88001247D01*
X208835714Y-88001247D02*
X208930952Y-88048866D01*
X208930952Y-88048866D02*
X209121428Y-88048866D01*
X209121428Y-88048866D02*
X209216666Y-88001247D01*
X209216666Y-88001247D02*
X209264285Y-87953628D01*
X209264285Y-87953628D02*
X209311904Y-87858390D01*
D11*
X179457419Y-74761904D02*
X180266942Y-74761904D01*
X180266942Y-74761904D02*
X180362180Y-74714285D01*
X180362180Y-74714285D02*
X180409800Y-74666666D01*
X180409800Y-74666666D02*
X180457419Y-74571428D01*
X180457419Y-74571428D02*
X180457419Y-74380952D01*
X180457419Y-74380952D02*
X180409800Y-74285714D01*
X180409800Y-74285714D02*
X180362180Y-74238095D01*
X180362180Y-74238095D02*
X180266942Y-74190476D01*
X180266942Y-74190476D02*
X179457419Y-74190476D01*
X179457419Y-73285714D02*
X179457419Y-73476190D01*
X179457419Y-73476190D02*
X179505038Y-73571428D01*
X179505038Y-73571428D02*
X179552657Y-73619047D01*
X179552657Y-73619047D02*
X179695514Y-73714285D01*
X179695514Y-73714285D02*
X179885990Y-73761904D01*
X179885990Y-73761904D02*
X180266942Y-73761904D01*
X180266942Y-73761904D02*
X180362180Y-73714285D01*
X180362180Y-73714285D02*
X180409800Y-73666666D01*
X180409800Y-73666666D02*
X180457419Y-73571428D01*
X180457419Y-73571428D02*
X180457419Y-73380952D01*
X180457419Y-73380952D02*
X180409800Y-73285714D01*
X180409800Y-73285714D02*
X180362180Y-73238095D01*
X180362180Y-73238095D02*
X180266942Y-73190476D01*
X180266942Y-73190476D02*
X180028847Y-73190476D01*
X180028847Y-73190476D02*
X179933609Y-73238095D01*
X179933609Y-73238095D02*
X179885990Y-73285714D01*
X179885990Y-73285714D02*
X179838371Y-73380952D01*
X179838371Y-73380952D02*
X179838371Y-73571428D01*
X179838371Y-73571428D02*
X179885990Y-73666666D01*
X179885990Y-73666666D02*
X179933609Y-73714285D01*
X179933609Y-73714285D02*
X180028847Y-73761904D01*
X212333333Y-91957419D02*
X211857143Y-91957419D01*
X211857143Y-91957419D02*
X211857143Y-90957419D01*
X213190476Y-91957419D02*
X212619048Y-91957419D01*
X212904762Y-91957419D02*
X212904762Y-90957419D01*
X212904762Y-90957419D02*
X212809524Y-91100276D01*
X212809524Y-91100276D02*
X212714286Y-91195514D01*
X212714286Y-91195514D02*
X212619048Y-91243133D01*
D10*
X178561905Y-47994819D02*
X178561905Y-46994819D01*
X178561905Y-46994819D02*
X178800000Y-46994819D01*
X178800000Y-46994819D02*
X178942857Y-47042438D01*
X178942857Y-47042438D02*
X179038095Y-47137676D01*
X179038095Y-47137676D02*
X179085714Y-47232914D01*
X179085714Y-47232914D02*
X179133333Y-47423390D01*
X179133333Y-47423390D02*
X179133333Y-47566247D01*
X179133333Y-47566247D02*
X179085714Y-47756723D01*
X179085714Y-47756723D02*
X179038095Y-47851961D01*
X179038095Y-47851961D02*
X178942857Y-47947200D01*
X178942857Y-47947200D02*
X178800000Y-47994819D01*
X178800000Y-47994819D02*
X178561905Y-47994819D01*
X179990476Y-46994819D02*
X179800000Y-46994819D01*
X179800000Y-46994819D02*
X179704762Y-47042438D01*
X179704762Y-47042438D02*
X179657143Y-47090057D01*
X179657143Y-47090057D02*
X179561905Y-47232914D01*
X179561905Y-47232914D02*
X179514286Y-47423390D01*
X179514286Y-47423390D02*
X179514286Y-47804342D01*
X179514286Y-47804342D02*
X179561905Y-47899580D01*
X179561905Y-47899580D02*
X179609524Y-47947200D01*
X179609524Y-47947200D02*
X179704762Y-47994819D01*
X179704762Y-47994819D02*
X179895238Y-47994819D01*
X179895238Y-47994819D02*
X179990476Y-47947200D01*
X179990476Y-47947200D02*
X180038095Y-47899580D01*
X180038095Y-47899580D02*
X180085714Y-47804342D01*
X180085714Y-47804342D02*
X180085714Y-47566247D01*
X180085714Y-47566247D02*
X180038095Y-47471009D01*
X180038095Y-47471009D02*
X179990476Y-47423390D01*
X179990476Y-47423390D02*
X179895238Y-47375771D01*
X179895238Y-47375771D02*
X179704762Y-47375771D01*
X179704762Y-47375771D02*
X179609524Y-47423390D01*
X179609524Y-47423390D02*
X179561905Y-47471009D01*
X179561905Y-47471009D02*
X179514286Y-47566247D01*
X202666636Y-108094819D02*
X202666636Y-107094819D01*
X202666636Y-107094819D02*
X202904731Y-107094819D01*
X202904731Y-107094819D02*
X203047588Y-107142438D01*
X203047588Y-107142438D02*
X203142826Y-107237676D01*
X203142826Y-107237676D02*
X203190445Y-107332914D01*
X203190445Y-107332914D02*
X203238064Y-107523390D01*
X203238064Y-107523390D02*
X203238064Y-107666247D01*
X203238064Y-107666247D02*
X203190445Y-107856723D01*
X203190445Y-107856723D02*
X203142826Y-107951961D01*
X203142826Y-107951961D02*
X203047588Y-108047200D01*
X203047588Y-108047200D02*
X202904731Y-108094819D01*
X202904731Y-108094819D02*
X202666636Y-108094819D01*
X204190445Y-108094819D02*
X203619017Y-108094819D01*
X203904731Y-108094819D02*
X203904731Y-107094819D01*
X203904731Y-107094819D02*
X203809493Y-107237676D01*
X203809493Y-107237676D02*
X203714255Y-107332914D01*
X203714255Y-107332914D02*
X203619017Y-107380533D01*
X198813095Y-117254819D02*
X198813095Y-118064342D01*
X198813095Y-118064342D02*
X198860714Y-118159580D01*
X198860714Y-118159580D02*
X198908333Y-118207200D01*
X198908333Y-118207200D02*
X199003571Y-118254819D01*
X199003571Y-118254819D02*
X199194047Y-118254819D01*
X199194047Y-118254819D02*
X199289285Y-118207200D01*
X199289285Y-118207200D02*
X199336904Y-118159580D01*
X199336904Y-118159580D02*
X199384523Y-118064342D01*
X199384523Y-118064342D02*
X199384523Y-117254819D01*
X199765476Y-117254819D02*
X200384523Y-117254819D01*
X200384523Y-117254819D02*
X200051190Y-117635771D01*
X200051190Y-117635771D02*
X200194047Y-117635771D01*
X200194047Y-117635771D02*
X200289285Y-117683390D01*
X200289285Y-117683390D02*
X200336904Y-117731009D01*
X200336904Y-117731009D02*
X200384523Y-117826247D01*
X200384523Y-117826247D02*
X200384523Y-118064342D01*
X200384523Y-118064342D02*
X200336904Y-118159580D01*
X200336904Y-118159580D02*
X200289285Y-118207200D01*
X200289285Y-118207200D02*
X200194047Y-118254819D01*
X200194047Y-118254819D02*
X199908333Y-118254819D01*
X199908333Y-118254819D02*
X199813095Y-118207200D01*
X199813095Y-118207200D02*
X199765476Y-118159580D01*
X198166666Y-55054819D02*
X198166666Y-55769104D01*
X198166666Y-55769104D02*
X198119047Y-55911961D01*
X198119047Y-55911961D02*
X198023809Y-56007200D01*
X198023809Y-56007200D02*
X197880952Y-56054819D01*
X197880952Y-56054819D02*
X197785714Y-56054819D01*
X198690476Y-56054819D02*
X198880952Y-56054819D01*
X198880952Y-56054819D02*
X198976190Y-56007200D01*
X198976190Y-56007200D02*
X199023809Y-55959580D01*
X199023809Y-55959580D02*
X199119047Y-55816723D01*
X199119047Y-55816723D02*
X199166666Y-55626247D01*
X199166666Y-55626247D02*
X199166666Y-55245295D01*
X199166666Y-55245295D02*
X199119047Y-55150057D01*
X199119047Y-55150057D02*
X199071428Y-55102438D01*
X199071428Y-55102438D02*
X198976190Y-55054819D01*
X198976190Y-55054819D02*
X198785714Y-55054819D01*
X198785714Y-55054819D02*
X198690476Y-55102438D01*
X198690476Y-55102438D02*
X198642857Y-55150057D01*
X198642857Y-55150057D02*
X198595238Y-55245295D01*
X198595238Y-55245295D02*
X198595238Y-55483390D01*
X198595238Y-55483390D02*
X198642857Y-55578628D01*
X198642857Y-55578628D02*
X198690476Y-55626247D01*
X198690476Y-55626247D02*
X198785714Y-55673866D01*
X198785714Y-55673866D02*
X198976190Y-55673866D01*
X198976190Y-55673866D02*
X199071428Y-55626247D01*
X199071428Y-55626247D02*
X199119047Y-55578628D01*
X199119047Y-55578628D02*
X199166666Y-55483390D01*
X196963064Y-97329580D02*
X196915445Y-97377200D01*
X196915445Y-97377200D02*
X196772588Y-97424819D01*
X196772588Y-97424819D02*
X196677350Y-97424819D01*
X196677350Y-97424819D02*
X196534493Y-97377200D01*
X196534493Y-97377200D02*
X196439255Y-97281961D01*
X196439255Y-97281961D02*
X196391636Y-97186723D01*
X196391636Y-97186723D02*
X196344017Y-96996247D01*
X196344017Y-96996247D02*
X196344017Y-96853390D01*
X196344017Y-96853390D02*
X196391636Y-96662914D01*
X196391636Y-96662914D02*
X196439255Y-96567676D01*
X196439255Y-96567676D02*
X196534493Y-96472438D01*
X196534493Y-96472438D02*
X196677350Y-96424819D01*
X196677350Y-96424819D02*
X196772588Y-96424819D01*
X196772588Y-96424819D02*
X196915445Y-96472438D01*
X196915445Y-96472438D02*
X196963064Y-96520057D01*
X197867826Y-96424819D02*
X197391636Y-96424819D01*
X197391636Y-96424819D02*
X197344017Y-96901009D01*
X197344017Y-96901009D02*
X197391636Y-96853390D01*
X197391636Y-96853390D02*
X197486874Y-96805771D01*
X197486874Y-96805771D02*
X197724969Y-96805771D01*
X197724969Y-96805771D02*
X197820207Y-96853390D01*
X197820207Y-96853390D02*
X197867826Y-96901009D01*
X197867826Y-96901009D02*
X197915445Y-96996247D01*
X197915445Y-96996247D02*
X197915445Y-97234342D01*
X197915445Y-97234342D02*
X197867826Y-97329580D01*
X197867826Y-97329580D02*
X197820207Y-97377200D01*
X197820207Y-97377200D02*
X197724969Y-97424819D01*
X197724969Y-97424819D02*
X197486874Y-97424819D01*
X197486874Y-97424819D02*
X197391636Y-97377200D01*
X197391636Y-97377200D02*
X197344017Y-97329580D01*
D11*
X211030833Y-75457419D02*
X210554643Y-75457419D01*
X210554643Y-75457419D02*
X210554643Y-74457419D01*
X211316548Y-74552657D02*
X211364167Y-74505038D01*
X211364167Y-74505038D02*
X211459405Y-74457419D01*
X211459405Y-74457419D02*
X211697500Y-74457419D01*
X211697500Y-74457419D02*
X211792738Y-74505038D01*
X211792738Y-74505038D02*
X211840357Y-74552657D01*
X211840357Y-74552657D02*
X211887976Y-74647895D01*
X211887976Y-74647895D02*
X211887976Y-74743133D01*
X211887976Y-74743133D02*
X211840357Y-74885990D01*
X211840357Y-74885990D02*
X211268929Y-75457419D01*
X211268929Y-75457419D02*
X211887976Y-75457419D01*
D10*
X210757142Y-71859580D02*
X210709523Y-71907200D01*
X210709523Y-71907200D02*
X210566666Y-71954819D01*
X210566666Y-71954819D02*
X210471428Y-71954819D01*
X210471428Y-71954819D02*
X210328571Y-71907200D01*
X210328571Y-71907200D02*
X210233333Y-71811961D01*
X210233333Y-71811961D02*
X210185714Y-71716723D01*
X210185714Y-71716723D02*
X210138095Y-71526247D01*
X210138095Y-71526247D02*
X210138095Y-71383390D01*
X210138095Y-71383390D02*
X210185714Y-71192914D01*
X210185714Y-71192914D02*
X210233333Y-71097676D01*
X210233333Y-71097676D02*
X210328571Y-71002438D01*
X210328571Y-71002438D02*
X210471428Y-70954819D01*
X210471428Y-70954819D02*
X210566666Y-70954819D01*
X210566666Y-70954819D02*
X210709523Y-71002438D01*
X210709523Y-71002438D02*
X210757142Y-71050057D01*
X211614285Y-71288152D02*
X211614285Y-71954819D01*
X211376190Y-70907200D02*
X211138095Y-71621485D01*
X211138095Y-71621485D02*
X211757142Y-71621485D01*
X212566666Y-70954819D02*
X212376190Y-70954819D01*
X212376190Y-70954819D02*
X212280952Y-71002438D01*
X212280952Y-71002438D02*
X212233333Y-71050057D01*
X212233333Y-71050057D02*
X212138095Y-71192914D01*
X212138095Y-71192914D02*
X212090476Y-71383390D01*
X212090476Y-71383390D02*
X212090476Y-71764342D01*
X212090476Y-71764342D02*
X212138095Y-71859580D01*
X212138095Y-71859580D02*
X212185714Y-71907200D01*
X212185714Y-71907200D02*
X212280952Y-71954819D01*
X212280952Y-71954819D02*
X212471428Y-71954819D01*
X212471428Y-71954819D02*
X212566666Y-71907200D01*
X212566666Y-71907200D02*
X212614285Y-71859580D01*
X212614285Y-71859580D02*
X212661904Y-71764342D01*
X212661904Y-71764342D02*
X212661904Y-71526247D01*
X212661904Y-71526247D02*
X212614285Y-71431009D01*
X212614285Y-71431009D02*
X212566666Y-71383390D01*
X212566666Y-71383390D02*
X212471428Y-71335771D01*
X212471428Y-71335771D02*
X212280952Y-71335771D01*
X212280952Y-71335771D02*
X212185714Y-71383390D01*
X212185714Y-71383390D02*
X212138095Y-71431009D01*
X212138095Y-71431009D02*
X212090476Y-71526247D01*
X196486873Y-63329580D02*
X196439254Y-63377200D01*
X196439254Y-63377200D02*
X196296397Y-63424819D01*
X196296397Y-63424819D02*
X196201159Y-63424819D01*
X196201159Y-63424819D02*
X196058302Y-63377200D01*
X196058302Y-63377200D02*
X195963064Y-63281961D01*
X195963064Y-63281961D02*
X195915445Y-63186723D01*
X195915445Y-63186723D02*
X195867826Y-62996247D01*
X195867826Y-62996247D02*
X195867826Y-62853390D01*
X195867826Y-62853390D02*
X195915445Y-62662914D01*
X195915445Y-62662914D02*
X195963064Y-62567676D01*
X195963064Y-62567676D02*
X196058302Y-62472438D01*
X196058302Y-62472438D02*
X196201159Y-62424819D01*
X196201159Y-62424819D02*
X196296397Y-62424819D01*
X196296397Y-62424819D02*
X196439254Y-62472438D01*
X196439254Y-62472438D02*
X196486873Y-62520057D01*
X197344016Y-62758152D02*
X197344016Y-63424819D01*
X197105921Y-62377200D02*
X196867826Y-63091485D01*
X196867826Y-63091485D02*
X197486873Y-63091485D01*
X198296397Y-62758152D02*
X198296397Y-63424819D01*
X198058302Y-62377200D02*
X197820207Y-63091485D01*
X197820207Y-63091485D02*
X198439254Y-63091485D01*
X196461873Y-116729580D02*
X196414254Y-116777200D01*
X196414254Y-116777200D02*
X196271397Y-116824819D01*
X196271397Y-116824819D02*
X196176159Y-116824819D01*
X196176159Y-116824819D02*
X196033302Y-116777200D01*
X196033302Y-116777200D02*
X195938064Y-116681961D01*
X195938064Y-116681961D02*
X195890445Y-116586723D01*
X195890445Y-116586723D02*
X195842826Y-116396247D01*
X195842826Y-116396247D02*
X195842826Y-116253390D01*
X195842826Y-116253390D02*
X195890445Y-116062914D01*
X195890445Y-116062914D02*
X195938064Y-115967676D01*
X195938064Y-115967676D02*
X196033302Y-115872438D01*
X196033302Y-115872438D02*
X196176159Y-115824819D01*
X196176159Y-115824819D02*
X196271397Y-115824819D01*
X196271397Y-115824819D02*
X196414254Y-115872438D01*
X196414254Y-115872438D02*
X196461873Y-115920057D01*
X197414254Y-116824819D02*
X196842826Y-116824819D01*
X197128540Y-116824819D02*
X197128540Y-115824819D01*
X197128540Y-115824819D02*
X197033302Y-115967676D01*
X197033302Y-115967676D02*
X196938064Y-116062914D01*
X196938064Y-116062914D02*
X196842826Y-116110533D01*
X197985683Y-116253390D02*
X197890445Y-116205771D01*
X197890445Y-116205771D02*
X197842826Y-116158152D01*
X197842826Y-116158152D02*
X197795207Y-116062914D01*
X197795207Y-116062914D02*
X197795207Y-116015295D01*
X197795207Y-116015295D02*
X197842826Y-115920057D01*
X197842826Y-115920057D02*
X197890445Y-115872438D01*
X197890445Y-115872438D02*
X197985683Y-115824819D01*
X197985683Y-115824819D02*
X198176159Y-115824819D01*
X198176159Y-115824819D02*
X198271397Y-115872438D01*
X198271397Y-115872438D02*
X198319016Y-115920057D01*
X198319016Y-115920057D02*
X198366635Y-116015295D01*
X198366635Y-116015295D02*
X198366635Y-116062914D01*
X198366635Y-116062914D02*
X198319016Y-116158152D01*
X198319016Y-116158152D02*
X198271397Y-116205771D01*
X198271397Y-116205771D02*
X198176159Y-116253390D01*
X198176159Y-116253390D02*
X197985683Y-116253390D01*
X197985683Y-116253390D02*
X197890445Y-116301009D01*
X197890445Y-116301009D02*
X197842826Y-116348628D01*
X197842826Y-116348628D02*
X197795207Y-116443866D01*
X197795207Y-116443866D02*
X197795207Y-116634342D01*
X197795207Y-116634342D02*
X197842826Y-116729580D01*
X197842826Y-116729580D02*
X197890445Y-116777200D01*
X197890445Y-116777200D02*
X197985683Y-116824819D01*
X197985683Y-116824819D02*
X198176159Y-116824819D01*
X198176159Y-116824819D02*
X198271397Y-116777200D01*
X198271397Y-116777200D02*
X198319016Y-116729580D01*
X198319016Y-116729580D02*
X198366635Y-116634342D01*
X198366635Y-116634342D02*
X198366635Y-116443866D01*
X198366635Y-116443866D02*
X198319016Y-116348628D01*
X198319016Y-116348628D02*
X198271397Y-116301009D01*
X198271397Y-116301009D02*
X198176159Y-116253390D01*
D11*
X178957419Y-108761904D02*
X179766942Y-108761904D01*
X179766942Y-108761904D02*
X179862180Y-108714285D01*
X179862180Y-108714285D02*
X179909800Y-108666666D01*
X179909800Y-108666666D02*
X179957419Y-108571428D01*
X179957419Y-108571428D02*
X179957419Y-108380952D01*
X179957419Y-108380952D02*
X179909800Y-108285714D01*
X179909800Y-108285714D02*
X179862180Y-108238095D01*
X179862180Y-108238095D02*
X179766942Y-108190476D01*
X179766942Y-108190476D02*
X178957419Y-108190476D01*
X178957419Y-107238095D02*
X178957419Y-107714285D01*
X178957419Y-107714285D02*
X179433609Y-107761904D01*
X179433609Y-107761904D02*
X179385990Y-107714285D01*
X179385990Y-107714285D02*
X179338371Y-107619047D01*
X179338371Y-107619047D02*
X179338371Y-107380952D01*
X179338371Y-107380952D02*
X179385990Y-107285714D01*
X179385990Y-107285714D02*
X179433609Y-107238095D01*
X179433609Y-107238095D02*
X179528847Y-107190476D01*
X179528847Y-107190476D02*
X179766942Y-107190476D01*
X179766942Y-107190476D02*
X179862180Y-107238095D01*
X179862180Y-107238095D02*
X179909800Y-107285714D01*
X179909800Y-107285714D02*
X179957419Y-107380952D01*
X179957419Y-107380952D02*
X179957419Y-107619047D01*
X179957419Y-107619047D02*
X179909800Y-107714285D01*
X179909800Y-107714285D02*
X179862180Y-107761904D01*
D10*
X172004761Y-56650057D02*
X171909523Y-56602438D01*
X171909523Y-56602438D02*
X171814285Y-56507200D01*
X171814285Y-56507200D02*
X171671428Y-56364342D01*
X171671428Y-56364342D02*
X171576190Y-56316723D01*
X171576190Y-56316723D02*
X171480952Y-56316723D01*
X171528571Y-56554819D02*
X171433333Y-56507200D01*
X171433333Y-56507200D02*
X171338095Y-56411961D01*
X171338095Y-56411961D02*
X171290476Y-56221485D01*
X171290476Y-56221485D02*
X171290476Y-55888152D01*
X171290476Y-55888152D02*
X171338095Y-55697676D01*
X171338095Y-55697676D02*
X171433333Y-55602438D01*
X171433333Y-55602438D02*
X171528571Y-55554819D01*
X171528571Y-55554819D02*
X171719047Y-55554819D01*
X171719047Y-55554819D02*
X171814285Y-55602438D01*
X171814285Y-55602438D02*
X171909523Y-55697676D01*
X171909523Y-55697676D02*
X171957142Y-55888152D01*
X171957142Y-55888152D02*
X171957142Y-56221485D01*
X171957142Y-56221485D02*
X171909523Y-56411961D01*
X171909523Y-56411961D02*
X171814285Y-56507200D01*
X171814285Y-56507200D02*
X171719047Y-56554819D01*
X171719047Y-56554819D02*
X171528571Y-56554819D01*
X172338095Y-55650057D02*
X172385714Y-55602438D01*
X172385714Y-55602438D02*
X172480952Y-55554819D01*
X172480952Y-55554819D02*
X172719047Y-55554819D01*
X172719047Y-55554819D02*
X172814285Y-55602438D01*
X172814285Y-55602438D02*
X172861904Y-55650057D01*
X172861904Y-55650057D02*
X172909523Y-55745295D01*
X172909523Y-55745295D02*
X172909523Y-55840533D01*
X172909523Y-55840533D02*
X172861904Y-55983390D01*
X172861904Y-55983390D02*
X172290476Y-56554819D01*
X172290476Y-56554819D02*
X172909523Y-56554819D01*
X221357142Y-125259580D02*
X221309523Y-125307200D01*
X221309523Y-125307200D02*
X221166666Y-125354819D01*
X221166666Y-125354819D02*
X221071428Y-125354819D01*
X221071428Y-125354819D02*
X220928571Y-125307200D01*
X220928571Y-125307200D02*
X220833333Y-125211961D01*
X220833333Y-125211961D02*
X220785714Y-125116723D01*
X220785714Y-125116723D02*
X220738095Y-124926247D01*
X220738095Y-124926247D02*
X220738095Y-124783390D01*
X220738095Y-124783390D02*
X220785714Y-124592914D01*
X220785714Y-124592914D02*
X220833333Y-124497676D01*
X220833333Y-124497676D02*
X220928571Y-124402438D01*
X220928571Y-124402438D02*
X221071428Y-124354819D01*
X221071428Y-124354819D02*
X221166666Y-124354819D01*
X221166666Y-124354819D02*
X221309523Y-124402438D01*
X221309523Y-124402438D02*
X221357142Y-124450057D01*
X221738095Y-124450057D02*
X221785714Y-124402438D01*
X221785714Y-124402438D02*
X221880952Y-124354819D01*
X221880952Y-124354819D02*
X222119047Y-124354819D01*
X222119047Y-124354819D02*
X222214285Y-124402438D01*
X222214285Y-124402438D02*
X222261904Y-124450057D01*
X222261904Y-124450057D02*
X222309523Y-124545295D01*
X222309523Y-124545295D02*
X222309523Y-124640533D01*
X222309523Y-124640533D02*
X222261904Y-124783390D01*
X222261904Y-124783390D02*
X221690476Y-125354819D01*
X221690476Y-125354819D02*
X222309523Y-125354819D01*
X223166666Y-124354819D02*
X222976190Y-124354819D01*
X222976190Y-124354819D02*
X222880952Y-124402438D01*
X222880952Y-124402438D02*
X222833333Y-124450057D01*
X222833333Y-124450057D02*
X222738095Y-124592914D01*
X222738095Y-124592914D02*
X222690476Y-124783390D01*
X222690476Y-124783390D02*
X222690476Y-125164342D01*
X222690476Y-125164342D02*
X222738095Y-125259580D01*
X222738095Y-125259580D02*
X222785714Y-125307200D01*
X222785714Y-125307200D02*
X222880952Y-125354819D01*
X222880952Y-125354819D02*
X223071428Y-125354819D01*
X223071428Y-125354819D02*
X223166666Y-125307200D01*
X223166666Y-125307200D02*
X223214285Y-125259580D01*
X223214285Y-125259580D02*
X223261904Y-125164342D01*
X223261904Y-125164342D02*
X223261904Y-124926247D01*
X223261904Y-124926247D02*
X223214285Y-124831009D01*
X223214285Y-124831009D02*
X223166666Y-124783390D01*
X223166666Y-124783390D02*
X223071428Y-124735771D01*
X223071428Y-124735771D02*
X222880952Y-124735771D01*
X222880952Y-124735771D02*
X222785714Y-124783390D01*
X222785714Y-124783390D02*
X222738095Y-124831009D01*
X222738095Y-124831009D02*
X222690476Y-124926247D01*
X186764311Y-81342857D02*
X186811931Y-81390476D01*
X186811931Y-81390476D02*
X186859550Y-81533333D01*
X186859550Y-81533333D02*
X186859550Y-81628571D01*
X186859550Y-81628571D02*
X186811931Y-81771428D01*
X186811931Y-81771428D02*
X186716692Y-81866666D01*
X186716692Y-81866666D02*
X186621454Y-81914285D01*
X186621454Y-81914285D02*
X186430978Y-81961904D01*
X186430978Y-81961904D02*
X186288121Y-81961904D01*
X186288121Y-81961904D02*
X186097645Y-81914285D01*
X186097645Y-81914285D02*
X186002407Y-81866666D01*
X186002407Y-81866666D02*
X185907169Y-81771428D01*
X185907169Y-81771428D02*
X185859550Y-81628571D01*
X185859550Y-81628571D02*
X185859550Y-81533333D01*
X185859550Y-81533333D02*
X185907169Y-81390476D01*
X185907169Y-81390476D02*
X185954788Y-81342857D01*
X186859550Y-80390476D02*
X186859550Y-80961904D01*
X186859550Y-80676190D02*
X185859550Y-80676190D01*
X185859550Y-80676190D02*
X186002407Y-80771428D01*
X186002407Y-80771428D02*
X186097645Y-80866666D01*
X186097645Y-80866666D02*
X186145264Y-80961904D01*
X185954788Y-80009523D02*
X185907169Y-79961904D01*
X185907169Y-79961904D02*
X185859550Y-79866666D01*
X185859550Y-79866666D02*
X185859550Y-79628571D01*
X185859550Y-79628571D02*
X185907169Y-79533333D01*
X185907169Y-79533333D02*
X185954788Y-79485714D01*
X185954788Y-79485714D02*
X186050026Y-79438095D01*
X186050026Y-79438095D02*
X186145264Y-79438095D01*
X186145264Y-79438095D02*
X186288121Y-79485714D01*
X186288121Y-79485714D02*
X186859550Y-80057142D01*
X186859550Y-80057142D02*
X186859550Y-79438095D01*
X170666666Y-74534819D02*
X170666666Y-75249104D01*
X170666666Y-75249104D02*
X170619047Y-75391961D01*
X170619047Y-75391961D02*
X170523809Y-75487200D01*
X170523809Y-75487200D02*
X170380952Y-75534819D01*
X170380952Y-75534819D02*
X170285714Y-75534819D01*
X171285714Y-74963390D02*
X171190476Y-74915771D01*
X171190476Y-74915771D02*
X171142857Y-74868152D01*
X171142857Y-74868152D02*
X171095238Y-74772914D01*
X171095238Y-74772914D02*
X171095238Y-74725295D01*
X171095238Y-74725295D02*
X171142857Y-74630057D01*
X171142857Y-74630057D02*
X171190476Y-74582438D01*
X171190476Y-74582438D02*
X171285714Y-74534819D01*
X171285714Y-74534819D02*
X171476190Y-74534819D01*
X171476190Y-74534819D02*
X171571428Y-74582438D01*
X171571428Y-74582438D02*
X171619047Y-74630057D01*
X171619047Y-74630057D02*
X171666666Y-74725295D01*
X171666666Y-74725295D02*
X171666666Y-74772914D01*
X171666666Y-74772914D02*
X171619047Y-74868152D01*
X171619047Y-74868152D02*
X171571428Y-74915771D01*
X171571428Y-74915771D02*
X171476190Y-74963390D01*
X171476190Y-74963390D02*
X171285714Y-74963390D01*
X171285714Y-74963390D02*
X171190476Y-75011009D01*
X171190476Y-75011009D02*
X171142857Y-75058628D01*
X171142857Y-75058628D02*
X171095238Y-75153866D01*
X171095238Y-75153866D02*
X171095238Y-75344342D01*
X171095238Y-75344342D02*
X171142857Y-75439580D01*
X171142857Y-75439580D02*
X171190476Y-75487200D01*
X171190476Y-75487200D02*
X171285714Y-75534819D01*
X171285714Y-75534819D02*
X171476190Y-75534819D01*
X171476190Y-75534819D02*
X171571428Y-75487200D01*
X171571428Y-75487200D02*
X171619047Y-75439580D01*
X171619047Y-75439580D02*
X171666666Y-75344342D01*
X171666666Y-75344342D02*
X171666666Y-75153866D01*
X171666666Y-75153866D02*
X171619047Y-75058628D01*
X171619047Y-75058628D02*
X171571428Y-75011009D01*
X171571428Y-75011009D02*
X171476190Y-74963390D01*
X186734580Y-118242857D02*
X186782200Y-118290476D01*
X186782200Y-118290476D02*
X186829819Y-118433333D01*
X186829819Y-118433333D02*
X186829819Y-118528571D01*
X186829819Y-118528571D02*
X186782200Y-118671428D01*
X186782200Y-118671428D02*
X186686961Y-118766666D01*
X186686961Y-118766666D02*
X186591723Y-118814285D01*
X186591723Y-118814285D02*
X186401247Y-118861904D01*
X186401247Y-118861904D02*
X186258390Y-118861904D01*
X186258390Y-118861904D02*
X186067914Y-118814285D01*
X186067914Y-118814285D02*
X185972676Y-118766666D01*
X185972676Y-118766666D02*
X185877438Y-118671428D01*
X185877438Y-118671428D02*
X185829819Y-118528571D01*
X185829819Y-118528571D02*
X185829819Y-118433333D01*
X185829819Y-118433333D02*
X185877438Y-118290476D01*
X185877438Y-118290476D02*
X185925057Y-118242857D01*
X186829819Y-117290476D02*
X186829819Y-117861904D01*
X186829819Y-117576190D02*
X185829819Y-117576190D01*
X185829819Y-117576190D02*
X185972676Y-117671428D01*
X185972676Y-117671428D02*
X186067914Y-117766666D01*
X186067914Y-117766666D02*
X186115533Y-117861904D01*
X185829819Y-116433333D02*
X185829819Y-116623809D01*
X185829819Y-116623809D02*
X185877438Y-116719047D01*
X185877438Y-116719047D02*
X185925057Y-116766666D01*
X185925057Y-116766666D02*
X186067914Y-116861904D01*
X186067914Y-116861904D02*
X186258390Y-116909523D01*
X186258390Y-116909523D02*
X186639342Y-116909523D01*
X186639342Y-116909523D02*
X186734580Y-116861904D01*
X186734580Y-116861904D02*
X186782200Y-116814285D01*
X186782200Y-116814285D02*
X186829819Y-116719047D01*
X186829819Y-116719047D02*
X186829819Y-116528571D01*
X186829819Y-116528571D02*
X186782200Y-116433333D01*
X186782200Y-116433333D02*
X186734580Y-116385714D01*
X186734580Y-116385714D02*
X186639342Y-116338095D01*
X186639342Y-116338095D02*
X186401247Y-116338095D01*
X186401247Y-116338095D02*
X186306009Y-116385714D01*
X186306009Y-116385714D02*
X186258390Y-116433333D01*
X186258390Y-116433333D02*
X186210771Y-116528571D01*
X186210771Y-116528571D02*
X186210771Y-116719047D01*
X186210771Y-116719047D02*
X186258390Y-116814285D01*
X186258390Y-116814285D02*
X186306009Y-116861904D01*
X186306009Y-116861904D02*
X186401247Y-116909523D01*
X164738095Y-123254819D02*
X164738095Y-122254819D01*
X164738095Y-122731009D02*
X165309523Y-122731009D01*
X165309523Y-123254819D02*
X165309523Y-122254819D01*
X165690476Y-122254819D02*
X166309523Y-122254819D01*
X166309523Y-122254819D02*
X165976190Y-122635771D01*
X165976190Y-122635771D02*
X166119047Y-122635771D01*
X166119047Y-122635771D02*
X166214285Y-122683390D01*
X166214285Y-122683390D02*
X166261904Y-122731009D01*
X166261904Y-122731009D02*
X166309523Y-122826247D01*
X166309523Y-122826247D02*
X166309523Y-123064342D01*
X166309523Y-123064342D02*
X166261904Y-123159580D01*
X166261904Y-123159580D02*
X166214285Y-123207200D01*
X166214285Y-123207200D02*
X166119047Y-123254819D01*
X166119047Y-123254819D02*
X165833333Y-123254819D01*
X165833333Y-123254819D02*
X165738095Y-123207200D01*
X165738095Y-123207200D02*
X165690476Y-123159580D01*
X214257142Y-71859580D02*
X214209523Y-71907200D01*
X214209523Y-71907200D02*
X214066666Y-71954819D01*
X214066666Y-71954819D02*
X213971428Y-71954819D01*
X213971428Y-71954819D02*
X213828571Y-71907200D01*
X213828571Y-71907200D02*
X213733333Y-71811961D01*
X213733333Y-71811961D02*
X213685714Y-71716723D01*
X213685714Y-71716723D02*
X213638095Y-71526247D01*
X213638095Y-71526247D02*
X213638095Y-71383390D01*
X213638095Y-71383390D02*
X213685714Y-71192914D01*
X213685714Y-71192914D02*
X213733333Y-71097676D01*
X213733333Y-71097676D02*
X213828571Y-71002438D01*
X213828571Y-71002438D02*
X213971428Y-70954819D01*
X213971428Y-70954819D02*
X214066666Y-70954819D01*
X214066666Y-70954819D02*
X214209523Y-71002438D01*
X214209523Y-71002438D02*
X214257142Y-71050057D01*
X215114285Y-71288152D02*
X215114285Y-71954819D01*
X214876190Y-70907200D02*
X214638095Y-71621485D01*
X214638095Y-71621485D02*
X215257142Y-71621485D01*
X215542857Y-70954819D02*
X216209523Y-70954819D01*
X216209523Y-70954819D02*
X215780952Y-71954819D01*
X197042826Y-71454819D02*
X197614254Y-71454819D01*
X197328540Y-72454819D02*
X197328540Y-71454819D01*
X197947588Y-72454819D02*
X197947588Y-71454819D01*
X197947588Y-71454819D02*
X198328540Y-71454819D01*
X198328540Y-71454819D02*
X198423778Y-71502438D01*
X198423778Y-71502438D02*
X198471397Y-71550057D01*
X198471397Y-71550057D02*
X198519016Y-71645295D01*
X198519016Y-71645295D02*
X198519016Y-71788152D01*
X198519016Y-71788152D02*
X198471397Y-71883390D01*
X198471397Y-71883390D02*
X198423778Y-71931009D01*
X198423778Y-71931009D02*
X198328540Y-71978628D01*
X198328540Y-71978628D02*
X197947588Y-71978628D01*
X198995207Y-72454819D02*
X199185683Y-72454819D01*
X199185683Y-72454819D02*
X199280921Y-72407200D01*
X199280921Y-72407200D02*
X199328540Y-72359580D01*
X199328540Y-72359580D02*
X199423778Y-72216723D01*
X199423778Y-72216723D02*
X199471397Y-72026247D01*
X199471397Y-72026247D02*
X199471397Y-71645295D01*
X199471397Y-71645295D02*
X199423778Y-71550057D01*
X199423778Y-71550057D02*
X199376159Y-71502438D01*
X199376159Y-71502438D02*
X199280921Y-71454819D01*
X199280921Y-71454819D02*
X199090445Y-71454819D01*
X199090445Y-71454819D02*
X198995207Y-71502438D01*
X198995207Y-71502438D02*
X198947588Y-71550057D01*
X198947588Y-71550057D02*
X198899969Y-71645295D01*
X198899969Y-71645295D02*
X198899969Y-71883390D01*
X198899969Y-71883390D02*
X198947588Y-71978628D01*
X198947588Y-71978628D02*
X198995207Y-72026247D01*
X198995207Y-72026247D02*
X199090445Y-72073866D01*
X199090445Y-72073866D02*
X199280921Y-72073866D01*
X199280921Y-72073866D02*
X199376159Y-72026247D01*
X199376159Y-72026247D02*
X199423778Y-71978628D01*
X199423778Y-71978628D02*
X199471397Y-71883390D01*
X210907142Y-88334580D02*
X210859523Y-88382200D01*
X210859523Y-88382200D02*
X210716666Y-88429819D01*
X210716666Y-88429819D02*
X210621428Y-88429819D01*
X210621428Y-88429819D02*
X210478571Y-88382200D01*
X210478571Y-88382200D02*
X210383333Y-88286961D01*
X210383333Y-88286961D02*
X210335714Y-88191723D01*
X210335714Y-88191723D02*
X210288095Y-88001247D01*
X210288095Y-88001247D02*
X210288095Y-87858390D01*
X210288095Y-87858390D02*
X210335714Y-87667914D01*
X210335714Y-87667914D02*
X210383333Y-87572676D01*
X210383333Y-87572676D02*
X210478571Y-87477438D01*
X210478571Y-87477438D02*
X210621428Y-87429819D01*
X210621428Y-87429819D02*
X210716666Y-87429819D01*
X210716666Y-87429819D02*
X210859523Y-87477438D01*
X210859523Y-87477438D02*
X210907142Y-87525057D01*
X211288095Y-87525057D02*
X211335714Y-87477438D01*
X211335714Y-87477438D02*
X211430952Y-87429819D01*
X211430952Y-87429819D02*
X211669047Y-87429819D01*
X211669047Y-87429819D02*
X211764285Y-87477438D01*
X211764285Y-87477438D02*
X211811904Y-87525057D01*
X211811904Y-87525057D02*
X211859523Y-87620295D01*
X211859523Y-87620295D02*
X211859523Y-87715533D01*
X211859523Y-87715533D02*
X211811904Y-87858390D01*
X211811904Y-87858390D02*
X211240476Y-88429819D01*
X211240476Y-88429819D02*
X211859523Y-88429819D01*
X212478571Y-87429819D02*
X212573809Y-87429819D01*
X212573809Y-87429819D02*
X212669047Y-87477438D01*
X212669047Y-87477438D02*
X212716666Y-87525057D01*
X212716666Y-87525057D02*
X212764285Y-87620295D01*
X212764285Y-87620295D02*
X212811904Y-87810771D01*
X212811904Y-87810771D02*
X212811904Y-88048866D01*
X212811904Y-88048866D02*
X212764285Y-88239342D01*
X212764285Y-88239342D02*
X212716666Y-88334580D01*
X212716666Y-88334580D02*
X212669047Y-88382200D01*
X212669047Y-88382200D02*
X212573809Y-88429819D01*
X212573809Y-88429819D02*
X212478571Y-88429819D01*
X212478571Y-88429819D02*
X212383333Y-88382200D01*
X212383333Y-88382200D02*
X212335714Y-88334580D01*
X212335714Y-88334580D02*
X212288095Y-88239342D01*
X212288095Y-88239342D02*
X212240476Y-88048866D01*
X212240476Y-88048866D02*
X212240476Y-87810771D01*
X212240476Y-87810771D02*
X212288095Y-87620295D01*
X212288095Y-87620295D02*
X212335714Y-87525057D01*
X212335714Y-87525057D02*
X212383333Y-87477438D01*
X212383333Y-87477438D02*
X212478571Y-87429819D01*
X207257142Y-71859580D02*
X207209523Y-71907200D01*
X207209523Y-71907200D02*
X207066666Y-71954819D01*
X207066666Y-71954819D02*
X206971428Y-71954819D01*
X206971428Y-71954819D02*
X206828571Y-71907200D01*
X206828571Y-71907200D02*
X206733333Y-71811961D01*
X206733333Y-71811961D02*
X206685714Y-71716723D01*
X206685714Y-71716723D02*
X206638095Y-71526247D01*
X206638095Y-71526247D02*
X206638095Y-71383390D01*
X206638095Y-71383390D02*
X206685714Y-71192914D01*
X206685714Y-71192914D02*
X206733333Y-71097676D01*
X206733333Y-71097676D02*
X206828571Y-71002438D01*
X206828571Y-71002438D02*
X206971428Y-70954819D01*
X206971428Y-70954819D02*
X207066666Y-70954819D01*
X207066666Y-70954819D02*
X207209523Y-71002438D01*
X207209523Y-71002438D02*
X207257142Y-71050057D01*
X208114285Y-71288152D02*
X208114285Y-71954819D01*
X207876190Y-70907200D02*
X207638095Y-71621485D01*
X207638095Y-71621485D02*
X208257142Y-71621485D01*
X209114285Y-70954819D02*
X208638095Y-70954819D01*
X208638095Y-70954819D02*
X208590476Y-71431009D01*
X208590476Y-71431009D02*
X208638095Y-71383390D01*
X208638095Y-71383390D02*
X208733333Y-71335771D01*
X208733333Y-71335771D02*
X208971428Y-71335771D01*
X208971428Y-71335771D02*
X209066666Y-71383390D01*
X209066666Y-71383390D02*
X209114285Y-71431009D01*
X209114285Y-71431009D02*
X209161904Y-71526247D01*
X209161904Y-71526247D02*
X209161904Y-71764342D01*
X209161904Y-71764342D02*
X209114285Y-71859580D01*
X209114285Y-71859580D02*
X209066666Y-71907200D01*
X209066666Y-71907200D02*
X208971428Y-71954819D01*
X208971428Y-71954819D02*
X208733333Y-71954819D01*
X208733333Y-71954819D02*
X208638095Y-71907200D01*
X208638095Y-71907200D02*
X208590476Y-71859580D01*
X191764311Y-81342857D02*
X191811931Y-81390476D01*
X191811931Y-81390476D02*
X191859550Y-81533333D01*
X191859550Y-81533333D02*
X191859550Y-81628571D01*
X191859550Y-81628571D02*
X191811931Y-81771428D01*
X191811931Y-81771428D02*
X191716692Y-81866666D01*
X191716692Y-81866666D02*
X191621454Y-81914285D01*
X191621454Y-81914285D02*
X191430978Y-81961904D01*
X191430978Y-81961904D02*
X191288121Y-81961904D01*
X191288121Y-81961904D02*
X191097645Y-81914285D01*
X191097645Y-81914285D02*
X191002407Y-81866666D01*
X191002407Y-81866666D02*
X190907169Y-81771428D01*
X190907169Y-81771428D02*
X190859550Y-81628571D01*
X190859550Y-81628571D02*
X190859550Y-81533333D01*
X190859550Y-81533333D02*
X190907169Y-81390476D01*
X190907169Y-81390476D02*
X190954788Y-81342857D01*
X191859550Y-80390476D02*
X191859550Y-80961904D01*
X191859550Y-80676190D02*
X190859550Y-80676190D01*
X190859550Y-80676190D02*
X191002407Y-80771428D01*
X191002407Y-80771428D02*
X191097645Y-80866666D01*
X191097645Y-80866666D02*
X191145264Y-80961904D01*
X190859550Y-79771428D02*
X190859550Y-79676190D01*
X190859550Y-79676190D02*
X190907169Y-79580952D01*
X190907169Y-79580952D02*
X190954788Y-79533333D01*
X190954788Y-79533333D02*
X191050026Y-79485714D01*
X191050026Y-79485714D02*
X191240502Y-79438095D01*
X191240502Y-79438095D02*
X191478597Y-79438095D01*
X191478597Y-79438095D02*
X191669073Y-79485714D01*
X191669073Y-79485714D02*
X191764311Y-79533333D01*
X191764311Y-79533333D02*
X191811931Y-79580952D01*
X191811931Y-79580952D02*
X191859550Y-79676190D01*
X191859550Y-79676190D02*
X191859550Y-79771428D01*
X191859550Y-79771428D02*
X191811931Y-79866666D01*
X191811931Y-79866666D02*
X191764311Y-79914285D01*
X191764311Y-79914285D02*
X191669073Y-79961904D01*
X191669073Y-79961904D02*
X191478597Y-80009523D01*
X191478597Y-80009523D02*
X191240502Y-80009523D01*
X191240502Y-80009523D02*
X191050026Y-79961904D01*
X191050026Y-79961904D02*
X190954788Y-79914285D01*
X190954788Y-79914285D02*
X190907169Y-79866666D01*
X190907169Y-79866666D02*
X190859550Y-79771428D01*
X202766636Y-90694819D02*
X202766636Y-89694819D01*
X202766636Y-89694819D02*
X203004731Y-89694819D01*
X203004731Y-89694819D02*
X203147588Y-89742438D01*
X203147588Y-89742438D02*
X203242826Y-89837676D01*
X203242826Y-89837676D02*
X203290445Y-89932914D01*
X203290445Y-89932914D02*
X203338064Y-90123390D01*
X203338064Y-90123390D02*
X203338064Y-90266247D01*
X203338064Y-90266247D02*
X203290445Y-90456723D01*
X203290445Y-90456723D02*
X203242826Y-90551961D01*
X203242826Y-90551961D02*
X203147588Y-90647200D01*
X203147588Y-90647200D02*
X203004731Y-90694819D01*
X203004731Y-90694819D02*
X202766636Y-90694819D01*
X203671398Y-89694819D02*
X204290445Y-89694819D01*
X204290445Y-89694819D02*
X203957112Y-90075771D01*
X203957112Y-90075771D02*
X204099969Y-90075771D01*
X204099969Y-90075771D02*
X204195207Y-90123390D01*
X204195207Y-90123390D02*
X204242826Y-90171009D01*
X204242826Y-90171009D02*
X204290445Y-90266247D01*
X204290445Y-90266247D02*
X204290445Y-90504342D01*
X204290445Y-90504342D02*
X204242826Y-90599580D01*
X204242826Y-90599580D02*
X204195207Y-90647200D01*
X204195207Y-90647200D02*
X204099969Y-90694819D01*
X204099969Y-90694819D02*
X203814255Y-90694819D01*
X203814255Y-90694819D02*
X203719017Y-90647200D01*
X203719017Y-90647200D02*
X203671398Y-90599580D01*
X191759580Y-98841666D02*
X191807200Y-98889285D01*
X191807200Y-98889285D02*
X191854819Y-99032142D01*
X191854819Y-99032142D02*
X191854819Y-99127380D01*
X191854819Y-99127380D02*
X191807200Y-99270237D01*
X191807200Y-99270237D02*
X191711961Y-99365475D01*
X191711961Y-99365475D02*
X191616723Y-99413094D01*
X191616723Y-99413094D02*
X191426247Y-99460713D01*
X191426247Y-99460713D02*
X191283390Y-99460713D01*
X191283390Y-99460713D02*
X191092914Y-99413094D01*
X191092914Y-99413094D02*
X190997676Y-99365475D01*
X190997676Y-99365475D02*
X190902438Y-99270237D01*
X190902438Y-99270237D02*
X190854819Y-99127380D01*
X190854819Y-99127380D02*
X190854819Y-99032142D01*
X190854819Y-99032142D02*
X190902438Y-98889285D01*
X190902438Y-98889285D02*
X190950057Y-98841666D01*
X190950057Y-98460713D02*
X190902438Y-98413094D01*
X190902438Y-98413094D02*
X190854819Y-98317856D01*
X190854819Y-98317856D02*
X190854819Y-98079761D01*
X190854819Y-98079761D02*
X190902438Y-97984523D01*
X190902438Y-97984523D02*
X190950057Y-97936904D01*
X190950057Y-97936904D02*
X191045295Y-97889285D01*
X191045295Y-97889285D02*
X191140533Y-97889285D01*
X191140533Y-97889285D02*
X191283390Y-97936904D01*
X191283390Y-97936904D02*
X191854819Y-98508332D01*
X191854819Y-98508332D02*
X191854819Y-97889285D01*
X210857142Y-125259580D02*
X210809523Y-125307200D01*
X210809523Y-125307200D02*
X210666666Y-125354819D01*
X210666666Y-125354819D02*
X210571428Y-125354819D01*
X210571428Y-125354819D02*
X210428571Y-125307200D01*
X210428571Y-125307200D02*
X210333333Y-125211961D01*
X210333333Y-125211961D02*
X210285714Y-125116723D01*
X210285714Y-125116723D02*
X210238095Y-124926247D01*
X210238095Y-124926247D02*
X210238095Y-124783390D01*
X210238095Y-124783390D02*
X210285714Y-124592914D01*
X210285714Y-124592914D02*
X210333333Y-124497676D01*
X210333333Y-124497676D02*
X210428571Y-124402438D01*
X210428571Y-124402438D02*
X210571428Y-124354819D01*
X210571428Y-124354819D02*
X210666666Y-124354819D01*
X210666666Y-124354819D02*
X210809523Y-124402438D01*
X210809523Y-124402438D02*
X210857142Y-124450057D01*
X211238095Y-124450057D02*
X211285714Y-124402438D01*
X211285714Y-124402438D02*
X211380952Y-124354819D01*
X211380952Y-124354819D02*
X211619047Y-124354819D01*
X211619047Y-124354819D02*
X211714285Y-124402438D01*
X211714285Y-124402438D02*
X211761904Y-124450057D01*
X211761904Y-124450057D02*
X211809523Y-124545295D01*
X211809523Y-124545295D02*
X211809523Y-124640533D01*
X211809523Y-124640533D02*
X211761904Y-124783390D01*
X211761904Y-124783390D02*
X211190476Y-125354819D01*
X211190476Y-125354819D02*
X211809523Y-125354819D01*
X212142857Y-124354819D02*
X212761904Y-124354819D01*
X212761904Y-124354819D02*
X212428571Y-124735771D01*
X212428571Y-124735771D02*
X212571428Y-124735771D01*
X212571428Y-124735771D02*
X212666666Y-124783390D01*
X212666666Y-124783390D02*
X212714285Y-124831009D01*
X212714285Y-124831009D02*
X212761904Y-124926247D01*
X212761904Y-124926247D02*
X212761904Y-125164342D01*
X212761904Y-125164342D02*
X212714285Y-125259580D01*
X212714285Y-125259580D02*
X212666666Y-125307200D01*
X212666666Y-125307200D02*
X212571428Y-125354819D01*
X212571428Y-125354819D02*
X212285714Y-125354819D01*
X212285714Y-125354819D02*
X212190476Y-125307200D01*
X212190476Y-125307200D02*
X212142857Y-125259580D01*
X214833333Y-105859580D02*
X214785714Y-105907200D01*
X214785714Y-105907200D02*
X214642857Y-105954819D01*
X214642857Y-105954819D02*
X214547619Y-105954819D01*
X214547619Y-105954819D02*
X214404762Y-105907200D01*
X214404762Y-105907200D02*
X214309524Y-105811961D01*
X214309524Y-105811961D02*
X214261905Y-105716723D01*
X214261905Y-105716723D02*
X214214286Y-105526247D01*
X214214286Y-105526247D02*
X214214286Y-105383390D01*
X214214286Y-105383390D02*
X214261905Y-105192914D01*
X214261905Y-105192914D02*
X214309524Y-105097676D01*
X214309524Y-105097676D02*
X214404762Y-105002438D01*
X214404762Y-105002438D02*
X214547619Y-104954819D01*
X214547619Y-104954819D02*
X214642857Y-104954819D01*
X214642857Y-104954819D02*
X214785714Y-105002438D01*
X214785714Y-105002438D02*
X214833333Y-105050057D01*
X215404762Y-105383390D02*
X215309524Y-105335771D01*
X215309524Y-105335771D02*
X215261905Y-105288152D01*
X215261905Y-105288152D02*
X215214286Y-105192914D01*
X215214286Y-105192914D02*
X215214286Y-105145295D01*
X215214286Y-105145295D02*
X215261905Y-105050057D01*
X215261905Y-105050057D02*
X215309524Y-105002438D01*
X215309524Y-105002438D02*
X215404762Y-104954819D01*
X215404762Y-104954819D02*
X215595238Y-104954819D01*
X215595238Y-104954819D02*
X215690476Y-105002438D01*
X215690476Y-105002438D02*
X215738095Y-105050057D01*
X215738095Y-105050057D02*
X215785714Y-105145295D01*
X215785714Y-105145295D02*
X215785714Y-105192914D01*
X215785714Y-105192914D02*
X215738095Y-105288152D01*
X215738095Y-105288152D02*
X215690476Y-105335771D01*
X215690476Y-105335771D02*
X215595238Y-105383390D01*
X215595238Y-105383390D02*
X215404762Y-105383390D01*
X215404762Y-105383390D02*
X215309524Y-105431009D01*
X215309524Y-105431009D02*
X215261905Y-105478628D01*
X215261905Y-105478628D02*
X215214286Y-105573866D01*
X215214286Y-105573866D02*
X215214286Y-105764342D01*
X215214286Y-105764342D02*
X215261905Y-105859580D01*
X215261905Y-105859580D02*
X215309524Y-105907200D01*
X215309524Y-105907200D02*
X215404762Y-105954819D01*
X215404762Y-105954819D02*
X215595238Y-105954819D01*
X215595238Y-105954819D02*
X215690476Y-105907200D01*
X215690476Y-105907200D02*
X215738095Y-105859580D01*
X215738095Y-105859580D02*
X215785714Y-105764342D01*
X215785714Y-105764342D02*
X215785714Y-105573866D01*
X215785714Y-105573866D02*
X215738095Y-105478628D01*
X215738095Y-105478628D02*
X215690476Y-105431009D01*
X215690476Y-105431009D02*
X215595238Y-105383390D01*
X211738095Y-61506819D02*
X212309523Y-61506819D01*
X212023809Y-62506819D02*
X212023809Y-61506819D01*
X212642857Y-62506819D02*
X212642857Y-61506819D01*
X212642857Y-61506819D02*
X213023809Y-61506819D01*
X213023809Y-61506819D02*
X213119047Y-61554438D01*
X213119047Y-61554438D02*
X213166666Y-61602057D01*
X213166666Y-61602057D02*
X213214285Y-61697295D01*
X213214285Y-61697295D02*
X213214285Y-61840152D01*
X213214285Y-61840152D02*
X213166666Y-61935390D01*
X213166666Y-61935390D02*
X213119047Y-61983009D01*
X213119047Y-61983009D02*
X213023809Y-62030628D01*
X213023809Y-62030628D02*
X212642857Y-62030628D01*
X213785714Y-61935390D02*
X213690476Y-61887771D01*
X213690476Y-61887771D02*
X213642857Y-61840152D01*
X213642857Y-61840152D02*
X213595238Y-61744914D01*
X213595238Y-61744914D02*
X213595238Y-61697295D01*
X213595238Y-61697295D02*
X213642857Y-61602057D01*
X213642857Y-61602057D02*
X213690476Y-61554438D01*
X213690476Y-61554438D02*
X213785714Y-61506819D01*
X213785714Y-61506819D02*
X213976190Y-61506819D01*
X213976190Y-61506819D02*
X214071428Y-61554438D01*
X214071428Y-61554438D02*
X214119047Y-61602057D01*
X214119047Y-61602057D02*
X214166666Y-61697295D01*
X214166666Y-61697295D02*
X214166666Y-61744914D01*
X214166666Y-61744914D02*
X214119047Y-61840152D01*
X214119047Y-61840152D02*
X214071428Y-61887771D01*
X214071428Y-61887771D02*
X213976190Y-61935390D01*
X213976190Y-61935390D02*
X213785714Y-61935390D01*
X213785714Y-61935390D02*
X213690476Y-61983009D01*
X213690476Y-61983009D02*
X213642857Y-62030628D01*
X213642857Y-62030628D02*
X213595238Y-62125866D01*
X213595238Y-62125866D02*
X213595238Y-62316342D01*
X213595238Y-62316342D02*
X213642857Y-62411580D01*
X213642857Y-62411580D02*
X213690476Y-62459200D01*
X213690476Y-62459200D02*
X213785714Y-62506819D01*
X213785714Y-62506819D02*
X213976190Y-62506819D01*
X213976190Y-62506819D02*
X214071428Y-62459200D01*
X214071428Y-62459200D02*
X214119047Y-62411580D01*
X214119047Y-62411580D02*
X214166666Y-62316342D01*
X214166666Y-62316342D02*
X214166666Y-62125866D01*
X214166666Y-62125866D02*
X214119047Y-62030628D01*
X214119047Y-62030628D02*
X214071428Y-61983009D01*
X214071428Y-61983009D02*
X213976190Y-61935390D01*
X186759580Y-64842857D02*
X186807200Y-64890476D01*
X186807200Y-64890476D02*
X186854819Y-65033333D01*
X186854819Y-65033333D02*
X186854819Y-65128571D01*
X186854819Y-65128571D02*
X186807200Y-65271428D01*
X186807200Y-65271428D02*
X186711961Y-65366666D01*
X186711961Y-65366666D02*
X186616723Y-65414285D01*
X186616723Y-65414285D02*
X186426247Y-65461904D01*
X186426247Y-65461904D02*
X186283390Y-65461904D01*
X186283390Y-65461904D02*
X186092914Y-65414285D01*
X186092914Y-65414285D02*
X185997676Y-65366666D01*
X185997676Y-65366666D02*
X185902438Y-65271428D01*
X185902438Y-65271428D02*
X185854819Y-65128571D01*
X185854819Y-65128571D02*
X185854819Y-65033333D01*
X185854819Y-65033333D02*
X185902438Y-64890476D01*
X185902438Y-64890476D02*
X185950057Y-64842857D01*
X186188152Y-63985714D02*
X186854819Y-63985714D01*
X185807200Y-64223809D02*
X186521485Y-64461904D01*
X186521485Y-64461904D02*
X186521485Y-63842857D01*
X185854819Y-63271428D02*
X185854819Y-63176190D01*
X185854819Y-63176190D02*
X185902438Y-63080952D01*
X185902438Y-63080952D02*
X185950057Y-63033333D01*
X185950057Y-63033333D02*
X186045295Y-62985714D01*
X186045295Y-62985714D02*
X186235771Y-62938095D01*
X186235771Y-62938095D02*
X186473866Y-62938095D01*
X186473866Y-62938095D02*
X186664342Y-62985714D01*
X186664342Y-62985714D02*
X186759580Y-63033333D01*
X186759580Y-63033333D02*
X186807200Y-63080952D01*
X186807200Y-63080952D02*
X186854819Y-63176190D01*
X186854819Y-63176190D02*
X186854819Y-63271428D01*
X186854819Y-63271428D02*
X186807200Y-63366666D01*
X186807200Y-63366666D02*
X186759580Y-63414285D01*
X186759580Y-63414285D02*
X186664342Y-63461904D01*
X186664342Y-63461904D02*
X186473866Y-63509523D01*
X186473866Y-63509523D02*
X186235771Y-63509523D01*
X186235771Y-63509523D02*
X186045295Y-63461904D01*
X186045295Y-63461904D02*
X185950057Y-63414285D01*
X185950057Y-63414285D02*
X185902438Y-63366666D01*
X185902438Y-63366666D02*
X185854819Y-63271428D01*
X207357142Y-125259580D02*
X207309523Y-125307200D01*
X207309523Y-125307200D02*
X207166666Y-125354819D01*
X207166666Y-125354819D02*
X207071428Y-125354819D01*
X207071428Y-125354819D02*
X206928571Y-125307200D01*
X206928571Y-125307200D02*
X206833333Y-125211961D01*
X206833333Y-125211961D02*
X206785714Y-125116723D01*
X206785714Y-125116723D02*
X206738095Y-124926247D01*
X206738095Y-124926247D02*
X206738095Y-124783390D01*
X206738095Y-124783390D02*
X206785714Y-124592914D01*
X206785714Y-124592914D02*
X206833333Y-124497676D01*
X206833333Y-124497676D02*
X206928571Y-124402438D01*
X206928571Y-124402438D02*
X207071428Y-124354819D01*
X207071428Y-124354819D02*
X207166666Y-124354819D01*
X207166666Y-124354819D02*
X207309523Y-124402438D01*
X207309523Y-124402438D02*
X207357142Y-124450057D01*
X207738095Y-124450057D02*
X207785714Y-124402438D01*
X207785714Y-124402438D02*
X207880952Y-124354819D01*
X207880952Y-124354819D02*
X208119047Y-124354819D01*
X208119047Y-124354819D02*
X208214285Y-124402438D01*
X208214285Y-124402438D02*
X208261904Y-124450057D01*
X208261904Y-124450057D02*
X208309523Y-124545295D01*
X208309523Y-124545295D02*
X208309523Y-124640533D01*
X208309523Y-124640533D02*
X208261904Y-124783390D01*
X208261904Y-124783390D02*
X207690476Y-125354819D01*
X207690476Y-125354819D02*
X208309523Y-125354819D01*
X208690476Y-124450057D02*
X208738095Y-124402438D01*
X208738095Y-124402438D02*
X208833333Y-124354819D01*
X208833333Y-124354819D02*
X209071428Y-124354819D01*
X209071428Y-124354819D02*
X209166666Y-124402438D01*
X209166666Y-124402438D02*
X209214285Y-124450057D01*
X209214285Y-124450057D02*
X209261904Y-124545295D01*
X209261904Y-124545295D02*
X209261904Y-124640533D01*
X209261904Y-124640533D02*
X209214285Y-124783390D01*
X209214285Y-124783390D02*
X208642857Y-125354819D01*
X208642857Y-125354819D02*
X209261904Y-125354819D01*
X217857142Y-125259580D02*
X217809523Y-125307200D01*
X217809523Y-125307200D02*
X217666666Y-125354819D01*
X217666666Y-125354819D02*
X217571428Y-125354819D01*
X217571428Y-125354819D02*
X217428571Y-125307200D01*
X217428571Y-125307200D02*
X217333333Y-125211961D01*
X217333333Y-125211961D02*
X217285714Y-125116723D01*
X217285714Y-125116723D02*
X217238095Y-124926247D01*
X217238095Y-124926247D02*
X217238095Y-124783390D01*
X217238095Y-124783390D02*
X217285714Y-124592914D01*
X217285714Y-124592914D02*
X217333333Y-124497676D01*
X217333333Y-124497676D02*
X217428571Y-124402438D01*
X217428571Y-124402438D02*
X217571428Y-124354819D01*
X217571428Y-124354819D02*
X217666666Y-124354819D01*
X217666666Y-124354819D02*
X217809523Y-124402438D01*
X217809523Y-124402438D02*
X217857142Y-124450057D01*
X218238095Y-124450057D02*
X218285714Y-124402438D01*
X218285714Y-124402438D02*
X218380952Y-124354819D01*
X218380952Y-124354819D02*
X218619047Y-124354819D01*
X218619047Y-124354819D02*
X218714285Y-124402438D01*
X218714285Y-124402438D02*
X218761904Y-124450057D01*
X218761904Y-124450057D02*
X218809523Y-124545295D01*
X218809523Y-124545295D02*
X218809523Y-124640533D01*
X218809523Y-124640533D02*
X218761904Y-124783390D01*
X218761904Y-124783390D02*
X218190476Y-125354819D01*
X218190476Y-125354819D02*
X218809523Y-125354819D01*
X219714285Y-124354819D02*
X219238095Y-124354819D01*
X219238095Y-124354819D02*
X219190476Y-124831009D01*
X219190476Y-124831009D02*
X219238095Y-124783390D01*
X219238095Y-124783390D02*
X219333333Y-124735771D01*
X219333333Y-124735771D02*
X219571428Y-124735771D01*
X219571428Y-124735771D02*
X219666666Y-124783390D01*
X219666666Y-124783390D02*
X219714285Y-124831009D01*
X219714285Y-124831009D02*
X219761904Y-124926247D01*
X219761904Y-124926247D02*
X219761904Y-125164342D01*
X219761904Y-125164342D02*
X219714285Y-125259580D01*
X219714285Y-125259580D02*
X219666666Y-125307200D01*
X219666666Y-125307200D02*
X219571428Y-125354819D01*
X219571428Y-125354819D02*
X219333333Y-125354819D01*
X219333333Y-125354819D02*
X219238095Y-125307200D01*
X219238095Y-125307200D02*
X219190476Y-125259580D01*
X229901666Y-70984819D02*
X229901666Y-71699104D01*
X229901666Y-71699104D02*
X229854047Y-71841961D01*
X229854047Y-71841961D02*
X229758809Y-71937200D01*
X229758809Y-71937200D02*
X229615952Y-71984819D01*
X229615952Y-71984819D02*
X229520714Y-71984819D01*
X230854047Y-70984819D02*
X230377857Y-70984819D01*
X230377857Y-70984819D02*
X230330238Y-71461009D01*
X230330238Y-71461009D02*
X230377857Y-71413390D01*
X230377857Y-71413390D02*
X230473095Y-71365771D01*
X230473095Y-71365771D02*
X230711190Y-71365771D01*
X230711190Y-71365771D02*
X230806428Y-71413390D01*
X230806428Y-71413390D02*
X230854047Y-71461009D01*
X230854047Y-71461009D02*
X230901666Y-71556247D01*
X230901666Y-71556247D02*
X230901666Y-71794342D01*
X230901666Y-71794342D02*
X230854047Y-71889580D01*
X230854047Y-71889580D02*
X230806428Y-71937200D01*
X230806428Y-71937200D02*
X230711190Y-71984819D01*
X230711190Y-71984819D02*
X230473095Y-71984819D01*
X230473095Y-71984819D02*
X230377857Y-71937200D01*
X230377857Y-71937200D02*
X230330238Y-71889580D01*
X194259580Y-64842857D02*
X194307200Y-64890476D01*
X194307200Y-64890476D02*
X194354819Y-65033333D01*
X194354819Y-65033333D02*
X194354819Y-65128571D01*
X194354819Y-65128571D02*
X194307200Y-65271428D01*
X194307200Y-65271428D02*
X194211961Y-65366666D01*
X194211961Y-65366666D02*
X194116723Y-65414285D01*
X194116723Y-65414285D02*
X193926247Y-65461904D01*
X193926247Y-65461904D02*
X193783390Y-65461904D01*
X193783390Y-65461904D02*
X193592914Y-65414285D01*
X193592914Y-65414285D02*
X193497676Y-65366666D01*
X193497676Y-65366666D02*
X193402438Y-65271428D01*
X193402438Y-65271428D02*
X193354819Y-65128571D01*
X193354819Y-65128571D02*
X193354819Y-65033333D01*
X193354819Y-65033333D02*
X193402438Y-64890476D01*
X193402438Y-64890476D02*
X193450057Y-64842857D01*
X193354819Y-64509523D02*
X193354819Y-63890476D01*
X193354819Y-63890476D02*
X193735771Y-64223809D01*
X193735771Y-64223809D02*
X193735771Y-64080952D01*
X193735771Y-64080952D02*
X193783390Y-63985714D01*
X193783390Y-63985714D02*
X193831009Y-63938095D01*
X193831009Y-63938095D02*
X193926247Y-63890476D01*
X193926247Y-63890476D02*
X194164342Y-63890476D01*
X194164342Y-63890476D02*
X194259580Y-63938095D01*
X194259580Y-63938095D02*
X194307200Y-63985714D01*
X194307200Y-63985714D02*
X194354819Y-64080952D01*
X194354819Y-64080952D02*
X194354819Y-64366666D01*
X194354819Y-64366666D02*
X194307200Y-64461904D01*
X194307200Y-64461904D02*
X194259580Y-64509523D01*
X193354819Y-63557142D02*
X193354819Y-62890476D01*
X193354819Y-62890476D02*
X194354819Y-63319047D01*
X217613095Y-115654819D02*
X218184523Y-115654819D01*
X217898809Y-116654819D02*
X217898809Y-115654819D01*
X218517857Y-116654819D02*
X218517857Y-115654819D01*
X218517857Y-115654819D02*
X218898809Y-115654819D01*
X218898809Y-115654819D02*
X218994047Y-115702438D01*
X218994047Y-115702438D02*
X219041666Y-115750057D01*
X219041666Y-115750057D02*
X219089285Y-115845295D01*
X219089285Y-115845295D02*
X219089285Y-115988152D01*
X219089285Y-115988152D02*
X219041666Y-116083390D01*
X219041666Y-116083390D02*
X218994047Y-116131009D01*
X218994047Y-116131009D02*
X218898809Y-116178628D01*
X218898809Y-116178628D02*
X218517857Y-116178628D01*
X219994047Y-115654819D02*
X219517857Y-115654819D01*
X219517857Y-115654819D02*
X219470238Y-116131009D01*
X219470238Y-116131009D02*
X219517857Y-116083390D01*
X219517857Y-116083390D02*
X219613095Y-116035771D01*
X219613095Y-116035771D02*
X219851190Y-116035771D01*
X219851190Y-116035771D02*
X219946428Y-116083390D01*
X219946428Y-116083390D02*
X219994047Y-116131009D01*
X219994047Y-116131009D02*
X220041666Y-116226247D01*
X220041666Y-116226247D02*
X220041666Y-116464342D01*
X220041666Y-116464342D02*
X219994047Y-116559580D01*
X219994047Y-116559580D02*
X219946428Y-116607200D01*
X219946428Y-116607200D02*
X219851190Y-116654819D01*
X219851190Y-116654819D02*
X219613095Y-116654819D01*
X219613095Y-116654819D02*
X219517857Y-116607200D01*
X219517857Y-116607200D02*
X219470238Y-116559580D01*
X170166666Y-107954819D02*
X170166666Y-108669104D01*
X170166666Y-108669104D02*
X170119047Y-108811961D01*
X170119047Y-108811961D02*
X170023809Y-108907200D01*
X170023809Y-108907200D02*
X169880952Y-108954819D01*
X169880952Y-108954819D02*
X169785714Y-108954819D01*
X171166666Y-108954819D02*
X170595238Y-108954819D01*
X170880952Y-108954819D02*
X170880952Y-107954819D01*
X170880952Y-107954819D02*
X170785714Y-108097676D01*
X170785714Y-108097676D02*
X170690476Y-108192914D01*
X170690476Y-108192914D02*
X170595238Y-108240533D01*
X191734580Y-118242857D02*
X191782200Y-118290476D01*
X191782200Y-118290476D02*
X191829819Y-118433333D01*
X191829819Y-118433333D02*
X191829819Y-118528571D01*
X191829819Y-118528571D02*
X191782200Y-118671428D01*
X191782200Y-118671428D02*
X191686961Y-118766666D01*
X191686961Y-118766666D02*
X191591723Y-118814285D01*
X191591723Y-118814285D02*
X191401247Y-118861904D01*
X191401247Y-118861904D02*
X191258390Y-118861904D01*
X191258390Y-118861904D02*
X191067914Y-118814285D01*
X191067914Y-118814285D02*
X190972676Y-118766666D01*
X190972676Y-118766666D02*
X190877438Y-118671428D01*
X190877438Y-118671428D02*
X190829819Y-118528571D01*
X190829819Y-118528571D02*
X190829819Y-118433333D01*
X190829819Y-118433333D02*
X190877438Y-118290476D01*
X190877438Y-118290476D02*
X190925057Y-118242857D01*
X191829819Y-117290476D02*
X191829819Y-117861904D01*
X191829819Y-117576190D02*
X190829819Y-117576190D01*
X190829819Y-117576190D02*
X190972676Y-117671428D01*
X190972676Y-117671428D02*
X191067914Y-117766666D01*
X191067914Y-117766666D02*
X191115533Y-117861904D01*
X191163152Y-116433333D02*
X191829819Y-116433333D01*
X190782200Y-116671428D02*
X191496485Y-116909523D01*
X191496485Y-116909523D02*
X191496485Y-116290476D01*
X202756636Y-74189819D02*
X202756636Y-73189819D01*
X202756636Y-73189819D02*
X202994731Y-73189819D01*
X202994731Y-73189819D02*
X203137588Y-73237438D01*
X203137588Y-73237438D02*
X203232826Y-73332676D01*
X203232826Y-73332676D02*
X203280445Y-73427914D01*
X203280445Y-73427914D02*
X203328064Y-73618390D01*
X203328064Y-73618390D02*
X203328064Y-73761247D01*
X203328064Y-73761247D02*
X203280445Y-73951723D01*
X203280445Y-73951723D02*
X203232826Y-74046961D01*
X203232826Y-74046961D02*
X203137588Y-74142200D01*
X203137588Y-74142200D02*
X202994731Y-74189819D01*
X202994731Y-74189819D02*
X202756636Y-74189819D01*
X204185207Y-73523152D02*
X204185207Y-74189819D01*
X203947112Y-73142200D02*
X203709017Y-73856485D01*
X203709017Y-73856485D02*
X204328064Y-73856485D01*
D12*
%TO.C,D10*%
X182740000Y-58800000D02*
X182740000Y-58150000D01*
X182740000Y-58800000D02*
X182740000Y-59450000D01*
X185860000Y-58800000D02*
X185860000Y-58150000D01*
X185860000Y-58800000D02*
X185860000Y-59450000D01*
X186140000Y-57877500D02*
X185810000Y-57637500D01*
X186140000Y-57397500D01*
X186140000Y-57877500D01*
G36*
X186140000Y-57877500D02*
G01*
X185810000Y-57637500D01*
X186140000Y-57397500D01*
X186140000Y-57877500D01*
G37*
%TO.C,C17*%
X196993882Y-80390000D02*
X197275042Y-80390000D01*
X196993882Y-81410000D02*
X197275042Y-81410000D01*
D11*
%TO.C,L4*%
X202557231Y-59500000D02*
X202557231Y-58100000D01*
X202557231Y-64900000D02*
X202557231Y-63500000D01*
X202757231Y-57900000D02*
X210057231Y-57900000D01*
X210057231Y-65100000D02*
X202757231Y-65100000D01*
X210257231Y-59500000D02*
X210257231Y-58100000D01*
X210257231Y-64900000D02*
X210257231Y-63500000D01*
X202557231Y-58100000D02*
G75*
G02*
X202757231Y-57900000I200001J-1D01*
G01*
X202757231Y-65100000D02*
G75*
G02*
X202557231Y-64900000I1J200001D01*
G01*
X210057231Y-57900000D02*
G75*
G02*
X210257231Y-58100000I0J-200000D01*
G01*
X210257231Y-64900000D02*
G75*
G02*
X210057231Y-65100000I-200000J0D01*
G01*
D12*
%TO.C,C9*%
X192994731Y-83763748D02*
X192994731Y-85186252D01*
X194814731Y-83763748D02*
X194814731Y-85186252D01*
%TO.C,C27*%
X224140000Y-120663748D02*
X224140000Y-122086252D01*
X226860000Y-120663748D02*
X226860000Y-122086252D01*
%TO.C,C38*%
X190494731Y-67288748D02*
X190494731Y-68711252D01*
X192314731Y-67288748D02*
X192314731Y-68711252D01*
%TO.C,D7*%
X183540000Y-49264000D02*
X183540000Y-49420000D01*
X183540000Y-51580000D02*
X183540000Y-51736000D01*
X183540000Y-49264484D02*
G75*
G02*
X186771397Y-49419939I1560000J-1235516D01*
G01*
X184059039Y-49420000D02*
G75*
G02*
X186140910Y-49419951I1040961J-1080000D01*
G01*
X186140910Y-51580049D02*
G75*
G02*
X184059039Y-51580000I-1040910J1080049D01*
G01*
X186771397Y-51580061D02*
G75*
G02*
X183540000Y-51735516I-1671397J1080061D01*
G01*
%TO.C,C11*%
X187994731Y-83763748D02*
X187994731Y-85186252D01*
X189814731Y-83763748D02*
X189814731Y-85186252D01*
%TO.C,D2*%
X201240000Y-125800000D02*
X201240000Y-124240000D01*
X201240000Y-125800000D02*
X201480000Y-125800000D01*
X205760000Y-125510000D02*
X205760000Y-124240000D01*
X205500000Y-126110000D02*
X205500000Y-125830000D01*
X205780000Y-125830000D01*
X205500000Y-126110000D01*
G36*
X205500000Y-126110000D02*
G01*
X205500000Y-125830000D01*
X205780000Y-125830000D01*
X205500000Y-126110000D01*
G37*
%TO.C,TP3*%
X215954731Y-80700000D02*
G75*
G02*
X214054731Y-80700000I-950000J0D01*
G01*
X214054731Y-80700000D02*
G75*
G02*
X215954731Y-80700000I950000J0D01*
G01*
%TO.C,J7*%
X221285000Y-103115736D02*
X221585000Y-103540000D01*
X221585000Y-103540000D02*
X221885000Y-103115736D01*
X221885000Y-103115736D02*
X221285000Y-103115736D01*
X225195000Y-104500000D02*
X225195000Y-104800000D01*
X225195000Y-104800000D02*
X225895000Y-104800000D01*
X225195000Y-107000000D02*
X225195000Y-107300000D01*
X225195000Y-107300000D02*
X225895000Y-107300000D01*
X225195000Y-109500000D02*
X225195000Y-109800000D01*
X225195000Y-109800000D02*
X225895000Y-109800000D01*
X225195000Y-112000000D02*
X225195000Y-112300000D01*
X225195000Y-112300000D02*
X225895000Y-112300000D01*
X225895000Y-102820000D02*
X225895000Y-113980000D01*
X225895000Y-104500000D02*
X225195000Y-104500000D01*
X225895000Y-104800000D02*
X225895000Y-104500000D01*
X225895000Y-107000000D02*
X225195000Y-107000000D01*
X225895000Y-107300000D02*
X225895000Y-107000000D01*
X225895000Y-109500000D02*
X225195000Y-109500000D01*
X225895000Y-109800000D02*
X225895000Y-109500000D01*
X225895000Y-112000000D02*
X225195000Y-112000000D01*
X225895000Y-112300000D02*
X225895000Y-112000000D01*
X225895000Y-113980000D02*
X234575000Y-113980000D01*
X234575000Y-102820000D02*
X225895000Y-102820000D01*
X234575000Y-113980000D02*
X234575000Y-102820000D01*
%TO.C,C3*%
X187994731Y-101263748D02*
X187994731Y-102686252D01*
X189814731Y-101263748D02*
X189814731Y-102686252D01*
%TO.C,TP6*%
X199250000Y-123400000D02*
G75*
G02*
X197350000Y-123400000I-950000J0D01*
G01*
X197350000Y-123400000D02*
G75*
G02*
X199250000Y-123400000I950000J0D01*
G01*
%TO.C,Q3*%
X177000000Y-53350000D02*
X177000000Y-54650000D01*
X178800000Y-53350000D02*
X178800000Y-54650000D01*
D10*
X177465000Y-55250000D02*
G75*
G02*
X177315000Y-55250000I-75000J0D01*
G01*
X177315000Y-55250000D02*
G75*
G02*
X177465000Y-55250000I75000J0D01*
G01*
D12*
%TO.C,TP7*%
X180450000Y-94500000D02*
G75*
G02*
X178550000Y-94500000I-950000J0D01*
G01*
X178550000Y-94500000D02*
G75*
G02*
X180450000Y-94500000I950000J0D01*
G01*
%TO.C,C21*%
X213644731Y-83763748D02*
X213644731Y-85186252D01*
X216364731Y-83763748D02*
X216364731Y-85186252D01*
%TO.C,J6*%
X221285000Y-88015736D02*
X221585000Y-88440000D01*
X221585000Y-88440000D02*
X221885000Y-88015736D01*
X221885000Y-88015736D02*
X221285000Y-88015736D01*
X225195000Y-89400000D02*
X225195000Y-89700000D01*
X225195000Y-89700000D02*
X225895000Y-89700000D01*
X225195000Y-91900000D02*
X225195000Y-92200000D01*
X225195000Y-92200000D02*
X225895000Y-92200000D01*
X225195000Y-94400000D02*
X225195000Y-94700000D01*
X225195000Y-94700000D02*
X225895000Y-94700000D01*
X225195000Y-96900000D02*
X225195000Y-97200000D01*
X225195000Y-97200000D02*
X225895000Y-97200000D01*
X225895000Y-87720000D02*
X225895000Y-98880000D01*
X225895000Y-89400000D02*
X225195000Y-89400000D01*
X225895000Y-89700000D02*
X225895000Y-89400000D01*
X225895000Y-91900000D02*
X225195000Y-91900000D01*
X225895000Y-92200000D02*
X225895000Y-91900000D01*
X225895000Y-94400000D02*
X225195000Y-94400000D01*
X225895000Y-94700000D02*
X225895000Y-94400000D01*
X225895000Y-96900000D02*
X225195000Y-96900000D01*
X225895000Y-97200000D02*
X225895000Y-96900000D01*
X225895000Y-98880000D02*
X234575000Y-98880000D01*
X234575000Y-87720000D02*
X225895000Y-87720000D01*
X234575000Y-98880000D02*
X234575000Y-87720000D01*
%TO.C,D5*%
X171940000Y-49264000D02*
X171940000Y-49420000D01*
X171940000Y-51580000D02*
X171940000Y-51736000D01*
X171940000Y-49264484D02*
G75*
G02*
X175171397Y-49419939I1560000J-1235516D01*
G01*
X172459039Y-49420000D02*
G75*
G02*
X174540910Y-49419951I1040961J-1080000D01*
G01*
X174540910Y-51580049D02*
G75*
G02*
X172459039Y-51580000I-1040910J1080049D01*
G01*
X175171397Y-51580061D02*
G75*
G02*
X171940000Y-51735516I-1671397J1080061D01*
G01*
%TO.C,C1*%
X192994731Y-101263748D02*
X192994731Y-102686252D01*
X194814731Y-101263748D02*
X194814731Y-102686252D01*
%TO.C,C13*%
X192994731Y-120663748D02*
X192994731Y-122086252D01*
X194814731Y-120663748D02*
X194814731Y-122086252D01*
%TO.C,TP2*%
X199254731Y-104000000D02*
G75*
G02*
X197354731Y-104000000I-950000J0D01*
G01*
X197354731Y-104000000D02*
G75*
G02*
X199254731Y-104000000I950000J0D01*
G01*
%TO.C,U2*%
X196329731Y-81890000D02*
X199329731Y-81890000D01*
X196329731Y-85110000D02*
X199329731Y-85110000D01*
X195809731Y-82200000D02*
X195329731Y-82200000D01*
X195809731Y-81720000D01*
X195809731Y-82200000D01*
G36*
X195809731Y-82200000D02*
G01*
X195329731Y-82200000D01*
X195809731Y-81720000D01*
X195809731Y-82200000D01*
G37*
%TO.C,C39*%
X187994731Y-67263748D02*
X187994731Y-68686252D01*
X189814731Y-67263748D02*
X189814731Y-68686252D01*
%TO.C,R24*%
X192077500Y-54537258D02*
X192077500Y-54062742D01*
X193122500Y-54537258D02*
X193122500Y-54062742D01*
%TO.C,R22*%
X180477500Y-54537258D02*
X180477500Y-54062742D01*
X181522500Y-54537258D02*
X181522500Y-54062742D01*
%TO.C,C15*%
X187994731Y-120663748D02*
X187994731Y-122086252D01*
X189814731Y-120663748D02*
X189814731Y-122086252D01*
%TO.C,C7*%
X210140000Y-101263748D02*
X210140000Y-102686252D01*
X212860000Y-101263748D02*
X212860000Y-102686252D01*
%TO.C,D8*%
X189340000Y-49264000D02*
X189340000Y-49420000D01*
X189340000Y-51580000D02*
X189340000Y-51736000D01*
X189340000Y-49264484D02*
G75*
G02*
X192571397Y-49419939I1560000J-1235516D01*
G01*
X189859039Y-49420000D02*
G75*
G02*
X191940910Y-49419951I1040961J-1080000D01*
G01*
X191940910Y-51580049D02*
G75*
G02*
X189859039Y-51580000I-1040910J1080049D01*
G01*
X192571397Y-51580061D02*
G75*
G02*
X189340000Y-51735516I-1671397J1080061D01*
G01*
%TO.C,Q5*%
X188600000Y-53350000D02*
X188600000Y-54650000D01*
X190400000Y-53350000D02*
X190400000Y-54650000D01*
D10*
X189065000Y-55250000D02*
G75*
G02*
X188915000Y-55250000I-75000J0D01*
G01*
X188915000Y-55250000D02*
G75*
G02*
X189065000Y-55250000I75000J0D01*
G01*
D12*
%TO.C,C24*%
X213640000Y-120663748D02*
X213640000Y-122086252D01*
X216360000Y-120663748D02*
X216360000Y-122086252D01*
%TO.C,TP4*%
X199254731Y-86500000D02*
G75*
G02*
X197354731Y-86500000I-950000J0D01*
G01*
X197354731Y-86500000D02*
G75*
G02*
X199254731Y-86500000I950000J0D01*
G01*
%TO.C,R21*%
X174677500Y-54537258D02*
X174677500Y-54062742D01*
X175722500Y-54537258D02*
X175722500Y-54062742D01*
%TO.C,U4*%
X196329731Y-65390000D02*
X199329731Y-65390000D01*
X196329731Y-68610000D02*
X199329731Y-68610000D01*
X195809731Y-65700000D02*
X195329731Y-65700000D01*
X195809731Y-65220000D01*
X195809731Y-65700000D01*
G36*
X195809731Y-65700000D02*
G01*
X195329731Y-65700000D01*
X195809731Y-65220000D01*
X195809731Y-65700000D01*
G37*
D11*
%TO.C,L3*%
X202575000Y-110500001D02*
X202575000Y-108700001D01*
X202575000Y-118300000D02*
X202575000Y-116500000D01*
X202775000Y-108500000D02*
X213225000Y-108500000D01*
X213225000Y-118500000D02*
X202775000Y-118500000D01*
X213425000Y-110500000D02*
X213425000Y-108700000D01*
X213425000Y-116500000D02*
X213425000Y-118300000D01*
X202575000Y-108700000D02*
G75*
G02*
X202775000Y-108500000I200001J-1D01*
G01*
X202775000Y-118500000D02*
G75*
G02*
X202575000Y-118300000I1J200001D01*
G01*
X213225000Y-108500000D02*
G75*
G02*
X213425000Y-108700000I0J-200000D01*
G01*
X213425000Y-118300000D02*
G75*
G02*
X213225000Y-118500000I-200000J0D01*
G01*
D12*
%TO.C,TP1*%
X215950000Y-98200000D02*
G75*
G02*
X214050000Y-98200000I-950000J0D01*
G01*
X214050000Y-98200000D02*
G75*
G02*
X215950000Y-98200000I950000J0D01*
G01*
%TO.C,U1*%
X196329731Y-99390000D02*
X199329731Y-99390000D01*
X196329731Y-102610000D02*
X199329731Y-102610000D01*
X195809731Y-99700000D02*
X195329731Y-99700000D01*
X195809731Y-99220000D01*
X195809731Y-99700000D01*
G36*
X195809731Y-99700000D02*
G01*
X195329731Y-99700000D01*
X195809731Y-99220000D01*
X195809731Y-99700000D01*
G37*
%TO.C,Q4*%
X182800000Y-53350000D02*
X182800000Y-54650000D01*
X184600000Y-53350000D02*
X184600000Y-54650000D01*
D10*
X183265000Y-55250000D02*
G75*
G02*
X183115000Y-55250000I-75000J0D01*
G01*
X183115000Y-55250000D02*
G75*
G02*
X183265000Y-55250000I75000J0D01*
G01*
D12*
%TO.C,J4*%
X221285000Y-57815736D02*
X221585000Y-58240000D01*
X221585000Y-58240000D02*
X221885000Y-57815736D01*
X221885000Y-57815736D02*
X221285000Y-57815736D01*
X225195000Y-59200000D02*
X225195000Y-59500000D01*
X225195000Y-59500000D02*
X225895000Y-59500000D01*
X225195000Y-61700000D02*
X225195000Y-62000000D01*
X225195000Y-62000000D02*
X225895000Y-62000000D01*
X225195000Y-64200000D02*
X225195000Y-64500000D01*
X225195000Y-64500000D02*
X225895000Y-64500000D01*
X225195000Y-66700000D02*
X225195000Y-67000000D01*
X225195000Y-67000000D02*
X225895000Y-67000000D01*
X225895000Y-57520000D02*
X225895000Y-68680000D01*
X225895000Y-59200000D02*
X225195000Y-59200000D01*
X225895000Y-59500000D02*
X225895000Y-59200000D01*
X225895000Y-61700000D02*
X225195000Y-61700000D01*
X225895000Y-62000000D02*
X225895000Y-61700000D01*
X225895000Y-64200000D02*
X225195000Y-64200000D01*
X225895000Y-64500000D02*
X225895000Y-64200000D01*
X225895000Y-66700000D02*
X225195000Y-66700000D01*
X225895000Y-67000000D02*
X225895000Y-66700000D01*
X225895000Y-68680000D02*
X234575000Y-68680000D01*
X234575000Y-57520000D02*
X225895000Y-57520000D01*
X234575000Y-68680000D02*
X234575000Y-57520000D01*
%TO.C,R23*%
X186277500Y-54537258D02*
X186277500Y-54062742D01*
X187322500Y-54537258D02*
X187322500Y-54062742D01*
%TO.C,C4*%
X185494731Y-101263748D02*
X185494731Y-102686252D01*
X187314731Y-101263748D02*
X187314731Y-102686252D01*
%TO.C,D9*%
X171140000Y-58800000D02*
X171140000Y-58150000D01*
X171140000Y-58800000D02*
X171140000Y-59450000D01*
X174260000Y-58800000D02*
X174260000Y-58150000D01*
X174260000Y-58800000D02*
X174260000Y-59450000D01*
X174540000Y-57877500D02*
X174210000Y-57637500D01*
X174540000Y-57397500D01*
X174540000Y-57877500D01*
G36*
X174540000Y-57877500D02*
G01*
X174210000Y-57637500D01*
X174540000Y-57397500D01*
X174540000Y-57877500D01*
G37*
%TO.C,C6*%
X206640000Y-101263748D02*
X206640000Y-102686252D01*
X209360000Y-101263748D02*
X209360000Y-102686252D01*
%TO.C,C19*%
X206644731Y-83763748D02*
X206644731Y-85186252D01*
X209364731Y-83763748D02*
X209364731Y-85186252D01*
D11*
%TO.C,U6*%
X177000000Y-69000000D02*
X177000000Y-64000000D01*
X177000000Y-85000000D02*
X177000000Y-80000000D01*
X177500000Y-79000000D02*
X177500000Y-70000000D01*
X182500000Y-78500000D02*
X182500000Y-70000000D01*
X183000000Y-69000000D02*
X183000000Y-64000000D01*
X183000000Y-85000000D02*
X183000000Y-80000000D01*
%TO.C,L1*%
X202594731Y-93000001D02*
X202594731Y-91100001D01*
X202594731Y-98900000D02*
X202594731Y-97000000D01*
X202794731Y-90900000D02*
X211094731Y-90900000D01*
X211094731Y-99100000D02*
X202794731Y-99100000D01*
X211294731Y-93000000D02*
X211294731Y-91100000D01*
X211294731Y-97000000D02*
X211294731Y-98900000D01*
X202594731Y-91100000D02*
G75*
G02*
X202794731Y-90900000I200001J-1D01*
G01*
X202794731Y-99100000D02*
G75*
G02*
X202594731Y-98900000I1J200001D01*
G01*
X211094731Y-90900000D02*
G75*
G02*
X211294731Y-91100000I0J-200000D01*
G01*
X211294731Y-98900000D02*
G75*
G02*
X211094731Y-99100000I-200000J0D01*
G01*
D12*
%TO.C,D6*%
X177740000Y-49264000D02*
X177740000Y-49420000D01*
X177740000Y-51580000D02*
X177740000Y-51736000D01*
X177740000Y-49264484D02*
G75*
G02*
X180971397Y-49419939I1560000J-1235516D01*
G01*
X178259039Y-49420000D02*
G75*
G02*
X180340910Y-49419951I1040961J-1080000D01*
G01*
X180340910Y-51580049D02*
G75*
G02*
X178259039Y-51580000I-1040910J1080049D01*
G01*
X180971397Y-51580061D02*
G75*
G02*
X177740000Y-51735516I-1671397J1080061D01*
G01*
%TO.C,D1*%
X201240000Y-106400000D02*
X201240000Y-104840000D01*
X201240000Y-106400000D02*
X201480000Y-106400000D01*
X205760000Y-106110000D02*
X205760000Y-104840000D01*
X205500000Y-106710000D02*
X205500000Y-106430000D01*
X205780000Y-106430000D01*
X205500000Y-106710000D01*
G36*
X205500000Y-106710000D02*
G01*
X205500000Y-106430000D01*
X205780000Y-106430000D01*
X205500000Y-106710000D01*
G37*
%TO.C,U3*%
X196329731Y-118790000D02*
X199329731Y-118790000D01*
X196329731Y-122010000D02*
X199329731Y-122010000D01*
X195809731Y-119100000D02*
X195329731Y-119100000D01*
X195809731Y-118620000D01*
X195809731Y-119100000D01*
G36*
X195809731Y-119100000D02*
G01*
X195329731Y-119100000D01*
X195809731Y-118620000D01*
X195809731Y-119100000D01*
G37*
%TO.C,J9*%
X195850000Y-48490000D02*
X195850000Y-54510000D01*
X195850000Y-54510000D02*
X201150000Y-54510000D01*
X196430000Y-53910000D02*
X196430000Y-54510000D01*
X197230000Y-49490000D02*
X197230000Y-48490000D01*
X197480000Y-48490000D02*
X197480000Y-49490000D01*
X197480000Y-50020000D02*
X197230000Y-49490000D01*
X198030000Y-53910000D02*
X196430000Y-53910000D01*
X198030000Y-54510000D02*
X198030000Y-53910000D01*
X198970000Y-53910000D02*
X198970000Y-54510000D01*
X199520000Y-48490000D02*
X199520000Y-49490000D01*
X199520000Y-50020000D02*
X197480000Y-50020000D01*
X199770000Y-48490000D02*
X199770000Y-49490000D01*
X199770000Y-49490000D02*
X197230000Y-49490000D01*
X199770000Y-49490000D02*
X199520000Y-50020000D01*
X200570000Y-53910000D02*
X198970000Y-53910000D01*
X200570000Y-54510000D02*
X200570000Y-53910000D01*
X201150000Y-48490000D02*
X195850000Y-48490000D01*
X201150000Y-54510000D02*
X201150000Y-48490000D01*
X201440000Y-53480000D02*
X201440000Y-49480000D01*
%TO.C,C5*%
X196989151Y-97890000D02*
X197270311Y-97890000D01*
X196989151Y-98910000D02*
X197270311Y-98910000D01*
D11*
%TO.C,L2*%
X202554731Y-76000000D02*
X202554731Y-74600000D01*
X202554731Y-81400000D02*
X202554731Y-80000000D01*
X202754731Y-74400000D02*
X210054731Y-74400000D01*
X210054731Y-81600000D02*
X202754731Y-81600000D01*
X210254731Y-76000000D02*
X210254731Y-74600000D01*
X210254731Y-81400000D02*
X210254731Y-80000000D01*
X202554731Y-74600000D02*
G75*
G02*
X202754731Y-74400000I200001J-1D01*
G01*
X202754731Y-81600000D02*
G75*
G02*
X202554731Y-81400000I1J200001D01*
G01*
X210054731Y-74400000D02*
G75*
G02*
X210254731Y-74600000I0J-200000D01*
G01*
X210254731Y-81400000D02*
G75*
G02*
X210054731Y-81600000I-200000J0D01*
G01*
D12*
%TO.C,C46*%
X210094731Y-67313748D02*
X210094731Y-68736252D01*
X212814731Y-67313748D02*
X212814731Y-68736252D01*
%TO.C,C44*%
X196989151Y-63890000D02*
X197270311Y-63890000D01*
X196989151Y-64910000D02*
X197270311Y-64910000D01*
%TO.C,C18*%
X196989151Y-117290000D02*
X197270311Y-117290000D01*
X196989151Y-118310000D02*
X197270311Y-118310000D01*
D11*
%TO.C,U5*%
X176500000Y-103000000D02*
X176500000Y-98000000D01*
X176500000Y-119000000D02*
X176500000Y-114000000D01*
X177000000Y-113000000D02*
X177000000Y-104000000D01*
X182000000Y-112500000D02*
X182000000Y-104000000D01*
X182500000Y-103000000D02*
X182500000Y-98000000D01*
X182500000Y-119000000D02*
X182500000Y-114000000D01*
D12*
%TO.C,Q2*%
X171200000Y-53350000D02*
X171200000Y-54650000D01*
X173000000Y-53350000D02*
X173000000Y-54650000D01*
D10*
X171665000Y-55250000D02*
G75*
G02*
X171515000Y-55250000I-75000J0D01*
G01*
X171515000Y-55250000D02*
G75*
G02*
X171665000Y-55250000I75000J0D01*
G01*
D12*
%TO.C,C26*%
X220640000Y-120663748D02*
X220640000Y-122086252D01*
X223360000Y-120663748D02*
X223360000Y-122086252D01*
%TO.C,C12*%
X185494731Y-83763748D02*
X185494731Y-85186252D01*
X187314731Y-83763748D02*
X187314731Y-85186252D01*
%TO.C,J8*%
X166290000Y-76540000D02*
X166290000Y-79250000D01*
X166290000Y-81960000D02*
X166290000Y-79250000D01*
X168850000Y-75870000D02*
X168850000Y-76540000D01*
X169150000Y-76170000D02*
X169150000Y-76540000D01*
X169150000Y-76540000D02*
X166290000Y-76540000D01*
X169150000Y-81960000D02*
X166290000Y-81960000D01*
X169150000Y-82330000D02*
X169150000Y-81960000D01*
X171000000Y-75870000D02*
X168850000Y-75870000D01*
X175350000Y-76170000D02*
X169150000Y-76170000D01*
X175350000Y-79250000D02*
X175350000Y-76170000D01*
X175350000Y-79250000D02*
X175350000Y-82330000D01*
X175350000Y-82330000D02*
X169150000Y-82330000D01*
%TO.C,C16*%
X185494731Y-120663748D02*
X185494731Y-122086252D01*
X187314731Y-120663748D02*
X187314731Y-122086252D01*
%TO.C,C47*%
X213594731Y-67313748D02*
X213594731Y-68736252D01*
X216314731Y-67313748D02*
X216314731Y-68736252D01*
%TO.C,TP9*%
X199254731Y-70000000D02*
G75*
G02*
X197354731Y-70000000I-950000J0D01*
G01*
X197354731Y-70000000D02*
G75*
G02*
X199254731Y-70000000I950000J0D01*
G01*
%TO.C,C20*%
X210144731Y-83763748D02*
X210144731Y-85186252D01*
X212864731Y-83763748D02*
X212864731Y-85186252D01*
%TO.C,C45*%
X206594731Y-67313748D02*
X206594731Y-68736252D01*
X209314731Y-67313748D02*
X209314731Y-68736252D01*
%TO.C,C10*%
X190494731Y-83763748D02*
X190494731Y-85186252D01*
X192314731Y-83763748D02*
X192314731Y-85186252D01*
%TO.C,D3*%
X201244731Y-88900000D02*
X201244731Y-87340000D01*
X201244731Y-88900000D02*
X201484731Y-88900000D01*
X205764731Y-88610000D02*
X205764731Y-87340000D01*
X205504731Y-89210000D02*
X205504731Y-88930000D01*
X205784731Y-88930000D01*
X205504731Y-89210000D01*
G36*
X205504731Y-89210000D02*
G01*
X205504731Y-88930000D01*
X205784731Y-88930000D01*
X205504731Y-89210000D01*
G37*
%TO.C,C2*%
X190494731Y-101263748D02*
X190494731Y-102686252D01*
X192314731Y-101263748D02*
X192314731Y-102686252D01*
%TO.C,C23*%
X210140000Y-120663748D02*
X210140000Y-122086252D01*
X212860000Y-120663748D02*
X212860000Y-122086252D01*
%TO.C,C8*%
X213640000Y-101263748D02*
X213640000Y-102686252D01*
X216360000Y-101263748D02*
X216360000Y-102686252D01*
%TO.C,TP8*%
X213950000Y-63700000D02*
G75*
G02*
X212050000Y-63700000I-950000J0D01*
G01*
X212050000Y-63700000D02*
G75*
G02*
X213950000Y-63700000I950000J0D01*
G01*
%TO.C,C40*%
X185494731Y-67263748D02*
X185494731Y-68686252D01*
X187314731Y-67263748D02*
X187314731Y-68686252D01*
%TO.C,C22*%
X206640000Y-120663748D02*
X206640000Y-122086252D01*
X209360000Y-120663748D02*
X209360000Y-122086252D01*
%TO.C,C25*%
X217140000Y-120663748D02*
X217140000Y-122086252D01*
X219860000Y-120663748D02*
X219860000Y-122086252D01*
%TO.C,J5*%
X221285000Y-72915736D02*
X221585000Y-73340000D01*
X221585000Y-73340000D02*
X221885000Y-72915736D01*
X221885000Y-72915736D02*
X221285000Y-72915736D01*
X225195000Y-74300000D02*
X225195000Y-74600000D01*
X225195000Y-74600000D02*
X225895000Y-74600000D01*
X225195000Y-76800000D02*
X225195000Y-77100000D01*
X225195000Y-77100000D02*
X225895000Y-77100000D01*
X225195000Y-79300000D02*
X225195000Y-79600000D01*
X225195000Y-79600000D02*
X225895000Y-79600000D01*
X225195000Y-81800000D02*
X225195000Y-82100000D01*
X225195000Y-82100000D02*
X225895000Y-82100000D01*
X225895000Y-72620000D02*
X225895000Y-83780000D01*
X225895000Y-74300000D02*
X225195000Y-74300000D01*
X225895000Y-74600000D02*
X225895000Y-74300000D01*
X225895000Y-76800000D02*
X225195000Y-76800000D01*
X225895000Y-77100000D02*
X225895000Y-76800000D01*
X225895000Y-79300000D02*
X225195000Y-79300000D01*
X225895000Y-79600000D02*
X225895000Y-79300000D01*
X225895000Y-81800000D02*
X225195000Y-81800000D01*
X225895000Y-82100000D02*
X225895000Y-81800000D01*
X225895000Y-83780000D02*
X234575000Y-83780000D01*
X234575000Y-72620000D02*
X225895000Y-72620000D01*
X234575000Y-83780000D02*
X234575000Y-72620000D01*
%TO.C,C37*%
X192994731Y-67263748D02*
X192994731Y-68686252D01*
X194814731Y-67263748D02*
X194814731Y-68686252D01*
%TO.C,TP5*%
X217250000Y-116200000D02*
G75*
G02*
X215350000Y-116200000I-950000J0D01*
G01*
X215350000Y-116200000D02*
G75*
G02*
X217250000Y-116200000I950000J0D01*
G01*
%TO.C,J1*%
X165790000Y-101540000D02*
X165790000Y-104250000D01*
X165790000Y-106960000D02*
X165790000Y-104250000D01*
X168350000Y-100870000D02*
X168350000Y-101540000D01*
X168650000Y-101170000D02*
X168650000Y-101540000D01*
X168650000Y-101540000D02*
X165790000Y-101540000D01*
X168650000Y-106960000D02*
X165790000Y-106960000D01*
X168650000Y-107330000D02*
X168650000Y-106960000D01*
X170500000Y-100870000D02*
X168350000Y-100870000D01*
X174850000Y-101170000D02*
X168650000Y-101170000D01*
X174850000Y-104250000D02*
X174850000Y-101170000D01*
X174850000Y-104250000D02*
X174850000Y-107330000D01*
X174850000Y-107330000D02*
X168650000Y-107330000D01*
%TO.C,C14*%
X190494731Y-120663748D02*
X190494731Y-122086252D01*
X192314731Y-120663748D02*
X192314731Y-122086252D01*
%TO.C,D4*%
X201234731Y-72395000D02*
X201234731Y-70835000D01*
X201234731Y-72395000D02*
X201474731Y-72395000D01*
X205754731Y-72105000D02*
X205754731Y-70835000D01*
X205494731Y-72705000D02*
X205494731Y-72425000D01*
X205774731Y-72425000D01*
X205494731Y-72705000D01*
G36*
X205494731Y-72705000D02*
G01*
X205494731Y-72425000D01*
X205774731Y-72425000D01*
X205494731Y-72705000D01*
G37*
%TD*%
M02*
