M48
; DRILL file {KiCad 9.0.0-unknown-202503072020~4df101b94e~ubuntu22.04.1} date 2025-03-08T19:04:27+0100
; FORMAT={-:-/ absolute / metric / decimal}
; #@! TF.CreationDate,2025-03-08T19:04:27+01:00
; #@! TF.GenerationSoftware,Kicad,Pcbnew,9.0.0-unknown-202503072020~4df101b94e~ubuntu22.04.1
; #@! TF.FileFunction,MixedPlating,1,4
FMAT,2
METRIC
; #@! TA.AperFunction,Plated,PTH,ViaDrill
T1C0.300
; #@! TA.AperFunction,Plated,PTH,ComponentDrill
T2C0.900
; #@! TA.AperFunction,Plated,PTH,ComponentDrill
T3C1.190
; #@! TA.AperFunction,Plated,PTH,ComponentDrill
T4C1.200
; #@! TA.AperFunction,Plated,PTH,ComponentDrill
T5C1.300
; #@! TA.AperFunction,Plated,PTH,ComponentDrill
T6C2.000
; #@! TA.AperFunction,NonPlated,NPTH,ComponentDrill
T7C1.300
; #@! TA.AperFunction,NonPlated,NPTH,ComponentDrill
T8C1.700
; #@! TA.AperFunction,NonPlated,NPTH,ComponentDrill
T9C3.200
%
G90
G05
T1
X171.6Y-56.7
X175.9Y-56.1
X180.9Y-71.3
X180.9Y-72.0
X180.9Y-72.7
X180.9Y-73.4
X180.9Y-74.1
X180.9Y-74.8
X180.9Y-75.5
X180.9Y-76.2
X180.9Y-76.9
X180.9Y-77.6
X180.9Y-78.3
X180.9Y-86.4
X180.9Y-87.1
X180.9Y-87.8
X180.9Y-88.5
X180.9Y-89.2
X180.9Y-89.9
X180.9Y-90.6
X180.9Y-91.3
X180.9Y-92.0
X180.9Y-92.7
X180.9Y-93.4
X180.9Y-94.1
X180.9Y-94.8
X180.9Y-95.5
X180.9Y-105.1
X180.9Y-105.8
X180.9Y-106.5
X180.9Y-107.2
X180.9Y-107.9
X180.9Y-108.6
X180.9Y-109.3
X180.9Y-110.0
X180.9Y-110.7
X180.9Y-111.4
X180.9Y-112.1
X181.8Y-99.1
X181.8Y-100.9
X181.8Y-102.7
X182.1Y-98.2
X182.1Y-100.0
X182.1Y-101.8
X182.1Y-103.6
X182.5Y-97.3
X182.5Y-99.1
X182.5Y-100.9
X182.5Y-102.7
X182.8Y-98.2
X182.8Y-100.0
X182.8Y-101.8
X182.8Y-103.6
X183.2Y-97.3
X183.2Y-99.1
X183.2Y-100.9
X183.2Y-102.7
X183.35Y-57.862
X183.5Y-98.2
X183.5Y-100.0
X183.5Y-101.8
X183.5Y-103.6
X183.9Y-97.3
X183.9Y-99.1
X183.9Y-100.9
X183.9Y-102.7
X184.2Y-98.2
X184.2Y-100.0
X184.2Y-101.8
X185.1Y-68.7
X185.1Y-69.4
X185.1Y-70.1
X185.1Y-70.8
X185.1Y-71.5
X185.1Y-72.2
X185.1Y-72.9
X185.1Y-77.4
X185.1Y-78.1
X185.1Y-78.8
X185.1Y-79.5
X185.1Y-80.2
X185.1Y-80.9
X185.1Y-81.6
X185.1Y-84.8
X185.1Y-85.5
X185.1Y-86.2
X185.1Y-86.9
X185.1Y-87.6
X185.1Y-88.3
X185.1Y-89.0
X185.1Y-92.5
X185.1Y-93.2
X185.1Y-93.9
X185.1Y-94.6
X185.1Y-95.3
X185.1Y-96.0
X185.1Y-96.7
X185.1Y-97.4
X185.1Y-98.1
X185.1Y-98.8
X185.1Y-102.3
X185.1Y-103.0
X185.1Y-103.7
X185.1Y-104.4
X185.1Y-105.1
X185.1Y-105.8
X185.1Y-106.5
X185.1Y-110.0
X185.1Y-110.7
X185.1Y-111.4
X185.1Y-112.1
X185.1Y-112.8
X185.1Y-113.5
X185.1Y-114.2
X185.1Y-114.9
X185.1Y-115.6
X185.1Y-116.3
X185.1Y-117.0
X185.1Y-117.7
X185.1Y-118.4
X185.25Y-57.862
X185.8Y-70.5
X185.8Y-87.0
X185.8Y-104.5
X185.8Y-123.9
X186.4Y-70.5
X186.4Y-87.0
X186.4Y-104.5
X186.4Y-123.9
X187.0Y-70.5
X187.0Y-87.0
X187.0Y-104.5
X187.0Y-123.9
X188.3Y-70.5
X188.3Y-87.0
X188.3Y-104.5
X188.3Y-123.9
X188.9Y-70.5
X188.9Y-87.0
X188.9Y-104.5
X188.9Y-123.9
X189.5Y-70.5
X189.5Y-87.0
X189.5Y-104.5
X189.5Y-123.9
X190.8Y-70.5
X190.8Y-87.0
X190.8Y-104.5
X190.8Y-123.9
X191.4Y-70.5
X191.4Y-87.0
X191.4Y-104.5
X191.4Y-123.9
X192.0Y-70.5
X192.0Y-87.0
X192.0Y-104.5
X192.0Y-123.9
X192.4Y-68.6
X192.4Y-69.2
X192.4Y-69.8
X192.5Y-71.7
X192.5Y-72.4
X192.5Y-75.9
X192.5Y-76.6
X192.5Y-77.3
X192.5Y-78.0
X192.5Y-78.7
X192.5Y-79.4
X192.5Y-80.1
X192.5Y-80.8
X192.7Y-85.4
X192.7Y-86.0
X192.7Y-86.6
X192.7Y-102.9
X192.7Y-103.5
X192.7Y-104.1
X192.9Y-88.2
X192.9Y-88.9
X192.9Y-92.4
X192.9Y-93.1
X192.9Y-93.8
X192.9Y-94.5
X192.9Y-95.2
X192.9Y-95.9
X192.9Y-96.6
X192.9Y-97.3
X192.9Y-98.0
X192.9Y-98.7
X193.3Y-105.7
X193.3Y-106.4
X193.3Y-109.9
X193.3Y-110.6
X193.3Y-111.3
X193.3Y-112.0
X193.3Y-112.7
X193.3Y-113.4
X193.3Y-114.1
X193.3Y-114.8
X193.3Y-115.5
X193.3Y-116.2
X193.3Y-116.9
X193.3Y-117.6
X193.3Y-123.9
X193.9Y-123.9
X194.5Y-53.8
X194.5Y-54.5
X194.5Y-55.2
X194.5Y-55.9
X194.5Y-59.4
X194.5Y-60.1
X194.5Y-60.8
X194.5Y-61.5
X194.5Y-62.2
X194.5Y-62.9
X194.5Y-63.6
X194.5Y-71.7
X194.5Y-72.4
X194.5Y-75.9
X194.5Y-76.6
X194.5Y-77.3
X194.5Y-78.0
X194.5Y-78.7
X194.5Y-79.4
X194.5Y-80.1
X194.5Y-88.2
X194.5Y-88.9
X194.5Y-92.4
X194.5Y-93.1
X194.5Y-93.8
X194.5Y-94.5
X194.5Y-95.2
X194.5Y-95.9
X194.5Y-96.6
X194.5Y-97.3
X194.5Y-105.7
X194.5Y-106.4
X194.5Y-109.9
X194.5Y-110.6
X194.5Y-111.3
X194.5Y-112.0
X194.5Y-112.7
X194.5Y-113.4
X194.5Y-114.1
X194.5Y-114.8
X194.5Y-115.5
X194.5Y-116.2
X194.5Y-116.9
X194.5Y-123.9
X194.7Y-69.95
X194.7Y-86.45
X194.7Y-103.95
X194.805Y-84.9
X194.805Y-102.4
X194.805Y-121.8
X194.85Y-68.4
X195.085Y-118.514
X195.1Y-65.1
X195.1Y-81.6
X195.111Y-99.139
X195.111Y-101.44
X195.111Y-120.84
X195.113Y-87.513
X195.115Y-71.012
X195.126Y-105.051
X195.126Y-83.926
X195.7Y-53.8
X195.7Y-54.5
X195.7Y-55.2
X195.7Y-55.9
X195.7Y-59.4
X195.7Y-60.1
X195.7Y-60.8
X195.7Y-61.5
X195.7Y-62.2
X195.7Y-62.9
X195.7Y-71.7
X195.7Y-72.4
X195.7Y-75.9
X195.7Y-76.6
X195.7Y-77.3
X195.7Y-78.0
X195.7Y-78.7
X195.7Y-79.4
X195.7Y-88.2
X195.7Y-88.9
X195.7Y-92.4
X195.7Y-93.1
X195.7Y-93.8
X195.7Y-94.5
X195.7Y-95.2
X195.7Y-95.9
X195.7Y-96.6
X195.7Y-97.3
X195.7Y-105.7
X195.7Y-106.4
X195.7Y-109.9
X195.7Y-110.6
X195.7Y-111.3
X195.7Y-112.0
X195.7Y-112.7
X195.7Y-113.4
X195.7Y-114.1
X195.7Y-114.8
X195.7Y-115.5
X195.7Y-116.2
X195.7Y-116.9
X196.305Y-121.8
X196.4Y-68.6
X196.4Y-85.1
X196.4Y-102.6
X197.295Y-66.2
X197.295Y-66.8
X197.295Y-100.2
X197.295Y-100.8
X197.295Y-119.6
X197.295Y-120.2
X197.3Y-67.4
X197.3Y-68.0
X197.3Y-82.7
X197.3Y-83.3
X197.3Y-101.4
X197.3Y-102.0
X197.3Y-120.8
X197.3Y-121.4
X197.305Y-83.9
X197.305Y-84.5
X197.795Y-65.9
X197.795Y-66.5
X197.795Y-99.9
X197.795Y-100.5
X197.795Y-119.3
X197.795Y-119.9
X197.8Y-67.1
X197.8Y-67.7
X197.8Y-82.4
X197.8Y-83.0
X197.8Y-101.1
X197.8Y-101.7
X197.8Y-120.5
X197.8Y-121.1
X197.805Y-83.6
X197.805Y-84.2
X198.295Y-66.2
X198.295Y-66.8
X198.295Y-100.2
X198.295Y-100.8
X198.295Y-119.6
X198.295Y-120.2
X198.3Y-67.4
X198.3Y-68.0
X198.3Y-82.7
X198.3Y-83.3
X198.3Y-101.4
X198.3Y-102.0
X198.3Y-120.8
X198.3Y-121.4
X198.305Y-83.9
X198.305Y-84.5
X199.305Y-65.3
X199.305Y-81.8
X199.305Y-99.3
X199.305Y-118.7
X199.405Y-69.0
X199.405Y-85.5
X199.405Y-103.0
X199.405Y-122.4
X200.305Y-67.65
X200.305Y-84.15
X200.305Y-101.65
X200.305Y-121.05
X207.0Y-70.5
X207.1Y-87.0
X207.1Y-104.5
X207.1Y-123.9
X207.2Y-51.3
X207.2Y-52.0
X207.2Y-52.7
X207.2Y-53.4
X207.2Y-54.1
X207.2Y-54.8
X207.2Y-55.5
X207.2Y-56.2
X207.555Y-64.45
X207.6Y-70.5
X207.7Y-87.0
X207.7Y-104.5
X207.7Y-123.9
X208.2Y-70.5
X208.3Y-80.9
X208.3Y-87.0
X208.3Y-98.4
X208.3Y-104.5
X208.3Y-123.9
X208.4Y-51.3
X208.4Y-52.0
X208.4Y-52.7
X208.4Y-53.4
X208.4Y-54.1
X208.4Y-54.8
X208.4Y-55.5
X208.4Y-56.2
X208.8Y-70.5
X208.9Y-87.0
X208.9Y-104.5
X208.9Y-117.8
X208.9Y-123.9
X210.5Y-66.5
X210.5Y-70.5
X210.6Y-87.0
X210.6Y-104.5
X210.6Y-123.9
X211.1Y-66.5
X211.1Y-70.5
X211.2Y-87.0
X211.2Y-104.5
X211.2Y-123.9
X211.7Y-66.5
X211.7Y-70.5
X211.8Y-87.0
X211.8Y-104.5
X211.8Y-123.9
X212.3Y-66.5
X212.3Y-70.5
X212.4Y-87.0
X212.4Y-104.5
X212.4Y-123.9
X212.9Y-66.5
X213.5Y-66.5
X214.0Y-70.5
X214.1Y-66.5
X214.1Y-87.0
X214.1Y-104.5
X214.1Y-123.9
X214.6Y-70.5
X214.7Y-66.5
X214.7Y-87.0
X214.7Y-104.5
X214.7Y-123.9
X214.8Y-59.4
X214.8Y-60.0
X214.8Y-60.6
X214.8Y-61.2
X214.8Y-61.8
X214.8Y-62.4
X214.8Y-63.0
X214.8Y-63.6
X214.8Y-64.2
X214.8Y-64.8
X215.2Y-70.5
X215.3Y-66.5
X215.3Y-87.0
X215.3Y-104.5
X215.3Y-123.9
X215.8Y-70.5
X215.9Y-87.0
X215.9Y-104.5
X215.9Y-123.9
X216.6Y-59.4
X216.6Y-60.0
X216.6Y-60.6
X216.6Y-61.2
X216.6Y-61.8
X216.6Y-62.4
X216.6Y-63.0
X216.6Y-63.6
X216.6Y-64.2
X216.6Y-64.8
X217.0Y-65.7
X217.0Y-66.3
X217.0Y-66.9
X217.0Y-67.5
X217.0Y-68.1
X217.0Y-68.7
X217.0Y-69.3
X217.0Y-69.9
X217.0Y-70.5
X217.0Y-80.8
X217.0Y-81.4
X217.0Y-82.0
X217.0Y-84.4
X217.0Y-85.0
X217.0Y-85.6
X217.0Y-95.9
X217.0Y-96.5
X217.0Y-97.1
X217.0Y-97.7
X217.0Y-98.3
X217.0Y-98.9
X217.0Y-102.0
X217.0Y-102.6
X217.0Y-103.2
X217.3Y-82.8
X217.3Y-83.4
X217.6Y-123.9
X217.9Y-63.7
X217.9Y-64.3
X217.9Y-64.9
X217.9Y-78.8
X217.9Y-79.4
X217.9Y-80.0
X217.9Y-82.5
X217.9Y-83.1
X217.9Y-83.7
X217.9Y-93.9
X217.9Y-94.5
X217.9Y-95.1
X217.9Y-109.0
X217.9Y-109.6
X217.9Y-110.2
X218.2Y-123.9
X218.8Y-123.9
X218.885Y-76.3
X218.885Y-76.9
X218.885Y-77.5
X218.885Y-91.4
X218.885Y-92.0
X218.885Y-92.6
X218.9Y-61.2
X218.9Y-61.8
X218.9Y-62.4
X218.9Y-99.4
X218.9Y-100.0
X218.9Y-100.6
X218.9Y-101.2
X218.9Y-101.8
X218.9Y-106.5
X218.9Y-107.1
X218.9Y-107.7
X219.4Y-123.9
X219.8Y-65.7
X219.8Y-66.3
X219.8Y-66.9
X219.8Y-67.5
X219.8Y-68.1
X219.8Y-68.7
X219.8Y-69.3
X219.8Y-69.9
X219.8Y-70.5
X219.8Y-80.8
X219.8Y-81.4
X219.8Y-82.0
X219.8Y-82.6
X219.8Y-83.2
X219.8Y-83.8
X219.8Y-84.4
X219.8Y-85.0
X219.8Y-85.6
X219.8Y-95.9
X219.8Y-96.5
X219.8Y-97.1
X219.8Y-97.7
X219.8Y-98.3
X219.8Y-98.9
X219.8Y-99.5
X219.8Y-100.1
X219.8Y-100.7
X221.1Y-119.9
X221.1Y-123.9
X221.7Y-119.9
X221.7Y-123.9
X222.3Y-119.9
X222.3Y-123.9
X222.9Y-119.9
X222.9Y-123.9
X223.5Y-119.9
X224.1Y-119.9
X224.6Y-123.9
X224.7Y-119.9
X225.2Y-123.9
X225.3Y-119.9
X225.8Y-123.9
X225.9Y-65.7
X225.9Y-66.3
X225.9Y-66.9
X225.9Y-67.5
X225.9Y-68.1
X225.9Y-68.7
X225.9Y-69.3
X225.9Y-69.9
X225.9Y-70.5
X225.9Y-80.8
X225.9Y-81.4
X225.9Y-82.0
X225.9Y-82.6
X225.9Y-83.2
X225.9Y-83.8
X225.9Y-84.4
X225.9Y-85.0
X225.9Y-85.6
X225.9Y-95.9
X225.9Y-96.5
X225.9Y-97.1
X225.9Y-97.7
X225.9Y-98.3
X225.9Y-98.9
X225.9Y-99.5
X225.9Y-100.1
X225.9Y-100.7
X225.9Y-111.0
X225.9Y-111.6
X225.9Y-112.2
X225.9Y-112.8
X225.9Y-113.4
X225.9Y-114.0
X225.9Y-114.6
X225.9Y-115.2
X225.9Y-115.8
X225.9Y-116.4
X225.9Y-117.0
X225.9Y-117.6
X225.9Y-118.2
X225.9Y-119.9
X226.4Y-123.9
X226.5Y-119.9
X226.8Y-61.2
X226.8Y-61.8
X226.8Y-62.4
X226.8Y-76.3
X226.8Y-76.9
X226.8Y-77.5
X226.8Y-91.4
X226.8Y-92.0
X226.8Y-92.6
X226.8Y-106.5
X226.8Y-107.1
X226.8Y-107.7
X226.9Y-58.5
X226.9Y-59.1
X226.9Y-59.7
X227.7Y-111.6
X227.7Y-112.2
X227.7Y-112.8
X227.7Y-113.4
X227.7Y-114.0
X227.7Y-114.6
X227.7Y-115.2
X227.7Y-115.8
X227.7Y-116.4
X227.7Y-117.0
X227.7Y-117.6
X227.7Y-118.2
X227.7Y-118.8
X227.8Y-63.7
X227.8Y-64.3
X227.8Y-64.9
X227.8Y-78.8
X227.8Y-79.4
X227.8Y-80.0
X227.8Y-93.9
X227.8Y-94.5
X227.8Y-95.1
X227.8Y-109.0
X227.8Y-109.6
X227.8Y-110.2
X228.7Y-58.5
X228.7Y-59.1
X228.7Y-59.7
X228.7Y-65.7
X228.7Y-66.3
X228.7Y-66.9
X228.7Y-67.5
X228.7Y-68.1
X228.7Y-68.7
X228.7Y-69.3
X228.7Y-69.9
X228.7Y-70.5
X228.7Y-80.8
X228.7Y-81.4
X228.7Y-82.0
X228.7Y-82.6
X228.7Y-83.2
X228.7Y-83.8
X228.7Y-84.4
X228.7Y-85.0
X228.7Y-85.6
X228.7Y-95.9
X228.7Y-96.5
X228.7Y-97.1
X228.7Y-97.7
X228.7Y-98.3
X228.7Y-98.9
X228.7Y-99.5
X228.7Y-100.1
X228.7Y-100.7
T2
X172.23Y-50.5
X174.77Y-50.5
X178.03Y-50.5
X180.57Y-50.5
X183.83Y-50.5
X186.37Y-50.5
X189.63Y-50.5
X192.17Y-50.5
T3
X197.23Y-51.48
X199.77Y-51.48
T4
X170.5Y-103.0
X170.5Y-105.5
X171.0Y-78.0
X171.0Y-80.5
X173.0Y-103.0
X173.0Y-105.5
X173.5Y-78.0
X173.5Y-80.5
X221.585Y-59.35
X221.585Y-61.85
X221.585Y-64.35
X221.585Y-66.85
X221.585Y-74.45
X221.585Y-76.95
X221.585Y-79.45
X221.585Y-81.95
X221.585Y-89.55
X221.585Y-92.05
X221.585Y-94.55
X221.585Y-97.05
X221.585Y-104.65
X221.585Y-107.15
X221.585Y-109.65
X221.585Y-112.15
X224.085Y-59.35
X224.085Y-61.85
X224.085Y-64.35
X224.085Y-66.85
X224.085Y-74.45
X224.085Y-76.95
X224.085Y-79.45
X224.085Y-81.95
X224.085Y-89.55
X224.085Y-92.05
X224.085Y-94.55
X224.085Y-97.05
X224.085Y-104.65
X224.085Y-107.15
X224.085Y-109.65
X224.085Y-112.15
T5
X179.5Y-98.25
X179.5Y-102.85
X179.5Y-114.15
X179.5Y-118.75
X180.0Y-64.25
X180.0Y-68.85
X180.0Y-80.15
X180.0Y-84.75
T7
X169.16Y-104.25
X169.66Y-79.25
T8
X231.265Y-59.35
X231.265Y-66.85
X231.265Y-74.45
X231.265Y-81.95
X231.265Y-89.55
X231.265Y-97.05
X231.265Y-104.65
X231.265Y-112.15
T9
X165.5Y-51.5
X165.5Y-127.0
X230.0Y-51.5
X230.0Y-127.0
T6
G00X166.5Y-87.5
M15
G01X172.5Y-87.5
M16
G05
G00X166.5Y-96.5
M15
G01X172.5Y-96.5
M16
G05
M30
