%TF.GenerationSoftware,KiCad,Pcbnew,9.0.1-unknown-202503302321~efea324ee4~ubuntu22.04.1*%
%TF.CreationDate,2025-03-31T19:49:47+02:00*%
%TF.ProjectId,PowkiBoard,506f776b-6942-46f6-9172-642e6b696361,rev?*%
%TF.SameCoordinates,Original*%
%TF.FileFunction,Legend,Bot*%
%TF.FilePolarity,Positive*%
%FSLAX46Y46*%
G04 Gerber Fmt 4.6, Leading zero omitted, Abs format (unit mm)*
G04 Created by KiCad (PCBNEW 9.0.1-unknown-202503302321~efea324ee4~ubuntu22.04.1) date 2025-03-31 19:49:47*
%MOMM*%
%LPD*%
G01*
G04 APERTURE LIST*
%ADD10C,0.150000*%
%ADD11C,0.120000*%
G04 APERTURE END LIST*
D10*
X59566666Y-92824819D02*
X59899999Y-92348628D01*
X60138094Y-92824819D02*
X60138094Y-91824819D01*
X60138094Y-91824819D02*
X59757142Y-91824819D01*
X59757142Y-91824819D02*
X59661904Y-91872438D01*
X59661904Y-91872438D02*
X59614285Y-91920057D01*
X59614285Y-91920057D02*
X59566666Y-92015295D01*
X59566666Y-92015295D02*
X59566666Y-92158152D01*
X59566666Y-92158152D02*
X59614285Y-92253390D01*
X59614285Y-92253390D02*
X59661904Y-92301009D01*
X59661904Y-92301009D02*
X59757142Y-92348628D01*
X59757142Y-92348628D02*
X60138094Y-92348628D01*
X59233332Y-91824819D02*
X58566666Y-91824819D01*
X58566666Y-91824819D02*
X58995237Y-92824819D01*
X55854819Y-56157142D02*
X55378628Y-55823809D01*
X55854819Y-55585714D02*
X54854819Y-55585714D01*
X54854819Y-55585714D02*
X54854819Y-55966666D01*
X54854819Y-55966666D02*
X54902438Y-56061904D01*
X54902438Y-56061904D02*
X54950057Y-56109523D01*
X54950057Y-56109523D02*
X55045295Y-56157142D01*
X55045295Y-56157142D02*
X55188152Y-56157142D01*
X55188152Y-56157142D02*
X55283390Y-56109523D01*
X55283390Y-56109523D02*
X55331009Y-56061904D01*
X55331009Y-56061904D02*
X55378628Y-55966666D01*
X55378628Y-55966666D02*
X55378628Y-55585714D01*
X55854819Y-57109523D02*
X55854819Y-56538095D01*
X55854819Y-56823809D02*
X54854819Y-56823809D01*
X54854819Y-56823809D02*
X54997676Y-56728571D01*
X54997676Y-56728571D02*
X55092914Y-56633333D01*
X55092914Y-56633333D02*
X55140533Y-56538095D01*
X55283390Y-57680952D02*
X55235771Y-57585714D01*
X55235771Y-57585714D02*
X55188152Y-57538095D01*
X55188152Y-57538095D02*
X55092914Y-57490476D01*
X55092914Y-57490476D02*
X55045295Y-57490476D01*
X55045295Y-57490476D02*
X54950057Y-57538095D01*
X54950057Y-57538095D02*
X54902438Y-57585714D01*
X54902438Y-57585714D02*
X54854819Y-57680952D01*
X54854819Y-57680952D02*
X54854819Y-57871428D01*
X54854819Y-57871428D02*
X54902438Y-57966666D01*
X54902438Y-57966666D02*
X54950057Y-58014285D01*
X54950057Y-58014285D02*
X55045295Y-58061904D01*
X55045295Y-58061904D02*
X55092914Y-58061904D01*
X55092914Y-58061904D02*
X55188152Y-58014285D01*
X55188152Y-58014285D02*
X55235771Y-57966666D01*
X55235771Y-57966666D02*
X55283390Y-57871428D01*
X55283390Y-57871428D02*
X55283390Y-57680952D01*
X55283390Y-57680952D02*
X55331009Y-57585714D01*
X55331009Y-57585714D02*
X55378628Y-57538095D01*
X55378628Y-57538095D02*
X55473866Y-57490476D01*
X55473866Y-57490476D02*
X55664342Y-57490476D01*
X55664342Y-57490476D02*
X55759580Y-57538095D01*
X55759580Y-57538095D02*
X55807200Y-57585714D01*
X55807200Y-57585714D02*
X55854819Y-57680952D01*
X55854819Y-57680952D02*
X55854819Y-57871428D01*
X55854819Y-57871428D02*
X55807200Y-57966666D01*
X55807200Y-57966666D02*
X55759580Y-58014285D01*
X55759580Y-58014285D02*
X55664342Y-58061904D01*
X55664342Y-58061904D02*
X55473866Y-58061904D01*
X55473866Y-58061904D02*
X55378628Y-58014285D01*
X55378628Y-58014285D02*
X55331009Y-57966666D01*
X55331009Y-57966666D02*
X55283390Y-57871428D01*
X54159580Y-119157142D02*
X54207200Y-119109523D01*
X54207200Y-119109523D02*
X54254819Y-118966666D01*
X54254819Y-118966666D02*
X54254819Y-118871428D01*
X54254819Y-118871428D02*
X54207200Y-118728571D01*
X54207200Y-118728571D02*
X54111961Y-118633333D01*
X54111961Y-118633333D02*
X54016723Y-118585714D01*
X54016723Y-118585714D02*
X53826247Y-118538095D01*
X53826247Y-118538095D02*
X53683390Y-118538095D01*
X53683390Y-118538095D02*
X53492914Y-118585714D01*
X53492914Y-118585714D02*
X53397676Y-118633333D01*
X53397676Y-118633333D02*
X53302438Y-118728571D01*
X53302438Y-118728571D02*
X53254819Y-118871428D01*
X53254819Y-118871428D02*
X53254819Y-118966666D01*
X53254819Y-118966666D02*
X53302438Y-119109523D01*
X53302438Y-119109523D02*
X53350057Y-119157142D01*
X53254819Y-119490476D02*
X53254819Y-120109523D01*
X53254819Y-120109523D02*
X53635771Y-119776190D01*
X53635771Y-119776190D02*
X53635771Y-119919047D01*
X53635771Y-119919047D02*
X53683390Y-120014285D01*
X53683390Y-120014285D02*
X53731009Y-120061904D01*
X53731009Y-120061904D02*
X53826247Y-120109523D01*
X53826247Y-120109523D02*
X54064342Y-120109523D01*
X54064342Y-120109523D02*
X54159580Y-120061904D01*
X54159580Y-120061904D02*
X54207200Y-120014285D01*
X54207200Y-120014285D02*
X54254819Y-119919047D01*
X54254819Y-119919047D02*
X54254819Y-119633333D01*
X54254819Y-119633333D02*
X54207200Y-119538095D01*
X54207200Y-119538095D02*
X54159580Y-119490476D01*
X53254819Y-120728571D02*
X53254819Y-120823809D01*
X53254819Y-120823809D02*
X53302438Y-120919047D01*
X53302438Y-120919047D02*
X53350057Y-120966666D01*
X53350057Y-120966666D02*
X53445295Y-121014285D01*
X53445295Y-121014285D02*
X53635771Y-121061904D01*
X53635771Y-121061904D02*
X53873866Y-121061904D01*
X53873866Y-121061904D02*
X54064342Y-121014285D01*
X54064342Y-121014285D02*
X54159580Y-120966666D01*
X54159580Y-120966666D02*
X54207200Y-120919047D01*
X54207200Y-120919047D02*
X54254819Y-120823809D01*
X54254819Y-120823809D02*
X54254819Y-120728571D01*
X54254819Y-120728571D02*
X54207200Y-120633333D01*
X54207200Y-120633333D02*
X54159580Y-120585714D01*
X54159580Y-120585714D02*
X54064342Y-120538095D01*
X54064342Y-120538095D02*
X53873866Y-120490476D01*
X53873866Y-120490476D02*
X53635771Y-120490476D01*
X53635771Y-120490476D02*
X53445295Y-120538095D01*
X53445295Y-120538095D02*
X53350057Y-120585714D01*
X53350057Y-120585714D02*
X53302438Y-120633333D01*
X53302438Y-120633333D02*
X53254819Y-120728571D01*
X59054819Y-96557142D02*
X58578628Y-96223809D01*
X59054819Y-95985714D02*
X58054819Y-95985714D01*
X58054819Y-95985714D02*
X58054819Y-96366666D01*
X58054819Y-96366666D02*
X58102438Y-96461904D01*
X58102438Y-96461904D02*
X58150057Y-96509523D01*
X58150057Y-96509523D02*
X58245295Y-96557142D01*
X58245295Y-96557142D02*
X58388152Y-96557142D01*
X58388152Y-96557142D02*
X58483390Y-96509523D01*
X58483390Y-96509523D02*
X58531009Y-96461904D01*
X58531009Y-96461904D02*
X58578628Y-96366666D01*
X58578628Y-96366666D02*
X58578628Y-95985714D01*
X59054819Y-97509523D02*
X59054819Y-96938095D01*
X59054819Y-97223809D02*
X58054819Y-97223809D01*
X58054819Y-97223809D02*
X58197676Y-97128571D01*
X58197676Y-97128571D02*
X58292914Y-97033333D01*
X58292914Y-97033333D02*
X58340533Y-96938095D01*
X58054819Y-98128571D02*
X58054819Y-98223809D01*
X58054819Y-98223809D02*
X58102438Y-98319047D01*
X58102438Y-98319047D02*
X58150057Y-98366666D01*
X58150057Y-98366666D02*
X58245295Y-98414285D01*
X58245295Y-98414285D02*
X58435771Y-98461904D01*
X58435771Y-98461904D02*
X58673866Y-98461904D01*
X58673866Y-98461904D02*
X58864342Y-98414285D01*
X58864342Y-98414285D02*
X58959580Y-98366666D01*
X58959580Y-98366666D02*
X59007200Y-98319047D01*
X59007200Y-98319047D02*
X59054819Y-98223809D01*
X59054819Y-98223809D02*
X59054819Y-98128571D01*
X59054819Y-98128571D02*
X59007200Y-98033333D01*
X59007200Y-98033333D02*
X58959580Y-97985714D01*
X58959580Y-97985714D02*
X58864342Y-97938095D01*
X58864342Y-97938095D02*
X58673866Y-97890476D01*
X58673866Y-97890476D02*
X58435771Y-97890476D01*
X58435771Y-97890476D02*
X58245295Y-97938095D01*
X58245295Y-97938095D02*
X58150057Y-97985714D01*
X58150057Y-97985714D02*
X58102438Y-98033333D01*
X58102438Y-98033333D02*
X58054819Y-98128571D01*
X54159580Y-56157142D02*
X54207200Y-56109523D01*
X54207200Y-56109523D02*
X54254819Y-55966666D01*
X54254819Y-55966666D02*
X54254819Y-55871428D01*
X54254819Y-55871428D02*
X54207200Y-55728571D01*
X54207200Y-55728571D02*
X54111961Y-55633333D01*
X54111961Y-55633333D02*
X54016723Y-55585714D01*
X54016723Y-55585714D02*
X53826247Y-55538095D01*
X53826247Y-55538095D02*
X53683390Y-55538095D01*
X53683390Y-55538095D02*
X53492914Y-55585714D01*
X53492914Y-55585714D02*
X53397676Y-55633333D01*
X53397676Y-55633333D02*
X53302438Y-55728571D01*
X53302438Y-55728571D02*
X53254819Y-55871428D01*
X53254819Y-55871428D02*
X53254819Y-55966666D01*
X53254819Y-55966666D02*
X53302438Y-56109523D01*
X53302438Y-56109523D02*
X53350057Y-56157142D01*
X53588152Y-57014285D02*
X54254819Y-57014285D01*
X53207200Y-56776190D02*
X53921485Y-56538095D01*
X53921485Y-56538095D02*
X53921485Y-57157142D01*
X53254819Y-57442857D02*
X53254819Y-58061904D01*
X53254819Y-58061904D02*
X53635771Y-57728571D01*
X53635771Y-57728571D02*
X53635771Y-57871428D01*
X53635771Y-57871428D02*
X53683390Y-57966666D01*
X53683390Y-57966666D02*
X53731009Y-58014285D01*
X53731009Y-58014285D02*
X53826247Y-58061904D01*
X53826247Y-58061904D02*
X54064342Y-58061904D01*
X54064342Y-58061904D02*
X54159580Y-58014285D01*
X54159580Y-58014285D02*
X54207200Y-57966666D01*
X54207200Y-57966666D02*
X54254819Y-57871428D01*
X54254819Y-57871428D02*
X54254819Y-57585714D01*
X54254819Y-57585714D02*
X54207200Y-57490476D01*
X54207200Y-57490476D02*
X54159580Y-57442857D01*
X62054819Y-118633333D02*
X61578628Y-118300000D01*
X62054819Y-118061905D02*
X61054819Y-118061905D01*
X61054819Y-118061905D02*
X61054819Y-118442857D01*
X61054819Y-118442857D02*
X61102438Y-118538095D01*
X61102438Y-118538095D02*
X61150057Y-118585714D01*
X61150057Y-118585714D02*
X61245295Y-118633333D01*
X61245295Y-118633333D02*
X61388152Y-118633333D01*
X61388152Y-118633333D02*
X61483390Y-118585714D01*
X61483390Y-118585714D02*
X61531009Y-118538095D01*
X61531009Y-118538095D02*
X61578628Y-118442857D01*
X61578628Y-118442857D02*
X61578628Y-118061905D01*
X61054819Y-119538095D02*
X61054819Y-119061905D01*
X61054819Y-119061905D02*
X61531009Y-119014286D01*
X61531009Y-119014286D02*
X61483390Y-119061905D01*
X61483390Y-119061905D02*
X61435771Y-119157143D01*
X61435771Y-119157143D02*
X61435771Y-119395238D01*
X61435771Y-119395238D02*
X61483390Y-119490476D01*
X61483390Y-119490476D02*
X61531009Y-119538095D01*
X61531009Y-119538095D02*
X61626247Y-119585714D01*
X61626247Y-119585714D02*
X61864342Y-119585714D01*
X61864342Y-119585714D02*
X61959580Y-119538095D01*
X61959580Y-119538095D02*
X62007200Y-119490476D01*
X62007200Y-119490476D02*
X62054819Y-119395238D01*
X62054819Y-119395238D02*
X62054819Y-119157143D01*
X62054819Y-119157143D02*
X62007200Y-119061905D01*
X62007200Y-119061905D02*
X61959580Y-119014286D01*
X58442857Y-126989580D02*
X58490476Y-127037200D01*
X58490476Y-127037200D02*
X58633333Y-127084819D01*
X58633333Y-127084819D02*
X58728571Y-127084819D01*
X58728571Y-127084819D02*
X58871428Y-127037200D01*
X58871428Y-127037200D02*
X58966666Y-126941961D01*
X58966666Y-126941961D02*
X59014285Y-126846723D01*
X59014285Y-126846723D02*
X59061904Y-126656247D01*
X59061904Y-126656247D02*
X59061904Y-126513390D01*
X59061904Y-126513390D02*
X59014285Y-126322914D01*
X59014285Y-126322914D02*
X58966666Y-126227676D01*
X58966666Y-126227676D02*
X58871428Y-126132438D01*
X58871428Y-126132438D02*
X58728571Y-126084819D01*
X58728571Y-126084819D02*
X58633333Y-126084819D01*
X58633333Y-126084819D02*
X58490476Y-126132438D01*
X58490476Y-126132438D02*
X58442857Y-126180057D01*
X58109523Y-126084819D02*
X57490476Y-126084819D01*
X57490476Y-126084819D02*
X57823809Y-126465771D01*
X57823809Y-126465771D02*
X57680952Y-126465771D01*
X57680952Y-126465771D02*
X57585714Y-126513390D01*
X57585714Y-126513390D02*
X57538095Y-126561009D01*
X57538095Y-126561009D02*
X57490476Y-126656247D01*
X57490476Y-126656247D02*
X57490476Y-126894342D01*
X57490476Y-126894342D02*
X57538095Y-126989580D01*
X57538095Y-126989580D02*
X57585714Y-127037200D01*
X57585714Y-127037200D02*
X57680952Y-127084819D01*
X57680952Y-127084819D02*
X57966666Y-127084819D01*
X57966666Y-127084819D02*
X58061904Y-127037200D01*
X58061904Y-127037200D02*
X58109523Y-126989580D01*
X56585714Y-126084819D02*
X57061904Y-126084819D01*
X57061904Y-126084819D02*
X57109523Y-126561009D01*
X57109523Y-126561009D02*
X57061904Y-126513390D01*
X57061904Y-126513390D02*
X56966666Y-126465771D01*
X56966666Y-126465771D02*
X56728571Y-126465771D01*
X56728571Y-126465771D02*
X56633333Y-126513390D01*
X56633333Y-126513390D02*
X56585714Y-126561009D01*
X56585714Y-126561009D02*
X56538095Y-126656247D01*
X56538095Y-126656247D02*
X56538095Y-126894342D01*
X56538095Y-126894342D02*
X56585714Y-126989580D01*
X56585714Y-126989580D02*
X56633333Y-127037200D01*
X56633333Y-127037200D02*
X56728571Y-127084819D01*
X56728571Y-127084819D02*
X56966666Y-127084819D01*
X56966666Y-127084819D02*
X57061904Y-127037200D01*
X57061904Y-127037200D02*
X57109523Y-126989580D01*
X39454819Y-44757142D02*
X38978628Y-44423809D01*
X39454819Y-44185714D02*
X38454819Y-44185714D01*
X38454819Y-44185714D02*
X38454819Y-44566666D01*
X38454819Y-44566666D02*
X38502438Y-44661904D01*
X38502438Y-44661904D02*
X38550057Y-44709523D01*
X38550057Y-44709523D02*
X38645295Y-44757142D01*
X38645295Y-44757142D02*
X38788152Y-44757142D01*
X38788152Y-44757142D02*
X38883390Y-44709523D01*
X38883390Y-44709523D02*
X38931009Y-44661904D01*
X38931009Y-44661904D02*
X38978628Y-44566666D01*
X38978628Y-44566666D02*
X38978628Y-44185714D01*
X38550057Y-45138095D02*
X38502438Y-45185714D01*
X38502438Y-45185714D02*
X38454819Y-45280952D01*
X38454819Y-45280952D02*
X38454819Y-45519047D01*
X38454819Y-45519047D02*
X38502438Y-45614285D01*
X38502438Y-45614285D02*
X38550057Y-45661904D01*
X38550057Y-45661904D02*
X38645295Y-45709523D01*
X38645295Y-45709523D02*
X38740533Y-45709523D01*
X38740533Y-45709523D02*
X38883390Y-45661904D01*
X38883390Y-45661904D02*
X39454819Y-45090476D01*
X39454819Y-45090476D02*
X39454819Y-45709523D01*
X38550057Y-46090476D02*
X38502438Y-46138095D01*
X38502438Y-46138095D02*
X38454819Y-46233333D01*
X38454819Y-46233333D02*
X38454819Y-46471428D01*
X38454819Y-46471428D02*
X38502438Y-46566666D01*
X38502438Y-46566666D02*
X38550057Y-46614285D01*
X38550057Y-46614285D02*
X38645295Y-46661904D01*
X38645295Y-46661904D02*
X38740533Y-46661904D01*
X38740533Y-46661904D02*
X38883390Y-46614285D01*
X38883390Y-46614285D02*
X39454819Y-46042857D01*
X39454819Y-46042857D02*
X39454819Y-46661904D01*
X58442857Y-63989580D02*
X58490476Y-64037200D01*
X58490476Y-64037200D02*
X58633333Y-64084819D01*
X58633333Y-64084819D02*
X58728571Y-64084819D01*
X58728571Y-64084819D02*
X58871428Y-64037200D01*
X58871428Y-64037200D02*
X58966666Y-63941961D01*
X58966666Y-63941961D02*
X59014285Y-63846723D01*
X59014285Y-63846723D02*
X59061904Y-63656247D01*
X59061904Y-63656247D02*
X59061904Y-63513390D01*
X59061904Y-63513390D02*
X59014285Y-63322914D01*
X59014285Y-63322914D02*
X58966666Y-63227676D01*
X58966666Y-63227676D02*
X58871428Y-63132438D01*
X58871428Y-63132438D02*
X58728571Y-63084819D01*
X58728571Y-63084819D02*
X58633333Y-63084819D01*
X58633333Y-63084819D02*
X58490476Y-63132438D01*
X58490476Y-63132438D02*
X58442857Y-63180057D01*
X57585714Y-63418152D02*
X57585714Y-64084819D01*
X57823809Y-63037200D02*
X58061904Y-63751485D01*
X58061904Y-63751485D02*
X57442857Y-63751485D01*
X56538095Y-64084819D02*
X57109523Y-64084819D01*
X56823809Y-64084819D02*
X56823809Y-63084819D01*
X56823809Y-63084819D02*
X56919047Y-63227676D01*
X56919047Y-63227676D02*
X57014285Y-63322914D01*
X57014285Y-63322914D02*
X57109523Y-63370533D01*
X58442857Y-83589580D02*
X58490476Y-83637200D01*
X58490476Y-83637200D02*
X58633333Y-83684819D01*
X58633333Y-83684819D02*
X58728571Y-83684819D01*
X58728571Y-83684819D02*
X58871428Y-83637200D01*
X58871428Y-83637200D02*
X58966666Y-83541961D01*
X58966666Y-83541961D02*
X59014285Y-83446723D01*
X59014285Y-83446723D02*
X59061904Y-83256247D01*
X59061904Y-83256247D02*
X59061904Y-83113390D01*
X59061904Y-83113390D02*
X59014285Y-82922914D01*
X59014285Y-82922914D02*
X58966666Y-82827676D01*
X58966666Y-82827676D02*
X58871428Y-82732438D01*
X58871428Y-82732438D02*
X58728571Y-82684819D01*
X58728571Y-82684819D02*
X58633333Y-82684819D01*
X58633333Y-82684819D02*
X58490476Y-82732438D01*
X58490476Y-82732438D02*
X58442857Y-82780057D01*
X58109523Y-82684819D02*
X57490476Y-82684819D01*
X57490476Y-82684819D02*
X57823809Y-83065771D01*
X57823809Y-83065771D02*
X57680952Y-83065771D01*
X57680952Y-83065771D02*
X57585714Y-83113390D01*
X57585714Y-83113390D02*
X57538095Y-83161009D01*
X57538095Y-83161009D02*
X57490476Y-83256247D01*
X57490476Y-83256247D02*
X57490476Y-83494342D01*
X57490476Y-83494342D02*
X57538095Y-83589580D01*
X57538095Y-83589580D02*
X57585714Y-83637200D01*
X57585714Y-83637200D02*
X57680952Y-83684819D01*
X57680952Y-83684819D02*
X57966666Y-83684819D01*
X57966666Y-83684819D02*
X58061904Y-83637200D01*
X58061904Y-83637200D02*
X58109523Y-83589580D01*
X57157142Y-82684819D02*
X56538095Y-82684819D01*
X56538095Y-82684819D02*
X56871428Y-83065771D01*
X56871428Y-83065771D02*
X56728571Y-83065771D01*
X56728571Y-83065771D02*
X56633333Y-83113390D01*
X56633333Y-83113390D02*
X56585714Y-83161009D01*
X56585714Y-83161009D02*
X56538095Y-83256247D01*
X56538095Y-83256247D02*
X56538095Y-83494342D01*
X56538095Y-83494342D02*
X56585714Y-83589580D01*
X56585714Y-83589580D02*
X56633333Y-83637200D01*
X56633333Y-83637200D02*
X56728571Y-83684819D01*
X56728571Y-83684819D02*
X57014285Y-83684819D01*
X57014285Y-83684819D02*
X57109523Y-83637200D01*
X57109523Y-83637200D02*
X57157142Y-83589580D01*
X55854819Y-119157142D02*
X55378628Y-118823809D01*
X55854819Y-118585714D02*
X54854819Y-118585714D01*
X54854819Y-118585714D02*
X54854819Y-118966666D01*
X54854819Y-118966666D02*
X54902438Y-119061904D01*
X54902438Y-119061904D02*
X54950057Y-119109523D01*
X54950057Y-119109523D02*
X55045295Y-119157142D01*
X55045295Y-119157142D02*
X55188152Y-119157142D01*
X55188152Y-119157142D02*
X55283390Y-119109523D01*
X55283390Y-119109523D02*
X55331009Y-119061904D01*
X55331009Y-119061904D02*
X55378628Y-118966666D01*
X55378628Y-118966666D02*
X55378628Y-118585714D01*
X55854819Y-120109523D02*
X55854819Y-119538095D01*
X55854819Y-119823809D02*
X54854819Y-119823809D01*
X54854819Y-119823809D02*
X54997676Y-119728571D01*
X54997676Y-119728571D02*
X55092914Y-119633333D01*
X55092914Y-119633333D02*
X55140533Y-119538095D01*
X54854819Y-121014285D02*
X54854819Y-120538095D01*
X54854819Y-120538095D02*
X55331009Y-120490476D01*
X55331009Y-120490476D02*
X55283390Y-120538095D01*
X55283390Y-120538095D02*
X55235771Y-120633333D01*
X55235771Y-120633333D02*
X55235771Y-120871428D01*
X55235771Y-120871428D02*
X55283390Y-120966666D01*
X55283390Y-120966666D02*
X55331009Y-121014285D01*
X55331009Y-121014285D02*
X55426247Y-121061904D01*
X55426247Y-121061904D02*
X55664342Y-121061904D01*
X55664342Y-121061904D02*
X55759580Y-121014285D01*
X55759580Y-121014285D02*
X55807200Y-120966666D01*
X55807200Y-120966666D02*
X55854819Y-120871428D01*
X55854819Y-120871428D02*
X55854819Y-120633333D01*
X55854819Y-120633333D02*
X55807200Y-120538095D01*
X55807200Y-120538095D02*
X55759580Y-120490476D01*
X60654819Y-124033333D02*
X60178628Y-123700000D01*
X60654819Y-123461905D02*
X59654819Y-123461905D01*
X59654819Y-123461905D02*
X59654819Y-123842857D01*
X59654819Y-123842857D02*
X59702438Y-123938095D01*
X59702438Y-123938095D02*
X59750057Y-123985714D01*
X59750057Y-123985714D02*
X59845295Y-124033333D01*
X59845295Y-124033333D02*
X59988152Y-124033333D01*
X59988152Y-124033333D02*
X60083390Y-123985714D01*
X60083390Y-123985714D02*
X60131009Y-123938095D01*
X60131009Y-123938095D02*
X60178628Y-123842857D01*
X60178628Y-123842857D02*
X60178628Y-123461905D01*
X59654819Y-124890476D02*
X59654819Y-124700000D01*
X59654819Y-124700000D02*
X59702438Y-124604762D01*
X59702438Y-124604762D02*
X59750057Y-124557143D01*
X59750057Y-124557143D02*
X59892914Y-124461905D01*
X59892914Y-124461905D02*
X60083390Y-124414286D01*
X60083390Y-124414286D02*
X60464342Y-124414286D01*
X60464342Y-124414286D02*
X60559580Y-124461905D01*
X60559580Y-124461905D02*
X60607200Y-124509524D01*
X60607200Y-124509524D02*
X60654819Y-124604762D01*
X60654819Y-124604762D02*
X60654819Y-124795238D01*
X60654819Y-124795238D02*
X60607200Y-124890476D01*
X60607200Y-124890476D02*
X60559580Y-124938095D01*
X60559580Y-124938095D02*
X60464342Y-124985714D01*
X60464342Y-124985714D02*
X60226247Y-124985714D01*
X60226247Y-124985714D02*
X60131009Y-124938095D01*
X60131009Y-124938095D02*
X60083390Y-124890476D01*
X60083390Y-124890476D02*
X60035771Y-124795238D01*
X60035771Y-124795238D02*
X60035771Y-124604762D01*
X60035771Y-124604762D02*
X60083390Y-124509524D01*
X60083390Y-124509524D02*
X60131009Y-124461905D01*
X60131009Y-124461905D02*
X60226247Y-124414286D01*
X59054819Y-56157142D02*
X58578628Y-55823809D01*
X59054819Y-55585714D02*
X58054819Y-55585714D01*
X58054819Y-55585714D02*
X58054819Y-55966666D01*
X58054819Y-55966666D02*
X58102438Y-56061904D01*
X58102438Y-56061904D02*
X58150057Y-56109523D01*
X58150057Y-56109523D02*
X58245295Y-56157142D01*
X58245295Y-56157142D02*
X58388152Y-56157142D01*
X58388152Y-56157142D02*
X58483390Y-56109523D01*
X58483390Y-56109523D02*
X58531009Y-56061904D01*
X58531009Y-56061904D02*
X58578628Y-55966666D01*
X58578628Y-55966666D02*
X58578628Y-55585714D01*
X59054819Y-57109523D02*
X59054819Y-56538095D01*
X59054819Y-56823809D02*
X58054819Y-56823809D01*
X58054819Y-56823809D02*
X58197676Y-56728571D01*
X58197676Y-56728571D02*
X58292914Y-56633333D01*
X58292914Y-56633333D02*
X58340533Y-56538095D01*
X58054819Y-57442857D02*
X58054819Y-58109523D01*
X58054819Y-58109523D02*
X59054819Y-57680952D01*
X26550057Y-50104761D02*
X26502438Y-50009523D01*
X26502438Y-50009523D02*
X26407200Y-49914285D01*
X26407200Y-49914285D02*
X26264342Y-49771428D01*
X26264342Y-49771428D02*
X26216723Y-49676190D01*
X26216723Y-49676190D02*
X26216723Y-49580952D01*
X26454819Y-49628571D02*
X26407200Y-49533333D01*
X26407200Y-49533333D02*
X26311961Y-49438095D01*
X26311961Y-49438095D02*
X26121485Y-49390476D01*
X26121485Y-49390476D02*
X25788152Y-49390476D01*
X25788152Y-49390476D02*
X25597676Y-49438095D01*
X25597676Y-49438095D02*
X25502438Y-49533333D01*
X25502438Y-49533333D02*
X25454819Y-49628571D01*
X25454819Y-49628571D02*
X25454819Y-49819047D01*
X25454819Y-49819047D02*
X25502438Y-49914285D01*
X25502438Y-49914285D02*
X25597676Y-50009523D01*
X25597676Y-50009523D02*
X25788152Y-50057142D01*
X25788152Y-50057142D02*
X26121485Y-50057142D01*
X26121485Y-50057142D02*
X26311961Y-50009523D01*
X26311961Y-50009523D02*
X26407200Y-49914285D01*
X26407200Y-49914285D02*
X26454819Y-49819047D01*
X26454819Y-49819047D02*
X26454819Y-49628571D01*
X25788152Y-50914285D02*
X26454819Y-50914285D01*
X25407200Y-50676190D02*
X26121485Y-50438095D01*
X26121485Y-50438095D02*
X26121485Y-51057142D01*
X60654819Y-61157142D02*
X60178628Y-60823809D01*
X60654819Y-60585714D02*
X59654819Y-60585714D01*
X59654819Y-60585714D02*
X59654819Y-60966666D01*
X59654819Y-60966666D02*
X59702438Y-61061904D01*
X59702438Y-61061904D02*
X59750057Y-61109523D01*
X59750057Y-61109523D02*
X59845295Y-61157142D01*
X59845295Y-61157142D02*
X59988152Y-61157142D01*
X59988152Y-61157142D02*
X60083390Y-61109523D01*
X60083390Y-61109523D02*
X60131009Y-61061904D01*
X60131009Y-61061904D02*
X60178628Y-60966666D01*
X60178628Y-60966666D02*
X60178628Y-60585714D01*
X59750057Y-61538095D02*
X59702438Y-61585714D01*
X59702438Y-61585714D02*
X59654819Y-61680952D01*
X59654819Y-61680952D02*
X59654819Y-61919047D01*
X59654819Y-61919047D02*
X59702438Y-62014285D01*
X59702438Y-62014285D02*
X59750057Y-62061904D01*
X59750057Y-62061904D02*
X59845295Y-62109523D01*
X59845295Y-62109523D02*
X59940533Y-62109523D01*
X59940533Y-62109523D02*
X60083390Y-62061904D01*
X60083390Y-62061904D02*
X60654819Y-61490476D01*
X60654819Y-61490476D02*
X60654819Y-62109523D01*
X59654819Y-62728571D02*
X59654819Y-62823809D01*
X59654819Y-62823809D02*
X59702438Y-62919047D01*
X59702438Y-62919047D02*
X59750057Y-62966666D01*
X59750057Y-62966666D02*
X59845295Y-63014285D01*
X59845295Y-63014285D02*
X60035771Y-63061904D01*
X60035771Y-63061904D02*
X60273866Y-63061904D01*
X60273866Y-63061904D02*
X60464342Y-63014285D01*
X60464342Y-63014285D02*
X60559580Y-62966666D01*
X60559580Y-62966666D02*
X60607200Y-62919047D01*
X60607200Y-62919047D02*
X60654819Y-62823809D01*
X60654819Y-62823809D02*
X60654819Y-62728571D01*
X60654819Y-62728571D02*
X60607200Y-62633333D01*
X60607200Y-62633333D02*
X60559580Y-62585714D01*
X60559580Y-62585714D02*
X60464342Y-62538095D01*
X60464342Y-62538095D02*
X60273866Y-62490476D01*
X60273866Y-62490476D02*
X60035771Y-62490476D01*
X60035771Y-62490476D02*
X59845295Y-62538095D01*
X59845295Y-62538095D02*
X59750057Y-62585714D01*
X59750057Y-62585714D02*
X59702438Y-62633333D01*
X59702438Y-62633333D02*
X59654819Y-62728571D01*
X35050057Y-50104761D02*
X35002438Y-50009523D01*
X35002438Y-50009523D02*
X34907200Y-49914285D01*
X34907200Y-49914285D02*
X34764342Y-49771428D01*
X34764342Y-49771428D02*
X34716723Y-49676190D01*
X34716723Y-49676190D02*
X34716723Y-49580952D01*
X34954819Y-49628571D02*
X34907200Y-49533333D01*
X34907200Y-49533333D02*
X34811961Y-49438095D01*
X34811961Y-49438095D02*
X34621485Y-49390476D01*
X34621485Y-49390476D02*
X34288152Y-49390476D01*
X34288152Y-49390476D02*
X34097676Y-49438095D01*
X34097676Y-49438095D02*
X34002438Y-49533333D01*
X34002438Y-49533333D02*
X33954819Y-49628571D01*
X33954819Y-49628571D02*
X33954819Y-49819047D01*
X33954819Y-49819047D02*
X34002438Y-49914285D01*
X34002438Y-49914285D02*
X34097676Y-50009523D01*
X34097676Y-50009523D02*
X34288152Y-50057142D01*
X34288152Y-50057142D02*
X34621485Y-50057142D01*
X34621485Y-50057142D02*
X34811961Y-50009523D01*
X34811961Y-50009523D02*
X34907200Y-49914285D01*
X34907200Y-49914285D02*
X34954819Y-49819047D01*
X34954819Y-49819047D02*
X34954819Y-49628571D01*
X33954819Y-50961904D02*
X33954819Y-50485714D01*
X33954819Y-50485714D02*
X34431009Y-50438095D01*
X34431009Y-50438095D02*
X34383390Y-50485714D01*
X34383390Y-50485714D02*
X34335771Y-50580952D01*
X34335771Y-50580952D02*
X34335771Y-50819047D01*
X34335771Y-50819047D02*
X34383390Y-50914285D01*
X34383390Y-50914285D02*
X34431009Y-50961904D01*
X34431009Y-50961904D02*
X34526247Y-51009523D01*
X34526247Y-51009523D02*
X34764342Y-51009523D01*
X34764342Y-51009523D02*
X34859580Y-50961904D01*
X34859580Y-50961904D02*
X34907200Y-50914285D01*
X34907200Y-50914285D02*
X34954819Y-50819047D01*
X34954819Y-50819047D02*
X34954819Y-50580952D01*
X34954819Y-50580952D02*
X34907200Y-50485714D01*
X34907200Y-50485714D02*
X34859580Y-50438095D01*
X29454819Y-44757142D02*
X28978628Y-44423809D01*
X29454819Y-44185714D02*
X28454819Y-44185714D01*
X28454819Y-44185714D02*
X28454819Y-44566666D01*
X28454819Y-44566666D02*
X28502438Y-44661904D01*
X28502438Y-44661904D02*
X28550057Y-44709523D01*
X28550057Y-44709523D02*
X28645295Y-44757142D01*
X28645295Y-44757142D02*
X28788152Y-44757142D01*
X28788152Y-44757142D02*
X28883390Y-44709523D01*
X28883390Y-44709523D02*
X28931009Y-44661904D01*
X28931009Y-44661904D02*
X28978628Y-44566666D01*
X28978628Y-44566666D02*
X28978628Y-44185714D01*
X28550057Y-45138095D02*
X28502438Y-45185714D01*
X28502438Y-45185714D02*
X28454819Y-45280952D01*
X28454819Y-45280952D02*
X28454819Y-45519047D01*
X28454819Y-45519047D02*
X28502438Y-45614285D01*
X28502438Y-45614285D02*
X28550057Y-45661904D01*
X28550057Y-45661904D02*
X28645295Y-45709523D01*
X28645295Y-45709523D02*
X28740533Y-45709523D01*
X28740533Y-45709523D02*
X28883390Y-45661904D01*
X28883390Y-45661904D02*
X29454819Y-45090476D01*
X29454819Y-45090476D02*
X29454819Y-45709523D01*
X28788152Y-46566666D02*
X29454819Y-46566666D01*
X28407200Y-46328571D02*
X29121485Y-46090476D01*
X29121485Y-46090476D02*
X29121485Y-46709523D01*
X62054819Y-55157142D02*
X61578628Y-54823809D01*
X62054819Y-54585714D02*
X61054819Y-54585714D01*
X61054819Y-54585714D02*
X61054819Y-54966666D01*
X61054819Y-54966666D02*
X61102438Y-55061904D01*
X61102438Y-55061904D02*
X61150057Y-55109523D01*
X61150057Y-55109523D02*
X61245295Y-55157142D01*
X61245295Y-55157142D02*
X61388152Y-55157142D01*
X61388152Y-55157142D02*
X61483390Y-55109523D01*
X61483390Y-55109523D02*
X61531009Y-55061904D01*
X61531009Y-55061904D02*
X61578628Y-54966666D01*
X61578628Y-54966666D02*
X61578628Y-54585714D01*
X62054819Y-56109523D02*
X62054819Y-55538095D01*
X62054819Y-55823809D02*
X61054819Y-55823809D01*
X61054819Y-55823809D02*
X61197676Y-55728571D01*
X61197676Y-55728571D02*
X61292914Y-55633333D01*
X61292914Y-55633333D02*
X61340533Y-55538095D01*
X62054819Y-56585714D02*
X62054819Y-56776190D01*
X62054819Y-56776190D02*
X62007200Y-56871428D01*
X62007200Y-56871428D02*
X61959580Y-56919047D01*
X61959580Y-56919047D02*
X61816723Y-57014285D01*
X61816723Y-57014285D02*
X61626247Y-57061904D01*
X61626247Y-57061904D02*
X61245295Y-57061904D01*
X61245295Y-57061904D02*
X61150057Y-57014285D01*
X61150057Y-57014285D02*
X61102438Y-56966666D01*
X61102438Y-56966666D02*
X61054819Y-56871428D01*
X61054819Y-56871428D02*
X61054819Y-56680952D01*
X61054819Y-56680952D02*
X61102438Y-56585714D01*
X61102438Y-56585714D02*
X61150057Y-56538095D01*
X61150057Y-56538095D02*
X61245295Y-56490476D01*
X61245295Y-56490476D02*
X61483390Y-56490476D01*
X61483390Y-56490476D02*
X61578628Y-56538095D01*
X61578628Y-56538095D02*
X61626247Y-56585714D01*
X61626247Y-56585714D02*
X61673866Y-56680952D01*
X61673866Y-56680952D02*
X61673866Y-56871428D01*
X61673866Y-56871428D02*
X61626247Y-56966666D01*
X61626247Y-56966666D02*
X61578628Y-57014285D01*
X61578628Y-57014285D02*
X61483390Y-57061904D01*
X59566666Y-72024819D02*
X59899999Y-71548628D01*
X60138094Y-72024819D02*
X60138094Y-71024819D01*
X60138094Y-71024819D02*
X59757142Y-71024819D01*
X59757142Y-71024819D02*
X59661904Y-71072438D01*
X59661904Y-71072438D02*
X59614285Y-71120057D01*
X59614285Y-71120057D02*
X59566666Y-71215295D01*
X59566666Y-71215295D02*
X59566666Y-71358152D01*
X59566666Y-71358152D02*
X59614285Y-71453390D01*
X59614285Y-71453390D02*
X59661904Y-71501009D01*
X59661904Y-71501009D02*
X59757142Y-71548628D01*
X59757142Y-71548628D02*
X60138094Y-71548628D01*
X59090475Y-72024819D02*
X58899999Y-72024819D01*
X58899999Y-72024819D02*
X58804761Y-71977200D01*
X58804761Y-71977200D02*
X58757142Y-71929580D01*
X58757142Y-71929580D02*
X58661904Y-71786723D01*
X58661904Y-71786723D02*
X58614285Y-71596247D01*
X58614285Y-71596247D02*
X58614285Y-71215295D01*
X58614285Y-71215295D02*
X58661904Y-71120057D01*
X58661904Y-71120057D02*
X58709523Y-71072438D01*
X58709523Y-71072438D02*
X58804761Y-71024819D01*
X58804761Y-71024819D02*
X58995237Y-71024819D01*
X58995237Y-71024819D02*
X59090475Y-71072438D01*
X59090475Y-71072438D02*
X59138094Y-71120057D01*
X59138094Y-71120057D02*
X59185713Y-71215295D01*
X59185713Y-71215295D02*
X59185713Y-71453390D01*
X59185713Y-71453390D02*
X59138094Y-71548628D01*
X59138094Y-71548628D02*
X59090475Y-71596247D01*
X59090475Y-71596247D02*
X58995237Y-71643866D01*
X58995237Y-71643866D02*
X58804761Y-71643866D01*
X58804761Y-71643866D02*
X58709523Y-71596247D01*
X58709523Y-71596247D02*
X58661904Y-71548628D01*
X58661904Y-71548628D02*
X58614285Y-71453390D01*
X57359580Y-96557142D02*
X57407200Y-96509523D01*
X57407200Y-96509523D02*
X57454819Y-96366666D01*
X57454819Y-96366666D02*
X57454819Y-96271428D01*
X57454819Y-96271428D02*
X57407200Y-96128571D01*
X57407200Y-96128571D02*
X57311961Y-96033333D01*
X57311961Y-96033333D02*
X57216723Y-95985714D01*
X57216723Y-95985714D02*
X57026247Y-95938095D01*
X57026247Y-95938095D02*
X56883390Y-95938095D01*
X56883390Y-95938095D02*
X56692914Y-95985714D01*
X56692914Y-95985714D02*
X56597676Y-96033333D01*
X56597676Y-96033333D02*
X56502438Y-96128571D01*
X56502438Y-96128571D02*
X56454819Y-96271428D01*
X56454819Y-96271428D02*
X56454819Y-96366666D01*
X56454819Y-96366666D02*
X56502438Y-96509523D01*
X56502438Y-96509523D02*
X56550057Y-96557142D01*
X56454819Y-96890476D02*
X56454819Y-97509523D01*
X56454819Y-97509523D02*
X56835771Y-97176190D01*
X56835771Y-97176190D02*
X56835771Y-97319047D01*
X56835771Y-97319047D02*
X56883390Y-97414285D01*
X56883390Y-97414285D02*
X56931009Y-97461904D01*
X56931009Y-97461904D02*
X57026247Y-97509523D01*
X57026247Y-97509523D02*
X57264342Y-97509523D01*
X57264342Y-97509523D02*
X57359580Y-97461904D01*
X57359580Y-97461904D02*
X57407200Y-97414285D01*
X57407200Y-97414285D02*
X57454819Y-97319047D01*
X57454819Y-97319047D02*
X57454819Y-97033333D01*
X57454819Y-97033333D02*
X57407200Y-96938095D01*
X57407200Y-96938095D02*
X57359580Y-96890476D01*
X56550057Y-97890476D02*
X56502438Y-97938095D01*
X56502438Y-97938095D02*
X56454819Y-98033333D01*
X56454819Y-98033333D02*
X56454819Y-98271428D01*
X56454819Y-98271428D02*
X56502438Y-98366666D01*
X56502438Y-98366666D02*
X56550057Y-98414285D01*
X56550057Y-98414285D02*
X56645295Y-98461904D01*
X56645295Y-98461904D02*
X56740533Y-98461904D01*
X56740533Y-98461904D02*
X56883390Y-98414285D01*
X56883390Y-98414285D02*
X57454819Y-97842857D01*
X57454819Y-97842857D02*
X57454819Y-98461904D01*
X60654819Y-101433333D02*
X60178628Y-101100000D01*
X60654819Y-100861905D02*
X59654819Y-100861905D01*
X59654819Y-100861905D02*
X59654819Y-101242857D01*
X59654819Y-101242857D02*
X59702438Y-101338095D01*
X59702438Y-101338095D02*
X59750057Y-101385714D01*
X59750057Y-101385714D02*
X59845295Y-101433333D01*
X59845295Y-101433333D02*
X59988152Y-101433333D01*
X59988152Y-101433333D02*
X60083390Y-101385714D01*
X60083390Y-101385714D02*
X60131009Y-101338095D01*
X60131009Y-101338095D02*
X60178628Y-101242857D01*
X60178628Y-101242857D02*
X60178628Y-100861905D01*
X59750057Y-101814286D02*
X59702438Y-101861905D01*
X59702438Y-101861905D02*
X59654819Y-101957143D01*
X59654819Y-101957143D02*
X59654819Y-102195238D01*
X59654819Y-102195238D02*
X59702438Y-102290476D01*
X59702438Y-102290476D02*
X59750057Y-102338095D01*
X59750057Y-102338095D02*
X59845295Y-102385714D01*
X59845295Y-102385714D02*
X59940533Y-102385714D01*
X59940533Y-102385714D02*
X60083390Y-102338095D01*
X60083390Y-102338095D02*
X60654819Y-101766667D01*
X60654819Y-101766667D02*
X60654819Y-102385714D01*
X54159580Y-96557142D02*
X54207200Y-96509523D01*
X54207200Y-96509523D02*
X54254819Y-96366666D01*
X54254819Y-96366666D02*
X54254819Y-96271428D01*
X54254819Y-96271428D02*
X54207200Y-96128571D01*
X54207200Y-96128571D02*
X54111961Y-96033333D01*
X54111961Y-96033333D02*
X54016723Y-95985714D01*
X54016723Y-95985714D02*
X53826247Y-95938095D01*
X53826247Y-95938095D02*
X53683390Y-95938095D01*
X53683390Y-95938095D02*
X53492914Y-95985714D01*
X53492914Y-95985714D02*
X53397676Y-96033333D01*
X53397676Y-96033333D02*
X53302438Y-96128571D01*
X53302438Y-96128571D02*
X53254819Y-96271428D01*
X53254819Y-96271428D02*
X53254819Y-96366666D01*
X53254819Y-96366666D02*
X53302438Y-96509523D01*
X53302438Y-96509523D02*
X53350057Y-96557142D01*
X53350057Y-96938095D02*
X53302438Y-96985714D01*
X53302438Y-96985714D02*
X53254819Y-97080952D01*
X53254819Y-97080952D02*
X53254819Y-97319047D01*
X53254819Y-97319047D02*
X53302438Y-97414285D01*
X53302438Y-97414285D02*
X53350057Y-97461904D01*
X53350057Y-97461904D02*
X53445295Y-97509523D01*
X53445295Y-97509523D02*
X53540533Y-97509523D01*
X53540533Y-97509523D02*
X53683390Y-97461904D01*
X53683390Y-97461904D02*
X54254819Y-96890476D01*
X54254819Y-96890476D02*
X54254819Y-97509523D01*
X53683390Y-98080952D02*
X53635771Y-97985714D01*
X53635771Y-97985714D02*
X53588152Y-97938095D01*
X53588152Y-97938095D02*
X53492914Y-97890476D01*
X53492914Y-97890476D02*
X53445295Y-97890476D01*
X53445295Y-97890476D02*
X53350057Y-97938095D01*
X53350057Y-97938095D02*
X53302438Y-97985714D01*
X53302438Y-97985714D02*
X53254819Y-98080952D01*
X53254819Y-98080952D02*
X53254819Y-98271428D01*
X53254819Y-98271428D02*
X53302438Y-98366666D01*
X53302438Y-98366666D02*
X53350057Y-98414285D01*
X53350057Y-98414285D02*
X53445295Y-98461904D01*
X53445295Y-98461904D02*
X53492914Y-98461904D01*
X53492914Y-98461904D02*
X53588152Y-98414285D01*
X53588152Y-98414285D02*
X53635771Y-98366666D01*
X53635771Y-98366666D02*
X53683390Y-98271428D01*
X53683390Y-98271428D02*
X53683390Y-98080952D01*
X53683390Y-98080952D02*
X53731009Y-97985714D01*
X53731009Y-97985714D02*
X53778628Y-97938095D01*
X53778628Y-97938095D02*
X53873866Y-97890476D01*
X53873866Y-97890476D02*
X54064342Y-97890476D01*
X54064342Y-97890476D02*
X54159580Y-97938095D01*
X54159580Y-97938095D02*
X54207200Y-97985714D01*
X54207200Y-97985714D02*
X54254819Y-98080952D01*
X54254819Y-98080952D02*
X54254819Y-98271428D01*
X54254819Y-98271428D02*
X54207200Y-98366666D01*
X54207200Y-98366666D02*
X54159580Y-98414285D01*
X54159580Y-98414285D02*
X54064342Y-98461904D01*
X54064342Y-98461904D02*
X53873866Y-98461904D01*
X53873866Y-98461904D02*
X53778628Y-98414285D01*
X53778628Y-98414285D02*
X53731009Y-98366666D01*
X53731009Y-98366666D02*
X53683390Y-98271428D01*
X58442857Y-104389580D02*
X58490476Y-104437200D01*
X58490476Y-104437200D02*
X58633333Y-104484819D01*
X58633333Y-104484819D02*
X58728571Y-104484819D01*
X58728571Y-104484819D02*
X58871428Y-104437200D01*
X58871428Y-104437200D02*
X58966666Y-104341961D01*
X58966666Y-104341961D02*
X59014285Y-104246723D01*
X59014285Y-104246723D02*
X59061904Y-104056247D01*
X59061904Y-104056247D02*
X59061904Y-103913390D01*
X59061904Y-103913390D02*
X59014285Y-103722914D01*
X59014285Y-103722914D02*
X58966666Y-103627676D01*
X58966666Y-103627676D02*
X58871428Y-103532438D01*
X58871428Y-103532438D02*
X58728571Y-103484819D01*
X58728571Y-103484819D02*
X58633333Y-103484819D01*
X58633333Y-103484819D02*
X58490476Y-103532438D01*
X58490476Y-103532438D02*
X58442857Y-103580057D01*
X58109523Y-103484819D02*
X57490476Y-103484819D01*
X57490476Y-103484819D02*
X57823809Y-103865771D01*
X57823809Y-103865771D02*
X57680952Y-103865771D01*
X57680952Y-103865771D02*
X57585714Y-103913390D01*
X57585714Y-103913390D02*
X57538095Y-103961009D01*
X57538095Y-103961009D02*
X57490476Y-104056247D01*
X57490476Y-104056247D02*
X57490476Y-104294342D01*
X57490476Y-104294342D02*
X57538095Y-104389580D01*
X57538095Y-104389580D02*
X57585714Y-104437200D01*
X57585714Y-104437200D02*
X57680952Y-104484819D01*
X57680952Y-104484819D02*
X57966666Y-104484819D01*
X57966666Y-104484819D02*
X58061904Y-104437200D01*
X58061904Y-104437200D02*
X58109523Y-104389580D01*
X56538095Y-104484819D02*
X57109523Y-104484819D01*
X56823809Y-104484819D02*
X56823809Y-103484819D01*
X56823809Y-103484819D02*
X56919047Y-103627676D01*
X56919047Y-103627676D02*
X57014285Y-103722914D01*
X57014285Y-103722914D02*
X57109523Y-103770533D01*
X34454819Y-44757142D02*
X33978628Y-44423809D01*
X34454819Y-44185714D02*
X33454819Y-44185714D01*
X33454819Y-44185714D02*
X33454819Y-44566666D01*
X33454819Y-44566666D02*
X33502438Y-44661904D01*
X33502438Y-44661904D02*
X33550057Y-44709523D01*
X33550057Y-44709523D02*
X33645295Y-44757142D01*
X33645295Y-44757142D02*
X33788152Y-44757142D01*
X33788152Y-44757142D02*
X33883390Y-44709523D01*
X33883390Y-44709523D02*
X33931009Y-44661904D01*
X33931009Y-44661904D02*
X33978628Y-44566666D01*
X33978628Y-44566666D02*
X33978628Y-44185714D01*
X33550057Y-45138095D02*
X33502438Y-45185714D01*
X33502438Y-45185714D02*
X33454819Y-45280952D01*
X33454819Y-45280952D02*
X33454819Y-45519047D01*
X33454819Y-45519047D02*
X33502438Y-45614285D01*
X33502438Y-45614285D02*
X33550057Y-45661904D01*
X33550057Y-45661904D02*
X33645295Y-45709523D01*
X33645295Y-45709523D02*
X33740533Y-45709523D01*
X33740533Y-45709523D02*
X33883390Y-45661904D01*
X33883390Y-45661904D02*
X34454819Y-45090476D01*
X34454819Y-45090476D02*
X34454819Y-45709523D01*
X34454819Y-46661904D02*
X34454819Y-46090476D01*
X34454819Y-46376190D02*
X33454819Y-46376190D01*
X33454819Y-46376190D02*
X33597676Y-46280952D01*
X33597676Y-46280952D02*
X33692914Y-46185714D01*
X33692914Y-46185714D02*
X33740533Y-46090476D01*
X62054819Y-96033333D02*
X61578628Y-95700000D01*
X62054819Y-95461905D02*
X61054819Y-95461905D01*
X61054819Y-95461905D02*
X61054819Y-95842857D01*
X61054819Y-95842857D02*
X61102438Y-95938095D01*
X61102438Y-95938095D02*
X61150057Y-95985714D01*
X61150057Y-95985714D02*
X61245295Y-96033333D01*
X61245295Y-96033333D02*
X61388152Y-96033333D01*
X61388152Y-96033333D02*
X61483390Y-95985714D01*
X61483390Y-95985714D02*
X61531009Y-95938095D01*
X61531009Y-95938095D02*
X61578628Y-95842857D01*
X61578628Y-95842857D02*
X61578628Y-95461905D01*
X62054819Y-96985714D02*
X62054819Y-96414286D01*
X62054819Y-96700000D02*
X61054819Y-96700000D01*
X61054819Y-96700000D02*
X61197676Y-96604762D01*
X61197676Y-96604762D02*
X61292914Y-96509524D01*
X61292914Y-96509524D02*
X61340533Y-96414286D01*
X55854819Y-96557142D02*
X55378628Y-96223809D01*
X55854819Y-95985714D02*
X54854819Y-95985714D01*
X54854819Y-95985714D02*
X54854819Y-96366666D01*
X54854819Y-96366666D02*
X54902438Y-96461904D01*
X54902438Y-96461904D02*
X54950057Y-96509523D01*
X54950057Y-96509523D02*
X55045295Y-96557142D01*
X55045295Y-96557142D02*
X55188152Y-96557142D01*
X55188152Y-96557142D02*
X55283390Y-96509523D01*
X55283390Y-96509523D02*
X55331009Y-96461904D01*
X55331009Y-96461904D02*
X55378628Y-96366666D01*
X55378628Y-96366666D02*
X55378628Y-95985714D01*
X55854819Y-97509523D02*
X55854819Y-96938095D01*
X55854819Y-97223809D02*
X54854819Y-97223809D01*
X54854819Y-97223809D02*
X54997676Y-97128571D01*
X54997676Y-97128571D02*
X55092914Y-97033333D01*
X55092914Y-97033333D02*
X55140533Y-96938095D01*
X55854819Y-98461904D02*
X55854819Y-97890476D01*
X55854819Y-98176190D02*
X54854819Y-98176190D01*
X54854819Y-98176190D02*
X54997676Y-98080952D01*
X54997676Y-98080952D02*
X55092914Y-97985714D01*
X55092914Y-97985714D02*
X55140533Y-97890476D01*
X57359580Y-119157142D02*
X57407200Y-119109523D01*
X57407200Y-119109523D02*
X57454819Y-118966666D01*
X57454819Y-118966666D02*
X57454819Y-118871428D01*
X57454819Y-118871428D02*
X57407200Y-118728571D01*
X57407200Y-118728571D02*
X57311961Y-118633333D01*
X57311961Y-118633333D02*
X57216723Y-118585714D01*
X57216723Y-118585714D02*
X57026247Y-118538095D01*
X57026247Y-118538095D02*
X56883390Y-118538095D01*
X56883390Y-118538095D02*
X56692914Y-118585714D01*
X56692914Y-118585714D02*
X56597676Y-118633333D01*
X56597676Y-118633333D02*
X56502438Y-118728571D01*
X56502438Y-118728571D02*
X56454819Y-118871428D01*
X56454819Y-118871428D02*
X56454819Y-118966666D01*
X56454819Y-118966666D02*
X56502438Y-119109523D01*
X56502438Y-119109523D02*
X56550057Y-119157142D01*
X56454819Y-119490476D02*
X56454819Y-120109523D01*
X56454819Y-120109523D02*
X56835771Y-119776190D01*
X56835771Y-119776190D02*
X56835771Y-119919047D01*
X56835771Y-119919047D02*
X56883390Y-120014285D01*
X56883390Y-120014285D02*
X56931009Y-120061904D01*
X56931009Y-120061904D02*
X57026247Y-120109523D01*
X57026247Y-120109523D02*
X57264342Y-120109523D01*
X57264342Y-120109523D02*
X57359580Y-120061904D01*
X57359580Y-120061904D02*
X57407200Y-120014285D01*
X57407200Y-120014285D02*
X57454819Y-119919047D01*
X57454819Y-119919047D02*
X57454819Y-119633333D01*
X57454819Y-119633333D02*
X57407200Y-119538095D01*
X57407200Y-119538095D02*
X57359580Y-119490476D01*
X56454819Y-120966666D02*
X56454819Y-120776190D01*
X56454819Y-120776190D02*
X56502438Y-120680952D01*
X56502438Y-120680952D02*
X56550057Y-120633333D01*
X56550057Y-120633333D02*
X56692914Y-120538095D01*
X56692914Y-120538095D02*
X56883390Y-120490476D01*
X56883390Y-120490476D02*
X57264342Y-120490476D01*
X57264342Y-120490476D02*
X57359580Y-120538095D01*
X57359580Y-120538095D02*
X57407200Y-120585714D01*
X57407200Y-120585714D02*
X57454819Y-120680952D01*
X57454819Y-120680952D02*
X57454819Y-120871428D01*
X57454819Y-120871428D02*
X57407200Y-120966666D01*
X57407200Y-120966666D02*
X57359580Y-121014285D01*
X57359580Y-121014285D02*
X57264342Y-121061904D01*
X57264342Y-121061904D02*
X57026247Y-121061904D01*
X57026247Y-121061904D02*
X56931009Y-121014285D01*
X56931009Y-121014285D02*
X56883390Y-120966666D01*
X56883390Y-120966666D02*
X56835771Y-120871428D01*
X56835771Y-120871428D02*
X56835771Y-120680952D01*
X56835771Y-120680952D02*
X56883390Y-120585714D01*
X56883390Y-120585714D02*
X56931009Y-120538095D01*
X56931009Y-120538095D02*
X57026247Y-120490476D01*
X62054819Y-75233333D02*
X61578628Y-74900000D01*
X62054819Y-74661905D02*
X61054819Y-74661905D01*
X61054819Y-74661905D02*
X61054819Y-75042857D01*
X61054819Y-75042857D02*
X61102438Y-75138095D01*
X61102438Y-75138095D02*
X61150057Y-75185714D01*
X61150057Y-75185714D02*
X61245295Y-75233333D01*
X61245295Y-75233333D02*
X61388152Y-75233333D01*
X61388152Y-75233333D02*
X61483390Y-75185714D01*
X61483390Y-75185714D02*
X61531009Y-75138095D01*
X61531009Y-75138095D02*
X61578628Y-75042857D01*
X61578628Y-75042857D02*
X61578628Y-74661905D01*
X61054819Y-75566667D02*
X61054819Y-76185714D01*
X61054819Y-76185714D02*
X61435771Y-75852381D01*
X61435771Y-75852381D02*
X61435771Y-75995238D01*
X61435771Y-75995238D02*
X61483390Y-76090476D01*
X61483390Y-76090476D02*
X61531009Y-76138095D01*
X61531009Y-76138095D02*
X61626247Y-76185714D01*
X61626247Y-76185714D02*
X61864342Y-76185714D01*
X61864342Y-76185714D02*
X61959580Y-76138095D01*
X61959580Y-76138095D02*
X62007200Y-76090476D01*
X62007200Y-76090476D02*
X62054819Y-75995238D01*
X62054819Y-75995238D02*
X62054819Y-75709524D01*
X62054819Y-75709524D02*
X62007200Y-75614286D01*
X62007200Y-75614286D02*
X61959580Y-75566667D01*
X59054819Y-119157142D02*
X58578628Y-118823809D01*
X59054819Y-118585714D02*
X58054819Y-118585714D01*
X58054819Y-118585714D02*
X58054819Y-118966666D01*
X58054819Y-118966666D02*
X58102438Y-119061904D01*
X58102438Y-119061904D02*
X58150057Y-119109523D01*
X58150057Y-119109523D02*
X58245295Y-119157142D01*
X58245295Y-119157142D02*
X58388152Y-119157142D01*
X58388152Y-119157142D02*
X58483390Y-119109523D01*
X58483390Y-119109523D02*
X58531009Y-119061904D01*
X58531009Y-119061904D02*
X58578628Y-118966666D01*
X58578628Y-118966666D02*
X58578628Y-118585714D01*
X59054819Y-120109523D02*
X59054819Y-119538095D01*
X59054819Y-119823809D02*
X58054819Y-119823809D01*
X58054819Y-119823809D02*
X58197676Y-119728571D01*
X58197676Y-119728571D02*
X58292914Y-119633333D01*
X58292914Y-119633333D02*
X58340533Y-119538095D01*
X58388152Y-120966666D02*
X59054819Y-120966666D01*
X58007200Y-120728571D02*
X58721485Y-120490476D01*
X58721485Y-120490476D02*
X58721485Y-121109523D01*
X59054819Y-75757142D02*
X58578628Y-75423809D01*
X59054819Y-75185714D02*
X58054819Y-75185714D01*
X58054819Y-75185714D02*
X58054819Y-75566666D01*
X58054819Y-75566666D02*
X58102438Y-75661904D01*
X58102438Y-75661904D02*
X58150057Y-75709523D01*
X58150057Y-75709523D02*
X58245295Y-75757142D01*
X58245295Y-75757142D02*
X58388152Y-75757142D01*
X58388152Y-75757142D02*
X58483390Y-75709523D01*
X58483390Y-75709523D02*
X58531009Y-75661904D01*
X58531009Y-75661904D02*
X58578628Y-75566666D01*
X58578628Y-75566666D02*
X58578628Y-75185714D01*
X59054819Y-76709523D02*
X59054819Y-76138095D01*
X59054819Y-76423809D02*
X58054819Y-76423809D01*
X58054819Y-76423809D02*
X58197676Y-76328571D01*
X58197676Y-76328571D02*
X58292914Y-76233333D01*
X58292914Y-76233333D02*
X58340533Y-76138095D01*
X58150057Y-77090476D02*
X58102438Y-77138095D01*
X58102438Y-77138095D02*
X58054819Y-77233333D01*
X58054819Y-77233333D02*
X58054819Y-77471428D01*
X58054819Y-77471428D02*
X58102438Y-77566666D01*
X58102438Y-77566666D02*
X58150057Y-77614285D01*
X58150057Y-77614285D02*
X58245295Y-77661904D01*
X58245295Y-77661904D02*
X58340533Y-77661904D01*
X58340533Y-77661904D02*
X58483390Y-77614285D01*
X58483390Y-77614285D02*
X59054819Y-77042857D01*
X59054819Y-77042857D02*
X59054819Y-77661904D01*
X60042857Y-52424819D02*
X60376190Y-51948628D01*
X60614285Y-52424819D02*
X60614285Y-51424819D01*
X60614285Y-51424819D02*
X60233333Y-51424819D01*
X60233333Y-51424819D02*
X60138095Y-51472438D01*
X60138095Y-51472438D02*
X60090476Y-51520057D01*
X60090476Y-51520057D02*
X60042857Y-51615295D01*
X60042857Y-51615295D02*
X60042857Y-51758152D01*
X60042857Y-51758152D02*
X60090476Y-51853390D01*
X60090476Y-51853390D02*
X60138095Y-51901009D01*
X60138095Y-51901009D02*
X60233333Y-51948628D01*
X60233333Y-51948628D02*
X60614285Y-51948628D01*
X59090476Y-52424819D02*
X59661904Y-52424819D01*
X59376190Y-52424819D02*
X59376190Y-51424819D01*
X59376190Y-51424819D02*
X59471428Y-51567676D01*
X59471428Y-51567676D02*
X59566666Y-51662914D01*
X59566666Y-51662914D02*
X59661904Y-51710533D01*
X58233333Y-51424819D02*
X58423809Y-51424819D01*
X58423809Y-51424819D02*
X58519047Y-51472438D01*
X58519047Y-51472438D02*
X58566666Y-51520057D01*
X58566666Y-51520057D02*
X58661904Y-51662914D01*
X58661904Y-51662914D02*
X58709523Y-51853390D01*
X58709523Y-51853390D02*
X58709523Y-52234342D01*
X58709523Y-52234342D02*
X58661904Y-52329580D01*
X58661904Y-52329580D02*
X58614285Y-52377200D01*
X58614285Y-52377200D02*
X58519047Y-52424819D01*
X58519047Y-52424819D02*
X58328571Y-52424819D01*
X58328571Y-52424819D02*
X58233333Y-52377200D01*
X58233333Y-52377200D02*
X58185714Y-52329580D01*
X58185714Y-52329580D02*
X58138095Y-52234342D01*
X58138095Y-52234342D02*
X58138095Y-51996247D01*
X58138095Y-51996247D02*
X58185714Y-51901009D01*
X58185714Y-51901009D02*
X58233333Y-51853390D01*
X58233333Y-51853390D02*
X58328571Y-51805771D01*
X58328571Y-51805771D02*
X58519047Y-51805771D01*
X58519047Y-51805771D02*
X58614285Y-51853390D01*
X58614285Y-51853390D02*
X58661904Y-51901009D01*
X58661904Y-51901009D02*
X58709523Y-51996247D01*
X57359580Y-75757142D02*
X57407200Y-75709523D01*
X57407200Y-75709523D02*
X57454819Y-75566666D01*
X57454819Y-75566666D02*
X57454819Y-75471428D01*
X57454819Y-75471428D02*
X57407200Y-75328571D01*
X57407200Y-75328571D02*
X57311961Y-75233333D01*
X57311961Y-75233333D02*
X57216723Y-75185714D01*
X57216723Y-75185714D02*
X57026247Y-75138095D01*
X57026247Y-75138095D02*
X56883390Y-75138095D01*
X56883390Y-75138095D02*
X56692914Y-75185714D01*
X56692914Y-75185714D02*
X56597676Y-75233333D01*
X56597676Y-75233333D02*
X56502438Y-75328571D01*
X56502438Y-75328571D02*
X56454819Y-75471428D01*
X56454819Y-75471428D02*
X56454819Y-75566666D01*
X56454819Y-75566666D02*
X56502438Y-75709523D01*
X56502438Y-75709523D02*
X56550057Y-75757142D01*
X56454819Y-76090476D02*
X56454819Y-76709523D01*
X56454819Y-76709523D02*
X56835771Y-76376190D01*
X56835771Y-76376190D02*
X56835771Y-76519047D01*
X56835771Y-76519047D02*
X56883390Y-76614285D01*
X56883390Y-76614285D02*
X56931009Y-76661904D01*
X56931009Y-76661904D02*
X57026247Y-76709523D01*
X57026247Y-76709523D02*
X57264342Y-76709523D01*
X57264342Y-76709523D02*
X57359580Y-76661904D01*
X57359580Y-76661904D02*
X57407200Y-76614285D01*
X57407200Y-76614285D02*
X57454819Y-76519047D01*
X57454819Y-76519047D02*
X57454819Y-76233333D01*
X57454819Y-76233333D02*
X57407200Y-76138095D01*
X57407200Y-76138095D02*
X57359580Y-76090476D01*
X56788152Y-77566666D02*
X57454819Y-77566666D01*
X56407200Y-77328571D02*
X57121485Y-77090476D01*
X57121485Y-77090476D02*
X57121485Y-77709523D01*
X60654819Y-80633333D02*
X60178628Y-80300000D01*
X60654819Y-80061905D02*
X59654819Y-80061905D01*
X59654819Y-80061905D02*
X59654819Y-80442857D01*
X59654819Y-80442857D02*
X59702438Y-80538095D01*
X59702438Y-80538095D02*
X59750057Y-80585714D01*
X59750057Y-80585714D02*
X59845295Y-80633333D01*
X59845295Y-80633333D02*
X59988152Y-80633333D01*
X59988152Y-80633333D02*
X60083390Y-80585714D01*
X60083390Y-80585714D02*
X60131009Y-80538095D01*
X60131009Y-80538095D02*
X60178628Y-80442857D01*
X60178628Y-80442857D02*
X60178628Y-80061905D01*
X59988152Y-81490476D02*
X60654819Y-81490476D01*
X59607200Y-81252381D02*
X60321485Y-81014286D01*
X60321485Y-81014286D02*
X60321485Y-81633333D01*
X45050057Y-50104761D02*
X45002438Y-50009523D01*
X45002438Y-50009523D02*
X44907200Y-49914285D01*
X44907200Y-49914285D02*
X44764342Y-49771428D01*
X44764342Y-49771428D02*
X44716723Y-49676190D01*
X44716723Y-49676190D02*
X44716723Y-49580952D01*
X44954819Y-49628571D02*
X44907200Y-49533333D01*
X44907200Y-49533333D02*
X44811961Y-49438095D01*
X44811961Y-49438095D02*
X44621485Y-49390476D01*
X44621485Y-49390476D02*
X44288152Y-49390476D01*
X44288152Y-49390476D02*
X44097676Y-49438095D01*
X44097676Y-49438095D02*
X44002438Y-49533333D01*
X44002438Y-49533333D02*
X43954819Y-49628571D01*
X43954819Y-49628571D02*
X43954819Y-49819047D01*
X43954819Y-49819047D02*
X44002438Y-49914285D01*
X44002438Y-49914285D02*
X44097676Y-50009523D01*
X44097676Y-50009523D02*
X44288152Y-50057142D01*
X44288152Y-50057142D02*
X44621485Y-50057142D01*
X44621485Y-50057142D02*
X44811961Y-50009523D01*
X44811961Y-50009523D02*
X44907200Y-49914285D01*
X44907200Y-49914285D02*
X44954819Y-49819047D01*
X44954819Y-49819047D02*
X44954819Y-49628571D01*
X43954819Y-50390476D02*
X43954819Y-51009523D01*
X43954819Y-51009523D02*
X44335771Y-50676190D01*
X44335771Y-50676190D02*
X44335771Y-50819047D01*
X44335771Y-50819047D02*
X44383390Y-50914285D01*
X44383390Y-50914285D02*
X44431009Y-50961904D01*
X44431009Y-50961904D02*
X44526247Y-51009523D01*
X44526247Y-51009523D02*
X44764342Y-51009523D01*
X44764342Y-51009523D02*
X44859580Y-50961904D01*
X44859580Y-50961904D02*
X44907200Y-50914285D01*
X44907200Y-50914285D02*
X44954819Y-50819047D01*
X44954819Y-50819047D02*
X44954819Y-50533333D01*
X44954819Y-50533333D02*
X44907200Y-50438095D01*
X44907200Y-50438095D02*
X44859580Y-50390476D01*
X36750057Y-50104761D02*
X36702438Y-50009523D01*
X36702438Y-50009523D02*
X36607200Y-49914285D01*
X36607200Y-49914285D02*
X36464342Y-49771428D01*
X36464342Y-49771428D02*
X36416723Y-49676190D01*
X36416723Y-49676190D02*
X36416723Y-49580952D01*
X36654819Y-49628571D02*
X36607200Y-49533333D01*
X36607200Y-49533333D02*
X36511961Y-49438095D01*
X36511961Y-49438095D02*
X36321485Y-49390476D01*
X36321485Y-49390476D02*
X35988152Y-49390476D01*
X35988152Y-49390476D02*
X35797676Y-49438095D01*
X35797676Y-49438095D02*
X35702438Y-49533333D01*
X35702438Y-49533333D02*
X35654819Y-49628571D01*
X35654819Y-49628571D02*
X35654819Y-49819047D01*
X35654819Y-49819047D02*
X35702438Y-49914285D01*
X35702438Y-49914285D02*
X35797676Y-50009523D01*
X35797676Y-50009523D02*
X35988152Y-50057142D01*
X35988152Y-50057142D02*
X36321485Y-50057142D01*
X36321485Y-50057142D02*
X36511961Y-50009523D01*
X36511961Y-50009523D02*
X36607200Y-49914285D01*
X36607200Y-49914285D02*
X36654819Y-49819047D01*
X36654819Y-49819047D02*
X36654819Y-49628571D01*
X35750057Y-50438095D02*
X35702438Y-50485714D01*
X35702438Y-50485714D02*
X35654819Y-50580952D01*
X35654819Y-50580952D02*
X35654819Y-50819047D01*
X35654819Y-50819047D02*
X35702438Y-50914285D01*
X35702438Y-50914285D02*
X35750057Y-50961904D01*
X35750057Y-50961904D02*
X35845295Y-51009523D01*
X35845295Y-51009523D02*
X35940533Y-51009523D01*
X35940533Y-51009523D02*
X36083390Y-50961904D01*
X36083390Y-50961904D02*
X36654819Y-50390476D01*
X36654819Y-50390476D02*
X36654819Y-51009523D01*
X55854819Y-75757142D02*
X55378628Y-75423809D01*
X55854819Y-75185714D02*
X54854819Y-75185714D01*
X54854819Y-75185714D02*
X54854819Y-75566666D01*
X54854819Y-75566666D02*
X54902438Y-75661904D01*
X54902438Y-75661904D02*
X54950057Y-75709523D01*
X54950057Y-75709523D02*
X55045295Y-75757142D01*
X55045295Y-75757142D02*
X55188152Y-75757142D01*
X55188152Y-75757142D02*
X55283390Y-75709523D01*
X55283390Y-75709523D02*
X55331009Y-75661904D01*
X55331009Y-75661904D02*
X55378628Y-75566666D01*
X55378628Y-75566666D02*
X55378628Y-75185714D01*
X55854819Y-76709523D02*
X55854819Y-76138095D01*
X55854819Y-76423809D02*
X54854819Y-76423809D01*
X54854819Y-76423809D02*
X54997676Y-76328571D01*
X54997676Y-76328571D02*
X55092914Y-76233333D01*
X55092914Y-76233333D02*
X55140533Y-76138095D01*
X54854819Y-77042857D02*
X54854819Y-77661904D01*
X54854819Y-77661904D02*
X55235771Y-77328571D01*
X55235771Y-77328571D02*
X55235771Y-77471428D01*
X55235771Y-77471428D02*
X55283390Y-77566666D01*
X55283390Y-77566666D02*
X55331009Y-77614285D01*
X55331009Y-77614285D02*
X55426247Y-77661904D01*
X55426247Y-77661904D02*
X55664342Y-77661904D01*
X55664342Y-77661904D02*
X55759580Y-77614285D01*
X55759580Y-77614285D02*
X55807200Y-77566666D01*
X55807200Y-77566666D02*
X55854819Y-77471428D01*
X55854819Y-77471428D02*
X55854819Y-77185714D01*
X55854819Y-77185714D02*
X55807200Y-77090476D01*
X55807200Y-77090476D02*
X55759580Y-77042857D01*
X24454819Y-45357142D02*
X23978628Y-45023809D01*
X24454819Y-44785714D02*
X23454819Y-44785714D01*
X23454819Y-44785714D02*
X23454819Y-45166666D01*
X23454819Y-45166666D02*
X23502438Y-45261904D01*
X23502438Y-45261904D02*
X23550057Y-45309523D01*
X23550057Y-45309523D02*
X23645295Y-45357142D01*
X23645295Y-45357142D02*
X23788152Y-45357142D01*
X23788152Y-45357142D02*
X23883390Y-45309523D01*
X23883390Y-45309523D02*
X23931009Y-45261904D01*
X23931009Y-45261904D02*
X23978628Y-45166666D01*
X23978628Y-45166666D02*
X23978628Y-44785714D01*
X23550057Y-45738095D02*
X23502438Y-45785714D01*
X23502438Y-45785714D02*
X23454819Y-45880952D01*
X23454819Y-45880952D02*
X23454819Y-46119047D01*
X23454819Y-46119047D02*
X23502438Y-46214285D01*
X23502438Y-46214285D02*
X23550057Y-46261904D01*
X23550057Y-46261904D02*
X23645295Y-46309523D01*
X23645295Y-46309523D02*
X23740533Y-46309523D01*
X23740533Y-46309523D02*
X23883390Y-46261904D01*
X23883390Y-46261904D02*
X24454819Y-45690476D01*
X24454819Y-45690476D02*
X24454819Y-46309523D01*
X23454819Y-46642857D02*
X23454819Y-47261904D01*
X23454819Y-47261904D02*
X23835771Y-46928571D01*
X23835771Y-46928571D02*
X23835771Y-47071428D01*
X23835771Y-47071428D02*
X23883390Y-47166666D01*
X23883390Y-47166666D02*
X23931009Y-47214285D01*
X23931009Y-47214285D02*
X24026247Y-47261904D01*
X24026247Y-47261904D02*
X24264342Y-47261904D01*
X24264342Y-47261904D02*
X24359580Y-47214285D01*
X24359580Y-47214285D02*
X24407200Y-47166666D01*
X24407200Y-47166666D02*
X24454819Y-47071428D01*
X24454819Y-47071428D02*
X24454819Y-46785714D01*
X24454819Y-46785714D02*
X24407200Y-46690476D01*
X24407200Y-46690476D02*
X24359580Y-46642857D01*
X59566666Y-115424819D02*
X59899999Y-114948628D01*
X60138094Y-115424819D02*
X60138094Y-114424819D01*
X60138094Y-114424819D02*
X59757142Y-114424819D01*
X59757142Y-114424819D02*
X59661904Y-114472438D01*
X59661904Y-114472438D02*
X59614285Y-114520057D01*
X59614285Y-114520057D02*
X59566666Y-114615295D01*
X59566666Y-114615295D02*
X59566666Y-114758152D01*
X59566666Y-114758152D02*
X59614285Y-114853390D01*
X59614285Y-114853390D02*
X59661904Y-114901009D01*
X59661904Y-114901009D02*
X59757142Y-114948628D01*
X59757142Y-114948628D02*
X60138094Y-114948628D01*
X58995237Y-114853390D02*
X59090475Y-114805771D01*
X59090475Y-114805771D02*
X59138094Y-114758152D01*
X59138094Y-114758152D02*
X59185713Y-114662914D01*
X59185713Y-114662914D02*
X59185713Y-114615295D01*
X59185713Y-114615295D02*
X59138094Y-114520057D01*
X59138094Y-114520057D02*
X59090475Y-114472438D01*
X59090475Y-114472438D02*
X58995237Y-114424819D01*
X58995237Y-114424819D02*
X58804761Y-114424819D01*
X58804761Y-114424819D02*
X58709523Y-114472438D01*
X58709523Y-114472438D02*
X58661904Y-114520057D01*
X58661904Y-114520057D02*
X58614285Y-114615295D01*
X58614285Y-114615295D02*
X58614285Y-114662914D01*
X58614285Y-114662914D02*
X58661904Y-114758152D01*
X58661904Y-114758152D02*
X58709523Y-114805771D01*
X58709523Y-114805771D02*
X58804761Y-114853390D01*
X58804761Y-114853390D02*
X58995237Y-114853390D01*
X58995237Y-114853390D02*
X59090475Y-114901009D01*
X59090475Y-114901009D02*
X59138094Y-114948628D01*
X59138094Y-114948628D02*
X59185713Y-115043866D01*
X59185713Y-115043866D02*
X59185713Y-115234342D01*
X59185713Y-115234342D02*
X59138094Y-115329580D01*
X59138094Y-115329580D02*
X59090475Y-115377200D01*
X59090475Y-115377200D02*
X58995237Y-115424819D01*
X58995237Y-115424819D02*
X58804761Y-115424819D01*
X58804761Y-115424819D02*
X58709523Y-115377200D01*
X58709523Y-115377200D02*
X58661904Y-115329580D01*
X58661904Y-115329580D02*
X58614285Y-115234342D01*
X58614285Y-115234342D02*
X58614285Y-115043866D01*
X58614285Y-115043866D02*
X58661904Y-114948628D01*
X58661904Y-114948628D02*
X58709523Y-114901009D01*
X58709523Y-114901009D02*
X58804761Y-114853390D01*
X54159580Y-75757142D02*
X54207200Y-75709523D01*
X54207200Y-75709523D02*
X54254819Y-75566666D01*
X54254819Y-75566666D02*
X54254819Y-75471428D01*
X54254819Y-75471428D02*
X54207200Y-75328571D01*
X54207200Y-75328571D02*
X54111961Y-75233333D01*
X54111961Y-75233333D02*
X54016723Y-75185714D01*
X54016723Y-75185714D02*
X53826247Y-75138095D01*
X53826247Y-75138095D02*
X53683390Y-75138095D01*
X53683390Y-75138095D02*
X53492914Y-75185714D01*
X53492914Y-75185714D02*
X53397676Y-75233333D01*
X53397676Y-75233333D02*
X53302438Y-75328571D01*
X53302438Y-75328571D02*
X53254819Y-75471428D01*
X53254819Y-75471428D02*
X53254819Y-75566666D01*
X53254819Y-75566666D02*
X53302438Y-75709523D01*
X53302438Y-75709523D02*
X53350057Y-75757142D01*
X53350057Y-76138095D02*
X53302438Y-76185714D01*
X53302438Y-76185714D02*
X53254819Y-76280952D01*
X53254819Y-76280952D02*
X53254819Y-76519047D01*
X53254819Y-76519047D02*
X53302438Y-76614285D01*
X53302438Y-76614285D02*
X53350057Y-76661904D01*
X53350057Y-76661904D02*
X53445295Y-76709523D01*
X53445295Y-76709523D02*
X53540533Y-76709523D01*
X53540533Y-76709523D02*
X53683390Y-76661904D01*
X53683390Y-76661904D02*
X54254819Y-76090476D01*
X54254819Y-76090476D02*
X54254819Y-76709523D01*
X54254819Y-77185714D02*
X54254819Y-77376190D01*
X54254819Y-77376190D02*
X54207200Y-77471428D01*
X54207200Y-77471428D02*
X54159580Y-77519047D01*
X54159580Y-77519047D02*
X54016723Y-77614285D01*
X54016723Y-77614285D02*
X53826247Y-77661904D01*
X53826247Y-77661904D02*
X53445295Y-77661904D01*
X53445295Y-77661904D02*
X53350057Y-77614285D01*
X53350057Y-77614285D02*
X53302438Y-77566666D01*
X53302438Y-77566666D02*
X53254819Y-77471428D01*
X53254819Y-77471428D02*
X53254819Y-77280952D01*
X53254819Y-77280952D02*
X53302438Y-77185714D01*
X53302438Y-77185714D02*
X53350057Y-77138095D01*
X53350057Y-77138095D02*
X53445295Y-77090476D01*
X53445295Y-77090476D02*
X53683390Y-77090476D01*
X53683390Y-77090476D02*
X53778628Y-77138095D01*
X53778628Y-77138095D02*
X53826247Y-77185714D01*
X53826247Y-77185714D02*
X53873866Y-77280952D01*
X53873866Y-77280952D02*
X53873866Y-77471428D01*
X53873866Y-77471428D02*
X53826247Y-77566666D01*
X53826247Y-77566666D02*
X53778628Y-77614285D01*
X53778628Y-77614285D02*
X53683390Y-77661904D01*
X57359580Y-56157142D02*
X57407200Y-56109523D01*
X57407200Y-56109523D02*
X57454819Y-55966666D01*
X57454819Y-55966666D02*
X57454819Y-55871428D01*
X57454819Y-55871428D02*
X57407200Y-55728571D01*
X57407200Y-55728571D02*
X57311961Y-55633333D01*
X57311961Y-55633333D02*
X57216723Y-55585714D01*
X57216723Y-55585714D02*
X57026247Y-55538095D01*
X57026247Y-55538095D02*
X56883390Y-55538095D01*
X56883390Y-55538095D02*
X56692914Y-55585714D01*
X56692914Y-55585714D02*
X56597676Y-55633333D01*
X56597676Y-55633333D02*
X56502438Y-55728571D01*
X56502438Y-55728571D02*
X56454819Y-55871428D01*
X56454819Y-55871428D02*
X56454819Y-55966666D01*
X56454819Y-55966666D02*
X56502438Y-56109523D01*
X56502438Y-56109523D02*
X56550057Y-56157142D01*
X56788152Y-57014285D02*
X57454819Y-57014285D01*
X56407200Y-56776190D02*
X57121485Y-56538095D01*
X57121485Y-56538095D02*
X57121485Y-57157142D01*
X56550057Y-57490476D02*
X56502438Y-57538095D01*
X56502438Y-57538095D02*
X56454819Y-57633333D01*
X56454819Y-57633333D02*
X56454819Y-57871428D01*
X56454819Y-57871428D02*
X56502438Y-57966666D01*
X56502438Y-57966666D02*
X56550057Y-58014285D01*
X56550057Y-58014285D02*
X56645295Y-58061904D01*
X56645295Y-58061904D02*
X56740533Y-58061904D01*
X56740533Y-58061904D02*
X56883390Y-58014285D01*
X56883390Y-58014285D02*
X57454819Y-57442857D01*
X57454819Y-57442857D02*
X57454819Y-58061904D01*
D11*
%TO.C,R7*%
X59637258Y-93277500D02*
X59162742Y-93277500D01*
X59637258Y-94322500D02*
X59162742Y-94322500D01*
%TO.C,R18*%
X54877500Y-59562742D02*
X54877500Y-60037258D01*
X55922500Y-59562742D02*
X55922500Y-60037258D01*
%TO.C,C30*%
X53290000Y-122659420D02*
X53290000Y-122940580D01*
X54310000Y-122659420D02*
X54310000Y-122940580D01*
%TO.C,R10*%
X58077500Y-100437258D02*
X58077500Y-99962742D01*
X59122500Y-100437258D02*
X59122500Y-99962742D01*
%TO.C,C43*%
X53290000Y-59659420D02*
X53290000Y-59940580D01*
X54310000Y-59659420D02*
X54310000Y-59940580D01*
%TO.C,R5*%
X59677500Y-118562742D02*
X59677500Y-119037258D01*
X60722500Y-118562742D02*
X60722500Y-119037258D01*
%TO.C,C35*%
X57659420Y-124690000D02*
X57940580Y-124690000D01*
X57659420Y-125710000D02*
X57940580Y-125710000D01*
%TO.C,R22*%
X41437258Y-45277500D02*
X40962742Y-45277500D01*
X41437258Y-46322500D02*
X40962742Y-46322500D01*
%TO.C,C41*%
X57659420Y-61690000D02*
X57940580Y-61690000D01*
X57659420Y-62710000D02*
X57940580Y-62710000D01*
%TO.C,C33*%
X57659420Y-81290000D02*
X57940580Y-81290000D01*
X57659420Y-82310000D02*
X57940580Y-82310000D01*
%TO.C,R15*%
X54877500Y-122562742D02*
X54877500Y-123037258D01*
X55922500Y-122562742D02*
X55922500Y-123037258D01*
%TO.C,R6*%
X59677500Y-121562742D02*
X59677500Y-122037258D01*
X60722500Y-121562742D02*
X60722500Y-122037258D01*
%TO.C,R17*%
X58077500Y-60037258D02*
X58077500Y-59562742D01*
X59122500Y-60037258D02*
X59122500Y-59562742D01*
%TO.C,Q4*%
X26900000Y-49550000D02*
X26900000Y-50850000D01*
X28700000Y-49550000D02*
X28700000Y-50850000D01*
D10*
X28385000Y-51450000D02*
G75*
G02*
X28235000Y-51450000I-75000J0D01*
G01*
X28235000Y-51450000D02*
G75*
G02*
X28385000Y-51450000I75000J0D01*
G01*
D11*
%TO.C,R20*%
X59677500Y-58562742D02*
X59677500Y-59037258D01*
X60722500Y-58562742D02*
X60722500Y-59037258D01*
%TO.C,Q5*%
X31900000Y-49550000D02*
X31900000Y-50850000D01*
X33700000Y-49550000D02*
X33700000Y-50850000D01*
D10*
X33385000Y-51450000D02*
G75*
G02*
X33235000Y-51450000I-75000J0D01*
G01*
X33235000Y-51450000D02*
G75*
G02*
X33385000Y-51450000I75000J0D01*
G01*
D11*
%TO.C,R24*%
X31437258Y-45277500D02*
X30962742Y-45277500D01*
X31437258Y-46322500D02*
X30962742Y-46322500D01*
%TO.C,R19*%
X59677500Y-55562742D02*
X59677500Y-56037258D01*
X60722500Y-55562742D02*
X60722500Y-56037258D01*
%TO.C,R9*%
X59637258Y-72477500D02*
X59162742Y-72477500D01*
X59637258Y-73522500D02*
X59162742Y-73522500D01*
%TO.C,C32*%
X56490000Y-100340580D02*
X56490000Y-100059420D01*
X57510000Y-100340580D02*
X57510000Y-100059420D01*
%TO.C,R2*%
X59677500Y-98962742D02*
X59677500Y-99437258D01*
X60722500Y-98962742D02*
X60722500Y-99437258D01*
%TO.C,C28*%
X53290000Y-100059420D02*
X53290000Y-100340580D01*
X54310000Y-100059420D02*
X54310000Y-100340580D01*
%TO.C,C31*%
X57659420Y-102090000D02*
X57940580Y-102090000D01*
X57659420Y-103110000D02*
X57940580Y-103110000D01*
%TO.C,R21*%
X36437258Y-45277500D02*
X35962742Y-45277500D01*
X36437258Y-46322500D02*
X35962742Y-46322500D01*
%TO.C,R1*%
X59677500Y-95962742D02*
X59677500Y-96437258D01*
X60722500Y-95962742D02*
X60722500Y-96437258D01*
%TO.C,R11*%
X54877500Y-99962742D02*
X54877500Y-100437258D01*
X55922500Y-99962742D02*
X55922500Y-100437258D01*
%TO.C,C36*%
X56490000Y-122940580D02*
X56490000Y-122659420D01*
X57510000Y-122940580D02*
X57510000Y-122659420D01*
%TO.C,R3*%
X59677500Y-75162742D02*
X59677500Y-75637258D01*
X60722500Y-75162742D02*
X60722500Y-75637258D01*
%TO.C,R14*%
X58077500Y-123037258D02*
X58077500Y-122562742D01*
X59122500Y-123037258D02*
X59122500Y-122562742D01*
%TO.C,R12*%
X58077500Y-79637258D02*
X58077500Y-79162742D01*
X59122500Y-79637258D02*
X59122500Y-79162742D01*
%TO.C,R16*%
X59637258Y-52877500D02*
X59162742Y-52877500D01*
X59637258Y-53922500D02*
X59162742Y-53922500D01*
%TO.C,C34*%
X56490000Y-79540580D02*
X56490000Y-79259420D01*
X57510000Y-79540580D02*
X57510000Y-79259420D01*
%TO.C,R4*%
X59677500Y-78162742D02*
X59677500Y-78637258D01*
X60722500Y-78162742D02*
X60722500Y-78637258D01*
%TO.C,Q3*%
X41900000Y-49550000D02*
X41900000Y-50850000D01*
X43700000Y-49550000D02*
X43700000Y-50850000D01*
D10*
X43385000Y-51450000D02*
G75*
G02*
X43235000Y-51450000I-75000J0D01*
G01*
X43235000Y-51450000D02*
G75*
G02*
X43385000Y-51450000I75000J0D01*
G01*
D11*
%TO.C,Q2*%
X36900000Y-49550000D02*
X36900000Y-50850000D01*
X38700000Y-49550000D02*
X38700000Y-50850000D01*
D10*
X38385000Y-51450000D02*
G75*
G02*
X38235000Y-51450000I-75000J0D01*
G01*
X38235000Y-51450000D02*
G75*
G02*
X38385000Y-51450000I75000J0D01*
G01*
D11*
%TO.C,R13*%
X54877500Y-79162742D02*
X54877500Y-79637258D01*
X55922500Y-79162742D02*
X55922500Y-79637258D01*
%TO.C,R23*%
X26437258Y-45277500D02*
X25962742Y-45277500D01*
X26437258Y-46322500D02*
X25962742Y-46322500D01*
%TO.C,R8*%
X59637258Y-115877500D02*
X59162742Y-115877500D01*
X59637258Y-116922500D02*
X59162742Y-116922500D01*
%TO.C,C29*%
X53290000Y-79259420D02*
X53290000Y-79540580D01*
X54310000Y-79259420D02*
X54310000Y-79540580D01*
%TO.C,C42*%
X56490000Y-59940580D02*
X56490000Y-59659420D01*
X57510000Y-59940580D02*
X57510000Y-59659420D01*
%TD*%
M02*
