%TF.GenerationSoftware,KiCad,Pcbnew,9.0.0-unknown-202503082020~491af0df39~ubuntu22.04.1*%
%TF.CreationDate,2025-03-09T22:30:16+01:00*%
%TF.ProjectId,PowkiBoard,506f776b-6942-46f6-9172-642e6b696361,rev?*%
%TF.SameCoordinates,Original*%
%TF.FileFunction,Paste,Top*%
%TF.FilePolarity,Positive*%
%FSLAX46Y46*%
G04 Gerber Fmt 4.6, Leading zero omitted, Abs format (unit mm)*
G04 Created by KiCad (PCBNEW 9.0.0-unknown-202503082020~491af0df39~ubuntu22.04.1) date 2025-03-09 22:30:16*
%MOMM*%
%LPD*%
G01*
G04 APERTURE LIST*
G04 Aperture macros list*
%AMRoundRect*
0 Rectangle with rounded corners*
0 $1 Rounding radius*
0 $2 $3 $4 $5 $6 $7 $8 $9 X,Y pos of 4 corners*
0 Add a 4 corners polygon primitive as box body*
4,1,4,$2,$3,$4,$5,$6,$7,$8,$9,$2,$3,0*
0 Add four circle primitives for the rounded corners*
1,1,$1+$1,$2,$3*
1,1,$1+$1,$4,$5*
1,1,$1+$1,$6,$7*
1,1,$1+$1,$8,$9*
0 Add four rect primitives between the rounded corners*
20,1,$1+$1,$2,$3,$4,$5,0*
20,1,$1+$1,$4,$5,$6,$7,0*
20,1,$1+$1,$6,$7,$8,$9,0*
20,1,$1+$1,$8,$9,$2,$3,0*%
G04 Aperture macros list end*
%ADD10RoundRect,0.150000X-0.150000X0.587500X-0.150000X-0.587500X0.150000X-0.587500X0.150000X0.587500X0*%
%ADD11RoundRect,0.225000X-0.225000X-0.250000X0.225000X-0.250000X0.225000X0.250000X-0.225000X0.250000X0*%
%ADD12RoundRect,0.503250X-1.174250X-1.246750X1.174250X-1.246750X1.174250X1.246750X-1.174250X1.246750X0*%
%ADD13RoundRect,0.250000X-0.650000X0.325000X-0.650000X-0.325000X0.650000X-0.325000X0.650000X0.325000X0*%
%ADD14RoundRect,0.250000X-1.100000X0.325000X-1.100000X-0.325000X1.100000X-0.325000X1.100000X0.325000X0*%
%ADD15RoundRect,0.300000X-0.325000X-0.300000X0.325000X-0.300000X0.325000X0.300000X-0.325000X0.300000X0*%
%ADD16RoundRect,0.317500X0.382500X0.317500X-0.382500X0.317500X-0.382500X-0.317500X0.382500X-0.317500X0*%
%ADD17RoundRect,0.100000X-0.100000X0.155000X-0.100000X-0.155000X0.100000X-0.155000X0.100000X0.155000X0*%
%ADD18RoundRect,0.182500X-0.182500X-0.322500X0.182500X-0.322500X0.182500X0.322500X-0.182500X0.322500X0*%
%ADD19RoundRect,0.062500X-0.312500X-0.062500X0.312500X-0.062500X0.312500X0.062500X-0.312500X0.062500X0*%
%ADD20RoundRect,0.200000X0.275000X-0.200000X0.275000X0.200000X-0.275000X0.200000X-0.275000X-0.200000X0*%
%ADD21RoundRect,0.600000X-1.400000X-1.900000X1.400000X-1.900000X1.400000X1.900000X-1.400000X1.900000X0*%
%ADD22R,2.600000X4.600000*%
%ADD23RoundRect,0.525000X-1.340000X-1.225000X1.340000X-1.225000X1.340000X1.225000X-1.340000X1.225000X0*%
G04 APERTURE END LIST*
D10*
%TO.C,D10*%
X185250000Y-57862500D03*
X183350000Y-57862500D03*
X184300000Y-59737500D03*
%TD*%
D11*
%TO.C,C17*%
X196359462Y-80900000D03*
X197909462Y-80900000D03*
%TD*%
D12*
%TO.C,L4*%
X203454731Y-61500000D03*
X209359731Y-61500000D03*
%TD*%
D13*
%TO.C,C9*%
X193904731Y-83000000D03*
X193904731Y-85950000D03*
%TD*%
D14*
%TO.C,C27*%
X225500000Y-119900000D03*
X225500000Y-122850000D03*
%TD*%
D13*
%TO.C,C38*%
X191404731Y-66525000D03*
X191404731Y-69475000D03*
%TD*%
%TO.C,C11*%
X188904731Y-83000000D03*
X188904731Y-85950000D03*
%TD*%
D15*
%TO.C,D2*%
X205200000Y-123290000D03*
X205200000Y-121600000D03*
X205200000Y-119940000D03*
X203500000Y-123290000D03*
X203500000Y-121600000D03*
X203500000Y-119940000D03*
X201800000Y-123290000D03*
X201800000Y-121600000D03*
X201800000Y-119940000D03*
D16*
X204540000Y-125405000D03*
X202460000Y-125405000D03*
%TD*%
D13*
%TO.C,C3*%
X188904731Y-100500000D03*
X188904731Y-103450000D03*
%TD*%
D17*
%TO.C,Q3*%
X177400000Y-54645000D03*
X178400000Y-54645000D03*
X177900000Y-53355000D03*
%TD*%
D14*
%TO.C,C21*%
X215004731Y-83000000D03*
X215004731Y-85950000D03*
%TD*%
D13*
%TO.C,C1*%
X193904731Y-100500000D03*
X193904731Y-103450000D03*
%TD*%
%TO.C,C13*%
X193904731Y-119900000D03*
X193904731Y-122850000D03*
%TD*%
D18*
%TO.C,U2*%
X197379731Y-82875000D03*
X197379731Y-84125000D03*
X198279731Y-82875000D03*
X198279731Y-84125000D03*
D19*
X196354731Y-82500000D03*
X196354731Y-83000000D03*
X196354731Y-83500000D03*
X196354731Y-84000000D03*
X196354731Y-84500000D03*
X199304731Y-84500000D03*
X199304731Y-84000000D03*
X199304731Y-83500000D03*
X199304731Y-83000000D03*
X199304731Y-82500000D03*
%TD*%
D13*
%TO.C,C39*%
X188904731Y-66500000D03*
X188904731Y-69450000D03*
%TD*%
D20*
%TO.C,R24*%
X192600000Y-55125000D03*
X192600000Y-53475000D03*
%TD*%
%TO.C,R22*%
X181000000Y-55125000D03*
X181000000Y-53475000D03*
%TD*%
D13*
%TO.C,C15*%
X188904731Y-119900000D03*
X188904731Y-122850000D03*
%TD*%
D14*
%TO.C,C7*%
X211500000Y-100500000D03*
X211500000Y-103450000D03*
%TD*%
D17*
%TO.C,Q5*%
X189000000Y-54645000D03*
X190000000Y-54645000D03*
X189500000Y-53355000D03*
%TD*%
D14*
%TO.C,C24*%
X215000000Y-119900000D03*
X215000000Y-122850000D03*
%TD*%
D20*
%TO.C,R21*%
X175200000Y-55125000D03*
X175200000Y-53475000D03*
%TD*%
D18*
%TO.C,U4*%
X197379731Y-66375000D03*
X197379731Y-67625000D03*
X198279731Y-66375000D03*
X198279731Y-67625000D03*
D19*
X196354731Y-66000000D03*
X196354731Y-66500000D03*
X196354731Y-67000000D03*
X196354731Y-67500000D03*
X196354731Y-68000000D03*
X199304731Y-68000000D03*
X199304731Y-67500000D03*
X199304731Y-67000000D03*
X199304731Y-66500000D03*
X199304731Y-66000000D03*
%TD*%
D21*
%TO.C,L3*%
X203550000Y-113500000D03*
X212450000Y-113500000D03*
%TD*%
D18*
%TO.C,U1*%
X197379731Y-100375000D03*
X197379731Y-101625000D03*
X198279731Y-100375000D03*
X198279731Y-101625000D03*
D19*
X196354731Y-100000000D03*
X196354731Y-100500000D03*
X196354731Y-101000000D03*
X196354731Y-101500000D03*
X196354731Y-102000000D03*
X199304731Y-102000000D03*
X199304731Y-101500000D03*
X199304731Y-101000000D03*
X199304731Y-100500000D03*
X199304731Y-100000000D03*
%TD*%
D17*
%TO.C,Q4*%
X183200000Y-54645000D03*
X184200000Y-54645000D03*
X183700000Y-53355000D03*
%TD*%
D20*
%TO.C,R23*%
X186800000Y-55125000D03*
X186800000Y-53475000D03*
%TD*%
D13*
%TO.C,C4*%
X186404731Y-100500000D03*
X186404731Y-103450000D03*
%TD*%
D10*
%TO.C,D9*%
X173650000Y-57862500D03*
X171750000Y-57862500D03*
X172700000Y-59737500D03*
%TD*%
D14*
%TO.C,C6*%
X208000000Y-100500000D03*
X208000000Y-103450000D03*
%TD*%
%TO.C,C19*%
X208004731Y-83000000D03*
X208004731Y-85950000D03*
%TD*%
D22*
%TO.C,U6*%
X180000000Y-82450000D03*
X180000000Y-66550000D03*
%TD*%
D23*
%TO.C,L1*%
X203604731Y-95000000D03*
X210284731Y-95000000D03*
%TD*%
D15*
%TO.C,D1*%
X205200000Y-103890000D03*
X205200000Y-102200000D03*
X205200000Y-100540000D03*
X203500000Y-103890000D03*
X203500000Y-102200000D03*
X203500000Y-100540000D03*
X201800000Y-103890000D03*
X201800000Y-102200000D03*
X201800000Y-100540000D03*
D16*
X204540000Y-106005000D03*
X202460000Y-106005000D03*
%TD*%
D18*
%TO.C,U3*%
X197379731Y-119775000D03*
X197379731Y-121025000D03*
X198279731Y-119775000D03*
X198279731Y-121025000D03*
D19*
X196354731Y-119400000D03*
X196354731Y-119900000D03*
X196354731Y-120400000D03*
X196354731Y-120900000D03*
X196354731Y-121400000D03*
X199304731Y-121400000D03*
X199304731Y-120900000D03*
X199304731Y-120400000D03*
X199304731Y-119900000D03*
X199304731Y-119400000D03*
%TD*%
D11*
%TO.C,C5*%
X196354731Y-98400000D03*
X197904731Y-98400000D03*
%TD*%
D12*
%TO.C,L2*%
X203452231Y-78000000D03*
X209357231Y-78000000D03*
%TD*%
D14*
%TO.C,C46*%
X211454731Y-66550000D03*
X211454731Y-69500000D03*
%TD*%
D11*
%TO.C,C44*%
X196354731Y-64400000D03*
X197904731Y-64400000D03*
%TD*%
%TO.C,C18*%
X196354731Y-117800000D03*
X197904731Y-117800000D03*
%TD*%
D22*
%TO.C,U5*%
X179500000Y-116450000D03*
X179500000Y-100550000D03*
%TD*%
D17*
%TO.C,Q2*%
X171600000Y-54645000D03*
X172600000Y-54645000D03*
X172100000Y-53355000D03*
%TD*%
D14*
%TO.C,C26*%
X222000000Y-119900000D03*
X222000000Y-122850000D03*
%TD*%
D13*
%TO.C,C12*%
X186404731Y-83000000D03*
X186404731Y-85950000D03*
%TD*%
%TO.C,C16*%
X186404731Y-119900000D03*
X186404731Y-122850000D03*
%TD*%
D14*
%TO.C,C47*%
X214954731Y-66550000D03*
X214954731Y-69500000D03*
%TD*%
%TO.C,C20*%
X211504731Y-83000000D03*
X211504731Y-85950000D03*
%TD*%
%TO.C,C45*%
X207954731Y-66550000D03*
X207954731Y-69500000D03*
%TD*%
D13*
%TO.C,C10*%
X191404731Y-83000000D03*
X191404731Y-85950000D03*
%TD*%
D15*
%TO.C,D3*%
X205204731Y-86390000D03*
X205204731Y-84700000D03*
X205204731Y-83040000D03*
X203504731Y-86390000D03*
X203504731Y-84700000D03*
X203504731Y-83040000D03*
X201804731Y-86390000D03*
X201804731Y-84700000D03*
X201804731Y-83040000D03*
D16*
X204544731Y-88505000D03*
X202464731Y-88505000D03*
%TD*%
D13*
%TO.C,C2*%
X191404731Y-100500000D03*
X191404731Y-103450000D03*
%TD*%
D14*
%TO.C,C23*%
X211500000Y-119900000D03*
X211500000Y-122850000D03*
%TD*%
%TO.C,C8*%
X215000000Y-100500000D03*
X215000000Y-103450000D03*
%TD*%
D13*
%TO.C,C40*%
X186404731Y-66500000D03*
X186404731Y-69450000D03*
%TD*%
D14*
%TO.C,C22*%
X208000000Y-119900000D03*
X208000000Y-122850000D03*
%TD*%
%TO.C,C25*%
X218500000Y-119900000D03*
X218500000Y-122850000D03*
%TD*%
D13*
%TO.C,C37*%
X193904731Y-66500000D03*
X193904731Y-69450000D03*
%TD*%
%TO.C,C14*%
X191404731Y-119900000D03*
X191404731Y-122850000D03*
%TD*%
D15*
%TO.C,D4*%
X205194731Y-69885000D03*
X205194731Y-68195000D03*
X205194731Y-66535000D03*
X203494731Y-69885000D03*
X203494731Y-68195000D03*
X203494731Y-66535000D03*
X201794731Y-69885000D03*
X201794731Y-68195000D03*
X201794731Y-66535000D03*
D16*
X204534731Y-72000000D03*
X202454731Y-72000000D03*
%TD*%
M02*
