M48
; DRILL file {KiCad 9.0.1-unknown-202503302321~efea324ee4~ubuntu22.04.1} date 2025-03-31T19:49:44+0200
; FORMAT={-:-/ absolute / metric / decimal}
; #@! TF.CreationDate,2025-03-31T19:49:44+02:00
; #@! TF.GenerationSoftware,Kicad,Pcbnew,9.0.1-unknown-202503302321~efea324ee4~ubuntu22.04.1
; #@! TF.FileFunction,MixedPlating,1,4
FMAT,2
METRIC
; #@! TA.AperFunction,Plated,PTH,ViaDrill
T1C0.300
; #@! TA.AperFunction,Plated,PTH,ComponentDrill
T2C0.900
; #@! TA.AperFunction,Plated,PTH,ComponentDrill
T3C1.190
; #@! TA.AperFunction,Plated,PTH,ComponentDrill
T4C1.200
; #@! TA.AperFunction,Plated,PTH,ComponentDrill
T5C1.300
; #@! TA.AperFunction,Plated,PTH,ComponentDrill
T6C2.000
; #@! TA.AperFunction,NonPlated,NPTH,ComponentDrill
T7C1.300
; #@! TA.AperFunction,NonPlated,NPTH,ComponentDrill
T8C1.700
; #@! TA.AperFunction,NonPlated,NPTH,ComponentDrill
T9C3.200
%
G90
G05
T1
X29.25Y-51.062
X30.4Y-82.2
X30.8Y-82.6
X31.15Y-51.062
X31.2Y-83.0
X31.6Y-52.4
X31.6Y-83.4
X32.0Y-83.8
X32.2Y-52.4
X32.4Y-80.2
X32.4Y-84.2
X32.8Y-52.4
X32.8Y-80.6
X32.8Y-84.6
X33.2Y-81.0
X33.2Y-85.0
X33.4Y-52.4
X33.6Y-81.4
X33.6Y-85.4
X34.0Y-52.4
X34.0Y-81.8
X34.0Y-85.8
X34.0Y-95.6
X34.4Y-82.2
X34.4Y-95.2
X34.8Y-51.4
X34.8Y-82.6
X34.8Y-94.8
X35.2Y-51.8
X35.2Y-83.0
X35.2Y-94.4
X35.6Y-83.4
X35.6Y-94.0
X35.8Y-52.0
X36.0Y-83.8
X36.4Y-52.0
X36.6Y-97.2
X37.0Y-52.0
X37.0Y-96.8
X37.4Y-96.4
X37.6Y-52.0
X37.8Y-96.0
X38.2Y-52.0
X38.2Y-95.6
X39.25Y-51.062
X40.2Y-50.4
X40.2Y-51.0
X40.2Y-71.4
X40.2Y-72.0
X40.2Y-72.6
X40.2Y-73.2
X40.2Y-79.0
X40.2Y-79.6
X40.2Y-80.2
X40.2Y-80.8
X40.2Y-81.4
X40.2Y-82.0
X40.2Y-82.6
X40.2Y-83.2
X40.2Y-83.8
X40.6Y-100.2
X40.6Y-100.8
X40.6Y-101.4
X40.6Y-102.0
X40.8Y-102.6
X40.8Y-103.2
X40.8Y-103.8
X40.8Y-104.4
X40.8Y-105.0
X40.8Y-105.6
X40.8Y-106.2
X40.8Y-106.8
X41.15Y-51.062
X41.2Y-116.0
X41.2Y-116.6
X41.2Y-117.2
X41.2Y-117.8
X41.2Y-118.4
X41.4Y-66.8
X41.4Y-68.0
X41.4Y-69.2
X41.4Y-70.4
X41.4Y-85.0
X41.4Y-86.2
X41.4Y-87.4
X41.4Y-88.6
X41.6Y-66.2
X41.6Y-67.4
X41.6Y-68.6
X41.6Y-69.8
X41.6Y-71.0
X41.6Y-84.4
X41.6Y-85.6
X41.6Y-86.8
X41.6Y-88.0
X41.6Y-89.2
X42.0Y-51.6
X42.0Y-66.8
X42.0Y-68.0
X42.0Y-69.2
X42.0Y-70.4
X42.0Y-85.0
X42.0Y-86.2
X42.0Y-87.4
X42.0Y-88.6
X42.2Y-53.6
X42.2Y-56.6
X42.2Y-66.2
X42.2Y-67.4
X42.2Y-68.6
X42.2Y-69.8
X42.2Y-71.0
X42.2Y-84.4
X42.2Y-85.6
X42.2Y-86.8
X42.2Y-88.0
X42.2Y-89.2
X42.6Y-51.6
X42.6Y-66.8
X42.6Y-68.0
X42.6Y-69.2
X42.6Y-70.4
X42.6Y-85.0
X42.6Y-86.2
X42.6Y-87.4
X42.6Y-88.6
X42.8Y-53.6
X42.8Y-56.6
X42.8Y-66.2
X42.8Y-67.4
X42.8Y-68.6
X42.8Y-69.8
X42.8Y-71.0
X42.8Y-84.4
X42.8Y-85.6
X42.8Y-86.8
X42.8Y-88.0
X42.8Y-89.2
X43.2Y-51.6
X43.2Y-65.0
X43.2Y-66.8
X43.2Y-68.0
X43.2Y-69.2
X43.2Y-70.4
X43.2Y-85.0
X43.2Y-86.2
X43.2Y-87.4
X43.2Y-88.6
X43.4Y-53.6
X43.4Y-56.6
X43.4Y-66.2
X43.4Y-67.4
X43.4Y-68.6
X43.4Y-69.8
X43.4Y-71.0
X43.4Y-84.4
X43.4Y-85.6
X43.4Y-86.8
X43.4Y-88.0
X43.4Y-89.2
X43.8Y-65.0
X44.0Y-53.6
X44.0Y-56.6
X44.4Y-65.0
X44.6Y-45.8
X44.6Y-46.4
X44.6Y-47.0
X44.6Y-47.6
X44.6Y-48.2
X44.6Y-48.8
X44.6Y-49.4
X44.6Y-50.0
X44.6Y-50.6
X44.6Y-53.6
X44.6Y-56.6
X44.6Y-69.6
X44.6Y-70.2
X44.6Y-70.8
X44.6Y-71.4
X44.6Y-72.0
X44.6Y-72.6
X44.6Y-73.2
X44.6Y-79.0
X44.6Y-79.6
X44.6Y-80.2
X44.6Y-80.8
X44.6Y-81.4
X44.6Y-82.0
X44.6Y-82.6
X44.6Y-83.2
X44.6Y-83.8
X44.6Y-89.8
X44.6Y-90.4
X44.6Y-91.0
X44.6Y-91.6
X44.6Y-92.2
X44.6Y-92.8
X44.6Y-93.4
X44.6Y-94.0
X44.6Y-99.8
X44.6Y-100.4
X44.6Y-101.0
X44.6Y-101.6
X44.6Y-102.2
X44.6Y-102.8
X44.6Y-103.4
X44.6Y-104.0
X44.6Y-104.6
X44.6Y-105.2
X44.6Y-105.8
X44.6Y-106.4
X44.6Y-107.0
X44.6Y-107.6
X44.6Y-108.2
X44.6Y-108.8
X44.6Y-109.4
X44.6Y-110.0
X44.6Y-110.6
X44.6Y-111.2
X44.6Y-111.8
X44.6Y-112.4
X44.6Y-113.0
X44.6Y-113.6
X44.6Y-114.2
X44.6Y-114.8
X44.6Y-115.4
X44.6Y-116.0
X44.6Y-116.6
X44.8Y-59.0
X44.8Y-122.0
X45.0Y-51.0
X45.0Y-65.0
X45.0Y-69.2
X45.0Y-78.6
X45.0Y-84.2
X45.0Y-89.4
X45.0Y-99.4
X45.2Y-53.6
X45.2Y-56.6
X45.2Y-73.2
X45.2Y-94.0
X45.2Y-116.6
X45.4Y-59.0
X45.4Y-122.0
X45.6Y-51.0
X45.6Y-65.0
X45.6Y-69.2
X45.6Y-78.6
X45.6Y-84.2
X45.6Y-89.4
X45.6Y-99.4
X45.8Y-53.6
X45.8Y-56.6
X45.8Y-73.2
X45.8Y-94.0
X45.8Y-116.6
X46.0Y-59.0
X46.0Y-122.0
X46.2Y-51.0
X46.2Y-65.0
X46.2Y-69.2
X46.2Y-78.6
X46.2Y-84.2
X46.2Y-89.4
X46.2Y-99.4
X46.4Y-53.6
X46.4Y-56.6
X46.4Y-73.2
X46.4Y-94.0
X46.4Y-116.6
X46.8Y-51.0
X46.8Y-65.0
X46.8Y-69.2
X46.8Y-84.2
X46.8Y-89.4
X47.0Y-53.6
X47.0Y-56.6
X47.0Y-73.2
X47.0Y-94.0
X47.0Y-116.6
X47.2Y-59.0
X47.2Y-78.6
X47.2Y-99.4
X47.2Y-122.0
X47.4Y-51.0
X47.4Y-65.0
X47.4Y-69.2
X47.4Y-84.2
X47.4Y-89.4
X47.6Y-53.6
X47.6Y-56.6
X47.6Y-73.2
X47.6Y-94.0
X47.6Y-116.6
X47.8Y-59.0
X47.8Y-78.6
X47.8Y-99.4
X47.8Y-122.0
X48.0Y-51.0
X48.0Y-65.0
X48.0Y-69.2
X48.0Y-84.2
X48.0Y-89.4
X48.2Y-73.2
X48.2Y-116.6
X48.4Y-59.0
X48.4Y-78.6
X48.4Y-99.4
X48.4Y-122.0
X49.6Y-59.0
X49.6Y-78.6
X49.6Y-99.4
X49.6Y-122.0
X50.2Y-59.0
X50.2Y-78.6
X50.2Y-99.4
X50.2Y-122.0
X50.8Y-59.0
X50.8Y-78.6
X50.8Y-99.4
X50.8Y-122.0
X51.4Y-51.6
X51.6Y-122.0
X52.2Y-122.0
X52.4Y-71.0
X52.4Y-71.6
X52.4Y-72.2
X52.4Y-72.8
X52.6Y-64.4
X52.6Y-65.0
X52.6Y-69.2
X52.6Y-69.8
X52.6Y-70.4
X52.8Y-73.2
X52.8Y-122.0
X53.0Y-89.6
X53.0Y-90.2
X53.0Y-90.8
X53.0Y-91.4
X53.0Y-92.0
X53.2Y-83.6
X53.2Y-84.2
X53.4Y-53.4
X53.4Y-61.6
X53.4Y-81.2
X53.4Y-102.0
X53.4Y-124.6
X53.6Y-104.2
X53.6Y-104.8
X53.6Y-105.4
X53.6Y-106.0
X53.6Y-106.6
X53.6Y-107.2
X53.6Y-107.8
X53.6Y-108.4
X53.6Y-109.0
X53.6Y-109.6
X53.6Y-110.2
X53.6Y-110.8
X53.6Y-111.4
X53.6Y-112.0
X53.6Y-112.6
X53.6Y-113.2
X53.6Y-113.8
X53.6Y-114.4
X53.8Y-60.575
X53.8Y-80.175
X53.8Y-100.975
X53.8Y-123.575
X54.0Y-61.6
X54.0Y-81.2
X54.0Y-102.0
X54.0Y-124.6
X54.2Y-71.8
X54.2Y-92.6
X54.2Y-115.2
X54.6Y-61.6
X54.6Y-81.2
X54.6Y-102.0
X54.6Y-124.6
X54.8Y-119.4
X54.825Y-57.2
X54.825Y-58.0
X54.825Y-76.0
X54.825Y-76.8
X54.825Y-77.6
X54.825Y-96.8
X54.825Y-97.6
X54.825Y-98.4
X54.825Y-120.2
X54.825Y-121.0
X55.2Y-61.6
X55.2Y-81.2
X55.2Y-102.0
X55.2Y-124.6
X55.4Y-103.6
X55.4Y-104.2
X55.4Y-104.8
X55.4Y-105.4
X55.4Y-106.0
X55.4Y-106.6
X55.4Y-107.2
X55.4Y-107.8
X55.4Y-108.4
X55.4Y-109.0
X55.4Y-109.6
X55.4Y-110.2
X55.4Y-110.8
X55.4Y-111.4
X55.4Y-112.0
X55.4Y-112.6
X55.4Y-113.2
X55.4Y-113.8
X55.4Y-114.4
X55.412Y-60.612
X55.412Y-80.212
X55.412Y-101.012
X55.412Y-123.612
X55.6Y-63.8
X55.6Y-64.4
X55.6Y-65.0
X55.6Y-69.2
X55.6Y-69.8
X55.6Y-70.4
X55.6Y-71.0
X55.6Y-71.8
X55.6Y-83.0
X55.6Y-83.6
X55.6Y-84.2
X55.6Y-89.4
X55.6Y-90.0
X55.6Y-90.6
X55.6Y-91.2
X55.6Y-91.8
X55.6Y-92.6
X55.6Y-115.2
X55.8Y-55.0
X55.8Y-56.2
X55.8Y-57.4
X55.8Y-61.6
X55.8Y-62.2
X55.8Y-62.8
X55.8Y-74.6
X55.8Y-75.8
X55.8Y-77.0
X55.8Y-81.2
X55.8Y-81.8
X55.8Y-82.4
X55.8Y-95.4
X55.8Y-96.6
X55.8Y-97.8
X55.8Y-102.0
X55.8Y-102.6
X55.8Y-103.2
X55.8Y-118.0
X55.8Y-119.2
X55.8Y-120.4
X55.8Y-124.6
X55.8Y-125.2
X55.8Y-125.8
X56.0Y-55.6
X56.0Y-56.8
X56.0Y-58.0
X56.0Y-75.2
X56.0Y-76.4
X56.0Y-77.6
X56.0Y-96.0
X56.0Y-97.2
X56.0Y-98.4
X56.0Y-118.6
X56.0Y-119.8
X56.0Y-121.0
X56.4Y-55.0
X56.4Y-56.2
X56.4Y-57.4
X56.4Y-74.6
X56.4Y-75.8
X56.4Y-77.0
X56.4Y-95.4
X56.4Y-96.6
X56.4Y-97.8
X56.4Y-118.0
X56.4Y-119.2
X56.4Y-120.4
X56.6Y-55.6
X56.6Y-56.8
X56.6Y-58.0
X56.6Y-75.2
X56.6Y-76.4
X56.6Y-77.6
X56.6Y-96.0
X56.6Y-97.2
X56.6Y-98.4
X56.6Y-118.6
X56.6Y-119.8
X56.6Y-121.0
X57.0Y-55.0
X57.0Y-56.2
X57.0Y-57.4
X57.0Y-74.6
X57.0Y-75.8
X57.0Y-77.0
X57.0Y-95.4
X57.0Y-96.6
X57.0Y-97.8
X57.0Y-118.0
X57.0Y-119.2
X57.0Y-120.4
X57.012Y-60.587
X57.012Y-80.188
X57.012Y-100.987
X57.012Y-123.587
X57.025Y-62.2
X57.025Y-81.8
X57.025Y-102.6
X57.025Y-125.2
X57.2Y-55.6
X57.2Y-56.8
X57.2Y-58.0
X57.2Y-75.2
X57.2Y-76.4
X57.2Y-77.6
X57.2Y-96.0
X57.2Y-97.2
X57.2Y-98.4
X57.2Y-118.6
X57.2Y-119.8
X57.2Y-121.0
X57.6Y-55.0
X57.6Y-56.2
X57.6Y-57.4
X57.6Y-74.6
X57.6Y-75.8
X57.6Y-77.0
X57.6Y-95.4
X57.6Y-96.6
X57.6Y-97.8
X57.6Y-118.0
X57.6Y-119.2
X57.6Y-120.4
X57.8Y-55.6
X57.8Y-56.8
X57.8Y-75.2
X57.8Y-76.4
X57.8Y-96.0
X57.8Y-97.2
X57.8Y-118.6
X57.8Y-119.8
X58.775Y-54.8
X58.775Y-57.2
X58.775Y-74.4
X58.775Y-76.8
X58.775Y-95.2
X58.775Y-97.6
X58.775Y-117.8
X58.775Y-120.2
X58.872Y-58.022
X58.872Y-77.622
X58.872Y-98.422
X58.872Y-121.022
X59.6Y-60.6
X59.6Y-80.2
X59.6Y-101.0
X59.6Y-123.6
X60.2Y-59.625
X60.2Y-60.6
X60.2Y-62.6
X60.2Y-79.225
X60.2Y-80.2
X60.2Y-82.2
X60.2Y-100.025
X60.2Y-101.0
X60.2Y-103.0
X60.2Y-122.625
X60.2Y-123.6
X60.2Y-125.6
X65.8Y-59.2
X65.8Y-78.8
X65.8Y-99.6
X65.8Y-122.2
X66.0Y-54.2
X66.0Y-73.8
X66.0Y-94.6
X66.0Y-117.2
X66.4Y-59.2
X66.4Y-78.8
X66.4Y-99.6
X66.4Y-122.2
X67.0Y-59.2
X67.0Y-78.8
X67.0Y-99.6
X67.0Y-122.2
X67.6Y-59.2
X67.6Y-78.8
X67.6Y-99.6
X67.6Y-122.2
X68.2Y-59.2
X68.2Y-78.8
X68.2Y-99.6
X68.2Y-122.2
X69.2Y-59.2
X69.2Y-78.8
X69.2Y-99.6
X69.2Y-122.2
X69.4Y-74.4
X69.4Y-75.0
X69.8Y-59.2
X69.8Y-78.8
X69.8Y-99.6
X69.8Y-122.2
X70.0Y-74.4
X70.0Y-75.0
X70.4Y-59.2
X70.4Y-78.8
X70.4Y-99.6
X70.4Y-122.2
X70.6Y-74.4
X70.6Y-75.0
X71.0Y-59.2
X71.0Y-78.8
X71.0Y-99.6
X71.0Y-122.2
X71.2Y-74.4
X71.2Y-75.0
X71.6Y-59.2
X71.6Y-78.8
X71.6Y-99.6
X71.6Y-122.2
X72.6Y-59.2
X72.6Y-78.8
X72.6Y-99.6
X72.6Y-122.2
X73.0Y-49.4
X73.0Y-50.0
X73.0Y-50.6
X73.0Y-51.2
X73.0Y-51.8
X73.0Y-52.4
X73.0Y-53.0
X73.0Y-53.6
X73.0Y-74.4
X73.0Y-75.0
X73.2Y-55.2
X73.2Y-59.2
X73.2Y-78.8
X73.2Y-99.6
X73.2Y-122.2
X73.6Y-74.4
X73.6Y-75.0
X73.8Y-55.125
X73.8Y-59.2
X73.8Y-78.8
X73.8Y-99.6
X73.8Y-122.2
X74.2Y-74.4
X74.2Y-75.0
X74.4Y-55.2
X74.4Y-59.2
X74.4Y-78.8
X74.4Y-99.6
X74.4Y-122.2
X74.6Y-49.4
X74.6Y-50.0
X74.6Y-50.6
X74.6Y-51.2
X74.6Y-51.8
X74.6Y-52.4
X74.6Y-53.0
X74.8Y-74.4
X74.8Y-75.0
X75.0Y-59.2
X75.0Y-78.8
X75.0Y-99.6
X75.0Y-122.2
X76.0Y-122.2
X76.1Y-71.2
X76.1Y-71.8
X76.1Y-72.4
X76.1Y-73.0
X76.1Y-84.2
X76.1Y-84.8
X76.1Y-85.4
X76.1Y-86.0
X76.1Y-94.6
X76.1Y-95.2
X76.1Y-95.8
X76.1Y-96.4
X76.1Y-97.0
X76.1Y-97.6
X76.6Y-122.2
X76.7Y-71.2
X76.7Y-71.8
X76.7Y-72.4
X76.7Y-73.0
X76.7Y-84.2
X76.7Y-84.8
X76.7Y-85.4
X76.7Y-86.0
X76.7Y-94.6
X76.7Y-95.2
X76.7Y-95.8
X76.7Y-96.4
X76.7Y-97.0
X76.7Y-97.6
X77.2Y-122.2
X77.5Y-73.8
X77.5Y-74.4
X77.5Y-75.0
X77.5Y-75.6
X77.5Y-76.2
X77.5Y-76.8
X77.8Y-122.2
X78.1Y-73.8
X78.1Y-74.4
X78.1Y-75.0
X78.1Y-75.6
X78.1Y-76.2
X78.1Y-76.8
X78.4Y-122.2
X79.0Y-50.0
X79.0Y-52.4
X79.0Y-63.0
X79.0Y-63.6
X79.0Y-64.2
X79.0Y-64.8
X79.0Y-65.4
X79.0Y-76.0
X79.0Y-76.6
X79.0Y-77.2
X79.0Y-77.8
X79.0Y-78.4
X79.0Y-89.0
X79.0Y-89.6
X79.0Y-90.2
X79.0Y-90.8
X79.0Y-91.4
X79.4Y-122.2
X79.6Y-50.0
X79.6Y-52.4
X80.0Y-122.2
X80.2Y-50.0
X80.2Y-52.4
X80.6Y-122.2
X80.8Y-50.0
X80.8Y-52.4
X81.2Y-122.2
X81.4Y-50.0
X81.4Y-52.4
X81.8Y-122.2
X82.0Y-50.0
X82.0Y-52.4
X82.6Y-50.0
X82.6Y-52.4
X82.6Y-63.0
X82.6Y-63.6
X82.6Y-64.2
X82.6Y-64.8
X82.6Y-65.4
X82.6Y-76.0
X82.6Y-76.6
X82.6Y-77.2
X82.6Y-77.8
X82.6Y-78.4
X82.6Y-89.0
X82.6Y-89.6
X82.6Y-90.2
X82.6Y-90.8
X82.6Y-91.4
X82.8Y-122.2
X83.4Y-122.2
X84.0Y-53.8
X84.0Y-54.4
X84.0Y-55.0
X84.0Y-55.6
X84.0Y-56.2
X84.0Y-56.8
X84.0Y-57.4
X84.0Y-58.0
X84.0Y-58.6
X84.0Y-122.2
X84.6Y-122.2
X84.9Y-60.6
X84.9Y-61.2
X84.9Y-61.8
X84.9Y-62.4
X84.9Y-73.6
X84.9Y-74.2
X84.9Y-74.8
X84.9Y-75.4
X84.9Y-86.6
X84.9Y-87.2
X84.9Y-87.8
X84.9Y-88.4
X84.9Y-98.8
X84.9Y-99.4
X84.9Y-100.0
X84.9Y-100.6
X85.2Y-122.2
X85.5Y-60.6
X85.5Y-61.2
X85.5Y-61.8
X85.5Y-62.4
X85.5Y-73.6
X85.5Y-74.2
X85.5Y-74.8
X85.5Y-75.4
X85.5Y-86.6
X85.5Y-87.2
X85.5Y-87.8
X85.5Y-88.4
X85.5Y-98.8
X85.5Y-99.4
X85.5Y-100.0
X85.5Y-100.6
X86.4Y-53.8
X86.4Y-54.4
X86.4Y-55.0
X86.4Y-55.6
X86.4Y-56.2
X86.4Y-56.8
X86.4Y-57.4
X86.4Y-58.0
X86.4Y-58.6
X86.4Y-63.0
X86.4Y-63.6
X86.4Y-64.2
X86.4Y-64.8
X86.4Y-65.4
X86.4Y-76.0
X86.4Y-76.6
X86.4Y-77.2
X86.4Y-77.8
X86.4Y-78.4
X86.4Y-89.0
X86.4Y-89.6
X86.4Y-90.2
X86.4Y-90.8
X86.4Y-91.4
T2
X25.33Y-47.8
X27.87Y-47.8
X30.33Y-47.8
X32.87Y-47.8
X35.33Y-47.8
X37.87Y-47.8
X40.33Y-47.8
X42.87Y-47.8
T3
X46.93Y-48.58
X49.47Y-48.58
T4
X28.98Y-74.15
X28.98Y-76.65
X31.38Y-110.35
X31.38Y-112.85
X31.48Y-74.15
X31.48Y-76.65
X33.88Y-110.35
X33.88Y-112.85
X79.585Y-54.08
X79.585Y-56.58
X79.585Y-59.08
X79.585Y-61.58
X79.585Y-67.07
X79.585Y-69.57
X79.585Y-72.07
X79.585Y-74.57
X79.585Y-80.06
X79.585Y-82.56
X79.585Y-85.06
X79.585Y-87.56
X79.585Y-93.05
X79.585Y-95.55
X79.585Y-98.05
X79.585Y-100.55
X82.085Y-54.08
X82.085Y-56.58
X82.085Y-59.08
X82.085Y-61.58
X82.085Y-67.07
X82.085Y-69.57
X82.085Y-72.07
X82.085Y-74.57
X82.085Y-80.06
X82.085Y-82.56
X82.085Y-85.06
X82.085Y-87.56
X82.085Y-93.05
X82.085Y-95.55
X82.085Y-98.05
X82.085Y-100.55
T5
X37.6Y-57.2
X37.6Y-61.8
X37.6Y-73.1
X37.6Y-77.7
X40.0Y-93.35
X40.0Y-97.95
X40.0Y-109.25
X40.0Y-113.85
T7
X27.64Y-75.4
X30.04Y-111.6
T8
X89.265Y-54.08
X89.265Y-61.58
X89.265Y-67.07
X89.265Y-74.57
X89.265Y-80.06
X89.265Y-87.56
X89.265Y-93.05
X89.265Y-100.55
T9
X26.8Y-60.0
X26.8Y-124.6
X89.6Y-47.4
X89.6Y-124.6
T6
G00X27.0Y-90.6
M15
G01X33.0Y-90.6
M16
G05
G00X27.0Y-99.2
M15
G01X33.0Y-99.2
M16
G05
M30
