%TF.GenerationSoftware,KiCad,Pcbnew,9.0.0-unknown-202503072020~4df101b94e~ubuntu22.04.1*%
%TF.CreationDate,2025-03-08T19:03:23+01:00*%
%TF.ProjectId,PowkiBoard,506f776b-6942-46f6-9172-642e6b696361,rev?*%
%TF.SameCoordinates,Original*%
%TF.FileFunction,Paste,Bot*%
%TF.FilePolarity,Positive*%
%FSLAX46Y46*%
G04 Gerber Fmt 4.6, Leading zero omitted, Abs format (unit mm)*
G04 Created by KiCad (PCBNEW 9.0.0-unknown-202503072020~4df101b94e~ubuntu22.04.1) date 2025-03-08 19:03:23*
%MOMM*%
%LPD*%
G01*
G04 APERTURE LIST*
G04 Aperture macros list*
%AMRoundRect*
0 Rectangle with rounded corners*
0 $1 Rounding radius*
0 $2 $3 $4 $5 $6 $7 $8 $9 X,Y pos of 4 corners*
0 Add a 4 corners polygon primitive as box body*
4,1,4,$2,$3,$4,$5,$6,$7,$8,$9,$2,$3,0*
0 Add four circle primitives for the rounded corners*
1,1,$1+$1,$2,$3*
1,1,$1+$1,$4,$5*
1,1,$1+$1,$6,$7*
1,1,$1+$1,$8,$9*
0 Add four rect primitives between the rounded corners*
20,1,$1+$1,$2,$3,$4,$5,0*
20,1,$1+$1,$4,$5,$6,$7,0*
20,1,$1+$1,$6,$7,$8,$9,0*
20,1,$1+$1,$8,$9,$2,$3,0*%
G04 Aperture macros list end*
%ADD10RoundRect,0.200000X-0.275000X0.200000X-0.275000X-0.200000X0.275000X-0.200000X0.275000X0.200000X0*%
%ADD11RoundRect,0.225000X0.225000X0.250000X-0.225000X0.250000X-0.225000X-0.250000X0.225000X-0.250000X0*%
%ADD12RoundRect,0.200000X0.200000X0.275000X-0.200000X0.275000X-0.200000X-0.275000X0.200000X-0.275000X0*%
%ADD13RoundRect,0.225000X-0.250000X0.225000X-0.250000X-0.225000X0.250000X-0.225000X0.250000X0.225000X0*%
G04 APERTURE END LIST*
D10*
%TO.C,R2*%
X198704731Y-103000000D03*
X198704731Y-104650000D03*
%TD*%
D11*
%TO.C,C35*%
X203354731Y-119400000D03*
X201804731Y-119400000D03*
%TD*%
%TO.C,C32*%
X203354731Y-101500000D03*
X201804731Y-101500000D03*
%TD*%
D12*
%TO.C,R1*%
X201854731Y-103100000D03*
X200204731Y-103100000D03*
%TD*%
D13*
%TO.C,C43*%
X194700000Y-68400000D03*
X194700000Y-69950000D03*
%TD*%
D11*
%TO.C,C41*%
X203354731Y-66000000D03*
X201804731Y-66000000D03*
%TD*%
D12*
%TO.C,R5*%
X201854731Y-122500000D03*
X200204731Y-122500000D03*
%TD*%
D10*
%TO.C,R20*%
X198704731Y-69000000D03*
X198704731Y-70650000D03*
%TD*%
D12*
%TO.C,R3*%
X201859462Y-85600000D03*
X200209462Y-85600000D03*
%TD*%
D10*
%TO.C,R11*%
X197000000Y-103000000D03*
X197000000Y-104650000D03*
%TD*%
D12*
%TO.C,R19*%
X201854731Y-69100000D03*
X200204731Y-69100000D03*
%TD*%
D10*
%TO.C,R14*%
X200304731Y-119400000D03*
X200304731Y-121050000D03*
%TD*%
D11*
%TO.C,C36*%
X203354731Y-120900000D03*
X201804731Y-120900000D03*
%TD*%
D13*
%TO.C,C30*%
X194700000Y-121800000D03*
X194700000Y-123350000D03*
%TD*%
D10*
%TO.C,R18*%
X197000000Y-69000000D03*
X197000000Y-70650000D03*
%TD*%
%TO.C,R4*%
X198709462Y-85500000D03*
X198709462Y-87150000D03*
%TD*%
%TO.C,R17*%
X200304731Y-66000000D03*
X200304731Y-67650000D03*
%TD*%
%TO.C,R10*%
X200304731Y-100000000D03*
X200304731Y-101650000D03*
%TD*%
%TO.C,R6*%
X198704731Y-122400000D03*
X198704731Y-124050000D03*
%TD*%
D11*
%TO.C,C31*%
X203354731Y-100000000D03*
X201804731Y-100000000D03*
%TD*%
D12*
%TO.C,R16*%
X200954731Y-64400000D03*
X199304731Y-64400000D03*
%TD*%
D10*
%TO.C,R13*%
X197000000Y-85500000D03*
X197000000Y-87150000D03*
%TD*%
D12*
%TO.C,R7*%
X200954731Y-98400000D03*
X199304731Y-98400000D03*
%TD*%
D10*
%TO.C,R15*%
X196304731Y-122400000D03*
X196304731Y-124050000D03*
%TD*%
D12*
%TO.C,R9*%
X200959462Y-80900000D03*
X199309462Y-80900000D03*
%TD*%
D11*
%TO.C,C42*%
X203354731Y-67500000D03*
X201804731Y-67500000D03*
%TD*%
D13*
%TO.C,C28*%
X194700000Y-102400000D03*
X194700000Y-103950000D03*
%TD*%
%TO.C,C29*%
X194700000Y-84900000D03*
X194700000Y-86450000D03*
%TD*%
D12*
%TO.C,R8*%
X200954731Y-117800000D03*
X199304731Y-117800000D03*
%TD*%
D11*
%TO.C,C33*%
X203359462Y-82500000D03*
X201809462Y-82500000D03*
%TD*%
D10*
%TO.C,R12*%
X200309462Y-82500000D03*
X200309462Y-84150000D03*
%TD*%
D11*
%TO.C,C34*%
X203359462Y-84000000D03*
X201809462Y-84000000D03*
%TD*%
M02*
