%TF.GenerationSoftware,KiCad,Pcbnew,9.0.1-rc2-202503292320~1d443ca74c~ubuntu22.04.1*%
%TF.CreationDate,2025-03-31T00:08:07+02:00*%
%TF.ProjectId,PowkiBoard,506f776b-6942-46f6-9172-642e6b696361,rev?*%
%TF.SameCoordinates,Original*%
%TF.FileFunction,Copper,L3,Inr*%
%TF.FilePolarity,Positive*%
%FSLAX46Y46*%
G04 Gerber Fmt 4.6, Leading zero omitted, Abs format (unit mm)*
G04 Created by KiCad (PCBNEW 9.0.1-rc2-202503292320~1d443ca74c~ubuntu22.04.1) date 2025-03-31 00:08:07*
%MOMM*%
%LPD*%
G01*
G04 APERTURE LIST*
G04 Aperture macros list*
%AMRoundRect*
0 Rectangle with rounded corners*
0 $1 Rounding radius*
0 $2 $3 $4 $5 $6 $7 $8 $9 X,Y pos of 4 corners*
0 Add a 4 corners polygon primitive as box body*
4,1,4,$2,$3,$4,$5,$6,$7,$8,$9,$2,$3,0*
0 Add four circle primitives for the rounded corners*
1,1,$1+$1,$2,$3*
1,1,$1+$1,$4,$5*
1,1,$1+$1,$6,$7*
1,1,$1+$1,$8,$9*
0 Add four rect primitives between the rounded corners*
20,1,$1+$1,$2,$3,$4,$5,0*
20,1,$1+$1,$4,$5,$6,$7,0*
20,1,$1+$1,$6,$7,$8,$9,0*
20,1,$1+$1,$8,$9,$2,$3,0*%
%AMFreePoly0*
4,1,22,0.695671,0.830970,0.776777,0.776777,0.830970,0.695671,0.850000,0.600000,0.850000,-0.600000,0.830970,-0.695671,0.776777,-0.776777,0.695671,-0.830970,0.600000,-0.850000,-0.200000,-0.850000,-0.295671,-0.830970,-0.376777,-0.776777,-0.776777,-0.376777,-0.830970,-0.295671,-0.850000,-0.200000,-0.850000,0.600000,-0.830970,0.695671,-0.776777,0.776777,-0.695671,0.830970,-0.600000,0.850000,
0.600000,0.850000,0.695671,0.830970,0.695671,0.830970,$1*%
G04 Aperture macros list end*
%TA.AperFunction,ComponentPad*%
%ADD10RoundRect,0.250000X-0.600000X-0.600000X0.600000X-0.600000X0.600000X0.600000X-0.600000X0.600000X0*%
%TD*%
%TA.AperFunction,ComponentPad*%
%ADD11C,1.700000*%
%TD*%
%TA.AperFunction,ComponentPad*%
%ADD12R,1.800000X1.800000*%
%TD*%
%TA.AperFunction,ComponentPad*%
%ADD13C,1.800000*%
%TD*%
%TA.AperFunction,ComponentPad*%
%ADD14R,12.000000X6.000000*%
%TD*%
%TA.AperFunction,ComponentPad*%
%ADD15C,2.600000*%
%TD*%
%TA.AperFunction,ComponentPad*%
%ADD16FreePoly0,0.000000*%
%TD*%
%TA.AperFunction,ComponentPad*%
%ADD17RoundRect,0.250000X0.620000X0.845000X-0.620000X0.845000X-0.620000X-0.845000X0.620000X-0.845000X0*%
%TD*%
%TA.AperFunction,ComponentPad*%
%ADD18O,1.740000X2.190000*%
%TD*%
%TA.AperFunction,ViaPad*%
%ADD19C,0.600000*%
%TD*%
G04 APERTURE END LIST*
D10*
%TO.N,VIN*%
%TO.C,J5*%
X79585000Y-67070000D03*
D11*
%TO.N,GNDA*%
X79585000Y-69570000D03*
%TO.N,9V*%
X79585000Y-72070000D03*
%TO.N,5V*%
X79585000Y-74570000D03*
%TO.N,VIN*%
X82085000Y-67070000D03*
%TO.N,GNDA*%
X82085000Y-69570000D03*
%TO.N,12V*%
X82085000Y-72070000D03*
%TO.N,LG5V*%
X82085000Y-74570000D03*
%TD*%
D12*
%TO.N,Net-(D6-K)*%
%TO.C,D6*%
X42870000Y-47800000D03*
D13*
%TO.N,Net-(D6-A)*%
X40330000Y-47800000D03*
%TD*%
D12*
%TO.N,Net-(D5-K)*%
%TO.C,D5*%
X37870000Y-47800000D03*
D13*
%TO.N,Net-(D5-A)*%
X35330000Y-47800000D03*
%TD*%
D14*
%TO.N,GNDA*%
%TO.C,J3*%
X30000000Y-90600000D03*
%TD*%
D15*
%TO.N,Net-(J8-Pin_3)*%
%TO.C,U6*%
X37600000Y-77700000D03*
X37600000Y-73100000D03*
%TO.N,Net-(U4-VIN)*%
X37600000Y-61800000D03*
X37600000Y-57200000D03*
%TD*%
D16*
%TO.N,VBATT*%
%TO.C,J8*%
X28980000Y-74150000D03*
D11*
X28980000Y-76650000D03*
%TO.N,Net-(J8-Pin_3)*%
X31480000Y-74150000D03*
X31480000Y-76650000D03*
%TD*%
D10*
%TO.N,VIN*%
%TO.C,J4*%
X79585000Y-54080000D03*
D11*
%TO.N,GNDA*%
X79585000Y-56580000D03*
%TO.N,9V*%
X79585000Y-59080000D03*
%TO.N,5V*%
X79585000Y-61580000D03*
%TO.N,VIN*%
X82085000Y-54080000D03*
%TO.N,GNDA*%
X82085000Y-56580000D03*
%TO.N,12V*%
X82085000Y-59080000D03*
%TO.N,LG5V*%
X82085000Y-61580000D03*
%TD*%
D12*
%TO.N,Net-(D8-K)*%
%TO.C,D8*%
X32870000Y-47800000D03*
D13*
%TO.N,Net-(D8-A)*%
X30330000Y-47800000D03*
%TD*%
D15*
%TO.N,Net-(J1-Pin_3)*%
%TO.C,U5*%
X40000000Y-113850000D03*
X40000000Y-109250000D03*
%TO.N,VIN*%
X40000000Y-97950000D03*
X40000000Y-93350000D03*
%TD*%
D12*
%TO.N,Net-(D7-K)*%
%TO.C,D7*%
X27870000Y-47800000D03*
D13*
%TO.N,Net-(D7-A)*%
X25330000Y-47800000D03*
%TD*%
D16*
%TO.N,VBATT*%
%TO.C,J1*%
X31380000Y-110350000D03*
D11*
X31380000Y-112850000D03*
%TO.N,Net-(J1-Pin_3)*%
X33880000Y-110350000D03*
X33880000Y-112850000D03*
%TD*%
D17*
%TO.N,GNDA*%
%TO.C,J9*%
X49470000Y-48580000D03*
D18*
%TO.N,EN12V*%
X46930000Y-48580000D03*
%TD*%
D10*
%TO.N,VIN*%
%TO.C,J6*%
X79585000Y-80060000D03*
D11*
%TO.N,GNDA*%
X79585000Y-82560000D03*
%TO.N,9V*%
X79585000Y-85060000D03*
%TO.N,5V*%
X79585000Y-87560000D03*
%TO.N,VIN*%
X82085000Y-80060000D03*
%TO.N,GNDA*%
X82085000Y-82560000D03*
%TO.N,12V*%
X82085000Y-85060000D03*
%TO.N,LG5V*%
X82085000Y-87560000D03*
%TD*%
D14*
%TO.N,VBATT*%
%TO.C,J2*%
X30000000Y-99200000D03*
%TD*%
D10*
%TO.N,VIN*%
%TO.C,J7*%
X79585000Y-93050000D03*
D11*
%TO.N,GNDA*%
X79585000Y-95550000D03*
%TO.N,9V*%
X79585000Y-98050000D03*
%TO.N,5V*%
X79585000Y-100550000D03*
%TO.N,VIN*%
X82085000Y-93050000D03*
%TO.N,GNDA*%
X82085000Y-95550000D03*
%TO.N,12V*%
X82085000Y-98050000D03*
%TO.N,LG5V*%
X82085000Y-100550000D03*
%TD*%
D19*
%TO.N,GNDA*%
X42200000Y-56600000D03*
X42200000Y-53600000D03*
X42800000Y-53600000D03*
X43400000Y-53600000D03*
X44000000Y-53600000D03*
X42800000Y-56600000D03*
X43400000Y-56600000D03*
X44000000Y-56600000D03*
X73000000Y-49400000D03*
X74600000Y-49400000D03*
X74600000Y-50000000D03*
X74600000Y-50600000D03*
X74600000Y-51200000D03*
X74600000Y-51800000D03*
X74600000Y-52400000D03*
X74600000Y-53000000D03*
X73000000Y-50000000D03*
X73000000Y-50600000D03*
X73000000Y-51200000D03*
X73000000Y-51800000D03*
X73000000Y-52400000D03*
X73000000Y-53000000D03*
X73000000Y-53600000D03*
%TO.N,LG5V*%
X73200000Y-55200000D03*
X74400000Y-55200000D03*
%TO.N,GNDA*%
X31600000Y-83400000D03*
X32000000Y-83800000D03*
X33200000Y-85000000D03*
X30800000Y-82600000D03*
X32800000Y-84600000D03*
X31200000Y-83000000D03*
X34000000Y-85800000D03*
X33600000Y-85400000D03*
X32400000Y-84200000D03*
X30400000Y-82200000D03*
X36000000Y-83800000D03*
X35600000Y-83400000D03*
X35200000Y-83000000D03*
X34800000Y-82600000D03*
X34400000Y-82200000D03*
X34000000Y-81800000D03*
X33600000Y-81400000D03*
X33200000Y-81000000D03*
X32800000Y-80600000D03*
X32400000Y-80200000D03*
X35600000Y-94000000D03*
X35200000Y-94400000D03*
X34800000Y-94800000D03*
X34400000Y-95200000D03*
X34000000Y-95600000D03*
X53600000Y-107200000D03*
X53600000Y-108400000D03*
X53600000Y-111400000D03*
X53600000Y-109000000D03*
X53600000Y-112000000D03*
X53600000Y-107800000D03*
X53600000Y-110800000D03*
X53600000Y-113800000D03*
X53600000Y-109600000D03*
X53600000Y-106000000D03*
X53600000Y-114400000D03*
X53600000Y-110200000D03*
X53600000Y-105400000D03*
X53600000Y-104800000D03*
X53600000Y-106600000D03*
X53600000Y-113200000D03*
X53600000Y-112600000D03*
X53600000Y-104200000D03*
X55400000Y-103600000D03*
X55400000Y-104200000D03*
X55400000Y-104800000D03*
X55400000Y-105400000D03*
X55400000Y-106000000D03*
X55400000Y-106600000D03*
X55400000Y-107200000D03*
X55400000Y-107800000D03*
X55400000Y-108400000D03*
X55400000Y-109000000D03*
X55400000Y-109600000D03*
X55400000Y-110200000D03*
X55400000Y-110800000D03*
X55400000Y-111400000D03*
X55400000Y-112000000D03*
X55400000Y-112600000D03*
X55400000Y-113200000D03*
X55400000Y-113800000D03*
X55400000Y-114400000D03*
X55600000Y-63800000D03*
X55600000Y-64400000D03*
X55600000Y-65000000D03*
X52600000Y-64400000D03*
X52600000Y-65000000D03*
X52800000Y-73200000D03*
X52400000Y-72800000D03*
X52400000Y-72200000D03*
X52400000Y-71600000D03*
X52400000Y-71000000D03*
X52600000Y-70400000D03*
X52600000Y-69800000D03*
X52600000Y-69200000D03*
X55600000Y-69200000D03*
X55600000Y-69800000D03*
X55600000Y-70400000D03*
X55600000Y-71000000D03*
X53200000Y-84200000D03*
X53200000Y-83600000D03*
X40200000Y-71400000D03*
X40200000Y-72000000D03*
X40200000Y-72600000D03*
X40200000Y-73200000D03*
X40200000Y-83800000D03*
X40200000Y-83200000D03*
X40200000Y-82600000D03*
X40200000Y-82000000D03*
X40200000Y-81400000D03*
X40200000Y-80800000D03*
X40200000Y-80200000D03*
X40200000Y-79600000D03*
X40200000Y-79000000D03*
X41200000Y-118400000D03*
X41200000Y-117800000D03*
X41200000Y-117200000D03*
X41200000Y-116600000D03*
X41200000Y-116000000D03*
X40800000Y-106800000D03*
X40800000Y-106200000D03*
X40800000Y-105600000D03*
X40800000Y-105000000D03*
X40800000Y-104400000D03*
X40800000Y-103800000D03*
X40800000Y-103200000D03*
X40800000Y-102600000D03*
X40600000Y-102000000D03*
X40600000Y-101400000D03*
X40600000Y-100800000D03*
X40600000Y-100200000D03*
X38200000Y-95600000D03*
X37800000Y-96000000D03*
X37400000Y-96400000D03*
X37000000Y-96800000D03*
X36600000Y-97200000D03*
X80800000Y-50000000D03*
X79000000Y-50000000D03*
X80200000Y-50000000D03*
X81400000Y-50000000D03*
X79600000Y-50000000D03*
X82000000Y-50000000D03*
X82600000Y-50000000D03*
X82600000Y-52400000D03*
X82000000Y-52400000D03*
X81400000Y-52400000D03*
X80800000Y-52400000D03*
X80200000Y-52400000D03*
X79600000Y-52400000D03*
X79000000Y-52400000D03*
X86400000Y-58600000D03*
X86400000Y-58000000D03*
X86400000Y-57400000D03*
X86400000Y-56800000D03*
X86400000Y-56200000D03*
X86400000Y-55600000D03*
X86400000Y-55000000D03*
X86400000Y-54400000D03*
X86400000Y-53800000D03*
X84000000Y-53800000D03*
X84000000Y-54400000D03*
X84000000Y-55000000D03*
X84000000Y-55600000D03*
X84000000Y-56200000D03*
X84000000Y-56800000D03*
X84000000Y-57400000D03*
X84000000Y-58000000D03*
X84000000Y-58600000D03*
X79000000Y-89000000D03*
X82600000Y-91400000D03*
X86400000Y-89000000D03*
X86400000Y-89600000D03*
X79000000Y-91400000D03*
X86400000Y-90800000D03*
X86400000Y-91400000D03*
X79000000Y-90800000D03*
X82600000Y-90200000D03*
X79000000Y-90200000D03*
X79000000Y-89600000D03*
X82600000Y-89000000D03*
X82600000Y-90800000D03*
X86400000Y-90200000D03*
X82600000Y-89600000D03*
X79000000Y-76000000D03*
X82600000Y-78400000D03*
X86400000Y-76000000D03*
X86400000Y-76600000D03*
X79000000Y-78400000D03*
X86400000Y-77800000D03*
X86400000Y-78400000D03*
X79000000Y-77800000D03*
X82600000Y-77200000D03*
X79000000Y-77200000D03*
X79000000Y-76600000D03*
X82600000Y-76000000D03*
X82600000Y-77800000D03*
X86400000Y-77200000D03*
X82600000Y-76600000D03*
X86400000Y-63000000D03*
X86400000Y-63600000D03*
X86400000Y-64200000D03*
X86400000Y-64800000D03*
X86400000Y-65400000D03*
X82600000Y-65400000D03*
X82600000Y-64800000D03*
X82600000Y-64200000D03*
X82600000Y-63600000D03*
X82600000Y-63000000D03*
X79000000Y-65400000D03*
X79000000Y-64800000D03*
X79000000Y-64200000D03*
X79000000Y-63600000D03*
X79000000Y-63000000D03*
X48200000Y-116600000D03*
X47600000Y-116600000D03*
X47000000Y-116600000D03*
X46400000Y-116600000D03*
X45800000Y-116600000D03*
X45200000Y-116600000D03*
X43200000Y-65000000D03*
X48000000Y-65000000D03*
X47400000Y-65000000D03*
X46800000Y-65000000D03*
X46200000Y-65000000D03*
X45600000Y-65000000D03*
X43800000Y-65000000D03*
X44400000Y-65000000D03*
X45000000Y-65000000D03*
X48000000Y-69200000D03*
X47400000Y-69200000D03*
X46800000Y-69200000D03*
X46200000Y-69200000D03*
X45600000Y-69200000D03*
X45000000Y-69200000D03*
X48200000Y-73200000D03*
X47600000Y-73200000D03*
X47000000Y-73200000D03*
X46400000Y-73200000D03*
X45800000Y-73200000D03*
X45200000Y-73200000D03*
X48000000Y-89400000D03*
X47400000Y-89400000D03*
X46800000Y-89400000D03*
X46200000Y-89400000D03*
X45600000Y-89400000D03*
X45000000Y-89400000D03*
X48000000Y-84200000D03*
X47400000Y-84200000D03*
X46800000Y-84200000D03*
X46200000Y-84200000D03*
X45600000Y-84200000D03*
X45000000Y-84200000D03*
X47600000Y-94000000D03*
X47000000Y-94000000D03*
X46400000Y-94000000D03*
X45800000Y-94000000D03*
X45200000Y-94000000D03*
X53000000Y-89600000D03*
X53000000Y-90200000D03*
X53000000Y-90800000D03*
X53000000Y-91400000D03*
X53000000Y-92000000D03*
X55600000Y-84200000D03*
X55600000Y-83600000D03*
X55600000Y-83000000D03*
X55600000Y-89400000D03*
X55600000Y-90000000D03*
X55600000Y-90600000D03*
X55600000Y-91200000D03*
X55600000Y-91800000D03*
%TO.N,VIN*%
X43400000Y-84400000D03*
X42800000Y-86800000D03*
X42800000Y-66200000D03*
X43400000Y-86800000D03*
X41400000Y-70400000D03*
X41600000Y-89200000D03*
X43400000Y-85600000D03*
X41400000Y-68000000D03*
X41400000Y-85000000D03*
X42200000Y-68600000D03*
X43400000Y-68600000D03*
X43200000Y-66800000D03*
X41600000Y-84400000D03*
X43400000Y-89200000D03*
X42200000Y-84400000D03*
X42600000Y-87400000D03*
X42800000Y-89200000D03*
X42800000Y-67400000D03*
X42600000Y-68000000D03*
X41600000Y-86800000D03*
X42800000Y-71000000D03*
X42600000Y-85000000D03*
X42600000Y-66800000D03*
X42200000Y-69800000D03*
X43200000Y-69200000D03*
X42800000Y-84400000D03*
X42000000Y-88600000D03*
X42000000Y-70400000D03*
X41400000Y-88600000D03*
X42600000Y-69200000D03*
X41600000Y-68600000D03*
X42200000Y-89200000D03*
X42200000Y-88000000D03*
X41600000Y-88000000D03*
X42800000Y-68600000D03*
X42200000Y-85600000D03*
X42800000Y-85600000D03*
X42000000Y-85000000D03*
X43200000Y-86200000D03*
X43200000Y-87400000D03*
X41600000Y-69800000D03*
X43400000Y-66200000D03*
X43400000Y-69800000D03*
X43200000Y-85000000D03*
X42000000Y-68000000D03*
X42600000Y-86200000D03*
X41600000Y-71000000D03*
X41600000Y-67400000D03*
X42200000Y-71000000D03*
X43200000Y-70400000D03*
X43200000Y-88600000D03*
X42000000Y-86200000D03*
X42800000Y-88000000D03*
X42800000Y-69800000D03*
X41600000Y-85600000D03*
X42200000Y-86800000D03*
X42000000Y-69200000D03*
X41400000Y-69200000D03*
X42000000Y-66800000D03*
X42200000Y-67400000D03*
X43400000Y-71000000D03*
X41400000Y-87400000D03*
X42600000Y-70400000D03*
X41400000Y-66800000D03*
X42600000Y-88600000D03*
X43400000Y-67400000D03*
X43200000Y-68000000D03*
X41400000Y-86200000D03*
X43400000Y-88000000D03*
X42000000Y-87400000D03*
X42200000Y-66200000D03*
X41600000Y-66200000D03*
%TO.N,GNDA*%
X56400000Y-96600000D03*
X44600000Y-72600000D03*
X69800000Y-59200000D03*
X57800000Y-75200000D03*
X73200000Y-78800000D03*
X68200000Y-122200000D03*
X57600000Y-55000000D03*
X57200000Y-97200000D03*
X44600000Y-105200000D03*
X55200000Y-81200000D03*
X47800000Y-78600000D03*
X65800000Y-78800000D03*
X78400000Y-122200000D03*
X44600000Y-93400000D03*
X55800000Y-95400000D03*
X44600000Y-114800000D03*
X82800000Y-122200000D03*
X44600000Y-107000000D03*
X80600000Y-122200000D03*
X71600000Y-122200000D03*
X35800000Y-52000000D03*
X57600000Y-118000000D03*
X60200000Y-122625000D03*
X47800000Y-122000000D03*
X57800000Y-96000000D03*
X72600000Y-122200000D03*
X55800000Y-96600000D03*
X53400000Y-81200000D03*
X55800000Y-81200000D03*
X57800000Y-97200000D03*
X50200000Y-99400000D03*
X60200000Y-101000000D03*
X47200000Y-122000000D03*
X55800000Y-82400000D03*
X44600000Y-83800000D03*
X53400000Y-124600000D03*
X69200000Y-59200000D03*
X51600000Y-122000000D03*
X56000000Y-118600000D03*
X67600000Y-78800000D03*
X67600000Y-122200000D03*
X55800000Y-62800000D03*
X55412500Y-101012500D03*
X46000000Y-122000000D03*
X57025000Y-125200000D03*
X69200000Y-99600000D03*
X55800000Y-118000000D03*
X47000000Y-53600000D03*
X47000000Y-56600000D03*
X57200000Y-118600000D03*
X57000000Y-75800000D03*
X44600000Y-82000000D03*
X45200000Y-56600000D03*
X57025000Y-102600000D03*
X65800000Y-99600000D03*
X44600000Y-92200000D03*
X44600000Y-111800000D03*
X56000000Y-58000000D03*
X75000000Y-78800000D03*
X72600000Y-59200000D03*
X44600000Y-47000000D03*
X57000000Y-97800000D03*
X57200000Y-55600000D03*
X55800000Y-97800000D03*
X55200000Y-61600000D03*
X44600000Y-79000000D03*
X44600000Y-113600000D03*
X71600000Y-59200000D03*
X55800000Y-119200000D03*
X55800000Y-62200000D03*
X44600000Y-48200000D03*
X57012500Y-123587500D03*
X44600000Y-91600000D03*
X45600000Y-51000000D03*
X44600000Y-116000000D03*
X42000000Y-51600000D03*
X44600000Y-49400000D03*
X44600000Y-101000000D03*
X72600000Y-78800000D03*
X44600000Y-111200000D03*
X56400000Y-118000000D03*
X56400000Y-95400000D03*
X48400000Y-59000000D03*
X53800000Y-60575000D03*
X55800000Y-125200000D03*
X49600000Y-122000000D03*
X57600000Y-119200000D03*
X48400000Y-78600000D03*
X57600000Y-96600000D03*
X70400000Y-59200000D03*
X55800000Y-102600000D03*
X57000000Y-56200000D03*
X56600000Y-121000000D03*
X48000000Y-51000000D03*
X56600000Y-119800000D03*
X49600000Y-78600000D03*
X53400000Y-102000000D03*
X44800000Y-122000000D03*
X55200000Y-102000000D03*
X69200000Y-78800000D03*
X54000000Y-102000000D03*
X67000000Y-99600000D03*
X47600000Y-56600000D03*
X45200000Y-53600000D03*
X76600000Y-122200000D03*
X55800000Y-77000000D03*
X66400000Y-122200000D03*
X47200000Y-99400000D03*
X46400000Y-53600000D03*
X55800000Y-125800000D03*
X44600000Y-113000000D03*
X57025000Y-81800000D03*
X56600000Y-56800000D03*
X84600000Y-122200000D03*
X66400000Y-99600000D03*
X44600000Y-99800000D03*
X57000000Y-55000000D03*
X53800000Y-80175000D03*
X57200000Y-119800000D03*
X53800000Y-100975000D03*
X44800000Y-59000000D03*
X44600000Y-114200000D03*
X56000000Y-56800000D03*
X48400000Y-99400000D03*
X45400000Y-122000000D03*
X69200000Y-122200000D03*
X73200000Y-122200000D03*
X53800000Y-123575000D03*
X44600000Y-73200000D03*
X44600000Y-79600000D03*
X59600000Y-60600000D03*
X55200000Y-124600000D03*
X54600000Y-102000000D03*
X59600000Y-123600000D03*
X44600000Y-108200000D03*
X57000000Y-57400000D03*
X44600000Y-71400000D03*
X73800000Y-99600000D03*
X77800000Y-122200000D03*
X55800000Y-74600000D03*
X76000000Y-122200000D03*
X57600000Y-120400000D03*
X44600000Y-80800000D03*
X57200000Y-98400000D03*
X35200000Y-51800000D03*
X74400000Y-59200000D03*
X56600000Y-96000000D03*
X44600000Y-104000000D03*
X44600000Y-100400000D03*
X57000000Y-95400000D03*
X50800000Y-122000000D03*
X57800000Y-56800000D03*
X71600000Y-78800000D03*
X56600000Y-76400000D03*
X44600000Y-46400000D03*
X60200000Y-80200000D03*
X57000000Y-118000000D03*
X55412500Y-80212500D03*
X57200000Y-77600000D03*
X56400000Y-97800000D03*
X57025000Y-62200000D03*
X47600000Y-53600000D03*
X70400000Y-122200000D03*
X69800000Y-99600000D03*
X81800000Y-122200000D03*
X60200000Y-123600000D03*
X75000000Y-99600000D03*
X56400000Y-75800000D03*
X44600000Y-50000000D03*
X45000000Y-51000000D03*
X56400000Y-77000000D03*
X50800000Y-99400000D03*
X48400000Y-122000000D03*
X44600000Y-47600000D03*
X47200000Y-78600000D03*
X44600000Y-110000000D03*
X56400000Y-119200000D03*
X44600000Y-53600000D03*
X36400000Y-52000000D03*
X71000000Y-78800000D03*
X73800000Y-78800000D03*
X55800000Y-56200000D03*
X59600000Y-80200000D03*
X57200000Y-121000000D03*
X54600000Y-81200000D03*
X73800000Y-59200000D03*
X52800000Y-122000000D03*
X44600000Y-102200000D03*
X37000000Y-52000000D03*
X56400000Y-74600000D03*
X56600000Y-77600000D03*
X60200000Y-100025000D03*
X44600000Y-56600000D03*
X44600000Y-108800000D03*
X56600000Y-75200000D03*
X44600000Y-80200000D03*
X44600000Y-70200000D03*
X44600000Y-101600000D03*
X44600000Y-69600000D03*
X65800000Y-59200000D03*
X56400000Y-55000000D03*
X57000000Y-120400000D03*
X57200000Y-76400000D03*
X56400000Y-120400000D03*
X65800000Y-122200000D03*
X47200000Y-59000000D03*
X46000000Y-59000000D03*
X77200000Y-122200000D03*
X70400000Y-99600000D03*
X47400000Y-51000000D03*
X43200000Y-51600000D03*
X73800000Y-122200000D03*
X84000000Y-122200000D03*
X44600000Y-89800000D03*
X44600000Y-50600000D03*
X55800000Y-102000000D03*
X68200000Y-59200000D03*
X56000000Y-76400000D03*
X71600000Y-99600000D03*
X44600000Y-72000000D03*
X50200000Y-59000000D03*
X44600000Y-105800000D03*
X57200000Y-75200000D03*
X73200000Y-59200000D03*
X55800000Y-103200000D03*
X68200000Y-78800000D03*
X67600000Y-59200000D03*
X44600000Y-91000000D03*
X57800000Y-76400000D03*
X44600000Y-45800000D03*
X55800000Y-124600000D03*
X50200000Y-78600000D03*
X54600000Y-61600000D03*
X67600000Y-99600000D03*
X47800000Y-99400000D03*
X68200000Y-99600000D03*
X67000000Y-59200000D03*
X67000000Y-78800000D03*
X75000000Y-122200000D03*
X57012500Y-60587500D03*
X71000000Y-59200000D03*
X52200000Y-122000000D03*
X56000000Y-98400000D03*
X44600000Y-90400000D03*
X57200000Y-58000000D03*
X44600000Y-116600000D03*
X56000000Y-96000000D03*
X56600000Y-118600000D03*
X55412500Y-123612500D03*
X73200000Y-99600000D03*
X55800000Y-57400000D03*
X85200000Y-122200000D03*
X80000000Y-122200000D03*
X46200000Y-78600000D03*
X56600000Y-97200000D03*
X57600000Y-97800000D03*
X69800000Y-122200000D03*
X57000000Y-119200000D03*
X57600000Y-75800000D03*
X60200000Y-79225000D03*
X44600000Y-110600000D03*
X57012500Y-100987500D03*
X57600000Y-77000000D03*
X40200000Y-51000000D03*
X83400000Y-122200000D03*
X59600000Y-101000000D03*
X46200000Y-51000000D03*
X50200000Y-122000000D03*
X57800000Y-55600000D03*
X57200000Y-96000000D03*
X55412500Y-60612500D03*
X45600000Y-99400000D03*
X32800000Y-52400000D03*
X56000000Y-119800000D03*
X55800000Y-55000000D03*
X31600000Y-52400000D03*
X50800000Y-59000000D03*
X79400000Y-122200000D03*
X32200000Y-52400000D03*
X75000000Y-59200000D03*
X56000000Y-121000000D03*
X74400000Y-122200000D03*
X44600000Y-94000000D03*
X56000000Y-97200000D03*
X74400000Y-78800000D03*
X66400000Y-59200000D03*
X50800000Y-78600000D03*
X44600000Y-82600000D03*
X45400000Y-59000000D03*
X56600000Y-98400000D03*
X44600000Y-115400000D03*
X66400000Y-78800000D03*
X57800000Y-119800000D03*
X57600000Y-95400000D03*
X81200000Y-122200000D03*
X45600000Y-78600000D03*
X44600000Y-103400000D03*
X44600000Y-83200000D03*
X54600000Y-124600000D03*
X56600000Y-55600000D03*
X60200000Y-59625000D03*
X54000000Y-61600000D03*
X56400000Y-56200000D03*
X37600000Y-52000000D03*
X57000000Y-74600000D03*
X71000000Y-122200000D03*
X44600000Y-106400000D03*
X34000000Y-52400000D03*
X55800000Y-81800000D03*
X55800000Y-75800000D03*
X46800000Y-51000000D03*
X34800000Y-51400000D03*
X45800000Y-56600000D03*
X44600000Y-70800000D03*
X60200000Y-60600000D03*
X44600000Y-112400000D03*
X57200000Y-56800000D03*
X46200000Y-99400000D03*
X54000000Y-81200000D03*
X54000000Y-124600000D03*
X57600000Y-57400000D03*
X57012500Y-80187500D03*
X72600000Y-99600000D03*
X56600000Y-58000000D03*
X57000000Y-77000000D03*
X56000000Y-77600000D03*
X74400000Y-99600000D03*
X45800000Y-53600000D03*
X44600000Y-104600000D03*
X38200000Y-52000000D03*
X44600000Y-92800000D03*
X69800000Y-78800000D03*
X53400000Y-61600000D03*
X55800000Y-120400000D03*
X57600000Y-74600000D03*
X57800000Y-118600000D03*
X49600000Y-99400000D03*
X46400000Y-56600000D03*
X33400000Y-52400000D03*
X56000000Y-55600000D03*
X40200000Y-50400000D03*
X67000000Y-122200000D03*
X56400000Y-57400000D03*
X44600000Y-109400000D03*
X49600000Y-59000000D03*
X55800000Y-61600000D03*
X45000000Y-78600000D03*
X42600000Y-51600000D03*
X45000000Y-99400000D03*
X57000000Y-96600000D03*
X57600000Y-56200000D03*
X56000000Y-75200000D03*
X47800000Y-59000000D03*
X70400000Y-78800000D03*
X44600000Y-102800000D03*
X71000000Y-99600000D03*
X44600000Y-48800000D03*
X44600000Y-107600000D03*
X44600000Y-81400000D03*
%TO.N,9V*%
X76100000Y-95200000D03*
X76700000Y-72400000D03*
X76700000Y-94600000D03*
X76700000Y-84800000D03*
X76100000Y-71800000D03*
X76100000Y-71200000D03*
X76700000Y-86000000D03*
X76700000Y-73000000D03*
X76100000Y-72400000D03*
X66000000Y-94600000D03*
X76700000Y-85400000D03*
X76700000Y-97600000D03*
X76100000Y-84800000D03*
X76700000Y-71800000D03*
X76700000Y-95200000D03*
X76700000Y-95800000D03*
X76100000Y-96400000D03*
X76100000Y-84200000D03*
X76100000Y-85400000D03*
X76700000Y-97000000D03*
X76700000Y-96400000D03*
X76100000Y-97600000D03*
X76100000Y-95800000D03*
X76100000Y-97000000D03*
X76100000Y-94600000D03*
X76100000Y-73000000D03*
X76100000Y-86000000D03*
X76700000Y-71200000D03*
X76700000Y-84200000D03*
%TO.N,5V*%
X78100000Y-76800000D03*
X74800000Y-75000000D03*
X69400000Y-75000000D03*
X77500000Y-73800000D03*
X73600000Y-74400000D03*
X69400000Y-74400000D03*
X74800000Y-74400000D03*
X77500000Y-75600000D03*
X78100000Y-73800000D03*
X77500000Y-76800000D03*
X78100000Y-76200000D03*
X77500000Y-76200000D03*
X78100000Y-75600000D03*
X70000000Y-75000000D03*
X70000000Y-74400000D03*
X74200000Y-74400000D03*
X73000000Y-75000000D03*
X77500000Y-74400000D03*
X66000000Y-73800000D03*
X71200000Y-75000000D03*
X73600000Y-75000000D03*
X78100000Y-74400000D03*
X73000000Y-74400000D03*
X77500000Y-75000000D03*
X78100000Y-75000000D03*
X71200000Y-74400000D03*
X70600000Y-74400000D03*
X74200000Y-75000000D03*
X70600000Y-75000000D03*
%TO.N,12V*%
X66000000Y-117200000D03*
%TO.N,Net-(U1-SS{slash}TR)*%
X54825000Y-97600000D03*
%TO.N,Net-(U2-SS{slash}TR)*%
X54825000Y-76800000D03*
%TO.N,Net-(U3-SS{slash}TR)*%
X54825000Y-120200000D03*
%TO.N,Net-(U1-COMP)*%
X58775000Y-97600000D03*
%TO.N,Net-(U2-COMP)*%
X58775000Y-76800000D03*
%TO.N,Net-(U3-COMP)*%
X58775000Y-120200000D03*
%TO.N,Net-(U4-COMP)*%
X58775000Y-57200000D03*
%TO.N,Net-(U4-SS{slash}TR)*%
X54825000Y-57200000D03*
%TO.N,LG5V*%
X84900000Y-100000000D03*
X85500000Y-73600000D03*
X84900000Y-75400000D03*
X84900000Y-74800000D03*
X73800000Y-55125000D03*
X85500000Y-99400000D03*
X84900000Y-87200000D03*
X84900000Y-61200000D03*
X85500000Y-75400000D03*
X85500000Y-100000000D03*
X84900000Y-87800000D03*
X85500000Y-60600000D03*
X85500000Y-74800000D03*
X85500000Y-61200000D03*
X66000000Y-54200000D03*
X85500000Y-86600000D03*
X84900000Y-99400000D03*
X85500000Y-61800000D03*
X84900000Y-60600000D03*
X84900000Y-100600000D03*
X84900000Y-73600000D03*
X85500000Y-100600000D03*
X84900000Y-88400000D03*
X84900000Y-86600000D03*
X85500000Y-88400000D03*
X84900000Y-74200000D03*
X84900000Y-98800000D03*
X85500000Y-87800000D03*
X84900000Y-61800000D03*
X85500000Y-87200000D03*
X84900000Y-62400000D03*
X85500000Y-74200000D03*
X85500000Y-98800000D03*
X85500000Y-62400000D03*
%TO.N,Net-(U1-FB)*%
X60200000Y-103000000D03*
X58872120Y-98422120D03*
%TO.N,Net-(U2-FB)*%
X58872120Y-77622120D03*
X60200000Y-82200000D03*
%TO.N,Net-(U3-FB)*%
X58872120Y-121022120D03*
X60200000Y-125600000D03*
%TO.N,PG9V*%
X58775000Y-95200000D03*
X54200000Y-92600000D03*
X55600000Y-92600000D03*
X31150000Y-51062500D03*
%TO.N,PG12V*%
X55600000Y-115200000D03*
X29250000Y-51062500D03*
X54200000Y-115200000D03*
X58775000Y-117800000D03*
%TO.N,PG5V*%
X39250000Y-51062500D03*
X58775000Y-74400000D03*
X54200000Y-71800000D03*
X55600000Y-71800000D03*
%TO.N,Net-(U1-RT{slash}SYNC)*%
X54825000Y-98400000D03*
%TO.N,Net-(U2-RT{slash}SYNC)*%
X54825000Y-77600000D03*
%TO.N,Net-(U3-RT{slash}SYNC)*%
X54825000Y-121000000D03*
%TO.N,PGLG5V*%
X51400000Y-51600000D03*
X53400000Y-53400000D03*
X58775000Y-54800000D03*
X41150000Y-51062500D03*
%TO.N,Net-(U4-RT{slash}SYNC)*%
X54825000Y-58000000D03*
%TO.N,Net-(U4-FB)*%
X60200000Y-62600000D03*
X58872120Y-58022120D03*
%TO.N,EN12V*%
X54825000Y-96800000D03*
X54825000Y-76000000D03*
X54800000Y-119400000D03*
%TD*%
%TA.AperFunction,Conductor*%
%TO.N,GNDA*%
G36*
X92206922Y-44301280D02*
G01*
X92297266Y-44311459D01*
X92324331Y-44317636D01*
X92403540Y-44345352D01*
X92428553Y-44357398D01*
X92499606Y-44402043D01*
X92521313Y-44419355D01*
X92580644Y-44478686D01*
X92597957Y-44500395D01*
X92642600Y-44571444D01*
X92654648Y-44596462D01*
X92682362Y-44675666D01*
X92688540Y-44702735D01*
X92698720Y-44793076D01*
X92699500Y-44806961D01*
X92699500Y-127193038D01*
X92698720Y-127206922D01*
X92698720Y-127206923D01*
X92688540Y-127297264D01*
X92682362Y-127324333D01*
X92654648Y-127403537D01*
X92642600Y-127428555D01*
X92597957Y-127499604D01*
X92580644Y-127521313D01*
X92521313Y-127580644D01*
X92499604Y-127597957D01*
X92428555Y-127642600D01*
X92403537Y-127654648D01*
X92324333Y-127682362D01*
X92297264Y-127688540D01*
X92217075Y-127697576D01*
X92206921Y-127698720D01*
X92193038Y-127699500D01*
X24206962Y-127699500D01*
X24193078Y-127698720D01*
X24180553Y-127697308D01*
X24102735Y-127688540D01*
X24075666Y-127682362D01*
X23996462Y-127654648D01*
X23971444Y-127642600D01*
X23900395Y-127597957D01*
X23878686Y-127580644D01*
X23819355Y-127521313D01*
X23802042Y-127499604D01*
X23757399Y-127428555D01*
X23745351Y-127403537D01*
X23717637Y-127324333D01*
X23711459Y-127297263D01*
X23701280Y-127206922D01*
X23700500Y-127193038D01*
X23700500Y-124478711D01*
X24949500Y-124478711D01*
X24949500Y-124721288D01*
X24981161Y-124961785D01*
X25043947Y-125196104D01*
X25131226Y-125406814D01*
X25136776Y-125420212D01*
X25258064Y-125630289D01*
X25258066Y-125630292D01*
X25258067Y-125630293D01*
X25405733Y-125822736D01*
X25405739Y-125822743D01*
X25577256Y-125994260D01*
X25577263Y-125994266D01*
X25671259Y-126066391D01*
X25769711Y-126141936D01*
X25979788Y-126263224D01*
X26203900Y-126356054D01*
X26438211Y-126418838D01*
X26618586Y-126442584D01*
X26678711Y-126450500D01*
X26678712Y-126450500D01*
X26921289Y-126450500D01*
X26969388Y-126444167D01*
X27161789Y-126418838D01*
X27396100Y-126356054D01*
X27620212Y-126263224D01*
X27830289Y-126141936D01*
X28022738Y-125994265D01*
X28194265Y-125822738D01*
X28341936Y-125630289D01*
X28397466Y-125534108D01*
X59699500Y-125534108D01*
X59699500Y-125665891D01*
X59733608Y-125793187D01*
X59750670Y-125822738D01*
X59799500Y-125907314D01*
X59892686Y-126000500D01*
X60006814Y-126066392D01*
X60134108Y-126100500D01*
X60134110Y-126100500D01*
X60265890Y-126100500D01*
X60265892Y-126100500D01*
X60393186Y-126066392D01*
X60507314Y-126000500D01*
X60600500Y-125907314D01*
X60666392Y-125793186D01*
X60700500Y-125665892D01*
X60700500Y-125534108D01*
X60666392Y-125406814D01*
X60600500Y-125292686D01*
X60507314Y-125199500D01*
X60450250Y-125166554D01*
X60393187Y-125133608D01*
X60329539Y-125116554D01*
X60265892Y-125099500D01*
X60134108Y-125099500D01*
X60006812Y-125133608D01*
X59892686Y-125199500D01*
X59892683Y-125199502D01*
X59799502Y-125292683D01*
X59799500Y-125292686D01*
X59733608Y-125406812D01*
X59699500Y-125534108D01*
X28397466Y-125534108D01*
X28463224Y-125420212D01*
X28556054Y-125196100D01*
X28618838Y-124961789D01*
X28650500Y-124721288D01*
X28650500Y-124478712D01*
X28650500Y-124478711D01*
X87749500Y-124478711D01*
X87749500Y-124721288D01*
X87781161Y-124961785D01*
X87843947Y-125196104D01*
X87931226Y-125406814D01*
X87936776Y-125420212D01*
X88058064Y-125630289D01*
X88058066Y-125630292D01*
X88058067Y-125630293D01*
X88205733Y-125822736D01*
X88205739Y-125822743D01*
X88377256Y-125994260D01*
X88377263Y-125994266D01*
X88471259Y-126066391D01*
X88569711Y-126141936D01*
X88779788Y-126263224D01*
X89003900Y-126356054D01*
X89238211Y-126418838D01*
X89418586Y-126442584D01*
X89478711Y-126450500D01*
X89478712Y-126450500D01*
X89721289Y-126450500D01*
X89769388Y-126444167D01*
X89961789Y-126418838D01*
X90196100Y-126356054D01*
X90420212Y-126263224D01*
X90630289Y-126141936D01*
X90822738Y-125994265D01*
X90994265Y-125822738D01*
X91141936Y-125630289D01*
X91263224Y-125420212D01*
X91356054Y-125196100D01*
X91418838Y-124961789D01*
X91450500Y-124721288D01*
X91450500Y-124478712D01*
X91418838Y-124238211D01*
X91356054Y-124003900D01*
X91263224Y-123779788D01*
X91141936Y-123569711D01*
X90994265Y-123377262D01*
X90994260Y-123377256D01*
X90822743Y-123205739D01*
X90822736Y-123205733D01*
X90630293Y-123058067D01*
X90630292Y-123058066D01*
X90630289Y-123058064D01*
X90420212Y-122936776D01*
X90420205Y-122936773D01*
X90196104Y-122843947D01*
X89961785Y-122781161D01*
X89721289Y-122749500D01*
X89721288Y-122749500D01*
X89478712Y-122749500D01*
X89478711Y-122749500D01*
X89238214Y-122781161D01*
X89003895Y-122843947D01*
X88779794Y-122936773D01*
X88779785Y-122936777D01*
X88569706Y-123058067D01*
X88377263Y-123205733D01*
X88377256Y-123205739D01*
X88205739Y-123377256D01*
X88205733Y-123377263D01*
X88058067Y-123569706D01*
X87936777Y-123779785D01*
X87936773Y-123779794D01*
X87843947Y-124003895D01*
X87781161Y-124238214D01*
X87749500Y-124478711D01*
X28650500Y-124478711D01*
X28618838Y-124238211D01*
X28556054Y-124003900D01*
X28463224Y-123779788D01*
X28341936Y-123569711D01*
X28194265Y-123377262D01*
X28194260Y-123377256D01*
X28022743Y-123205739D01*
X28022736Y-123205733D01*
X27830293Y-123058067D01*
X27830292Y-123058066D01*
X27830289Y-123058064D01*
X27620212Y-122936776D01*
X27620205Y-122936773D01*
X27396104Y-122843947D01*
X27161785Y-122781161D01*
X26921289Y-122749500D01*
X26921288Y-122749500D01*
X26678712Y-122749500D01*
X26678711Y-122749500D01*
X26438214Y-122781161D01*
X26203895Y-122843947D01*
X25979794Y-122936773D01*
X25979785Y-122936777D01*
X25769706Y-123058067D01*
X25577263Y-123205733D01*
X25577256Y-123205739D01*
X25405739Y-123377256D01*
X25405733Y-123377263D01*
X25258067Y-123569706D01*
X25136777Y-123779785D01*
X25136773Y-123779794D01*
X25043947Y-124003895D01*
X24981161Y-124238214D01*
X24949500Y-124478711D01*
X23700500Y-124478711D01*
X23700500Y-119334108D01*
X54299500Y-119334108D01*
X54299500Y-119465891D01*
X54333608Y-119593187D01*
X54366554Y-119650250D01*
X54399500Y-119707314D01*
X54399502Y-119707316D01*
X54417234Y-119725048D01*
X54450719Y-119786371D01*
X54445735Y-119856063D01*
X54427939Y-119888202D01*
X54424506Y-119892676D01*
X54358608Y-120006813D01*
X54324500Y-120134108D01*
X54324500Y-120265891D01*
X54358608Y-120393187D01*
X54391554Y-120450250D01*
X54424500Y-120507314D01*
X54424502Y-120507316D01*
X54429505Y-120512319D01*
X54462990Y-120573642D01*
X54458006Y-120643334D01*
X54429505Y-120687681D01*
X54424502Y-120692683D01*
X54424500Y-120692686D01*
X54358608Y-120806812D01*
X54352681Y-120828934D01*
X54324500Y-120934108D01*
X54324500Y-121065892D01*
X54330427Y-121088011D01*
X54358608Y-121193187D01*
X54391554Y-121250250D01*
X54424500Y-121307314D01*
X54517686Y-121400500D01*
X54631814Y-121466392D01*
X54759108Y-121500500D01*
X54759110Y-121500500D01*
X54890890Y-121500500D01*
X54890892Y-121500500D01*
X55018186Y-121466392D01*
X55132314Y-121400500D01*
X55225500Y-121307314D01*
X55291392Y-121193186D01*
X55325500Y-121065892D01*
X55325500Y-120934108D01*
X55291392Y-120806814D01*
X55225500Y-120692686D01*
X55220495Y-120687681D01*
X55187010Y-120626358D01*
X55191994Y-120556666D01*
X55220495Y-120512319D01*
X55225500Y-120507314D01*
X55291392Y-120393186D01*
X55325500Y-120265892D01*
X55325500Y-120134108D01*
X58274500Y-120134108D01*
X58274500Y-120265891D01*
X58308608Y-120393187D01*
X58341554Y-120450250D01*
X58374500Y-120507314D01*
X58374502Y-120507316D01*
X58444738Y-120577552D01*
X58478223Y-120638875D01*
X58473239Y-120708567D01*
X58464444Y-120727233D01*
X58405729Y-120828930D01*
X58405729Y-120828931D01*
X58371620Y-120956228D01*
X58371620Y-121088011D01*
X58405728Y-121215307D01*
X58438674Y-121272370D01*
X58471620Y-121329434D01*
X58564806Y-121422620D01*
X58678934Y-121488512D01*
X58806228Y-121522620D01*
X58806230Y-121522620D01*
X58938010Y-121522620D01*
X58938012Y-121522620D01*
X59065306Y-121488512D01*
X59179434Y-121422620D01*
X59272620Y-121329434D01*
X59338512Y-121215306D01*
X59372620Y-121088012D01*
X59372620Y-120956228D01*
X59338512Y-120828934D01*
X59272620Y-120714806D01*
X59202381Y-120644567D01*
X59168896Y-120583244D01*
X59173880Y-120513552D01*
X59182670Y-120494893D01*
X59241392Y-120393186D01*
X59275500Y-120265892D01*
X59275500Y-120134108D01*
X59241392Y-120006814D01*
X59175500Y-119892686D01*
X59082314Y-119799500D01*
X58986075Y-119743936D01*
X58968187Y-119733608D01*
X58870069Y-119707318D01*
X58840892Y-119699500D01*
X58709108Y-119699500D01*
X58581812Y-119733608D01*
X58467686Y-119799500D01*
X58467683Y-119799502D01*
X58374502Y-119892683D01*
X58374500Y-119892686D01*
X58308608Y-120006812D01*
X58274500Y-120134108D01*
X55325500Y-120134108D01*
X55291392Y-120006814D01*
X55225500Y-119892686D01*
X55207765Y-119874951D01*
X55174280Y-119813628D01*
X55179264Y-119743936D01*
X55197071Y-119711783D01*
X55200497Y-119707318D01*
X55200498Y-119707315D01*
X55200500Y-119707314D01*
X55266392Y-119593186D01*
X55300500Y-119465892D01*
X55300500Y-119334108D01*
X55266392Y-119206814D01*
X55200500Y-119092686D01*
X55107314Y-118999500D01*
X55050250Y-118966554D01*
X54993187Y-118933608D01*
X54929539Y-118916554D01*
X54865892Y-118899500D01*
X54734108Y-118899500D01*
X54606812Y-118933608D01*
X54492686Y-118999500D01*
X54492683Y-118999502D01*
X54399502Y-119092683D01*
X54399500Y-119092686D01*
X54333608Y-119206812D01*
X54299500Y-119334108D01*
X23700500Y-119334108D01*
X23700500Y-117734108D01*
X58274500Y-117734108D01*
X58274500Y-117865891D01*
X58308608Y-117993187D01*
X58341554Y-118050250D01*
X58374500Y-118107314D01*
X58467686Y-118200500D01*
X58581814Y-118266392D01*
X58709108Y-118300500D01*
X58709110Y-118300500D01*
X58840890Y-118300500D01*
X58840892Y-118300500D01*
X58968186Y-118266392D01*
X59082314Y-118200500D01*
X59175500Y-118107314D01*
X59241392Y-117993186D01*
X59275500Y-117865892D01*
X59275500Y-117734108D01*
X59241392Y-117606814D01*
X59175500Y-117492686D01*
X59082314Y-117399500D01*
X59025250Y-117366554D01*
X58968187Y-117333608D01*
X58904539Y-117316554D01*
X58840892Y-117299500D01*
X58709108Y-117299500D01*
X58581812Y-117333608D01*
X58467686Y-117399500D01*
X58467683Y-117399502D01*
X58374502Y-117492683D01*
X58374500Y-117492686D01*
X58308608Y-117606812D01*
X58274500Y-117734108D01*
X23700500Y-117734108D01*
X23700500Y-117134108D01*
X65499500Y-117134108D01*
X65499500Y-117265891D01*
X65533608Y-117393187D01*
X65566554Y-117450250D01*
X65599500Y-117507314D01*
X65692686Y-117600500D01*
X65806814Y-117666392D01*
X65934108Y-117700500D01*
X65934110Y-117700500D01*
X66065890Y-117700500D01*
X66065892Y-117700500D01*
X66193186Y-117666392D01*
X66307314Y-117600500D01*
X66400500Y-117507314D01*
X66466392Y-117393186D01*
X66500500Y-117265892D01*
X66500500Y-117134108D01*
X66466392Y-117006814D01*
X66400500Y-116892686D01*
X66307314Y-116799500D01*
X66250250Y-116766554D01*
X66193187Y-116733608D01*
X66129539Y-116716554D01*
X66065892Y-116699500D01*
X65934108Y-116699500D01*
X65806812Y-116733608D01*
X65692686Y-116799500D01*
X65692683Y-116799502D01*
X65599502Y-116892683D01*
X65599500Y-116892686D01*
X65533608Y-117006812D01*
X65499500Y-117134108D01*
X23700500Y-117134108D01*
X23700500Y-111511304D01*
X29139500Y-111511304D01*
X29139500Y-111688695D01*
X29174103Y-111862658D01*
X29174106Y-111862667D01*
X29241983Y-112026540D01*
X29241990Y-112026553D01*
X29340535Y-112174034D01*
X29340538Y-112174038D01*
X29465961Y-112299461D01*
X29465965Y-112299464D01*
X29613446Y-112398009D01*
X29613459Y-112398016D01*
X29736363Y-112448923D01*
X29777334Y-112465894D01*
X29777336Y-112465894D01*
X29777341Y-112465896D01*
X29951304Y-112500499D01*
X29951307Y-112500500D01*
X29951309Y-112500500D01*
X30128692Y-112500500D01*
X30149164Y-112496427D01*
X30206713Y-112484980D01*
X30276304Y-112491207D01*
X30331482Y-112534069D01*
X30354727Y-112599959D01*
X30352523Y-112630787D01*
X30329500Y-112746536D01*
X30329500Y-112953469D01*
X30369868Y-113156412D01*
X30369870Y-113156420D01*
X30449058Y-113347596D01*
X30564024Y-113519657D01*
X30710342Y-113665975D01*
X30710345Y-113665977D01*
X30882402Y-113780941D01*
X31073580Y-113860130D01*
X31276530Y-113900499D01*
X31276534Y-113900500D01*
X31276535Y-113900500D01*
X31483466Y-113900500D01*
X31483467Y-113900499D01*
X31686420Y-113860130D01*
X31877598Y-113780941D01*
X32049655Y-113665977D01*
X32195977Y-113519655D01*
X32310941Y-113347598D01*
X32390130Y-113156420D01*
X32430500Y-112953465D01*
X32430500Y-112746535D01*
X32430499Y-112746530D01*
X32829500Y-112746530D01*
X32829500Y-112953469D01*
X32869868Y-113156412D01*
X32869870Y-113156420D01*
X32949058Y-113347596D01*
X33064024Y-113519657D01*
X33210342Y-113665975D01*
X33210345Y-113665977D01*
X33382402Y-113780941D01*
X33573580Y-113860130D01*
X33776530Y-113900499D01*
X33776534Y-113900500D01*
X33776535Y-113900500D01*
X33983466Y-113900500D01*
X33983467Y-113900499D01*
X34186420Y-113860130D01*
X34377598Y-113780941D01*
X34450991Y-113731902D01*
X38499500Y-113731902D01*
X38499500Y-113968097D01*
X38536446Y-114201368D01*
X38609433Y-114425996D01*
X38716657Y-114636433D01*
X38855483Y-114827510D01*
X39022490Y-114994517D01*
X39213567Y-115133343D01*
X39312991Y-115184002D01*
X39424003Y-115240566D01*
X39424005Y-115240566D01*
X39424008Y-115240568D01*
X39501941Y-115265890D01*
X39648631Y-115313553D01*
X39881903Y-115350500D01*
X39881908Y-115350500D01*
X40118097Y-115350500D01*
X40351368Y-115313553D01*
X40575992Y-115240568D01*
X40784932Y-115134108D01*
X53699500Y-115134108D01*
X53699500Y-115265891D01*
X53733608Y-115393187D01*
X53766554Y-115450250D01*
X53799500Y-115507314D01*
X53892686Y-115600500D01*
X54006814Y-115666392D01*
X54134108Y-115700500D01*
X54134110Y-115700500D01*
X54265890Y-115700500D01*
X54265892Y-115700500D01*
X54393186Y-115666392D01*
X54507314Y-115600500D01*
X54600500Y-115507314D01*
X54666392Y-115393186D01*
X54700500Y-115265892D01*
X54700500Y-115134108D01*
X55099500Y-115134108D01*
X55099500Y-115265891D01*
X55133608Y-115393187D01*
X55166554Y-115450250D01*
X55199500Y-115507314D01*
X55292686Y-115600500D01*
X55406814Y-115666392D01*
X55534108Y-115700500D01*
X55534110Y-115700500D01*
X55665890Y-115700500D01*
X55665892Y-115700500D01*
X55793186Y-115666392D01*
X55907314Y-115600500D01*
X56000500Y-115507314D01*
X56066392Y-115393186D01*
X56100500Y-115265892D01*
X56100500Y-115134108D01*
X56066392Y-115006814D01*
X56000500Y-114892686D01*
X55907314Y-114799500D01*
X55850250Y-114766554D01*
X55793187Y-114733608D01*
X55729539Y-114716554D01*
X55665892Y-114699500D01*
X55534108Y-114699500D01*
X55406812Y-114733608D01*
X55292686Y-114799500D01*
X55292683Y-114799502D01*
X55199502Y-114892683D01*
X55199500Y-114892686D01*
X55133608Y-115006812D01*
X55099500Y-115134108D01*
X54700500Y-115134108D01*
X54666392Y-115006814D01*
X54600500Y-114892686D01*
X54507314Y-114799500D01*
X54450250Y-114766554D01*
X54393187Y-114733608D01*
X54329539Y-114716554D01*
X54265892Y-114699500D01*
X54134108Y-114699500D01*
X54006812Y-114733608D01*
X53892686Y-114799500D01*
X53892683Y-114799502D01*
X53799502Y-114892683D01*
X53799500Y-114892686D01*
X53733608Y-115006812D01*
X53699500Y-115134108D01*
X40784932Y-115134108D01*
X40786433Y-115133343D01*
X40977510Y-114994517D01*
X41144517Y-114827510D01*
X41283343Y-114636433D01*
X41390568Y-114425992D01*
X41463553Y-114201368D01*
X41500500Y-113968097D01*
X41500500Y-113731902D01*
X41463553Y-113498631D01*
X41390566Y-113274003D01*
X41283342Y-113063566D01*
X41144517Y-112872490D01*
X40977510Y-112705483D01*
X40786433Y-112566657D01*
X40741140Y-112543579D01*
X40575996Y-112459433D01*
X40351368Y-112386446D01*
X40118097Y-112349500D01*
X40118092Y-112349500D01*
X39881908Y-112349500D01*
X39881903Y-112349500D01*
X39648631Y-112386446D01*
X39424003Y-112459433D01*
X39213566Y-112566657D01*
X39125300Y-112630787D01*
X39022490Y-112705483D01*
X39022488Y-112705485D01*
X39022487Y-112705485D01*
X38855485Y-112872487D01*
X38855485Y-112872488D01*
X38855483Y-112872490D01*
X38796651Y-112953465D01*
X38716657Y-113063566D01*
X38609433Y-113274003D01*
X38536446Y-113498631D01*
X38499500Y-113731902D01*
X34450991Y-113731902D01*
X34549655Y-113665977D01*
X34549658Y-113665974D01*
X34576278Y-113639355D01*
X34695974Y-113519658D01*
X34695975Y-113519657D01*
X34695977Y-113519655D01*
X34810941Y-113347598D01*
X34890130Y-113156420D01*
X34930500Y-112953465D01*
X34930500Y-112746535D01*
X34890130Y-112543580D01*
X34810941Y-112352402D01*
X34695977Y-112180345D01*
X34695975Y-112180342D01*
X34549657Y-112034024D01*
X34463626Y-111976541D01*
X34377598Y-111919059D01*
X34377436Y-111918992D01*
X34186420Y-111839870D01*
X34186412Y-111839868D01*
X33983469Y-111799500D01*
X33983465Y-111799500D01*
X33776535Y-111799500D01*
X33776530Y-111799500D01*
X33573587Y-111839868D01*
X33573579Y-111839870D01*
X33382403Y-111919058D01*
X33210342Y-112034024D01*
X33064024Y-112180342D01*
X32949058Y-112352403D01*
X32869870Y-112543579D01*
X32869868Y-112543587D01*
X32829500Y-112746530D01*
X32430499Y-112746530D01*
X32390130Y-112543580D01*
X32310941Y-112352402D01*
X32195977Y-112180345D01*
X32195975Y-112180342D01*
X32049657Y-112034024D01*
X31963626Y-111976541D01*
X31877598Y-111919059D01*
X31877436Y-111918992D01*
X31686420Y-111839870D01*
X31686412Y-111839868D01*
X31483469Y-111799500D01*
X31483465Y-111799500D01*
X31276535Y-111799500D01*
X31276530Y-111799500D01*
X31085720Y-111837454D01*
X31016128Y-111831227D01*
X30960951Y-111788363D01*
X30937707Y-111722473D01*
X30937543Y-111713975D01*
X30937712Y-111702706D01*
X30940500Y-111688691D01*
X30940500Y-111517050D01*
X30940514Y-111516118D01*
X30950598Y-111483588D01*
X30960185Y-111450941D01*
X30960916Y-111450307D01*
X30961203Y-111449382D01*
X30987284Y-111427458D01*
X31012989Y-111405186D01*
X31013946Y-111405048D01*
X31014688Y-111404425D01*
X31048455Y-111400086D01*
X31082147Y-111395242D01*
X31083866Y-111395536D01*
X31083988Y-111395521D01*
X31084107Y-111395577D01*
X31088680Y-111396360D01*
X31139908Y-111406551D01*
X31180000Y-111410500D01*
X31180006Y-111410500D01*
X31979994Y-111410500D01*
X31980000Y-111410500D01*
X32020092Y-111406551D01*
X32117676Y-111387140D01*
X32191754Y-111356456D01*
X32274482Y-111301179D01*
X32331179Y-111244482D01*
X32386456Y-111161754D01*
X32417140Y-111087676D01*
X32436551Y-110990092D01*
X32440500Y-110950000D01*
X32440500Y-110246530D01*
X32829500Y-110246530D01*
X32829500Y-110453469D01*
X32869868Y-110656412D01*
X32869870Y-110656420D01*
X32949058Y-110847596D01*
X33064024Y-111019657D01*
X33210342Y-111165975D01*
X33210345Y-111165977D01*
X33382402Y-111280941D01*
X33573580Y-111360130D01*
X33755737Y-111396363D01*
X33776530Y-111400499D01*
X33776534Y-111400500D01*
X33776535Y-111400500D01*
X33983466Y-111400500D01*
X33983467Y-111400499D01*
X34186420Y-111360130D01*
X34377598Y-111280941D01*
X34549655Y-111165977D01*
X34695977Y-111019655D01*
X34810941Y-110847598D01*
X34890130Y-110656420D01*
X34930500Y-110453465D01*
X34930500Y-110246535D01*
X34890130Y-110043580D01*
X34810941Y-109852402D01*
X34695977Y-109680345D01*
X34695975Y-109680342D01*
X34549657Y-109534024D01*
X34432157Y-109455514D01*
X34377598Y-109419059D01*
X34328744Y-109398823D01*
X34186420Y-109339870D01*
X34186412Y-109339868D01*
X33983469Y-109299500D01*
X33983465Y-109299500D01*
X33776535Y-109299500D01*
X33776530Y-109299500D01*
X33573587Y-109339868D01*
X33573579Y-109339870D01*
X33382403Y-109419058D01*
X33210342Y-109534024D01*
X33064024Y-109680342D01*
X32949058Y-109852403D01*
X32869870Y-110043579D01*
X32869868Y-110043587D01*
X32829500Y-110246530D01*
X32440500Y-110246530D01*
X32440500Y-109750000D01*
X32436551Y-109709908D01*
X32417140Y-109612324D01*
X32412602Y-109601368D01*
X32386459Y-109538252D01*
X32386452Y-109538239D01*
X32331179Y-109455518D01*
X32331176Y-109455514D01*
X32274485Y-109398823D01*
X32274481Y-109398820D01*
X32191760Y-109343547D01*
X32191747Y-109343540D01*
X32117680Y-109312861D01*
X32117668Y-109312858D01*
X32020108Y-109293452D01*
X32020094Y-109293449D01*
X32010069Y-109292461D01*
X31980000Y-109289500D01*
X30780000Y-109289500D01*
X30753272Y-109292132D01*
X30739905Y-109293449D01*
X30739891Y-109293452D01*
X30642331Y-109312858D01*
X30642319Y-109312861D01*
X30568252Y-109343540D01*
X30568239Y-109343547D01*
X30485518Y-109398820D01*
X30485514Y-109398823D01*
X30428823Y-109455514D01*
X30428820Y-109455518D01*
X30373547Y-109538239D01*
X30373540Y-109538252D01*
X30342861Y-109612319D01*
X30342858Y-109612331D01*
X30323452Y-109709891D01*
X30323449Y-109709905D01*
X30319500Y-109750005D01*
X30319500Y-110549995D01*
X30321944Y-110574809D01*
X30308925Y-110643456D01*
X30260861Y-110694166D01*
X30193010Y-110710841D01*
X30174351Y-110708582D01*
X30128691Y-110699500D01*
X29951309Y-110699500D01*
X29951306Y-110699500D01*
X29777341Y-110734103D01*
X29777332Y-110734106D01*
X29613459Y-110801983D01*
X29613446Y-110801990D01*
X29465965Y-110900535D01*
X29465961Y-110900538D01*
X29340538Y-111025961D01*
X29340535Y-111025965D01*
X29241990Y-111173446D01*
X29241983Y-111173459D01*
X29174106Y-111337332D01*
X29174103Y-111337341D01*
X29139500Y-111511304D01*
X23700500Y-111511304D01*
X23700500Y-109131902D01*
X38499500Y-109131902D01*
X38499500Y-109368097D01*
X38536446Y-109601368D01*
X38609433Y-109825996D01*
X38716657Y-110036433D01*
X38855483Y-110227510D01*
X39022490Y-110394517D01*
X39213567Y-110533343D01*
X39294949Y-110574809D01*
X39424003Y-110640566D01*
X39424005Y-110640566D01*
X39424008Y-110640568D01*
X39544412Y-110679689D01*
X39648631Y-110713553D01*
X39881903Y-110750500D01*
X39881908Y-110750500D01*
X40118097Y-110750500D01*
X40351368Y-110713553D01*
X40366667Y-110708582D01*
X40575992Y-110640568D01*
X40786433Y-110533343D01*
X40977510Y-110394517D01*
X41144517Y-110227510D01*
X41283343Y-110036433D01*
X41390568Y-109825992D01*
X41463553Y-109601368D01*
X41473550Y-109538252D01*
X41500500Y-109368097D01*
X41500500Y-109131902D01*
X41463553Y-108898631D01*
X41390566Y-108674003D01*
X41283342Y-108463566D01*
X41144517Y-108272490D01*
X40977510Y-108105483D01*
X40786433Y-107966657D01*
X40575996Y-107859433D01*
X40351368Y-107786446D01*
X40118097Y-107749500D01*
X40118092Y-107749500D01*
X39881908Y-107749500D01*
X39881903Y-107749500D01*
X39648631Y-107786446D01*
X39424003Y-107859433D01*
X39213566Y-107966657D01*
X39104550Y-108045862D01*
X39022490Y-108105483D01*
X39022488Y-108105485D01*
X39022487Y-108105485D01*
X38855485Y-108272487D01*
X38855485Y-108272488D01*
X38855483Y-108272490D01*
X38795862Y-108354550D01*
X38716657Y-108463566D01*
X38609433Y-108674003D01*
X38536446Y-108898631D01*
X38499500Y-109131902D01*
X23700500Y-109131902D01*
X23700500Y-102934108D01*
X59699500Y-102934108D01*
X59699500Y-103065891D01*
X59733608Y-103193187D01*
X59766554Y-103250250D01*
X59799500Y-103307314D01*
X59892686Y-103400500D01*
X60006814Y-103466392D01*
X60134108Y-103500500D01*
X60134110Y-103500500D01*
X60265890Y-103500500D01*
X60265892Y-103500500D01*
X60393186Y-103466392D01*
X60507314Y-103400500D01*
X60600500Y-103307314D01*
X60666392Y-103193186D01*
X60700500Y-103065892D01*
X60700500Y-102934108D01*
X60666392Y-102806814D01*
X60600500Y-102692686D01*
X60507314Y-102599500D01*
X60450250Y-102566554D01*
X60393187Y-102533608D01*
X60329539Y-102516554D01*
X60265892Y-102499500D01*
X60134108Y-102499500D01*
X60006812Y-102533608D01*
X59892686Y-102599500D01*
X59892683Y-102599502D01*
X59799502Y-102692683D01*
X59799500Y-102692686D01*
X59733608Y-102806812D01*
X59699500Y-102934108D01*
X23700500Y-102934108D01*
X23700500Y-102473007D01*
X23720185Y-102405968D01*
X23772989Y-102360213D01*
X23842147Y-102350269D01*
X23893392Y-102369906D01*
X23921768Y-102388867D01*
X23921770Y-102388868D01*
X23980247Y-102400499D01*
X23980250Y-102400500D01*
X23980252Y-102400500D01*
X36019750Y-102400500D01*
X36019751Y-102400499D01*
X36034568Y-102397552D01*
X36078229Y-102388868D01*
X36078229Y-102388867D01*
X36078231Y-102388867D01*
X36144552Y-102344552D01*
X36188867Y-102278231D01*
X36188867Y-102278229D01*
X36188868Y-102278229D01*
X36200499Y-102219752D01*
X36200500Y-102219750D01*
X36200500Y-100446530D01*
X78534500Y-100446530D01*
X78534500Y-100653469D01*
X78574868Y-100856412D01*
X78574870Y-100856420D01*
X78654058Y-101047596D01*
X78769024Y-101219657D01*
X78915342Y-101365975D01*
X78915345Y-101365977D01*
X79087402Y-101480941D01*
X79278580Y-101560130D01*
X79481530Y-101600499D01*
X79481534Y-101600500D01*
X79481535Y-101600500D01*
X79688466Y-101600500D01*
X79688467Y-101600499D01*
X79891420Y-101560130D01*
X80082598Y-101480941D01*
X80254655Y-101365977D01*
X80400977Y-101219655D01*
X80515941Y-101047598D01*
X80595130Y-100856420D01*
X80635500Y-100653465D01*
X80635500Y-100446535D01*
X80635499Y-100446530D01*
X81034500Y-100446530D01*
X81034500Y-100653469D01*
X81074868Y-100856412D01*
X81074870Y-100856420D01*
X81154058Y-101047596D01*
X81269024Y-101219657D01*
X81415342Y-101365975D01*
X81415345Y-101365977D01*
X81587402Y-101480941D01*
X81778580Y-101560130D01*
X81981530Y-101600499D01*
X81981534Y-101600500D01*
X81981535Y-101600500D01*
X82188466Y-101600500D01*
X82188467Y-101600499D01*
X82391420Y-101560130D01*
X82582598Y-101480941D01*
X82754655Y-101365977D01*
X82900977Y-101219655D01*
X83015941Y-101047598D01*
X83095130Y-100856420D01*
X83135500Y-100653465D01*
X83135500Y-100446535D01*
X83095130Y-100243580D01*
X83015941Y-100052402D01*
X82900977Y-99880345D01*
X82900975Y-99880342D01*
X82754657Y-99734024D01*
X82610942Y-99637998D01*
X82582598Y-99619059D01*
X82557753Y-99608768D01*
X82391420Y-99539870D01*
X82391412Y-99539868D01*
X82188469Y-99499500D01*
X82188465Y-99499500D01*
X81981535Y-99499500D01*
X81981530Y-99499500D01*
X81778587Y-99539868D01*
X81778579Y-99539870D01*
X81587403Y-99619058D01*
X81415342Y-99734024D01*
X81269024Y-99880342D01*
X81154058Y-100052403D01*
X81074870Y-100243579D01*
X81074868Y-100243587D01*
X81034500Y-100446530D01*
X80635499Y-100446530D01*
X80595130Y-100243580D01*
X80515941Y-100052402D01*
X80400977Y-99880345D01*
X80400975Y-99880342D01*
X80254657Y-99734024D01*
X80110942Y-99637998D01*
X80082598Y-99619059D01*
X80057753Y-99608768D01*
X79891420Y-99539870D01*
X79891412Y-99539868D01*
X79688469Y-99499500D01*
X79688465Y-99499500D01*
X79481535Y-99499500D01*
X79481530Y-99499500D01*
X79278587Y-99539868D01*
X79278579Y-99539870D01*
X79087403Y-99619058D01*
X78915342Y-99734024D01*
X78769024Y-99880342D01*
X78654058Y-100052403D01*
X78574870Y-100243579D01*
X78574868Y-100243587D01*
X78534500Y-100446530D01*
X36200500Y-100446530D01*
X36200500Y-97831902D01*
X38499500Y-97831902D01*
X38499500Y-98068097D01*
X38536446Y-98301368D01*
X38609433Y-98525996D01*
X38701820Y-98707314D01*
X38716657Y-98736433D01*
X38855483Y-98927510D01*
X39022490Y-99094517D01*
X39213567Y-99233343D01*
X39312991Y-99284002D01*
X39424003Y-99340566D01*
X39424005Y-99340566D01*
X39424008Y-99340568D01*
X39544412Y-99379689D01*
X39648631Y-99413553D01*
X39881903Y-99450500D01*
X39881908Y-99450500D01*
X40118097Y-99450500D01*
X40351368Y-99413553D01*
X40575992Y-99340568D01*
X40786433Y-99233343D01*
X40977510Y-99094517D01*
X41144517Y-98927510D01*
X41283343Y-98736433D01*
X41390568Y-98525992D01*
X41463553Y-98301368D01*
X41463849Y-98299500D01*
X41500500Y-98068097D01*
X41500500Y-97831902D01*
X41463553Y-97598631D01*
X41401227Y-97406814D01*
X41390568Y-97374008D01*
X41390566Y-97374005D01*
X41390566Y-97374003D01*
X41321267Y-97237998D01*
X41283343Y-97163567D01*
X41144517Y-96972490D01*
X40977510Y-96805483D01*
X40879271Y-96734108D01*
X54324500Y-96734108D01*
X54324500Y-96865891D01*
X54358608Y-96993187D01*
X54362253Y-96999500D01*
X54424500Y-97107314D01*
X54424502Y-97107316D01*
X54429505Y-97112319D01*
X54462990Y-97173642D01*
X54458006Y-97243334D01*
X54429505Y-97287681D01*
X54424502Y-97292683D01*
X54424500Y-97292686D01*
X54358608Y-97406812D01*
X54324500Y-97534108D01*
X54324500Y-97665891D01*
X54358608Y-97793187D01*
X54380961Y-97831902D01*
X54424500Y-97907314D01*
X54424502Y-97907316D01*
X54429505Y-97912319D01*
X54462990Y-97973642D01*
X54458006Y-98043334D01*
X54429505Y-98087681D01*
X54424502Y-98092683D01*
X54424500Y-98092686D01*
X54358608Y-98206812D01*
X54324634Y-98333608D01*
X54324500Y-98334108D01*
X54324500Y-98465892D01*
X54340604Y-98525992D01*
X54358608Y-98593187D01*
X54391554Y-98650250D01*
X54424500Y-98707314D01*
X54517686Y-98800500D01*
X54616521Y-98857563D01*
X54631091Y-98865975D01*
X54631814Y-98866392D01*
X54759108Y-98900500D01*
X54759110Y-98900500D01*
X54890890Y-98900500D01*
X54890892Y-98900500D01*
X55018186Y-98866392D01*
X55132314Y-98800500D01*
X55225500Y-98707314D01*
X55291392Y-98593186D01*
X55325500Y-98465892D01*
X55325500Y-98334108D01*
X55291392Y-98206814D01*
X55225500Y-98092686D01*
X55220495Y-98087681D01*
X55187010Y-98026358D01*
X55191994Y-97956666D01*
X55220495Y-97912319D01*
X55225500Y-97907314D01*
X55291392Y-97793186D01*
X55325500Y-97665892D01*
X55325500Y-97534108D01*
X58274500Y-97534108D01*
X58274500Y-97665891D01*
X58308608Y-97793187D01*
X58330961Y-97831902D01*
X58374500Y-97907314D01*
X58374502Y-97907316D01*
X58444738Y-97977552D01*
X58478223Y-98038875D01*
X58473239Y-98108567D01*
X58464444Y-98127233D01*
X58405729Y-98228930D01*
X58405729Y-98228931D01*
X58405729Y-98228932D01*
X58405728Y-98228934D01*
X58371620Y-98356228D01*
X58371620Y-98488012D01*
X58381797Y-98525992D01*
X58405728Y-98615307D01*
X58429852Y-98657090D01*
X58471620Y-98729434D01*
X58564806Y-98822620D01*
X58678934Y-98888512D01*
X58806228Y-98922620D01*
X58806230Y-98922620D01*
X58938010Y-98922620D01*
X58938012Y-98922620D01*
X59065306Y-98888512D01*
X59179434Y-98822620D01*
X59272620Y-98729434D01*
X59338512Y-98615306D01*
X59372620Y-98488012D01*
X59372620Y-98356228D01*
X59338512Y-98228934D01*
X59272620Y-98114806D01*
X59202381Y-98044567D01*
X59168896Y-97983244D01*
X59173880Y-97913552D01*
X59182670Y-97894893D01*
X59241392Y-97793186D01*
X59275500Y-97665892D01*
X59275500Y-97534108D01*
X59241392Y-97406814D01*
X59175500Y-97292686D01*
X59082314Y-97199500D01*
X59008124Y-97156666D01*
X58968187Y-97133608D01*
X58904539Y-97116554D01*
X58840892Y-97099500D01*
X58709108Y-97099500D01*
X58581812Y-97133608D01*
X58467686Y-97199500D01*
X58467683Y-97199502D01*
X58374502Y-97292683D01*
X58374500Y-97292686D01*
X58308608Y-97406812D01*
X58274500Y-97534108D01*
X55325500Y-97534108D01*
X55291392Y-97406814D01*
X55225500Y-97292686D01*
X55220495Y-97287681D01*
X55187010Y-97226358D01*
X55191994Y-97156666D01*
X55220495Y-97112319D01*
X55225500Y-97107314D01*
X55291392Y-96993186D01*
X55325500Y-96865892D01*
X55325500Y-96734108D01*
X55291392Y-96606814D01*
X55225500Y-96492686D01*
X55132314Y-96399500D01*
X55075250Y-96366554D01*
X55018187Y-96333608D01*
X54954539Y-96316554D01*
X54890892Y-96299500D01*
X54759108Y-96299500D01*
X54631812Y-96333608D01*
X54517686Y-96399500D01*
X54517683Y-96399502D01*
X54424502Y-96492683D01*
X54424500Y-96492686D01*
X54358608Y-96606812D01*
X54324500Y-96734108D01*
X40879271Y-96734108D01*
X40786433Y-96666657D01*
X40575996Y-96559433D01*
X40351368Y-96486446D01*
X40118097Y-96449500D01*
X40118092Y-96449500D01*
X39881908Y-96449500D01*
X39881903Y-96449500D01*
X39648631Y-96486446D01*
X39424003Y-96559433D01*
X39213566Y-96666657D01*
X39175792Y-96694102D01*
X39022490Y-96805483D01*
X39022488Y-96805485D01*
X39022487Y-96805485D01*
X38855485Y-96972487D01*
X38855485Y-96972488D01*
X38855483Y-96972490D01*
X38795862Y-97054550D01*
X38716657Y-97163566D01*
X38609433Y-97374003D01*
X38536446Y-97598631D01*
X38499500Y-97831902D01*
X36200500Y-97831902D01*
X36200500Y-96180249D01*
X36200499Y-96180247D01*
X36188868Y-96121770D01*
X36188867Y-96121769D01*
X36144552Y-96055447D01*
X36078230Y-96011132D01*
X36078229Y-96011131D01*
X36019752Y-95999500D01*
X36019748Y-95999500D01*
X23980252Y-95999500D01*
X23980247Y-95999500D01*
X23921770Y-96011131D01*
X23921770Y-96011132D01*
X23893390Y-96030095D01*
X23826713Y-96050972D01*
X23759333Y-96032487D01*
X23712643Y-95980508D01*
X23700500Y-95926992D01*
X23700500Y-95134108D01*
X58274500Y-95134108D01*
X58274500Y-95265891D01*
X58308608Y-95393187D01*
X58308609Y-95393188D01*
X58374500Y-95507314D01*
X58467686Y-95600500D01*
X58581814Y-95666392D01*
X58709108Y-95700500D01*
X58709110Y-95700500D01*
X58840890Y-95700500D01*
X58840892Y-95700500D01*
X58968186Y-95666392D01*
X59082314Y-95600500D01*
X59175500Y-95507314D01*
X59241392Y-95393186D01*
X59275500Y-95265892D01*
X59275500Y-95134108D01*
X59241392Y-95006814D01*
X59175500Y-94892686D01*
X59082314Y-94799500D01*
X59025250Y-94766554D01*
X58968187Y-94733608D01*
X58904539Y-94716554D01*
X58840892Y-94699500D01*
X58709108Y-94699500D01*
X58581812Y-94733608D01*
X58467686Y-94799500D01*
X58467683Y-94799502D01*
X58374502Y-94892683D01*
X58374500Y-94892686D01*
X58308608Y-95006812D01*
X58274500Y-95134108D01*
X23700500Y-95134108D01*
X23700500Y-93231902D01*
X38499500Y-93231902D01*
X38499500Y-93468097D01*
X38536446Y-93701368D01*
X38609433Y-93925996D01*
X38677779Y-94060131D01*
X38716657Y-94136433D01*
X38855483Y-94327510D01*
X39022490Y-94494517D01*
X39213567Y-94633343D01*
X39277444Y-94665890D01*
X39424003Y-94740566D01*
X39424005Y-94740566D01*
X39424008Y-94740568D01*
X39544412Y-94779689D01*
X39648631Y-94813553D01*
X39881903Y-94850500D01*
X39881908Y-94850500D01*
X40118097Y-94850500D01*
X40351368Y-94813553D01*
X40394612Y-94799502D01*
X40575992Y-94740568D01*
X40786433Y-94633343D01*
X40923018Y-94534108D01*
X65499500Y-94534108D01*
X65499500Y-94665891D01*
X65533608Y-94793187D01*
X65545367Y-94813553D01*
X65599500Y-94907314D01*
X65692686Y-95000500D01*
X65806814Y-95066392D01*
X65934108Y-95100500D01*
X65934110Y-95100500D01*
X66065890Y-95100500D01*
X66065892Y-95100500D01*
X66193186Y-95066392D01*
X66307314Y-95000500D01*
X66400500Y-94907314D01*
X66466392Y-94793186D01*
X66500500Y-94665892D01*
X66500500Y-94534108D01*
X75599500Y-94534108D01*
X75599500Y-94665892D01*
X75617645Y-94733608D01*
X75633608Y-94793185D01*
X75633611Y-94793192D01*
X75659481Y-94838001D01*
X75675954Y-94905901D01*
X75659481Y-94961999D01*
X75633611Y-95006807D01*
X75633608Y-95006814D01*
X75599500Y-95134108D01*
X75599500Y-95265891D01*
X75633608Y-95393185D01*
X75633611Y-95393192D01*
X75659481Y-95438001D01*
X75675954Y-95505901D01*
X75659481Y-95561999D01*
X75633611Y-95606807D01*
X75633608Y-95606814D01*
X75599500Y-95734108D01*
X75599500Y-95865891D01*
X75633608Y-95993185D01*
X75633611Y-95993192D01*
X75659481Y-96038001D01*
X75675954Y-96105901D01*
X75659481Y-96161999D01*
X75633611Y-96206807D01*
X75633608Y-96206814D01*
X75599500Y-96334108D01*
X75599500Y-96465892D01*
X75606680Y-96492686D01*
X75633608Y-96593185D01*
X75633611Y-96593192D01*
X75659481Y-96638001D01*
X75675954Y-96705901D01*
X75659481Y-96761999D01*
X75633611Y-96806807D01*
X75633608Y-96806814D01*
X75599500Y-96934108D01*
X75599500Y-97065892D01*
X75628372Y-97173642D01*
X75633608Y-97193185D01*
X75633611Y-97193192D01*
X75659481Y-97238001D01*
X75675954Y-97305901D01*
X75659481Y-97361999D01*
X75633611Y-97406807D01*
X75633608Y-97406814D01*
X75599500Y-97534108D01*
X75599500Y-97665891D01*
X75633608Y-97793187D01*
X75655961Y-97831902D01*
X75699500Y-97907314D01*
X75792686Y-98000500D01*
X75906814Y-98066392D01*
X76034108Y-98100500D01*
X76034110Y-98100500D01*
X76165890Y-98100500D01*
X76165892Y-98100500D01*
X76293186Y-98066392D01*
X76337999Y-98040518D01*
X76405898Y-98024045D01*
X76462000Y-98040518D01*
X76466877Y-98043334D01*
X76506811Y-98066391D01*
X76506813Y-98066391D01*
X76506814Y-98066392D01*
X76634108Y-98100500D01*
X76634110Y-98100500D01*
X76765890Y-98100500D01*
X76765892Y-98100500D01*
X76893186Y-98066392D01*
X77007314Y-98000500D01*
X77061284Y-97946530D01*
X78534500Y-97946530D01*
X78534500Y-98153469D01*
X78574868Y-98356412D01*
X78574870Y-98356420D01*
X78631313Y-98492686D01*
X78654059Y-98547598D01*
X78693624Y-98606812D01*
X78769024Y-98719657D01*
X78915342Y-98865975D01*
X78915345Y-98865977D01*
X79087402Y-98980941D01*
X79278580Y-99060130D01*
X79479021Y-99100000D01*
X79481530Y-99100499D01*
X79481534Y-99100500D01*
X79481535Y-99100500D01*
X79688466Y-99100500D01*
X79688467Y-99100499D01*
X79891420Y-99060130D01*
X80082598Y-98980941D01*
X80254655Y-98865977D01*
X80400977Y-98719655D01*
X80515941Y-98547598D01*
X80595130Y-98356420D01*
X80635500Y-98153465D01*
X80635500Y-97946535D01*
X80635499Y-97946530D01*
X81034500Y-97946530D01*
X81034500Y-98153469D01*
X81074868Y-98356412D01*
X81074870Y-98356420D01*
X81131313Y-98492686D01*
X81154059Y-98547598D01*
X81193624Y-98606812D01*
X81269024Y-98719657D01*
X81415342Y-98865975D01*
X81415345Y-98865977D01*
X81587402Y-98980941D01*
X81778580Y-99060130D01*
X81979021Y-99100000D01*
X81981530Y-99100499D01*
X81981534Y-99100500D01*
X81981535Y-99100500D01*
X82188466Y-99100500D01*
X82188467Y-99100499D01*
X82391420Y-99060130D01*
X82582598Y-98980941D01*
X82754655Y-98865977D01*
X82886524Y-98734108D01*
X84399500Y-98734108D01*
X84399500Y-98865892D01*
X84416011Y-98927510D01*
X84433608Y-98993185D01*
X84433611Y-98993192D01*
X84459481Y-99038001D01*
X84475954Y-99105901D01*
X84459481Y-99161999D01*
X84433611Y-99206807D01*
X84433608Y-99206814D01*
X84399500Y-99334108D01*
X84399500Y-99465892D01*
X84402369Y-99476597D01*
X84433608Y-99593185D01*
X84433611Y-99593192D01*
X84459481Y-99638001D01*
X84475954Y-99705901D01*
X84459481Y-99761999D01*
X84433611Y-99806807D01*
X84433608Y-99806814D01*
X84399500Y-99934108D01*
X84399500Y-100065892D01*
X84416023Y-100127555D01*
X84433608Y-100193185D01*
X84433611Y-100193192D01*
X84459481Y-100238001D01*
X84475954Y-100305901D01*
X84459481Y-100361999D01*
X84433611Y-100406807D01*
X84433608Y-100406814D01*
X84399500Y-100534108D01*
X84399500Y-100665891D01*
X84433608Y-100793187D01*
X84441986Y-100807697D01*
X84499500Y-100907314D01*
X84592686Y-101000500D01*
X84706814Y-101066392D01*
X84834108Y-101100500D01*
X84834110Y-101100500D01*
X84965890Y-101100500D01*
X84965892Y-101100500D01*
X85093186Y-101066392D01*
X85137999Y-101040518D01*
X85205898Y-101024045D01*
X85262000Y-101040518D01*
X85274259Y-101047596D01*
X85306811Y-101066391D01*
X85306813Y-101066391D01*
X85306814Y-101066392D01*
X85434108Y-101100500D01*
X85434110Y-101100500D01*
X85565890Y-101100500D01*
X85565892Y-101100500D01*
X85693186Y-101066392D01*
X85807314Y-101000500D01*
X85900500Y-100907314D01*
X85966392Y-100793186D01*
X86000500Y-100665892D01*
X86000500Y-100534108D01*
X85981551Y-100463389D01*
X88164500Y-100463389D01*
X88164500Y-100636611D01*
X88191598Y-100807701D01*
X88245127Y-100972445D01*
X88323768Y-101126788D01*
X88425586Y-101266928D01*
X88548072Y-101389414D01*
X88688212Y-101491232D01*
X88842555Y-101569873D01*
X89007299Y-101623402D01*
X89178389Y-101650500D01*
X89178390Y-101650500D01*
X89351610Y-101650500D01*
X89351611Y-101650500D01*
X89522701Y-101623402D01*
X89687445Y-101569873D01*
X89841788Y-101491232D01*
X89981928Y-101389414D01*
X90104414Y-101266928D01*
X90206232Y-101126788D01*
X90284873Y-100972445D01*
X90338402Y-100807701D01*
X90365500Y-100636611D01*
X90365500Y-100463389D01*
X90338402Y-100292299D01*
X90284873Y-100127555D01*
X90206232Y-99973212D01*
X90104414Y-99833072D01*
X89981928Y-99710586D01*
X89841788Y-99608768D01*
X89687445Y-99530127D01*
X89522701Y-99476598D01*
X89522699Y-99476597D01*
X89522698Y-99476597D01*
X89391271Y-99455781D01*
X89351611Y-99449500D01*
X89178389Y-99449500D01*
X89138728Y-99455781D01*
X89007302Y-99476597D01*
X88842552Y-99530128D01*
X88688211Y-99608768D01*
X88647980Y-99637998D01*
X88548072Y-99710586D01*
X88548070Y-99710588D01*
X88548069Y-99710588D01*
X88425588Y-99833069D01*
X88425588Y-99833070D01*
X88425586Y-99833072D01*
X88391242Y-99880342D01*
X88323768Y-99973211D01*
X88245128Y-100127552D01*
X88191597Y-100292302D01*
X88167170Y-100446530D01*
X88164500Y-100463389D01*
X85981551Y-100463389D01*
X85966392Y-100406814D01*
X85935613Y-100353505D01*
X85932108Y-100344352D01*
X85930063Y-100318908D01*
X85924045Y-100294102D01*
X85927205Y-100283338D01*
X85926512Y-100274706D01*
X85933672Y-100261315D01*
X85940519Y-100237998D01*
X85966391Y-100193188D01*
X85966392Y-100193185D01*
X86000500Y-100065892D01*
X86000500Y-99934108D01*
X85966392Y-99806814D01*
X85966391Y-99806813D01*
X85966391Y-99806811D01*
X85940519Y-99762002D01*
X85924045Y-99694102D01*
X85940519Y-99637998D01*
X85951455Y-99619058D01*
X85966392Y-99593186D01*
X86000500Y-99465892D01*
X86000500Y-99334108D01*
X85966392Y-99206814D01*
X85966391Y-99206813D01*
X85966391Y-99206811D01*
X85940519Y-99162002D01*
X85924045Y-99094102D01*
X85940519Y-99037998D01*
X85966391Y-98993188D01*
X85966392Y-98993185D01*
X86000500Y-98865892D01*
X86000500Y-98734108D01*
X85966392Y-98606814D01*
X85900500Y-98492686D01*
X85807314Y-98399500D01*
X85737999Y-98359481D01*
X85693187Y-98333608D01*
X85629539Y-98316554D01*
X85565892Y-98299500D01*
X85434108Y-98299500D01*
X85306814Y-98333608D01*
X85306807Y-98333611D01*
X85261999Y-98359481D01*
X85194099Y-98375954D01*
X85138001Y-98359481D01*
X85093192Y-98333611D01*
X85093188Y-98333609D01*
X85093186Y-98333608D01*
X84965892Y-98299500D01*
X84834108Y-98299500D01*
X84706812Y-98333608D01*
X84592686Y-98399500D01*
X84592683Y-98399502D01*
X84499502Y-98492683D01*
X84499500Y-98492686D01*
X84433608Y-98606812D01*
X84406680Y-98707313D01*
X84399500Y-98734108D01*
X82886524Y-98734108D01*
X82900977Y-98719655D01*
X82921411Y-98689071D01*
X82942782Y-98657090D01*
X82976376Y-98606812D01*
X83015941Y-98547598D01*
X83095130Y-98356420D01*
X83135500Y-98153465D01*
X83135500Y-97946535D01*
X83095130Y-97743580D01*
X83015941Y-97552402D01*
X82900977Y-97380345D01*
X82900975Y-97380342D01*
X82754657Y-97234024D01*
X82604372Y-97133608D01*
X82582598Y-97119059D01*
X82566326Y-97112319D01*
X82391420Y-97039870D01*
X82391412Y-97039868D01*
X82188469Y-96999500D01*
X82188465Y-96999500D01*
X81981535Y-96999500D01*
X81981530Y-96999500D01*
X81778587Y-97039868D01*
X81778579Y-97039870D01*
X81587403Y-97119058D01*
X81415342Y-97234024D01*
X81269024Y-97380342D01*
X81154058Y-97552403D01*
X81074870Y-97743579D01*
X81074868Y-97743587D01*
X81034500Y-97946530D01*
X80635499Y-97946530D01*
X80595130Y-97743580D01*
X80515941Y-97552402D01*
X80400977Y-97380345D01*
X80400975Y-97380342D01*
X80254657Y-97234024D01*
X80104372Y-97133608D01*
X80082598Y-97119059D01*
X80066326Y-97112319D01*
X79891420Y-97039870D01*
X79891412Y-97039868D01*
X79688469Y-96999500D01*
X79688465Y-96999500D01*
X79481535Y-96999500D01*
X79481530Y-96999500D01*
X79278587Y-97039868D01*
X79278579Y-97039870D01*
X79087403Y-97119058D01*
X78915342Y-97234024D01*
X78769024Y-97380342D01*
X78654058Y-97552403D01*
X78574870Y-97743579D01*
X78574868Y-97743587D01*
X78534500Y-97946530D01*
X77061284Y-97946530D01*
X77100500Y-97907314D01*
X77166392Y-97793186D01*
X77200500Y-97665892D01*
X77200500Y-97534108D01*
X77166392Y-97406814D01*
X77166391Y-97406812D01*
X77166391Y-97406811D01*
X77140519Y-97362002D01*
X77124045Y-97294102D01*
X77140519Y-97237998D01*
X77142814Y-97234024D01*
X77166392Y-97193186D01*
X77200500Y-97065892D01*
X77200500Y-96934108D01*
X77166392Y-96806814D01*
X77166391Y-96806813D01*
X77166391Y-96806811D01*
X77140519Y-96762002D01*
X77124045Y-96694102D01*
X77140519Y-96637998D01*
X77166391Y-96593188D01*
X77166392Y-96593185D01*
X77200500Y-96465892D01*
X77200500Y-96334108D01*
X77166392Y-96206814D01*
X77166391Y-96206813D01*
X77166391Y-96206811D01*
X77140519Y-96162002D01*
X77124045Y-96094102D01*
X77140519Y-96037998D01*
X77166391Y-95993188D01*
X77166392Y-95993185D01*
X77200500Y-95865892D01*
X77200500Y-95734108D01*
X77166392Y-95606814D01*
X77166391Y-95606813D01*
X77166391Y-95606811D01*
X77140519Y-95562002D01*
X77124045Y-95494102D01*
X77140519Y-95437998D01*
X77166391Y-95393188D01*
X77166392Y-95393185D01*
X77200500Y-95265892D01*
X77200500Y-95134108D01*
X77166392Y-95006814D01*
X77166391Y-95006812D01*
X77166391Y-95006811D01*
X77140519Y-94962002D01*
X77124045Y-94894102D01*
X77140519Y-94837998D01*
X77166391Y-94793188D01*
X77166392Y-94793185D01*
X77200500Y-94665892D01*
X77200500Y-94534108D01*
X77166392Y-94406814D01*
X77100500Y-94292686D01*
X77007314Y-94199500D01*
X76922444Y-94150500D01*
X76893187Y-94133608D01*
X76829539Y-94116554D01*
X76765892Y-94099500D01*
X76634108Y-94099500D01*
X76506814Y-94133608D01*
X76506807Y-94133611D01*
X76461999Y-94159481D01*
X76394099Y-94175954D01*
X76338001Y-94159481D01*
X76293192Y-94133611D01*
X76293188Y-94133609D01*
X76293186Y-94133608D01*
X76165892Y-94099500D01*
X76034108Y-94099500D01*
X75906812Y-94133608D01*
X75792686Y-94199500D01*
X75792683Y-94199502D01*
X75699502Y-94292683D01*
X75699500Y-94292686D01*
X75633608Y-94406812D01*
X75625171Y-94438300D01*
X75599500Y-94534108D01*
X66500500Y-94534108D01*
X66466392Y-94406814D01*
X66400500Y-94292686D01*
X66307314Y-94199500D01*
X66222444Y-94150500D01*
X66193187Y-94133608D01*
X66129539Y-94116554D01*
X66065892Y-94099500D01*
X65934108Y-94099500D01*
X65806812Y-94133608D01*
X65692686Y-94199500D01*
X65692683Y-94199502D01*
X65599502Y-94292683D01*
X65599500Y-94292686D01*
X65533608Y-94406812D01*
X65499500Y-94534108D01*
X40923018Y-94534108D01*
X40977510Y-94494517D01*
X41144517Y-94327510D01*
X41283343Y-94136433D01*
X41390568Y-93925992D01*
X41463553Y-93701368D01*
X41487908Y-93547596D01*
X41500500Y-93468097D01*
X41500500Y-93231902D01*
X41463553Y-92998631D01*
X41429689Y-92894412D01*
X41390568Y-92774008D01*
X41390566Y-92774005D01*
X41390566Y-92774003D01*
X41292876Y-92582276D01*
X41292875Y-92582274D01*
X41283344Y-92563569D01*
X41283342Y-92563566D01*
X41261939Y-92534108D01*
X53699500Y-92534108D01*
X53699500Y-92665891D01*
X53733608Y-92793187D01*
X53766554Y-92850250D01*
X53799500Y-92907314D01*
X53892686Y-93000500D01*
X54006814Y-93066392D01*
X54134108Y-93100500D01*
X54134110Y-93100500D01*
X54265890Y-93100500D01*
X54265892Y-93100500D01*
X54393186Y-93066392D01*
X54507314Y-93000500D01*
X54600500Y-92907314D01*
X54666392Y-92793186D01*
X54700500Y-92665892D01*
X54700500Y-92534108D01*
X55099500Y-92534108D01*
X55099500Y-92665891D01*
X55133608Y-92793187D01*
X55166554Y-92850250D01*
X55199500Y-92907314D01*
X55292686Y-93000500D01*
X55406814Y-93066392D01*
X55534108Y-93100500D01*
X55534110Y-93100500D01*
X55665890Y-93100500D01*
X55665892Y-93100500D01*
X55793186Y-93066392D01*
X55907314Y-93000500D01*
X56000500Y-92907314D01*
X56066392Y-92793186D01*
X56100500Y-92665892D01*
X56100500Y-92534108D01*
X56066392Y-92406814D01*
X56059993Y-92395730D01*
X78534500Y-92395730D01*
X78534500Y-93704269D01*
X78537353Y-93734699D01*
X78537353Y-93734701D01*
X78582206Y-93862880D01*
X78582207Y-93862882D01*
X78662850Y-93972150D01*
X78772118Y-94052793D01*
X78793089Y-94060131D01*
X78900299Y-94097646D01*
X78930730Y-94100500D01*
X78930734Y-94100500D01*
X80239270Y-94100500D01*
X80269699Y-94097646D01*
X80269701Y-94097646D01*
X80349070Y-94069873D01*
X80397882Y-94052793D01*
X80507150Y-93972150D01*
X80587793Y-93862882D01*
X80621368Y-93766930D01*
X80632646Y-93734701D01*
X80632646Y-93734699D01*
X80635500Y-93704269D01*
X80635500Y-92946530D01*
X81034500Y-92946530D01*
X81034500Y-93153469D01*
X81074868Y-93356412D01*
X81074870Y-93356420D01*
X81154058Y-93547596D01*
X81269024Y-93719657D01*
X81415342Y-93865975D01*
X81415345Y-93865977D01*
X81587402Y-93980941D01*
X81778580Y-94060130D01*
X81967187Y-94097646D01*
X81981530Y-94100499D01*
X81981534Y-94100500D01*
X81981535Y-94100500D01*
X82188466Y-94100500D01*
X82188467Y-94100499D01*
X82391420Y-94060130D01*
X82582598Y-93980941D01*
X82754655Y-93865977D01*
X82900977Y-93719655D01*
X83015941Y-93547598D01*
X83095130Y-93356420D01*
X83135500Y-93153465D01*
X83135500Y-92963389D01*
X88164500Y-92963389D01*
X88164500Y-93136611D01*
X88167170Y-93153466D01*
X88179593Y-93231908D01*
X88191598Y-93307701D01*
X88245127Y-93472445D01*
X88323768Y-93626788D01*
X88425586Y-93766928D01*
X88548072Y-93889414D01*
X88688212Y-93991232D01*
X88842555Y-94069873D01*
X89007299Y-94123402D01*
X89178389Y-94150500D01*
X89178390Y-94150500D01*
X89351610Y-94150500D01*
X89351611Y-94150500D01*
X89522701Y-94123402D01*
X89687445Y-94069873D01*
X89841788Y-93991232D01*
X89981928Y-93889414D01*
X90104414Y-93766928D01*
X90206232Y-93626788D01*
X90284873Y-93472445D01*
X90338402Y-93307701D01*
X90365500Y-93136611D01*
X90365500Y-92963389D01*
X90338402Y-92792299D01*
X90284873Y-92627555D01*
X90206232Y-92473212D01*
X90104414Y-92333072D01*
X89981928Y-92210586D01*
X89841788Y-92108768D01*
X89687445Y-92030127D01*
X89522701Y-91976598D01*
X89522699Y-91976597D01*
X89522698Y-91976597D01*
X89391271Y-91955781D01*
X89351611Y-91949500D01*
X89178389Y-91949500D01*
X89138728Y-91955781D01*
X89007302Y-91976597D01*
X88842552Y-92030128D01*
X88688211Y-92108768D01*
X88608256Y-92166859D01*
X88548072Y-92210586D01*
X88548070Y-92210588D01*
X88548069Y-92210588D01*
X88425588Y-92333069D01*
X88425588Y-92333070D01*
X88425586Y-92333072D01*
X88402171Y-92365300D01*
X88323768Y-92473211D01*
X88245128Y-92627552D01*
X88191597Y-92792302D01*
X88173381Y-92907314D01*
X88164500Y-92963389D01*
X83135500Y-92963389D01*
X83135500Y-92946535D01*
X83095130Y-92743580D01*
X83015941Y-92552402D01*
X82900977Y-92380345D01*
X82900975Y-92380342D01*
X82754657Y-92234024D01*
X82604372Y-92133608D01*
X82582598Y-92119059D01*
X82557753Y-92108768D01*
X82391420Y-92039870D01*
X82391412Y-92039868D01*
X82188469Y-91999500D01*
X82188465Y-91999500D01*
X81981535Y-91999500D01*
X81981530Y-91999500D01*
X81778587Y-92039868D01*
X81778579Y-92039870D01*
X81587403Y-92119058D01*
X81415342Y-92234024D01*
X81269024Y-92380342D01*
X81154058Y-92552403D01*
X81074870Y-92743579D01*
X81074868Y-92743587D01*
X81034500Y-92946530D01*
X80635500Y-92946530D01*
X80635500Y-92395730D01*
X80632646Y-92365300D01*
X80632646Y-92365298D01*
X80587793Y-92237119D01*
X80587792Y-92237117D01*
X80507150Y-92127850D01*
X80397882Y-92047207D01*
X80397880Y-92047206D01*
X80269700Y-92002353D01*
X80239270Y-91999500D01*
X80239266Y-91999500D01*
X78930734Y-91999500D01*
X78930730Y-91999500D01*
X78900300Y-92002353D01*
X78900298Y-92002353D01*
X78772119Y-92047206D01*
X78772117Y-92047207D01*
X78662850Y-92127850D01*
X78582207Y-92237117D01*
X78582206Y-92237119D01*
X78537353Y-92365298D01*
X78537353Y-92365300D01*
X78534500Y-92395730D01*
X56059993Y-92395730D01*
X56000500Y-92292686D01*
X55907314Y-92199500D01*
X55850250Y-92166554D01*
X55793187Y-92133608D01*
X55700481Y-92108768D01*
X55665892Y-92099500D01*
X55534108Y-92099500D01*
X55406812Y-92133608D01*
X55292686Y-92199500D01*
X55292683Y-92199502D01*
X55199502Y-92292683D01*
X55199500Y-92292686D01*
X55133608Y-92406812D01*
X55099500Y-92534108D01*
X54700500Y-92534108D01*
X54666392Y-92406814D01*
X54600500Y-92292686D01*
X54507314Y-92199500D01*
X54450250Y-92166554D01*
X54393187Y-92133608D01*
X54300481Y-92108768D01*
X54265892Y-92099500D01*
X54134108Y-92099500D01*
X54006812Y-92133608D01*
X53892686Y-92199500D01*
X53892683Y-92199502D01*
X53799502Y-92292683D01*
X53799500Y-92292686D01*
X53733608Y-92406812D01*
X53699500Y-92534108D01*
X41261939Y-92534108D01*
X41144517Y-92372490D01*
X40977510Y-92205483D01*
X40786433Y-92066657D01*
X40575996Y-91959433D01*
X40351368Y-91886446D01*
X40118097Y-91849500D01*
X40118092Y-91849500D01*
X39881908Y-91849500D01*
X39881903Y-91849500D01*
X39648631Y-91886446D01*
X39424003Y-91959433D01*
X39213566Y-92066657D01*
X39155606Y-92108768D01*
X39022490Y-92205483D01*
X39022488Y-92205485D01*
X39022487Y-92205485D01*
X38855485Y-92372487D01*
X38855485Y-92372488D01*
X38855483Y-92372490D01*
X38795862Y-92454550D01*
X38716657Y-92563566D01*
X38609433Y-92774003D01*
X38536446Y-92998631D01*
X38499500Y-93231902D01*
X23700500Y-93231902D01*
X23700500Y-84934108D01*
X40899500Y-84934108D01*
X40899500Y-85065891D01*
X40933608Y-85193187D01*
X40937253Y-85199500D01*
X40999500Y-85307314D01*
X40999502Y-85307316D01*
X41075671Y-85383485D01*
X41109156Y-85444808D01*
X41107766Y-85503255D01*
X41099500Y-85534106D01*
X41099500Y-85534108D01*
X41099500Y-85665892D01*
X41107059Y-85694102D01*
X41107766Y-85696742D01*
X41106101Y-85766591D01*
X41075672Y-85816512D01*
X40999503Y-85892682D01*
X40999500Y-85892686D01*
X40933608Y-86006812D01*
X40905826Y-86110499D01*
X40899500Y-86134108D01*
X40899500Y-86265892D01*
X40916554Y-86329539D01*
X40933608Y-86393187D01*
X40940268Y-86404722D01*
X40999500Y-86507314D01*
X40999502Y-86507316D01*
X41075671Y-86583485D01*
X41109156Y-86644808D01*
X41107766Y-86703255D01*
X41099500Y-86734106D01*
X41099500Y-86734108D01*
X41099500Y-86865892D01*
X41106051Y-86890342D01*
X41107766Y-86896742D01*
X41106101Y-86966591D01*
X41075672Y-87016512D01*
X40999503Y-87092682D01*
X40999500Y-87092686D01*
X40933608Y-87206812D01*
X40899500Y-87334108D01*
X40899500Y-87465891D01*
X40933608Y-87593187D01*
X40937253Y-87599500D01*
X40999500Y-87707314D01*
X40999502Y-87707316D01*
X41075671Y-87783485D01*
X41109156Y-87844808D01*
X41107766Y-87903255D01*
X41099500Y-87934106D01*
X41099500Y-87934108D01*
X41099500Y-88065892D01*
X41107059Y-88094102D01*
X41107766Y-88096742D01*
X41106101Y-88166591D01*
X41075672Y-88216512D01*
X40999503Y-88292682D01*
X40999500Y-88292686D01*
X40933608Y-88406812D01*
X40899500Y-88534108D01*
X40899500Y-88665892D01*
X40916554Y-88729539D01*
X40933608Y-88793187D01*
X40940268Y-88804722D01*
X40999500Y-88907314D01*
X40999502Y-88907316D01*
X41075671Y-88983485D01*
X41109156Y-89044808D01*
X41107766Y-89103255D01*
X41099500Y-89134106D01*
X41099500Y-89265891D01*
X41133608Y-89393187D01*
X41166554Y-89450250D01*
X41199500Y-89507314D01*
X41292686Y-89600500D01*
X41406814Y-89666392D01*
X41534108Y-89700500D01*
X41534110Y-89700500D01*
X41665890Y-89700500D01*
X41665892Y-89700500D01*
X41793186Y-89666392D01*
X41837999Y-89640518D01*
X41905898Y-89624045D01*
X41962000Y-89640518D01*
X41977800Y-89649640D01*
X42006811Y-89666391D01*
X42006813Y-89666391D01*
X42006814Y-89666392D01*
X42134108Y-89700500D01*
X42134110Y-89700500D01*
X42265890Y-89700500D01*
X42265892Y-89700500D01*
X42393186Y-89666392D01*
X42437999Y-89640518D01*
X42505898Y-89624045D01*
X42562000Y-89640518D01*
X42577800Y-89649640D01*
X42606811Y-89666391D01*
X42606813Y-89666391D01*
X42606814Y-89666392D01*
X42734108Y-89700500D01*
X42734110Y-89700500D01*
X42865890Y-89700500D01*
X42865892Y-89700500D01*
X42993186Y-89666392D01*
X43037999Y-89640518D01*
X43105898Y-89624045D01*
X43162000Y-89640518D01*
X43177800Y-89649640D01*
X43206811Y-89666391D01*
X43206813Y-89666391D01*
X43206814Y-89666392D01*
X43334108Y-89700500D01*
X43334110Y-89700500D01*
X43465890Y-89700500D01*
X43465892Y-89700500D01*
X43593186Y-89666392D01*
X43707314Y-89600500D01*
X43800500Y-89507314D01*
X43866392Y-89393186D01*
X43900500Y-89265892D01*
X43900500Y-89134108D01*
X43866392Y-89006814D01*
X43800500Y-88892686D01*
X43724328Y-88816514D01*
X43690843Y-88755191D01*
X43692234Y-88696740D01*
X43700500Y-88665892D01*
X43700500Y-88534108D01*
X43692234Y-88503258D01*
X43693897Y-88433410D01*
X43724328Y-88383486D01*
X43731839Y-88375975D01*
X43800500Y-88307314D01*
X43866392Y-88193186D01*
X43900500Y-88065892D01*
X43900500Y-87934108D01*
X43866392Y-87806814D01*
X43800500Y-87692686D01*
X43724328Y-87616514D01*
X43721677Y-87611660D01*
X43717071Y-87608600D01*
X43705113Y-87581325D01*
X43690843Y-87555191D01*
X43690650Y-87548335D01*
X43689017Y-87544610D01*
X43690094Y-87528569D01*
X43689554Y-87509320D01*
X43690567Y-87502962D01*
X43700500Y-87465892D01*
X43700500Y-87456530D01*
X78534500Y-87456530D01*
X78534500Y-87663469D01*
X78574868Y-87866412D01*
X78574870Y-87866420D01*
X78645941Y-88038001D01*
X78654059Y-88057598D01*
X78659600Y-88065891D01*
X78769024Y-88229657D01*
X78915342Y-88375975D01*
X78915345Y-88375977D01*
X79087402Y-88490941D01*
X79278580Y-88570130D01*
X79481530Y-88610499D01*
X79481534Y-88610500D01*
X79481535Y-88610500D01*
X79688466Y-88610500D01*
X79688467Y-88610499D01*
X79891420Y-88570130D01*
X80082598Y-88490941D01*
X80254655Y-88375977D01*
X80400977Y-88229655D01*
X80515941Y-88057598D01*
X80595130Y-87866420D01*
X80635500Y-87663465D01*
X80635500Y-87456535D01*
X80635499Y-87456530D01*
X81034500Y-87456530D01*
X81034500Y-87663469D01*
X81074868Y-87866412D01*
X81074870Y-87866420D01*
X81145941Y-88038001D01*
X81154059Y-88057598D01*
X81159600Y-88065891D01*
X81269024Y-88229657D01*
X81415342Y-88375975D01*
X81415345Y-88375977D01*
X81587402Y-88490941D01*
X81778580Y-88570130D01*
X81981530Y-88610499D01*
X81981534Y-88610500D01*
X81981535Y-88610500D01*
X82188466Y-88610500D01*
X82188467Y-88610499D01*
X82391420Y-88570130D01*
X82582598Y-88490941D01*
X82754655Y-88375977D01*
X82900977Y-88229655D01*
X83015941Y-88057598D01*
X83095130Y-87866420D01*
X83135500Y-87663465D01*
X83135500Y-87456535D01*
X83095130Y-87253580D01*
X83015941Y-87062402D01*
X82900977Y-86890345D01*
X82900975Y-86890342D01*
X82754657Y-86744024D01*
X82582635Y-86629084D01*
X82582598Y-86629059D01*
X82557753Y-86618768D01*
X82391420Y-86549870D01*
X82391412Y-86549868D01*
X82312181Y-86534108D01*
X84399500Y-86534108D01*
X84399500Y-86665892D01*
X84417779Y-86734108D01*
X84433608Y-86793185D01*
X84433611Y-86793192D01*
X84459481Y-86838001D01*
X84475954Y-86905901D01*
X84459481Y-86961999D01*
X84433611Y-87006807D01*
X84433608Y-87006814D01*
X84399500Y-87134108D01*
X84399500Y-87265892D01*
X84417779Y-87334108D01*
X84433608Y-87393185D01*
X84433611Y-87393192D01*
X84459481Y-87438001D01*
X84475954Y-87505901D01*
X84459481Y-87561999D01*
X84433611Y-87606807D01*
X84433608Y-87606814D01*
X84399500Y-87734108D01*
X84399500Y-87865892D01*
X84417779Y-87934108D01*
X84433608Y-87993185D01*
X84433611Y-87993192D01*
X84459481Y-88038001D01*
X84475954Y-88105901D01*
X84459481Y-88161999D01*
X84433611Y-88206807D01*
X84433608Y-88206814D01*
X84399500Y-88334108D01*
X84399500Y-88465891D01*
X84433608Y-88593187D01*
X84443604Y-88610500D01*
X84499500Y-88707314D01*
X84592686Y-88800500D01*
X84706814Y-88866392D01*
X84834108Y-88900500D01*
X84834110Y-88900500D01*
X84965890Y-88900500D01*
X84965892Y-88900500D01*
X85093186Y-88866392D01*
X85137999Y-88840518D01*
X85205898Y-88824045D01*
X85262000Y-88840518D01*
X85277800Y-88849640D01*
X85306811Y-88866391D01*
X85306813Y-88866391D01*
X85306814Y-88866392D01*
X85434108Y-88900500D01*
X85434110Y-88900500D01*
X85565890Y-88900500D01*
X85565892Y-88900500D01*
X85693186Y-88866392D01*
X85807314Y-88800500D01*
X85900500Y-88707314D01*
X85966392Y-88593186D01*
X86000500Y-88465892D01*
X86000500Y-88334108D01*
X85966392Y-88206814D01*
X85966391Y-88206813D01*
X85966391Y-88206811D01*
X85940519Y-88162002D01*
X85924045Y-88094102D01*
X85940519Y-88037998D01*
X85966391Y-87993188D01*
X85969269Y-87982447D01*
X86000500Y-87865892D01*
X86000500Y-87734108D01*
X85966392Y-87606814D01*
X85966391Y-87606813D01*
X85966391Y-87606811D01*
X85940519Y-87562002D01*
X85937688Y-87550334D01*
X85930725Y-87540556D01*
X85929603Y-87517012D01*
X85924045Y-87494102D01*
X85927888Y-87481010D01*
X85927526Y-87473389D01*
X88164500Y-87473389D01*
X88164500Y-87646611D01*
X88167170Y-87663466D01*
X88189873Y-87806814D01*
X88191598Y-87817701D01*
X88245127Y-87982445D01*
X88323768Y-88136788D01*
X88425586Y-88276928D01*
X88548072Y-88399414D01*
X88688212Y-88501232D01*
X88842555Y-88579873D01*
X89007299Y-88633402D01*
X89178389Y-88660500D01*
X89178390Y-88660500D01*
X89351610Y-88660500D01*
X89351611Y-88660500D01*
X89522701Y-88633402D01*
X89687445Y-88579873D01*
X89841788Y-88501232D01*
X89981928Y-88399414D01*
X90104414Y-88276928D01*
X90206232Y-88136788D01*
X90284873Y-87982445D01*
X90338402Y-87817701D01*
X90365500Y-87646611D01*
X90365500Y-87473389D01*
X90338402Y-87302299D01*
X90284873Y-87137555D01*
X90206232Y-86983212D01*
X90104414Y-86843072D01*
X89981928Y-86720586D01*
X89841788Y-86618768D01*
X89687445Y-86540127D01*
X89522701Y-86486598D01*
X89522699Y-86486597D01*
X89522698Y-86486597D01*
X89391271Y-86465781D01*
X89351611Y-86459500D01*
X89178389Y-86459500D01*
X89138728Y-86465781D01*
X89007302Y-86486597D01*
X88842552Y-86540128D01*
X88688211Y-86618768D01*
X88608256Y-86676859D01*
X88548072Y-86720586D01*
X88548070Y-86720588D01*
X88548069Y-86720588D01*
X88425588Y-86843069D01*
X88425588Y-86843070D01*
X88425586Y-86843072D01*
X88391242Y-86890342D01*
X88323768Y-86983211D01*
X88245128Y-87137552D01*
X88191597Y-87302302D01*
X88170105Y-87437999D01*
X88164500Y-87473389D01*
X85927526Y-87473389D01*
X85927401Y-87470765D01*
X85940516Y-87438003D01*
X85966392Y-87393186D01*
X86000500Y-87265892D01*
X86000500Y-87134108D01*
X85966392Y-87006814D01*
X85966391Y-87006813D01*
X85966391Y-87006811D01*
X85940519Y-86962002D01*
X85924045Y-86894102D01*
X85940519Y-86837998D01*
X85966391Y-86793188D01*
X85966392Y-86793185D01*
X86000500Y-86665892D01*
X86000500Y-86534108D01*
X85966392Y-86406814D01*
X85900500Y-86292686D01*
X85807314Y-86199500D01*
X85737999Y-86159481D01*
X85693187Y-86133608D01*
X85606941Y-86110499D01*
X85565892Y-86099500D01*
X85434108Y-86099500D01*
X85306814Y-86133608D01*
X85306807Y-86133611D01*
X85261999Y-86159481D01*
X85194099Y-86175954D01*
X85138001Y-86159481D01*
X85093192Y-86133611D01*
X85093188Y-86133609D01*
X85093186Y-86133608D01*
X84965892Y-86099500D01*
X84834108Y-86099500D01*
X84706812Y-86133608D01*
X84592686Y-86199500D01*
X84592683Y-86199502D01*
X84499502Y-86292683D01*
X84499500Y-86292686D01*
X84433608Y-86406812D01*
X84417644Y-86466392D01*
X84399500Y-86534108D01*
X82312181Y-86534108D01*
X82188469Y-86509500D01*
X82188465Y-86509500D01*
X81981535Y-86509500D01*
X81981530Y-86509500D01*
X81778587Y-86549868D01*
X81778579Y-86549870D01*
X81587403Y-86629058D01*
X81415342Y-86744024D01*
X81269024Y-86890342D01*
X81154058Y-87062403D01*
X81074870Y-87253579D01*
X81074868Y-87253587D01*
X81034500Y-87456530D01*
X80635499Y-87456530D01*
X80595130Y-87253580D01*
X80515941Y-87062402D01*
X80400977Y-86890345D01*
X80400975Y-86890342D01*
X80254657Y-86744024D01*
X80082635Y-86629084D01*
X80082598Y-86629059D01*
X80057753Y-86618768D01*
X79891420Y-86549870D01*
X79891412Y-86549868D01*
X79688469Y-86509500D01*
X79688465Y-86509500D01*
X79481535Y-86509500D01*
X79481530Y-86509500D01*
X79278587Y-86549868D01*
X79278579Y-86549870D01*
X79087403Y-86629058D01*
X78915342Y-86744024D01*
X78769024Y-86890342D01*
X78654058Y-87062403D01*
X78574870Y-87253579D01*
X78574868Y-87253587D01*
X78534500Y-87456530D01*
X43700500Y-87456530D01*
X43700500Y-87334108D01*
X43692234Y-87303258D01*
X43693897Y-87233410D01*
X43724328Y-87183486D01*
X43800500Y-87107314D01*
X43866392Y-86993186D01*
X43900500Y-86865892D01*
X43900500Y-86734108D01*
X43866392Y-86606814D01*
X43800500Y-86492686D01*
X43724328Y-86416514D01*
X43690843Y-86355191D01*
X43692234Y-86296740D01*
X43700500Y-86265892D01*
X43700500Y-86134108D01*
X43692234Y-86103258D01*
X43693897Y-86033410D01*
X43724328Y-85983486D01*
X43800500Y-85907314D01*
X43866392Y-85793186D01*
X43900500Y-85665892D01*
X43900500Y-85534108D01*
X43866392Y-85406814D01*
X43800500Y-85292686D01*
X43724328Y-85216514D01*
X43690843Y-85155191D01*
X43692234Y-85096740D01*
X43692941Y-85094102D01*
X43700500Y-85065892D01*
X43700500Y-84934108D01*
X43692234Y-84903258D01*
X43693897Y-84833410D01*
X43724328Y-84783486D01*
X43754235Y-84753579D01*
X43800500Y-84707314D01*
X43866392Y-84593186D01*
X43900500Y-84465892D01*
X43900500Y-84334108D01*
X43866392Y-84206814D01*
X43866389Y-84206808D01*
X43855520Y-84187982D01*
X43855519Y-84187981D01*
X43824415Y-84134108D01*
X75599500Y-84134108D01*
X75599500Y-84265892D01*
X75617779Y-84334108D01*
X75633608Y-84393185D01*
X75633611Y-84393192D01*
X75659481Y-84438001D01*
X75675954Y-84505901D01*
X75659481Y-84561999D01*
X75633611Y-84606807D01*
X75633608Y-84606814D01*
X75599500Y-84734108D01*
X75599500Y-84865892D01*
X75623788Y-84956535D01*
X75633608Y-84993185D01*
X75633611Y-84993192D01*
X75659481Y-85038001D01*
X75675954Y-85105901D01*
X75659481Y-85161999D01*
X75633611Y-85206807D01*
X75633608Y-85206814D01*
X75599500Y-85334108D01*
X75599500Y-85465892D01*
X75624073Y-85557598D01*
X75633608Y-85593185D01*
X75633611Y-85593192D01*
X75659481Y-85638001D01*
X75675954Y-85705901D01*
X75659481Y-85761999D01*
X75633611Y-85806807D01*
X75633608Y-85806814D01*
X75599500Y-85934108D01*
X75599500Y-86065892D01*
X75600636Y-86070130D01*
X75633608Y-86193187D01*
X75666554Y-86250250D01*
X75699500Y-86307314D01*
X75792686Y-86400500D01*
X75906814Y-86466392D01*
X76034108Y-86500500D01*
X76034110Y-86500500D01*
X76165890Y-86500500D01*
X76165892Y-86500500D01*
X76293186Y-86466392D01*
X76337999Y-86440518D01*
X76405898Y-86424045D01*
X76462000Y-86440518D01*
X76477800Y-86449640D01*
X76506811Y-86466391D01*
X76506813Y-86466391D01*
X76506814Y-86466392D01*
X76634108Y-86500500D01*
X76634110Y-86500500D01*
X76765890Y-86500500D01*
X76765892Y-86500500D01*
X76893186Y-86466392D01*
X77007314Y-86400500D01*
X77100500Y-86307314D01*
X77166392Y-86193186D01*
X77200500Y-86065892D01*
X77200500Y-85934108D01*
X77166392Y-85806814D01*
X77166391Y-85806813D01*
X77166391Y-85806811D01*
X77140519Y-85762002D01*
X77124045Y-85694102D01*
X77140519Y-85637998D01*
X77166391Y-85593188D01*
X77166392Y-85593185D01*
X77200500Y-85465892D01*
X77200500Y-85334108D01*
X77166392Y-85206814D01*
X77166391Y-85206813D01*
X77166391Y-85206811D01*
X77141366Y-85163469D01*
X77140518Y-85161999D01*
X77124045Y-85094102D01*
X77132376Y-85054954D01*
X77135800Y-85046171D01*
X77166392Y-84993186D01*
X77176214Y-84956530D01*
X78534500Y-84956530D01*
X78534500Y-85163469D01*
X78574868Y-85366412D01*
X78574870Y-85366420D01*
X78607339Y-85444808D01*
X78654059Y-85557598D01*
X78677842Y-85593192D01*
X78769024Y-85729657D01*
X78915342Y-85875975D01*
X78915345Y-85875977D01*
X79087402Y-85990941D01*
X79278580Y-86070130D01*
X79426234Y-86099500D01*
X79481530Y-86110499D01*
X79481534Y-86110500D01*
X79481535Y-86110500D01*
X79688466Y-86110500D01*
X79688467Y-86110499D01*
X79891420Y-86070130D01*
X80082598Y-85990941D01*
X80254655Y-85875977D01*
X80400977Y-85729655D01*
X80515941Y-85557598D01*
X80595130Y-85366420D01*
X80635500Y-85163465D01*
X80635500Y-84956535D01*
X80635499Y-84956530D01*
X81034500Y-84956530D01*
X81034500Y-85163469D01*
X81074868Y-85366412D01*
X81074870Y-85366420D01*
X81107339Y-85444808D01*
X81154059Y-85557598D01*
X81177842Y-85593192D01*
X81269024Y-85729657D01*
X81415342Y-85875975D01*
X81415345Y-85875977D01*
X81587402Y-85990941D01*
X81778580Y-86070130D01*
X81926234Y-86099500D01*
X81981530Y-86110499D01*
X81981534Y-86110500D01*
X81981535Y-86110500D01*
X82188466Y-86110500D01*
X82188467Y-86110499D01*
X82391420Y-86070130D01*
X82582598Y-85990941D01*
X82754655Y-85875977D01*
X82900977Y-85729655D01*
X83015941Y-85557598D01*
X83095130Y-85366420D01*
X83135500Y-85163465D01*
X83135500Y-84956535D01*
X83095130Y-84753580D01*
X83015941Y-84562402D01*
X82900977Y-84390345D01*
X82900975Y-84390342D01*
X82754657Y-84244024D01*
X82590154Y-84134108D01*
X82582598Y-84129059D01*
X82494786Y-84092686D01*
X82391420Y-84049870D01*
X82391412Y-84049868D01*
X82188469Y-84009500D01*
X82188465Y-84009500D01*
X81981535Y-84009500D01*
X81981530Y-84009500D01*
X81778587Y-84049868D01*
X81778579Y-84049870D01*
X81587403Y-84129058D01*
X81415342Y-84244024D01*
X81269024Y-84390342D01*
X81154058Y-84562403D01*
X81074870Y-84753579D01*
X81074868Y-84753587D01*
X81034500Y-84956530D01*
X80635499Y-84956530D01*
X80595130Y-84753580D01*
X80515941Y-84562402D01*
X80400977Y-84390345D01*
X80400975Y-84390342D01*
X80254657Y-84244024D01*
X80090154Y-84134108D01*
X80082598Y-84129059D01*
X79994786Y-84092686D01*
X79891420Y-84049870D01*
X79891412Y-84049868D01*
X79688469Y-84009500D01*
X79688465Y-84009500D01*
X79481535Y-84009500D01*
X79481530Y-84009500D01*
X79278587Y-84049868D01*
X79278579Y-84049870D01*
X79087403Y-84129058D01*
X78915342Y-84244024D01*
X78769024Y-84390342D01*
X78654058Y-84562403D01*
X78574870Y-84753579D01*
X78574868Y-84753587D01*
X78534500Y-84956530D01*
X77176214Y-84956530D01*
X77200500Y-84865892D01*
X77200500Y-84734108D01*
X77166392Y-84606814D01*
X77166391Y-84606813D01*
X77166391Y-84606811D01*
X77140519Y-84562002D01*
X77124045Y-84494102D01*
X77140519Y-84437998D01*
X77166391Y-84393188D01*
X77167154Y-84390342D01*
X77200500Y-84265892D01*
X77200500Y-84134108D01*
X77166392Y-84006814D01*
X77100500Y-83892686D01*
X77007314Y-83799500D01*
X76937999Y-83759481D01*
X76893187Y-83733608D01*
X76829539Y-83716554D01*
X76765892Y-83699500D01*
X76634108Y-83699500D01*
X76506814Y-83733608D01*
X76506807Y-83733611D01*
X76461999Y-83759481D01*
X76394099Y-83775954D01*
X76338001Y-83759481D01*
X76293192Y-83733611D01*
X76293188Y-83733609D01*
X76293186Y-83733608D01*
X76165892Y-83699500D01*
X76034108Y-83699500D01*
X75906812Y-83733608D01*
X75792686Y-83799500D01*
X75792683Y-83799502D01*
X75699502Y-83892683D01*
X75699500Y-83892686D01*
X75633608Y-84006812D01*
X75622071Y-84049870D01*
X75599500Y-84134108D01*
X43824415Y-84134108D01*
X43821499Y-84129058D01*
X43800500Y-84092686D01*
X43707314Y-83999500D01*
X43637999Y-83959481D01*
X43593187Y-83933608D01*
X43529539Y-83916554D01*
X43465892Y-83899500D01*
X43334108Y-83899500D01*
X43206814Y-83933608D01*
X43206807Y-83933611D01*
X43161999Y-83959481D01*
X43094099Y-83975954D01*
X43038001Y-83959481D01*
X42993192Y-83933611D01*
X42993188Y-83933609D01*
X42993186Y-83933608D01*
X42865892Y-83899500D01*
X42734108Y-83899500D01*
X42606814Y-83933608D01*
X42606807Y-83933611D01*
X42561999Y-83959481D01*
X42494099Y-83975954D01*
X42438001Y-83959481D01*
X42393192Y-83933611D01*
X42393188Y-83933609D01*
X42393186Y-83933608D01*
X42265892Y-83899500D01*
X42134108Y-83899500D01*
X42006814Y-83933608D01*
X42006807Y-83933611D01*
X41961999Y-83959481D01*
X41894099Y-83975954D01*
X41838001Y-83959481D01*
X41793192Y-83933611D01*
X41793188Y-83933609D01*
X41793186Y-83933608D01*
X41665892Y-83899500D01*
X41534108Y-83899500D01*
X41406812Y-83933608D01*
X41292686Y-83999500D01*
X41292683Y-83999502D01*
X41199502Y-84092683D01*
X41199500Y-84092686D01*
X41133608Y-84206812D01*
X41117778Y-84265892D01*
X41099500Y-84334108D01*
X41099500Y-84465892D01*
X41107059Y-84494102D01*
X41107766Y-84496742D01*
X41106101Y-84566591D01*
X41075672Y-84616512D01*
X40999503Y-84692682D01*
X40999500Y-84692686D01*
X40933608Y-84806812D01*
X40899500Y-84934108D01*
X23700500Y-84934108D01*
X23700500Y-82134108D01*
X59699500Y-82134108D01*
X59699500Y-82265891D01*
X59733608Y-82393187D01*
X59766554Y-82450250D01*
X59799500Y-82507314D01*
X59892686Y-82600500D01*
X60006814Y-82666392D01*
X60134108Y-82700500D01*
X60134110Y-82700500D01*
X60265890Y-82700500D01*
X60265892Y-82700500D01*
X60393186Y-82666392D01*
X60507314Y-82600500D01*
X60600500Y-82507314D01*
X60666392Y-82393186D01*
X60700500Y-82265892D01*
X60700500Y-82134108D01*
X60666392Y-82006814D01*
X60600500Y-81892686D01*
X60507314Y-81799500D01*
X60450250Y-81766554D01*
X60393187Y-81733608D01*
X60329539Y-81716554D01*
X60265892Y-81699500D01*
X60134108Y-81699500D01*
X60006812Y-81733608D01*
X59892686Y-81799500D01*
X59892683Y-81799502D01*
X59799502Y-81892683D01*
X59799500Y-81892686D01*
X59733608Y-82006812D01*
X59699500Y-82134108D01*
X23700500Y-82134108D01*
X23700500Y-79405730D01*
X78534500Y-79405730D01*
X78534500Y-80714269D01*
X78537353Y-80744699D01*
X78537353Y-80744701D01*
X78582206Y-80872880D01*
X78582207Y-80872882D01*
X78662850Y-80982150D01*
X78772118Y-81062793D01*
X78793089Y-81070131D01*
X78900299Y-81107646D01*
X78930730Y-81110500D01*
X78930734Y-81110500D01*
X80239270Y-81110500D01*
X80269699Y-81107646D01*
X80269701Y-81107646D01*
X80349070Y-81079873D01*
X80397882Y-81062793D01*
X80507150Y-80982150D01*
X80587793Y-80872882D01*
X80621368Y-80776930D01*
X80632646Y-80744701D01*
X80632646Y-80744699D01*
X80635500Y-80714269D01*
X80635500Y-79956530D01*
X81034500Y-79956530D01*
X81034500Y-80163469D01*
X81074868Y-80366412D01*
X81074870Y-80366420D01*
X81154058Y-80557596D01*
X81269024Y-80729657D01*
X81415342Y-80875975D01*
X81415345Y-80875977D01*
X81587402Y-80990941D01*
X81778580Y-81070130D01*
X81967187Y-81107646D01*
X81981530Y-81110499D01*
X81981534Y-81110500D01*
X81981535Y-81110500D01*
X82188466Y-81110500D01*
X82188467Y-81110499D01*
X82391420Y-81070130D01*
X82582598Y-80990941D01*
X82754655Y-80875977D01*
X82900977Y-80729655D01*
X83015941Y-80557598D01*
X83095130Y-80366420D01*
X83135500Y-80163465D01*
X83135500Y-79973389D01*
X88164500Y-79973389D01*
X88164500Y-80146611D01*
X88191598Y-80317701D01*
X88245127Y-80482445D01*
X88323768Y-80636788D01*
X88425586Y-80776928D01*
X88548072Y-80899414D01*
X88688212Y-81001232D01*
X88842555Y-81079873D01*
X89007299Y-81133402D01*
X89178389Y-81160500D01*
X89178390Y-81160500D01*
X89351610Y-81160500D01*
X89351611Y-81160500D01*
X89522701Y-81133402D01*
X89687445Y-81079873D01*
X89841788Y-81001232D01*
X89981928Y-80899414D01*
X90104414Y-80776928D01*
X90206232Y-80636788D01*
X90284873Y-80482445D01*
X90338402Y-80317701D01*
X90365500Y-80146611D01*
X90365500Y-79973389D01*
X90338402Y-79802299D01*
X90284873Y-79637555D01*
X90206232Y-79483212D01*
X90104414Y-79343072D01*
X89981928Y-79220586D01*
X89841788Y-79118768D01*
X89687445Y-79040127D01*
X89522701Y-78986598D01*
X89522699Y-78986597D01*
X89522698Y-78986597D01*
X89391271Y-78965781D01*
X89351611Y-78959500D01*
X89178389Y-78959500D01*
X89138728Y-78965781D01*
X89007302Y-78986597D01*
X88842552Y-79040128D01*
X88688211Y-79118768D01*
X88626571Y-79163553D01*
X88548072Y-79220586D01*
X88548070Y-79220588D01*
X88548069Y-79220588D01*
X88425588Y-79343069D01*
X88425588Y-79343070D01*
X88425586Y-79343072D01*
X88402171Y-79375300D01*
X88323768Y-79483211D01*
X88245128Y-79637552D01*
X88191597Y-79802302D01*
X88167170Y-79956530D01*
X88164500Y-79973389D01*
X83135500Y-79973389D01*
X83135500Y-79956535D01*
X83095130Y-79753580D01*
X83015941Y-79562402D01*
X82900977Y-79390345D01*
X82900975Y-79390342D01*
X82754657Y-79244024D01*
X82634222Y-79163553D01*
X82582598Y-79129059D01*
X82557753Y-79118768D01*
X82391420Y-79049870D01*
X82391412Y-79049868D01*
X82188469Y-79009500D01*
X82188465Y-79009500D01*
X81981535Y-79009500D01*
X81981530Y-79009500D01*
X81778587Y-79049868D01*
X81778579Y-79049870D01*
X81587403Y-79129058D01*
X81415342Y-79244024D01*
X81269024Y-79390342D01*
X81154058Y-79562403D01*
X81074870Y-79753579D01*
X81074868Y-79753587D01*
X81034500Y-79956530D01*
X80635500Y-79956530D01*
X80635500Y-79405730D01*
X80632646Y-79375300D01*
X80632646Y-79375298D01*
X80587793Y-79247119D01*
X80587792Y-79247117D01*
X80507150Y-79137850D01*
X80397882Y-79057207D01*
X80397880Y-79057206D01*
X80269700Y-79012353D01*
X80239270Y-79009500D01*
X80239266Y-79009500D01*
X78930734Y-79009500D01*
X78930730Y-79009500D01*
X78900300Y-79012353D01*
X78900298Y-79012353D01*
X78772119Y-79057206D01*
X78772117Y-79057207D01*
X78662850Y-79137850D01*
X78582207Y-79247117D01*
X78582206Y-79247119D01*
X78537353Y-79375298D01*
X78537353Y-79375300D01*
X78534500Y-79405730D01*
X23700500Y-79405730D01*
X23700500Y-75311304D01*
X26739500Y-75311304D01*
X26739500Y-75488695D01*
X26774103Y-75662658D01*
X26774106Y-75662667D01*
X26841983Y-75826540D01*
X26841990Y-75826553D01*
X26940535Y-75974034D01*
X26940538Y-75974038D01*
X27065961Y-76099461D01*
X27065965Y-76099464D01*
X27213446Y-76198009D01*
X27213459Y-76198016D01*
X27306239Y-76236446D01*
X27377334Y-76265894D01*
X27377336Y-76265894D01*
X27377341Y-76265896D01*
X27551304Y-76300499D01*
X27551307Y-76300500D01*
X27551309Y-76300500D01*
X27728692Y-76300500D01*
X27749164Y-76296427D01*
X27806713Y-76284980D01*
X27876304Y-76291207D01*
X27931482Y-76334069D01*
X27954727Y-76399959D01*
X27952523Y-76430787D01*
X27929500Y-76546536D01*
X27929500Y-76753469D01*
X27969868Y-76956412D01*
X27969870Y-76956420D01*
X28039287Y-77124008D01*
X28049059Y-77147598D01*
X28069601Y-77178341D01*
X28164024Y-77319657D01*
X28310342Y-77465975D01*
X28310345Y-77465977D01*
X28482402Y-77580941D01*
X28673580Y-77660130D01*
X28876530Y-77700499D01*
X28876534Y-77700500D01*
X28876535Y-77700500D01*
X29083466Y-77700500D01*
X29083467Y-77700499D01*
X29286420Y-77660130D01*
X29477598Y-77580941D01*
X29649655Y-77465977D01*
X29795977Y-77319655D01*
X29910941Y-77147598D01*
X29990130Y-76956420D01*
X30030500Y-76753465D01*
X30030500Y-76546535D01*
X30030499Y-76546530D01*
X30429500Y-76546530D01*
X30429500Y-76753469D01*
X30469868Y-76956412D01*
X30469870Y-76956420D01*
X30539287Y-77124008D01*
X30549059Y-77147598D01*
X30569601Y-77178341D01*
X30664024Y-77319657D01*
X30810342Y-77465975D01*
X30810345Y-77465977D01*
X30982402Y-77580941D01*
X31173580Y-77660130D01*
X31376530Y-77700499D01*
X31376534Y-77700500D01*
X31376535Y-77700500D01*
X31583466Y-77700500D01*
X31583467Y-77700499D01*
X31786420Y-77660130D01*
X31975278Y-77581902D01*
X36099500Y-77581902D01*
X36099500Y-77818097D01*
X36136446Y-78051368D01*
X36209433Y-78275996D01*
X36316657Y-78486433D01*
X36455483Y-78677510D01*
X36622490Y-78844517D01*
X36813567Y-78983343D01*
X36912991Y-79034002D01*
X37024003Y-79090566D01*
X37024005Y-79090566D01*
X37024008Y-79090568D01*
X37142468Y-79129058D01*
X37248631Y-79163553D01*
X37481903Y-79200500D01*
X37481908Y-79200500D01*
X37718097Y-79200500D01*
X37951368Y-79163553D01*
X38030473Y-79137850D01*
X38175992Y-79090568D01*
X38386433Y-78983343D01*
X38577510Y-78844517D01*
X38744517Y-78677510D01*
X38883343Y-78486433D01*
X38990568Y-78275992D01*
X39063553Y-78051368D01*
X39082865Y-77929436D01*
X39100500Y-77818097D01*
X39100500Y-77581902D01*
X39063553Y-77348631D01*
X39015422Y-77200500D01*
X38990568Y-77124008D01*
X38990566Y-77124005D01*
X38990566Y-77124003D01*
X38923911Y-76993186D01*
X38883343Y-76913567D01*
X38744517Y-76722490D01*
X38577510Y-76555483D01*
X38386433Y-76416657D01*
X38353742Y-76400000D01*
X38175996Y-76309433D01*
X37951368Y-76236446D01*
X37718097Y-76199500D01*
X37718092Y-76199500D01*
X37481908Y-76199500D01*
X37481903Y-76199500D01*
X37248631Y-76236446D01*
X37024003Y-76309433D01*
X36813566Y-76416657D01*
X36708922Y-76492686D01*
X36622490Y-76555483D01*
X36622488Y-76555485D01*
X36622487Y-76555485D01*
X36455485Y-76722487D01*
X36455485Y-76722488D01*
X36455483Y-76722490D01*
X36395862Y-76804550D01*
X36316657Y-76913566D01*
X36209433Y-77124003D01*
X36136446Y-77348631D01*
X36099500Y-77581902D01*
X31975278Y-77581902D01*
X31977598Y-77580941D01*
X32149655Y-77465977D01*
X32295977Y-77319655D01*
X32410941Y-77147598D01*
X32490130Y-76956420D01*
X32530500Y-76753465D01*
X32530500Y-76546535D01*
X32490130Y-76343580D01*
X32410941Y-76152402D01*
X32295977Y-75980345D01*
X32295974Y-75980341D01*
X32249741Y-75934108D01*
X54324500Y-75934108D01*
X54324500Y-76065891D01*
X54358608Y-76193187D01*
X54362253Y-76199500D01*
X54424500Y-76307314D01*
X54424502Y-76307316D01*
X54429505Y-76312319D01*
X54462990Y-76373642D01*
X54458006Y-76443334D01*
X54429505Y-76487681D01*
X54424502Y-76492683D01*
X54424500Y-76492686D01*
X54358608Y-76606812D01*
X54324500Y-76734108D01*
X54324500Y-76865891D01*
X54358608Y-76993187D01*
X54391554Y-77050250D01*
X54424500Y-77107314D01*
X54424502Y-77107316D01*
X54429505Y-77112319D01*
X54462990Y-77173642D01*
X54458006Y-77243334D01*
X54429505Y-77287681D01*
X54424502Y-77292683D01*
X54424500Y-77292686D01*
X54358608Y-77406812D01*
X54324500Y-77534108D01*
X54324500Y-77665892D01*
X54330427Y-77688011D01*
X54358608Y-77793187D01*
X54372990Y-77818097D01*
X54424500Y-77907314D01*
X54517686Y-78000500D01*
X54631814Y-78066392D01*
X54759108Y-78100500D01*
X54759110Y-78100500D01*
X54890890Y-78100500D01*
X54890892Y-78100500D01*
X55018186Y-78066392D01*
X55132314Y-78000500D01*
X55225500Y-77907314D01*
X55291392Y-77793186D01*
X55325500Y-77665892D01*
X55325500Y-77534108D01*
X55291392Y-77406814D01*
X55225500Y-77292686D01*
X55220495Y-77287681D01*
X55187010Y-77226358D01*
X55191994Y-77156666D01*
X55220495Y-77112319D01*
X55225500Y-77107314D01*
X55291392Y-76993186D01*
X55325500Y-76865892D01*
X55325500Y-76734108D01*
X58274500Y-76734108D01*
X58274500Y-76865891D01*
X58308608Y-76993187D01*
X58341554Y-77050250D01*
X58374500Y-77107314D01*
X58374502Y-77107316D01*
X58444738Y-77177552D01*
X58478223Y-77238875D01*
X58473239Y-77308567D01*
X58464444Y-77327233D01*
X58405729Y-77428930D01*
X58405729Y-77428931D01*
X58405729Y-77428932D01*
X58405728Y-77428934D01*
X58393671Y-77473932D01*
X58371620Y-77556228D01*
X58371620Y-77688011D01*
X58405728Y-77815307D01*
X58407339Y-77818097D01*
X58471620Y-77929434D01*
X58564806Y-78022620D01*
X58678934Y-78088512D01*
X58806228Y-78122620D01*
X58806230Y-78122620D01*
X58938010Y-78122620D01*
X58938012Y-78122620D01*
X59065306Y-78088512D01*
X59179434Y-78022620D01*
X59272620Y-77929434D01*
X59338512Y-77815306D01*
X59372620Y-77688012D01*
X59372620Y-77556228D01*
X59338512Y-77428934D01*
X59272620Y-77314806D01*
X59202381Y-77244567D01*
X59168896Y-77183244D01*
X59173880Y-77113552D01*
X59182670Y-77094893D01*
X59241392Y-76993186D01*
X59275500Y-76865892D01*
X59275500Y-76734108D01*
X59241392Y-76606814D01*
X59175500Y-76492686D01*
X59082314Y-76399500D01*
X59008124Y-76356666D01*
X58968187Y-76333608D01*
X58904539Y-76316554D01*
X58840892Y-76299500D01*
X58709108Y-76299500D01*
X58581812Y-76333608D01*
X58467686Y-76399500D01*
X58467683Y-76399502D01*
X58374502Y-76492683D01*
X58374500Y-76492686D01*
X58308608Y-76606812D01*
X58274500Y-76734108D01*
X55325500Y-76734108D01*
X55291392Y-76606814D01*
X55225500Y-76492686D01*
X55220495Y-76487681D01*
X55187010Y-76426358D01*
X55191994Y-76356666D01*
X55220495Y-76312319D01*
X55225500Y-76307314D01*
X55291392Y-76193186D01*
X55325500Y-76065892D01*
X55325500Y-75934108D01*
X55291392Y-75806814D01*
X55225500Y-75692686D01*
X55132314Y-75599500D01*
X55075250Y-75566554D01*
X55018187Y-75533608D01*
X54934673Y-75511231D01*
X54890892Y-75499500D01*
X54759108Y-75499500D01*
X54631812Y-75533608D01*
X54517686Y-75599500D01*
X54517683Y-75599502D01*
X54424502Y-75692683D01*
X54424500Y-75692686D01*
X54358608Y-75806812D01*
X54324500Y-75934108D01*
X32249741Y-75934108D01*
X32149657Y-75834024D01*
X32063626Y-75776541D01*
X31977598Y-75719059D01*
X31977436Y-75718992D01*
X31786420Y-75639870D01*
X31786412Y-75639868D01*
X31583469Y-75599500D01*
X31583465Y-75599500D01*
X31376535Y-75599500D01*
X31376530Y-75599500D01*
X31173587Y-75639868D01*
X31173579Y-75639870D01*
X30982403Y-75719058D01*
X30810342Y-75834024D01*
X30664024Y-75980342D01*
X30549058Y-76152403D01*
X30469870Y-76343579D01*
X30469868Y-76343587D01*
X30429500Y-76546530D01*
X30030499Y-76546530D01*
X29990130Y-76343580D01*
X29910941Y-76152402D01*
X29795977Y-75980345D01*
X29795975Y-75980342D01*
X29649657Y-75834024D01*
X29563626Y-75776541D01*
X29477598Y-75719059D01*
X29477436Y-75718992D01*
X29286420Y-75639870D01*
X29286412Y-75639868D01*
X29083469Y-75599500D01*
X29083465Y-75599500D01*
X28876535Y-75599500D01*
X28876530Y-75599500D01*
X28685720Y-75637454D01*
X28616128Y-75631227D01*
X28560951Y-75588363D01*
X28537707Y-75522473D01*
X28537543Y-75513975D01*
X28537712Y-75502706D01*
X28540500Y-75488691D01*
X28540500Y-75317050D01*
X28540514Y-75316118D01*
X28550598Y-75283588D01*
X28560185Y-75250941D01*
X28560916Y-75250307D01*
X28561203Y-75249382D01*
X28587284Y-75227458D01*
X28612989Y-75205186D01*
X28613946Y-75205048D01*
X28614688Y-75204425D01*
X28648455Y-75200086D01*
X28682147Y-75195242D01*
X28683866Y-75195536D01*
X28683988Y-75195521D01*
X28684107Y-75195577D01*
X28688680Y-75196360D01*
X28739908Y-75206551D01*
X28780000Y-75210500D01*
X28780006Y-75210500D01*
X29579994Y-75210500D01*
X29580000Y-75210500D01*
X29620092Y-75206551D01*
X29717676Y-75187140D01*
X29791754Y-75156456D01*
X29874482Y-75101179D01*
X29931179Y-75044482D01*
X29986456Y-74961754D01*
X30017140Y-74887676D01*
X30036551Y-74790092D01*
X30040500Y-74750000D01*
X30040500Y-74046530D01*
X30429500Y-74046530D01*
X30429500Y-74253469D01*
X30469868Y-74456412D01*
X30469870Y-74456420D01*
X30545082Y-74637998D01*
X30549059Y-74647598D01*
X30580132Y-74694102D01*
X30664024Y-74819657D01*
X30810342Y-74965975D01*
X30810345Y-74965977D01*
X30982402Y-75080941D01*
X31173580Y-75160130D01*
X31355737Y-75196363D01*
X31376530Y-75200499D01*
X31376534Y-75200500D01*
X31376535Y-75200500D01*
X31583466Y-75200500D01*
X31583467Y-75200499D01*
X31786420Y-75160130D01*
X31977598Y-75080941D01*
X32149655Y-74965977D01*
X32295977Y-74819655D01*
X32410941Y-74647598D01*
X32490130Y-74456420D01*
X32530500Y-74253465D01*
X32530500Y-74046535D01*
X32490130Y-73843580D01*
X32410941Y-73652402D01*
X32295977Y-73480345D01*
X32295975Y-73480342D01*
X32149657Y-73334024D01*
X31985539Y-73224365D01*
X31977598Y-73219059D01*
X31975263Y-73218092D01*
X31786420Y-73139870D01*
X31786412Y-73139868D01*
X31583468Y-73099500D01*
X31583465Y-73099500D01*
X31376535Y-73099500D01*
X31376530Y-73099500D01*
X31173587Y-73139868D01*
X31173579Y-73139870D01*
X30982403Y-73219058D01*
X30810342Y-73334024D01*
X30664024Y-73480342D01*
X30549058Y-73652403D01*
X30469870Y-73843579D01*
X30469868Y-73843587D01*
X30429500Y-74046530D01*
X30040500Y-74046530D01*
X30040500Y-73550000D01*
X30036551Y-73509908D01*
X30017140Y-73412324D01*
X29995252Y-73359481D01*
X29986459Y-73338252D01*
X29986452Y-73338239D01*
X29931179Y-73255518D01*
X29931176Y-73255514D01*
X29874485Y-73198823D01*
X29874481Y-73198820D01*
X29791760Y-73143547D01*
X29791747Y-73143540D01*
X29717680Y-73112861D01*
X29717668Y-73112858D01*
X29620108Y-73093452D01*
X29620094Y-73093449D01*
X29610069Y-73092461D01*
X29580000Y-73089500D01*
X28380000Y-73089500D01*
X28353272Y-73092132D01*
X28339905Y-73093449D01*
X28339891Y-73093452D01*
X28242331Y-73112858D01*
X28242319Y-73112861D01*
X28168252Y-73143540D01*
X28168239Y-73143547D01*
X28085518Y-73198820D01*
X28085514Y-73198823D01*
X28028823Y-73255514D01*
X28028820Y-73255518D01*
X27973547Y-73338239D01*
X27973540Y-73338252D01*
X27942861Y-73412319D01*
X27942858Y-73412331D01*
X27923452Y-73509891D01*
X27923449Y-73509905D01*
X27922504Y-73519500D01*
X27921066Y-73534108D01*
X27919500Y-73550005D01*
X27919500Y-74349995D01*
X27921944Y-74374809D01*
X27908925Y-74443456D01*
X27860861Y-74494166D01*
X27793010Y-74510841D01*
X27774351Y-74508582D01*
X27728691Y-74499500D01*
X27551309Y-74499500D01*
X27551306Y-74499500D01*
X27377341Y-74534103D01*
X27377332Y-74534106D01*
X27213459Y-74601983D01*
X27213446Y-74601990D01*
X27065965Y-74700535D01*
X27065961Y-74700538D01*
X26940538Y-74825961D01*
X26940535Y-74825965D01*
X26841990Y-74973446D01*
X26841983Y-74973459D01*
X26774106Y-75137332D01*
X26774103Y-75137341D01*
X26739500Y-75311304D01*
X23700500Y-75311304D01*
X23700500Y-72981902D01*
X36099500Y-72981902D01*
X36099500Y-73218097D01*
X36136446Y-73451368D01*
X36209433Y-73675996D01*
X36294822Y-73843579D01*
X36316657Y-73886433D01*
X36455483Y-74077510D01*
X36622490Y-74244517D01*
X36813567Y-74383343D01*
X36878667Y-74416513D01*
X37024003Y-74490566D01*
X37024005Y-74490566D01*
X37024008Y-74490568D01*
X37086402Y-74510841D01*
X37248631Y-74563553D01*
X37481903Y-74600500D01*
X37481908Y-74600500D01*
X37718097Y-74600500D01*
X37951368Y-74563553D01*
X38022154Y-74540553D01*
X38175992Y-74490568D01*
X38386433Y-74383343D01*
X38454199Y-74334108D01*
X58274500Y-74334108D01*
X58274500Y-74465892D01*
X58275805Y-74470763D01*
X58308608Y-74593187D01*
X58313689Y-74601987D01*
X58374500Y-74707314D01*
X58467686Y-74800500D01*
X58566521Y-74857563D01*
X58580944Y-74865890D01*
X58581814Y-74866392D01*
X58709108Y-74900500D01*
X58709110Y-74900500D01*
X58840890Y-74900500D01*
X58840892Y-74900500D01*
X58968186Y-74866392D01*
X59082314Y-74800500D01*
X59175500Y-74707314D01*
X59241392Y-74593186D01*
X59275500Y-74465892D01*
X59275500Y-74334108D01*
X68899500Y-74334108D01*
X68899500Y-74465892D01*
X68925820Y-74564118D01*
X68933608Y-74593185D01*
X68933611Y-74593192D01*
X68959481Y-74638001D01*
X68975954Y-74705901D01*
X68959481Y-74761999D01*
X68933611Y-74806807D01*
X68933608Y-74806814D01*
X68899500Y-74934108D01*
X68899500Y-75065892D01*
X68907059Y-75094102D01*
X68933608Y-75193187D01*
X68960437Y-75239655D01*
X68999500Y-75307314D01*
X69092686Y-75400500D01*
X69162001Y-75440519D01*
X69205944Y-75465890D01*
X69206814Y-75466392D01*
X69334108Y-75500500D01*
X69334110Y-75500500D01*
X69465890Y-75500500D01*
X69465892Y-75500500D01*
X69593186Y-75466392D01*
X69594056Y-75465890D01*
X69605716Y-75459157D01*
X69637999Y-75440518D01*
X69705898Y-75424045D01*
X69762000Y-75440518D01*
X69777800Y-75449640D01*
X69806811Y-75466391D01*
X69806813Y-75466391D01*
X69806814Y-75466392D01*
X69934108Y-75500500D01*
X69934110Y-75500500D01*
X70065890Y-75500500D01*
X70065892Y-75500500D01*
X70193186Y-75466392D01*
X70194056Y-75465890D01*
X70205716Y-75459157D01*
X70237999Y-75440518D01*
X70305898Y-75424045D01*
X70362000Y-75440518D01*
X70377800Y-75449640D01*
X70406811Y-75466391D01*
X70406813Y-75466391D01*
X70406814Y-75466392D01*
X70534108Y-75500500D01*
X70534110Y-75500500D01*
X70665890Y-75500500D01*
X70665892Y-75500500D01*
X70793186Y-75466392D01*
X70794056Y-75465890D01*
X70805716Y-75459157D01*
X70837999Y-75440518D01*
X70905898Y-75424045D01*
X70962000Y-75440518D01*
X70977800Y-75449640D01*
X71006811Y-75466391D01*
X71006813Y-75466391D01*
X71006814Y-75466392D01*
X71134108Y-75500500D01*
X71134110Y-75500500D01*
X71265890Y-75500500D01*
X71265892Y-75500500D01*
X71393186Y-75466392D01*
X71507314Y-75400500D01*
X71600500Y-75307314D01*
X71666392Y-75193186D01*
X71700500Y-75065892D01*
X71700500Y-74934108D01*
X71666392Y-74806814D01*
X71666391Y-74806813D01*
X71666391Y-74806811D01*
X71640519Y-74762002D01*
X71624045Y-74694102D01*
X71640519Y-74637998D01*
X71666391Y-74593188D01*
X71666392Y-74593185D01*
X71700500Y-74465892D01*
X71700500Y-74334108D01*
X72499500Y-74334108D01*
X72499500Y-74465892D01*
X72525820Y-74564118D01*
X72533608Y-74593185D01*
X72533611Y-74593192D01*
X72559481Y-74638001D01*
X72575954Y-74705901D01*
X72559481Y-74761999D01*
X72533611Y-74806807D01*
X72533608Y-74806814D01*
X72499500Y-74934108D01*
X72499500Y-75065892D01*
X72507059Y-75094102D01*
X72533608Y-75193187D01*
X72560437Y-75239655D01*
X72599500Y-75307314D01*
X72692686Y-75400500D01*
X72762001Y-75440519D01*
X72805944Y-75465890D01*
X72806814Y-75466392D01*
X72934108Y-75500500D01*
X72934110Y-75500500D01*
X73065890Y-75500500D01*
X73065892Y-75500500D01*
X73193186Y-75466392D01*
X73194056Y-75465890D01*
X73205716Y-75459157D01*
X73237999Y-75440518D01*
X73305898Y-75424045D01*
X73362000Y-75440518D01*
X73377800Y-75449640D01*
X73406811Y-75466391D01*
X73406813Y-75466391D01*
X73406814Y-75466392D01*
X73534108Y-75500500D01*
X73534110Y-75500500D01*
X73665890Y-75500500D01*
X73665892Y-75500500D01*
X73793186Y-75466392D01*
X73794056Y-75465890D01*
X73805716Y-75459157D01*
X73837999Y-75440518D01*
X73905898Y-75424045D01*
X73962000Y-75440518D01*
X73977800Y-75449640D01*
X74006811Y-75466391D01*
X74006813Y-75466391D01*
X74006814Y-75466392D01*
X74134108Y-75500500D01*
X74134110Y-75500500D01*
X74265890Y-75500500D01*
X74265892Y-75500500D01*
X74393186Y-75466392D01*
X74394056Y-75465890D01*
X74405716Y-75459157D01*
X74437999Y-75440518D01*
X74505898Y-75424045D01*
X74562000Y-75440518D01*
X74577800Y-75449640D01*
X74606811Y-75466391D01*
X74606813Y-75466391D01*
X74606814Y-75466392D01*
X74734108Y-75500500D01*
X74734110Y-75500500D01*
X74865890Y-75500500D01*
X74865892Y-75500500D01*
X74993186Y-75466392D01*
X75107314Y-75400500D01*
X75200500Y-75307314D01*
X75266392Y-75193186D01*
X75300500Y-75065892D01*
X75300500Y-74934108D01*
X75266392Y-74806814D01*
X75266391Y-74806813D01*
X75266391Y-74806811D01*
X75240519Y-74762002D01*
X75224045Y-74694102D01*
X75240519Y-74637998D01*
X75266391Y-74593188D01*
X75266392Y-74593185D01*
X75300500Y-74465892D01*
X75300500Y-74334108D01*
X75266392Y-74206814D01*
X75200500Y-74092686D01*
X75107314Y-73999500D01*
X75037999Y-73959481D01*
X74993187Y-73933608D01*
X74929539Y-73916554D01*
X74865892Y-73899500D01*
X74734108Y-73899500D01*
X74606814Y-73933608D01*
X74606807Y-73933611D01*
X74561999Y-73959481D01*
X74494099Y-73975954D01*
X74438001Y-73959481D01*
X74393192Y-73933611D01*
X74393188Y-73933609D01*
X74393186Y-73933608D01*
X74265892Y-73899500D01*
X74134108Y-73899500D01*
X74006814Y-73933608D01*
X74006807Y-73933611D01*
X73961999Y-73959481D01*
X73894099Y-73975954D01*
X73838001Y-73959481D01*
X73793192Y-73933611D01*
X73793188Y-73933609D01*
X73793186Y-73933608D01*
X73665892Y-73899500D01*
X73534108Y-73899500D01*
X73406814Y-73933608D01*
X73406807Y-73933611D01*
X73361999Y-73959481D01*
X73294099Y-73975954D01*
X73238001Y-73959481D01*
X73193192Y-73933611D01*
X73193188Y-73933609D01*
X73193186Y-73933608D01*
X73065892Y-73899500D01*
X72934108Y-73899500D01*
X72806812Y-73933608D01*
X72692686Y-73999500D01*
X72692683Y-73999502D01*
X72599502Y-74092683D01*
X72599500Y-74092686D01*
X72533608Y-74206812D01*
X72517644Y-74266392D01*
X72499500Y-74334108D01*
X71700500Y-74334108D01*
X71666392Y-74206814D01*
X71600500Y-74092686D01*
X71507314Y-73999500D01*
X71437999Y-73959481D01*
X71393187Y-73933608D01*
X71329539Y-73916554D01*
X71265892Y-73899500D01*
X71134108Y-73899500D01*
X71006814Y-73933608D01*
X71006807Y-73933611D01*
X70961999Y-73959481D01*
X70894099Y-73975954D01*
X70838001Y-73959481D01*
X70793192Y-73933611D01*
X70793188Y-73933609D01*
X70793186Y-73933608D01*
X70665892Y-73899500D01*
X70534108Y-73899500D01*
X70406814Y-73933608D01*
X70406807Y-73933611D01*
X70361999Y-73959481D01*
X70294099Y-73975954D01*
X70238001Y-73959481D01*
X70193192Y-73933611D01*
X70193188Y-73933609D01*
X70193186Y-73933608D01*
X70065892Y-73899500D01*
X69934108Y-73899500D01*
X69806814Y-73933608D01*
X69806807Y-73933611D01*
X69761999Y-73959481D01*
X69694099Y-73975954D01*
X69638001Y-73959481D01*
X69593192Y-73933611D01*
X69593188Y-73933609D01*
X69593186Y-73933608D01*
X69465892Y-73899500D01*
X69334108Y-73899500D01*
X69206812Y-73933608D01*
X69092686Y-73999500D01*
X69092683Y-73999502D01*
X68999502Y-74092683D01*
X68999500Y-74092686D01*
X68933608Y-74206812D01*
X68917644Y-74266392D01*
X68899500Y-74334108D01*
X59275500Y-74334108D01*
X59241392Y-74206814D01*
X59175500Y-74092686D01*
X59082314Y-73999500D01*
X59012999Y-73959481D01*
X58968187Y-73933608D01*
X58904539Y-73916554D01*
X58840892Y-73899500D01*
X58709108Y-73899500D01*
X58581812Y-73933608D01*
X58467686Y-73999500D01*
X58467683Y-73999502D01*
X58374502Y-74092683D01*
X58374500Y-74092686D01*
X58308608Y-74206812D01*
X58292644Y-74266392D01*
X58274500Y-74334108D01*
X38454199Y-74334108D01*
X38577510Y-74244517D01*
X38744517Y-74077510D01*
X38883343Y-73886433D01*
X38960956Y-73734108D01*
X65499500Y-73734108D01*
X65499500Y-73865892D01*
X65507059Y-73894102D01*
X65533608Y-73993187D01*
X65541472Y-74006807D01*
X65599500Y-74107314D01*
X65692686Y-74200500D01*
X65784424Y-74253465D01*
X65806810Y-74266390D01*
X65806814Y-74266392D01*
X65934108Y-74300500D01*
X65934110Y-74300500D01*
X66065890Y-74300500D01*
X66065892Y-74300500D01*
X66193186Y-74266392D01*
X66307314Y-74200500D01*
X66400500Y-74107314D01*
X66466392Y-73993186D01*
X66500500Y-73865892D01*
X66500500Y-73734108D01*
X66466392Y-73606814D01*
X66400500Y-73492686D01*
X66307314Y-73399500D01*
X66201230Y-73338252D01*
X66193187Y-73333608D01*
X66129539Y-73316554D01*
X66065892Y-73299500D01*
X65934108Y-73299500D01*
X65806812Y-73333608D01*
X65692686Y-73399500D01*
X65692683Y-73399502D01*
X65599502Y-73492683D01*
X65599500Y-73492686D01*
X65533608Y-73606812D01*
X65517778Y-73665892D01*
X65499500Y-73734108D01*
X38960956Y-73734108D01*
X38990568Y-73675992D01*
X39063553Y-73451368D01*
X39072437Y-73395277D01*
X39100500Y-73218097D01*
X39100500Y-72981902D01*
X39063553Y-72748631D01*
X39004731Y-72567598D01*
X38990568Y-72524008D01*
X38990566Y-72524005D01*
X38990566Y-72524003D01*
X38883342Y-72313566D01*
X38873849Y-72300500D01*
X38744517Y-72122490D01*
X38577510Y-71955483D01*
X38399703Y-71826298D01*
X38399702Y-71826297D01*
X38386436Y-71816659D01*
X38386435Y-71816658D01*
X38386433Y-71816657D01*
X38320715Y-71783172D01*
X38224423Y-71734108D01*
X53699500Y-71734108D01*
X53699500Y-71865891D01*
X53733608Y-71993187D01*
X53733611Y-71993192D01*
X53799500Y-72107314D01*
X53892686Y-72200500D01*
X54006814Y-72266392D01*
X54134108Y-72300500D01*
X54134110Y-72300500D01*
X54265890Y-72300500D01*
X54265892Y-72300500D01*
X54393186Y-72266392D01*
X54507314Y-72200500D01*
X54600500Y-72107314D01*
X54666392Y-71993186D01*
X54700500Y-71865892D01*
X54700500Y-71734108D01*
X55099500Y-71734108D01*
X55099500Y-71865891D01*
X55133608Y-71993187D01*
X55133611Y-71993192D01*
X55199500Y-72107314D01*
X55292686Y-72200500D01*
X55406814Y-72266392D01*
X55534108Y-72300500D01*
X55534110Y-72300500D01*
X55665890Y-72300500D01*
X55665892Y-72300500D01*
X55793186Y-72266392D01*
X55907314Y-72200500D01*
X56000500Y-72107314D01*
X56066392Y-71993186D01*
X56100500Y-71865892D01*
X56100500Y-71734108D01*
X56066392Y-71606814D01*
X56000500Y-71492686D01*
X55907314Y-71399500D01*
X55850250Y-71366554D01*
X55793187Y-71333608D01*
X55729539Y-71316554D01*
X55665892Y-71299500D01*
X55534108Y-71299500D01*
X55406812Y-71333608D01*
X55292686Y-71399500D01*
X55292683Y-71399502D01*
X55199502Y-71492683D01*
X55199500Y-71492686D01*
X55133608Y-71606812D01*
X55099500Y-71734108D01*
X54700500Y-71734108D01*
X54666392Y-71606814D01*
X54600500Y-71492686D01*
X54507314Y-71399500D01*
X54450250Y-71366554D01*
X54393187Y-71333608D01*
X54329539Y-71316554D01*
X54265892Y-71299500D01*
X54134108Y-71299500D01*
X54006812Y-71333608D01*
X53892686Y-71399500D01*
X53892683Y-71399502D01*
X53799502Y-71492683D01*
X53799500Y-71492686D01*
X53733608Y-71606812D01*
X53699500Y-71734108D01*
X38224423Y-71734108D01*
X38175996Y-71709433D01*
X37951368Y-71636446D01*
X37718097Y-71599500D01*
X37718092Y-71599500D01*
X37481908Y-71599500D01*
X37481903Y-71599500D01*
X37248631Y-71636446D01*
X37024003Y-71709433D01*
X36813566Y-71816657D01*
X36745802Y-71865891D01*
X36622490Y-71955483D01*
X36622488Y-71955485D01*
X36622487Y-71955485D01*
X36455485Y-72122487D01*
X36455485Y-72122488D01*
X36455483Y-72122490D01*
X36398807Y-72200497D01*
X36316657Y-72313566D01*
X36209433Y-72524003D01*
X36136446Y-72748631D01*
X36099500Y-72981902D01*
X23700500Y-72981902D01*
X23700500Y-66734108D01*
X40899500Y-66734108D01*
X40899500Y-66865891D01*
X40933608Y-66993187D01*
X40937253Y-66999500D01*
X40999500Y-67107314D01*
X40999502Y-67107316D01*
X41075671Y-67183485D01*
X41109156Y-67244808D01*
X41107766Y-67303255D01*
X41099500Y-67334106D01*
X41099500Y-67334108D01*
X41099500Y-67465892D01*
X41106615Y-67492445D01*
X41107766Y-67496742D01*
X41106101Y-67566591D01*
X41075672Y-67616512D01*
X40999503Y-67692682D01*
X40999500Y-67692686D01*
X40933608Y-67806812D01*
X40906117Y-67909411D01*
X40899500Y-67934108D01*
X40899500Y-68065892D01*
X40905925Y-68089871D01*
X40933608Y-68193187D01*
X40937253Y-68199500D01*
X40999500Y-68307314D01*
X40999502Y-68307316D01*
X41075671Y-68383485D01*
X41109156Y-68444808D01*
X41107766Y-68503255D01*
X41099500Y-68534106D01*
X41099500Y-68534108D01*
X41099500Y-68665892D01*
X41107766Y-68696742D01*
X41106101Y-68766591D01*
X41075672Y-68816512D01*
X40999503Y-68892682D01*
X40999500Y-68892686D01*
X40933608Y-69006812D01*
X40899500Y-69134108D01*
X40899500Y-69265891D01*
X40933608Y-69393187D01*
X40937253Y-69399500D01*
X40999500Y-69507314D01*
X40999502Y-69507316D01*
X41075671Y-69583485D01*
X41109156Y-69644808D01*
X41107766Y-69703255D01*
X41099500Y-69734106D01*
X41099500Y-69734108D01*
X41099500Y-69865892D01*
X41107766Y-69896742D01*
X41106101Y-69966591D01*
X41075672Y-70016512D01*
X40999503Y-70092682D01*
X40999500Y-70092686D01*
X40933608Y-70206812D01*
X40899500Y-70334108D01*
X40899500Y-70465891D01*
X40933608Y-70593187D01*
X40937253Y-70599500D01*
X40999500Y-70707314D01*
X40999502Y-70707316D01*
X41075671Y-70783485D01*
X41109156Y-70844808D01*
X41107766Y-70903255D01*
X41099500Y-70934106D01*
X41099500Y-70934108D01*
X41099500Y-71065892D01*
X41116554Y-71129539D01*
X41133608Y-71193187D01*
X41166554Y-71250250D01*
X41199500Y-71307314D01*
X41292686Y-71400500D01*
X41406814Y-71466392D01*
X41534108Y-71500500D01*
X41534110Y-71500500D01*
X41665890Y-71500500D01*
X41665892Y-71500500D01*
X41793186Y-71466392D01*
X41837999Y-71440518D01*
X41905898Y-71424045D01*
X41962000Y-71440518D01*
X41977800Y-71449640D01*
X42006811Y-71466391D01*
X42006813Y-71466391D01*
X42006814Y-71466392D01*
X42134108Y-71500500D01*
X42134110Y-71500500D01*
X42265890Y-71500500D01*
X42265892Y-71500500D01*
X42393186Y-71466392D01*
X42437999Y-71440518D01*
X42505898Y-71424045D01*
X42562000Y-71440518D01*
X42577800Y-71449640D01*
X42606811Y-71466391D01*
X42606813Y-71466391D01*
X42606814Y-71466392D01*
X42734108Y-71500500D01*
X42734110Y-71500500D01*
X42865890Y-71500500D01*
X42865892Y-71500500D01*
X42993186Y-71466392D01*
X43037999Y-71440518D01*
X43105898Y-71424045D01*
X43162000Y-71440518D01*
X43177800Y-71449640D01*
X43206811Y-71466391D01*
X43206813Y-71466391D01*
X43206814Y-71466392D01*
X43334108Y-71500500D01*
X43334110Y-71500500D01*
X43465890Y-71500500D01*
X43465892Y-71500500D01*
X43593186Y-71466392D01*
X43707314Y-71400500D01*
X43800500Y-71307314D01*
X43866392Y-71193186D01*
X43882222Y-71134108D01*
X75599500Y-71134108D01*
X75599500Y-71265892D01*
X75617645Y-71333608D01*
X75633608Y-71393185D01*
X75633611Y-71393192D01*
X75659481Y-71438001D01*
X75675954Y-71505901D01*
X75659481Y-71561999D01*
X75633611Y-71606807D01*
X75633608Y-71606814D01*
X75599500Y-71734108D01*
X75599500Y-71865891D01*
X75633608Y-71993185D01*
X75633611Y-71993192D01*
X75659481Y-72038001D01*
X75675954Y-72105901D01*
X75659481Y-72161999D01*
X75633611Y-72206807D01*
X75633608Y-72206814D01*
X75599500Y-72334108D01*
X75599500Y-72465892D01*
X75626752Y-72567596D01*
X75633608Y-72593185D01*
X75633611Y-72593192D01*
X75659481Y-72638001D01*
X75675954Y-72705901D01*
X75659481Y-72761999D01*
X75633611Y-72806807D01*
X75633608Y-72806814D01*
X75599500Y-72934108D01*
X75599500Y-73065892D01*
X75605826Y-73089500D01*
X75633608Y-73193187D01*
X75647990Y-73218097D01*
X75699500Y-73307314D01*
X75792686Y-73400500D01*
X75906814Y-73466392D01*
X76034108Y-73500500D01*
X76034110Y-73500500D01*
X76165890Y-73500500D01*
X76165892Y-73500500D01*
X76293186Y-73466392D01*
X76337999Y-73440518D01*
X76405898Y-73424045D01*
X76462000Y-73440518D01*
X76477800Y-73449640D01*
X76506811Y-73466391D01*
X76506813Y-73466391D01*
X76506814Y-73466392D01*
X76634108Y-73500500D01*
X76634110Y-73500500D01*
X76765889Y-73500500D01*
X76765892Y-73500500D01*
X76877555Y-73470580D01*
X76947400Y-73472243D01*
X77005262Y-73511405D01*
X77032767Y-73575633D01*
X77029419Y-73622447D01*
X76999500Y-73734108D01*
X76999500Y-73865892D01*
X77025253Y-73962002D01*
X77033608Y-73993185D01*
X77033611Y-73993192D01*
X77059481Y-74038001D01*
X77075954Y-74105901D01*
X77059481Y-74161999D01*
X77033611Y-74206807D01*
X77033609Y-74206812D01*
X77033608Y-74206814D01*
X76999500Y-74334108D01*
X76999500Y-74465892D01*
X77025820Y-74564118D01*
X77033608Y-74593185D01*
X77033611Y-74593192D01*
X77059481Y-74638001D01*
X77075954Y-74705901D01*
X77059481Y-74761999D01*
X77033611Y-74806807D01*
X77033608Y-74806814D01*
X76999500Y-74934108D01*
X76999500Y-75065892D01*
X77031989Y-75187141D01*
X77033608Y-75193185D01*
X77033611Y-75193192D01*
X77059481Y-75238001D01*
X77075954Y-75305901D01*
X77059481Y-75361999D01*
X77033611Y-75406807D01*
X77033608Y-75406814D01*
X76999500Y-75534108D01*
X76999500Y-75665892D01*
X77010600Y-75707316D01*
X77033608Y-75793185D01*
X77033611Y-75793192D01*
X77059481Y-75838001D01*
X77075954Y-75905901D01*
X77059481Y-75961999D01*
X77033611Y-76006807D01*
X77033608Y-76006814D01*
X76999500Y-76134108D01*
X76999500Y-76265892D01*
X77028372Y-76373642D01*
X77033608Y-76393185D01*
X77033611Y-76393192D01*
X77059481Y-76438001D01*
X77075954Y-76505901D01*
X77059481Y-76561999D01*
X77033611Y-76606807D01*
X77033608Y-76606814D01*
X76999500Y-76734108D01*
X76999500Y-76865891D01*
X77033608Y-76993187D01*
X77066554Y-77050250D01*
X77099500Y-77107314D01*
X77192686Y-77200500D01*
X77306814Y-77266392D01*
X77434108Y-77300500D01*
X77434110Y-77300500D01*
X77565890Y-77300500D01*
X77565892Y-77300500D01*
X77693186Y-77266392D01*
X77737999Y-77240518D01*
X77805898Y-77224045D01*
X77862000Y-77240518D01*
X77866877Y-77243334D01*
X77906811Y-77266391D01*
X77906813Y-77266391D01*
X77906814Y-77266392D01*
X78034108Y-77300500D01*
X78034110Y-77300500D01*
X78165890Y-77300500D01*
X78165892Y-77300500D01*
X78293186Y-77266392D01*
X78407314Y-77200500D01*
X78500500Y-77107314D01*
X78566392Y-76993186D01*
X78600500Y-76865892D01*
X78600500Y-76734108D01*
X78566392Y-76606814D01*
X78566391Y-76606812D01*
X78566391Y-76606811D01*
X78540519Y-76562002D01*
X78524045Y-76494102D01*
X78540519Y-76437998D01*
X78544683Y-76430787D01*
X78566392Y-76393186D01*
X78600500Y-76265892D01*
X78600500Y-76134108D01*
X78566392Y-76006814D01*
X78566391Y-76006813D01*
X78566391Y-76006811D01*
X78540519Y-75962002D01*
X78524045Y-75894102D01*
X78540519Y-75837998D01*
X78542814Y-75834024D01*
X78566392Y-75793186D01*
X78600500Y-75665892D01*
X78600500Y-75534108D01*
X78566392Y-75406814D01*
X78566391Y-75406813D01*
X78566391Y-75406811D01*
X78540519Y-75362002D01*
X78537688Y-75350335D01*
X78530726Y-75340558D01*
X78529603Y-75317014D01*
X78524045Y-75294102D01*
X78527888Y-75281012D01*
X78527400Y-75270768D01*
X78540517Y-75238002D01*
X78546221Y-75228122D01*
X78596787Y-75179905D01*
X78665394Y-75166681D01*
X78730259Y-75192648D01*
X78756712Y-75221230D01*
X78769024Y-75239657D01*
X78915342Y-75385975D01*
X78915345Y-75385977D01*
X79087402Y-75500941D01*
X79278580Y-75580130D01*
X79481530Y-75620499D01*
X79481534Y-75620500D01*
X79481535Y-75620500D01*
X79688466Y-75620500D01*
X79688467Y-75620499D01*
X79891420Y-75580130D01*
X80082598Y-75500941D01*
X80254655Y-75385977D01*
X80400977Y-75239655D01*
X80515941Y-75067598D01*
X80595130Y-74876420D01*
X80635500Y-74673465D01*
X80635500Y-74466535D01*
X80635499Y-74466530D01*
X81034500Y-74466530D01*
X81034500Y-74673469D01*
X81074868Y-74876412D01*
X81074870Y-74876420D01*
X81153351Y-75065890D01*
X81154059Y-75067598D01*
X81206972Y-75146788D01*
X81269024Y-75239657D01*
X81415342Y-75385975D01*
X81415345Y-75385977D01*
X81587402Y-75500941D01*
X81778580Y-75580130D01*
X81981530Y-75620499D01*
X81981534Y-75620500D01*
X81981535Y-75620500D01*
X82188466Y-75620500D01*
X82188467Y-75620499D01*
X82391420Y-75580130D01*
X82582598Y-75500941D01*
X82754655Y-75385977D01*
X82900977Y-75239655D01*
X83015941Y-75067598D01*
X83095130Y-74876420D01*
X83135500Y-74673465D01*
X83135500Y-74466535D01*
X83095130Y-74263580D01*
X83015941Y-74072402D01*
X82900977Y-73900345D01*
X82900975Y-73900342D01*
X82754657Y-73754024D01*
X82582595Y-73639057D01*
X82391420Y-73559870D01*
X82391412Y-73559868D01*
X82261908Y-73534108D01*
X84399500Y-73534108D01*
X84399500Y-73665892D01*
X84423115Y-73754023D01*
X84433608Y-73793185D01*
X84433611Y-73793192D01*
X84459481Y-73838001D01*
X84475954Y-73905901D01*
X84459481Y-73961999D01*
X84433611Y-74006807D01*
X84433608Y-74006814D01*
X84399500Y-74134108D01*
X84399500Y-74265892D01*
X84430971Y-74383342D01*
X84433608Y-74393185D01*
X84433611Y-74393192D01*
X84459481Y-74438001D01*
X84475954Y-74505901D01*
X84459481Y-74561999D01*
X84433611Y-74606807D01*
X84433608Y-74606814D01*
X84399500Y-74734108D01*
X84399500Y-74865892D01*
X84433410Y-74992445D01*
X84433608Y-74993185D01*
X84433611Y-74993192D01*
X84459481Y-75038001D01*
X84475954Y-75105901D01*
X84459481Y-75161999D01*
X84433611Y-75206807D01*
X84433608Y-75206814D01*
X84399500Y-75334108D01*
X84399500Y-75465892D01*
X84411649Y-75511232D01*
X84433608Y-75593187D01*
X84455571Y-75631227D01*
X84499500Y-75707314D01*
X84592686Y-75800500D01*
X84706814Y-75866392D01*
X84834108Y-75900500D01*
X84834110Y-75900500D01*
X84965890Y-75900500D01*
X84965892Y-75900500D01*
X85093186Y-75866392D01*
X85137999Y-75840518D01*
X85205898Y-75824045D01*
X85262000Y-75840518D01*
X85277800Y-75849640D01*
X85306811Y-75866391D01*
X85306813Y-75866391D01*
X85306814Y-75866392D01*
X85434108Y-75900500D01*
X85434110Y-75900500D01*
X85565890Y-75900500D01*
X85565892Y-75900500D01*
X85693186Y-75866392D01*
X85807314Y-75800500D01*
X85900500Y-75707314D01*
X85966392Y-75593186D01*
X86000500Y-75465892D01*
X86000500Y-75334108D01*
X85966392Y-75206814D01*
X85966391Y-75206813D01*
X85966391Y-75206811D01*
X85940519Y-75162002D01*
X85924045Y-75094102D01*
X85940519Y-75037998D01*
X85966391Y-74993188D01*
X85966590Y-74992447D01*
X86000500Y-74865892D01*
X86000500Y-74734108D01*
X85966392Y-74606814D01*
X85966391Y-74606813D01*
X85966391Y-74606811D01*
X85940519Y-74562002D01*
X85937687Y-74550332D01*
X85930724Y-74540553D01*
X85929603Y-74517010D01*
X85924045Y-74494102D01*
X85927190Y-74483389D01*
X88164500Y-74483389D01*
X88164500Y-74656611D01*
X88167170Y-74673466D01*
X88190323Y-74819655D01*
X88191598Y-74827701D01*
X88245127Y-74992445D01*
X88323768Y-75146788D01*
X88425586Y-75286928D01*
X88548072Y-75409414D01*
X88688212Y-75511232D01*
X88842555Y-75589873D01*
X89007299Y-75643402D01*
X89178389Y-75670500D01*
X89178390Y-75670500D01*
X89351610Y-75670500D01*
X89351611Y-75670500D01*
X89522701Y-75643402D01*
X89687445Y-75589873D01*
X89841788Y-75511232D01*
X89981928Y-75409414D01*
X90104414Y-75286928D01*
X90206232Y-75146788D01*
X90284873Y-74992445D01*
X90338402Y-74827701D01*
X90365500Y-74656611D01*
X90365500Y-74483389D01*
X90338402Y-74312299D01*
X90284873Y-74147555D01*
X90206232Y-73993212D01*
X90104414Y-73853072D01*
X89981928Y-73730586D01*
X89841788Y-73628768D01*
X89687445Y-73550127D01*
X89522701Y-73496598D01*
X89522699Y-73496597D01*
X89522698Y-73496597D01*
X89391271Y-73475781D01*
X89351611Y-73469500D01*
X89178389Y-73469500D01*
X89138728Y-73475781D01*
X89007302Y-73496597D01*
X89007299Y-73496598D01*
X88842931Y-73550005D01*
X88842552Y-73550128D01*
X88688211Y-73628768D01*
X88637115Y-73665892D01*
X88548072Y-73730586D01*
X88548070Y-73730588D01*
X88548069Y-73730588D01*
X88425588Y-73853069D01*
X88425588Y-73853070D01*
X88425586Y-73853072D01*
X88416272Y-73865892D01*
X88323768Y-73993211D01*
X88245128Y-74147552D01*
X88191597Y-74312302D01*
X88178786Y-74393188D01*
X88164500Y-74483389D01*
X85927190Y-74483389D01*
X85927888Y-74481011D01*
X85927401Y-74470763D01*
X85940520Y-74437997D01*
X85952924Y-74416514D01*
X85952924Y-74416513D01*
X85956939Y-74409558D01*
X85966392Y-74393186D01*
X86000500Y-74265892D01*
X86000500Y-74134108D01*
X85966392Y-74006814D01*
X85966391Y-74006813D01*
X85966391Y-74006811D01*
X85940519Y-73962002D01*
X85924045Y-73894102D01*
X85940519Y-73837998D01*
X85966391Y-73793188D01*
X85966392Y-73793185D01*
X86000500Y-73665892D01*
X86000500Y-73534108D01*
X85966392Y-73406814D01*
X85900500Y-73292686D01*
X85807314Y-73199500D01*
X85737999Y-73159481D01*
X85693187Y-73133608D01*
X85615756Y-73112861D01*
X85565892Y-73099500D01*
X85434108Y-73099500D01*
X85306814Y-73133608D01*
X85306807Y-73133611D01*
X85261999Y-73159481D01*
X85194099Y-73175954D01*
X85138001Y-73159481D01*
X85093192Y-73133611D01*
X85093188Y-73133609D01*
X85093186Y-73133608D01*
X84965892Y-73099500D01*
X84834108Y-73099500D01*
X84706812Y-73133608D01*
X84592686Y-73199500D01*
X84592683Y-73199502D01*
X84499502Y-73292683D01*
X84499500Y-73292686D01*
X84433608Y-73406812D01*
X84410600Y-73492683D01*
X84399500Y-73534108D01*
X82261908Y-73534108D01*
X82188469Y-73519500D01*
X82188465Y-73519500D01*
X81981535Y-73519500D01*
X81981530Y-73519500D01*
X81778587Y-73559868D01*
X81778579Y-73559870D01*
X81587403Y-73639058D01*
X81415342Y-73754024D01*
X81269024Y-73900342D01*
X81154058Y-74072403D01*
X81074870Y-74263579D01*
X81074868Y-74263587D01*
X81034500Y-74466530D01*
X80635499Y-74466530D01*
X80595130Y-74263580D01*
X80515941Y-74072402D01*
X80400977Y-73900345D01*
X80400975Y-73900342D01*
X80254657Y-73754024D01*
X80168626Y-73696541D01*
X80082598Y-73639059D01*
X80082593Y-73639057D01*
X79891420Y-73559870D01*
X79891412Y-73559868D01*
X79688469Y-73519500D01*
X79688465Y-73519500D01*
X79481535Y-73519500D01*
X79481530Y-73519500D01*
X79278587Y-73559868D01*
X79278579Y-73559870D01*
X79087403Y-73639058D01*
X78915342Y-73754024D01*
X78915341Y-73754025D01*
X78812181Y-73857186D01*
X78750858Y-73890671D01*
X78681166Y-73885687D01*
X78625233Y-73843815D01*
X78600816Y-73778351D01*
X78600500Y-73769505D01*
X78600500Y-73734110D01*
X78600500Y-73734108D01*
X78566392Y-73606814D01*
X78500500Y-73492686D01*
X78407314Y-73399500D01*
X78301230Y-73338252D01*
X78293187Y-73333608D01*
X78229539Y-73316554D01*
X78165892Y-73299500D01*
X78034108Y-73299500D01*
X77906814Y-73333608D01*
X77906807Y-73333611D01*
X77861999Y-73359481D01*
X77794099Y-73375954D01*
X77738001Y-73359481D01*
X77693192Y-73333611D01*
X77693188Y-73333609D01*
X77693186Y-73333608D01*
X77565892Y-73299500D01*
X77434108Y-73299500D01*
X77404946Y-73307314D01*
X77322448Y-73329419D01*
X77252598Y-73327756D01*
X77194736Y-73288593D01*
X77167232Y-73224365D01*
X77170579Y-73177558D01*
X77200500Y-73065892D01*
X77200500Y-72934108D01*
X77166392Y-72806814D01*
X77166391Y-72806813D01*
X77166391Y-72806811D01*
X77140519Y-72762002D01*
X77124045Y-72694102D01*
X77140519Y-72637998D01*
X77166391Y-72593188D01*
X77173248Y-72567598D01*
X77200500Y-72465892D01*
X77200500Y-72334108D01*
X77166392Y-72206814D01*
X77166391Y-72206813D01*
X77166391Y-72206811D01*
X77140519Y-72162002D01*
X77124045Y-72094102D01*
X77132720Y-72054082D01*
X77136036Y-72045762D01*
X77166392Y-71993186D01*
X77173534Y-71966530D01*
X78534500Y-71966530D01*
X78534500Y-72173469D01*
X78566454Y-72334110D01*
X78574870Y-72376420D01*
X78654059Y-72567598D01*
X78711541Y-72653626D01*
X78769024Y-72739657D01*
X78915342Y-72885975D01*
X78915345Y-72885977D01*
X79087402Y-73000941D01*
X79278580Y-73080130D01*
X79443116Y-73112858D01*
X79481530Y-73120499D01*
X79481534Y-73120500D01*
X79481535Y-73120500D01*
X79688466Y-73120500D01*
X79688467Y-73120499D01*
X79891420Y-73080130D01*
X80082598Y-73000941D01*
X80254655Y-72885977D01*
X80400977Y-72739655D01*
X80515941Y-72567598D01*
X80595130Y-72376420D01*
X80635500Y-72173465D01*
X80635500Y-71966535D01*
X80635499Y-71966530D01*
X81034500Y-71966530D01*
X81034500Y-72173469D01*
X81066454Y-72334110D01*
X81074870Y-72376420D01*
X81154059Y-72567598D01*
X81211541Y-72653626D01*
X81269024Y-72739657D01*
X81415342Y-72885975D01*
X81415345Y-72885977D01*
X81587402Y-73000941D01*
X81778580Y-73080130D01*
X81943116Y-73112858D01*
X81981530Y-73120499D01*
X81981534Y-73120500D01*
X81981535Y-73120500D01*
X82188466Y-73120500D01*
X82188467Y-73120499D01*
X82391420Y-73080130D01*
X82582598Y-73000941D01*
X82754655Y-72885977D01*
X82900977Y-72739655D01*
X83015941Y-72567598D01*
X83095130Y-72376420D01*
X83135500Y-72173465D01*
X83135500Y-71966535D01*
X83095130Y-71763580D01*
X83015941Y-71572402D01*
X82900977Y-71400345D01*
X82900975Y-71400342D01*
X82754657Y-71254024D01*
X82663605Y-71193186D01*
X82582598Y-71139059D01*
X82570650Y-71134110D01*
X82391420Y-71059870D01*
X82391412Y-71059868D01*
X82188469Y-71019500D01*
X82188465Y-71019500D01*
X81981535Y-71019500D01*
X81981530Y-71019500D01*
X81778587Y-71059868D01*
X81778579Y-71059870D01*
X81587403Y-71139058D01*
X81415342Y-71254024D01*
X81269024Y-71400342D01*
X81154058Y-71572403D01*
X81074870Y-71763579D01*
X81074868Y-71763587D01*
X81034500Y-71966530D01*
X80635499Y-71966530D01*
X80595130Y-71763580D01*
X80515941Y-71572402D01*
X80400977Y-71400345D01*
X80400975Y-71400342D01*
X80254657Y-71254024D01*
X80163605Y-71193186D01*
X80082598Y-71139059D01*
X80070650Y-71134110D01*
X79891420Y-71059870D01*
X79891412Y-71059868D01*
X79688469Y-71019500D01*
X79688465Y-71019500D01*
X79481535Y-71019500D01*
X79481530Y-71019500D01*
X79278587Y-71059868D01*
X79278579Y-71059870D01*
X79087403Y-71139058D01*
X78915342Y-71254024D01*
X78769024Y-71400342D01*
X78654058Y-71572403D01*
X78574870Y-71763579D01*
X78574868Y-71763587D01*
X78534500Y-71966530D01*
X77173534Y-71966530D01*
X77200500Y-71865892D01*
X77200500Y-71734108D01*
X77166392Y-71606814D01*
X77166391Y-71606812D01*
X77166391Y-71606811D01*
X77149640Y-71577800D01*
X77140518Y-71561999D01*
X77124045Y-71494102D01*
X77140519Y-71437998D01*
X77166391Y-71393188D01*
X77166392Y-71393185D01*
X77200500Y-71265892D01*
X77200500Y-71134108D01*
X77166392Y-71006814D01*
X77100500Y-70892686D01*
X77007314Y-70799500D01*
X76937999Y-70759481D01*
X76893187Y-70733608D01*
X76829539Y-70716554D01*
X76765892Y-70699500D01*
X76634108Y-70699500D01*
X76506814Y-70733608D01*
X76506807Y-70733611D01*
X76461999Y-70759481D01*
X76394099Y-70775954D01*
X76338001Y-70759481D01*
X76293192Y-70733611D01*
X76293188Y-70733609D01*
X76293186Y-70733608D01*
X76165892Y-70699500D01*
X76034108Y-70699500D01*
X75906812Y-70733608D01*
X75792686Y-70799500D01*
X75792683Y-70799502D01*
X75699502Y-70892683D01*
X75699500Y-70892686D01*
X75633608Y-71006812D01*
X75617778Y-71065892D01*
X75599500Y-71134108D01*
X43882222Y-71134108D01*
X43900500Y-71065892D01*
X43900500Y-70934108D01*
X43866392Y-70806814D01*
X43800500Y-70692686D01*
X43724328Y-70616514D01*
X43690843Y-70555191D01*
X43692234Y-70496740D01*
X43700500Y-70465892D01*
X43700500Y-70334108D01*
X43692234Y-70303258D01*
X43693897Y-70233410D01*
X43724328Y-70183486D01*
X43800500Y-70107314D01*
X43866392Y-69993186D01*
X43900500Y-69865892D01*
X43900500Y-69734108D01*
X43866392Y-69606814D01*
X43800500Y-69492686D01*
X43724328Y-69416514D01*
X43690843Y-69355191D01*
X43692234Y-69296740D01*
X43700500Y-69265892D01*
X43700500Y-69134108D01*
X43692234Y-69103258D01*
X43693897Y-69033410D01*
X43724328Y-68983486D01*
X43800500Y-68907314D01*
X43866392Y-68793186D01*
X43900500Y-68665892D01*
X43900500Y-68534108D01*
X43866392Y-68406814D01*
X43800500Y-68292686D01*
X43724328Y-68216514D01*
X43690843Y-68155191D01*
X43692234Y-68096740D01*
X43694074Y-68089873D01*
X43700500Y-68065892D01*
X43700500Y-67934108D01*
X43692234Y-67903258D01*
X43693897Y-67833410D01*
X43724328Y-67783486D01*
X43753115Y-67754699D01*
X43800500Y-67707314D01*
X43866392Y-67593186D01*
X43900500Y-67465892D01*
X43900500Y-67334108D01*
X43866392Y-67206814D01*
X43800500Y-67092686D01*
X43724328Y-67016514D01*
X43690843Y-66955191D01*
X43692234Y-66896740D01*
X43700500Y-66865892D01*
X43700500Y-66734108D01*
X43692234Y-66703258D01*
X43693897Y-66633410D01*
X43724328Y-66583486D01*
X43735412Y-66572402D01*
X43800500Y-66507314D01*
X43853376Y-66415730D01*
X78534500Y-66415730D01*
X78534500Y-67724269D01*
X78537353Y-67754699D01*
X78537353Y-67754701D01*
X78582206Y-67882880D01*
X78582207Y-67882882D01*
X78662850Y-67992150D01*
X78772118Y-68072793D01*
X78793089Y-68080131D01*
X78900299Y-68117646D01*
X78930730Y-68120500D01*
X78930734Y-68120500D01*
X80239270Y-68120500D01*
X80269699Y-68117646D01*
X80269701Y-68117646D01*
X80349070Y-68089873D01*
X80397882Y-68072793D01*
X80507150Y-67992150D01*
X80587793Y-67882882D01*
X80621368Y-67786930D01*
X80632646Y-67754701D01*
X80632646Y-67754699D01*
X80635500Y-67724269D01*
X80635500Y-66966530D01*
X81034500Y-66966530D01*
X81034500Y-67173469D01*
X81066454Y-67334110D01*
X81074870Y-67376420D01*
X81154059Y-67567598D01*
X81171156Y-67593186D01*
X81269024Y-67739657D01*
X81415342Y-67885975D01*
X81415345Y-67885977D01*
X81587402Y-68000941D01*
X81778580Y-68080130D01*
X81967187Y-68117646D01*
X81981530Y-68120499D01*
X81981534Y-68120500D01*
X81981535Y-68120500D01*
X82188466Y-68120500D01*
X82188467Y-68120499D01*
X82391420Y-68080130D01*
X82582598Y-68000941D01*
X82754655Y-67885977D01*
X82900977Y-67739655D01*
X83015941Y-67567598D01*
X83095130Y-67376420D01*
X83135500Y-67173465D01*
X83135500Y-66983389D01*
X88164500Y-66983389D01*
X88164500Y-67156611D01*
X88191598Y-67327701D01*
X88245127Y-67492445D01*
X88323768Y-67646788D01*
X88425586Y-67786928D01*
X88548072Y-67909414D01*
X88688212Y-68011232D01*
X88842555Y-68089873D01*
X89007299Y-68143402D01*
X89178389Y-68170500D01*
X89178390Y-68170500D01*
X89351610Y-68170500D01*
X89351611Y-68170500D01*
X89522701Y-68143402D01*
X89687445Y-68089873D01*
X89841788Y-68011232D01*
X89981928Y-67909414D01*
X90104414Y-67786928D01*
X90206232Y-67646788D01*
X90284873Y-67492445D01*
X90338402Y-67327701D01*
X90365500Y-67156611D01*
X90365500Y-66983389D01*
X90338402Y-66812299D01*
X90284873Y-66647555D01*
X90206232Y-66493212D01*
X90104414Y-66353072D01*
X89981928Y-66230586D01*
X89841788Y-66128768D01*
X89687445Y-66050127D01*
X89522701Y-65996598D01*
X89522699Y-65996597D01*
X89522698Y-65996597D01*
X89391271Y-65975781D01*
X89351611Y-65969500D01*
X89178389Y-65969500D01*
X89138728Y-65975781D01*
X89007302Y-65996597D01*
X88842552Y-66050128D01*
X88688211Y-66128768D01*
X88608256Y-66186859D01*
X88548072Y-66230586D01*
X88548070Y-66230588D01*
X88548069Y-66230588D01*
X88425588Y-66353069D01*
X88425588Y-66353070D01*
X88425586Y-66353072D01*
X88396441Y-66393187D01*
X88323768Y-66493211D01*
X88245128Y-66647552D01*
X88191597Y-66812302D01*
X88178224Y-66896740D01*
X88164500Y-66983389D01*
X83135500Y-66983389D01*
X83135500Y-66966535D01*
X83095130Y-66763580D01*
X83015941Y-66572402D01*
X82900977Y-66400345D01*
X82900975Y-66400342D01*
X82754657Y-66254024D01*
X82668626Y-66196541D01*
X82582598Y-66139059D01*
X82570650Y-66134110D01*
X82391420Y-66059870D01*
X82391412Y-66059868D01*
X82188469Y-66019500D01*
X82188465Y-66019500D01*
X81981535Y-66019500D01*
X81981530Y-66019500D01*
X81778587Y-66059868D01*
X81778579Y-66059870D01*
X81587403Y-66139058D01*
X81415342Y-66254024D01*
X81269024Y-66400342D01*
X81154058Y-66572403D01*
X81074870Y-66763579D01*
X81074868Y-66763587D01*
X81034500Y-66966530D01*
X80635500Y-66966530D01*
X80635500Y-66415730D01*
X80632646Y-66385300D01*
X80632646Y-66385298D01*
X80587793Y-66257119D01*
X80587792Y-66257117D01*
X80507150Y-66147850D01*
X80397882Y-66067207D01*
X80397880Y-66067206D01*
X80269700Y-66022353D01*
X80239270Y-66019500D01*
X80239266Y-66019500D01*
X78930734Y-66019500D01*
X78930730Y-66019500D01*
X78900300Y-66022353D01*
X78900298Y-66022353D01*
X78772119Y-66067206D01*
X78772117Y-66067207D01*
X78662850Y-66147850D01*
X78582207Y-66257117D01*
X78582206Y-66257119D01*
X78537353Y-66385298D01*
X78537353Y-66385300D01*
X78534500Y-66415730D01*
X43853376Y-66415730D01*
X43866392Y-66393186D01*
X43900500Y-66265892D01*
X43900500Y-66134108D01*
X43866392Y-66006814D01*
X43800500Y-65892686D01*
X43707314Y-65799500D01*
X43637999Y-65759481D01*
X43593187Y-65733608D01*
X43529539Y-65716554D01*
X43465892Y-65699500D01*
X43334108Y-65699500D01*
X43206814Y-65733608D01*
X43206807Y-65733611D01*
X43161999Y-65759481D01*
X43094099Y-65775954D01*
X43038001Y-65759481D01*
X42993192Y-65733611D01*
X42993188Y-65733609D01*
X42993186Y-65733608D01*
X42865892Y-65699500D01*
X42734108Y-65699500D01*
X42606814Y-65733608D01*
X42606807Y-65733611D01*
X42561999Y-65759481D01*
X42494099Y-65775954D01*
X42438001Y-65759481D01*
X42393192Y-65733611D01*
X42393188Y-65733609D01*
X42393186Y-65733608D01*
X42265892Y-65699500D01*
X42134108Y-65699500D01*
X42006814Y-65733608D01*
X42006807Y-65733611D01*
X41961999Y-65759481D01*
X41894099Y-65775954D01*
X41838001Y-65759481D01*
X41793192Y-65733611D01*
X41793188Y-65733609D01*
X41793186Y-65733608D01*
X41665892Y-65699500D01*
X41534108Y-65699500D01*
X41406812Y-65733608D01*
X41292686Y-65799500D01*
X41292683Y-65799502D01*
X41199502Y-65892683D01*
X41199500Y-65892686D01*
X41133608Y-66006812D01*
X41129444Y-66022353D01*
X41099500Y-66134108D01*
X41099500Y-66265892D01*
X41107766Y-66296742D01*
X41106101Y-66366591D01*
X41075672Y-66416512D01*
X40999503Y-66492682D01*
X40999500Y-66492686D01*
X40933608Y-66606812D01*
X40899500Y-66734108D01*
X23700500Y-66734108D01*
X23700500Y-59878711D01*
X24949500Y-59878711D01*
X24949500Y-60121288D01*
X24981161Y-60361785D01*
X25043947Y-60596104D01*
X25113502Y-60764023D01*
X25136776Y-60820212D01*
X25258064Y-61030289D01*
X25258066Y-61030292D01*
X25258067Y-61030293D01*
X25405733Y-61222736D01*
X25405739Y-61222743D01*
X25577256Y-61394260D01*
X25577263Y-61394266D01*
X25676958Y-61470764D01*
X25769711Y-61541936D01*
X25979788Y-61663224D01*
X26203900Y-61756054D01*
X26438211Y-61818838D01*
X26618586Y-61842584D01*
X26678711Y-61850500D01*
X26678712Y-61850500D01*
X26921289Y-61850500D01*
X26969388Y-61844167D01*
X27161789Y-61818838D01*
X27396100Y-61756054D01*
X27575119Y-61681902D01*
X36099500Y-61681902D01*
X36099500Y-61918097D01*
X36136446Y-62151368D01*
X36209433Y-62375996D01*
X36255238Y-62465892D01*
X36316657Y-62586433D01*
X36455483Y-62777510D01*
X36622490Y-62944517D01*
X36813567Y-63083343D01*
X36847238Y-63100499D01*
X37024003Y-63190566D01*
X37024005Y-63190566D01*
X37024008Y-63190568D01*
X37144412Y-63229689D01*
X37248631Y-63263553D01*
X37481903Y-63300500D01*
X37481908Y-63300500D01*
X37718097Y-63300500D01*
X37951368Y-63263553D01*
X38175992Y-63190568D01*
X38386433Y-63083343D01*
X38577510Y-62944517D01*
X38744517Y-62777510D01*
X38883343Y-62586433D01*
X38910004Y-62534108D01*
X59699500Y-62534108D01*
X59699500Y-62665892D01*
X59716554Y-62729539D01*
X59733608Y-62793187D01*
X59740268Y-62804722D01*
X59799500Y-62907314D01*
X59892686Y-63000500D01*
X60006814Y-63066392D01*
X60134108Y-63100500D01*
X60134110Y-63100500D01*
X60265890Y-63100500D01*
X60265892Y-63100500D01*
X60393186Y-63066392D01*
X60507314Y-63000500D01*
X60600500Y-62907314D01*
X60666392Y-62793186D01*
X60700500Y-62665892D01*
X60700500Y-62534108D01*
X60666392Y-62406814D01*
X60600500Y-62292686D01*
X60507314Y-62199500D01*
X60433335Y-62156788D01*
X60393187Y-62133608D01*
X60329539Y-62116554D01*
X60265892Y-62099500D01*
X60134108Y-62099500D01*
X60006812Y-62133608D01*
X59892686Y-62199500D01*
X59892683Y-62199502D01*
X59799502Y-62292683D01*
X59799500Y-62292686D01*
X59733608Y-62406812D01*
X59702950Y-62521231D01*
X59699500Y-62534108D01*
X38910004Y-62534108D01*
X38944763Y-62465891D01*
X38974864Y-62406812D01*
X38990568Y-62375992D01*
X39063553Y-62151368D01*
X39075237Y-62077596D01*
X39100500Y-61918097D01*
X39100500Y-61681902D01*
X39070080Y-61489841D01*
X39067972Y-61476534D01*
X39067971Y-61476530D01*
X78534500Y-61476530D01*
X78534500Y-61683469D01*
X78574868Y-61886412D01*
X78574870Y-61886420D01*
X78654059Y-62077598D01*
X78703350Y-62151368D01*
X78769024Y-62249657D01*
X78915342Y-62395975D01*
X78915345Y-62395977D01*
X79087402Y-62510941D01*
X79278580Y-62590130D01*
X79481530Y-62630499D01*
X79481534Y-62630500D01*
X79481535Y-62630500D01*
X79688466Y-62630500D01*
X79688467Y-62630499D01*
X79891420Y-62590130D01*
X80082598Y-62510941D01*
X80254655Y-62395977D01*
X80400977Y-62249655D01*
X80515941Y-62077598D01*
X80595130Y-61886420D01*
X80635500Y-61683465D01*
X80635500Y-61476535D01*
X80635499Y-61476530D01*
X81034500Y-61476530D01*
X81034500Y-61683469D01*
X81074868Y-61886412D01*
X81074870Y-61886420D01*
X81154059Y-62077598D01*
X81203350Y-62151368D01*
X81269024Y-62249657D01*
X81415342Y-62395975D01*
X81415345Y-62395977D01*
X81587402Y-62510941D01*
X81778580Y-62590130D01*
X81981530Y-62630499D01*
X81981534Y-62630500D01*
X81981535Y-62630500D01*
X82188466Y-62630500D01*
X82188467Y-62630499D01*
X82391420Y-62590130D01*
X82582598Y-62510941D01*
X82754655Y-62395977D01*
X82900977Y-62249655D01*
X83015941Y-62077598D01*
X83095130Y-61886420D01*
X83135500Y-61683465D01*
X83135500Y-61476535D01*
X83095130Y-61273580D01*
X83015941Y-61082402D01*
X82900977Y-60910345D01*
X82900975Y-60910342D01*
X82754657Y-60764024D01*
X82582595Y-60649057D01*
X82562037Y-60640542D01*
X82391420Y-60569870D01*
X82391412Y-60569868D01*
X82211635Y-60534108D01*
X84399500Y-60534108D01*
X84399500Y-60665891D01*
X84433608Y-60793185D01*
X84433611Y-60793192D01*
X84459481Y-60838001D01*
X84475954Y-60905901D01*
X84459481Y-60961999D01*
X84433611Y-61006807D01*
X84433608Y-61006814D01*
X84399500Y-61134108D01*
X84399500Y-61265891D01*
X84433608Y-61393185D01*
X84433611Y-61393192D01*
X84459481Y-61438001D01*
X84475954Y-61505901D01*
X84459481Y-61561999D01*
X84433611Y-61606807D01*
X84433608Y-61606814D01*
X84399500Y-61734108D01*
X84399500Y-61865892D01*
X84405001Y-61886420D01*
X84433608Y-61993185D01*
X84433611Y-61993192D01*
X84459481Y-62038001D01*
X84475954Y-62105901D01*
X84459481Y-62161999D01*
X84433611Y-62206807D01*
X84433608Y-62206814D01*
X84399500Y-62334108D01*
X84399500Y-62465891D01*
X84433608Y-62593187D01*
X84455151Y-62630499D01*
X84499500Y-62707314D01*
X84592686Y-62800500D01*
X84706814Y-62866392D01*
X84834108Y-62900500D01*
X84834110Y-62900500D01*
X84965890Y-62900500D01*
X84965892Y-62900500D01*
X85093186Y-62866392D01*
X85137999Y-62840518D01*
X85205898Y-62824045D01*
X85262000Y-62840518D01*
X85277800Y-62849640D01*
X85306811Y-62866391D01*
X85306813Y-62866391D01*
X85306814Y-62866392D01*
X85434108Y-62900500D01*
X85434110Y-62900500D01*
X85565890Y-62900500D01*
X85565892Y-62900500D01*
X85693186Y-62866392D01*
X85807314Y-62800500D01*
X85900500Y-62707314D01*
X85966392Y-62593186D01*
X86000500Y-62465892D01*
X86000500Y-62334108D01*
X85966392Y-62206814D01*
X85966391Y-62206813D01*
X85966391Y-62206811D01*
X85940519Y-62162002D01*
X85924045Y-62094102D01*
X85940519Y-62037998D01*
X85966391Y-61993188D01*
X85966392Y-61993185D01*
X86000500Y-61865892D01*
X86000500Y-61734108D01*
X85966392Y-61606814D01*
X85966391Y-61606813D01*
X85966391Y-61606811D01*
X85940519Y-61562002D01*
X85937688Y-61550334D01*
X85930724Y-61540554D01*
X85929602Y-61517009D01*
X85924045Y-61494102D01*
X85924254Y-61493389D01*
X88164500Y-61493389D01*
X88164500Y-61666611D01*
X88191598Y-61837701D01*
X88245127Y-62002445D01*
X88323768Y-62156788D01*
X88425586Y-62296928D01*
X88548072Y-62419414D01*
X88688212Y-62521232D01*
X88842555Y-62599873D01*
X89007299Y-62653402D01*
X89178389Y-62680500D01*
X89178390Y-62680500D01*
X89351610Y-62680500D01*
X89351611Y-62680500D01*
X89522701Y-62653402D01*
X89687445Y-62599873D01*
X89841788Y-62521232D01*
X89981928Y-62419414D01*
X90104414Y-62296928D01*
X90206232Y-62156788D01*
X90284873Y-62002445D01*
X90338402Y-61837701D01*
X90365500Y-61666611D01*
X90365500Y-61493389D01*
X90338402Y-61322299D01*
X90284873Y-61157555D01*
X90206232Y-61003212D01*
X90104414Y-60863072D01*
X89981928Y-60740586D01*
X89841788Y-60638768D01*
X89687445Y-60560127D01*
X89522701Y-60506598D01*
X89522699Y-60506597D01*
X89522698Y-60506597D01*
X89391271Y-60485781D01*
X89351611Y-60479500D01*
X89178389Y-60479500D01*
X89138728Y-60485781D01*
X89007302Y-60506597D01*
X88842552Y-60560128D01*
X88688211Y-60638768D01*
X88650879Y-60665892D01*
X88548072Y-60740586D01*
X88548070Y-60740588D01*
X88548069Y-60740588D01*
X88425588Y-60863069D01*
X88425588Y-60863070D01*
X88425586Y-60863072D01*
X88398756Y-60900000D01*
X88323768Y-61003211D01*
X88245128Y-61157552D01*
X88191597Y-61322302D01*
X88171589Y-61448631D01*
X88164500Y-61493389D01*
X85924254Y-61493389D01*
X85927888Y-61481011D01*
X85927401Y-61470764D01*
X85940519Y-61437998D01*
X85947149Y-61426515D01*
X85966391Y-61393188D01*
X85966392Y-61393185D01*
X86000500Y-61265892D01*
X86000500Y-61134108D01*
X85966392Y-61006814D01*
X85966391Y-61006813D01*
X85966391Y-61006811D01*
X85940519Y-60962002D01*
X85924045Y-60894102D01*
X85940519Y-60837998D01*
X85966391Y-60793188D01*
X85966392Y-60793185D01*
X86000500Y-60665892D01*
X86000500Y-60534108D01*
X85966392Y-60406814D01*
X85900500Y-60292686D01*
X85807314Y-60199500D01*
X85737999Y-60159481D01*
X85693187Y-60133608D01*
X85629539Y-60116554D01*
X85565892Y-60099500D01*
X85434108Y-60099500D01*
X85306814Y-60133608D01*
X85306807Y-60133611D01*
X85261999Y-60159481D01*
X85194099Y-60175954D01*
X85138001Y-60159481D01*
X85093192Y-60133611D01*
X85093188Y-60133609D01*
X85093186Y-60133608D01*
X84965892Y-60099500D01*
X84834108Y-60099500D01*
X84706812Y-60133608D01*
X84592686Y-60199500D01*
X84592683Y-60199502D01*
X84499502Y-60292683D01*
X84499500Y-60292686D01*
X84433608Y-60406812D01*
X84399500Y-60534108D01*
X82211635Y-60534108D01*
X82188469Y-60529500D01*
X82188465Y-60529500D01*
X81981535Y-60529500D01*
X81981530Y-60529500D01*
X81778587Y-60569868D01*
X81778579Y-60569870D01*
X81587403Y-60649058D01*
X81415342Y-60764024D01*
X81269024Y-60910342D01*
X81154058Y-61082403D01*
X81074870Y-61273579D01*
X81074868Y-61273587D01*
X81034500Y-61476530D01*
X80635499Y-61476530D01*
X80595130Y-61273580D01*
X80515941Y-61082402D01*
X80400977Y-60910345D01*
X80400975Y-60910342D01*
X80254657Y-60764024D01*
X80168626Y-60706541D01*
X80082598Y-60649059D01*
X80082593Y-60649057D01*
X79891420Y-60569870D01*
X79891412Y-60569868D01*
X79688469Y-60529500D01*
X79688465Y-60529500D01*
X79481535Y-60529500D01*
X79481530Y-60529500D01*
X79278587Y-60569868D01*
X79278579Y-60569870D01*
X79087403Y-60649058D01*
X78915342Y-60764024D01*
X78769024Y-60910342D01*
X78654058Y-61082403D01*
X78574870Y-61273579D01*
X78574868Y-61273587D01*
X78534500Y-61476530D01*
X39067971Y-61476530D01*
X39063553Y-61448632D01*
X38990568Y-61224008D01*
X38990566Y-61224005D01*
X38990566Y-61224003D01*
X38883342Y-61013566D01*
X38744517Y-60822490D01*
X38577510Y-60655483D01*
X38386433Y-60516657D01*
X38366689Y-60506597D01*
X38175996Y-60409433D01*
X37951368Y-60336446D01*
X37718097Y-60299500D01*
X37718092Y-60299500D01*
X37481908Y-60299500D01*
X37481903Y-60299500D01*
X37248631Y-60336446D01*
X37024003Y-60409433D01*
X36813566Y-60516657D01*
X36704550Y-60595862D01*
X36622490Y-60655483D01*
X36622488Y-60655485D01*
X36622487Y-60655485D01*
X36455485Y-60822487D01*
X36455485Y-60822488D01*
X36455483Y-60822490D01*
X36403454Y-60894102D01*
X36316657Y-61013566D01*
X36209433Y-61224003D01*
X36136446Y-61448631D01*
X36099500Y-61681902D01*
X27575119Y-61681902D01*
X27620212Y-61663224D01*
X27830289Y-61541936D01*
X28022738Y-61394265D01*
X28194265Y-61222738D01*
X28341936Y-61030289D01*
X28463224Y-60820212D01*
X28556054Y-60596100D01*
X28618838Y-60361789D01*
X28650500Y-60121288D01*
X28650500Y-59878712D01*
X28618838Y-59638211D01*
X28556054Y-59403900D01*
X28463224Y-59179788D01*
X28345873Y-58976530D01*
X78534500Y-58976530D01*
X78534500Y-59183469D01*
X78574868Y-59386412D01*
X78574870Y-59386420D01*
X78654058Y-59577596D01*
X78769024Y-59749657D01*
X78915342Y-59895975D01*
X78915345Y-59895977D01*
X79087402Y-60010941D01*
X79278580Y-60090130D01*
X79435223Y-60121288D01*
X79481530Y-60130499D01*
X79481534Y-60130500D01*
X79481535Y-60130500D01*
X79688466Y-60130500D01*
X79688467Y-60130499D01*
X79891420Y-60090130D01*
X80082598Y-60010941D01*
X80254655Y-59895977D01*
X80400977Y-59749655D01*
X80515941Y-59577598D01*
X80595130Y-59386420D01*
X80635500Y-59183465D01*
X80635500Y-58976535D01*
X80635499Y-58976530D01*
X81034500Y-58976530D01*
X81034500Y-59183469D01*
X81074868Y-59386412D01*
X81074870Y-59386420D01*
X81154058Y-59577596D01*
X81269024Y-59749657D01*
X81415342Y-59895975D01*
X81415345Y-59895977D01*
X81587402Y-60010941D01*
X81778580Y-60090130D01*
X81935223Y-60121288D01*
X81981530Y-60130499D01*
X81981534Y-60130500D01*
X81981535Y-60130500D01*
X82188466Y-60130500D01*
X82188467Y-60130499D01*
X82391420Y-60090130D01*
X82582598Y-60010941D01*
X82754655Y-59895977D01*
X82900977Y-59749655D01*
X83015941Y-59577598D01*
X83095130Y-59386420D01*
X83135500Y-59183465D01*
X83135500Y-58976535D01*
X83095130Y-58773580D01*
X83015941Y-58582402D01*
X82900977Y-58410345D01*
X82900975Y-58410342D01*
X82754657Y-58264024D01*
X82625181Y-58177512D01*
X82582598Y-58149059D01*
X82391420Y-58069870D01*
X82391412Y-58069868D01*
X82188469Y-58029500D01*
X82188465Y-58029500D01*
X81981535Y-58029500D01*
X81981530Y-58029500D01*
X81778587Y-58069868D01*
X81778579Y-58069870D01*
X81587403Y-58149058D01*
X81415342Y-58264024D01*
X81269024Y-58410342D01*
X81154058Y-58582403D01*
X81074870Y-58773579D01*
X81074868Y-58773587D01*
X81034500Y-58976530D01*
X80635499Y-58976530D01*
X80595130Y-58773580D01*
X80515941Y-58582402D01*
X80400977Y-58410345D01*
X80400975Y-58410342D01*
X80254657Y-58264024D01*
X80125181Y-58177512D01*
X80082598Y-58149059D01*
X79891420Y-58069870D01*
X79891412Y-58069868D01*
X79688469Y-58029500D01*
X79688465Y-58029500D01*
X79481535Y-58029500D01*
X79481530Y-58029500D01*
X79278587Y-58069868D01*
X79278579Y-58069870D01*
X79087403Y-58149058D01*
X78915342Y-58264024D01*
X78769024Y-58410342D01*
X78654058Y-58582403D01*
X78574870Y-58773579D01*
X78574868Y-58773587D01*
X78534500Y-58976530D01*
X28345873Y-58976530D01*
X28341936Y-58969711D01*
X28194265Y-58777262D01*
X28194260Y-58777256D01*
X28022743Y-58605739D01*
X28022736Y-58605733D01*
X27830293Y-58458067D01*
X27830292Y-58458066D01*
X27830289Y-58458064D01*
X27620212Y-58336776D01*
X27602487Y-58329434D01*
X27396104Y-58243947D01*
X27278944Y-58212554D01*
X27161789Y-58181162D01*
X27161788Y-58181161D01*
X27161785Y-58181161D01*
X26921289Y-58149500D01*
X26921288Y-58149500D01*
X26678712Y-58149500D01*
X26678711Y-58149500D01*
X26438214Y-58181161D01*
X26203895Y-58243947D01*
X25979794Y-58336773D01*
X25979785Y-58336777D01*
X25769706Y-58458067D01*
X25577263Y-58605733D01*
X25577256Y-58605739D01*
X25405739Y-58777256D01*
X25405733Y-58777263D01*
X25258067Y-58969706D01*
X25136777Y-59179785D01*
X25136773Y-59179794D01*
X25043947Y-59403895D01*
X24981161Y-59638214D01*
X24949500Y-59878711D01*
X23700500Y-59878711D01*
X23700500Y-57081902D01*
X36099500Y-57081902D01*
X36099500Y-57318097D01*
X36136446Y-57551368D01*
X36209433Y-57775996D01*
X36236407Y-57828934D01*
X36316657Y-57986433D01*
X36455483Y-58177510D01*
X36622490Y-58344517D01*
X36813567Y-58483343D01*
X36912991Y-58534002D01*
X37024003Y-58590566D01*
X37024005Y-58590566D01*
X37024008Y-58590568D01*
X37144412Y-58629689D01*
X37248631Y-58663553D01*
X37481903Y-58700500D01*
X37481908Y-58700500D01*
X37718097Y-58700500D01*
X37951368Y-58663553D01*
X38175992Y-58590568D01*
X38386433Y-58483343D01*
X38577510Y-58344517D01*
X38744517Y-58177510D01*
X38883343Y-57986433D01*
X38990568Y-57775992D01*
X39063553Y-57551368D01*
X39100500Y-57318097D01*
X39100500Y-57134108D01*
X54324500Y-57134108D01*
X54324500Y-57265891D01*
X54358608Y-57393187D01*
X54391554Y-57450250D01*
X54424500Y-57507314D01*
X54424502Y-57507316D01*
X54429505Y-57512319D01*
X54462990Y-57573642D01*
X54458006Y-57643334D01*
X54429505Y-57687681D01*
X54424502Y-57692683D01*
X54424500Y-57692686D01*
X54358608Y-57806812D01*
X54352681Y-57828934D01*
X54324500Y-57934108D01*
X54324500Y-58065892D01*
X54330427Y-58088011D01*
X54358608Y-58193187D01*
X54387914Y-58243946D01*
X54424500Y-58307314D01*
X54517686Y-58400500D01*
X54631814Y-58466392D01*
X54759108Y-58500500D01*
X54759110Y-58500500D01*
X54890890Y-58500500D01*
X54890892Y-58500500D01*
X55018186Y-58466392D01*
X55132314Y-58400500D01*
X55225500Y-58307314D01*
X55291392Y-58193186D01*
X55325500Y-58065892D01*
X55325500Y-57934108D01*
X55291392Y-57806814D01*
X55225500Y-57692686D01*
X55220495Y-57687681D01*
X55187010Y-57626358D01*
X55191994Y-57556666D01*
X55220495Y-57512319D01*
X55225500Y-57507314D01*
X55291392Y-57393186D01*
X55325500Y-57265892D01*
X55325500Y-57134108D01*
X58274500Y-57134108D01*
X58274500Y-57265891D01*
X58308608Y-57393187D01*
X58341554Y-57450250D01*
X58374500Y-57507314D01*
X58374502Y-57507316D01*
X58444738Y-57577552D01*
X58478223Y-57638875D01*
X58473239Y-57708567D01*
X58464444Y-57727233D01*
X58405729Y-57828930D01*
X58405729Y-57828931D01*
X58371620Y-57956228D01*
X58371620Y-58088011D01*
X58405728Y-58215307D01*
X58422263Y-58243946D01*
X58471620Y-58329434D01*
X58564806Y-58422620D01*
X58678934Y-58488512D01*
X58806228Y-58522620D01*
X58806230Y-58522620D01*
X58938010Y-58522620D01*
X58938012Y-58522620D01*
X59065306Y-58488512D01*
X59179434Y-58422620D01*
X59272620Y-58329434D01*
X59338512Y-58215306D01*
X59372620Y-58088012D01*
X59372620Y-57956228D01*
X59338512Y-57828934D01*
X59272620Y-57714806D01*
X59202381Y-57644567D01*
X59168896Y-57583244D01*
X59173880Y-57513552D01*
X59182670Y-57494893D01*
X59241392Y-57393186D01*
X59275500Y-57265892D01*
X59275500Y-57134108D01*
X59241392Y-57006814D01*
X59175500Y-56892686D01*
X59082314Y-56799500D01*
X59025250Y-56766554D01*
X58968187Y-56733608D01*
X58904539Y-56716554D01*
X58840892Y-56699500D01*
X58709108Y-56699500D01*
X58581812Y-56733608D01*
X58467686Y-56799500D01*
X58467683Y-56799502D01*
X58374502Y-56892683D01*
X58374500Y-56892686D01*
X58308608Y-57006812D01*
X58274500Y-57134108D01*
X55325500Y-57134108D01*
X55291392Y-57006814D01*
X55225500Y-56892686D01*
X55132314Y-56799500D01*
X55075250Y-56766554D01*
X55018187Y-56733608D01*
X54954539Y-56716554D01*
X54890892Y-56699500D01*
X54759108Y-56699500D01*
X54631812Y-56733608D01*
X54517686Y-56799500D01*
X54517683Y-56799502D01*
X54424502Y-56892683D01*
X54424500Y-56892686D01*
X54358608Y-57006812D01*
X54324500Y-57134108D01*
X39100500Y-57134108D01*
X39100500Y-57081902D01*
X39063553Y-56848631D01*
X38990566Y-56624003D01*
X38883342Y-56413566D01*
X38744517Y-56222490D01*
X38577510Y-56055483D01*
X38386433Y-55916657D01*
X38175996Y-55809433D01*
X37951368Y-55736446D01*
X37718097Y-55699500D01*
X37718092Y-55699500D01*
X37481908Y-55699500D01*
X37481903Y-55699500D01*
X37248631Y-55736446D01*
X37024003Y-55809433D01*
X36813566Y-55916657D01*
X36704550Y-55995862D01*
X36622490Y-56055483D01*
X36622488Y-56055485D01*
X36622487Y-56055485D01*
X36455485Y-56222487D01*
X36455485Y-56222488D01*
X36455483Y-56222490D01*
X36395862Y-56304550D01*
X36316657Y-56413566D01*
X36209433Y-56624003D01*
X36136446Y-56848631D01*
X36099500Y-57081902D01*
X23700500Y-57081902D01*
X23700500Y-54734108D01*
X58274500Y-54734108D01*
X58274500Y-54865892D01*
X58281731Y-54892880D01*
X58308608Y-54993187D01*
X58324800Y-55021231D01*
X58374500Y-55107314D01*
X58467686Y-55200500D01*
X58566521Y-55257563D01*
X58580944Y-55265890D01*
X58581814Y-55266392D01*
X58709108Y-55300500D01*
X58709110Y-55300500D01*
X58840890Y-55300500D01*
X58840892Y-55300500D01*
X58968186Y-55266392D01*
X59082314Y-55200500D01*
X59148706Y-55134108D01*
X72699500Y-55134108D01*
X72699500Y-55265891D01*
X72733608Y-55393187D01*
X72766554Y-55450250D01*
X72799500Y-55507314D01*
X72892686Y-55600500D01*
X73006814Y-55666392D01*
X73134108Y-55700500D01*
X73134110Y-55700500D01*
X73265890Y-55700500D01*
X73265892Y-55700500D01*
X73393186Y-55666392D01*
X73505150Y-55601749D01*
X73573047Y-55585277D01*
X73599242Y-55589362D01*
X73606810Y-55591389D01*
X73606814Y-55591392D01*
X73734108Y-55625500D01*
X73734111Y-55625500D01*
X73865889Y-55625500D01*
X73865892Y-55625500D01*
X73993186Y-55591392D01*
X73993190Y-55591389D01*
X74000757Y-55589362D01*
X74070607Y-55591025D01*
X74094847Y-55601748D01*
X74206814Y-55666392D01*
X74334108Y-55700500D01*
X74334110Y-55700500D01*
X74465890Y-55700500D01*
X74465892Y-55700500D01*
X74593186Y-55666392D01*
X74707314Y-55600500D01*
X74800500Y-55507314D01*
X74866392Y-55393186D01*
X74900500Y-55265892D01*
X74900500Y-55134108D01*
X74866392Y-55006814D01*
X74800500Y-54892686D01*
X74707314Y-54799500D01*
X74620984Y-54749657D01*
X74593187Y-54733608D01*
X74529539Y-54716554D01*
X74465892Y-54699500D01*
X74334108Y-54699500D01*
X74199241Y-54735637D01*
X74129391Y-54733974D01*
X74105148Y-54723249D01*
X73993189Y-54658609D01*
X73993186Y-54658608D01*
X73865892Y-54624500D01*
X73734108Y-54624500D01*
X73606814Y-54658608D01*
X73606813Y-54658608D01*
X73606811Y-54658609D01*
X73606810Y-54658609D01*
X73494851Y-54723249D01*
X73426951Y-54739722D01*
X73400758Y-54735637D01*
X73354525Y-54723249D01*
X73265892Y-54699500D01*
X73134108Y-54699500D01*
X73006812Y-54733608D01*
X72892686Y-54799500D01*
X72892683Y-54799502D01*
X72799502Y-54892683D01*
X72799500Y-54892686D01*
X72733608Y-55006812D01*
X72699500Y-55134108D01*
X59148706Y-55134108D01*
X59175500Y-55107314D01*
X59189658Y-55082792D01*
X59200520Y-55063980D01*
X59241390Y-54993189D01*
X59241392Y-54993186D01*
X59275500Y-54865892D01*
X59275500Y-54734108D01*
X59241392Y-54606814D01*
X59175500Y-54492686D01*
X59082314Y-54399500D01*
X59025250Y-54366554D01*
X58968187Y-54333608D01*
X58904539Y-54316554D01*
X58840892Y-54299500D01*
X58709108Y-54299500D01*
X58581812Y-54333608D01*
X58467686Y-54399500D01*
X58467683Y-54399502D01*
X58374502Y-54492683D01*
X58374500Y-54492686D01*
X58308608Y-54606812D01*
X58292644Y-54666392D01*
X58274500Y-54734108D01*
X23700500Y-54734108D01*
X23700500Y-54134108D01*
X65499500Y-54134108D01*
X65499500Y-54265891D01*
X65533608Y-54393187D01*
X65566554Y-54450250D01*
X65599500Y-54507314D01*
X65692686Y-54600500D01*
X65806814Y-54666392D01*
X65934108Y-54700500D01*
X65934110Y-54700500D01*
X66065890Y-54700500D01*
X66065892Y-54700500D01*
X66193186Y-54666392D01*
X66307314Y-54600500D01*
X66400500Y-54507314D01*
X66466392Y-54393186D01*
X66500500Y-54265892D01*
X66500500Y-54134108D01*
X66466392Y-54006814D01*
X66400500Y-53892686D01*
X66307314Y-53799500D01*
X66250250Y-53766554D01*
X66193187Y-53733608D01*
X66129539Y-53716554D01*
X66065892Y-53699500D01*
X65934108Y-53699500D01*
X65806812Y-53733608D01*
X65692686Y-53799500D01*
X65692683Y-53799502D01*
X65599502Y-53892683D01*
X65599500Y-53892686D01*
X65533608Y-54006812D01*
X65499500Y-54134108D01*
X23700500Y-54134108D01*
X23700500Y-53334108D01*
X52899500Y-53334108D01*
X52899500Y-53465891D01*
X52933608Y-53593187D01*
X52966554Y-53650250D01*
X52999500Y-53707314D01*
X53092686Y-53800500D01*
X53206814Y-53866392D01*
X53334108Y-53900500D01*
X53334110Y-53900500D01*
X53465890Y-53900500D01*
X53465892Y-53900500D01*
X53593186Y-53866392D01*
X53707314Y-53800500D01*
X53800500Y-53707314D01*
X53866392Y-53593186D01*
X53900500Y-53465892D01*
X53900500Y-53425730D01*
X78534500Y-53425730D01*
X78534500Y-54734269D01*
X78537353Y-54764699D01*
X78537353Y-54764701D01*
X78582137Y-54892683D01*
X78582207Y-54892882D01*
X78662850Y-55002150D01*
X78772118Y-55082793D01*
X78793089Y-55090131D01*
X78900299Y-55127646D01*
X78930730Y-55130500D01*
X78930734Y-55130500D01*
X80239270Y-55130500D01*
X80269699Y-55127646D01*
X80269701Y-55127646D01*
X80349070Y-55099873D01*
X80397882Y-55082793D01*
X80507150Y-55002150D01*
X80587793Y-54892882D01*
X80621368Y-54796930D01*
X80632646Y-54764701D01*
X80632646Y-54764699D01*
X80635500Y-54734269D01*
X80635500Y-53976530D01*
X81034500Y-53976530D01*
X81034500Y-54183469D01*
X81064365Y-54333608D01*
X81074870Y-54386420D01*
X81154059Y-54577598D01*
X81185398Y-54624500D01*
X81269024Y-54749657D01*
X81415342Y-54895975D01*
X81415345Y-54895977D01*
X81587402Y-55010941D01*
X81778580Y-55090130D01*
X81967187Y-55127646D01*
X81981530Y-55130499D01*
X81981534Y-55130500D01*
X81981535Y-55130500D01*
X82188466Y-55130500D01*
X82188467Y-55130499D01*
X82391420Y-55090130D01*
X82582598Y-55010941D01*
X82754655Y-54895977D01*
X82900977Y-54749655D01*
X83015941Y-54577598D01*
X83095130Y-54386420D01*
X83135500Y-54183465D01*
X83135500Y-53993389D01*
X88164500Y-53993389D01*
X88164500Y-54166611D01*
X88167170Y-54183466D01*
X88190949Y-54333608D01*
X88191598Y-54337701D01*
X88245127Y-54502445D01*
X88323768Y-54656788D01*
X88425586Y-54796928D01*
X88548072Y-54919414D01*
X88688212Y-55021232D01*
X88842555Y-55099873D01*
X89007299Y-55153402D01*
X89178389Y-55180500D01*
X89178390Y-55180500D01*
X89351610Y-55180500D01*
X89351611Y-55180500D01*
X89522701Y-55153402D01*
X89687445Y-55099873D01*
X89841788Y-55021232D01*
X89981928Y-54919414D01*
X90104414Y-54796928D01*
X90206232Y-54656788D01*
X90284873Y-54502445D01*
X90338402Y-54337701D01*
X90365500Y-54166611D01*
X90365500Y-53993389D01*
X90338402Y-53822299D01*
X90284873Y-53657555D01*
X90206232Y-53503212D01*
X90104414Y-53363072D01*
X89981928Y-53240586D01*
X89841788Y-53138768D01*
X89687445Y-53060127D01*
X89522701Y-53006598D01*
X89522699Y-53006597D01*
X89522698Y-53006597D01*
X89391271Y-52985781D01*
X89351611Y-52979500D01*
X89178389Y-52979500D01*
X89138728Y-52985781D01*
X89007302Y-53006597D01*
X88842552Y-53060128D01*
X88688211Y-53138768D01*
X88608256Y-53196859D01*
X88548072Y-53240586D01*
X88548070Y-53240588D01*
X88548069Y-53240588D01*
X88425588Y-53363069D01*
X88425588Y-53363070D01*
X88425586Y-53363072D01*
X88402171Y-53395300D01*
X88323768Y-53503211D01*
X88245128Y-53657552D01*
X88191597Y-53822302D01*
X88179212Y-53900499D01*
X88164500Y-53993389D01*
X83135500Y-53993389D01*
X83135500Y-53976535D01*
X83095130Y-53773580D01*
X83015941Y-53582402D01*
X82900977Y-53410345D01*
X82900975Y-53410342D01*
X82754657Y-53264024D01*
X82668626Y-53206541D01*
X82582598Y-53149059D01*
X82557753Y-53138768D01*
X82391420Y-53069870D01*
X82391412Y-53069868D01*
X82188469Y-53029500D01*
X82188465Y-53029500D01*
X81981535Y-53029500D01*
X81981530Y-53029500D01*
X81778587Y-53069868D01*
X81778579Y-53069870D01*
X81587403Y-53149058D01*
X81415342Y-53264024D01*
X81269024Y-53410342D01*
X81154058Y-53582403D01*
X81074870Y-53773579D01*
X81074868Y-53773587D01*
X81034500Y-53976530D01*
X80635500Y-53976530D01*
X80635500Y-53425730D01*
X80632646Y-53395300D01*
X80632646Y-53395298D01*
X80587793Y-53267119D01*
X80587792Y-53267117D01*
X80507150Y-53157850D01*
X80397882Y-53077207D01*
X80397880Y-53077206D01*
X80269700Y-53032353D01*
X80239270Y-53029500D01*
X80239266Y-53029500D01*
X78930734Y-53029500D01*
X78930730Y-53029500D01*
X78900300Y-53032353D01*
X78900298Y-53032353D01*
X78772119Y-53077206D01*
X78772117Y-53077207D01*
X78662850Y-53157850D01*
X78582207Y-53267117D01*
X78582206Y-53267119D01*
X78537353Y-53395298D01*
X78537353Y-53395300D01*
X78534500Y-53425730D01*
X53900500Y-53425730D01*
X53900500Y-53334108D01*
X53866392Y-53206814D01*
X53800500Y-53092686D01*
X53707314Y-52999500D01*
X53650250Y-52966554D01*
X53593187Y-52933608D01*
X53529539Y-52916554D01*
X53465892Y-52899500D01*
X53334108Y-52899500D01*
X53206812Y-52933608D01*
X53092686Y-52999500D01*
X53092683Y-52999502D01*
X52999502Y-53092683D01*
X52999500Y-53092686D01*
X52933608Y-53206812D01*
X52899500Y-53334108D01*
X23700500Y-53334108D01*
X23700500Y-50996608D01*
X28749500Y-50996608D01*
X28749500Y-51128391D01*
X28783608Y-51255687D01*
X28804968Y-51292683D01*
X28849500Y-51369814D01*
X28942686Y-51463000D01*
X29056814Y-51528892D01*
X29184108Y-51563000D01*
X29184110Y-51563000D01*
X29315890Y-51563000D01*
X29315892Y-51563000D01*
X29443186Y-51528892D01*
X29557314Y-51463000D01*
X29650500Y-51369814D01*
X29716392Y-51255686D01*
X29750500Y-51128392D01*
X29750500Y-50996608D01*
X30649500Y-50996608D01*
X30649500Y-51128391D01*
X30683608Y-51255687D01*
X30704968Y-51292683D01*
X30749500Y-51369814D01*
X30842686Y-51463000D01*
X30956814Y-51528892D01*
X31084108Y-51563000D01*
X31084110Y-51563000D01*
X31215890Y-51563000D01*
X31215892Y-51563000D01*
X31343186Y-51528892D01*
X31457314Y-51463000D01*
X31550500Y-51369814D01*
X31616392Y-51255686D01*
X31650500Y-51128392D01*
X31650500Y-50996608D01*
X38749500Y-50996608D01*
X38749500Y-51128391D01*
X38783608Y-51255687D01*
X38804968Y-51292683D01*
X38849500Y-51369814D01*
X38942686Y-51463000D01*
X39056814Y-51528892D01*
X39184108Y-51563000D01*
X39184110Y-51563000D01*
X39315890Y-51563000D01*
X39315892Y-51563000D01*
X39443186Y-51528892D01*
X39557314Y-51463000D01*
X39650500Y-51369814D01*
X39716392Y-51255686D01*
X39750500Y-51128392D01*
X39750500Y-50996608D01*
X40649500Y-50996608D01*
X40649500Y-51128391D01*
X40683608Y-51255687D01*
X40704968Y-51292683D01*
X40749500Y-51369814D01*
X40842686Y-51463000D01*
X40956814Y-51528892D01*
X41084108Y-51563000D01*
X41084110Y-51563000D01*
X41215890Y-51563000D01*
X41215892Y-51563000D01*
X41323719Y-51534108D01*
X50899500Y-51534108D01*
X50899500Y-51665891D01*
X50933608Y-51793187D01*
X50966554Y-51850250D01*
X50999500Y-51907314D01*
X51092686Y-52000500D01*
X51206814Y-52066392D01*
X51334108Y-52100500D01*
X51334110Y-52100500D01*
X51465890Y-52100500D01*
X51465892Y-52100500D01*
X51593186Y-52066392D01*
X51707314Y-52000500D01*
X51800500Y-51907314D01*
X51866392Y-51793186D01*
X51900500Y-51665892D01*
X51900500Y-51534108D01*
X51866392Y-51406814D01*
X51800500Y-51292686D01*
X51707314Y-51199500D01*
X51650250Y-51166554D01*
X51593187Y-51133608D01*
X51529539Y-51116554D01*
X51465892Y-51099500D01*
X51334108Y-51099500D01*
X51206812Y-51133608D01*
X51092686Y-51199500D01*
X51092683Y-51199502D01*
X50999502Y-51292683D01*
X50999500Y-51292686D01*
X50933608Y-51406812D01*
X50899500Y-51534108D01*
X41323719Y-51534108D01*
X41343186Y-51528892D01*
X41457314Y-51463000D01*
X41550500Y-51369814D01*
X41616392Y-51255686D01*
X41650500Y-51128392D01*
X41650500Y-50996608D01*
X41616392Y-50869314D01*
X41550500Y-50755186D01*
X41457314Y-50662000D01*
X41400250Y-50629054D01*
X41343187Y-50596108D01*
X41279539Y-50579054D01*
X41215892Y-50562000D01*
X41084108Y-50562000D01*
X40956812Y-50596108D01*
X40842686Y-50662000D01*
X40842683Y-50662002D01*
X40749502Y-50755183D01*
X40749500Y-50755186D01*
X40683608Y-50869312D01*
X40649500Y-50996608D01*
X39750500Y-50996608D01*
X39716392Y-50869314D01*
X39650500Y-50755186D01*
X39557314Y-50662000D01*
X39500250Y-50629054D01*
X39443187Y-50596108D01*
X39379539Y-50579054D01*
X39315892Y-50562000D01*
X39184108Y-50562000D01*
X39056812Y-50596108D01*
X38942686Y-50662000D01*
X38942683Y-50662002D01*
X38849502Y-50755183D01*
X38849500Y-50755186D01*
X38783608Y-50869312D01*
X38749500Y-50996608D01*
X31650500Y-50996608D01*
X31616392Y-50869314D01*
X31550500Y-50755186D01*
X31457314Y-50662000D01*
X31400250Y-50629054D01*
X31343187Y-50596108D01*
X31279539Y-50579054D01*
X31215892Y-50562000D01*
X31084108Y-50562000D01*
X30956812Y-50596108D01*
X30842686Y-50662000D01*
X30842683Y-50662002D01*
X30749502Y-50755183D01*
X30749500Y-50755186D01*
X30683608Y-50869312D01*
X30649500Y-50996608D01*
X29750500Y-50996608D01*
X29716392Y-50869314D01*
X29650500Y-50755186D01*
X29557314Y-50662000D01*
X29500250Y-50629054D01*
X29443187Y-50596108D01*
X29379539Y-50579054D01*
X29315892Y-50562000D01*
X29184108Y-50562000D01*
X29056812Y-50596108D01*
X28942686Y-50662000D01*
X28942683Y-50662002D01*
X28849502Y-50755183D01*
X28849500Y-50755186D01*
X28783608Y-50869312D01*
X28749500Y-50996608D01*
X23700500Y-50996608D01*
X23700500Y-47713389D01*
X24229500Y-47713389D01*
X24229500Y-47886610D01*
X24254230Y-48042754D01*
X24256598Y-48057701D01*
X24310127Y-48222445D01*
X24388768Y-48376788D01*
X24490586Y-48516928D01*
X24613072Y-48639414D01*
X24753212Y-48741232D01*
X24907555Y-48819873D01*
X25072299Y-48873402D01*
X25243389Y-48900500D01*
X25243390Y-48900500D01*
X25416610Y-48900500D01*
X25416611Y-48900500D01*
X25587701Y-48873402D01*
X25752445Y-48819873D01*
X25906788Y-48741232D01*
X26046928Y-48639414D01*
X26169414Y-48516928D01*
X26271232Y-48376788D01*
X26349873Y-48222445D01*
X26403402Y-48057701D01*
X26430500Y-47886611D01*
X26430500Y-47713389D01*
X26403402Y-47542299D01*
X26349873Y-47377555D01*
X26271232Y-47223212D01*
X26169414Y-47083072D01*
X26046928Y-46960586D01*
X25936351Y-46880247D01*
X26769500Y-46880247D01*
X26769500Y-48719752D01*
X26781131Y-48778229D01*
X26781132Y-48778230D01*
X26825447Y-48844552D01*
X26891769Y-48888867D01*
X26891770Y-48888868D01*
X26950247Y-48900499D01*
X26950250Y-48900500D01*
X26950252Y-48900500D01*
X28789750Y-48900500D01*
X28789751Y-48900499D01*
X28804568Y-48897552D01*
X28848229Y-48888868D01*
X28848229Y-48888867D01*
X28848231Y-48888867D01*
X28914552Y-48844552D01*
X28958867Y-48778231D01*
X28958867Y-48778229D01*
X28958868Y-48778229D01*
X28970499Y-48719752D01*
X28970500Y-48719750D01*
X28970500Y-47713389D01*
X29229500Y-47713389D01*
X29229500Y-47886610D01*
X29254230Y-48042754D01*
X29256598Y-48057701D01*
X29310127Y-48222445D01*
X29388768Y-48376788D01*
X29490586Y-48516928D01*
X29613072Y-48639414D01*
X29753212Y-48741232D01*
X29907555Y-48819873D01*
X30072299Y-48873402D01*
X30243389Y-48900500D01*
X30243390Y-48900500D01*
X30416610Y-48900500D01*
X30416611Y-48900500D01*
X30587701Y-48873402D01*
X30752445Y-48819873D01*
X30906788Y-48741232D01*
X31046928Y-48639414D01*
X31169414Y-48516928D01*
X31271232Y-48376788D01*
X31349873Y-48222445D01*
X31403402Y-48057701D01*
X31430500Y-47886611D01*
X31430500Y-47713389D01*
X31403402Y-47542299D01*
X31349873Y-47377555D01*
X31271232Y-47223212D01*
X31169414Y-47083072D01*
X31046928Y-46960586D01*
X30936351Y-46880247D01*
X31769500Y-46880247D01*
X31769500Y-48719752D01*
X31781131Y-48778229D01*
X31781132Y-48778230D01*
X31825447Y-48844552D01*
X31891769Y-48888867D01*
X31891770Y-48888868D01*
X31950247Y-48900499D01*
X31950250Y-48900500D01*
X31950252Y-48900500D01*
X33789750Y-48900500D01*
X33789751Y-48900499D01*
X33804568Y-48897552D01*
X33848229Y-48888868D01*
X33848229Y-48888867D01*
X33848231Y-48888867D01*
X33914552Y-48844552D01*
X33958867Y-48778231D01*
X33958867Y-48778229D01*
X33958868Y-48778229D01*
X33970499Y-48719752D01*
X33970500Y-48719750D01*
X33970500Y-47713389D01*
X34229500Y-47713389D01*
X34229500Y-47886610D01*
X34254230Y-48042754D01*
X34256598Y-48057701D01*
X34310127Y-48222445D01*
X34388768Y-48376788D01*
X34490586Y-48516928D01*
X34613072Y-48639414D01*
X34753212Y-48741232D01*
X34907555Y-48819873D01*
X35072299Y-48873402D01*
X35243389Y-48900500D01*
X35243390Y-48900500D01*
X35416610Y-48900500D01*
X35416611Y-48900500D01*
X35587701Y-48873402D01*
X35752445Y-48819873D01*
X35906788Y-48741232D01*
X36046928Y-48639414D01*
X36169414Y-48516928D01*
X36271232Y-48376788D01*
X36349873Y-48222445D01*
X36403402Y-48057701D01*
X36430500Y-47886611D01*
X36430500Y-47713389D01*
X36403402Y-47542299D01*
X36349873Y-47377555D01*
X36271232Y-47223212D01*
X36169414Y-47083072D01*
X36046928Y-46960586D01*
X35936351Y-46880247D01*
X36769500Y-46880247D01*
X36769500Y-48719752D01*
X36781131Y-48778229D01*
X36781132Y-48778230D01*
X36825447Y-48844552D01*
X36891769Y-48888867D01*
X36891770Y-48888868D01*
X36950247Y-48900499D01*
X36950250Y-48900500D01*
X36950252Y-48900500D01*
X38789750Y-48900500D01*
X38789751Y-48900499D01*
X38804568Y-48897552D01*
X38848229Y-48888868D01*
X38848229Y-48888867D01*
X38848231Y-48888867D01*
X38914552Y-48844552D01*
X38958867Y-48778231D01*
X38958867Y-48778229D01*
X38958868Y-48778229D01*
X38970499Y-48719752D01*
X38970500Y-48719750D01*
X38970500Y-47713389D01*
X39229500Y-47713389D01*
X39229500Y-47886610D01*
X39254230Y-48042754D01*
X39256598Y-48057701D01*
X39310127Y-48222445D01*
X39388768Y-48376788D01*
X39490586Y-48516928D01*
X39613072Y-48639414D01*
X39753212Y-48741232D01*
X39907555Y-48819873D01*
X40072299Y-48873402D01*
X40243389Y-48900500D01*
X40243390Y-48900500D01*
X40416610Y-48900500D01*
X40416611Y-48900500D01*
X40587701Y-48873402D01*
X40752445Y-48819873D01*
X40906788Y-48741232D01*
X41046928Y-48639414D01*
X41169414Y-48516928D01*
X41271232Y-48376788D01*
X41349873Y-48222445D01*
X41403402Y-48057701D01*
X41430500Y-47886611D01*
X41430500Y-47713389D01*
X41403402Y-47542299D01*
X41349873Y-47377555D01*
X41271232Y-47223212D01*
X41169414Y-47083072D01*
X41046928Y-46960586D01*
X40936351Y-46880247D01*
X41769500Y-46880247D01*
X41769500Y-48719752D01*
X41781131Y-48778229D01*
X41781132Y-48778230D01*
X41825447Y-48844552D01*
X41891769Y-48888867D01*
X41891770Y-48888868D01*
X41950247Y-48900499D01*
X41950250Y-48900500D01*
X41950252Y-48900500D01*
X43789750Y-48900500D01*
X43789751Y-48900499D01*
X43804568Y-48897552D01*
X43848229Y-48888868D01*
X43848229Y-48888867D01*
X43848231Y-48888867D01*
X43914552Y-48844552D01*
X43958867Y-48778231D01*
X43958867Y-48778229D01*
X43958868Y-48778229D01*
X43970499Y-48719752D01*
X43970500Y-48719750D01*
X43970500Y-48249560D01*
X45859500Y-48249560D01*
X45859500Y-48910439D01*
X45900636Y-49117245D01*
X45900638Y-49117253D01*
X45981333Y-49312069D01*
X45981338Y-49312078D01*
X46098487Y-49487403D01*
X46098490Y-49487407D01*
X46247592Y-49636509D01*
X46247596Y-49636512D01*
X46422921Y-49753661D01*
X46422927Y-49753664D01*
X46422928Y-49753665D01*
X46617747Y-49834362D01*
X46807713Y-49872148D01*
X46824560Y-49875499D01*
X46824564Y-49875500D01*
X46824565Y-49875500D01*
X47035436Y-49875500D01*
X47035437Y-49875499D01*
X47242253Y-49834362D01*
X47437072Y-49753665D01*
X47612404Y-49636512D01*
X47761512Y-49487404D01*
X47878665Y-49312072D01*
X47959362Y-49117253D01*
X48000500Y-48910435D01*
X48000500Y-48249565D01*
X47959362Y-48042747D01*
X47878665Y-47847928D01*
X47878664Y-47847927D01*
X47878661Y-47847921D01*
X47811087Y-47746789D01*
X47766989Y-47680793D01*
X48400000Y-47680793D01*
X48400000Y-48330000D01*
X48927291Y-48330000D01*
X48915548Y-48350339D01*
X48875000Y-48501667D01*
X48875000Y-48658333D01*
X48915548Y-48809661D01*
X48927291Y-48830000D01*
X48400001Y-48830000D01*
X48400001Y-49479196D01*
X48402851Y-49509606D01*
X48447653Y-49637645D01*
X48528207Y-49746792D01*
X48637354Y-49827346D01*
X48765397Y-49872149D01*
X48795792Y-49874999D01*
X49219999Y-49874999D01*
X49220000Y-49874998D01*
X49220000Y-49122709D01*
X49240339Y-49134452D01*
X49391667Y-49175000D01*
X49548333Y-49175000D01*
X49699661Y-49134452D01*
X49720000Y-49122709D01*
X49720000Y-49874999D01*
X50144196Y-49874999D01*
X50174606Y-49872148D01*
X50302645Y-49827346D01*
X50411792Y-49746792D01*
X50492346Y-49637645D01*
X50537149Y-49509604D01*
X50537149Y-49509600D01*
X50540000Y-49479206D01*
X50540000Y-48830000D01*
X50012709Y-48830000D01*
X50024452Y-48809661D01*
X50065000Y-48658333D01*
X50065000Y-48501667D01*
X50024452Y-48350339D01*
X50012709Y-48330000D01*
X50539999Y-48330000D01*
X50539999Y-47680803D01*
X50537148Y-47650393D01*
X50492346Y-47522354D01*
X50411792Y-47413207D01*
X50359241Y-47374423D01*
X50359239Y-47374421D01*
X50302648Y-47332655D01*
X50302645Y-47332653D01*
X50174602Y-47287850D01*
X50144207Y-47285000D01*
X49720000Y-47285000D01*
X49720000Y-48037290D01*
X49699661Y-48025548D01*
X49548333Y-47985000D01*
X49391667Y-47985000D01*
X49240339Y-48025548D01*
X49220000Y-48037290D01*
X49220000Y-47285000D01*
X48795803Y-47285000D01*
X48765393Y-47287851D01*
X48637354Y-47332653D01*
X48528207Y-47413207D01*
X48447653Y-47522354D01*
X48402850Y-47650395D01*
X48402850Y-47650399D01*
X48400000Y-47680793D01*
X47766989Y-47680793D01*
X47761512Y-47672596D01*
X47761509Y-47672592D01*
X47612407Y-47523490D01*
X47612403Y-47523487D01*
X47437078Y-47406338D01*
X47437069Y-47406333D01*
X47242253Y-47325638D01*
X47242245Y-47325636D01*
X47035439Y-47284500D01*
X47035435Y-47284500D01*
X46824565Y-47284500D01*
X46824560Y-47284500D01*
X46617754Y-47325636D01*
X46617746Y-47325638D01*
X46422930Y-47406333D01*
X46422921Y-47406338D01*
X46247596Y-47523487D01*
X46247592Y-47523490D01*
X46098490Y-47672592D01*
X46098487Y-47672596D01*
X45981338Y-47847921D01*
X45981333Y-47847930D01*
X45900638Y-48042746D01*
X45900636Y-48042754D01*
X45859500Y-48249560D01*
X43970500Y-48249560D01*
X43970500Y-47278711D01*
X87749500Y-47278711D01*
X87749500Y-47521288D01*
X87781161Y-47761785D01*
X87843947Y-47996104D01*
X87934477Y-48214662D01*
X87936776Y-48220212D01*
X88058064Y-48430289D01*
X88058066Y-48430292D01*
X88058067Y-48430293D01*
X88205733Y-48622736D01*
X88205739Y-48622743D01*
X88377256Y-48794260D01*
X88377263Y-48794266D01*
X88410632Y-48819871D01*
X88569711Y-48941936D01*
X88779788Y-49063224D01*
X89003900Y-49156054D01*
X89238211Y-49218838D01*
X89418586Y-49242584D01*
X89478711Y-49250500D01*
X89478712Y-49250500D01*
X89721289Y-49250500D01*
X89769388Y-49244167D01*
X89961789Y-49218838D01*
X90196100Y-49156054D01*
X90420212Y-49063224D01*
X90630289Y-48941936D01*
X90822738Y-48794265D01*
X90994265Y-48622738D01*
X91141936Y-48430289D01*
X91263224Y-48220212D01*
X91356054Y-47996100D01*
X91418838Y-47761789D01*
X91450500Y-47521288D01*
X91450500Y-47278712D01*
X91418838Y-47038211D01*
X91356054Y-46803900D01*
X91263224Y-46579788D01*
X91141936Y-46369711D01*
X90994265Y-46177262D01*
X90994260Y-46177256D01*
X90822743Y-46005739D01*
X90822736Y-46005733D01*
X90630293Y-45858067D01*
X90630292Y-45858066D01*
X90630289Y-45858064D01*
X90420212Y-45736776D01*
X90420205Y-45736773D01*
X90196104Y-45643947D01*
X89961785Y-45581161D01*
X89721289Y-45549500D01*
X89721288Y-45549500D01*
X89478712Y-45549500D01*
X89478711Y-45549500D01*
X89238214Y-45581161D01*
X89003895Y-45643947D01*
X88779794Y-45736773D01*
X88779785Y-45736777D01*
X88569706Y-45858067D01*
X88377263Y-46005733D01*
X88377256Y-46005739D01*
X88205739Y-46177256D01*
X88205733Y-46177263D01*
X88058067Y-46369706D01*
X87936777Y-46579785D01*
X87936773Y-46579794D01*
X87843947Y-46803895D01*
X87781161Y-47038214D01*
X87749500Y-47278711D01*
X43970500Y-47278711D01*
X43970500Y-46880249D01*
X43970499Y-46880247D01*
X43958868Y-46821770D01*
X43958867Y-46821769D01*
X43914552Y-46755447D01*
X43848230Y-46711132D01*
X43848229Y-46711131D01*
X43789752Y-46699500D01*
X43789748Y-46699500D01*
X41950252Y-46699500D01*
X41950247Y-46699500D01*
X41891770Y-46711131D01*
X41891769Y-46711132D01*
X41825447Y-46755447D01*
X41781132Y-46821769D01*
X41781131Y-46821770D01*
X41769500Y-46880247D01*
X40936351Y-46880247D01*
X40906788Y-46858768D01*
X40752445Y-46780127D01*
X40587701Y-46726598D01*
X40587699Y-46726597D01*
X40587698Y-46726597D01*
X40456271Y-46705781D01*
X40416611Y-46699500D01*
X40243389Y-46699500D01*
X40203728Y-46705781D01*
X40072302Y-46726597D01*
X39907552Y-46780128D01*
X39753211Y-46858768D01*
X39673256Y-46916859D01*
X39613072Y-46960586D01*
X39613070Y-46960588D01*
X39613069Y-46960588D01*
X39490588Y-47083069D01*
X39490588Y-47083070D01*
X39490586Y-47083072D01*
X39446859Y-47143256D01*
X39388768Y-47223211D01*
X39310128Y-47377552D01*
X39256597Y-47542302D01*
X39229500Y-47713389D01*
X38970500Y-47713389D01*
X38970500Y-46880249D01*
X38970499Y-46880247D01*
X38958868Y-46821770D01*
X38958867Y-46821769D01*
X38914552Y-46755447D01*
X38848230Y-46711132D01*
X38848229Y-46711131D01*
X38789752Y-46699500D01*
X38789748Y-46699500D01*
X36950252Y-46699500D01*
X36950247Y-46699500D01*
X36891770Y-46711131D01*
X36891769Y-46711132D01*
X36825447Y-46755447D01*
X36781132Y-46821769D01*
X36781131Y-46821770D01*
X36769500Y-46880247D01*
X35936351Y-46880247D01*
X35906788Y-46858768D01*
X35752445Y-46780127D01*
X35587701Y-46726598D01*
X35587699Y-46726597D01*
X35587698Y-46726597D01*
X35456271Y-46705781D01*
X35416611Y-46699500D01*
X35243389Y-46699500D01*
X35203728Y-46705781D01*
X35072302Y-46726597D01*
X34907552Y-46780128D01*
X34753211Y-46858768D01*
X34673256Y-46916859D01*
X34613072Y-46960586D01*
X34613070Y-46960588D01*
X34613069Y-46960588D01*
X34490588Y-47083069D01*
X34490588Y-47083070D01*
X34490586Y-47083072D01*
X34446859Y-47143256D01*
X34388768Y-47223211D01*
X34310128Y-47377552D01*
X34256597Y-47542302D01*
X34229500Y-47713389D01*
X33970500Y-47713389D01*
X33970500Y-46880249D01*
X33970499Y-46880247D01*
X33958868Y-46821770D01*
X33958867Y-46821769D01*
X33914552Y-46755447D01*
X33848230Y-46711132D01*
X33848229Y-46711131D01*
X33789752Y-46699500D01*
X33789748Y-46699500D01*
X31950252Y-46699500D01*
X31950247Y-46699500D01*
X31891770Y-46711131D01*
X31891769Y-46711132D01*
X31825447Y-46755447D01*
X31781132Y-46821769D01*
X31781131Y-46821770D01*
X31769500Y-46880247D01*
X30936351Y-46880247D01*
X30906788Y-46858768D01*
X30752445Y-46780127D01*
X30587701Y-46726598D01*
X30587699Y-46726597D01*
X30587698Y-46726597D01*
X30456271Y-46705781D01*
X30416611Y-46699500D01*
X30243389Y-46699500D01*
X30203728Y-46705781D01*
X30072302Y-46726597D01*
X29907552Y-46780128D01*
X29753211Y-46858768D01*
X29673256Y-46916859D01*
X29613072Y-46960586D01*
X29613070Y-46960588D01*
X29613069Y-46960588D01*
X29490588Y-47083069D01*
X29490588Y-47083070D01*
X29490586Y-47083072D01*
X29446859Y-47143256D01*
X29388768Y-47223211D01*
X29310128Y-47377552D01*
X29256597Y-47542302D01*
X29229500Y-47713389D01*
X28970500Y-47713389D01*
X28970500Y-46880249D01*
X28970499Y-46880247D01*
X28958868Y-46821770D01*
X28958867Y-46821769D01*
X28914552Y-46755447D01*
X28848230Y-46711132D01*
X28848229Y-46711131D01*
X28789752Y-46699500D01*
X28789748Y-46699500D01*
X26950252Y-46699500D01*
X26950247Y-46699500D01*
X26891770Y-46711131D01*
X26891769Y-46711132D01*
X26825447Y-46755447D01*
X26781132Y-46821769D01*
X26781131Y-46821770D01*
X26769500Y-46880247D01*
X25936351Y-46880247D01*
X25906788Y-46858768D01*
X25752445Y-46780127D01*
X25587701Y-46726598D01*
X25587699Y-46726597D01*
X25587698Y-46726597D01*
X25456271Y-46705781D01*
X25416611Y-46699500D01*
X25243389Y-46699500D01*
X25203728Y-46705781D01*
X25072302Y-46726597D01*
X24907552Y-46780128D01*
X24753211Y-46858768D01*
X24673256Y-46916859D01*
X24613072Y-46960586D01*
X24613070Y-46960588D01*
X24613069Y-46960588D01*
X24490588Y-47083069D01*
X24490588Y-47083070D01*
X24490586Y-47083072D01*
X24446859Y-47143256D01*
X24388768Y-47223211D01*
X24310128Y-47377552D01*
X24256597Y-47542302D01*
X24229500Y-47713389D01*
X23700500Y-47713389D01*
X23700500Y-44806961D01*
X23701280Y-44793077D01*
X23701280Y-44793076D01*
X23711460Y-44702729D01*
X23717635Y-44675670D01*
X23745353Y-44596456D01*
X23757396Y-44571450D01*
X23802046Y-44500389D01*
X23819351Y-44478690D01*
X23878690Y-44419351D01*
X23900389Y-44402046D01*
X23971450Y-44357396D01*
X23996456Y-44345353D01*
X24075670Y-44317635D01*
X24102733Y-44311459D01*
X24165419Y-44304396D01*
X24193079Y-44301280D01*
X24206962Y-44300500D01*
X24265892Y-44300500D01*
X92134108Y-44300500D01*
X92193038Y-44300500D01*
X92206922Y-44301280D01*
G37*
%TD.AperFunction*%
%TD*%
M02*
