%TF.GenerationSoftware,KiCad,Pcbnew,9.0.0-unknown-202503152022~372b704844~ubuntu22.04.1*%
%TF.CreationDate,2025-03-16T20:45:56+01:00*%
%TF.ProjectId,PowkiBoard,506f776b-6942-46f6-9172-642e6b696361,rev?*%
%TF.SameCoordinates,Original*%
%TF.FileFunction,Copper,L2,Inr*%
%TF.FilePolarity,Positive*%
%FSLAX46Y46*%
G04 Gerber Fmt 4.6, Leading zero omitted, Abs format (unit mm)*
G04 Created by KiCad (PCBNEW 9.0.0-unknown-202503152022~372b704844~ubuntu22.04.1) date 2025-03-16 20:45:56*
%MOMM*%
%LPD*%
G01*
G04 APERTURE LIST*
G04 Aperture macros list*
%AMRoundRect*
0 Rectangle with rounded corners*
0 $1 Rounding radius*
0 $2 $3 $4 $5 $6 $7 $8 $9 X,Y pos of 4 corners*
0 Add a 4 corners polygon primitive as box body*
4,1,4,$2,$3,$4,$5,$6,$7,$8,$9,$2,$3,0*
0 Add four circle primitives for the rounded corners*
1,1,$1+$1,$2,$3*
1,1,$1+$1,$4,$5*
1,1,$1+$1,$6,$7*
1,1,$1+$1,$8,$9*
0 Add four rect primitives between the rounded corners*
20,1,$1+$1,$2,$3,$4,$5,0*
20,1,$1+$1,$4,$5,$6,$7,0*
20,1,$1+$1,$6,$7,$8,$9,0*
20,1,$1+$1,$8,$9,$2,$3,0*%
%AMFreePoly0*
4,1,22,0.695671,0.830970,0.776777,0.776777,0.830970,0.695671,0.850000,0.600000,0.850000,-0.600000,0.830970,-0.695671,0.776777,-0.776777,0.695671,-0.830970,0.600000,-0.850000,-0.200000,-0.850000,-0.295671,-0.830970,-0.376777,-0.776777,-0.776777,-0.376777,-0.830970,-0.295671,-0.850000,-0.200000,-0.850000,0.600000,-0.830970,0.695671,-0.776777,0.776777,-0.695671,0.830970,-0.600000,0.850000,
0.600000,0.850000,0.695671,0.830970,0.695671,0.830970,$1*%
G04 Aperture macros list end*
%TA.AperFunction,ComponentPad*%
%ADD10R,1.800000X1.800000*%
%TD*%
%TA.AperFunction,ComponentPad*%
%ADD11C,1.800000*%
%TD*%
%TA.AperFunction,ComponentPad*%
%ADD12RoundRect,0.250000X-0.600000X-0.600000X0.600000X-0.600000X0.600000X0.600000X-0.600000X0.600000X0*%
%TD*%
%TA.AperFunction,ComponentPad*%
%ADD13C,1.700000*%
%TD*%
%TA.AperFunction,ComponentPad*%
%ADD14R,12.000000X6.000000*%
%TD*%
%TA.AperFunction,ComponentPad*%
%ADD15C,2.600000*%
%TD*%
%TA.AperFunction,ComponentPad*%
%ADD16RoundRect,0.250000X0.620000X0.845000X-0.620000X0.845000X-0.620000X-0.845000X0.620000X-0.845000X0*%
%TD*%
%TA.AperFunction,ComponentPad*%
%ADD17O,1.740000X2.190000*%
%TD*%
%TA.AperFunction,ComponentPad*%
%ADD18FreePoly0,0.000000*%
%TD*%
%TA.AperFunction,ViaPad*%
%ADD19C,0.600000*%
%TD*%
%TA.AperFunction,Conductor*%
%ADD20C,2.000000*%
%TD*%
G04 APERTURE END LIST*
D10*
%TO.N,Net-(D7-K)*%
%TO.C,D7*%
X183830000Y-50500000D03*
D11*
%TO.N,Net-(D7-A)*%
X186370000Y-50500000D03*
%TD*%
D12*
%TO.N,VIN*%
%TO.C,J7*%
X221585000Y-104650000D03*
D13*
%TO.N,GNDA*%
X221585000Y-107150000D03*
%TO.N,9V*%
X221585000Y-109650000D03*
%TO.N,5V*%
X221585000Y-112150000D03*
%TO.N,VIN*%
X224085000Y-104650000D03*
%TO.N,GNDA*%
X224085000Y-107150000D03*
%TO.N,12V*%
X224085000Y-109650000D03*
%TO.N,LG5V*%
X224085000Y-112150000D03*
%TD*%
D14*
%TO.N,VBATT*%
%TO.C,J2*%
X169500000Y-96500000D03*
%TD*%
D12*
%TO.N,VIN*%
%TO.C,J6*%
X221585000Y-89550000D03*
D13*
%TO.N,GNDA*%
X221585000Y-92050000D03*
%TO.N,9V*%
X221585000Y-94550000D03*
%TO.N,5V*%
X221585000Y-97050000D03*
%TO.N,VIN*%
X224085000Y-89550000D03*
%TO.N,GNDA*%
X224085000Y-92050000D03*
%TO.N,12V*%
X224085000Y-94550000D03*
%TO.N,LG5V*%
X224085000Y-97050000D03*
%TD*%
D10*
%TO.N,Net-(D5-K)*%
%TO.C,D5*%
X172230000Y-50500000D03*
D11*
%TO.N,Net-(D5-A)*%
X174770000Y-50500000D03*
%TD*%
D14*
%TO.N,GNDA*%
%TO.C,J3*%
X169500000Y-87500000D03*
%TD*%
D10*
%TO.N,Net-(D8-K)*%
%TO.C,D8*%
X189630000Y-50500000D03*
D11*
%TO.N,Net-(D8-A)*%
X192170000Y-50500000D03*
%TD*%
D12*
%TO.N,VIN*%
%TO.C,J4*%
X221585000Y-59350000D03*
D13*
%TO.N,GNDA*%
X221585000Y-61850000D03*
%TO.N,9V*%
X221585000Y-64350000D03*
%TO.N,5V*%
X221585000Y-66850000D03*
%TO.N,VIN*%
X224085000Y-59350000D03*
%TO.N,GNDA*%
X224085000Y-61850000D03*
%TO.N,12V*%
X224085000Y-64350000D03*
%TO.N,LG5V*%
X224085000Y-66850000D03*
%TD*%
D15*
%TO.N,Net-(J8-Pin_3)*%
%TO.C,U6*%
X180000000Y-84750000D03*
X180000000Y-80150000D03*
%TO.N,Net-(U4-VIN)*%
X180000000Y-68850000D03*
X180000000Y-64250000D03*
%TD*%
D10*
%TO.N,Net-(D6-K)*%
%TO.C,D6*%
X178030000Y-50500000D03*
D11*
%TO.N,Net-(D6-A)*%
X180570000Y-50500000D03*
%TD*%
D16*
%TO.N,GNDA*%
%TO.C,J9*%
X199770000Y-51480000D03*
D17*
%TO.N,EN12V*%
X197230000Y-51480000D03*
%TD*%
D15*
%TO.N,Net-(J1-Pin_3)*%
%TO.C,U5*%
X179500000Y-118750000D03*
X179500000Y-114150000D03*
%TO.N,VIN*%
X179500000Y-102850000D03*
X179500000Y-98250000D03*
%TD*%
D18*
%TO.N,VBATT*%
%TO.C,J8*%
X171000000Y-78000000D03*
D13*
X171000000Y-80500000D03*
%TO.N,Net-(J8-Pin_3)*%
X173500000Y-78000000D03*
X173500000Y-80500000D03*
%TD*%
D12*
%TO.N,VIN*%
%TO.C,J5*%
X221585000Y-74450000D03*
D13*
%TO.N,GNDA*%
X221585000Y-76950000D03*
%TO.N,9V*%
X221585000Y-79450000D03*
%TO.N,5V*%
X221585000Y-81950000D03*
%TO.N,VIN*%
X224085000Y-74450000D03*
%TO.N,GNDA*%
X224085000Y-76950000D03*
%TO.N,12V*%
X224085000Y-79450000D03*
%TO.N,LG5V*%
X224085000Y-81950000D03*
%TD*%
D18*
%TO.N,VBATT*%
%TO.C,J1*%
X170500000Y-103000000D03*
D13*
X170500000Y-105500000D03*
%TO.N,Net-(J1-Pin_3)*%
X173000000Y-103000000D03*
X173000000Y-105500000D03*
%TD*%
D19*
%TO.N,GNDA*%
X192000000Y-65100000D03*
X192000000Y-64400000D03*
X192000000Y-63700000D03*
X192000000Y-63000000D03*
X192000000Y-62300000D03*
X192000000Y-61600000D03*
%TO.N,VIN*%
X182100000Y-98200000D03*
X183200000Y-102700000D03*
X182500000Y-99100000D03*
X182800000Y-98200000D03*
X182100000Y-100000000D03*
X183900000Y-102700000D03*
X182500000Y-97300000D03*
X182500000Y-102700000D03*
X182500000Y-100900000D03*
X182100000Y-103600000D03*
X183200000Y-99100000D03*
X184200000Y-100000000D03*
X183500000Y-98200000D03*
X181800000Y-102700000D03*
X183900000Y-97300000D03*
X182100000Y-101800000D03*
X181800000Y-99100000D03*
X183900000Y-99100000D03*
X183500000Y-100000000D03*
X182800000Y-103600000D03*
X181800000Y-100900000D03*
X182800000Y-100000000D03*
X183200000Y-100900000D03*
X183900000Y-100900000D03*
X183500000Y-103600000D03*
X183500000Y-101800000D03*
X182800000Y-101800000D03*
X183200000Y-97300000D03*
X184200000Y-98200000D03*
X184200000Y-101800000D03*
%TO.N,GNDA*%
X193300000Y-123900000D03*
X227700000Y-117800000D03*
X194500000Y-77300000D03*
X208900000Y-104500000D03*
X194500000Y-95200000D03*
X195700000Y-113400000D03*
X225900000Y-85100000D03*
X185100000Y-84800000D03*
X185100000Y-105100000D03*
X219800000Y-108100000D03*
X228700000Y-101900000D03*
X194500000Y-115500000D03*
X208800000Y-70500000D03*
X192500000Y-71700000D03*
X195700000Y-53800000D03*
X225900000Y-117100000D03*
X197795269Y-119900000D03*
X219800000Y-86900000D03*
X190800000Y-87000000D03*
X197300000Y-82700000D03*
X228700000Y-88000000D03*
X194500000Y-96600000D03*
X197795269Y-99900000D03*
X214800000Y-62400000D03*
X212400000Y-104500000D03*
X217000000Y-103800000D03*
X219800000Y-76000000D03*
X216600000Y-61200000D03*
X217000000Y-76000000D03*
X188900000Y-87000000D03*
X217000000Y-103200000D03*
X214800000Y-63600000D03*
X225900000Y-73000000D03*
X226900000Y-60900000D03*
X198295269Y-100800000D03*
X208400000Y-55500000D03*
X185100000Y-96000000D03*
X192900000Y-94500000D03*
X228700000Y-69300000D03*
X214800000Y-61800000D03*
X225900000Y-69400000D03*
X195700000Y-71700000D03*
X216600000Y-64800000D03*
X190800000Y-123900000D03*
X198300000Y-121400000D03*
X227700000Y-116600000D03*
X217000000Y-71100000D03*
X180900000Y-107200000D03*
X222900000Y-123900000D03*
X193300000Y-110600000D03*
X195700000Y-115500000D03*
X228700000Y-83800000D03*
X225900000Y-68200000D03*
X228700000Y-106900000D03*
X225900000Y-107500000D03*
X185100000Y-85500000D03*
X180900000Y-77600000D03*
X219800000Y-91200000D03*
X185100000Y-113500000D03*
X225900000Y-76600000D03*
X215300000Y-87000000D03*
X207100000Y-87000000D03*
X185100000Y-81600000D03*
X195700000Y-106400000D03*
X216600000Y-60000000D03*
X195700000Y-60800000D03*
X219800000Y-83900000D03*
X194500000Y-54500000D03*
X193300000Y-116900000D03*
X207000000Y-70500000D03*
X185100000Y-105800000D03*
X219800000Y-68200000D03*
X180900000Y-86400000D03*
X214800000Y-59400000D03*
X219800000Y-71800000D03*
X215900000Y-104500000D03*
X225900000Y-100200000D03*
X195700000Y-114800000D03*
X194500000Y-72400000D03*
X195700000Y-78700000D03*
X192000000Y-87000000D03*
X195700000Y-77300000D03*
X197300000Y-120800000D03*
X185100000Y-106500000D03*
X219800000Y-77800000D03*
X194500000Y-109900000D03*
X194500000Y-93100000D03*
X194500000Y-63600000D03*
X180900000Y-112100000D03*
X228700000Y-87400000D03*
X217000000Y-85700000D03*
X194500000Y-105700000D03*
X197304731Y-84500000D03*
X180900000Y-88500000D03*
X210600000Y-87000000D03*
X217000000Y-108900000D03*
X197800000Y-120500000D03*
X197800000Y-121100000D03*
X194500000Y-112000000D03*
X228700000Y-108100000D03*
X185100000Y-72900000D03*
X219800000Y-83300000D03*
X185100000Y-112800000D03*
X194500000Y-71700000D03*
X195700000Y-116200000D03*
X216600000Y-61800000D03*
X217000000Y-110100000D03*
X228700000Y-107500000D03*
X180900000Y-74100000D03*
X197300000Y-67400000D03*
X192500000Y-75900000D03*
X219800000Y-72400000D03*
X207200000Y-52700000D03*
X197800000Y-67700000D03*
X225900000Y-118300000D03*
X217000000Y-69900000D03*
X225900000Y-92400000D03*
X195700000Y-75900000D03*
X219800000Y-106300000D03*
X228700000Y-62100000D03*
X185800000Y-70500000D03*
X224600000Y-123900000D03*
X192700000Y-102900000D03*
X228700000Y-69900000D03*
X219800000Y-77200000D03*
X192500000Y-72400000D03*
X180900000Y-76200000D03*
X219800000Y-101900000D03*
X180900000Y-110000000D03*
X228700000Y-101300000D03*
X225900000Y-68800000D03*
X214800000Y-61200000D03*
X225900000Y-91200000D03*
X189500000Y-104500000D03*
X217000000Y-77200000D03*
X195700000Y-95900000D03*
X180900000Y-74800000D03*
X207200000Y-53400000D03*
X207600000Y-70500000D03*
X185100000Y-93900000D03*
X217000000Y-84500000D03*
X192500000Y-76600000D03*
X188900000Y-70500000D03*
X192900000Y-88200000D03*
X195700000Y-114100000D03*
X219800000Y-92400000D03*
X185100000Y-79500000D03*
X185100000Y-116300000D03*
X192700000Y-86000000D03*
X208400000Y-53400000D03*
X197295269Y-66200000D03*
X219800000Y-84500000D03*
X185100000Y-71500000D03*
X193300000Y-113400000D03*
X214700000Y-104500000D03*
X221700000Y-123900000D03*
X194500000Y-113400000D03*
X219800000Y-86300000D03*
X225900000Y-106300000D03*
X219800000Y-106900000D03*
X221100000Y-123900000D03*
X228700000Y-103100000D03*
X225900000Y-99600000D03*
X212400000Y-87000000D03*
X195700000Y-61500000D03*
X225900000Y-113500000D03*
X180900000Y-89200000D03*
X194700000Y-103950000D03*
X198300000Y-67400000D03*
X210600000Y-123900000D03*
X225900000Y-102000000D03*
X194500000Y-106400000D03*
X211700000Y-70500000D03*
X216600000Y-63600000D03*
X217000000Y-69300000D03*
X207700000Y-87000000D03*
X225900000Y-91800000D03*
X195700000Y-112000000D03*
X194500000Y-111300000D03*
X208400000Y-54800000D03*
X195700000Y-88200000D03*
X185100000Y-93200000D03*
X207100000Y-123900000D03*
X208300000Y-104500000D03*
X195700000Y-78000000D03*
X227700000Y-115400000D03*
X180900000Y-93400000D03*
X189500000Y-123900000D03*
X185800000Y-87000000D03*
X225900000Y-77800000D03*
X185100000Y-104400000D03*
X191400000Y-104500000D03*
X225900000Y-83900000D03*
X226900000Y-62700000D03*
X197295269Y-119600000D03*
X225900000Y-117700000D03*
X185800000Y-104500000D03*
X192900000Y-88900000D03*
X185100000Y-68700000D03*
X212400000Y-123900000D03*
X194700000Y-86450000D03*
X191400000Y-87000000D03*
X188300000Y-70500000D03*
X194500000Y-88200000D03*
X193300000Y-112700000D03*
X216600000Y-63000000D03*
X217000000Y-99000000D03*
X197800000Y-82400000D03*
X194500000Y-61500000D03*
X198300000Y-102000000D03*
X195700000Y-59400000D03*
X208400000Y-56200000D03*
X192500000Y-78000000D03*
X180900000Y-87100000D03*
X214700000Y-123900000D03*
X192000000Y-70500000D03*
X228700000Y-91800000D03*
X194500000Y-93800000D03*
X185100000Y-112100000D03*
X197800000Y-83000000D03*
X225900000Y-87500000D03*
X228700000Y-98900000D03*
X215300000Y-123900000D03*
X208300000Y-123900000D03*
X194500000Y-78000000D03*
X208200000Y-70500000D03*
X180900000Y-95500000D03*
X219800000Y-103100000D03*
X214800000Y-64200000D03*
X197295269Y-100200000D03*
X197300000Y-102000000D03*
X194500000Y-116200000D03*
X225900000Y-71200000D03*
X228700000Y-71100000D03*
X180900000Y-87800000D03*
X192900000Y-98700000D03*
X195700000Y-79400000D03*
X195700000Y-76600000D03*
X225900000Y-70600000D03*
X194500000Y-60800000D03*
X192500000Y-78700000D03*
X219800000Y-70000000D03*
X197804731Y-83600000D03*
X216600000Y-59400000D03*
X217000000Y-71700000D03*
X198300000Y-68000000D03*
X208400000Y-51300000D03*
X226900000Y-61500000D03*
X217000000Y-108300000D03*
X193300000Y-111300000D03*
X217000000Y-92300000D03*
X225900000Y-114100000D03*
X227700000Y-114800000D03*
X228700000Y-86800000D03*
X198295269Y-66200000D03*
X194500000Y-55200000D03*
X195700000Y-105700000D03*
X192900000Y-95200000D03*
X225900000Y-85700000D03*
X198295269Y-119600000D03*
X185100000Y-80200000D03*
X188900000Y-123900000D03*
X194500000Y-97300000D03*
X197800000Y-67100000D03*
X193300000Y-109900000D03*
X225900000Y-88100000D03*
X186400000Y-123900000D03*
X185100000Y-92500000D03*
X228700000Y-93000000D03*
X207200000Y-54800000D03*
X192500000Y-79400000D03*
X193300000Y-115500000D03*
X215300000Y-104500000D03*
X225900000Y-115300000D03*
X217000000Y-76600000D03*
X228700000Y-84400000D03*
X210500000Y-70500000D03*
X194500000Y-114800000D03*
X225900000Y-114700000D03*
X189500000Y-87000000D03*
X195700000Y-112700000D03*
X219400000Y-123900000D03*
X207700000Y-104500000D03*
X194500000Y-114100000D03*
X194500000Y-112700000D03*
X219800000Y-93000000D03*
X216600000Y-60600000D03*
X180900000Y-90600000D03*
X192900000Y-95900000D03*
X207700000Y-123900000D03*
X219800000Y-102500000D03*
X219800000Y-85700000D03*
X195700000Y-55200000D03*
X180900000Y-105800000D03*
X198300000Y-82700000D03*
X228700000Y-61500000D03*
X208400000Y-52700000D03*
X195700000Y-94500000D03*
X219800000Y-107500000D03*
X228700000Y-71700000D03*
X197300000Y-101400000D03*
X227700000Y-114200000D03*
X195700000Y-110600000D03*
X228700000Y-106300000D03*
X225900000Y-86900000D03*
X193300000Y-117600000D03*
X214100000Y-104500000D03*
X185100000Y-110000000D03*
X219800000Y-91800000D03*
X217000000Y-94700000D03*
X194500000Y-78700000D03*
X215200000Y-70500000D03*
X192900000Y-97300000D03*
X225800000Y-123900000D03*
X225900000Y-84500000D03*
X225900000Y-115900000D03*
X195700000Y-72400000D03*
X191400000Y-123900000D03*
X180900000Y-75500000D03*
X194500000Y-76600000D03*
X194500000Y-88900000D03*
X228700000Y-100700000D03*
X192700000Y-85400000D03*
X192700000Y-86600000D03*
X219800000Y-68800000D03*
X192700000Y-103500000D03*
X225900000Y-101400000D03*
X193300000Y-114800000D03*
X227700000Y-113600000D03*
X195700000Y-62900000D03*
X228700000Y-60900000D03*
X185100000Y-80900000D03*
X194500000Y-53800000D03*
X225900000Y-83300000D03*
X217000000Y-110700000D03*
X193300000Y-114100000D03*
X211200000Y-123900000D03*
X193300000Y-105700000D03*
X193900000Y-123900000D03*
X198300000Y-83300000D03*
X185100000Y-78100000D03*
X227700000Y-116000000D03*
X228700000Y-100100000D03*
X192400000Y-69800000D03*
X214100000Y-123900000D03*
X185100000Y-114200000D03*
X219800000Y-69400000D03*
X228700000Y-86200000D03*
X217000000Y-92900000D03*
X191400000Y-70500000D03*
X197300000Y-121400000D03*
X217600000Y-123900000D03*
X214800000Y-60000000D03*
X192500000Y-80100000D03*
X198295269Y-100200000D03*
X194500000Y-62200000D03*
X228700000Y-98300000D03*
X180900000Y-89900000D03*
X185100000Y-78800000D03*
X225900000Y-102600000D03*
X214800000Y-60600000D03*
X198295269Y-66800000D03*
X228700000Y-68700000D03*
X214700000Y-87000000D03*
X228700000Y-83200000D03*
X185100000Y-88300000D03*
X187000000Y-104500000D03*
X212300000Y-70500000D03*
X207200000Y-51300000D03*
X211200000Y-87000000D03*
X217000000Y-93500000D03*
X225900000Y-71800000D03*
X197795269Y-119300000D03*
X185100000Y-86200000D03*
X217000000Y-102600000D03*
X228700000Y-72300000D03*
X219800000Y-87500000D03*
X225200000Y-123900000D03*
X187000000Y-123900000D03*
X194500000Y-75900000D03*
X217000000Y-98400000D03*
X197800000Y-101100000D03*
X214100000Y-87000000D03*
X185100000Y-118400000D03*
X214600000Y-70500000D03*
X188300000Y-87000000D03*
X228700000Y-72900000D03*
X197304731Y-83900000D03*
X192900000Y-96600000D03*
X185100000Y-72200000D03*
X195700000Y-116900000D03*
X198304731Y-83900000D03*
X197300000Y-83300000D03*
X185100000Y-94600000D03*
X217000000Y-95300000D03*
X216600000Y-62400000D03*
X180900000Y-92700000D03*
X197295269Y-66800000D03*
X180900000Y-78300000D03*
X185100000Y-111400000D03*
X180900000Y-94100000D03*
X211800000Y-87000000D03*
X219800000Y-70600000D03*
X185100000Y-110700000D03*
X226400000Y-123900000D03*
X217000000Y-109500000D03*
X185100000Y-87600000D03*
X228700000Y-70500000D03*
X185100000Y-115600000D03*
X194500000Y-79400000D03*
X180900000Y-105100000D03*
X192000000Y-104500000D03*
X185100000Y-86900000D03*
X192000000Y-123900000D03*
X217000000Y-77800000D03*
X211200000Y-104500000D03*
X228700000Y-99500000D03*
X222300000Y-123900000D03*
X185100000Y-77400000D03*
X185100000Y-70100000D03*
X190800000Y-104500000D03*
X214000000Y-70500000D03*
X185100000Y-117000000D03*
X195700000Y-88900000D03*
X211800000Y-104500000D03*
X197295269Y-120200000D03*
X228700000Y-85000000D03*
X194700000Y-69950000D03*
X225900000Y-77200000D03*
X185100000Y-117700000D03*
X180900000Y-107900000D03*
X228700000Y-62700000D03*
X211100000Y-70500000D03*
X194500000Y-62900000D03*
X225900000Y-103200000D03*
X227700000Y-117200000D03*
X207200000Y-54100000D03*
X225900000Y-106900000D03*
X194500000Y-59400000D03*
X192900000Y-93800000D03*
X219800000Y-85100000D03*
X192700000Y-104100000D03*
X208900000Y-87000000D03*
X180900000Y-109300000D03*
X195700000Y-62200000D03*
X197804731Y-84200000D03*
X180900000Y-76900000D03*
X217000000Y-94100000D03*
X216600000Y-64200000D03*
X228700000Y-102500000D03*
X193300000Y-116200000D03*
X180900000Y-110700000D03*
X195700000Y-54500000D03*
X195700000Y-111300000D03*
X225900000Y-100800000D03*
X197800000Y-101700000D03*
X198300000Y-120800000D03*
X207200000Y-56200000D03*
X197795269Y-65900000D03*
X227700000Y-118400000D03*
X192400000Y-69200000D03*
X217000000Y-102000000D03*
X188300000Y-104500000D03*
X197795269Y-100500000D03*
X188300000Y-123900000D03*
X214800000Y-64800000D03*
X194500000Y-116900000D03*
X192900000Y-92400000D03*
X197795269Y-66500000D03*
X208400000Y-52000000D03*
X228700000Y-85600000D03*
X180900000Y-94800000D03*
X225900000Y-86300000D03*
X180900000Y-72700000D03*
X193300000Y-106400000D03*
X225900000Y-108100000D03*
X195700000Y-109900000D03*
X180900000Y-111400000D03*
X188900000Y-104500000D03*
X185100000Y-70800000D03*
X198304731Y-84500000D03*
X197300000Y-68000000D03*
X186400000Y-70500000D03*
X180900000Y-108600000D03*
X208900000Y-123900000D03*
X195700000Y-60100000D03*
X194500000Y-55900000D03*
X225900000Y-99000000D03*
X215900000Y-123900000D03*
X180900000Y-72000000D03*
X218200000Y-123900000D03*
X180900000Y-106500000D03*
X185100000Y-69400000D03*
X187000000Y-87000000D03*
X180900000Y-91300000D03*
X198295269Y-120200000D03*
X217000000Y-70500000D03*
X225900000Y-116500000D03*
X207100000Y-104500000D03*
X214800000Y-63000000D03*
X219800000Y-71200000D03*
X207200000Y-52000000D03*
X193300000Y-112000000D03*
X185800000Y-123900000D03*
X194500000Y-60100000D03*
X228700000Y-91200000D03*
X228700000Y-68100000D03*
X194500000Y-94500000D03*
X226900000Y-62100000D03*
X186400000Y-87000000D03*
X192400000Y-68600000D03*
X195700000Y-93100000D03*
X194500000Y-110600000D03*
X207200000Y-55500000D03*
X194500000Y-123900000D03*
X225900000Y-72400000D03*
X208400000Y-54100000D03*
X189500000Y-70500000D03*
X219800000Y-98400000D03*
X218800000Y-123900000D03*
X195700000Y-95200000D03*
X215800000Y-70500000D03*
X192900000Y-98000000D03*
X180900000Y-73400000D03*
X186400000Y-104500000D03*
X225900000Y-98400000D03*
X225900000Y-70000000D03*
X195700000Y-55900000D03*
X208300000Y-87000000D03*
X194500000Y-80100000D03*
X195700000Y-97300000D03*
X187000000Y-70500000D03*
X219800000Y-99000000D03*
X190800000Y-70500000D03*
X185100000Y-96700000D03*
X180900000Y-92000000D03*
X192500000Y-77300000D03*
X217000000Y-85100000D03*
X210600000Y-104500000D03*
X197295269Y-100800000D03*
X180900000Y-71300000D03*
X211800000Y-123900000D03*
X185100000Y-95300000D03*
X228700000Y-92400000D03*
X215900000Y-87000000D03*
X195700000Y-96600000D03*
X192500000Y-80800000D03*
X225900000Y-76000000D03*
X198300000Y-101400000D03*
X225900000Y-93000000D03*
X195700000Y-92400000D03*
X194500000Y-92400000D03*
X194500000Y-95900000D03*
X185100000Y-114900000D03*
X192900000Y-93100000D03*
X185100000Y-89000000D03*
X219800000Y-76600000D03*
X195700000Y-93800000D03*
%TO.N,9V*%
X218900000Y-101200000D03*
X218900000Y-109000000D03*
X218900000Y-63700000D03*
X218900000Y-79400000D03*
X218900000Y-94500000D03*
X218900000Y-100600000D03*
X218900000Y-64900000D03*
X218900000Y-78800000D03*
X218900000Y-100000000D03*
X218900000Y-80000000D03*
X218900000Y-109600000D03*
X218900000Y-95100000D03*
X218900000Y-99400000D03*
X218900000Y-93900000D03*
X218900000Y-110200000D03*
X208300000Y-98400000D03*
X218900000Y-64300000D03*
X218900000Y-101800000D03*
%TO.N,5V*%
X217900000Y-66800000D03*
X217900000Y-82500000D03*
X217900000Y-111500000D03*
X217900000Y-96400000D03*
X217900000Y-97600000D03*
X217300000Y-82800000D03*
X217900000Y-81900000D03*
X217900000Y-67400000D03*
X217900000Y-112100000D03*
X217900000Y-97000000D03*
X208300000Y-80900000D03*
X217900000Y-83700000D03*
X217300000Y-83400000D03*
X217900000Y-66200000D03*
X217900000Y-83100000D03*
X217900000Y-112700000D03*
X217900000Y-81300000D03*
%TO.N,12V*%
X222900000Y-119900000D03*
X226500000Y-119900000D03*
X226800000Y-95100000D03*
X224700000Y-119900000D03*
X225300000Y-119900000D03*
X226800000Y-94500000D03*
X226800000Y-79400000D03*
X221100000Y-119900000D03*
X221700000Y-119900000D03*
X226800000Y-78800000D03*
X223500000Y-119900000D03*
X226800000Y-109600000D03*
X222300000Y-119900000D03*
X226800000Y-93900000D03*
X226800000Y-64300000D03*
X226800000Y-64900000D03*
X226800000Y-109000000D03*
X226800000Y-63700000D03*
X226800000Y-110200000D03*
X225900000Y-119900000D03*
X224100000Y-119900000D03*
X226800000Y-80000000D03*
X208900000Y-117800000D03*
%TO.N,Net-(U1-SS{slash}TR)*%
X194804731Y-102400000D03*
%TO.N,Net-(U2-SS{slash}TR)*%
X194804731Y-84900000D03*
%TO.N,Net-(U3-SS{slash}TR)*%
X194804731Y-121800000D03*
%TO.N,Net-(U1-COMP)*%
X200304731Y-101650000D03*
%TO.N,Net-(U2-COMP)*%
X200304731Y-84150000D03*
%TO.N,Net-(U3-COMP)*%
X200304731Y-121050000D03*
%TO.N,Net-(U4-COMP)*%
X200304731Y-67650000D03*
%TO.N,Net-(U4-SS{slash}TR)*%
X194850000Y-68400000D03*
%TO.N,LG5V*%
X211700000Y-66500000D03*
X227800000Y-111500000D03*
X227800000Y-81300000D03*
X213500000Y-66500000D03*
X207554731Y-64450000D03*
X227800000Y-97600000D03*
X227800000Y-66200000D03*
X227800000Y-82500000D03*
X212900000Y-66500000D03*
X227800000Y-66800000D03*
X214700000Y-66500000D03*
X227800000Y-97000000D03*
X212300000Y-66500000D03*
X214100000Y-66500000D03*
X211100000Y-66500000D03*
X215300000Y-66500000D03*
X210500000Y-66500000D03*
X227800000Y-67400000D03*
X227800000Y-112700000D03*
X227800000Y-81900000D03*
X227800000Y-96400000D03*
X227800000Y-112100000D03*
%TO.N,Net-(U1-FB)*%
X199404731Y-103000000D03*
%TO.N,Net-(U2-FB)*%
X199404731Y-85500000D03*
%TO.N,Net-(U3-FB)*%
X199404731Y-122400000D03*
%TO.N,PG9V*%
X185250000Y-57862500D03*
X199304731Y-99300000D03*
%TO.N,PG12V*%
X199304731Y-118700000D03*
X183350000Y-57862500D03*
%TO.N,PG5V*%
X171600000Y-56700000D03*
X199304731Y-81800000D03*
%TO.N,Net-(U1-RT{slash}SYNC)*%
X196400000Y-102600000D03*
%TO.N,Net-(U2-RT{slash}SYNC)*%
X196400000Y-85100000D03*
%TO.N,Net-(U3-RT{slash}SYNC)*%
X196304731Y-121800000D03*
%TO.N,PGLG5V*%
X199304731Y-65300000D03*
X175900000Y-56100000D03*
%TO.N,Net-(U4-RT{slash}SYNC)*%
X196400000Y-68600000D03*
%TO.N,Net-(U4-FB)*%
X199404731Y-69000000D03*
%TO.N,EN12V*%
X195125735Y-83925735D03*
X195100000Y-65100000D03*
X195111131Y-99139340D03*
X195125710Y-105051489D03*
X195111131Y-101440340D03*
X195111131Y-120840340D03*
X195114579Y-71012149D03*
X195113364Y-87513364D03*
X195085396Y-118513605D03*
X195100000Y-81600000D03*
%TD*%
D20*
%TO.N,VIN*%
X220950000Y-59350000D02*
X219400000Y-57800000D01*
X193600000Y-57800000D02*
X183500000Y-67900000D01*
X216950000Y-89550000D02*
X215800000Y-90700000D01*
X221435000Y-74300000D02*
X185800000Y-74300000D01*
X224085000Y-104650000D02*
X221585000Y-104650000D01*
X215800000Y-90700000D02*
X183400000Y-90700000D01*
X221585000Y-59350000D02*
X220950000Y-59350000D01*
X217100000Y-105900000D02*
X214900000Y-108100000D01*
X221585000Y-89550000D02*
X224085000Y-89550000D01*
X221585000Y-74450000D02*
X221435000Y-74300000D01*
X224085000Y-59350000D02*
X221585000Y-59350000D01*
X183500000Y-76600000D02*
X183500000Y-84100000D01*
X214900000Y-108100000D02*
X213300000Y-108100000D01*
X213300000Y-108100000D02*
X182900000Y-108100000D01*
X224085000Y-74450000D02*
X221585000Y-74450000D01*
X221585000Y-89550000D02*
X216950000Y-89550000D01*
X183500000Y-67900000D02*
X183500000Y-76600000D01*
X219400000Y-57800000D02*
X193600000Y-57800000D01*
X218350000Y-104650000D02*
X217100000Y-105900000D01*
X185800000Y-74300000D02*
X183500000Y-76600000D01*
X221585000Y-104650000D02*
X218350000Y-104650000D01*
%TD*%
%TA.AperFunction,Conductor*%
%TO.N,GNDA*%
G36*
X234006922Y-47001280D02*
G01*
X234097266Y-47011459D01*
X234124331Y-47017636D01*
X234203540Y-47045352D01*
X234228553Y-47057398D01*
X234299606Y-47102043D01*
X234321313Y-47119355D01*
X234380644Y-47178686D01*
X234397957Y-47200395D01*
X234442600Y-47271444D01*
X234454648Y-47296462D01*
X234482362Y-47375666D01*
X234488540Y-47402735D01*
X234498720Y-47493076D01*
X234499500Y-47506961D01*
X234499500Y-130993038D01*
X234498720Y-131006922D01*
X234498720Y-131006923D01*
X234488540Y-131097264D01*
X234482362Y-131124333D01*
X234454648Y-131203537D01*
X234442600Y-131228555D01*
X234397957Y-131299604D01*
X234380644Y-131321313D01*
X234321313Y-131380644D01*
X234299604Y-131397957D01*
X234228555Y-131442600D01*
X234203537Y-131454648D01*
X234124333Y-131482362D01*
X234097264Y-131488540D01*
X234017075Y-131497576D01*
X234006921Y-131498720D01*
X233993038Y-131499500D01*
X161506962Y-131499500D01*
X161493078Y-131498720D01*
X161480553Y-131497308D01*
X161402735Y-131488540D01*
X161375666Y-131482362D01*
X161296462Y-131454648D01*
X161271444Y-131442600D01*
X161200395Y-131397957D01*
X161178686Y-131380644D01*
X161119355Y-131321313D01*
X161102042Y-131299604D01*
X161057399Y-131228555D01*
X161045351Y-131203537D01*
X161017637Y-131124333D01*
X161011459Y-131097263D01*
X161001280Y-131006922D01*
X161000500Y-130993038D01*
X161000500Y-126878711D01*
X163649500Y-126878711D01*
X163649500Y-127121288D01*
X163681161Y-127361785D01*
X163743947Y-127596104D01*
X163836773Y-127820205D01*
X163836776Y-127820212D01*
X163958064Y-128030289D01*
X163958066Y-128030292D01*
X163958067Y-128030293D01*
X164105733Y-128222736D01*
X164105739Y-128222743D01*
X164277256Y-128394260D01*
X164277262Y-128394265D01*
X164469711Y-128541936D01*
X164679788Y-128663224D01*
X164903900Y-128756054D01*
X165138211Y-128818838D01*
X165318586Y-128842584D01*
X165378711Y-128850500D01*
X165378712Y-128850500D01*
X165621289Y-128850500D01*
X165669388Y-128844167D01*
X165861789Y-128818838D01*
X166096100Y-128756054D01*
X166320212Y-128663224D01*
X166530289Y-128541936D01*
X166722738Y-128394265D01*
X166894265Y-128222738D01*
X167041936Y-128030289D01*
X167163224Y-127820212D01*
X167256054Y-127596100D01*
X167318838Y-127361789D01*
X167350500Y-127121288D01*
X167350500Y-126878712D01*
X167350500Y-126878711D01*
X228149500Y-126878711D01*
X228149500Y-127121288D01*
X228181161Y-127361785D01*
X228243947Y-127596104D01*
X228336773Y-127820205D01*
X228336776Y-127820212D01*
X228458064Y-128030289D01*
X228458066Y-128030292D01*
X228458067Y-128030293D01*
X228605733Y-128222736D01*
X228605739Y-128222743D01*
X228777256Y-128394260D01*
X228777262Y-128394265D01*
X228969711Y-128541936D01*
X229179788Y-128663224D01*
X229403900Y-128756054D01*
X229638211Y-128818838D01*
X229818586Y-128842584D01*
X229878711Y-128850500D01*
X229878712Y-128850500D01*
X230121289Y-128850500D01*
X230169388Y-128844167D01*
X230361789Y-128818838D01*
X230596100Y-128756054D01*
X230820212Y-128663224D01*
X231030289Y-128541936D01*
X231222738Y-128394265D01*
X231394265Y-128222738D01*
X231541936Y-128030289D01*
X231663224Y-127820212D01*
X231756054Y-127596100D01*
X231818838Y-127361789D01*
X231850500Y-127121288D01*
X231850500Y-126878712D01*
X231818838Y-126638211D01*
X231756054Y-126403900D01*
X231663224Y-126179788D01*
X231541936Y-125969711D01*
X231394265Y-125777262D01*
X231394260Y-125777256D01*
X231222743Y-125605739D01*
X231222736Y-125605733D01*
X231030293Y-125458067D01*
X231030292Y-125458066D01*
X231030289Y-125458064D01*
X230820212Y-125336776D01*
X230820205Y-125336773D01*
X230596104Y-125243947D01*
X230361785Y-125181161D01*
X230121289Y-125149500D01*
X230121288Y-125149500D01*
X229878712Y-125149500D01*
X229878711Y-125149500D01*
X229638214Y-125181161D01*
X229403895Y-125243947D01*
X229179794Y-125336773D01*
X229179785Y-125336777D01*
X228969706Y-125458067D01*
X228777263Y-125605733D01*
X228777256Y-125605739D01*
X228605739Y-125777256D01*
X228605733Y-125777263D01*
X228458067Y-125969706D01*
X228336777Y-126179785D01*
X228336773Y-126179794D01*
X228243947Y-126403895D01*
X228181161Y-126638214D01*
X228149500Y-126878711D01*
X167350500Y-126878711D01*
X167318838Y-126638211D01*
X167256054Y-126403900D01*
X167163224Y-126179788D01*
X167041936Y-125969711D01*
X166894265Y-125777262D01*
X166894260Y-125777256D01*
X166722743Y-125605739D01*
X166722736Y-125605733D01*
X166530293Y-125458067D01*
X166530292Y-125458066D01*
X166530289Y-125458064D01*
X166320212Y-125336776D01*
X166320205Y-125336773D01*
X166096104Y-125243947D01*
X165861785Y-125181161D01*
X165621289Y-125149500D01*
X165621288Y-125149500D01*
X165378712Y-125149500D01*
X165378711Y-125149500D01*
X165138214Y-125181161D01*
X164903895Y-125243947D01*
X164679794Y-125336773D01*
X164679785Y-125336777D01*
X164469706Y-125458067D01*
X164277263Y-125605733D01*
X164277256Y-125605739D01*
X164105739Y-125777256D01*
X164105733Y-125777263D01*
X163958067Y-125969706D01*
X163836777Y-126179785D01*
X163836773Y-126179794D01*
X163743947Y-126403895D01*
X163681161Y-126638214D01*
X163649500Y-126878711D01*
X161000500Y-126878711D01*
X161000500Y-122334108D01*
X198904231Y-122334108D01*
X198904231Y-122465891D01*
X198938339Y-122593187D01*
X198971285Y-122650250D01*
X199004231Y-122707314D01*
X199097417Y-122800500D01*
X199211545Y-122866392D01*
X199338839Y-122900500D01*
X199338841Y-122900500D01*
X199470621Y-122900500D01*
X199470623Y-122900500D01*
X199597917Y-122866392D01*
X199712045Y-122800500D01*
X199805231Y-122707314D01*
X199871123Y-122593186D01*
X199905231Y-122465892D01*
X199905231Y-122334108D01*
X199871123Y-122206814D01*
X199805231Y-122092686D01*
X199712045Y-121999500D01*
X199654981Y-121966554D01*
X199597918Y-121933608D01*
X199534270Y-121916554D01*
X199470623Y-121899500D01*
X199338839Y-121899500D01*
X199211543Y-121933608D01*
X199097417Y-121999500D01*
X199097414Y-121999502D01*
X199004233Y-122092683D01*
X199004231Y-122092686D01*
X198938339Y-122206812D01*
X198904231Y-122334108D01*
X161000500Y-122334108D01*
X161000500Y-121734108D01*
X194304231Y-121734108D01*
X194304231Y-121865891D01*
X194338339Y-121993187D01*
X194371285Y-122050250D01*
X194404231Y-122107314D01*
X194497417Y-122200500D01*
X194596252Y-122257563D01*
X194611541Y-122266390D01*
X194611545Y-122266392D01*
X194738839Y-122300500D01*
X194738841Y-122300500D01*
X194870621Y-122300500D01*
X194870623Y-122300500D01*
X194997917Y-122266392D01*
X195112045Y-122200500D01*
X195205231Y-122107314D01*
X195271123Y-121993186D01*
X195305231Y-121865892D01*
X195305231Y-121734108D01*
X195804231Y-121734108D01*
X195804231Y-121865891D01*
X195838339Y-121993187D01*
X195871285Y-122050250D01*
X195904231Y-122107314D01*
X195997417Y-122200500D01*
X196096252Y-122257563D01*
X196111541Y-122266390D01*
X196111545Y-122266392D01*
X196238839Y-122300500D01*
X196238841Y-122300500D01*
X196370621Y-122300500D01*
X196370623Y-122300500D01*
X196497917Y-122266392D01*
X196612045Y-122200500D01*
X196705231Y-122107314D01*
X196771123Y-121993186D01*
X196805231Y-121865892D01*
X196805231Y-121734108D01*
X196771123Y-121606814D01*
X196705231Y-121492686D01*
X196612045Y-121399500D01*
X196544774Y-121360661D01*
X196497918Y-121333608D01*
X196397613Y-121306732D01*
X196370623Y-121299500D01*
X196238839Y-121299500D01*
X196111543Y-121333608D01*
X195997417Y-121399500D01*
X195997414Y-121399502D01*
X195904233Y-121492683D01*
X195904231Y-121492686D01*
X195838339Y-121606812D01*
X195804231Y-121734108D01*
X195305231Y-121734108D01*
X195271123Y-121606814D01*
X195206327Y-121494584D01*
X195189855Y-121426688D01*
X195212707Y-121360661D01*
X195267628Y-121317470D01*
X195281600Y-121312818D01*
X195304317Y-121306732D01*
X195418445Y-121240840D01*
X195511631Y-121147654D01*
X195577523Y-121033526D01*
X195590764Y-120984108D01*
X199804231Y-120984108D01*
X199804231Y-121115891D01*
X199838339Y-121243187D01*
X199859408Y-121279678D01*
X199904231Y-121357314D01*
X199997417Y-121450500D01*
X200111545Y-121516392D01*
X200238839Y-121550500D01*
X200238841Y-121550500D01*
X200370621Y-121550500D01*
X200370623Y-121550500D01*
X200497917Y-121516392D01*
X200612045Y-121450500D01*
X200705231Y-121357314D01*
X200771123Y-121243186D01*
X200805231Y-121115892D01*
X200805231Y-120984108D01*
X200771123Y-120856814D01*
X200705231Y-120742686D01*
X200612045Y-120649500D01*
X200554981Y-120616554D01*
X200497918Y-120583608D01*
X200434270Y-120566554D01*
X200370623Y-120549500D01*
X200238839Y-120549500D01*
X200111543Y-120583608D01*
X199997417Y-120649500D01*
X199997414Y-120649502D01*
X199904233Y-120742683D01*
X199904231Y-120742686D01*
X199838339Y-120856812D01*
X199804231Y-120984108D01*
X195590764Y-120984108D01*
X195611631Y-120906232D01*
X195611631Y-120774448D01*
X195577523Y-120647154D01*
X195511631Y-120533026D01*
X195418445Y-120439840D01*
X195350305Y-120400499D01*
X195304318Y-120373948D01*
X195240670Y-120356894D01*
X195177023Y-120339840D01*
X195045239Y-120339840D01*
X194917943Y-120373948D01*
X194803817Y-120439840D01*
X194803814Y-120439842D01*
X194710633Y-120533023D01*
X194710631Y-120533026D01*
X194644739Y-120647152D01*
X194610631Y-120774448D01*
X194610631Y-120906231D01*
X194644739Y-121033527D01*
X194674016Y-121084236D01*
X194709533Y-121145753D01*
X194726006Y-121213651D01*
X194703154Y-121279678D01*
X194648233Y-121322869D01*
X194634241Y-121327526D01*
X194611546Y-121333607D01*
X194611545Y-121333607D01*
X194497417Y-121399500D01*
X194497414Y-121399502D01*
X194404233Y-121492683D01*
X194404231Y-121492686D01*
X194338339Y-121606812D01*
X194304231Y-121734108D01*
X161000500Y-121734108D01*
X161000500Y-118631902D01*
X177999500Y-118631902D01*
X177999500Y-118868097D01*
X178036446Y-119101368D01*
X178109433Y-119325996D01*
X178177448Y-119459481D01*
X178216657Y-119536433D01*
X178355483Y-119727510D01*
X178522490Y-119894517D01*
X178713567Y-120033343D01*
X178812991Y-120084002D01*
X178924003Y-120140566D01*
X178924005Y-120140566D01*
X178924008Y-120140568D01*
X179044412Y-120179689D01*
X179148631Y-120213553D01*
X179381903Y-120250500D01*
X179381908Y-120250500D01*
X179618097Y-120250500D01*
X179851368Y-120213553D01*
X179870563Y-120207316D01*
X180075992Y-120140568D01*
X180286433Y-120033343D01*
X180477510Y-119894517D01*
X180537919Y-119834108D01*
X220599500Y-119834108D01*
X220599500Y-119965891D01*
X220633608Y-120093187D01*
X220660963Y-120140566D01*
X220699500Y-120207314D01*
X220792686Y-120300500D01*
X220906814Y-120366392D01*
X221034108Y-120400500D01*
X221034110Y-120400500D01*
X221165890Y-120400500D01*
X221165892Y-120400500D01*
X221293186Y-120366392D01*
X221337999Y-120340518D01*
X221405898Y-120324045D01*
X221462000Y-120340518D01*
X221477800Y-120349640D01*
X221506811Y-120366391D01*
X221506813Y-120366391D01*
X221506814Y-120366392D01*
X221634108Y-120400500D01*
X221634110Y-120400500D01*
X221765890Y-120400500D01*
X221765892Y-120400500D01*
X221893186Y-120366392D01*
X221937999Y-120340518D01*
X222005898Y-120324045D01*
X222062000Y-120340518D01*
X222077800Y-120349640D01*
X222106811Y-120366391D01*
X222106813Y-120366391D01*
X222106814Y-120366392D01*
X222234108Y-120400500D01*
X222234110Y-120400500D01*
X222365890Y-120400500D01*
X222365892Y-120400500D01*
X222493186Y-120366392D01*
X222537999Y-120340518D01*
X222605898Y-120324045D01*
X222662000Y-120340518D01*
X222677800Y-120349640D01*
X222706811Y-120366391D01*
X222706813Y-120366391D01*
X222706814Y-120366392D01*
X222834108Y-120400500D01*
X222834110Y-120400500D01*
X222965890Y-120400500D01*
X222965892Y-120400500D01*
X223093186Y-120366392D01*
X223137999Y-120340518D01*
X223205898Y-120324045D01*
X223262000Y-120340518D01*
X223277800Y-120349640D01*
X223306811Y-120366391D01*
X223306813Y-120366391D01*
X223306814Y-120366392D01*
X223434108Y-120400500D01*
X223434110Y-120400500D01*
X223565890Y-120400500D01*
X223565892Y-120400500D01*
X223693186Y-120366392D01*
X223737999Y-120340518D01*
X223805898Y-120324045D01*
X223862000Y-120340518D01*
X223877800Y-120349640D01*
X223906811Y-120366391D01*
X223906813Y-120366391D01*
X223906814Y-120366392D01*
X224034108Y-120400500D01*
X224034110Y-120400500D01*
X224165890Y-120400500D01*
X224165892Y-120400500D01*
X224293186Y-120366392D01*
X224337999Y-120340518D01*
X224405898Y-120324045D01*
X224462000Y-120340518D01*
X224477800Y-120349640D01*
X224506811Y-120366391D01*
X224506813Y-120366391D01*
X224506814Y-120366392D01*
X224634108Y-120400500D01*
X224634110Y-120400500D01*
X224765890Y-120400500D01*
X224765892Y-120400500D01*
X224893186Y-120366392D01*
X224937999Y-120340518D01*
X225005898Y-120324045D01*
X225062000Y-120340518D01*
X225077800Y-120349640D01*
X225106811Y-120366391D01*
X225106813Y-120366391D01*
X225106814Y-120366392D01*
X225234108Y-120400500D01*
X225234110Y-120400500D01*
X225365890Y-120400500D01*
X225365892Y-120400500D01*
X225493186Y-120366392D01*
X225537999Y-120340518D01*
X225605898Y-120324045D01*
X225662000Y-120340518D01*
X225677800Y-120349640D01*
X225706811Y-120366391D01*
X225706813Y-120366391D01*
X225706814Y-120366392D01*
X225834108Y-120400500D01*
X225834110Y-120400500D01*
X225965890Y-120400500D01*
X225965892Y-120400500D01*
X226093186Y-120366392D01*
X226137999Y-120340518D01*
X226205898Y-120324045D01*
X226262000Y-120340518D01*
X226277800Y-120349640D01*
X226306811Y-120366391D01*
X226306813Y-120366391D01*
X226306814Y-120366392D01*
X226434108Y-120400500D01*
X226434110Y-120400500D01*
X226565890Y-120400500D01*
X226565892Y-120400500D01*
X226693186Y-120366392D01*
X226807314Y-120300500D01*
X226900500Y-120207314D01*
X226966392Y-120093186D01*
X227000500Y-119965892D01*
X227000500Y-119834108D01*
X226966392Y-119706814D01*
X226900500Y-119592686D01*
X226807314Y-119499500D01*
X226737999Y-119459481D01*
X226693187Y-119433608D01*
X226629539Y-119416554D01*
X226565892Y-119399500D01*
X226434108Y-119399500D01*
X226306814Y-119433608D01*
X226306807Y-119433611D01*
X226261999Y-119459481D01*
X226194099Y-119475954D01*
X226138001Y-119459481D01*
X226093192Y-119433611D01*
X226093188Y-119433609D01*
X226093186Y-119433608D01*
X225965892Y-119399500D01*
X225834108Y-119399500D01*
X225706814Y-119433608D01*
X225706807Y-119433611D01*
X225661999Y-119459481D01*
X225594099Y-119475954D01*
X225538001Y-119459481D01*
X225493192Y-119433611D01*
X225493188Y-119433609D01*
X225493186Y-119433608D01*
X225365892Y-119399500D01*
X225234108Y-119399500D01*
X225106814Y-119433608D01*
X225106807Y-119433611D01*
X225061999Y-119459481D01*
X224994099Y-119475954D01*
X224938001Y-119459481D01*
X224893192Y-119433611D01*
X224893188Y-119433609D01*
X224893186Y-119433608D01*
X224765892Y-119399500D01*
X224634108Y-119399500D01*
X224506814Y-119433608D01*
X224506807Y-119433611D01*
X224461999Y-119459481D01*
X224394099Y-119475954D01*
X224338001Y-119459481D01*
X224293192Y-119433611D01*
X224293188Y-119433609D01*
X224293186Y-119433608D01*
X224165892Y-119399500D01*
X224034108Y-119399500D01*
X223906814Y-119433608D01*
X223906807Y-119433611D01*
X223861999Y-119459481D01*
X223794099Y-119475954D01*
X223738001Y-119459481D01*
X223693192Y-119433611D01*
X223693188Y-119433609D01*
X223693186Y-119433608D01*
X223565892Y-119399500D01*
X223434108Y-119399500D01*
X223306814Y-119433608D01*
X223306807Y-119433611D01*
X223261999Y-119459481D01*
X223194099Y-119475954D01*
X223138001Y-119459481D01*
X223093192Y-119433611D01*
X223093188Y-119433609D01*
X223093186Y-119433608D01*
X222965892Y-119399500D01*
X222834108Y-119399500D01*
X222706814Y-119433608D01*
X222706807Y-119433611D01*
X222661999Y-119459481D01*
X222594099Y-119475954D01*
X222538001Y-119459481D01*
X222493192Y-119433611D01*
X222493188Y-119433609D01*
X222493186Y-119433608D01*
X222365892Y-119399500D01*
X222234108Y-119399500D01*
X222106814Y-119433608D01*
X222106807Y-119433611D01*
X222061999Y-119459481D01*
X221994099Y-119475954D01*
X221938001Y-119459481D01*
X221893192Y-119433611D01*
X221893188Y-119433609D01*
X221893186Y-119433608D01*
X221765892Y-119399500D01*
X221634108Y-119399500D01*
X221506814Y-119433608D01*
X221506807Y-119433611D01*
X221461999Y-119459481D01*
X221394099Y-119475954D01*
X221338001Y-119459481D01*
X221293192Y-119433611D01*
X221293188Y-119433609D01*
X221293186Y-119433608D01*
X221165892Y-119399500D01*
X221034108Y-119399500D01*
X220906812Y-119433608D01*
X220792686Y-119499500D01*
X220792683Y-119499502D01*
X220699502Y-119592683D01*
X220699500Y-119592686D01*
X220633608Y-119706812D01*
X220599500Y-119834108D01*
X180537919Y-119834108D01*
X180644517Y-119727510D01*
X180783343Y-119536433D01*
X180890568Y-119325992D01*
X180963553Y-119101368D01*
X180977374Y-119014104D01*
X181000500Y-118868097D01*
X181000500Y-118631902D01*
X180973112Y-118458984D01*
X180971327Y-118447713D01*
X194584896Y-118447713D01*
X194584896Y-118579496D01*
X194619004Y-118706792D01*
X194651950Y-118763855D01*
X194684896Y-118820919D01*
X194778082Y-118914105D01*
X194892210Y-118979997D01*
X195019504Y-119014105D01*
X195019506Y-119014105D01*
X195151286Y-119014105D01*
X195151288Y-119014105D01*
X195278582Y-118979997D01*
X195392710Y-118914105D01*
X195485896Y-118820919D01*
X195551788Y-118706791D01*
X195571263Y-118634108D01*
X198804231Y-118634108D01*
X198804231Y-118765891D01*
X198838339Y-118893187D01*
X198871285Y-118950250D01*
X198904231Y-119007314D01*
X198997417Y-119100500D01*
X199111545Y-119166392D01*
X199238839Y-119200500D01*
X199238841Y-119200500D01*
X199370621Y-119200500D01*
X199370623Y-119200500D01*
X199497917Y-119166392D01*
X199612045Y-119100500D01*
X199705231Y-119007314D01*
X199771123Y-118893186D01*
X199805231Y-118765892D01*
X199805231Y-118634108D01*
X199771123Y-118506814D01*
X199705231Y-118392686D01*
X199612045Y-118299500D01*
X199554699Y-118266391D01*
X199497918Y-118233608D01*
X199434270Y-118216554D01*
X199370623Y-118199500D01*
X199238839Y-118199500D01*
X199111543Y-118233608D01*
X198997417Y-118299500D01*
X198997414Y-118299502D01*
X198904233Y-118392683D01*
X198904231Y-118392686D01*
X198838339Y-118506812D01*
X198804231Y-118634108D01*
X195571263Y-118634108D01*
X195585896Y-118579497D01*
X195585896Y-118447713D01*
X195551788Y-118320419D01*
X195485896Y-118206291D01*
X195392710Y-118113105D01*
X195335646Y-118080159D01*
X195278583Y-118047213D01*
X195214935Y-118030159D01*
X195151288Y-118013105D01*
X195019504Y-118013105D01*
X194892208Y-118047213D01*
X194778082Y-118113105D01*
X194778079Y-118113107D01*
X194684898Y-118206288D01*
X194684896Y-118206291D01*
X194619004Y-118320417D01*
X194584896Y-118447713D01*
X180971327Y-118447713D01*
X180963553Y-118398631D01*
X180890566Y-118174003D01*
X180798435Y-117993187D01*
X180783343Y-117963567D01*
X180644517Y-117772490D01*
X180606135Y-117734108D01*
X208399500Y-117734108D01*
X208399500Y-117865891D01*
X208433608Y-117993187D01*
X208445108Y-118013105D01*
X208499500Y-118107314D01*
X208592686Y-118200500D01*
X208706814Y-118266392D01*
X208834108Y-118300500D01*
X208834110Y-118300500D01*
X208965890Y-118300500D01*
X208965892Y-118300500D01*
X209093186Y-118266392D01*
X209207314Y-118200500D01*
X209300500Y-118107314D01*
X209366392Y-117993186D01*
X209400500Y-117865892D01*
X209400500Y-117734108D01*
X209366392Y-117606814D01*
X209300500Y-117492686D01*
X209207314Y-117399500D01*
X209137916Y-117359433D01*
X209093187Y-117333608D01*
X209029539Y-117316554D01*
X208965892Y-117299500D01*
X208834108Y-117299500D01*
X208706812Y-117333608D01*
X208592686Y-117399500D01*
X208592683Y-117399502D01*
X208499502Y-117492683D01*
X208499500Y-117492686D01*
X208433608Y-117606812D01*
X208399500Y-117734108D01*
X180606135Y-117734108D01*
X180477510Y-117605483D01*
X180286433Y-117466657D01*
X180075996Y-117359433D01*
X179851368Y-117286446D01*
X179618097Y-117249500D01*
X179618092Y-117249500D01*
X179381908Y-117249500D01*
X179381903Y-117249500D01*
X179148631Y-117286446D01*
X178924003Y-117359433D01*
X178713566Y-117466657D01*
X178677745Y-117492683D01*
X178522490Y-117605483D01*
X178522488Y-117605485D01*
X178522487Y-117605485D01*
X178355485Y-117772487D01*
X178355485Y-117772488D01*
X178355483Y-117772490D01*
X178336320Y-117798866D01*
X178216657Y-117963566D01*
X178109433Y-118174003D01*
X178036446Y-118398631D01*
X177999500Y-118631902D01*
X161000500Y-118631902D01*
X161000500Y-114031902D01*
X177999500Y-114031902D01*
X177999500Y-114268097D01*
X178036446Y-114501368D01*
X178109433Y-114725996D01*
X178216657Y-114936433D01*
X178355483Y-115127510D01*
X178522490Y-115294517D01*
X178713567Y-115433343D01*
X178812991Y-115484002D01*
X178924003Y-115540566D01*
X178924005Y-115540566D01*
X178924008Y-115540568D01*
X179044412Y-115579689D01*
X179148631Y-115613553D01*
X179381903Y-115650500D01*
X179381908Y-115650500D01*
X179618097Y-115650500D01*
X179851368Y-115613553D01*
X180075992Y-115540568D01*
X180286433Y-115433343D01*
X180477510Y-115294517D01*
X180644517Y-115127510D01*
X180783343Y-114936433D01*
X180890568Y-114725992D01*
X180963553Y-114501368D01*
X181000500Y-114268097D01*
X181000500Y-114031902D01*
X180963553Y-113798631D01*
X180890566Y-113574003D01*
X180783342Y-113363566D01*
X180644517Y-113172490D01*
X180477510Y-113005483D01*
X180286433Y-112866657D01*
X180075996Y-112759433D01*
X179851368Y-112686446D01*
X179618097Y-112649500D01*
X179618092Y-112649500D01*
X179381908Y-112649500D01*
X179381903Y-112649500D01*
X179148631Y-112686446D01*
X178924003Y-112759433D01*
X178713566Y-112866657D01*
X178604550Y-112945862D01*
X178522490Y-113005483D01*
X178522488Y-113005485D01*
X178522487Y-113005485D01*
X178355485Y-113172487D01*
X178355485Y-113172488D01*
X178355483Y-113172490D01*
X178318493Y-113223402D01*
X178216657Y-113363566D01*
X178109433Y-113574003D01*
X178036446Y-113798631D01*
X177999500Y-114031902D01*
X161000500Y-114031902D01*
X161000500Y-111434108D01*
X217399500Y-111434108D01*
X217399500Y-111565892D01*
X217422681Y-111652403D01*
X217433608Y-111693185D01*
X217433611Y-111693192D01*
X217459481Y-111738001D01*
X217475954Y-111805901D01*
X217459481Y-111861999D01*
X217433611Y-111906807D01*
X217433608Y-111906814D01*
X217399500Y-112034108D01*
X217399500Y-112165891D01*
X217433608Y-112293185D01*
X217433611Y-112293192D01*
X217459481Y-112338001D01*
X217475954Y-112405901D01*
X217459481Y-112461999D01*
X217433611Y-112506807D01*
X217433608Y-112506814D01*
X217399500Y-112634108D01*
X217399500Y-112765891D01*
X217433608Y-112893187D01*
X217466554Y-112950250D01*
X217499500Y-113007314D01*
X217592686Y-113100500D01*
X217706814Y-113166392D01*
X217834108Y-113200500D01*
X217834110Y-113200500D01*
X217965890Y-113200500D01*
X217965892Y-113200500D01*
X218093186Y-113166392D01*
X218207314Y-113100500D01*
X218300500Y-113007314D01*
X218366392Y-112893186D01*
X218400500Y-112765892D01*
X218400500Y-112634108D01*
X218366392Y-112506814D01*
X218366391Y-112506813D01*
X218366391Y-112506811D01*
X218340519Y-112462002D01*
X218324045Y-112394102D01*
X218340519Y-112337998D01*
X218366391Y-112293188D01*
X218366392Y-112293185D01*
X218400500Y-112165892D01*
X218400500Y-112046530D01*
X220534500Y-112046530D01*
X220534500Y-112253469D01*
X220574868Y-112456412D01*
X220574870Y-112456420D01*
X220654058Y-112647596D01*
X220769024Y-112819657D01*
X220915342Y-112965975D01*
X220915345Y-112965977D01*
X221087402Y-113080941D01*
X221278580Y-113160130D01*
X221481530Y-113200499D01*
X221481534Y-113200500D01*
X221481535Y-113200500D01*
X221688466Y-113200500D01*
X221688467Y-113200499D01*
X221891420Y-113160130D01*
X222082598Y-113080941D01*
X222254655Y-112965977D01*
X222400977Y-112819655D01*
X222515941Y-112647598D01*
X222595130Y-112456420D01*
X222635500Y-112253465D01*
X222635500Y-112046535D01*
X222635499Y-112046530D01*
X223034500Y-112046530D01*
X223034500Y-112253469D01*
X223074868Y-112456412D01*
X223074870Y-112456420D01*
X223154058Y-112647596D01*
X223269024Y-112819657D01*
X223415342Y-112965975D01*
X223415345Y-112965977D01*
X223587402Y-113080941D01*
X223778580Y-113160130D01*
X223981530Y-113200499D01*
X223981534Y-113200500D01*
X223981535Y-113200500D01*
X224188466Y-113200500D01*
X224188467Y-113200499D01*
X224391420Y-113160130D01*
X224582598Y-113080941D01*
X224754655Y-112965977D01*
X224900977Y-112819655D01*
X225015941Y-112647598D01*
X225095130Y-112456420D01*
X225135500Y-112253465D01*
X225135500Y-112046535D01*
X225095130Y-111843580D01*
X225015941Y-111652402D01*
X224900977Y-111480345D01*
X224900974Y-111480341D01*
X224854741Y-111434108D01*
X227299500Y-111434108D01*
X227299500Y-111565892D01*
X227322681Y-111652403D01*
X227333608Y-111693185D01*
X227333611Y-111693192D01*
X227359481Y-111738001D01*
X227375954Y-111805901D01*
X227359481Y-111861999D01*
X227333611Y-111906807D01*
X227333608Y-111906814D01*
X227299500Y-112034108D01*
X227299500Y-112165891D01*
X227333608Y-112293185D01*
X227333611Y-112293192D01*
X227359481Y-112338001D01*
X227375954Y-112405901D01*
X227359481Y-112461999D01*
X227333611Y-112506807D01*
X227333608Y-112506814D01*
X227299500Y-112634108D01*
X227299500Y-112765891D01*
X227333608Y-112893187D01*
X227366554Y-112950250D01*
X227399500Y-113007314D01*
X227492686Y-113100500D01*
X227606814Y-113166392D01*
X227734108Y-113200500D01*
X227734110Y-113200500D01*
X227865890Y-113200500D01*
X227865892Y-113200500D01*
X227993186Y-113166392D01*
X228107314Y-113100500D01*
X228200500Y-113007314D01*
X228266392Y-112893186D01*
X228300500Y-112765892D01*
X228300500Y-112634108D01*
X228266392Y-112506814D01*
X228266391Y-112506813D01*
X228266391Y-112506811D01*
X228240519Y-112462002D01*
X228224045Y-112394102D01*
X228240519Y-112337998D01*
X228266391Y-112293188D01*
X228266392Y-112293185D01*
X228300500Y-112165892D01*
X228300500Y-112063389D01*
X230164500Y-112063389D01*
X230164500Y-112236611D01*
X230167170Y-112253466D01*
X230180558Y-112338001D01*
X230191598Y-112407701D01*
X230245127Y-112572445D01*
X230323768Y-112726788D01*
X230425586Y-112866928D01*
X230548072Y-112989414D01*
X230688212Y-113091232D01*
X230842555Y-113169873D01*
X231007299Y-113223402D01*
X231178389Y-113250500D01*
X231178390Y-113250500D01*
X231351610Y-113250500D01*
X231351611Y-113250500D01*
X231522701Y-113223402D01*
X231687445Y-113169873D01*
X231841788Y-113091232D01*
X231981928Y-112989414D01*
X232104414Y-112866928D01*
X232206232Y-112726788D01*
X232284873Y-112572445D01*
X232338402Y-112407701D01*
X232365500Y-112236611D01*
X232365500Y-112063389D01*
X232338402Y-111892299D01*
X232284873Y-111727555D01*
X232206232Y-111573212D01*
X232104414Y-111433072D01*
X231981928Y-111310586D01*
X231841788Y-111208768D01*
X231687445Y-111130127D01*
X231522701Y-111076598D01*
X231522699Y-111076597D01*
X231522698Y-111076597D01*
X231391271Y-111055781D01*
X231351611Y-111049500D01*
X231178389Y-111049500D01*
X231138728Y-111055781D01*
X231007302Y-111076597D01*
X230842552Y-111130128D01*
X230688211Y-111208768D01*
X230608256Y-111266859D01*
X230548072Y-111310586D01*
X230548070Y-111310588D01*
X230548069Y-111310588D01*
X230425588Y-111433069D01*
X230425588Y-111433070D01*
X230425586Y-111433072D01*
X230424832Y-111434110D01*
X230323768Y-111573211D01*
X230245128Y-111727552D01*
X230191597Y-111892302D01*
X230189299Y-111906814D01*
X230164500Y-112063389D01*
X228300500Y-112063389D01*
X228300500Y-112034108D01*
X228266392Y-111906814D01*
X228266391Y-111906813D01*
X228266391Y-111906811D01*
X228240519Y-111862002D01*
X228224045Y-111794102D01*
X228240519Y-111737998D01*
X228246549Y-111727555D01*
X228266392Y-111693186D01*
X228300500Y-111565892D01*
X228300500Y-111434108D01*
X228266392Y-111306814D01*
X228200500Y-111192686D01*
X228107314Y-111099500D01*
X228020712Y-111049500D01*
X227993187Y-111033608D01*
X227929539Y-111016554D01*
X227865892Y-110999500D01*
X227734108Y-110999500D01*
X227606812Y-111033608D01*
X227492686Y-111099500D01*
X227492683Y-111099502D01*
X227399502Y-111192683D01*
X227399500Y-111192686D01*
X227333608Y-111306812D01*
X227326317Y-111334023D01*
X227299500Y-111434108D01*
X224854741Y-111434108D01*
X224754657Y-111334024D01*
X224668626Y-111276541D01*
X224582598Y-111219059D01*
X224557753Y-111208768D01*
X224391420Y-111139870D01*
X224391412Y-111139868D01*
X224188469Y-111099500D01*
X224188465Y-111099500D01*
X223981535Y-111099500D01*
X223981530Y-111099500D01*
X223778587Y-111139868D01*
X223778579Y-111139870D01*
X223587403Y-111219058D01*
X223415342Y-111334024D01*
X223269024Y-111480342D01*
X223154058Y-111652403D01*
X223074870Y-111843579D01*
X223074868Y-111843587D01*
X223034500Y-112046530D01*
X222635499Y-112046530D01*
X222595130Y-111843580D01*
X222515941Y-111652402D01*
X222400977Y-111480345D01*
X222400975Y-111480342D01*
X222254657Y-111334024D01*
X222168626Y-111276541D01*
X222082598Y-111219059D01*
X222057753Y-111208768D01*
X221891420Y-111139870D01*
X221891412Y-111139868D01*
X221688469Y-111099500D01*
X221688465Y-111099500D01*
X221481535Y-111099500D01*
X221481530Y-111099500D01*
X221278587Y-111139868D01*
X221278579Y-111139870D01*
X221087403Y-111219058D01*
X220915342Y-111334024D01*
X220769024Y-111480342D01*
X220654058Y-111652403D01*
X220574870Y-111843579D01*
X220574868Y-111843587D01*
X220534500Y-112046530D01*
X218400500Y-112046530D01*
X218400500Y-112034108D01*
X218366392Y-111906814D01*
X218366391Y-111906813D01*
X218366391Y-111906811D01*
X218340519Y-111862002D01*
X218324045Y-111794102D01*
X218340519Y-111737998D01*
X218346549Y-111727555D01*
X218366392Y-111693186D01*
X218400500Y-111565892D01*
X218400500Y-111434108D01*
X218366392Y-111306814D01*
X218300500Y-111192686D01*
X218207314Y-111099500D01*
X218120712Y-111049500D01*
X218093187Y-111033608D01*
X218029539Y-111016554D01*
X217965892Y-110999500D01*
X217834108Y-110999500D01*
X217706812Y-111033608D01*
X217592686Y-111099500D01*
X217592683Y-111099502D01*
X217499502Y-111192683D01*
X217499500Y-111192686D01*
X217433608Y-111306812D01*
X217426317Y-111334023D01*
X217399500Y-111434108D01*
X161000500Y-111434108D01*
X161000500Y-104161304D01*
X168259500Y-104161304D01*
X168259500Y-104338695D01*
X168294103Y-104512658D01*
X168294106Y-104512667D01*
X168361983Y-104676540D01*
X168361990Y-104676553D01*
X168460535Y-104824034D01*
X168460538Y-104824038D01*
X168585961Y-104949461D01*
X168585965Y-104949464D01*
X168733446Y-105048009D01*
X168733459Y-105048016D01*
X168856363Y-105098923D01*
X168897334Y-105115894D01*
X168897336Y-105115894D01*
X168897341Y-105115896D01*
X169071304Y-105150499D01*
X169071307Y-105150500D01*
X169071309Y-105150500D01*
X169248692Y-105150500D01*
X169269164Y-105146427D01*
X169326713Y-105134980D01*
X169396304Y-105141207D01*
X169451482Y-105184069D01*
X169474727Y-105249959D01*
X169472523Y-105280787D01*
X169449500Y-105396536D01*
X169449500Y-105603469D01*
X169489868Y-105806412D01*
X169489870Y-105806420D01*
X169569058Y-105997596D01*
X169684024Y-106169657D01*
X169830342Y-106315975D01*
X169830345Y-106315977D01*
X170002402Y-106430941D01*
X170193580Y-106510130D01*
X170396530Y-106550499D01*
X170396534Y-106550500D01*
X170396535Y-106550500D01*
X170603466Y-106550500D01*
X170603467Y-106550499D01*
X170806420Y-106510130D01*
X170997598Y-106430941D01*
X171169655Y-106315977D01*
X171315977Y-106169655D01*
X171430941Y-105997598D01*
X171510130Y-105806420D01*
X171550500Y-105603465D01*
X171550500Y-105396535D01*
X171550499Y-105396530D01*
X171949500Y-105396530D01*
X171949500Y-105603469D01*
X171989868Y-105806412D01*
X171989870Y-105806420D01*
X172069058Y-105997596D01*
X172184024Y-106169657D01*
X172330342Y-106315975D01*
X172330345Y-106315977D01*
X172502402Y-106430941D01*
X172693580Y-106510130D01*
X172896530Y-106550499D01*
X172896534Y-106550500D01*
X172896535Y-106550500D01*
X173103466Y-106550500D01*
X173103467Y-106550499D01*
X173306420Y-106510130D01*
X173497598Y-106430941D01*
X173669655Y-106315977D01*
X173815977Y-106169655D01*
X173930941Y-105997598D01*
X174010130Y-105806420D01*
X174050500Y-105603465D01*
X174050500Y-105396535D01*
X174010130Y-105193580D01*
X173930941Y-105002402D01*
X173815977Y-104830345D01*
X173815975Y-104830342D01*
X173669657Y-104684024D01*
X173583626Y-104626541D01*
X173497598Y-104569059D01*
X173497436Y-104568992D01*
X173306420Y-104489870D01*
X173306412Y-104489868D01*
X173103469Y-104449500D01*
X173103465Y-104449500D01*
X172896535Y-104449500D01*
X172896530Y-104449500D01*
X172693587Y-104489868D01*
X172693579Y-104489870D01*
X172502403Y-104569058D01*
X172330342Y-104684024D01*
X172184024Y-104830342D01*
X172069058Y-105002403D01*
X171989870Y-105193579D01*
X171989868Y-105193587D01*
X171949500Y-105396530D01*
X171550499Y-105396530D01*
X171510130Y-105193580D01*
X171430941Y-105002402D01*
X171315977Y-104830345D01*
X171315975Y-104830342D01*
X171169657Y-104684024D01*
X171083626Y-104626541D01*
X170997598Y-104569059D01*
X170997436Y-104568992D01*
X170806420Y-104489870D01*
X170806412Y-104489868D01*
X170603469Y-104449500D01*
X170603465Y-104449500D01*
X170396535Y-104449500D01*
X170396530Y-104449500D01*
X170205720Y-104487454D01*
X170136128Y-104481227D01*
X170080951Y-104438363D01*
X170057707Y-104372473D01*
X170057543Y-104363975D01*
X170057712Y-104352706D01*
X170060500Y-104338691D01*
X170060500Y-104167050D01*
X170060514Y-104166118D01*
X170070598Y-104133588D01*
X170080185Y-104100941D01*
X170080916Y-104100307D01*
X170081203Y-104099382D01*
X170107284Y-104077458D01*
X170132989Y-104055186D01*
X170133946Y-104055048D01*
X170134688Y-104054425D01*
X170168455Y-104050086D01*
X170202147Y-104045242D01*
X170203866Y-104045536D01*
X170203988Y-104045521D01*
X170204107Y-104045577D01*
X170208680Y-104046360D01*
X170259908Y-104056551D01*
X170300000Y-104060500D01*
X170300006Y-104060500D01*
X171099994Y-104060500D01*
X171100000Y-104060500D01*
X171140092Y-104056551D01*
X171237676Y-104037140D01*
X171311754Y-104006456D01*
X171394482Y-103951179D01*
X171451179Y-103894482D01*
X171506456Y-103811754D01*
X171537140Y-103737676D01*
X171556551Y-103640092D01*
X171560500Y-103600000D01*
X171560500Y-102896530D01*
X171949500Y-102896530D01*
X171949500Y-103103469D01*
X171989868Y-103306412D01*
X171989870Y-103306420D01*
X172056132Y-103466391D01*
X172069059Y-103497598D01*
X172070998Y-103500500D01*
X172184024Y-103669657D01*
X172330342Y-103815975D01*
X172330345Y-103815977D01*
X172502402Y-103930941D01*
X172693580Y-104010130D01*
X172875737Y-104046363D01*
X172896530Y-104050499D01*
X172896534Y-104050500D01*
X172896535Y-104050500D01*
X173103466Y-104050500D01*
X173103467Y-104050499D01*
X173306420Y-104010130D01*
X173497598Y-103930941D01*
X173669655Y-103815977D01*
X173815977Y-103669655D01*
X173930941Y-103497598D01*
X174010130Y-103306420D01*
X174050500Y-103103465D01*
X174050500Y-102896535D01*
X174044504Y-102866391D01*
X174021597Y-102751227D01*
X174017753Y-102731902D01*
X177999500Y-102731902D01*
X177999500Y-102968097D01*
X178036446Y-103201368D01*
X178109433Y-103425996D01*
X178198090Y-103599994D01*
X178216657Y-103636433D01*
X178355483Y-103827510D01*
X178522490Y-103994517D01*
X178713567Y-104133343D01*
X178777892Y-104166118D01*
X178924003Y-104240566D01*
X178924005Y-104240566D01*
X178924008Y-104240568D01*
X179044412Y-104279689D01*
X179148631Y-104313553D01*
X179381903Y-104350500D01*
X179381908Y-104350500D01*
X179618097Y-104350500D01*
X179851368Y-104313553D01*
X180075992Y-104240568D01*
X180286433Y-104133343D01*
X180477510Y-103994517D01*
X180644517Y-103827510D01*
X180783343Y-103636433D01*
X180890568Y-103425992D01*
X180963553Y-103201368D01*
X180979059Y-103103466D01*
X181000500Y-102968097D01*
X181000500Y-102731902D01*
X180963553Y-102498631D01*
X180890566Y-102274003D01*
X180834002Y-102162991D01*
X180783343Y-102063567D01*
X180644517Y-101872490D01*
X180477510Y-101705483D01*
X180286433Y-101566657D01*
X180277291Y-101561999D01*
X180075996Y-101459433D01*
X179851368Y-101386446D01*
X179618097Y-101349500D01*
X179618092Y-101349500D01*
X179381908Y-101349500D01*
X179381903Y-101349500D01*
X179148631Y-101386446D01*
X178924003Y-101459433D01*
X178713566Y-101566657D01*
X178604550Y-101645862D01*
X178522490Y-101705483D01*
X178522488Y-101705485D01*
X178522487Y-101705485D01*
X178355485Y-101872487D01*
X178355485Y-101872488D01*
X178355483Y-101872490D01*
X178315497Y-101927526D01*
X178216657Y-102063566D01*
X178109433Y-102274003D01*
X178036446Y-102498631D01*
X177999500Y-102731902D01*
X174017753Y-102731902D01*
X174012862Y-102707314D01*
X174010130Y-102693580D01*
X173930941Y-102502402D01*
X173815977Y-102330345D01*
X173815975Y-102330342D01*
X173669657Y-102184024D01*
X173554851Y-102107314D01*
X173497598Y-102069059D01*
X173484339Y-102063567D01*
X173306420Y-101989870D01*
X173306412Y-101989868D01*
X173103469Y-101949500D01*
X173103465Y-101949500D01*
X172896535Y-101949500D01*
X172896530Y-101949500D01*
X172693587Y-101989868D01*
X172693579Y-101989870D01*
X172502403Y-102069058D01*
X172330342Y-102184024D01*
X172184024Y-102330342D01*
X172069058Y-102502403D01*
X171989870Y-102693579D01*
X171989868Y-102693587D01*
X171949500Y-102896530D01*
X171560500Y-102896530D01*
X171560500Y-102400000D01*
X171556551Y-102359908D01*
X171537140Y-102262324D01*
X171514147Y-102206813D01*
X171506459Y-102188252D01*
X171506452Y-102188239D01*
X171451179Y-102105518D01*
X171451176Y-102105514D01*
X171394485Y-102048823D01*
X171394481Y-102048820D01*
X171311760Y-101993547D01*
X171311747Y-101993540D01*
X171237680Y-101962861D01*
X171237668Y-101962858D01*
X171140108Y-101943452D01*
X171140094Y-101943449D01*
X171130069Y-101942461D01*
X171100000Y-101939500D01*
X169900000Y-101939500D01*
X169873272Y-101942132D01*
X169859905Y-101943449D01*
X169859891Y-101943452D01*
X169762331Y-101962858D01*
X169762319Y-101962861D01*
X169688252Y-101993540D01*
X169688239Y-101993547D01*
X169605518Y-102048820D01*
X169605514Y-102048823D01*
X169548823Y-102105514D01*
X169548820Y-102105518D01*
X169493547Y-102188239D01*
X169493540Y-102188252D01*
X169462861Y-102262319D01*
X169462858Y-102262331D01*
X169443452Y-102359891D01*
X169443449Y-102359905D01*
X169439500Y-102400005D01*
X169439500Y-103199995D01*
X169441944Y-103224809D01*
X169428925Y-103293456D01*
X169380861Y-103344166D01*
X169313010Y-103360841D01*
X169294351Y-103358582D01*
X169248691Y-103349500D01*
X169071309Y-103349500D01*
X169071306Y-103349500D01*
X168897341Y-103384103D01*
X168897332Y-103384106D01*
X168733459Y-103451983D01*
X168733446Y-103451990D01*
X168585965Y-103550535D01*
X168585961Y-103550538D01*
X168460538Y-103675961D01*
X168460535Y-103675965D01*
X168361990Y-103823446D01*
X168361983Y-103823459D01*
X168294106Y-103987332D01*
X168294103Y-103987341D01*
X168259500Y-104161304D01*
X161000500Y-104161304D01*
X161000500Y-93480247D01*
X163299500Y-93480247D01*
X163299500Y-99519752D01*
X163311131Y-99578229D01*
X163311132Y-99578230D01*
X163355447Y-99644552D01*
X163421769Y-99688867D01*
X163421770Y-99688868D01*
X163480247Y-99700499D01*
X163480250Y-99700500D01*
X163480252Y-99700500D01*
X175519750Y-99700500D01*
X175519751Y-99700499D01*
X175534568Y-99697552D01*
X175578229Y-99688868D01*
X175578229Y-99688867D01*
X175578231Y-99688867D01*
X175644552Y-99644552D01*
X175688867Y-99578231D01*
X175688867Y-99578229D01*
X175688868Y-99578229D01*
X175700499Y-99519752D01*
X175700500Y-99519750D01*
X175700500Y-98131902D01*
X177999500Y-98131902D01*
X177999500Y-98368097D01*
X178036446Y-98601368D01*
X178109433Y-98825996D01*
X178194365Y-98992683D01*
X178216657Y-99036433D01*
X178355483Y-99227510D01*
X178522490Y-99394517D01*
X178713567Y-99533343D01*
X178801661Y-99578229D01*
X178924003Y-99640566D01*
X178924005Y-99640566D01*
X178924008Y-99640568D01*
X179044412Y-99679689D01*
X179148631Y-99713553D01*
X179381903Y-99750500D01*
X179381908Y-99750500D01*
X179618097Y-99750500D01*
X179851368Y-99713553D01*
X179874918Y-99705901D01*
X180075992Y-99640568D01*
X180286433Y-99533343D01*
X180477510Y-99394517D01*
X180644517Y-99227510D01*
X180783343Y-99036433D01*
X180890568Y-98825992D01*
X180963553Y-98601368D01*
X180964849Y-98593186D01*
X181000500Y-98368097D01*
X181000500Y-98131902D01*
X180963553Y-97898631D01*
X180905400Y-97719657D01*
X180890568Y-97674008D01*
X180890566Y-97674005D01*
X180890566Y-97674003D01*
X180819285Y-97534108D01*
X180783343Y-97463567D01*
X180644517Y-97272490D01*
X180477510Y-97105483D01*
X180286433Y-96966657D01*
X180280019Y-96963389D01*
X180075996Y-96859433D01*
X179851368Y-96786446D01*
X179618097Y-96749500D01*
X179618092Y-96749500D01*
X179381908Y-96749500D01*
X179381903Y-96749500D01*
X179148631Y-96786446D01*
X178924003Y-96859433D01*
X178713566Y-96966657D01*
X178604550Y-97045862D01*
X178522490Y-97105483D01*
X178522488Y-97105485D01*
X178522487Y-97105485D01*
X178355485Y-97272487D01*
X178355485Y-97272488D01*
X178355483Y-97272490D01*
X178329904Y-97307697D01*
X178216657Y-97463566D01*
X178109433Y-97674003D01*
X178036446Y-97898631D01*
X177999500Y-98131902D01*
X175700500Y-98131902D01*
X175700500Y-93480249D01*
X175700499Y-93480247D01*
X175688868Y-93421770D01*
X175688867Y-93421769D01*
X175644552Y-93355447D01*
X175578230Y-93311132D01*
X175578229Y-93311131D01*
X175519752Y-93299500D01*
X175519748Y-93299500D01*
X163480252Y-93299500D01*
X163480247Y-93299500D01*
X163421770Y-93311131D01*
X163421769Y-93311132D01*
X163355447Y-93355447D01*
X163311132Y-93421769D01*
X163311131Y-93421770D01*
X163299500Y-93480247D01*
X161000500Y-93480247D01*
X161000500Y-84631902D01*
X178499500Y-84631902D01*
X178499500Y-84868097D01*
X178536446Y-85101368D01*
X178609433Y-85325996D01*
X178698347Y-85500497D01*
X178716657Y-85536433D01*
X178855483Y-85727510D01*
X179022490Y-85894517D01*
X179213567Y-86033343D01*
X179312991Y-86084002D01*
X179424003Y-86140566D01*
X179424005Y-86140566D01*
X179424008Y-86140568D01*
X179544412Y-86179689D01*
X179648631Y-86213553D01*
X179881903Y-86250500D01*
X179881908Y-86250500D01*
X180118097Y-86250500D01*
X180351368Y-86213553D01*
X180575992Y-86140568D01*
X180786433Y-86033343D01*
X180977510Y-85894517D01*
X181082819Y-85789208D01*
X181144142Y-85755723D01*
X181213834Y-85760707D01*
X181269767Y-85802579D01*
X181294184Y-85868043D01*
X181294500Y-85876889D01*
X181294500Y-108591860D01*
X181294940Y-108605319D01*
X181296001Y-108621501D01*
X181297320Y-108634894D01*
X181311163Y-108740043D01*
X181316407Y-108766407D01*
X181324778Y-108797651D01*
X181324787Y-108797680D01*
X181333426Y-108823131D01*
X181370886Y-108913567D01*
X181370887Y-108913569D01*
X181382754Y-108937635D01*
X181382777Y-108937678D01*
X181398953Y-108965696D01*
X181398956Y-108965701D01*
X181398957Y-108965702D01*
X181413891Y-108988052D01*
X181473474Y-109065702D01*
X181473480Y-109065709D01*
X181473481Y-109065710D01*
X181473485Y-109065715D01*
X181490500Y-109085116D01*
X181491198Y-109085911D01*
X181514088Y-109108801D01*
X181534297Y-109126525D01*
X181611947Y-109186108D01*
X181634297Y-109201042D01*
X181662330Y-109217227D01*
X181662345Y-109217234D01*
X181662363Y-109217244D01*
X181686429Y-109229111D01*
X181686441Y-109229117D01*
X181776862Y-109266570D01*
X181776867Y-109266572D01*
X181802320Y-109275213D01*
X181833587Y-109283591D01*
X181859951Y-109288835D01*
X181965117Y-109302681D01*
X181978498Y-109303999D01*
X181994683Y-109305060D01*
X182008126Y-109305500D01*
X182008139Y-109305500D01*
X183991861Y-109305500D01*
X183991874Y-109305500D01*
X184005317Y-109305060D01*
X184021501Y-109303999D01*
X184034882Y-109302681D01*
X184043390Y-109301560D01*
X184059575Y-109300500D01*
X214994486Y-109300500D01*
X215181118Y-109270940D01*
X215194567Y-109266570D01*
X215360832Y-109212547D01*
X215529199Y-109126760D01*
X215682074Y-109015690D01*
X215763656Y-108934108D01*
X218399500Y-108934108D01*
X218399500Y-109065892D01*
X218431712Y-109186108D01*
X218433608Y-109193185D01*
X218433611Y-109193192D01*
X218459481Y-109238001D01*
X218475954Y-109305901D01*
X218459481Y-109361999D01*
X218433611Y-109406807D01*
X218433608Y-109406814D01*
X218399500Y-109534108D01*
X218399500Y-109665891D01*
X218433608Y-109793185D01*
X218433611Y-109793192D01*
X218459481Y-109838001D01*
X218475954Y-109905901D01*
X218459481Y-109961999D01*
X218433611Y-110006807D01*
X218433608Y-110006814D01*
X218399500Y-110134108D01*
X218399500Y-110265891D01*
X218433608Y-110393187D01*
X218466554Y-110450250D01*
X218499500Y-110507314D01*
X218592686Y-110600500D01*
X218706814Y-110666392D01*
X218834108Y-110700500D01*
X218834110Y-110700500D01*
X218965890Y-110700500D01*
X218965892Y-110700500D01*
X219093186Y-110666392D01*
X219207314Y-110600500D01*
X219300500Y-110507314D01*
X219366392Y-110393186D01*
X219400500Y-110265892D01*
X219400500Y-110134108D01*
X219366392Y-110006814D01*
X219366391Y-110006813D01*
X219366391Y-110006811D01*
X219340519Y-109962002D01*
X219324045Y-109894102D01*
X219340519Y-109837998D01*
X219366391Y-109793188D01*
X219366392Y-109793185D01*
X219400500Y-109665892D01*
X219400500Y-109546530D01*
X220534500Y-109546530D01*
X220534500Y-109753469D01*
X220574868Y-109956412D01*
X220574870Y-109956420D01*
X220654058Y-110147596D01*
X220769024Y-110319657D01*
X220915342Y-110465975D01*
X220915345Y-110465977D01*
X221087402Y-110580941D01*
X221278580Y-110660130D01*
X221481530Y-110700499D01*
X221481534Y-110700500D01*
X221481535Y-110700500D01*
X221688466Y-110700500D01*
X221688467Y-110700499D01*
X221891420Y-110660130D01*
X222082598Y-110580941D01*
X222254655Y-110465977D01*
X222400977Y-110319655D01*
X222515941Y-110147598D01*
X222595130Y-109956420D01*
X222635500Y-109753465D01*
X222635500Y-109546535D01*
X222635499Y-109546530D01*
X223034500Y-109546530D01*
X223034500Y-109753469D01*
X223074868Y-109956412D01*
X223074870Y-109956420D01*
X223154058Y-110147596D01*
X223269024Y-110319657D01*
X223415342Y-110465975D01*
X223415345Y-110465977D01*
X223587402Y-110580941D01*
X223778580Y-110660130D01*
X223981530Y-110700499D01*
X223981534Y-110700500D01*
X223981535Y-110700500D01*
X224188466Y-110700500D01*
X224188467Y-110700499D01*
X224391420Y-110660130D01*
X224582598Y-110580941D01*
X224754655Y-110465977D01*
X224900977Y-110319655D01*
X225015941Y-110147598D01*
X225095130Y-109956420D01*
X225135500Y-109753465D01*
X225135500Y-109546535D01*
X225095130Y-109343580D01*
X225015941Y-109152402D01*
X224900977Y-108980345D01*
X224900974Y-108980341D01*
X224854741Y-108934108D01*
X226299500Y-108934108D01*
X226299500Y-109065892D01*
X226331712Y-109186108D01*
X226333608Y-109193185D01*
X226333611Y-109193192D01*
X226359481Y-109238001D01*
X226375954Y-109305901D01*
X226359481Y-109361999D01*
X226333611Y-109406807D01*
X226333608Y-109406814D01*
X226299500Y-109534108D01*
X226299500Y-109665891D01*
X226333608Y-109793185D01*
X226333611Y-109793192D01*
X226359481Y-109838001D01*
X226375954Y-109905901D01*
X226359481Y-109961999D01*
X226333611Y-110006807D01*
X226333608Y-110006814D01*
X226299500Y-110134108D01*
X226299500Y-110265891D01*
X226333608Y-110393187D01*
X226366554Y-110450250D01*
X226399500Y-110507314D01*
X226492686Y-110600500D01*
X226606814Y-110666392D01*
X226734108Y-110700500D01*
X226734110Y-110700500D01*
X226865890Y-110700500D01*
X226865892Y-110700500D01*
X226993186Y-110666392D01*
X227107314Y-110600500D01*
X227200500Y-110507314D01*
X227266392Y-110393186D01*
X227300500Y-110265892D01*
X227300500Y-110134108D01*
X227266392Y-110006814D01*
X227266391Y-110006813D01*
X227266391Y-110006811D01*
X227240519Y-109962002D01*
X227224045Y-109894102D01*
X227240519Y-109837998D01*
X227266391Y-109793188D01*
X227266392Y-109793185D01*
X227300500Y-109665892D01*
X227300500Y-109534108D01*
X227266392Y-109406814D01*
X227266391Y-109406813D01*
X227266391Y-109406811D01*
X227240519Y-109362002D01*
X227224045Y-109294102D01*
X227240519Y-109237998D01*
X227266391Y-109193188D01*
X227268288Y-109186109D01*
X227300500Y-109065892D01*
X227300500Y-108934108D01*
X227266392Y-108806814D01*
X227261118Y-108797680D01*
X227227843Y-108740046D01*
X227200500Y-108692686D01*
X227107314Y-108599500D01*
X227050250Y-108566554D01*
X226993187Y-108533608D01*
X226929539Y-108516554D01*
X226865892Y-108499500D01*
X226734108Y-108499500D01*
X226606812Y-108533608D01*
X226492686Y-108599500D01*
X226492683Y-108599502D01*
X226399502Y-108692683D01*
X226399500Y-108692686D01*
X226333608Y-108806812D01*
X226326317Y-108834023D01*
X226299500Y-108934108D01*
X224854741Y-108934108D01*
X224754657Y-108834024D01*
X224614003Y-108740043D01*
X224582598Y-108719059D01*
X224518928Y-108692686D01*
X224391420Y-108639870D01*
X224391412Y-108639868D01*
X224188469Y-108599500D01*
X224188465Y-108599500D01*
X223981535Y-108599500D01*
X223981530Y-108599500D01*
X223778587Y-108639868D01*
X223778579Y-108639870D01*
X223587403Y-108719058D01*
X223415342Y-108834024D01*
X223269024Y-108980342D01*
X223154058Y-109152403D01*
X223074870Y-109343579D01*
X223074868Y-109343587D01*
X223034500Y-109546530D01*
X222635499Y-109546530D01*
X222595130Y-109343580D01*
X222515941Y-109152402D01*
X222400977Y-108980345D01*
X222400975Y-108980342D01*
X222254657Y-108834024D01*
X222114003Y-108740043D01*
X222082598Y-108719059D01*
X222018928Y-108692686D01*
X221891420Y-108639870D01*
X221891412Y-108639868D01*
X221688469Y-108599500D01*
X221688465Y-108599500D01*
X221481535Y-108599500D01*
X221481530Y-108599500D01*
X221278587Y-108639868D01*
X221278579Y-108639870D01*
X221087403Y-108719058D01*
X220915342Y-108834024D01*
X220769024Y-108980342D01*
X220654058Y-109152403D01*
X220574870Y-109343579D01*
X220574868Y-109343587D01*
X220534500Y-109546530D01*
X219400500Y-109546530D01*
X219400500Y-109534108D01*
X219366392Y-109406814D01*
X219366391Y-109406813D01*
X219366391Y-109406811D01*
X219340519Y-109362002D01*
X219324045Y-109294102D01*
X219340519Y-109237998D01*
X219366391Y-109193188D01*
X219368288Y-109186109D01*
X219400500Y-109065892D01*
X219400500Y-108934108D01*
X219366392Y-108806814D01*
X219361118Y-108797680D01*
X219327843Y-108740046D01*
X219300500Y-108692686D01*
X219207314Y-108599500D01*
X219150250Y-108566554D01*
X219093187Y-108533608D01*
X219029539Y-108516554D01*
X218965892Y-108499500D01*
X218834108Y-108499500D01*
X218706812Y-108533608D01*
X218592686Y-108599500D01*
X218592683Y-108599502D01*
X218499502Y-108692683D01*
X218499500Y-108692686D01*
X218433608Y-108806812D01*
X218426317Y-108834023D01*
X218399500Y-108934108D01*
X215763656Y-108934108D01*
X217875005Y-106822756D01*
X217875012Y-106822751D01*
X217882072Y-106815690D01*
X217882074Y-106815690D01*
X218810945Y-105886819D01*
X218872268Y-105853334D01*
X218898626Y-105850500D01*
X224179486Y-105850500D01*
X224366118Y-105820940D01*
X224545832Y-105762547D01*
X224714199Y-105676760D01*
X224867073Y-105565690D01*
X225000690Y-105432073D01*
X225111760Y-105279199D01*
X225197547Y-105110832D01*
X225255940Y-104931118D01*
X225259649Y-104907701D01*
X225285500Y-104744486D01*
X225285500Y-104563389D01*
X230164500Y-104563389D01*
X230164500Y-104736611D01*
X230165747Y-104744486D01*
X230179345Y-104830342D01*
X230191598Y-104907701D01*
X230245127Y-105072445D01*
X230323768Y-105226788D01*
X230425586Y-105366928D01*
X230548072Y-105489414D01*
X230688212Y-105591232D01*
X230842555Y-105669873D01*
X231007299Y-105723402D01*
X231178389Y-105750500D01*
X231178390Y-105750500D01*
X231351610Y-105750500D01*
X231351611Y-105750500D01*
X231522701Y-105723402D01*
X231687445Y-105669873D01*
X231841788Y-105591232D01*
X231981928Y-105489414D01*
X232104414Y-105366928D01*
X232206232Y-105226788D01*
X232284873Y-105072445D01*
X232338402Y-104907701D01*
X232365500Y-104736611D01*
X232365500Y-104563389D01*
X232338402Y-104392299D01*
X232284873Y-104227555D01*
X232206232Y-104073212D01*
X232104414Y-103933072D01*
X231981928Y-103810586D01*
X231841788Y-103708768D01*
X231687445Y-103630127D01*
X231522701Y-103576598D01*
X231522699Y-103576597D01*
X231522698Y-103576597D01*
X231391271Y-103555781D01*
X231351611Y-103549500D01*
X231178389Y-103549500D01*
X231138728Y-103555781D01*
X231007302Y-103576597D01*
X230842552Y-103630128D01*
X230688211Y-103708768D01*
X230648418Y-103737680D01*
X230548072Y-103810586D01*
X230548070Y-103810588D01*
X230548069Y-103810588D01*
X230425588Y-103933069D01*
X230425588Y-103933070D01*
X230425586Y-103933072D01*
X230408806Y-103956168D01*
X230323768Y-104073211D01*
X230245128Y-104227552D01*
X230191597Y-104392302D01*
X230166464Y-104550989D01*
X230164500Y-104563389D01*
X225285500Y-104563389D01*
X225285500Y-104555513D01*
X225255940Y-104368881D01*
X225197545Y-104189163D01*
X225140628Y-104077458D01*
X225111760Y-104020801D01*
X225000690Y-103867927D01*
X224867073Y-103734310D01*
X224714199Y-103623240D01*
X224668588Y-103600000D01*
X224545836Y-103537454D01*
X224366118Y-103479059D01*
X224179486Y-103449500D01*
X224179481Y-103449500D01*
X221679481Y-103449500D01*
X218444482Y-103449500D01*
X218255519Y-103449500D01*
X218255514Y-103449500D01*
X218068881Y-103479059D01*
X217889163Y-103537454D01*
X217720800Y-103623240D01*
X217567923Y-103734312D01*
X214439055Y-106863181D01*
X214377732Y-106896666D01*
X214351374Y-106899500D01*
X184829500Y-106899500D01*
X184762461Y-106879815D01*
X184716706Y-106827011D01*
X184705500Y-106775500D01*
X184705500Y-104985597D01*
X194625210Y-104985597D01*
X194625210Y-105117380D01*
X194659318Y-105244676D01*
X194679250Y-105279199D01*
X194725210Y-105358803D01*
X194818396Y-105451989D01*
X194932524Y-105517881D01*
X195059818Y-105551989D01*
X195059820Y-105551989D01*
X195191600Y-105551989D01*
X195191602Y-105551989D01*
X195318896Y-105517881D01*
X195433024Y-105451989D01*
X195526210Y-105358803D01*
X195592102Y-105244675D01*
X195626210Y-105117381D01*
X195626210Y-104985597D01*
X195592102Y-104858303D01*
X195526210Y-104744175D01*
X195433024Y-104650989D01*
X195375960Y-104618043D01*
X195318897Y-104585097D01*
X195208508Y-104555519D01*
X195191602Y-104550989D01*
X195059818Y-104550989D01*
X194932522Y-104585097D01*
X194818396Y-104650989D01*
X194818393Y-104650991D01*
X194725212Y-104744172D01*
X194725210Y-104744175D01*
X194659318Y-104858301D01*
X194625210Y-104985597D01*
X184705500Y-104985597D01*
X184705500Y-102334108D01*
X194304231Y-102334108D01*
X194304231Y-102465892D01*
X194313003Y-102498631D01*
X194338339Y-102593187D01*
X194371285Y-102650250D01*
X194404231Y-102707314D01*
X194497417Y-102800500D01*
X194611545Y-102866392D01*
X194738839Y-102900500D01*
X194738841Y-102900500D01*
X194870621Y-102900500D01*
X194870623Y-102900500D01*
X194997917Y-102866392D01*
X195112045Y-102800500D01*
X195205231Y-102707314D01*
X195271123Y-102593186D01*
X195286953Y-102534108D01*
X195899500Y-102534108D01*
X195899500Y-102665892D01*
X195916554Y-102729539D01*
X195933608Y-102793187D01*
X195941475Y-102806812D01*
X195999500Y-102907314D01*
X196092686Y-103000500D01*
X196191521Y-103057563D01*
X196205944Y-103065890D01*
X196206814Y-103066392D01*
X196334108Y-103100500D01*
X196334110Y-103100500D01*
X196465890Y-103100500D01*
X196465892Y-103100500D01*
X196593186Y-103066392D01*
X196707314Y-103000500D01*
X196773706Y-102934108D01*
X198904231Y-102934108D01*
X198904231Y-103065891D01*
X198938339Y-103193187D01*
X198965420Y-103240092D01*
X199004231Y-103307314D01*
X199097417Y-103400500D01*
X199211545Y-103466392D01*
X199338839Y-103500500D01*
X199338841Y-103500500D01*
X199470621Y-103500500D01*
X199470623Y-103500500D01*
X199597917Y-103466392D01*
X199712045Y-103400500D01*
X199805231Y-103307314D01*
X199871123Y-103193186D01*
X199905231Y-103065892D01*
X199905231Y-102934108D01*
X199871123Y-102806814D01*
X199805231Y-102692686D01*
X199712045Y-102599500D01*
X199654981Y-102566554D01*
X199597918Y-102533608D01*
X199534270Y-102516554D01*
X199470623Y-102499500D01*
X199338839Y-102499500D01*
X199211543Y-102533608D01*
X199097417Y-102599500D01*
X199097414Y-102599502D01*
X199004233Y-102692683D01*
X199004231Y-102692686D01*
X198938339Y-102806812D01*
X198904231Y-102934108D01*
X196773706Y-102934108D01*
X196800500Y-102907314D01*
X196813023Y-102885622D01*
X196825520Y-102863980D01*
X196866390Y-102793189D01*
X196866392Y-102793186D01*
X196900500Y-102665892D01*
X196900500Y-102534108D01*
X196866392Y-102406814D01*
X196800500Y-102292686D01*
X196707314Y-102199500D01*
X196622442Y-102150499D01*
X196593187Y-102133608D01*
X196528931Y-102116391D01*
X196465892Y-102099500D01*
X196334108Y-102099500D01*
X196206812Y-102133608D01*
X196092686Y-102199500D01*
X196092683Y-102199502D01*
X195999502Y-102292683D01*
X195999500Y-102292686D01*
X195933608Y-102406812D01*
X195907995Y-102502403D01*
X195899500Y-102534108D01*
X195286953Y-102534108D01*
X195305231Y-102465892D01*
X195305231Y-102334108D01*
X195271123Y-102206814D01*
X195206327Y-102094584D01*
X195189855Y-102026688D01*
X195212707Y-101960661D01*
X195267628Y-101917470D01*
X195281600Y-101912818D01*
X195304317Y-101906732D01*
X195418445Y-101840840D01*
X195511631Y-101747654D01*
X195577523Y-101633526D01*
X195590764Y-101584108D01*
X199804231Y-101584108D01*
X199804231Y-101715892D01*
X199812232Y-101745751D01*
X199838339Y-101843187D01*
X199859408Y-101879678D01*
X199904231Y-101957314D01*
X199997417Y-102050500D01*
X200111545Y-102116392D01*
X200238839Y-102150500D01*
X200238841Y-102150500D01*
X200370621Y-102150500D01*
X200370623Y-102150500D01*
X200497917Y-102116392D01*
X200612045Y-102050500D01*
X200705231Y-101957314D01*
X200771123Y-101843186D01*
X200805231Y-101715892D01*
X200805231Y-101584108D01*
X200771123Y-101456814D01*
X200705231Y-101342686D01*
X200612045Y-101249500D01*
X200554981Y-101216554D01*
X200497918Y-101183608D01*
X200434270Y-101166554D01*
X200370623Y-101149500D01*
X200238839Y-101149500D01*
X200111543Y-101183608D01*
X199997417Y-101249500D01*
X199997414Y-101249502D01*
X199904233Y-101342683D01*
X199904231Y-101342686D01*
X199838339Y-101456812D01*
X199815008Y-101543888D01*
X199804231Y-101584108D01*
X195590764Y-101584108D01*
X195611631Y-101506232D01*
X195611631Y-101374448D01*
X195577523Y-101247154D01*
X195511631Y-101133026D01*
X195418445Y-101039840D01*
X195361230Y-101006807D01*
X195304318Y-100973948D01*
X195240670Y-100956894D01*
X195177023Y-100939840D01*
X195045239Y-100939840D01*
X194917943Y-100973948D01*
X194803817Y-101039840D01*
X194803814Y-101039842D01*
X194710633Y-101133023D01*
X194710631Y-101133026D01*
X194644739Y-101247152D01*
X194610631Y-101374448D01*
X194610631Y-101506231D01*
X194644739Y-101633527D01*
X194674016Y-101684236D01*
X194709533Y-101745753D01*
X194726006Y-101813651D01*
X194703154Y-101879678D01*
X194648233Y-101922869D01*
X194634241Y-101927526D01*
X194611546Y-101933607D01*
X194611545Y-101933607D01*
X194497417Y-101999500D01*
X194497414Y-101999502D01*
X194404233Y-102092683D01*
X194404231Y-102092686D01*
X194338339Y-102206812D01*
X194315331Y-102292683D01*
X194304231Y-102334108D01*
X184705500Y-102334108D01*
X184705500Y-99073448D01*
X194610631Y-99073448D01*
X194610631Y-99205232D01*
X194611055Y-99206814D01*
X194644739Y-99332527D01*
X194664002Y-99365890D01*
X194710631Y-99446654D01*
X194803817Y-99539840D01*
X194917945Y-99605732D01*
X195045239Y-99639840D01*
X195045241Y-99639840D01*
X195177021Y-99639840D01*
X195177023Y-99639840D01*
X195304317Y-99605732D01*
X195418445Y-99539840D01*
X195511631Y-99446654D01*
X195577523Y-99332526D01*
X195603894Y-99234108D01*
X198804231Y-99234108D01*
X198804231Y-99365891D01*
X198838339Y-99493187D01*
X198853677Y-99519752D01*
X198904231Y-99607314D01*
X198997417Y-99700500D01*
X199111545Y-99766392D01*
X199238839Y-99800500D01*
X199238841Y-99800500D01*
X199370621Y-99800500D01*
X199370623Y-99800500D01*
X199497917Y-99766392D01*
X199612045Y-99700500D01*
X199705231Y-99607314D01*
X199771123Y-99493186D01*
X199805231Y-99365892D01*
X199805231Y-99334108D01*
X218399500Y-99334108D01*
X218399500Y-99465892D01*
X218429601Y-99578229D01*
X218433608Y-99593185D01*
X218433611Y-99593192D01*
X218459481Y-99638001D01*
X218475954Y-99705901D01*
X218459481Y-99761999D01*
X218433611Y-99806807D01*
X218433608Y-99806814D01*
X218399500Y-99934108D01*
X218399500Y-100065891D01*
X218433608Y-100193185D01*
X218433611Y-100193192D01*
X218459481Y-100238001D01*
X218475954Y-100305901D01*
X218459481Y-100361999D01*
X218433611Y-100406807D01*
X218433608Y-100406814D01*
X218399500Y-100534108D01*
X218399500Y-100665891D01*
X218433608Y-100793185D01*
X218433611Y-100793192D01*
X218459481Y-100838001D01*
X218475954Y-100905901D01*
X218459481Y-100961999D01*
X218433611Y-101006807D01*
X218433608Y-101006814D01*
X218399500Y-101134108D01*
X218399500Y-101265892D01*
X218431803Y-101386447D01*
X218433608Y-101393185D01*
X218433611Y-101393192D01*
X218459481Y-101438001D01*
X218475954Y-101505901D01*
X218459481Y-101561999D01*
X218433611Y-101606807D01*
X218433608Y-101606814D01*
X218399500Y-101734108D01*
X218399500Y-101865892D01*
X218410443Y-101906732D01*
X218433608Y-101993187D01*
X218452950Y-102026688D01*
X218499500Y-102107314D01*
X218592686Y-102200500D01*
X218706814Y-102266392D01*
X218834108Y-102300500D01*
X218834110Y-102300500D01*
X218965890Y-102300500D01*
X218965892Y-102300500D01*
X219093186Y-102266392D01*
X219207314Y-102200500D01*
X219300500Y-102107314D01*
X219366392Y-101993186D01*
X219400500Y-101865892D01*
X219400500Y-101734108D01*
X219366392Y-101606814D01*
X219366391Y-101606813D01*
X219366391Y-101606811D01*
X219340519Y-101562002D01*
X219324045Y-101494102D01*
X219340519Y-101437998D01*
X219366391Y-101393188D01*
X219366392Y-101393185D01*
X219400500Y-101265892D01*
X219400500Y-101134108D01*
X219366392Y-101006814D01*
X219366391Y-101006813D01*
X219366391Y-101006811D01*
X219349640Y-100977800D01*
X219340518Y-100961999D01*
X219324045Y-100894102D01*
X219340519Y-100837998D01*
X219366391Y-100793188D01*
X219366392Y-100793185D01*
X219400500Y-100665892D01*
X219400500Y-100534108D01*
X219366392Y-100406814D01*
X219366391Y-100406813D01*
X219366391Y-100406811D01*
X219340519Y-100362002D01*
X219324045Y-100294102D01*
X219340519Y-100237998D01*
X219366391Y-100193188D01*
X219366392Y-100193185D01*
X219400500Y-100065892D01*
X219400500Y-99934108D01*
X219366392Y-99806814D01*
X219366391Y-99806813D01*
X219366391Y-99806811D01*
X219340519Y-99762002D01*
X219324045Y-99694102D01*
X219340519Y-99637998D01*
X219366391Y-99593188D01*
X219370399Y-99578230D01*
X219400500Y-99465892D01*
X219400500Y-99334108D01*
X219366392Y-99206814D01*
X219300500Y-99092686D01*
X219207314Y-98999500D01*
X219150250Y-98966554D01*
X219093187Y-98933608D01*
X219029539Y-98916554D01*
X218965892Y-98899500D01*
X218834108Y-98899500D01*
X218706812Y-98933608D01*
X218592686Y-98999500D01*
X218592683Y-98999502D01*
X218499502Y-99092683D01*
X218499500Y-99092686D01*
X218433608Y-99206812D01*
X218426294Y-99234110D01*
X218399500Y-99334108D01*
X199805231Y-99334108D01*
X199805231Y-99234108D01*
X199771123Y-99106814D01*
X199705231Y-98992686D01*
X199612045Y-98899500D01*
X199554699Y-98866391D01*
X199497918Y-98833608D01*
X199434270Y-98816554D01*
X199370623Y-98799500D01*
X199238839Y-98799500D01*
X199111543Y-98833608D01*
X198997417Y-98899500D01*
X198997414Y-98899502D01*
X198904233Y-98992683D01*
X198904231Y-98992686D01*
X198838339Y-99106812D01*
X198804231Y-99234108D01*
X195603894Y-99234108D01*
X195611631Y-99205232D01*
X195611631Y-99073448D01*
X195577523Y-98946154D01*
X195511631Y-98832026D01*
X195418445Y-98738840D01*
X195361381Y-98705894D01*
X195304318Y-98672948D01*
X195240670Y-98655894D01*
X195177023Y-98638840D01*
X195045239Y-98638840D01*
X194917943Y-98672948D01*
X194803817Y-98738840D01*
X194803814Y-98738842D01*
X194710633Y-98832023D01*
X194710631Y-98832026D01*
X194644739Y-98946152D01*
X194620549Y-99036433D01*
X194610631Y-99073448D01*
X184705500Y-99073448D01*
X184705500Y-98334108D01*
X207799500Y-98334108D01*
X207799500Y-98465891D01*
X207833608Y-98593187D01*
X207859966Y-98638840D01*
X207899500Y-98707314D01*
X207992686Y-98800500D01*
X208106814Y-98866392D01*
X208234108Y-98900500D01*
X208234110Y-98900500D01*
X208365890Y-98900500D01*
X208365892Y-98900500D01*
X208493186Y-98866392D01*
X208607314Y-98800500D01*
X208700500Y-98707314D01*
X208766392Y-98593186D01*
X208800500Y-98465892D01*
X208800500Y-98334108D01*
X208766392Y-98206814D01*
X208700500Y-98092686D01*
X208607314Y-97999500D01*
X208550250Y-97966554D01*
X208493187Y-97933608D01*
X208429539Y-97916554D01*
X208365892Y-97899500D01*
X208234108Y-97899500D01*
X208106812Y-97933608D01*
X207992686Y-97999500D01*
X207992683Y-97999502D01*
X207899502Y-98092683D01*
X207899500Y-98092686D01*
X207833608Y-98206812D01*
X207799500Y-98334108D01*
X184705500Y-98334108D01*
X184705500Y-96334108D01*
X217399500Y-96334108D01*
X217399500Y-96465892D01*
X217422681Y-96552403D01*
X217433608Y-96593185D01*
X217433611Y-96593192D01*
X217459481Y-96638001D01*
X217475954Y-96705901D01*
X217459481Y-96761999D01*
X217433611Y-96806807D01*
X217433608Y-96806814D01*
X217399500Y-96934108D01*
X217399500Y-97065892D01*
X217410109Y-97105483D01*
X217433608Y-97193185D01*
X217433611Y-97193192D01*
X217459481Y-97238001D01*
X217475954Y-97305901D01*
X217459481Y-97361999D01*
X217433611Y-97406807D01*
X217433608Y-97406814D01*
X217399500Y-97534108D01*
X217399500Y-97665892D01*
X217401675Y-97674008D01*
X217433608Y-97793187D01*
X217466554Y-97850250D01*
X217499500Y-97907314D01*
X217592686Y-98000500D01*
X217706814Y-98066392D01*
X217834108Y-98100500D01*
X217834110Y-98100500D01*
X217965890Y-98100500D01*
X217965892Y-98100500D01*
X218093186Y-98066392D01*
X218207314Y-98000500D01*
X218300500Y-97907314D01*
X218366392Y-97793186D01*
X218400500Y-97665892D01*
X218400500Y-97534108D01*
X218366392Y-97406814D01*
X218366391Y-97406813D01*
X218366391Y-97406811D01*
X218340519Y-97362002D01*
X218324045Y-97294102D01*
X218340519Y-97237998D01*
X218366391Y-97193188D01*
X218366392Y-97193185D01*
X218400500Y-97065892D01*
X218400500Y-96946530D01*
X220534500Y-96946530D01*
X220534500Y-97153469D01*
X220574868Y-97356412D01*
X220574870Y-97356420D01*
X220654058Y-97547596D01*
X220769024Y-97719657D01*
X220915342Y-97865975D01*
X220915345Y-97865977D01*
X221087402Y-97980941D01*
X221278580Y-98060130D01*
X221481530Y-98100499D01*
X221481534Y-98100500D01*
X221481535Y-98100500D01*
X221688466Y-98100500D01*
X221688467Y-98100499D01*
X221891420Y-98060130D01*
X222082598Y-97980941D01*
X222254655Y-97865977D01*
X222400977Y-97719655D01*
X222515941Y-97547598D01*
X222595130Y-97356420D01*
X222635500Y-97153465D01*
X222635500Y-96946535D01*
X222635499Y-96946530D01*
X223034500Y-96946530D01*
X223034500Y-97153469D01*
X223074868Y-97356412D01*
X223074870Y-97356420D01*
X223154058Y-97547596D01*
X223269024Y-97719657D01*
X223415342Y-97865975D01*
X223415345Y-97865977D01*
X223587402Y-97980941D01*
X223778580Y-98060130D01*
X223981530Y-98100499D01*
X223981534Y-98100500D01*
X223981535Y-98100500D01*
X224188466Y-98100500D01*
X224188467Y-98100499D01*
X224391420Y-98060130D01*
X224582598Y-97980941D01*
X224754655Y-97865977D01*
X224900977Y-97719655D01*
X225015941Y-97547598D01*
X225095130Y-97356420D01*
X225135500Y-97153465D01*
X225135500Y-96946535D01*
X225095130Y-96743580D01*
X225015941Y-96552402D01*
X224900977Y-96380345D01*
X224900974Y-96380341D01*
X224854741Y-96334108D01*
X227299500Y-96334108D01*
X227299500Y-96465892D01*
X227322681Y-96552403D01*
X227333608Y-96593185D01*
X227333611Y-96593192D01*
X227359481Y-96638001D01*
X227375954Y-96705901D01*
X227359481Y-96761999D01*
X227333611Y-96806807D01*
X227333608Y-96806814D01*
X227299500Y-96934108D01*
X227299500Y-97065892D01*
X227310109Y-97105483D01*
X227333608Y-97193185D01*
X227333611Y-97193192D01*
X227359481Y-97238001D01*
X227375954Y-97305901D01*
X227359481Y-97361999D01*
X227333611Y-97406807D01*
X227333608Y-97406814D01*
X227299500Y-97534108D01*
X227299500Y-97665892D01*
X227301675Y-97674008D01*
X227333608Y-97793187D01*
X227366554Y-97850250D01*
X227399500Y-97907314D01*
X227492686Y-98000500D01*
X227606814Y-98066392D01*
X227734108Y-98100500D01*
X227734110Y-98100500D01*
X227865890Y-98100500D01*
X227865892Y-98100500D01*
X227993186Y-98066392D01*
X228107314Y-98000500D01*
X228200500Y-97907314D01*
X228266392Y-97793186D01*
X228300500Y-97665892D01*
X228300500Y-97534108D01*
X228266392Y-97406814D01*
X228266391Y-97406813D01*
X228266391Y-97406811D01*
X228240519Y-97362002D01*
X228224045Y-97294102D01*
X228240519Y-97237998D01*
X228266391Y-97193188D01*
X228266392Y-97193185D01*
X228300500Y-97065892D01*
X228300500Y-96963389D01*
X230164500Y-96963389D01*
X230164500Y-97136611D01*
X230167170Y-97153466D01*
X230186020Y-97272487D01*
X230191598Y-97307701D01*
X230245127Y-97472445D01*
X230323768Y-97626788D01*
X230425586Y-97766928D01*
X230548072Y-97889414D01*
X230688212Y-97991232D01*
X230842555Y-98069873D01*
X231007299Y-98123402D01*
X231178389Y-98150500D01*
X231178390Y-98150500D01*
X231351610Y-98150500D01*
X231351611Y-98150500D01*
X231522701Y-98123402D01*
X231687445Y-98069873D01*
X231841788Y-97991232D01*
X231981928Y-97889414D01*
X232104414Y-97766928D01*
X232206232Y-97626788D01*
X232284873Y-97472445D01*
X232338402Y-97307701D01*
X232365500Y-97136611D01*
X232365500Y-96963389D01*
X232338402Y-96792299D01*
X232284873Y-96627555D01*
X232206232Y-96473212D01*
X232104414Y-96333072D01*
X231981928Y-96210586D01*
X231841788Y-96108768D01*
X231687445Y-96030127D01*
X231522701Y-95976598D01*
X231522699Y-95976597D01*
X231522698Y-95976597D01*
X231391271Y-95955781D01*
X231351611Y-95949500D01*
X231178389Y-95949500D01*
X231138728Y-95955781D01*
X231007302Y-95976597D01*
X230842552Y-96030128D01*
X230688211Y-96108768D01*
X230608256Y-96166859D01*
X230548072Y-96210586D01*
X230548070Y-96210588D01*
X230548069Y-96210588D01*
X230425588Y-96333069D01*
X230425588Y-96333070D01*
X230425586Y-96333072D01*
X230424832Y-96334110D01*
X230323768Y-96473211D01*
X230245128Y-96627552D01*
X230191597Y-96792302D01*
X230189299Y-96806814D01*
X230164500Y-96963389D01*
X228300500Y-96963389D01*
X228300500Y-96934108D01*
X228266392Y-96806814D01*
X228266391Y-96806813D01*
X228266391Y-96806811D01*
X228240519Y-96762002D01*
X228224045Y-96694102D01*
X228240519Y-96637998D01*
X228246549Y-96627555D01*
X228266392Y-96593186D01*
X228300500Y-96465892D01*
X228300500Y-96334108D01*
X228266392Y-96206814D01*
X228200500Y-96092686D01*
X228107314Y-95999500D01*
X228020712Y-95949500D01*
X227993187Y-95933608D01*
X227929539Y-95916554D01*
X227865892Y-95899500D01*
X227734108Y-95899500D01*
X227606812Y-95933608D01*
X227492686Y-95999500D01*
X227492683Y-95999502D01*
X227399502Y-96092683D01*
X227399500Y-96092686D01*
X227333608Y-96206812D01*
X227326317Y-96234023D01*
X227299500Y-96334108D01*
X224854741Y-96334108D01*
X224754657Y-96234024D01*
X224668626Y-96176541D01*
X224582598Y-96119059D01*
X224557753Y-96108768D01*
X224391420Y-96039870D01*
X224391412Y-96039868D01*
X224188469Y-95999500D01*
X224188465Y-95999500D01*
X223981535Y-95999500D01*
X223981530Y-95999500D01*
X223778587Y-96039868D01*
X223778579Y-96039870D01*
X223587403Y-96119058D01*
X223415342Y-96234024D01*
X223269024Y-96380342D01*
X223154058Y-96552403D01*
X223074870Y-96743579D01*
X223074868Y-96743587D01*
X223034500Y-96946530D01*
X222635499Y-96946530D01*
X222595130Y-96743580D01*
X222515941Y-96552402D01*
X222400977Y-96380345D01*
X222400975Y-96380342D01*
X222254657Y-96234024D01*
X222168626Y-96176541D01*
X222082598Y-96119059D01*
X222057753Y-96108768D01*
X221891420Y-96039870D01*
X221891412Y-96039868D01*
X221688469Y-95999500D01*
X221688465Y-95999500D01*
X221481535Y-95999500D01*
X221481530Y-95999500D01*
X221278587Y-96039868D01*
X221278579Y-96039870D01*
X221087403Y-96119058D01*
X220915342Y-96234024D01*
X220769024Y-96380342D01*
X220654058Y-96552403D01*
X220574870Y-96743579D01*
X220574868Y-96743587D01*
X220534500Y-96946530D01*
X218400500Y-96946530D01*
X218400500Y-96934108D01*
X218366392Y-96806814D01*
X218366391Y-96806813D01*
X218366391Y-96806811D01*
X218340519Y-96762002D01*
X218324045Y-96694102D01*
X218340519Y-96637998D01*
X218346549Y-96627555D01*
X218366392Y-96593186D01*
X218400500Y-96465892D01*
X218400500Y-96334108D01*
X218366392Y-96206814D01*
X218300500Y-96092686D01*
X218207314Y-95999500D01*
X218120712Y-95949500D01*
X218093187Y-95933608D01*
X218029539Y-95916554D01*
X217965892Y-95899500D01*
X217834108Y-95899500D01*
X217706812Y-95933608D01*
X217592686Y-95999500D01*
X217592683Y-95999502D01*
X217499502Y-96092683D01*
X217499500Y-96092686D01*
X217433608Y-96206812D01*
X217426317Y-96234023D01*
X217399500Y-96334108D01*
X184705500Y-96334108D01*
X184705500Y-93834108D01*
X218399500Y-93834108D01*
X218399500Y-93965892D01*
X218422681Y-94052403D01*
X218433608Y-94093185D01*
X218433611Y-94093192D01*
X218459481Y-94138001D01*
X218475954Y-94205901D01*
X218459481Y-94261999D01*
X218433611Y-94306807D01*
X218433608Y-94306814D01*
X218399500Y-94434108D01*
X218399500Y-94565891D01*
X218433608Y-94693185D01*
X218433611Y-94693192D01*
X218459481Y-94738001D01*
X218475954Y-94805901D01*
X218459481Y-94861999D01*
X218433611Y-94906807D01*
X218433608Y-94906814D01*
X218399500Y-95034108D01*
X218399500Y-95165891D01*
X218433608Y-95293187D01*
X218466554Y-95350250D01*
X218499500Y-95407314D01*
X218592686Y-95500500D01*
X218706814Y-95566392D01*
X218834108Y-95600500D01*
X218834110Y-95600500D01*
X218965890Y-95600500D01*
X218965892Y-95600500D01*
X219093186Y-95566392D01*
X219207314Y-95500500D01*
X219300500Y-95407314D01*
X219366392Y-95293186D01*
X219400500Y-95165892D01*
X219400500Y-95034108D01*
X219366392Y-94906814D01*
X219366391Y-94906813D01*
X219366391Y-94906811D01*
X219340519Y-94862002D01*
X219324045Y-94794102D01*
X219340519Y-94737998D01*
X219366391Y-94693188D01*
X219366392Y-94693185D01*
X219400500Y-94565892D01*
X219400500Y-94446530D01*
X220534500Y-94446530D01*
X220534500Y-94653469D01*
X220574868Y-94856412D01*
X220574870Y-94856420D01*
X220654058Y-95047596D01*
X220769024Y-95219657D01*
X220915342Y-95365975D01*
X220915345Y-95365977D01*
X221087402Y-95480941D01*
X221278580Y-95560130D01*
X221481530Y-95600499D01*
X221481534Y-95600500D01*
X221481535Y-95600500D01*
X221688466Y-95600500D01*
X221688467Y-95600499D01*
X221891420Y-95560130D01*
X222082598Y-95480941D01*
X222254655Y-95365977D01*
X222400977Y-95219655D01*
X222515941Y-95047598D01*
X222595130Y-94856420D01*
X222635500Y-94653465D01*
X222635500Y-94446535D01*
X222635499Y-94446530D01*
X223034500Y-94446530D01*
X223034500Y-94653469D01*
X223074868Y-94856412D01*
X223074870Y-94856420D01*
X223154058Y-95047596D01*
X223269024Y-95219657D01*
X223415342Y-95365975D01*
X223415345Y-95365977D01*
X223587402Y-95480941D01*
X223778580Y-95560130D01*
X223981530Y-95600499D01*
X223981534Y-95600500D01*
X223981535Y-95600500D01*
X224188466Y-95600500D01*
X224188467Y-95600499D01*
X224391420Y-95560130D01*
X224582598Y-95480941D01*
X224754655Y-95365977D01*
X224900977Y-95219655D01*
X225015941Y-95047598D01*
X225095130Y-94856420D01*
X225135500Y-94653465D01*
X225135500Y-94446535D01*
X225095130Y-94243580D01*
X225015941Y-94052402D01*
X224900977Y-93880345D01*
X224900974Y-93880341D01*
X224854741Y-93834108D01*
X226299500Y-93834108D01*
X226299500Y-93965892D01*
X226322681Y-94052403D01*
X226333608Y-94093185D01*
X226333611Y-94093192D01*
X226359481Y-94138001D01*
X226375954Y-94205901D01*
X226359481Y-94261999D01*
X226333611Y-94306807D01*
X226333608Y-94306814D01*
X226299500Y-94434108D01*
X226299500Y-94565891D01*
X226333608Y-94693185D01*
X226333611Y-94693192D01*
X226359481Y-94738001D01*
X226375954Y-94805901D01*
X226359481Y-94861999D01*
X226333611Y-94906807D01*
X226333608Y-94906814D01*
X226299500Y-95034108D01*
X226299500Y-95165891D01*
X226333608Y-95293187D01*
X226366554Y-95350250D01*
X226399500Y-95407314D01*
X226492686Y-95500500D01*
X226606814Y-95566392D01*
X226734108Y-95600500D01*
X226734110Y-95600500D01*
X226865890Y-95600500D01*
X226865892Y-95600500D01*
X226993186Y-95566392D01*
X227107314Y-95500500D01*
X227200500Y-95407314D01*
X227266392Y-95293186D01*
X227300500Y-95165892D01*
X227300500Y-95034108D01*
X227266392Y-94906814D01*
X227266391Y-94906813D01*
X227266391Y-94906811D01*
X227240519Y-94862002D01*
X227224045Y-94794102D01*
X227240519Y-94737998D01*
X227266391Y-94693188D01*
X227266392Y-94693185D01*
X227300500Y-94565892D01*
X227300500Y-94434108D01*
X227266392Y-94306814D01*
X227266391Y-94306813D01*
X227266391Y-94306811D01*
X227240519Y-94262002D01*
X227224045Y-94194102D01*
X227240519Y-94137998D01*
X227266391Y-94093188D01*
X227266392Y-94093185D01*
X227300500Y-93965892D01*
X227300500Y-93834108D01*
X227266392Y-93706814D01*
X227200500Y-93592686D01*
X227107314Y-93499500D01*
X227050250Y-93466554D01*
X226993187Y-93433608D01*
X226929539Y-93416554D01*
X226865892Y-93399500D01*
X226734108Y-93399500D01*
X226606812Y-93433608D01*
X226492686Y-93499500D01*
X226492683Y-93499502D01*
X226399502Y-93592683D01*
X226399500Y-93592686D01*
X226333608Y-93706812D01*
X226326317Y-93734023D01*
X226299500Y-93834108D01*
X224854741Y-93834108D01*
X224754657Y-93734024D01*
X224668626Y-93676541D01*
X224582598Y-93619059D01*
X224518928Y-93592686D01*
X224391420Y-93539870D01*
X224391412Y-93539868D01*
X224188469Y-93499500D01*
X224188465Y-93499500D01*
X223981535Y-93499500D01*
X223981530Y-93499500D01*
X223778587Y-93539868D01*
X223778579Y-93539870D01*
X223587403Y-93619058D01*
X223415342Y-93734024D01*
X223269024Y-93880342D01*
X223154058Y-94052403D01*
X223074870Y-94243579D01*
X223074868Y-94243587D01*
X223034500Y-94446530D01*
X222635499Y-94446530D01*
X222595130Y-94243580D01*
X222515941Y-94052402D01*
X222400977Y-93880345D01*
X222400975Y-93880342D01*
X222254657Y-93734024D01*
X222168626Y-93676541D01*
X222082598Y-93619059D01*
X222018928Y-93592686D01*
X221891420Y-93539870D01*
X221891412Y-93539868D01*
X221688469Y-93499500D01*
X221688465Y-93499500D01*
X221481535Y-93499500D01*
X221481530Y-93499500D01*
X221278587Y-93539868D01*
X221278579Y-93539870D01*
X221087403Y-93619058D01*
X220915342Y-93734024D01*
X220769024Y-93880342D01*
X220654058Y-94052403D01*
X220574870Y-94243579D01*
X220574868Y-94243587D01*
X220534500Y-94446530D01*
X219400500Y-94446530D01*
X219400500Y-94434108D01*
X219366392Y-94306814D01*
X219366391Y-94306813D01*
X219366391Y-94306811D01*
X219340519Y-94262002D01*
X219324045Y-94194102D01*
X219340519Y-94137998D01*
X219366391Y-94093188D01*
X219366392Y-94093185D01*
X219400500Y-93965892D01*
X219400500Y-93834108D01*
X219366392Y-93706814D01*
X219300500Y-93592686D01*
X219207314Y-93499500D01*
X219150250Y-93466554D01*
X219093187Y-93433608D01*
X219029539Y-93416554D01*
X218965892Y-93399500D01*
X218834108Y-93399500D01*
X218706812Y-93433608D01*
X218592686Y-93499500D01*
X218592683Y-93499502D01*
X218499502Y-93592683D01*
X218499500Y-93592686D01*
X218433608Y-93706812D01*
X218426317Y-93734023D01*
X218399500Y-93834108D01*
X184705500Y-93834108D01*
X184705500Y-92024500D01*
X184725185Y-91957461D01*
X184777989Y-91911706D01*
X184829500Y-91900500D01*
X215894486Y-91900500D01*
X216081118Y-91870940D01*
X216260832Y-91812547D01*
X216429199Y-91726760D01*
X216582074Y-91615690D01*
X217410944Y-90786818D01*
X217472267Y-90753334D01*
X217498625Y-90750500D01*
X224179486Y-90750500D01*
X224366118Y-90720940D01*
X224545832Y-90662547D01*
X224714199Y-90576760D01*
X224867073Y-90465690D01*
X225000690Y-90332073D01*
X225111760Y-90179199D01*
X225197547Y-90010832D01*
X225255940Y-89831118D01*
X225259649Y-89807701D01*
X225285500Y-89644486D01*
X225285500Y-89463389D01*
X230164500Y-89463389D01*
X230164500Y-89636611D01*
X230191598Y-89807701D01*
X230245127Y-89972445D01*
X230323768Y-90126788D01*
X230425586Y-90266928D01*
X230548072Y-90389414D01*
X230688212Y-90491232D01*
X230842555Y-90569873D01*
X231007299Y-90623402D01*
X231178389Y-90650500D01*
X231178390Y-90650500D01*
X231351610Y-90650500D01*
X231351611Y-90650500D01*
X231522701Y-90623402D01*
X231687445Y-90569873D01*
X231841788Y-90491232D01*
X231981928Y-90389414D01*
X232104414Y-90266928D01*
X232206232Y-90126788D01*
X232284873Y-89972445D01*
X232338402Y-89807701D01*
X232365500Y-89636611D01*
X232365500Y-89463389D01*
X232338402Y-89292299D01*
X232284873Y-89127555D01*
X232206232Y-88973212D01*
X232104414Y-88833072D01*
X231981928Y-88710586D01*
X231841788Y-88608768D01*
X231687445Y-88530127D01*
X231522701Y-88476598D01*
X231522699Y-88476597D01*
X231522698Y-88476597D01*
X231391271Y-88455781D01*
X231351611Y-88449500D01*
X231178389Y-88449500D01*
X231138728Y-88455781D01*
X231007302Y-88476597D01*
X230842552Y-88530128D01*
X230688211Y-88608768D01*
X230608256Y-88666859D01*
X230548072Y-88710586D01*
X230548070Y-88710588D01*
X230548069Y-88710588D01*
X230425588Y-88833069D01*
X230425588Y-88833070D01*
X230425586Y-88833072D01*
X230381859Y-88893256D01*
X230323768Y-88973211D01*
X230245128Y-89127552D01*
X230191597Y-89292302D01*
X230178420Y-89375500D01*
X230164500Y-89463389D01*
X225285500Y-89463389D01*
X225285500Y-89455513D01*
X225255940Y-89268881D01*
X225197545Y-89089163D01*
X225152290Y-89000347D01*
X225111760Y-88920801D01*
X225000690Y-88767927D01*
X224867073Y-88634310D01*
X224714199Y-88523240D01*
X224545836Y-88437454D01*
X224366118Y-88379059D01*
X224179486Y-88349500D01*
X224179481Y-88349500D01*
X221679481Y-88349500D01*
X217044482Y-88349500D01*
X216855519Y-88349500D01*
X216855514Y-88349500D01*
X216668881Y-88379059D01*
X216489163Y-88437454D01*
X216320800Y-88523240D01*
X216233579Y-88586610D01*
X216167927Y-88634310D01*
X216167925Y-88634312D01*
X216167924Y-88634312D01*
X215339055Y-89463181D01*
X215277732Y-89496666D01*
X215251374Y-89499500D01*
X184829500Y-89499500D01*
X184762461Y-89479815D01*
X184716706Y-89427011D01*
X184705500Y-89375500D01*
X184705500Y-87447472D01*
X194612864Y-87447472D01*
X194612864Y-87579255D01*
X194646972Y-87706551D01*
X194679918Y-87763614D01*
X194712864Y-87820678D01*
X194806050Y-87913864D01*
X194920178Y-87979756D01*
X195047472Y-88013864D01*
X195047474Y-88013864D01*
X195179254Y-88013864D01*
X195179256Y-88013864D01*
X195306550Y-87979756D01*
X195420678Y-87913864D01*
X195513864Y-87820678D01*
X195579756Y-87706550D01*
X195613864Y-87579256D01*
X195613864Y-87447472D01*
X195579756Y-87320178D01*
X195513864Y-87206050D01*
X195420678Y-87112864D01*
X195363614Y-87079918D01*
X195306551Y-87046972D01*
X195242903Y-87029918D01*
X195179256Y-87012864D01*
X195047472Y-87012864D01*
X194920176Y-87046972D01*
X194806050Y-87112864D01*
X194806047Y-87112866D01*
X194712866Y-87206047D01*
X194712864Y-87206050D01*
X194646972Y-87320176D01*
X194612864Y-87447472D01*
X184705500Y-87447472D01*
X184705500Y-84834108D01*
X194304231Y-84834108D01*
X194304231Y-84965892D01*
X194313236Y-84999500D01*
X194338339Y-85093187D01*
X194371285Y-85150250D01*
X194404231Y-85207314D01*
X194497417Y-85300500D01*
X194611545Y-85366392D01*
X194738839Y-85400500D01*
X194738841Y-85400500D01*
X194870621Y-85400500D01*
X194870623Y-85400500D01*
X194997917Y-85366392D01*
X195112045Y-85300500D01*
X195205231Y-85207314D01*
X195271123Y-85093186D01*
X195286953Y-85034108D01*
X195899500Y-85034108D01*
X195899500Y-85165892D01*
X195916554Y-85229539D01*
X195933608Y-85293187D01*
X195952551Y-85325996D01*
X195999500Y-85407314D01*
X196092686Y-85500500D01*
X196154924Y-85536433D01*
X196205944Y-85565890D01*
X196206814Y-85566392D01*
X196334108Y-85600500D01*
X196334110Y-85600500D01*
X196465890Y-85600500D01*
X196465892Y-85600500D01*
X196593186Y-85566392D01*
X196707314Y-85500500D01*
X196773706Y-85434108D01*
X198904231Y-85434108D01*
X198904231Y-85565891D01*
X198938339Y-85693187D01*
X198958157Y-85727512D01*
X199004231Y-85807314D01*
X199097417Y-85900500D01*
X199211545Y-85966392D01*
X199338839Y-86000500D01*
X199338841Y-86000500D01*
X199470621Y-86000500D01*
X199470623Y-86000500D01*
X199597917Y-85966392D01*
X199712045Y-85900500D01*
X199805231Y-85807314D01*
X199871123Y-85693186D01*
X199905231Y-85565892D01*
X199905231Y-85434108D01*
X199871123Y-85306814D01*
X199805231Y-85192686D01*
X199712045Y-85099500D01*
X199654981Y-85066554D01*
X199597918Y-85033608D01*
X199534270Y-85016554D01*
X199470623Y-84999500D01*
X199338839Y-84999500D01*
X199211543Y-85033608D01*
X199097417Y-85099500D01*
X199097414Y-85099502D01*
X199004233Y-85192683D01*
X199004231Y-85192686D01*
X198938339Y-85306812D01*
X198904231Y-85434108D01*
X196773706Y-85434108D01*
X196800500Y-85407314D01*
X196813023Y-85385622D01*
X196825520Y-85363980D01*
X196866390Y-85293189D01*
X196866392Y-85293186D01*
X196900500Y-85165892D01*
X196900500Y-85034108D01*
X196866392Y-84906814D01*
X196800500Y-84792686D01*
X196707314Y-84699500D01*
X196622442Y-84650499D01*
X196593187Y-84633608D01*
X196528931Y-84616391D01*
X196465892Y-84599500D01*
X196334108Y-84599500D01*
X196206812Y-84633608D01*
X196092686Y-84699500D01*
X196092683Y-84699502D01*
X195999502Y-84792683D01*
X195999500Y-84792686D01*
X195933608Y-84906812D01*
X195917778Y-84965892D01*
X195899500Y-85034108D01*
X195286953Y-85034108D01*
X195305231Y-84965892D01*
X195305231Y-84834108D01*
X195271123Y-84706814D01*
X195266901Y-84699502D01*
X195227872Y-84631902D01*
X195205231Y-84592686D01*
X195205229Y-84592684D01*
X195201167Y-84585648D01*
X195204183Y-84583906D01*
X195184753Y-84533709D01*
X195198764Y-84465258D01*
X195247557Y-84415248D01*
X195276221Y-84403568D01*
X195318921Y-84392127D01*
X195433049Y-84326235D01*
X195526235Y-84233049D01*
X195592127Y-84118921D01*
X195601455Y-84084108D01*
X199804231Y-84084108D01*
X199804231Y-84215892D01*
X199821285Y-84279539D01*
X199838339Y-84343187D01*
X199848351Y-84360528D01*
X199904231Y-84457314D01*
X199997417Y-84550500D01*
X200111545Y-84616392D01*
X200238839Y-84650500D01*
X200238841Y-84650500D01*
X200370621Y-84650500D01*
X200370623Y-84650500D01*
X200497917Y-84616392D01*
X200612045Y-84550500D01*
X200705231Y-84457314D01*
X200771123Y-84343186D01*
X200805231Y-84215892D01*
X200805231Y-84084108D01*
X200771123Y-83956814D01*
X200705231Y-83842686D01*
X200612045Y-83749500D01*
X200545001Y-83710792D01*
X200497918Y-83683608D01*
X200434270Y-83666554D01*
X200370623Y-83649500D01*
X200238839Y-83649500D01*
X200111543Y-83683608D01*
X199997417Y-83749500D01*
X199997414Y-83749502D01*
X199904233Y-83842683D01*
X199904231Y-83842686D01*
X199838339Y-83956812D01*
X199824807Y-84007316D01*
X199804231Y-84084108D01*
X195601455Y-84084108D01*
X195626235Y-83991627D01*
X195626235Y-83859843D01*
X195592127Y-83732549D01*
X195526235Y-83618421D01*
X195433049Y-83525235D01*
X195375985Y-83492289D01*
X195318922Y-83459343D01*
X195230325Y-83435604D01*
X195191627Y-83425235D01*
X195059843Y-83425235D01*
X194932547Y-83459343D01*
X194818421Y-83525235D01*
X194818418Y-83525237D01*
X194725237Y-83618418D01*
X194725235Y-83618421D01*
X194659343Y-83732547D01*
X194641136Y-83800499D01*
X194625235Y-83859843D01*
X194625235Y-83991627D01*
X194629438Y-84007313D01*
X194659343Y-84118922D01*
X194686750Y-84166391D01*
X194725235Y-84233049D01*
X194725236Y-84233050D01*
X194729299Y-84240087D01*
X194726290Y-84241824D01*
X194745717Y-84292085D01*
X194731673Y-84360528D01*
X194682856Y-84410515D01*
X194654242Y-84422167D01*
X194611545Y-84433608D01*
X194611544Y-84433608D01*
X194611542Y-84433609D01*
X194497417Y-84499500D01*
X194497414Y-84499502D01*
X194404233Y-84592683D01*
X194404231Y-84592686D01*
X194338339Y-84706812D01*
X194315331Y-84792683D01*
X194304231Y-84834108D01*
X184705500Y-84834108D01*
X184705500Y-82734108D01*
X216799500Y-82734108D01*
X216799500Y-82865892D01*
X216828603Y-82974505D01*
X216833608Y-82993185D01*
X216833611Y-82993192D01*
X216859481Y-83038001D01*
X216875954Y-83105901D01*
X216859481Y-83161999D01*
X216833611Y-83206807D01*
X216833608Y-83206814D01*
X216799500Y-83334108D01*
X216799500Y-83465891D01*
X216833608Y-83593187D01*
X216866121Y-83649500D01*
X216899500Y-83707314D01*
X216992686Y-83800500D01*
X217106814Y-83866392D01*
X217234108Y-83900500D01*
X217234110Y-83900500D01*
X217366240Y-83900500D01*
X217433279Y-83920185D01*
X217473627Y-83962501D01*
X217490443Y-83991627D01*
X217499500Y-84007314D01*
X217592686Y-84100500D01*
X217706814Y-84166392D01*
X217834108Y-84200500D01*
X217834110Y-84200500D01*
X217965890Y-84200500D01*
X217965892Y-84200500D01*
X218093186Y-84166392D01*
X218207314Y-84100500D01*
X218300500Y-84007314D01*
X218366392Y-83893186D01*
X218400500Y-83765892D01*
X218400500Y-83634108D01*
X218366392Y-83506814D01*
X218366391Y-83506813D01*
X218366391Y-83506811D01*
X218342765Y-83465892D01*
X218340518Y-83462000D01*
X218324045Y-83394102D01*
X218340519Y-83337998D01*
X218366391Y-83293188D01*
X218367055Y-83290711D01*
X218400500Y-83165892D01*
X218400500Y-83034108D01*
X218366392Y-82906814D01*
X218366391Y-82906813D01*
X218366391Y-82906811D01*
X218342765Y-82865892D01*
X218340518Y-82862000D01*
X218324045Y-82794102D01*
X218340519Y-82737998D01*
X218345366Y-82729604D01*
X218366392Y-82693186D01*
X218400500Y-82565892D01*
X218400500Y-82434108D01*
X218366392Y-82306814D01*
X218366391Y-82306813D01*
X218366391Y-82306811D01*
X218340519Y-82262002D01*
X218324045Y-82194102D01*
X218340519Y-82137998D01*
X218366391Y-82093188D01*
X218373571Y-82066392D01*
X218400500Y-81965892D01*
X218400500Y-81846530D01*
X220534500Y-81846530D01*
X220534500Y-82053469D01*
X220574868Y-82256412D01*
X220574870Y-82256420D01*
X220654058Y-82447596D01*
X220769024Y-82619657D01*
X220915342Y-82765975D01*
X220915345Y-82765977D01*
X221087402Y-82880941D01*
X221278580Y-82960130D01*
X221444760Y-82993185D01*
X221481530Y-83000499D01*
X221481534Y-83000500D01*
X221481535Y-83000500D01*
X221688466Y-83000500D01*
X221688467Y-83000499D01*
X221891420Y-82960130D01*
X222082598Y-82880941D01*
X222254655Y-82765977D01*
X222400977Y-82619655D01*
X222515941Y-82447598D01*
X222595130Y-82256420D01*
X222635500Y-82053465D01*
X222635500Y-81846535D01*
X222635499Y-81846530D01*
X223034500Y-81846530D01*
X223034500Y-82053469D01*
X223074868Y-82256412D01*
X223074870Y-82256420D01*
X223154058Y-82447596D01*
X223269024Y-82619657D01*
X223415342Y-82765975D01*
X223415345Y-82765977D01*
X223587402Y-82880941D01*
X223778580Y-82960130D01*
X223944760Y-82993185D01*
X223981530Y-83000499D01*
X223981534Y-83000500D01*
X223981535Y-83000500D01*
X224188466Y-83000500D01*
X224188467Y-83000499D01*
X224391420Y-82960130D01*
X224582598Y-82880941D01*
X224754655Y-82765977D01*
X224900977Y-82619655D01*
X225015941Y-82447598D01*
X225095130Y-82256420D01*
X225135500Y-82053465D01*
X225135500Y-81846535D01*
X225095130Y-81643580D01*
X225015941Y-81452402D01*
X224900977Y-81280345D01*
X224900974Y-81280341D01*
X224854741Y-81234108D01*
X227299500Y-81234108D01*
X227299500Y-81365892D01*
X227322681Y-81452403D01*
X227333608Y-81493185D01*
X227333611Y-81493192D01*
X227359481Y-81538001D01*
X227375954Y-81605901D01*
X227359481Y-81661999D01*
X227333611Y-81706807D01*
X227333608Y-81706814D01*
X227299500Y-81834108D01*
X227299500Y-81965892D01*
X227326429Y-82066391D01*
X227333608Y-82093185D01*
X227333611Y-82093192D01*
X227359481Y-82138001D01*
X227375954Y-82205901D01*
X227359481Y-82261999D01*
X227333611Y-82306807D01*
X227333608Y-82306814D01*
X227299500Y-82434108D01*
X227299500Y-82565891D01*
X227333608Y-82693187D01*
X227333609Y-82693188D01*
X227399500Y-82807314D01*
X227492686Y-82900500D01*
X227606814Y-82966392D01*
X227734108Y-83000500D01*
X227734110Y-83000500D01*
X227865890Y-83000500D01*
X227865892Y-83000500D01*
X227993186Y-82966392D01*
X228107314Y-82900500D01*
X228200500Y-82807314D01*
X228266392Y-82693186D01*
X228300500Y-82565892D01*
X228300500Y-82434108D01*
X228266392Y-82306814D01*
X228266391Y-82306813D01*
X228266391Y-82306811D01*
X228240519Y-82262002D01*
X228224045Y-82194102D01*
X228240519Y-82137998D01*
X228266391Y-82093188D01*
X228273571Y-82066392D01*
X228300500Y-81965892D01*
X228300500Y-81863389D01*
X230164500Y-81863389D01*
X230164500Y-82036611D01*
X230167170Y-82053466D01*
X230180558Y-82138001D01*
X230191598Y-82207701D01*
X230245127Y-82372445D01*
X230323768Y-82526788D01*
X230425586Y-82666928D01*
X230548072Y-82789414D01*
X230688212Y-82891232D01*
X230842555Y-82969873D01*
X231007299Y-83023402D01*
X231178389Y-83050500D01*
X231178390Y-83050500D01*
X231351610Y-83050500D01*
X231351611Y-83050500D01*
X231522701Y-83023402D01*
X231687445Y-82969873D01*
X231841788Y-82891232D01*
X231981928Y-82789414D01*
X232104414Y-82666928D01*
X232206232Y-82526788D01*
X232284873Y-82372445D01*
X232338402Y-82207701D01*
X232365500Y-82036611D01*
X232365500Y-81863389D01*
X232338402Y-81692299D01*
X232284873Y-81527555D01*
X232206232Y-81373212D01*
X232104414Y-81233072D01*
X231981928Y-81110586D01*
X231841788Y-81008768D01*
X231687445Y-80930127D01*
X231522701Y-80876598D01*
X231522699Y-80876597D01*
X231522698Y-80876597D01*
X231391271Y-80855781D01*
X231351611Y-80849500D01*
X231178389Y-80849500D01*
X231138728Y-80855781D01*
X231007302Y-80876597D01*
X230842552Y-80930128D01*
X230688211Y-81008768D01*
X230608256Y-81066859D01*
X230548072Y-81110586D01*
X230548070Y-81110588D01*
X230548069Y-81110588D01*
X230425588Y-81233069D01*
X230425588Y-81233070D01*
X230425586Y-81233072D01*
X230424832Y-81234110D01*
X230323768Y-81373211D01*
X230245128Y-81527552D01*
X230191597Y-81692302D01*
X230175619Y-81793186D01*
X230164500Y-81863389D01*
X228300500Y-81863389D01*
X228300500Y-81834108D01*
X228266392Y-81706814D01*
X228266391Y-81706813D01*
X228266391Y-81706811D01*
X228242765Y-81665892D01*
X228240518Y-81661999D01*
X228224045Y-81594102D01*
X228240519Y-81537998D01*
X228246549Y-81527555D01*
X228266392Y-81493186D01*
X228300500Y-81365892D01*
X228300500Y-81234108D01*
X228266392Y-81106814D01*
X228200500Y-80992686D01*
X228107314Y-80899500D01*
X228020712Y-80849500D01*
X227993187Y-80833608D01*
X227929539Y-80816554D01*
X227865892Y-80799500D01*
X227734108Y-80799500D01*
X227606812Y-80833608D01*
X227492686Y-80899500D01*
X227492683Y-80899502D01*
X227399502Y-80992683D01*
X227399500Y-80992686D01*
X227333608Y-81106812D01*
X227306680Y-81207313D01*
X227299500Y-81234108D01*
X224854741Y-81234108D01*
X224754657Y-81134024D01*
X224668626Y-81076541D01*
X224582598Y-81019059D01*
X224557753Y-81008768D01*
X224391420Y-80939870D01*
X224391412Y-80939868D01*
X224188469Y-80899500D01*
X224188465Y-80899500D01*
X223981535Y-80899500D01*
X223981530Y-80899500D01*
X223778587Y-80939868D01*
X223778579Y-80939870D01*
X223587403Y-81019058D01*
X223415342Y-81134024D01*
X223269024Y-81280342D01*
X223154058Y-81452403D01*
X223074870Y-81643579D01*
X223074868Y-81643587D01*
X223034500Y-81846530D01*
X222635499Y-81846530D01*
X222595130Y-81643580D01*
X222515941Y-81452402D01*
X222400977Y-81280345D01*
X222400975Y-81280342D01*
X222254657Y-81134024D01*
X222168626Y-81076541D01*
X222082598Y-81019059D01*
X222057753Y-81008768D01*
X221891420Y-80939870D01*
X221891412Y-80939868D01*
X221688469Y-80899500D01*
X221688465Y-80899500D01*
X221481535Y-80899500D01*
X221481530Y-80899500D01*
X221278587Y-80939868D01*
X221278579Y-80939870D01*
X221087403Y-81019058D01*
X220915342Y-81134024D01*
X220769024Y-81280342D01*
X220654058Y-81452403D01*
X220574870Y-81643579D01*
X220574868Y-81643587D01*
X220534500Y-81846530D01*
X218400500Y-81846530D01*
X218400500Y-81834108D01*
X218366392Y-81706814D01*
X218366391Y-81706813D01*
X218366391Y-81706811D01*
X218342765Y-81665892D01*
X218340518Y-81661999D01*
X218324045Y-81594102D01*
X218340519Y-81537998D01*
X218346549Y-81527555D01*
X218366392Y-81493186D01*
X218400500Y-81365892D01*
X218400500Y-81234108D01*
X218366392Y-81106814D01*
X218300500Y-80992686D01*
X218207314Y-80899500D01*
X218120712Y-80849500D01*
X218093187Y-80833608D01*
X218029539Y-80816554D01*
X217965892Y-80799500D01*
X217834108Y-80799500D01*
X217706812Y-80833608D01*
X217592686Y-80899500D01*
X217592683Y-80899502D01*
X217499502Y-80992683D01*
X217499500Y-80992686D01*
X217433608Y-81106812D01*
X217406680Y-81207313D01*
X217399500Y-81234108D01*
X217399500Y-81365892D01*
X217422681Y-81452403D01*
X217433608Y-81493185D01*
X217433611Y-81493192D01*
X217459481Y-81538001D01*
X217475954Y-81605901D01*
X217459481Y-81661999D01*
X217433611Y-81706807D01*
X217433608Y-81706814D01*
X217399500Y-81834108D01*
X217399500Y-81965892D01*
X217426429Y-82066391D01*
X217433608Y-82093185D01*
X217433608Y-82093186D01*
X217445337Y-82113501D01*
X217461809Y-82181401D01*
X217438956Y-82247428D01*
X217384034Y-82290618D01*
X217337949Y-82299500D01*
X217234108Y-82299500D01*
X217106812Y-82333608D01*
X216992686Y-82399500D01*
X216992683Y-82399502D01*
X216899502Y-82492683D01*
X216899500Y-82492686D01*
X216833608Y-82606812D01*
X216810464Y-82693188D01*
X216799500Y-82734108D01*
X184705500Y-82734108D01*
X184705500Y-82729604D01*
X184705500Y-82708125D01*
X184705060Y-82694683D01*
X184703999Y-82678497D01*
X184702681Y-82665114D01*
X184700973Y-82652142D01*
X184700711Y-82647655D01*
X184700916Y-82646768D01*
X184700500Y-82640421D01*
X184700500Y-81534108D01*
X194599500Y-81534108D01*
X194599500Y-81665892D01*
X194610463Y-81706807D01*
X194633608Y-81793187D01*
X194664406Y-81846530D01*
X194699500Y-81907314D01*
X194792686Y-82000500D01*
X194906814Y-82066392D01*
X195034108Y-82100500D01*
X195034110Y-82100500D01*
X195165890Y-82100500D01*
X195165892Y-82100500D01*
X195293186Y-82066392D01*
X195407314Y-82000500D01*
X195500500Y-81907314D01*
X195566392Y-81793186D01*
X195582222Y-81734108D01*
X198804231Y-81734108D01*
X198804231Y-81865892D01*
X198821285Y-81929539D01*
X198838339Y-81993187D01*
X198863410Y-82036610D01*
X198904231Y-82107314D01*
X198997417Y-82200500D01*
X199111545Y-82266392D01*
X199238839Y-82300500D01*
X199238841Y-82300500D01*
X199370621Y-82300500D01*
X199370623Y-82300500D01*
X199497917Y-82266392D01*
X199612045Y-82200500D01*
X199705231Y-82107314D01*
X199771123Y-81993186D01*
X199805231Y-81865892D01*
X199805231Y-81734108D01*
X199771123Y-81606814D01*
X199705231Y-81492686D01*
X199612045Y-81399500D01*
X199553831Y-81365890D01*
X199497918Y-81333608D01*
X199432109Y-81315975D01*
X199370623Y-81299500D01*
X199238839Y-81299500D01*
X199111543Y-81333608D01*
X198997417Y-81399500D01*
X198997414Y-81399502D01*
X198904233Y-81492683D01*
X198904231Y-81492686D01*
X198838339Y-81606812D01*
X198815433Y-81692302D01*
X198804231Y-81734108D01*
X195582222Y-81734108D01*
X195600500Y-81665892D01*
X195600500Y-81534108D01*
X195566392Y-81406814D01*
X195500500Y-81292686D01*
X195407314Y-81199500D01*
X195350250Y-81166554D01*
X195293187Y-81133608D01*
X195193188Y-81106814D01*
X195165892Y-81099500D01*
X195034108Y-81099500D01*
X194906812Y-81133608D01*
X194792686Y-81199500D01*
X194792683Y-81199502D01*
X194699502Y-81292683D01*
X194699500Y-81292686D01*
X194633608Y-81406812D01*
X194601257Y-81527552D01*
X194599500Y-81534108D01*
X184700500Y-81534108D01*
X184700500Y-80834108D01*
X207799500Y-80834108D01*
X207799500Y-80965892D01*
X207813746Y-81019058D01*
X207833608Y-81093187D01*
X207853426Y-81127512D01*
X207899500Y-81207314D01*
X207992686Y-81300500D01*
X208050031Y-81333608D01*
X208105944Y-81365890D01*
X208106814Y-81366392D01*
X208234108Y-81400500D01*
X208234110Y-81400500D01*
X208365890Y-81400500D01*
X208365892Y-81400500D01*
X208493186Y-81366392D01*
X208607314Y-81300500D01*
X208700500Y-81207314D01*
X208766392Y-81093186D01*
X208800500Y-80965892D01*
X208800500Y-80834108D01*
X208766392Y-80706814D01*
X208700500Y-80592686D01*
X208607314Y-80499500D01*
X208539125Y-80460131D01*
X208493187Y-80433608D01*
X208429539Y-80416554D01*
X208365892Y-80399500D01*
X208234108Y-80399500D01*
X208106812Y-80433608D01*
X207992686Y-80499500D01*
X207992683Y-80499502D01*
X207899502Y-80592683D01*
X207899500Y-80592686D01*
X207833608Y-80706812D01*
X207828469Y-80725992D01*
X207799500Y-80834108D01*
X184700500Y-80834108D01*
X184700500Y-78734108D01*
X218399500Y-78734108D01*
X218399500Y-78865892D01*
X218432040Y-78987332D01*
X218433608Y-78993185D01*
X218433611Y-78993192D01*
X218459481Y-79038001D01*
X218475954Y-79105901D01*
X218459481Y-79161999D01*
X218433611Y-79206807D01*
X218433608Y-79206814D01*
X218399500Y-79334108D01*
X218399500Y-79465892D01*
X218428470Y-79574008D01*
X218433608Y-79593185D01*
X218433611Y-79593192D01*
X218459481Y-79638001D01*
X218475954Y-79705901D01*
X218459481Y-79761999D01*
X218433611Y-79806807D01*
X218433608Y-79806814D01*
X218399500Y-79934108D01*
X218399500Y-80065892D01*
X218401804Y-80074489D01*
X218433608Y-80193187D01*
X218466386Y-80249959D01*
X218499500Y-80307314D01*
X218592686Y-80400500D01*
X218706814Y-80466392D01*
X218834108Y-80500500D01*
X218834110Y-80500500D01*
X218965890Y-80500500D01*
X218965892Y-80500500D01*
X219093186Y-80466392D01*
X219207314Y-80400500D01*
X219300500Y-80307314D01*
X219366392Y-80193186D01*
X219400500Y-80065892D01*
X219400500Y-79934108D01*
X219366392Y-79806814D01*
X219366391Y-79806813D01*
X219366391Y-79806811D01*
X219340519Y-79762002D01*
X219324045Y-79694102D01*
X219340519Y-79637998D01*
X219366391Y-79593188D01*
X219366392Y-79593185D01*
X219400500Y-79465892D01*
X219400500Y-79346530D01*
X220534500Y-79346530D01*
X220534500Y-79553469D01*
X220574868Y-79756412D01*
X220574870Y-79756420D01*
X220654058Y-79947596D01*
X220769024Y-80119657D01*
X220915342Y-80265975D01*
X220915345Y-80265977D01*
X221087402Y-80380941D01*
X221278580Y-80460130D01*
X221476508Y-80499500D01*
X221481530Y-80500499D01*
X221481534Y-80500500D01*
X221481535Y-80500500D01*
X221688466Y-80500500D01*
X221688467Y-80500499D01*
X221891420Y-80460130D01*
X222082598Y-80380941D01*
X222254655Y-80265977D01*
X222400977Y-80119655D01*
X222515941Y-79947598D01*
X222595130Y-79756420D01*
X222635500Y-79553465D01*
X222635500Y-79346535D01*
X222635499Y-79346530D01*
X223034500Y-79346530D01*
X223034500Y-79553469D01*
X223074868Y-79756412D01*
X223074870Y-79756420D01*
X223154058Y-79947596D01*
X223269024Y-80119657D01*
X223415342Y-80265975D01*
X223415345Y-80265977D01*
X223587402Y-80380941D01*
X223778580Y-80460130D01*
X223976508Y-80499500D01*
X223981530Y-80500499D01*
X223981534Y-80500500D01*
X223981535Y-80500500D01*
X224188466Y-80500500D01*
X224188467Y-80500499D01*
X224391420Y-80460130D01*
X224582598Y-80380941D01*
X224754655Y-80265977D01*
X224900977Y-80119655D01*
X225015941Y-79947598D01*
X225095130Y-79756420D01*
X225135500Y-79553465D01*
X225135500Y-79346535D01*
X225095130Y-79143580D01*
X225015941Y-78952402D01*
X224900977Y-78780345D01*
X224900974Y-78780341D01*
X224854741Y-78734108D01*
X226299500Y-78734108D01*
X226299500Y-78865892D01*
X226332040Y-78987332D01*
X226333608Y-78993185D01*
X226333611Y-78993192D01*
X226359481Y-79038001D01*
X226375954Y-79105901D01*
X226359481Y-79161999D01*
X226333611Y-79206807D01*
X226333608Y-79206814D01*
X226299500Y-79334108D01*
X226299500Y-79465892D01*
X226328470Y-79574008D01*
X226333608Y-79593185D01*
X226333611Y-79593192D01*
X226359481Y-79638001D01*
X226375954Y-79705901D01*
X226359481Y-79761999D01*
X226333611Y-79806807D01*
X226333608Y-79806814D01*
X226299500Y-79934108D01*
X226299500Y-80065892D01*
X226301804Y-80074489D01*
X226333608Y-80193187D01*
X226366386Y-80249959D01*
X226399500Y-80307314D01*
X226492686Y-80400500D01*
X226606814Y-80466392D01*
X226734108Y-80500500D01*
X226734110Y-80500500D01*
X226865890Y-80500500D01*
X226865892Y-80500500D01*
X226993186Y-80466392D01*
X227107314Y-80400500D01*
X227200500Y-80307314D01*
X227266392Y-80193186D01*
X227300500Y-80065892D01*
X227300500Y-79934108D01*
X227266392Y-79806814D01*
X227266391Y-79806813D01*
X227266391Y-79806811D01*
X227240519Y-79762002D01*
X227224045Y-79694102D01*
X227240519Y-79637998D01*
X227266391Y-79593188D01*
X227266392Y-79593185D01*
X227300500Y-79465892D01*
X227300500Y-79334108D01*
X227266392Y-79206814D01*
X227266391Y-79206813D01*
X227266391Y-79206811D01*
X227246575Y-79172490D01*
X227240518Y-79161999D01*
X227224045Y-79094102D01*
X227240519Y-79037998D01*
X227241015Y-79037140D01*
X227266392Y-78993186D01*
X227300500Y-78865892D01*
X227300500Y-78734108D01*
X227266392Y-78606814D01*
X227262454Y-78599994D01*
X227233901Y-78550538D01*
X227200500Y-78492686D01*
X227107314Y-78399500D01*
X227020712Y-78349500D01*
X226993187Y-78333608D01*
X226929539Y-78316554D01*
X226865892Y-78299500D01*
X226734108Y-78299500D01*
X226606812Y-78333608D01*
X226492686Y-78399500D01*
X226492683Y-78399502D01*
X226399502Y-78492683D01*
X226399500Y-78492686D01*
X226333608Y-78606812D01*
X226299500Y-78734108D01*
X224854741Y-78734108D01*
X224754657Y-78634024D01*
X224629705Y-78550535D01*
X224582598Y-78519059D01*
X224518928Y-78492686D01*
X224391420Y-78439870D01*
X224391412Y-78439868D01*
X224188469Y-78399500D01*
X224188465Y-78399500D01*
X223981535Y-78399500D01*
X223981530Y-78399500D01*
X223778587Y-78439868D01*
X223778579Y-78439870D01*
X223587403Y-78519058D01*
X223415342Y-78634024D01*
X223269024Y-78780342D01*
X223154058Y-78952403D01*
X223074870Y-79143579D01*
X223074868Y-79143587D01*
X223034500Y-79346530D01*
X222635499Y-79346530D01*
X222595130Y-79143580D01*
X222515941Y-78952402D01*
X222400977Y-78780345D01*
X222400975Y-78780342D01*
X222254657Y-78634024D01*
X222129705Y-78550535D01*
X222082598Y-78519059D01*
X222018928Y-78492686D01*
X221891420Y-78439870D01*
X221891412Y-78439868D01*
X221688469Y-78399500D01*
X221688465Y-78399500D01*
X221481535Y-78399500D01*
X221481530Y-78399500D01*
X221278587Y-78439868D01*
X221278579Y-78439870D01*
X221087403Y-78519058D01*
X220915342Y-78634024D01*
X220769024Y-78780342D01*
X220654058Y-78952403D01*
X220574870Y-79143579D01*
X220574868Y-79143587D01*
X220534500Y-79346530D01*
X219400500Y-79346530D01*
X219400500Y-79334108D01*
X219366392Y-79206814D01*
X219366391Y-79206813D01*
X219366391Y-79206811D01*
X219346575Y-79172490D01*
X219340518Y-79161999D01*
X219324045Y-79094102D01*
X219340519Y-79037998D01*
X219341015Y-79037140D01*
X219366392Y-78993186D01*
X219400500Y-78865892D01*
X219400500Y-78734108D01*
X219366392Y-78606814D01*
X219362454Y-78599994D01*
X219333901Y-78550538D01*
X219300500Y-78492686D01*
X219207314Y-78399500D01*
X219120712Y-78349500D01*
X219093187Y-78333608D01*
X219029539Y-78316554D01*
X218965892Y-78299500D01*
X218834108Y-78299500D01*
X218706812Y-78333608D01*
X218592686Y-78399500D01*
X218592683Y-78399502D01*
X218499502Y-78492683D01*
X218499500Y-78492686D01*
X218433608Y-78606812D01*
X218399500Y-78734108D01*
X184700500Y-78734108D01*
X184700500Y-77148626D01*
X184720185Y-77081587D01*
X184736819Y-77060945D01*
X186260945Y-75536819D01*
X186322268Y-75503334D01*
X186348626Y-75500500D01*
X220930734Y-75500500D01*
X220972624Y-75500500D01*
X221028918Y-75514014D01*
X221124168Y-75562547D01*
X221303882Y-75620940D01*
X221373870Y-75632025D01*
X221490513Y-75650500D01*
X221490518Y-75650500D01*
X224179486Y-75650500D01*
X224366118Y-75620940D01*
X224545832Y-75562547D01*
X224714199Y-75476760D01*
X224867073Y-75365690D01*
X225000690Y-75232073D01*
X225111760Y-75079199D01*
X225197547Y-74910832D01*
X225255940Y-74731118D01*
X225259649Y-74707701D01*
X225285500Y-74544486D01*
X225285500Y-74363389D01*
X230164500Y-74363389D01*
X230164500Y-74536611D01*
X230191598Y-74707701D01*
X230245127Y-74872445D01*
X230323768Y-75026788D01*
X230425586Y-75166928D01*
X230548072Y-75289414D01*
X230688212Y-75391232D01*
X230842555Y-75469873D01*
X231007299Y-75523402D01*
X231178389Y-75550500D01*
X231178390Y-75550500D01*
X231351610Y-75550500D01*
X231351611Y-75550500D01*
X231522701Y-75523402D01*
X231687445Y-75469873D01*
X231841788Y-75391232D01*
X231981928Y-75289414D01*
X232104414Y-75166928D01*
X232206232Y-75026788D01*
X232284873Y-74872445D01*
X232338402Y-74707701D01*
X232365500Y-74536611D01*
X232365500Y-74363389D01*
X232338402Y-74192299D01*
X232284873Y-74027555D01*
X232206232Y-73873212D01*
X232104414Y-73733072D01*
X231981928Y-73610586D01*
X231841788Y-73508768D01*
X231687445Y-73430127D01*
X231522701Y-73376598D01*
X231522699Y-73376597D01*
X231522698Y-73376597D01*
X231391271Y-73355781D01*
X231351611Y-73349500D01*
X231178389Y-73349500D01*
X231138728Y-73355781D01*
X231007302Y-73376597D01*
X230842552Y-73430128D01*
X230688211Y-73508768D01*
X230608256Y-73566859D01*
X230548072Y-73610586D01*
X230548070Y-73610588D01*
X230548069Y-73610588D01*
X230425588Y-73733069D01*
X230425588Y-73733070D01*
X230425586Y-73733072D01*
X230381859Y-73793256D01*
X230323768Y-73873211D01*
X230245128Y-74027552D01*
X230191597Y-74192302D01*
X230165747Y-74355513D01*
X230164500Y-74363389D01*
X225285500Y-74363389D01*
X225285500Y-74355513D01*
X225255940Y-74168881D01*
X225197545Y-73989163D01*
X225152290Y-73900347D01*
X225111760Y-73820801D01*
X225000690Y-73667927D01*
X224867073Y-73534310D01*
X224714199Y-73423240D01*
X224545836Y-73337454D01*
X224366118Y-73279059D01*
X224179486Y-73249500D01*
X224179481Y-73249500D01*
X222047376Y-73249500D01*
X221991081Y-73235985D01*
X221895836Y-73187454D01*
X221716118Y-73129059D01*
X221529486Y-73099500D01*
X221529481Y-73099500D01*
X185894481Y-73099500D01*
X185705518Y-73099500D01*
X185705513Y-73099500D01*
X185518885Y-73129059D01*
X185339165Y-73187454D01*
X185170800Y-73273240D01*
X185017923Y-73384312D01*
X184912181Y-73490055D01*
X184850858Y-73523540D01*
X184781166Y-73518556D01*
X184725233Y-73476684D01*
X184700816Y-73411220D01*
X184700500Y-73402374D01*
X184700500Y-70946257D01*
X194614079Y-70946257D01*
X194614079Y-71078040D01*
X194648187Y-71205336D01*
X194681133Y-71262399D01*
X194714079Y-71319463D01*
X194807265Y-71412649D01*
X194921393Y-71478541D01*
X195048687Y-71512649D01*
X195048689Y-71512649D01*
X195180469Y-71512649D01*
X195180471Y-71512649D01*
X195307765Y-71478541D01*
X195421893Y-71412649D01*
X195515079Y-71319463D01*
X195580971Y-71205335D01*
X195615079Y-71078041D01*
X195615079Y-70946257D01*
X195580971Y-70818963D01*
X195515079Y-70704835D01*
X195421893Y-70611649D01*
X195364829Y-70578703D01*
X195307766Y-70545757D01*
X195244118Y-70528703D01*
X195180471Y-70511649D01*
X195048687Y-70511649D01*
X194921391Y-70545757D01*
X194807265Y-70611649D01*
X194807262Y-70611651D01*
X194714081Y-70704832D01*
X194714079Y-70704835D01*
X194648187Y-70818961D01*
X194614079Y-70946257D01*
X184700500Y-70946257D01*
X184700500Y-68448626D01*
X184709144Y-68419185D01*
X184715668Y-68389199D01*
X184719422Y-68384183D01*
X184720185Y-68381587D01*
X184736819Y-68360945D01*
X184763656Y-68334108D01*
X194349500Y-68334108D01*
X194349500Y-68465892D01*
X194358272Y-68498631D01*
X194383608Y-68593187D01*
X194416554Y-68650250D01*
X194449500Y-68707314D01*
X194542686Y-68800500D01*
X194656814Y-68866392D01*
X194784108Y-68900500D01*
X194784110Y-68900500D01*
X194915890Y-68900500D01*
X194915892Y-68900500D01*
X195043186Y-68866392D01*
X195157314Y-68800500D01*
X195250500Y-68707314D01*
X195316392Y-68593186D01*
X195332222Y-68534108D01*
X195899500Y-68534108D01*
X195899500Y-68665892D01*
X195916554Y-68729539D01*
X195933608Y-68793187D01*
X195941475Y-68806812D01*
X195999500Y-68907314D01*
X196092686Y-69000500D01*
X196191521Y-69057563D01*
X196205944Y-69065890D01*
X196206814Y-69066392D01*
X196334108Y-69100500D01*
X196334110Y-69100500D01*
X196465890Y-69100500D01*
X196465892Y-69100500D01*
X196593186Y-69066392D01*
X196707314Y-69000500D01*
X196773706Y-68934108D01*
X198904231Y-68934108D01*
X198904231Y-69065891D01*
X198938339Y-69193187D01*
X198971285Y-69250250D01*
X199004231Y-69307314D01*
X199097417Y-69400500D01*
X199211545Y-69466392D01*
X199338839Y-69500500D01*
X199338841Y-69500500D01*
X199470621Y-69500500D01*
X199470623Y-69500500D01*
X199597917Y-69466392D01*
X199712045Y-69400500D01*
X199805231Y-69307314D01*
X199871123Y-69193186D01*
X199905231Y-69065892D01*
X199905231Y-68934108D01*
X199871123Y-68806814D01*
X199805231Y-68692686D01*
X199712045Y-68599500D01*
X199654981Y-68566554D01*
X199597918Y-68533608D01*
X199534270Y-68516554D01*
X199470623Y-68499500D01*
X199338839Y-68499500D01*
X199211543Y-68533608D01*
X199097417Y-68599500D01*
X199097414Y-68599502D01*
X199004233Y-68692683D01*
X199004231Y-68692686D01*
X198938339Y-68806812D01*
X198904231Y-68934108D01*
X196773706Y-68934108D01*
X196800500Y-68907314D01*
X196813023Y-68885622D01*
X196825520Y-68863980D01*
X196866390Y-68793189D01*
X196866392Y-68793186D01*
X196900500Y-68665892D01*
X196900500Y-68534108D01*
X196866392Y-68406814D01*
X196800500Y-68292686D01*
X196707314Y-68199500D01*
X196622442Y-68150499D01*
X196593187Y-68133608D01*
X196528931Y-68116391D01*
X196465892Y-68099500D01*
X196334108Y-68099500D01*
X196206812Y-68133608D01*
X196092686Y-68199500D01*
X196092683Y-68199502D01*
X195999502Y-68292683D01*
X195999500Y-68292686D01*
X195933608Y-68406812D01*
X195917778Y-68465892D01*
X195899500Y-68534108D01*
X195332222Y-68534108D01*
X195350500Y-68465892D01*
X195350500Y-68334108D01*
X195316392Y-68206814D01*
X195250500Y-68092686D01*
X195157314Y-67999500D01*
X195100250Y-67966554D01*
X195043187Y-67933608D01*
X194979539Y-67916554D01*
X194915892Y-67899500D01*
X194784108Y-67899500D01*
X194656812Y-67933608D01*
X194542686Y-67999500D01*
X194542683Y-67999502D01*
X194449502Y-68092683D01*
X194449500Y-68092686D01*
X194383608Y-68206812D01*
X194360600Y-68292683D01*
X194349500Y-68334108D01*
X184763656Y-68334108D01*
X185513656Y-67584108D01*
X199804231Y-67584108D01*
X199804231Y-67715891D01*
X199838339Y-67843187D01*
X199870852Y-67899500D01*
X199904231Y-67957314D01*
X199997417Y-68050500D01*
X200111545Y-68116392D01*
X200238839Y-68150500D01*
X200238841Y-68150500D01*
X200370621Y-68150500D01*
X200370623Y-68150500D01*
X200497917Y-68116392D01*
X200612045Y-68050500D01*
X200705231Y-67957314D01*
X200771123Y-67843186D01*
X200805231Y-67715892D01*
X200805231Y-67584108D01*
X200771123Y-67456814D01*
X200705231Y-67342686D01*
X200612045Y-67249500D01*
X200538099Y-67206807D01*
X200497918Y-67183608D01*
X200434270Y-67166554D01*
X200370623Y-67149500D01*
X200238839Y-67149500D01*
X200111543Y-67183608D01*
X199997417Y-67249500D01*
X199997414Y-67249502D01*
X199904233Y-67342683D01*
X199904231Y-67342686D01*
X199838339Y-67456812D01*
X199804231Y-67584108D01*
X185513656Y-67584108D01*
X186663656Y-66434108D01*
X209999500Y-66434108D01*
X209999500Y-66565892D01*
X210010463Y-66606807D01*
X210033608Y-66693187D01*
X210064406Y-66746530D01*
X210099500Y-66807314D01*
X210192686Y-66900500D01*
X210306814Y-66966392D01*
X210434108Y-67000500D01*
X210434110Y-67000500D01*
X210565890Y-67000500D01*
X210565892Y-67000500D01*
X210693186Y-66966392D01*
X210737999Y-66940518D01*
X210805898Y-66924045D01*
X210862000Y-66940518D01*
X210877800Y-66949640D01*
X210906811Y-66966391D01*
X210906813Y-66966391D01*
X210906814Y-66966392D01*
X211034108Y-67000500D01*
X211034110Y-67000500D01*
X211165890Y-67000500D01*
X211165892Y-67000500D01*
X211293186Y-66966392D01*
X211337999Y-66940518D01*
X211405898Y-66924045D01*
X211462000Y-66940518D01*
X211477800Y-66949640D01*
X211506811Y-66966391D01*
X211506813Y-66966391D01*
X211506814Y-66966392D01*
X211634108Y-67000500D01*
X211634110Y-67000500D01*
X211765890Y-67000500D01*
X211765892Y-67000500D01*
X211893186Y-66966392D01*
X211937999Y-66940518D01*
X212005898Y-66924045D01*
X212062000Y-66940518D01*
X212077800Y-66949640D01*
X212106811Y-66966391D01*
X212106813Y-66966391D01*
X212106814Y-66966392D01*
X212234108Y-67000500D01*
X212234110Y-67000500D01*
X212365890Y-67000500D01*
X212365892Y-67000500D01*
X212493186Y-66966392D01*
X212537999Y-66940518D01*
X212605898Y-66924045D01*
X212662000Y-66940518D01*
X212677800Y-66949640D01*
X212706811Y-66966391D01*
X212706813Y-66966391D01*
X212706814Y-66966392D01*
X212834108Y-67000500D01*
X212834110Y-67000500D01*
X212965890Y-67000500D01*
X212965892Y-67000500D01*
X213093186Y-66966392D01*
X213137999Y-66940518D01*
X213205898Y-66924045D01*
X213262000Y-66940518D01*
X213277800Y-66949640D01*
X213306811Y-66966391D01*
X213306813Y-66966391D01*
X213306814Y-66966392D01*
X213434108Y-67000500D01*
X213434110Y-67000500D01*
X213565890Y-67000500D01*
X213565892Y-67000500D01*
X213693186Y-66966392D01*
X213737999Y-66940518D01*
X213805898Y-66924045D01*
X213862000Y-66940518D01*
X213877800Y-66949640D01*
X213906811Y-66966391D01*
X213906813Y-66966391D01*
X213906814Y-66966392D01*
X214034108Y-67000500D01*
X214034110Y-67000500D01*
X214165890Y-67000500D01*
X214165892Y-67000500D01*
X214293186Y-66966392D01*
X214337999Y-66940518D01*
X214405898Y-66924045D01*
X214462000Y-66940518D01*
X214477800Y-66949640D01*
X214506811Y-66966391D01*
X214506813Y-66966391D01*
X214506814Y-66966392D01*
X214634108Y-67000500D01*
X214634110Y-67000500D01*
X214765890Y-67000500D01*
X214765892Y-67000500D01*
X214893186Y-66966392D01*
X214937999Y-66940518D01*
X215005898Y-66924045D01*
X215062000Y-66940518D01*
X215077800Y-66949640D01*
X215106811Y-66966391D01*
X215106813Y-66966391D01*
X215106814Y-66966392D01*
X215234108Y-67000500D01*
X215234110Y-67000500D01*
X215365890Y-67000500D01*
X215365892Y-67000500D01*
X215493186Y-66966392D01*
X215607314Y-66900500D01*
X215700500Y-66807314D01*
X215766392Y-66693186D01*
X215800500Y-66565892D01*
X215800500Y-66434108D01*
X215766392Y-66306814D01*
X215746991Y-66273211D01*
X215700503Y-66192691D01*
X215700502Y-66192690D01*
X215700500Y-66192686D01*
X215641922Y-66134108D01*
X217399500Y-66134108D01*
X217399500Y-66265892D01*
X217422681Y-66352403D01*
X217433608Y-66393185D01*
X217433611Y-66393192D01*
X217459481Y-66438001D01*
X217475954Y-66505901D01*
X217459481Y-66561999D01*
X217433611Y-66606807D01*
X217433608Y-66606814D01*
X217399500Y-66734108D01*
X217399500Y-66865892D01*
X217426429Y-66966391D01*
X217433608Y-66993185D01*
X217433611Y-66993192D01*
X217459481Y-67038001D01*
X217475954Y-67105901D01*
X217459481Y-67161999D01*
X217433611Y-67206807D01*
X217433608Y-67206814D01*
X217399500Y-67334108D01*
X217399500Y-67465891D01*
X217433608Y-67593187D01*
X217466554Y-67650250D01*
X217499500Y-67707314D01*
X217592686Y-67800500D01*
X217706814Y-67866392D01*
X217834108Y-67900500D01*
X217834110Y-67900500D01*
X217965890Y-67900500D01*
X217965892Y-67900500D01*
X218093186Y-67866392D01*
X218207314Y-67800500D01*
X218300500Y-67707314D01*
X218366392Y-67593186D01*
X218400500Y-67465892D01*
X218400500Y-67334108D01*
X218366392Y-67206814D01*
X218366391Y-67206813D01*
X218366391Y-67206811D01*
X218340519Y-67162002D01*
X218324045Y-67094102D01*
X218340519Y-67037998D01*
X218366391Y-66993188D01*
X218373571Y-66966392D01*
X218400500Y-66865892D01*
X218400500Y-66746530D01*
X220534500Y-66746530D01*
X220534500Y-66953469D01*
X220574868Y-67156412D01*
X220574870Y-67156420D01*
X220654058Y-67347596D01*
X220769024Y-67519657D01*
X220915342Y-67665975D01*
X220915345Y-67665977D01*
X221087402Y-67780941D01*
X221278580Y-67860130D01*
X221476508Y-67899500D01*
X221481530Y-67900499D01*
X221481534Y-67900500D01*
X221481535Y-67900500D01*
X221688466Y-67900500D01*
X221688467Y-67900499D01*
X221891420Y-67860130D01*
X222082598Y-67780941D01*
X222254655Y-67665977D01*
X222400977Y-67519655D01*
X222515941Y-67347598D01*
X222595130Y-67156420D01*
X222635500Y-66953465D01*
X222635500Y-66746535D01*
X222635499Y-66746530D01*
X223034500Y-66746530D01*
X223034500Y-66953469D01*
X223074868Y-67156412D01*
X223074870Y-67156420D01*
X223154058Y-67347596D01*
X223269024Y-67519657D01*
X223415342Y-67665975D01*
X223415345Y-67665977D01*
X223587402Y-67780941D01*
X223778580Y-67860130D01*
X223976508Y-67899500D01*
X223981530Y-67900499D01*
X223981534Y-67900500D01*
X223981535Y-67900500D01*
X224188466Y-67900500D01*
X224188467Y-67900499D01*
X224391420Y-67860130D01*
X224582598Y-67780941D01*
X224754655Y-67665977D01*
X224900977Y-67519655D01*
X225015941Y-67347598D01*
X225095130Y-67156420D01*
X225135500Y-66953465D01*
X225135500Y-66746535D01*
X225095130Y-66543580D01*
X225015941Y-66352402D01*
X224900977Y-66180345D01*
X224900974Y-66180341D01*
X224854741Y-66134108D01*
X227299500Y-66134108D01*
X227299500Y-66265892D01*
X227322681Y-66352403D01*
X227333608Y-66393185D01*
X227333611Y-66393192D01*
X227359481Y-66438001D01*
X227375954Y-66505901D01*
X227359481Y-66561999D01*
X227333611Y-66606807D01*
X227333608Y-66606814D01*
X227299500Y-66734108D01*
X227299500Y-66865892D01*
X227326429Y-66966391D01*
X227333608Y-66993185D01*
X227333611Y-66993192D01*
X227359481Y-67038001D01*
X227375954Y-67105901D01*
X227359481Y-67161999D01*
X227333611Y-67206807D01*
X227333608Y-67206814D01*
X227299500Y-67334108D01*
X227299500Y-67465891D01*
X227333608Y-67593187D01*
X227366554Y-67650250D01*
X227399500Y-67707314D01*
X227492686Y-67800500D01*
X227606814Y-67866392D01*
X227734108Y-67900500D01*
X227734110Y-67900500D01*
X227865890Y-67900500D01*
X227865892Y-67900500D01*
X227993186Y-67866392D01*
X228107314Y-67800500D01*
X228200500Y-67707314D01*
X228266392Y-67593186D01*
X228300500Y-67465892D01*
X228300500Y-67334108D01*
X228266392Y-67206814D01*
X228266391Y-67206813D01*
X228266391Y-67206811D01*
X228240519Y-67162002D01*
X228224045Y-67094102D01*
X228240519Y-67037998D01*
X228266391Y-66993188D01*
X228273571Y-66966392D01*
X228300500Y-66865892D01*
X228300500Y-66763389D01*
X230164500Y-66763389D01*
X230164500Y-66936611D01*
X230167170Y-66953466D01*
X230180558Y-67038001D01*
X230191598Y-67107701D01*
X230245127Y-67272445D01*
X230323768Y-67426788D01*
X230425586Y-67566928D01*
X230548072Y-67689414D01*
X230688212Y-67791232D01*
X230842555Y-67869873D01*
X231007299Y-67923402D01*
X231178389Y-67950500D01*
X231178390Y-67950500D01*
X231351610Y-67950500D01*
X231351611Y-67950500D01*
X231522701Y-67923402D01*
X231687445Y-67869873D01*
X231841788Y-67791232D01*
X231981928Y-67689414D01*
X232104414Y-67566928D01*
X232206232Y-67426788D01*
X232284873Y-67272445D01*
X232338402Y-67107701D01*
X232365500Y-66936611D01*
X232365500Y-66763389D01*
X232338402Y-66592299D01*
X232284873Y-66427555D01*
X232206232Y-66273212D01*
X232104414Y-66133072D01*
X231981928Y-66010586D01*
X231841788Y-65908768D01*
X231687445Y-65830127D01*
X231522701Y-65776598D01*
X231522699Y-65776597D01*
X231522698Y-65776597D01*
X231391271Y-65755781D01*
X231351611Y-65749500D01*
X231178389Y-65749500D01*
X231138728Y-65755781D01*
X231007302Y-65776597D01*
X230842552Y-65830128D01*
X230688211Y-65908768D01*
X230608256Y-65966859D01*
X230548072Y-66010586D01*
X230548070Y-66010588D01*
X230548069Y-66010588D01*
X230425588Y-66133069D01*
X230425588Y-66133070D01*
X230425586Y-66133072D01*
X230424832Y-66134110D01*
X230323768Y-66273211D01*
X230245128Y-66427552D01*
X230191597Y-66592302D01*
X230189299Y-66606814D01*
X230164500Y-66763389D01*
X228300500Y-66763389D01*
X228300500Y-66734108D01*
X228266392Y-66606814D01*
X228266391Y-66606813D01*
X228266391Y-66606811D01*
X228242765Y-66565892D01*
X228240518Y-66561999D01*
X228224045Y-66494102D01*
X228240519Y-66437998D01*
X228246549Y-66427555D01*
X228266392Y-66393186D01*
X228300500Y-66265892D01*
X228300500Y-66134108D01*
X228266392Y-66006814D01*
X228200500Y-65892686D01*
X228107314Y-65799500D01*
X228020712Y-65749500D01*
X227993187Y-65733608D01*
X227918339Y-65713553D01*
X227865892Y-65699500D01*
X227734108Y-65699500D01*
X227606812Y-65733608D01*
X227492686Y-65799500D01*
X227492683Y-65799502D01*
X227399502Y-65892683D01*
X227399500Y-65892686D01*
X227333608Y-66006812D01*
X227299778Y-66133069D01*
X227299500Y-66134108D01*
X224854741Y-66134108D01*
X224754657Y-66034024D01*
X224668626Y-65976541D01*
X224582598Y-65919059D01*
X224557753Y-65908768D01*
X224391420Y-65839870D01*
X224391412Y-65839868D01*
X224188469Y-65799500D01*
X224188465Y-65799500D01*
X223981535Y-65799500D01*
X223981530Y-65799500D01*
X223778587Y-65839868D01*
X223778579Y-65839870D01*
X223587403Y-65919058D01*
X223415342Y-66034024D01*
X223269024Y-66180342D01*
X223154058Y-66352403D01*
X223074870Y-66543579D01*
X223074868Y-66543587D01*
X223034500Y-66746530D01*
X222635499Y-66746530D01*
X222595130Y-66543580D01*
X222515941Y-66352402D01*
X222400977Y-66180345D01*
X222400975Y-66180342D01*
X222254657Y-66034024D01*
X222168626Y-65976541D01*
X222082598Y-65919059D01*
X222057753Y-65908768D01*
X221891420Y-65839870D01*
X221891412Y-65839868D01*
X221688469Y-65799500D01*
X221688465Y-65799500D01*
X221481535Y-65799500D01*
X221481530Y-65799500D01*
X221278587Y-65839868D01*
X221278579Y-65839870D01*
X221087403Y-65919058D01*
X220915342Y-66034024D01*
X220769024Y-66180342D01*
X220654058Y-66352403D01*
X220574870Y-66543579D01*
X220574868Y-66543587D01*
X220534500Y-66746530D01*
X218400500Y-66746530D01*
X218400500Y-66734108D01*
X218366392Y-66606814D01*
X218366391Y-66606813D01*
X218366391Y-66606811D01*
X218342765Y-66565892D01*
X218340518Y-66561999D01*
X218324045Y-66494102D01*
X218340519Y-66437998D01*
X218346549Y-66427555D01*
X218366392Y-66393186D01*
X218400500Y-66265892D01*
X218400500Y-66134108D01*
X218366392Y-66006814D01*
X218300500Y-65892686D01*
X218207314Y-65799500D01*
X218120712Y-65749500D01*
X218093187Y-65733608D01*
X218018339Y-65713553D01*
X217965892Y-65699500D01*
X217834108Y-65699500D01*
X217706812Y-65733608D01*
X217592686Y-65799500D01*
X217592683Y-65799502D01*
X217499502Y-65892683D01*
X217499500Y-65892686D01*
X217433608Y-66006812D01*
X217399778Y-66133069D01*
X217399500Y-66134108D01*
X215641922Y-66134108D01*
X215607314Y-66099500D01*
X215537999Y-66059481D01*
X215493187Y-66033608D01*
X215393188Y-66006814D01*
X215365892Y-65999500D01*
X215234108Y-65999500D01*
X215106814Y-66033608D01*
X215106807Y-66033611D01*
X215061999Y-66059481D01*
X214994099Y-66075954D01*
X214938001Y-66059481D01*
X214893192Y-66033611D01*
X214893188Y-66033609D01*
X214893186Y-66033608D01*
X214765892Y-65999500D01*
X214634108Y-65999500D01*
X214506814Y-66033608D01*
X214506807Y-66033611D01*
X214461999Y-66059481D01*
X214394099Y-66075954D01*
X214338001Y-66059481D01*
X214293192Y-66033611D01*
X214293188Y-66033609D01*
X214293186Y-66033608D01*
X214165892Y-65999500D01*
X214034108Y-65999500D01*
X213906814Y-66033608D01*
X213906807Y-66033611D01*
X213861999Y-66059481D01*
X213794099Y-66075954D01*
X213738001Y-66059481D01*
X213693192Y-66033611D01*
X213693188Y-66033609D01*
X213693186Y-66033608D01*
X213565892Y-65999500D01*
X213434108Y-65999500D01*
X213306814Y-66033608D01*
X213306807Y-66033611D01*
X213261999Y-66059481D01*
X213194099Y-66075954D01*
X213138001Y-66059481D01*
X213093192Y-66033611D01*
X213093188Y-66033609D01*
X213093186Y-66033608D01*
X212965892Y-65999500D01*
X212834108Y-65999500D01*
X212706814Y-66033608D01*
X212706807Y-66033611D01*
X212661999Y-66059481D01*
X212594099Y-66075954D01*
X212538001Y-66059481D01*
X212493192Y-66033611D01*
X212493188Y-66033609D01*
X212493186Y-66033608D01*
X212365892Y-65999500D01*
X212234108Y-65999500D01*
X212106814Y-66033608D01*
X212106807Y-66033611D01*
X212061999Y-66059481D01*
X211994099Y-66075954D01*
X211938001Y-66059481D01*
X211893192Y-66033611D01*
X211893188Y-66033609D01*
X211893186Y-66033608D01*
X211765892Y-65999500D01*
X211634108Y-65999500D01*
X211506814Y-66033608D01*
X211506807Y-66033611D01*
X211461999Y-66059481D01*
X211394099Y-66075954D01*
X211338001Y-66059481D01*
X211293192Y-66033611D01*
X211293188Y-66033609D01*
X211293186Y-66033608D01*
X211165892Y-65999500D01*
X211034108Y-65999500D01*
X210906814Y-66033608D01*
X210906807Y-66033611D01*
X210861999Y-66059481D01*
X210794099Y-66075954D01*
X210738001Y-66059481D01*
X210693192Y-66033611D01*
X210693188Y-66033609D01*
X210693186Y-66033608D01*
X210565892Y-65999500D01*
X210434108Y-65999500D01*
X210306812Y-66033608D01*
X210192686Y-66099500D01*
X210192683Y-66099502D01*
X210099502Y-66192683D01*
X210099500Y-66192686D01*
X210033608Y-66306812D01*
X210010465Y-66393185D01*
X209999500Y-66434108D01*
X186663656Y-66434108D01*
X188063656Y-65034108D01*
X194599500Y-65034108D01*
X194599500Y-65165892D01*
X194616010Y-65227510D01*
X194633608Y-65293187D01*
X194666554Y-65350250D01*
X194699500Y-65407314D01*
X194792686Y-65500500D01*
X194906814Y-65566392D01*
X195034108Y-65600500D01*
X195034110Y-65600500D01*
X195165890Y-65600500D01*
X195165892Y-65600500D01*
X195293186Y-65566392D01*
X195407314Y-65500500D01*
X195500500Y-65407314D01*
X195566392Y-65293186D01*
X195582222Y-65234108D01*
X198804231Y-65234108D01*
X198804231Y-65365892D01*
X198821285Y-65429539D01*
X198838339Y-65493187D01*
X198861523Y-65533342D01*
X198904231Y-65607314D01*
X198997417Y-65700500D01*
X199111545Y-65766392D01*
X199238839Y-65800500D01*
X199238841Y-65800500D01*
X199370621Y-65800500D01*
X199370623Y-65800500D01*
X199497917Y-65766392D01*
X199612045Y-65700500D01*
X199705231Y-65607314D01*
X199771123Y-65493186D01*
X199805231Y-65365892D01*
X199805231Y-65234108D01*
X199771123Y-65106814D01*
X199705231Y-64992686D01*
X199612045Y-64899500D01*
X199527170Y-64850497D01*
X199497918Y-64833608D01*
X199434270Y-64816554D01*
X199370623Y-64799500D01*
X199238839Y-64799500D01*
X199111543Y-64833608D01*
X198997417Y-64899500D01*
X198997414Y-64899502D01*
X198904233Y-64992683D01*
X198904231Y-64992686D01*
X198838339Y-65106812D01*
X198822509Y-65165892D01*
X198804231Y-65234108D01*
X195582222Y-65234108D01*
X195600500Y-65165892D01*
X195600500Y-65034108D01*
X195566392Y-64906814D01*
X195500500Y-64792686D01*
X195407314Y-64699500D01*
X195342361Y-64661999D01*
X195293187Y-64633608D01*
X195229539Y-64616554D01*
X195165892Y-64599500D01*
X195034108Y-64599500D01*
X194906812Y-64633608D01*
X194792686Y-64699500D01*
X194792683Y-64699502D01*
X194699502Y-64792683D01*
X194699500Y-64792686D01*
X194633608Y-64906812D01*
X194617778Y-64965892D01*
X194599500Y-65034108D01*
X188063656Y-65034108D01*
X188713656Y-64384108D01*
X207054231Y-64384108D01*
X207054231Y-64515891D01*
X207088339Y-64643187D01*
X207099202Y-64662002D01*
X207154231Y-64757314D01*
X207247417Y-64850500D01*
X207361545Y-64916392D01*
X207488839Y-64950500D01*
X207488841Y-64950500D01*
X207620621Y-64950500D01*
X207620623Y-64950500D01*
X207747917Y-64916392D01*
X207862045Y-64850500D01*
X207955231Y-64757314D01*
X208021123Y-64643186D01*
X208055231Y-64515892D01*
X208055231Y-64384108D01*
X208021123Y-64256814D01*
X207955231Y-64142686D01*
X207862045Y-64049500D01*
X207776309Y-64000000D01*
X207747918Y-63983608D01*
X207684270Y-63966554D01*
X207620623Y-63949500D01*
X207488839Y-63949500D01*
X207361543Y-63983608D01*
X207247417Y-64049500D01*
X207247414Y-64049502D01*
X207154233Y-64142683D01*
X207154231Y-64142686D01*
X207088339Y-64256812D01*
X207054231Y-64384108D01*
X188713656Y-64384108D01*
X189463656Y-63634108D01*
X218399500Y-63634108D01*
X218399500Y-63765892D01*
X218422681Y-63852403D01*
X218433608Y-63893185D01*
X218433611Y-63893192D01*
X218459481Y-63938001D01*
X218475954Y-64005901D01*
X218459481Y-64061999D01*
X218433611Y-64106807D01*
X218433608Y-64106814D01*
X218399500Y-64234108D01*
X218399500Y-64365892D01*
X218404382Y-64384110D01*
X218433608Y-64493185D01*
X218433611Y-64493192D01*
X218459481Y-64538001D01*
X218475954Y-64605901D01*
X218459481Y-64661999D01*
X218433611Y-64706807D01*
X218433608Y-64706814D01*
X218399500Y-64834108D01*
X218399500Y-64965892D01*
X218413906Y-65019655D01*
X218433608Y-65093187D01*
X218441475Y-65106812D01*
X218499500Y-65207314D01*
X218592686Y-65300500D01*
X218691521Y-65357563D01*
X218705944Y-65365890D01*
X218706814Y-65366392D01*
X218834108Y-65400500D01*
X218834110Y-65400500D01*
X218965890Y-65400500D01*
X218965892Y-65400500D01*
X219093186Y-65366392D01*
X219207314Y-65300500D01*
X219300500Y-65207314D01*
X219366392Y-65093186D01*
X219400500Y-64965892D01*
X219400500Y-64834108D01*
X219366392Y-64706814D01*
X219366391Y-64706813D01*
X219366391Y-64706811D01*
X219340519Y-64662002D01*
X219324045Y-64594102D01*
X219340519Y-64537998D01*
X219366391Y-64493188D01*
X219366392Y-64493185D01*
X219400500Y-64365892D01*
X219400500Y-64246530D01*
X220534500Y-64246530D01*
X220534500Y-64453469D01*
X220574868Y-64656412D01*
X220574870Y-64656420D01*
X220631313Y-64792686D01*
X220654059Y-64847598D01*
X220655998Y-64850500D01*
X220769024Y-65019657D01*
X220915342Y-65165975D01*
X220915345Y-65165977D01*
X221087402Y-65280941D01*
X221278580Y-65360130D01*
X221481530Y-65400499D01*
X221481534Y-65400500D01*
X221481535Y-65400500D01*
X221688466Y-65400500D01*
X221688467Y-65400499D01*
X221891420Y-65360130D01*
X222082598Y-65280941D01*
X222254655Y-65165977D01*
X222400977Y-65019655D01*
X222515941Y-64847598D01*
X222595130Y-64656420D01*
X222635500Y-64453465D01*
X222635500Y-64246535D01*
X222635499Y-64246530D01*
X223034500Y-64246530D01*
X223034500Y-64453469D01*
X223074868Y-64656412D01*
X223074870Y-64656420D01*
X223131313Y-64792686D01*
X223154059Y-64847598D01*
X223155998Y-64850500D01*
X223269024Y-65019657D01*
X223415342Y-65165975D01*
X223415345Y-65165977D01*
X223587402Y-65280941D01*
X223778580Y-65360130D01*
X223981530Y-65400499D01*
X223981534Y-65400500D01*
X223981535Y-65400500D01*
X224188466Y-65400500D01*
X224188467Y-65400499D01*
X224391420Y-65360130D01*
X224582598Y-65280941D01*
X224754655Y-65165977D01*
X224900977Y-65019655D01*
X225015941Y-64847598D01*
X225095130Y-64656420D01*
X225135500Y-64453465D01*
X225135500Y-64246535D01*
X225095130Y-64043580D01*
X225015941Y-63852402D01*
X224900977Y-63680345D01*
X224900974Y-63680341D01*
X224854741Y-63634108D01*
X226299500Y-63634108D01*
X226299500Y-63765892D01*
X226322681Y-63852403D01*
X226333608Y-63893185D01*
X226333611Y-63893192D01*
X226359481Y-63938001D01*
X226375954Y-64005901D01*
X226359481Y-64061999D01*
X226333611Y-64106807D01*
X226333608Y-64106814D01*
X226299500Y-64234108D01*
X226299500Y-64365892D01*
X226304382Y-64384110D01*
X226333608Y-64493185D01*
X226333611Y-64493192D01*
X226359481Y-64538001D01*
X226375954Y-64605901D01*
X226359481Y-64661999D01*
X226333611Y-64706807D01*
X226333608Y-64706814D01*
X226299500Y-64834108D01*
X226299500Y-64965892D01*
X226313906Y-65019655D01*
X226333608Y-65093187D01*
X226341475Y-65106812D01*
X226399500Y-65207314D01*
X226492686Y-65300500D01*
X226591521Y-65357563D01*
X226605944Y-65365890D01*
X226606814Y-65366392D01*
X226734108Y-65400500D01*
X226734110Y-65400500D01*
X226865890Y-65400500D01*
X226865892Y-65400500D01*
X226993186Y-65366392D01*
X227107314Y-65300500D01*
X227200500Y-65207314D01*
X227266392Y-65093186D01*
X227300500Y-64965892D01*
X227300500Y-64834108D01*
X227266392Y-64706814D01*
X227266391Y-64706813D01*
X227266391Y-64706811D01*
X227240519Y-64662002D01*
X227224045Y-64594102D01*
X227240519Y-64537998D01*
X227266391Y-64493188D01*
X227266392Y-64493185D01*
X227300500Y-64365892D01*
X227300500Y-64234108D01*
X227266392Y-64106814D01*
X227266391Y-64106813D01*
X227266391Y-64106811D01*
X227240519Y-64062002D01*
X227224045Y-63994102D01*
X227240519Y-63937998D01*
X227266391Y-63893188D01*
X227266392Y-63893185D01*
X227300500Y-63765892D01*
X227300500Y-63634108D01*
X227266392Y-63506814D01*
X227200500Y-63392686D01*
X227107314Y-63299500D01*
X227050250Y-63266554D01*
X226993187Y-63233608D01*
X226929539Y-63216554D01*
X226865892Y-63199500D01*
X226734108Y-63199500D01*
X226606812Y-63233608D01*
X226492686Y-63299500D01*
X226492683Y-63299502D01*
X226399502Y-63392683D01*
X226399500Y-63392686D01*
X226333608Y-63506812D01*
X226326317Y-63534023D01*
X226299500Y-63634108D01*
X224854741Y-63634108D01*
X224754657Y-63534024D01*
X224649208Y-63463566D01*
X224582598Y-63419059D01*
X224518928Y-63392686D01*
X224391420Y-63339870D01*
X224391412Y-63339868D01*
X224188469Y-63299500D01*
X224188465Y-63299500D01*
X223981535Y-63299500D01*
X223981530Y-63299500D01*
X223778587Y-63339868D01*
X223778579Y-63339870D01*
X223587403Y-63419058D01*
X223415342Y-63534024D01*
X223269024Y-63680342D01*
X223154058Y-63852403D01*
X223074870Y-64043579D01*
X223074868Y-64043587D01*
X223034500Y-64246530D01*
X222635499Y-64246530D01*
X222595130Y-64043580D01*
X222515941Y-63852402D01*
X222400977Y-63680345D01*
X222400975Y-63680342D01*
X222254657Y-63534024D01*
X222149208Y-63463566D01*
X222082598Y-63419059D01*
X222018928Y-63392686D01*
X221891420Y-63339870D01*
X221891412Y-63339868D01*
X221688469Y-63299500D01*
X221688465Y-63299500D01*
X221481535Y-63299500D01*
X221481530Y-63299500D01*
X221278587Y-63339868D01*
X221278579Y-63339870D01*
X221087403Y-63419058D01*
X220915342Y-63534024D01*
X220769024Y-63680342D01*
X220654058Y-63852403D01*
X220574870Y-64043579D01*
X220574868Y-64043587D01*
X220534500Y-64246530D01*
X219400500Y-64246530D01*
X219400500Y-64234108D01*
X219366392Y-64106814D01*
X219366391Y-64106813D01*
X219366391Y-64106811D01*
X219340519Y-64062002D01*
X219324045Y-63994102D01*
X219340519Y-63937998D01*
X219366391Y-63893188D01*
X219366392Y-63893185D01*
X219400500Y-63765892D01*
X219400500Y-63634108D01*
X219366392Y-63506814D01*
X219300500Y-63392686D01*
X219207314Y-63299500D01*
X219150250Y-63266554D01*
X219093187Y-63233608D01*
X219029539Y-63216554D01*
X218965892Y-63199500D01*
X218834108Y-63199500D01*
X218706812Y-63233608D01*
X218592686Y-63299500D01*
X218592683Y-63299502D01*
X218499502Y-63392683D01*
X218499500Y-63392686D01*
X218433608Y-63506812D01*
X218426317Y-63534023D01*
X218399500Y-63634108D01*
X189463656Y-63634108D01*
X194060945Y-59036819D01*
X194122268Y-59003334D01*
X194148626Y-59000500D01*
X218851374Y-59000500D01*
X218918413Y-59020185D01*
X218939055Y-59036819D01*
X220167926Y-60265690D01*
X220320801Y-60376760D01*
X220489168Y-60462547D01*
X220668882Y-60520940D01*
X220738870Y-60532025D01*
X220855513Y-60550500D01*
X220855518Y-60550500D01*
X224179486Y-60550500D01*
X224366118Y-60520940D01*
X224545832Y-60462547D01*
X224714199Y-60376760D01*
X224867073Y-60265690D01*
X225000690Y-60132073D01*
X225111760Y-59979199D01*
X225197547Y-59810832D01*
X225255940Y-59631118D01*
X225259649Y-59607701D01*
X225285500Y-59444486D01*
X225285500Y-59263389D01*
X230164500Y-59263389D01*
X230164500Y-59436611D01*
X230191598Y-59607701D01*
X230245127Y-59772445D01*
X230323768Y-59926788D01*
X230425586Y-60066928D01*
X230548072Y-60189414D01*
X230688212Y-60291232D01*
X230842555Y-60369873D01*
X231007299Y-60423402D01*
X231178389Y-60450500D01*
X231178390Y-60450500D01*
X231351610Y-60450500D01*
X231351611Y-60450500D01*
X231522701Y-60423402D01*
X231687445Y-60369873D01*
X231841788Y-60291232D01*
X231981928Y-60189414D01*
X232104414Y-60066928D01*
X232206232Y-59926788D01*
X232284873Y-59772445D01*
X232338402Y-59607701D01*
X232365500Y-59436611D01*
X232365500Y-59263389D01*
X232338402Y-59092299D01*
X232284873Y-58927555D01*
X232206232Y-58773212D01*
X232104414Y-58633072D01*
X231981928Y-58510586D01*
X231841788Y-58408768D01*
X231751962Y-58363000D01*
X231687447Y-58330128D01*
X231687446Y-58330127D01*
X231687445Y-58330127D01*
X231522701Y-58276598D01*
X231522699Y-58276597D01*
X231522698Y-58276597D01*
X231391271Y-58255781D01*
X231351611Y-58249500D01*
X231178389Y-58249500D01*
X231138728Y-58255781D01*
X231007302Y-58276597D01*
X230842552Y-58330128D01*
X230688211Y-58408768D01*
X230608256Y-58466859D01*
X230548072Y-58510586D01*
X230548070Y-58510588D01*
X230548069Y-58510588D01*
X230425588Y-58633069D01*
X230425588Y-58633070D01*
X230425586Y-58633072D01*
X230381859Y-58693256D01*
X230323768Y-58773211D01*
X230245128Y-58927552D01*
X230191597Y-59092302D01*
X230165747Y-59255513D01*
X230164500Y-59263389D01*
X225285500Y-59263389D01*
X225285500Y-59255513D01*
X225255940Y-59068881D01*
X225197545Y-58889163D01*
X225152290Y-58800347D01*
X225111760Y-58720801D01*
X225000690Y-58567927D01*
X224867073Y-58434310D01*
X224714199Y-58323240D01*
X224545836Y-58237454D01*
X224366118Y-58179059D01*
X224179486Y-58149500D01*
X224179481Y-58149500D01*
X221679481Y-58149500D01*
X221498626Y-58149500D01*
X221431587Y-58129815D01*
X221410945Y-58113181D01*
X220182076Y-56884312D01*
X220182074Y-56884310D01*
X220029199Y-56773240D01*
X220014774Y-56765890D01*
X219860836Y-56687454D01*
X219681118Y-56629059D01*
X219494486Y-56599500D01*
X219494481Y-56599500D01*
X193694482Y-56599500D01*
X193505519Y-56599500D01*
X193505514Y-56599500D01*
X193318881Y-56629059D01*
X193139163Y-56687454D01*
X192970800Y-56773240D01*
X192817923Y-56884312D01*
X182584312Y-67117923D01*
X182584307Y-67117929D01*
X182488716Y-67249500D01*
X182488715Y-67249502D01*
X182473240Y-67270799D01*
X182387454Y-67439163D01*
X182329059Y-67618881D01*
X182299500Y-67805513D01*
X182299500Y-82109102D01*
X182279815Y-82176141D01*
X182260267Y-82199603D01*
X182252501Y-82206876D01*
X181506882Y-82952495D01*
X181499733Y-82960129D01*
X181497682Y-82962319D01*
X181486995Y-82974506D01*
X181478469Y-82984896D01*
X181466496Y-83000500D01*
X181413888Y-83069059D01*
X181398960Y-83091400D01*
X181398955Y-83091408D01*
X181382771Y-83119441D01*
X181370876Y-83143561D01*
X181370874Y-83143567D01*
X181333428Y-83233970D01*
X181324789Y-83259418D01*
X181316406Y-83290701D01*
X181316404Y-83290711D01*
X181311164Y-83317058D01*
X181297320Y-83422211D01*
X181296001Y-83435604D01*
X181294940Y-83451786D01*
X181294500Y-83465245D01*
X181294500Y-83623111D01*
X181274815Y-83690150D01*
X181222011Y-83735905D01*
X181152853Y-83745849D01*
X181089297Y-83716824D01*
X181082819Y-83710792D01*
X180977512Y-83605485D01*
X180977510Y-83605483D01*
X180786433Y-83466657D01*
X180777297Y-83462002D01*
X180575996Y-83359433D01*
X180351368Y-83286446D01*
X180118097Y-83249500D01*
X180118092Y-83249500D01*
X179881908Y-83249500D01*
X179881903Y-83249500D01*
X179648631Y-83286446D01*
X179424003Y-83359433D01*
X179213566Y-83466657D01*
X179132939Y-83525237D01*
X179022490Y-83605483D01*
X179022488Y-83605485D01*
X179022487Y-83605485D01*
X178855485Y-83772487D01*
X178855485Y-83772488D01*
X178855483Y-83772490D01*
X178795862Y-83854550D01*
X178716657Y-83963566D01*
X178609433Y-84174003D01*
X178536446Y-84398631D01*
X178499500Y-84631902D01*
X161000500Y-84631902D01*
X161000500Y-79161304D01*
X168759500Y-79161304D01*
X168759500Y-79338695D01*
X168794103Y-79512658D01*
X168794106Y-79512667D01*
X168861983Y-79676540D01*
X168861990Y-79676553D01*
X168960535Y-79824034D01*
X168960538Y-79824038D01*
X169085961Y-79949461D01*
X169085965Y-79949464D01*
X169233446Y-80048009D01*
X169233459Y-80048016D01*
X169297372Y-80074489D01*
X169397334Y-80115894D01*
X169397336Y-80115894D01*
X169397341Y-80115896D01*
X169571304Y-80150499D01*
X169571307Y-80150500D01*
X169571309Y-80150500D01*
X169748692Y-80150500D01*
X169769164Y-80146427D01*
X169826713Y-80134980D01*
X169896304Y-80141207D01*
X169951482Y-80184069D01*
X169974727Y-80249959D01*
X169972523Y-80280787D01*
X169949500Y-80396536D01*
X169949500Y-80603469D01*
X169989868Y-80806412D01*
X169989870Y-80806420D01*
X170069058Y-80997596D01*
X170184024Y-81169657D01*
X170330342Y-81315975D01*
X170330345Y-81315977D01*
X170502402Y-81430941D01*
X170693580Y-81510130D01*
X170896530Y-81550499D01*
X170896534Y-81550500D01*
X170896535Y-81550500D01*
X171103466Y-81550500D01*
X171103467Y-81550499D01*
X171306420Y-81510130D01*
X171497598Y-81430941D01*
X171669655Y-81315977D01*
X171815977Y-81169655D01*
X171930941Y-80997598D01*
X172010130Y-80806420D01*
X172050500Y-80603465D01*
X172050500Y-80396535D01*
X172050499Y-80396530D01*
X172449500Y-80396530D01*
X172449500Y-80603469D01*
X172489868Y-80806412D01*
X172489870Y-80806420D01*
X172569058Y-80997596D01*
X172684024Y-81169657D01*
X172830342Y-81315975D01*
X172830345Y-81315977D01*
X173002402Y-81430941D01*
X173193580Y-81510130D01*
X173396530Y-81550499D01*
X173396534Y-81550500D01*
X173396535Y-81550500D01*
X173603466Y-81550500D01*
X173603467Y-81550499D01*
X173806420Y-81510130D01*
X173997598Y-81430941D01*
X174169655Y-81315977D01*
X174315977Y-81169655D01*
X174430941Y-80997598D01*
X174510130Y-80806420D01*
X174550500Y-80603465D01*
X174550500Y-80396535D01*
X174510130Y-80193580D01*
X174457368Y-80066203D01*
X174443160Y-80031902D01*
X178499500Y-80031902D01*
X178499500Y-80268097D01*
X178536446Y-80501368D01*
X178609433Y-80725996D01*
X178697839Y-80899500D01*
X178716657Y-80936433D01*
X178855483Y-81127510D01*
X179022490Y-81294517D01*
X179213567Y-81433343D01*
X179312991Y-81484002D01*
X179424003Y-81540566D01*
X179424005Y-81540566D01*
X179424008Y-81540568D01*
X179544412Y-81579689D01*
X179648631Y-81613553D01*
X179881903Y-81650500D01*
X179881908Y-81650500D01*
X180118097Y-81650500D01*
X180351368Y-81613553D01*
X180372108Y-81606814D01*
X180575992Y-81540568D01*
X180786433Y-81433343D01*
X180977510Y-81294517D01*
X181144517Y-81127510D01*
X181283343Y-80936433D01*
X181390568Y-80725992D01*
X181463553Y-80501368D01*
X181470084Y-80460131D01*
X181500500Y-80268097D01*
X181500500Y-80031902D01*
X181463553Y-79798631D01*
X181423883Y-79676540D01*
X181390568Y-79574008D01*
X181390566Y-79574005D01*
X181390566Y-79574003D01*
X181321453Y-79438363D01*
X181283343Y-79363567D01*
X181144517Y-79172490D01*
X180977510Y-79005483D01*
X180786433Y-78866657D01*
X180784928Y-78865890D01*
X180575996Y-78759433D01*
X180351368Y-78686446D01*
X180118097Y-78649500D01*
X180118092Y-78649500D01*
X179881908Y-78649500D01*
X179881903Y-78649500D01*
X179648631Y-78686446D01*
X179424003Y-78759433D01*
X179213566Y-78866657D01*
X179175269Y-78894482D01*
X179022490Y-79005483D01*
X179022488Y-79005485D01*
X179022487Y-79005485D01*
X178855485Y-79172487D01*
X178855485Y-79172488D01*
X178855483Y-79172490D01*
X178830545Y-79206814D01*
X178716657Y-79363566D01*
X178609433Y-79574003D01*
X178536446Y-79798631D01*
X178499500Y-80031902D01*
X174443160Y-80031902D01*
X174430942Y-80002404D01*
X174315975Y-79830342D01*
X174169657Y-79684024D01*
X174033705Y-79593185D01*
X173997598Y-79569059D01*
X173997436Y-79568992D01*
X173806420Y-79489870D01*
X173806412Y-79489868D01*
X173603469Y-79449500D01*
X173603465Y-79449500D01*
X173396535Y-79449500D01*
X173396530Y-79449500D01*
X173193587Y-79489868D01*
X173193579Y-79489870D01*
X173002403Y-79569058D01*
X172830342Y-79684024D01*
X172684024Y-79830342D01*
X172569058Y-80002403D01*
X172489870Y-80193579D01*
X172489868Y-80193587D01*
X172449500Y-80396530D01*
X172050499Y-80396530D01*
X172010130Y-80193580D01*
X171930941Y-80002402D01*
X171815977Y-79830345D01*
X171815975Y-79830342D01*
X171669657Y-79684024D01*
X171533705Y-79593185D01*
X171497598Y-79569059D01*
X171497436Y-79568992D01*
X171306420Y-79489870D01*
X171306412Y-79489868D01*
X171103469Y-79449500D01*
X171103465Y-79449500D01*
X170896535Y-79449500D01*
X170896530Y-79449500D01*
X170705720Y-79487454D01*
X170636128Y-79481227D01*
X170580951Y-79438363D01*
X170557707Y-79372473D01*
X170557543Y-79363975D01*
X170557712Y-79352706D01*
X170560500Y-79338691D01*
X170560500Y-79167050D01*
X170560514Y-79166118D01*
X170570598Y-79133588D01*
X170580185Y-79100941D01*
X170580916Y-79100307D01*
X170581203Y-79099382D01*
X170607284Y-79077458D01*
X170632989Y-79055186D01*
X170633946Y-79055048D01*
X170634688Y-79054425D01*
X170668455Y-79050086D01*
X170702147Y-79045242D01*
X170703866Y-79045536D01*
X170703988Y-79045521D01*
X170704107Y-79045577D01*
X170708680Y-79046360D01*
X170759908Y-79056551D01*
X170800000Y-79060500D01*
X170800006Y-79060500D01*
X171599994Y-79060500D01*
X171600000Y-79060500D01*
X171640092Y-79056551D01*
X171737676Y-79037140D01*
X171811754Y-79006456D01*
X171894482Y-78951179D01*
X171951179Y-78894482D01*
X172006456Y-78811754D01*
X172037140Y-78737676D01*
X172056551Y-78640092D01*
X172060500Y-78600000D01*
X172060500Y-77896530D01*
X172449500Y-77896530D01*
X172449500Y-78103469D01*
X172489868Y-78306412D01*
X172489870Y-78306420D01*
X172569058Y-78497596D01*
X172684024Y-78669657D01*
X172830342Y-78815975D01*
X172830345Y-78815977D01*
X173002402Y-78930941D01*
X173193580Y-79010130D01*
X173375737Y-79046363D01*
X173396530Y-79050499D01*
X173396534Y-79050500D01*
X173396535Y-79050500D01*
X173603466Y-79050500D01*
X173603467Y-79050499D01*
X173806420Y-79010130D01*
X173997598Y-78930941D01*
X174169655Y-78815977D01*
X174315977Y-78669655D01*
X174430941Y-78497598D01*
X174510130Y-78306420D01*
X174550500Y-78103465D01*
X174550500Y-77896535D01*
X174510130Y-77693580D01*
X174430941Y-77502402D01*
X174315977Y-77330345D01*
X174315975Y-77330342D01*
X174169657Y-77184024D01*
X174039810Y-77097264D01*
X173997598Y-77069059D01*
X173978009Y-77060945D01*
X173806420Y-76989870D01*
X173806412Y-76989868D01*
X173603469Y-76949500D01*
X173603465Y-76949500D01*
X173396535Y-76949500D01*
X173396530Y-76949500D01*
X173193587Y-76989868D01*
X173193579Y-76989870D01*
X173002403Y-77069058D01*
X172830342Y-77184024D01*
X172684024Y-77330342D01*
X172569058Y-77502403D01*
X172489870Y-77693579D01*
X172489868Y-77693587D01*
X172449500Y-77896530D01*
X172060500Y-77896530D01*
X172060500Y-77400000D01*
X172056551Y-77359908D01*
X172037140Y-77262324D01*
X172037138Y-77262319D01*
X172006459Y-77188252D01*
X172006452Y-77188239D01*
X171951179Y-77105518D01*
X171951176Y-77105514D01*
X171894485Y-77048823D01*
X171894481Y-77048820D01*
X171811760Y-76993547D01*
X171811747Y-76993540D01*
X171737680Y-76962861D01*
X171737668Y-76962858D01*
X171640108Y-76943452D01*
X171640094Y-76943449D01*
X171630069Y-76942461D01*
X171600000Y-76939500D01*
X170400000Y-76939500D01*
X170373272Y-76942132D01*
X170359905Y-76943449D01*
X170359891Y-76943452D01*
X170262331Y-76962858D01*
X170262319Y-76962861D01*
X170188252Y-76993540D01*
X170188239Y-76993547D01*
X170105518Y-77048820D01*
X170105514Y-77048823D01*
X170048823Y-77105514D01*
X170048820Y-77105518D01*
X169993547Y-77188239D01*
X169993540Y-77188252D01*
X169962861Y-77262319D01*
X169962858Y-77262331D01*
X169943452Y-77359891D01*
X169943449Y-77359905D01*
X169939500Y-77400005D01*
X169939500Y-78199995D01*
X169941944Y-78224809D01*
X169928925Y-78293456D01*
X169880861Y-78344166D01*
X169813010Y-78360841D01*
X169794351Y-78358582D01*
X169748691Y-78349500D01*
X169571309Y-78349500D01*
X169571306Y-78349500D01*
X169397341Y-78384103D01*
X169397332Y-78384106D01*
X169233459Y-78451983D01*
X169233446Y-78451990D01*
X169085965Y-78550535D01*
X169085961Y-78550538D01*
X168960538Y-78675961D01*
X168960535Y-78675965D01*
X168861990Y-78823446D01*
X168861983Y-78823459D01*
X168794106Y-78987332D01*
X168794103Y-78987341D01*
X168759500Y-79161304D01*
X161000500Y-79161304D01*
X161000500Y-68731902D01*
X178499500Y-68731902D01*
X178499500Y-68968097D01*
X178536446Y-69201368D01*
X178609433Y-69425996D01*
X178716657Y-69636433D01*
X178855483Y-69827510D01*
X179022490Y-69994517D01*
X179213567Y-70133343D01*
X179312991Y-70184002D01*
X179424003Y-70240566D01*
X179424005Y-70240566D01*
X179424008Y-70240568D01*
X179544412Y-70279689D01*
X179648631Y-70313553D01*
X179881903Y-70350500D01*
X179881908Y-70350500D01*
X180118097Y-70350500D01*
X180351368Y-70313553D01*
X180575992Y-70240568D01*
X180786433Y-70133343D01*
X180977510Y-69994517D01*
X181144517Y-69827510D01*
X181283343Y-69636433D01*
X181390568Y-69425992D01*
X181463553Y-69201368D01*
X181484931Y-69066392D01*
X181500500Y-68968097D01*
X181500500Y-68731902D01*
X181463553Y-68498631D01*
X181390566Y-68274003D01*
X181334002Y-68162991D01*
X181283343Y-68063567D01*
X181144517Y-67872490D01*
X180977510Y-67705483D01*
X180786433Y-67566657D01*
X180575996Y-67459433D01*
X180351368Y-67386446D01*
X180118097Y-67349500D01*
X180118092Y-67349500D01*
X179881908Y-67349500D01*
X179881903Y-67349500D01*
X179648631Y-67386446D01*
X179424003Y-67459433D01*
X179213566Y-67566657D01*
X179104550Y-67645862D01*
X179022490Y-67705483D01*
X179022488Y-67705485D01*
X179022487Y-67705485D01*
X178855485Y-67872487D01*
X178855485Y-67872488D01*
X178855483Y-67872490D01*
X178818493Y-67923402D01*
X178716657Y-68063566D01*
X178609433Y-68274003D01*
X178536446Y-68498631D01*
X178499500Y-68731902D01*
X161000500Y-68731902D01*
X161000500Y-64131902D01*
X178499500Y-64131902D01*
X178499500Y-64368097D01*
X178536446Y-64601368D01*
X178609433Y-64825996D01*
X178694365Y-64992683D01*
X178716657Y-65036433D01*
X178855483Y-65227510D01*
X179022490Y-65394517D01*
X179213567Y-65533343D01*
X179312991Y-65584002D01*
X179424003Y-65640566D01*
X179424005Y-65640566D01*
X179424008Y-65640568D01*
X179544412Y-65679689D01*
X179648631Y-65713553D01*
X179881903Y-65750500D01*
X179881908Y-65750500D01*
X180118097Y-65750500D01*
X180351368Y-65713553D01*
X180575992Y-65640568D01*
X180786433Y-65533343D01*
X180977510Y-65394517D01*
X181144517Y-65227510D01*
X181283343Y-65036433D01*
X181390568Y-64825992D01*
X181463553Y-64601368D01*
X181477091Y-64515891D01*
X181500500Y-64368097D01*
X181500500Y-64131902D01*
X181463553Y-63898631D01*
X181392626Y-63680342D01*
X181390568Y-63674008D01*
X181390566Y-63674005D01*
X181390566Y-63674003D01*
X181334002Y-63562991D01*
X181283343Y-63463567D01*
X181144517Y-63272490D01*
X180977510Y-63105483D01*
X180786433Y-62966657D01*
X180575996Y-62859433D01*
X180351368Y-62786446D01*
X180118097Y-62749500D01*
X180118092Y-62749500D01*
X179881908Y-62749500D01*
X179881903Y-62749500D01*
X179648631Y-62786446D01*
X179424003Y-62859433D01*
X179213566Y-62966657D01*
X179104550Y-63045862D01*
X179022490Y-63105483D01*
X179022488Y-63105485D01*
X179022487Y-63105485D01*
X178855485Y-63272487D01*
X178855485Y-63272488D01*
X178855483Y-63272490D01*
X178795862Y-63354550D01*
X178716657Y-63463566D01*
X178609433Y-63674003D01*
X178536446Y-63898631D01*
X178499500Y-64131902D01*
X161000500Y-64131902D01*
X161000500Y-57796608D01*
X182849500Y-57796608D01*
X182849500Y-57928391D01*
X182883608Y-58055687D01*
X182916554Y-58112750D01*
X182949500Y-58169814D01*
X183042686Y-58263000D01*
X183156814Y-58328892D01*
X183284108Y-58363000D01*
X183284110Y-58363000D01*
X183415890Y-58363000D01*
X183415892Y-58363000D01*
X183543186Y-58328892D01*
X183657314Y-58263000D01*
X183750500Y-58169814D01*
X183816392Y-58055686D01*
X183850500Y-57928392D01*
X183850500Y-57796608D01*
X184749500Y-57796608D01*
X184749500Y-57928391D01*
X184783608Y-58055687D01*
X184816554Y-58112750D01*
X184849500Y-58169814D01*
X184942686Y-58263000D01*
X185056814Y-58328892D01*
X185184108Y-58363000D01*
X185184110Y-58363000D01*
X185315890Y-58363000D01*
X185315892Y-58363000D01*
X185443186Y-58328892D01*
X185557314Y-58263000D01*
X185650500Y-58169814D01*
X185716392Y-58055686D01*
X185750500Y-57928392D01*
X185750500Y-57796608D01*
X185716392Y-57669314D01*
X185650500Y-57555186D01*
X185557314Y-57462000D01*
X185500250Y-57429054D01*
X185443187Y-57396108D01*
X185379539Y-57379054D01*
X185315892Y-57362000D01*
X185184108Y-57362000D01*
X185056812Y-57396108D01*
X184942686Y-57462000D01*
X184942683Y-57462002D01*
X184849502Y-57555183D01*
X184849500Y-57555186D01*
X184783608Y-57669312D01*
X184749500Y-57796608D01*
X183850500Y-57796608D01*
X183816392Y-57669314D01*
X183750500Y-57555186D01*
X183657314Y-57462000D01*
X183600250Y-57429054D01*
X183543187Y-57396108D01*
X183479539Y-57379054D01*
X183415892Y-57362000D01*
X183284108Y-57362000D01*
X183156812Y-57396108D01*
X183042686Y-57462000D01*
X183042683Y-57462002D01*
X182949502Y-57555183D01*
X182949500Y-57555186D01*
X182883608Y-57669312D01*
X182849500Y-57796608D01*
X161000500Y-57796608D01*
X161000500Y-56634108D01*
X171099500Y-56634108D01*
X171099500Y-56765891D01*
X171133608Y-56893187D01*
X171166554Y-56950250D01*
X171199500Y-57007314D01*
X171292686Y-57100500D01*
X171406814Y-57166392D01*
X171534108Y-57200500D01*
X171534110Y-57200500D01*
X171665890Y-57200500D01*
X171665892Y-57200500D01*
X171793186Y-57166392D01*
X171907314Y-57100500D01*
X172000500Y-57007314D01*
X172066392Y-56893186D01*
X172100500Y-56765892D01*
X172100500Y-56634108D01*
X172066392Y-56506814D01*
X172000500Y-56392686D01*
X171907314Y-56299500D01*
X171850250Y-56266554D01*
X171793187Y-56233608D01*
X171729539Y-56216554D01*
X171665892Y-56199500D01*
X171534108Y-56199500D01*
X171406812Y-56233608D01*
X171292686Y-56299500D01*
X171292683Y-56299502D01*
X171199502Y-56392683D01*
X171199500Y-56392686D01*
X171133608Y-56506812D01*
X171099500Y-56634108D01*
X161000500Y-56634108D01*
X161000500Y-56034108D01*
X175399500Y-56034108D01*
X175399500Y-56165891D01*
X175433608Y-56293187D01*
X175466554Y-56350250D01*
X175499500Y-56407314D01*
X175592686Y-56500500D01*
X175706814Y-56566392D01*
X175834108Y-56600500D01*
X175834110Y-56600500D01*
X175965890Y-56600500D01*
X175965892Y-56600500D01*
X176093186Y-56566392D01*
X176207314Y-56500500D01*
X176300500Y-56407314D01*
X176366392Y-56293186D01*
X176400500Y-56165892D01*
X176400500Y-56034108D01*
X176366392Y-55906814D01*
X176300500Y-55792686D01*
X176207314Y-55699500D01*
X176150250Y-55666554D01*
X176093187Y-55633608D01*
X176029539Y-55616554D01*
X175965892Y-55599500D01*
X175834108Y-55599500D01*
X175706812Y-55633608D01*
X175592686Y-55699500D01*
X175592683Y-55699502D01*
X175499502Y-55792683D01*
X175499500Y-55792686D01*
X175433608Y-55906812D01*
X175399500Y-56034108D01*
X161000500Y-56034108D01*
X161000500Y-51378711D01*
X163649500Y-51378711D01*
X163649500Y-51621288D01*
X163681161Y-51861785D01*
X163743947Y-52096104D01*
X163836773Y-52320205D01*
X163836776Y-52320212D01*
X163958064Y-52530289D01*
X163958066Y-52530292D01*
X163958067Y-52530293D01*
X164105733Y-52722736D01*
X164105739Y-52722743D01*
X164277256Y-52894260D01*
X164277262Y-52894265D01*
X164469711Y-53041936D01*
X164679788Y-53163224D01*
X164903900Y-53256054D01*
X165138211Y-53318838D01*
X165318586Y-53342584D01*
X165378711Y-53350500D01*
X165378712Y-53350500D01*
X165621289Y-53350500D01*
X165669388Y-53344167D01*
X165861789Y-53318838D01*
X166096100Y-53256054D01*
X166320212Y-53163224D01*
X166530289Y-53041936D01*
X166722738Y-52894265D01*
X166894265Y-52722738D01*
X167041936Y-52530289D01*
X167163224Y-52320212D01*
X167256054Y-52096100D01*
X167318838Y-51861789D01*
X167350500Y-51621288D01*
X167350500Y-51378712D01*
X167318838Y-51138211D01*
X167256054Y-50903900D01*
X167163224Y-50679788D01*
X167041936Y-50469711D01*
X166916576Y-50306338D01*
X166894266Y-50277263D01*
X166894260Y-50277256D01*
X166722743Y-50105739D01*
X166722736Y-50105733D01*
X166530293Y-49958067D01*
X166530292Y-49958066D01*
X166530289Y-49958064D01*
X166320212Y-49836776D01*
X166320205Y-49836773D01*
X166096104Y-49743947D01*
X166074638Y-49738195D01*
X165861789Y-49681162D01*
X165861788Y-49681161D01*
X165861785Y-49681161D01*
X165621289Y-49649500D01*
X165621288Y-49649500D01*
X165378712Y-49649500D01*
X165378711Y-49649500D01*
X165138214Y-49681161D01*
X164903895Y-49743947D01*
X164679794Y-49836773D01*
X164679785Y-49836777D01*
X164469706Y-49958067D01*
X164277263Y-50105733D01*
X164277256Y-50105739D01*
X164105739Y-50277256D01*
X164105733Y-50277263D01*
X163958067Y-50469706D01*
X163836777Y-50679785D01*
X163836773Y-50679794D01*
X163743947Y-50903895D01*
X163681161Y-51138214D01*
X163649500Y-51378711D01*
X161000500Y-51378711D01*
X161000500Y-49580247D01*
X171129500Y-49580247D01*
X171129500Y-51419752D01*
X171141131Y-51478229D01*
X171141132Y-51478230D01*
X171185447Y-51544552D01*
X171251769Y-51588867D01*
X171251770Y-51588868D01*
X171310247Y-51600499D01*
X171310250Y-51600500D01*
X171310252Y-51600500D01*
X173149750Y-51600500D01*
X173149751Y-51600499D01*
X173164568Y-51597552D01*
X173208229Y-51588868D01*
X173208229Y-51588867D01*
X173208231Y-51588867D01*
X173274552Y-51544552D01*
X173318867Y-51478231D01*
X173318867Y-51478229D01*
X173318868Y-51478229D01*
X173330499Y-51419752D01*
X173330500Y-51419750D01*
X173330500Y-50413389D01*
X173669500Y-50413389D01*
X173669500Y-50586611D01*
X173696598Y-50757701D01*
X173750127Y-50922445D01*
X173828768Y-51076788D01*
X173930586Y-51216928D01*
X174053072Y-51339414D01*
X174193212Y-51441232D01*
X174347555Y-51519873D01*
X174512299Y-51573402D01*
X174683389Y-51600500D01*
X174683390Y-51600500D01*
X174856610Y-51600500D01*
X174856611Y-51600500D01*
X175027701Y-51573402D01*
X175192445Y-51519873D01*
X175346788Y-51441232D01*
X175486928Y-51339414D01*
X175609414Y-51216928D01*
X175711232Y-51076788D01*
X175789873Y-50922445D01*
X175843402Y-50757701D01*
X175870500Y-50586611D01*
X175870500Y-50413389D01*
X175843402Y-50242299D01*
X175789873Y-50077555D01*
X175711232Y-49923212D01*
X175609414Y-49783072D01*
X175486928Y-49660586D01*
X175376351Y-49580247D01*
X176929500Y-49580247D01*
X176929500Y-51419752D01*
X176941131Y-51478229D01*
X176941132Y-51478230D01*
X176985447Y-51544552D01*
X177051769Y-51588867D01*
X177051770Y-51588868D01*
X177110247Y-51600499D01*
X177110250Y-51600500D01*
X177110252Y-51600500D01*
X178949750Y-51600500D01*
X178949751Y-51600499D01*
X178964568Y-51597552D01*
X179008229Y-51588868D01*
X179008229Y-51588867D01*
X179008231Y-51588867D01*
X179074552Y-51544552D01*
X179118867Y-51478231D01*
X179118867Y-51478229D01*
X179118868Y-51478229D01*
X179130499Y-51419752D01*
X179130500Y-51419750D01*
X179130500Y-50413389D01*
X179469500Y-50413389D01*
X179469500Y-50586611D01*
X179496598Y-50757701D01*
X179550127Y-50922445D01*
X179628768Y-51076788D01*
X179730586Y-51216928D01*
X179853072Y-51339414D01*
X179993212Y-51441232D01*
X180147555Y-51519873D01*
X180312299Y-51573402D01*
X180483389Y-51600500D01*
X180483390Y-51600500D01*
X180656610Y-51600500D01*
X180656611Y-51600500D01*
X180827701Y-51573402D01*
X180992445Y-51519873D01*
X181146788Y-51441232D01*
X181286928Y-51339414D01*
X181409414Y-51216928D01*
X181511232Y-51076788D01*
X181589873Y-50922445D01*
X181643402Y-50757701D01*
X181670500Y-50586611D01*
X181670500Y-50413389D01*
X181643402Y-50242299D01*
X181589873Y-50077555D01*
X181511232Y-49923212D01*
X181409414Y-49783072D01*
X181286928Y-49660586D01*
X181176351Y-49580247D01*
X182729500Y-49580247D01*
X182729500Y-51419752D01*
X182741131Y-51478229D01*
X182741132Y-51478230D01*
X182785447Y-51544552D01*
X182851769Y-51588867D01*
X182851770Y-51588868D01*
X182910247Y-51600499D01*
X182910250Y-51600500D01*
X182910252Y-51600500D01*
X184749750Y-51600500D01*
X184749751Y-51600499D01*
X184764568Y-51597552D01*
X184808229Y-51588868D01*
X184808229Y-51588867D01*
X184808231Y-51588867D01*
X184874552Y-51544552D01*
X184918867Y-51478231D01*
X184918867Y-51478229D01*
X184918868Y-51478229D01*
X184930499Y-51419752D01*
X184930500Y-51419750D01*
X184930500Y-50413389D01*
X185269500Y-50413389D01*
X185269500Y-50586611D01*
X185296598Y-50757701D01*
X185350127Y-50922445D01*
X185428768Y-51076788D01*
X185530586Y-51216928D01*
X185653072Y-51339414D01*
X185793212Y-51441232D01*
X185947555Y-51519873D01*
X186112299Y-51573402D01*
X186283389Y-51600500D01*
X186283390Y-51600500D01*
X186456610Y-51600500D01*
X186456611Y-51600500D01*
X186627701Y-51573402D01*
X186792445Y-51519873D01*
X186946788Y-51441232D01*
X187086928Y-51339414D01*
X187209414Y-51216928D01*
X187311232Y-51076788D01*
X187389873Y-50922445D01*
X187443402Y-50757701D01*
X187470500Y-50586611D01*
X187470500Y-50413389D01*
X187443402Y-50242299D01*
X187389873Y-50077555D01*
X187311232Y-49923212D01*
X187209414Y-49783072D01*
X187086928Y-49660586D01*
X186976351Y-49580247D01*
X188529500Y-49580247D01*
X188529500Y-51419752D01*
X188541131Y-51478229D01*
X188541132Y-51478230D01*
X188585447Y-51544552D01*
X188651769Y-51588867D01*
X188651770Y-51588868D01*
X188710247Y-51600499D01*
X188710250Y-51600500D01*
X188710252Y-51600500D01*
X190549750Y-51600500D01*
X190549751Y-51600499D01*
X190564568Y-51597552D01*
X190608229Y-51588868D01*
X190608229Y-51588867D01*
X190608231Y-51588867D01*
X190674552Y-51544552D01*
X190718867Y-51478231D01*
X190718867Y-51478229D01*
X190718868Y-51478229D01*
X190730499Y-51419752D01*
X190730500Y-51419750D01*
X190730500Y-50413389D01*
X191069500Y-50413389D01*
X191069500Y-50586611D01*
X191096598Y-50757701D01*
X191150127Y-50922445D01*
X191228768Y-51076788D01*
X191330586Y-51216928D01*
X191453072Y-51339414D01*
X191593212Y-51441232D01*
X191747555Y-51519873D01*
X191912299Y-51573402D01*
X192083389Y-51600500D01*
X192083390Y-51600500D01*
X192256610Y-51600500D01*
X192256611Y-51600500D01*
X192427701Y-51573402D01*
X192592445Y-51519873D01*
X192746788Y-51441232D01*
X192886928Y-51339414D01*
X193009414Y-51216928D01*
X193058360Y-51149560D01*
X196159500Y-51149560D01*
X196159500Y-51810439D01*
X196200636Y-52017245D01*
X196200638Y-52017253D01*
X196281333Y-52212069D01*
X196281338Y-52212078D01*
X196398487Y-52387403D01*
X196398490Y-52387407D01*
X196547592Y-52536509D01*
X196547596Y-52536512D01*
X196722921Y-52653661D01*
X196722927Y-52653664D01*
X196722928Y-52653665D01*
X196917747Y-52734362D01*
X197107713Y-52772148D01*
X197124560Y-52775499D01*
X197124564Y-52775500D01*
X197124565Y-52775500D01*
X197335436Y-52775500D01*
X197335437Y-52775499D01*
X197542253Y-52734362D01*
X197737072Y-52653665D01*
X197912404Y-52536512D01*
X198061512Y-52387404D01*
X198178665Y-52212072D01*
X198259362Y-52017253D01*
X198300500Y-51810435D01*
X198300500Y-51149565D01*
X198259362Y-50942747D01*
X198182713Y-50757701D01*
X198178666Y-50747930D01*
X198178661Y-50747921D01*
X198111087Y-50646789D01*
X198066989Y-50580793D01*
X198700000Y-50580793D01*
X198700000Y-51230000D01*
X199227291Y-51230000D01*
X199215548Y-51250339D01*
X199175000Y-51401667D01*
X199175000Y-51558333D01*
X199215548Y-51709661D01*
X199227291Y-51730000D01*
X198700001Y-51730000D01*
X198700001Y-52379196D01*
X198702851Y-52409606D01*
X198747653Y-52537645D01*
X198828207Y-52646792D01*
X198937354Y-52727346D01*
X199065397Y-52772149D01*
X199095792Y-52774999D01*
X199519999Y-52774999D01*
X199520000Y-52774998D01*
X199520000Y-52022709D01*
X199540339Y-52034452D01*
X199691667Y-52075000D01*
X199848333Y-52075000D01*
X199999661Y-52034452D01*
X200020000Y-52022709D01*
X200020000Y-52774999D01*
X200444196Y-52774999D01*
X200474606Y-52772148D01*
X200602645Y-52727346D01*
X200711792Y-52646792D01*
X200792346Y-52537645D01*
X200837149Y-52409604D01*
X200837149Y-52409600D01*
X200840000Y-52379206D01*
X200840000Y-51730000D01*
X200312709Y-51730000D01*
X200324452Y-51709661D01*
X200365000Y-51558333D01*
X200365000Y-51401667D01*
X200358849Y-51378711D01*
X228149500Y-51378711D01*
X228149500Y-51621288D01*
X228181161Y-51861785D01*
X228243947Y-52096104D01*
X228336773Y-52320205D01*
X228336776Y-52320212D01*
X228458064Y-52530289D01*
X228458066Y-52530292D01*
X228458067Y-52530293D01*
X228605733Y-52722736D01*
X228605739Y-52722743D01*
X228777256Y-52894260D01*
X228777262Y-52894265D01*
X228969711Y-53041936D01*
X229179788Y-53163224D01*
X229403900Y-53256054D01*
X229638211Y-53318838D01*
X229818586Y-53342584D01*
X229878711Y-53350500D01*
X229878712Y-53350500D01*
X230121289Y-53350500D01*
X230169388Y-53344167D01*
X230361789Y-53318838D01*
X230596100Y-53256054D01*
X230820212Y-53163224D01*
X231030289Y-53041936D01*
X231222738Y-52894265D01*
X231394265Y-52722738D01*
X231541936Y-52530289D01*
X231663224Y-52320212D01*
X231756054Y-52096100D01*
X231818838Y-51861789D01*
X231850500Y-51621288D01*
X231850500Y-51378712D01*
X231818838Y-51138211D01*
X231756054Y-50903900D01*
X231663224Y-50679788D01*
X231541936Y-50469711D01*
X231416576Y-50306338D01*
X231394266Y-50277263D01*
X231394260Y-50277256D01*
X231222743Y-50105739D01*
X231222736Y-50105733D01*
X231030293Y-49958067D01*
X231030292Y-49958066D01*
X231030289Y-49958064D01*
X230820212Y-49836776D01*
X230820205Y-49836773D01*
X230596104Y-49743947D01*
X230361785Y-49681161D01*
X230121289Y-49649500D01*
X230121288Y-49649500D01*
X229878712Y-49649500D01*
X229878711Y-49649500D01*
X229638214Y-49681161D01*
X229403895Y-49743947D01*
X229179794Y-49836773D01*
X229179785Y-49836777D01*
X228969706Y-49958067D01*
X228777263Y-50105733D01*
X228777256Y-50105739D01*
X228605739Y-50277256D01*
X228605733Y-50277263D01*
X228458067Y-50469706D01*
X228336777Y-50679785D01*
X228336773Y-50679794D01*
X228243947Y-50903895D01*
X228181161Y-51138214D01*
X228149500Y-51378711D01*
X200358849Y-51378711D01*
X200324452Y-51250339D01*
X200312709Y-51230000D01*
X200839999Y-51230000D01*
X200839999Y-50580803D01*
X200837148Y-50550393D01*
X200792346Y-50422354D01*
X200711792Y-50313207D01*
X200602645Y-50232653D01*
X200474602Y-50187850D01*
X200444207Y-50185000D01*
X200020000Y-50185000D01*
X200020000Y-50937290D01*
X199999661Y-50925548D01*
X199848333Y-50885000D01*
X199691667Y-50885000D01*
X199540339Y-50925548D01*
X199520000Y-50937290D01*
X199520000Y-50185000D01*
X199095803Y-50185000D01*
X199065393Y-50187851D01*
X198937354Y-50232653D01*
X198828207Y-50313207D01*
X198747653Y-50422354D01*
X198702850Y-50550395D01*
X198702850Y-50550399D01*
X198700000Y-50580793D01*
X198066989Y-50580793D01*
X198061512Y-50572596D01*
X198061509Y-50572592D01*
X197912407Y-50423490D01*
X197912403Y-50423487D01*
X197737078Y-50306338D01*
X197737069Y-50306333D01*
X197542253Y-50225638D01*
X197542245Y-50225636D01*
X197335439Y-50184500D01*
X197335435Y-50184500D01*
X197124565Y-50184500D01*
X197124560Y-50184500D01*
X196917754Y-50225636D01*
X196917746Y-50225638D01*
X196722930Y-50306333D01*
X196722921Y-50306338D01*
X196547596Y-50423487D01*
X196547592Y-50423490D01*
X196398490Y-50572592D01*
X196398487Y-50572596D01*
X196281338Y-50747921D01*
X196281333Y-50747930D01*
X196200638Y-50942746D01*
X196200636Y-50942754D01*
X196159500Y-51149560D01*
X193058360Y-51149560D01*
X193111232Y-51076788D01*
X193189873Y-50922445D01*
X193243402Y-50757701D01*
X193270500Y-50586611D01*
X193270500Y-50413389D01*
X193243402Y-50242299D01*
X193189873Y-50077555D01*
X193111232Y-49923212D01*
X193009414Y-49783072D01*
X192886928Y-49660586D01*
X192746788Y-49558768D01*
X192592445Y-49480127D01*
X192427701Y-49426598D01*
X192427699Y-49426597D01*
X192427698Y-49426597D01*
X192296271Y-49405781D01*
X192256611Y-49399500D01*
X192083389Y-49399500D01*
X192043728Y-49405781D01*
X191912302Y-49426597D01*
X191747552Y-49480128D01*
X191593211Y-49558768D01*
X191513256Y-49616859D01*
X191453072Y-49660586D01*
X191453070Y-49660588D01*
X191453069Y-49660588D01*
X191330588Y-49783069D01*
X191330588Y-49783070D01*
X191330586Y-49783072D01*
X191291570Y-49836773D01*
X191228768Y-49923211D01*
X191150128Y-50077552D01*
X191096597Y-50242302D01*
X191086455Y-50306338D01*
X191069500Y-50413389D01*
X190730500Y-50413389D01*
X190730500Y-49580249D01*
X190730499Y-49580247D01*
X190718868Y-49521770D01*
X190718867Y-49521769D01*
X190674552Y-49455447D01*
X190608230Y-49411132D01*
X190608229Y-49411131D01*
X190549752Y-49399500D01*
X190549748Y-49399500D01*
X188710252Y-49399500D01*
X188710247Y-49399500D01*
X188651770Y-49411131D01*
X188651769Y-49411132D01*
X188585447Y-49455447D01*
X188541132Y-49521769D01*
X188541131Y-49521770D01*
X188529500Y-49580247D01*
X186976351Y-49580247D01*
X186946788Y-49558768D01*
X186792445Y-49480127D01*
X186627701Y-49426598D01*
X186627699Y-49426597D01*
X186627698Y-49426597D01*
X186496271Y-49405781D01*
X186456611Y-49399500D01*
X186283389Y-49399500D01*
X186243728Y-49405781D01*
X186112302Y-49426597D01*
X185947552Y-49480128D01*
X185793211Y-49558768D01*
X185713256Y-49616859D01*
X185653072Y-49660586D01*
X185653070Y-49660588D01*
X185653069Y-49660588D01*
X185530588Y-49783069D01*
X185530588Y-49783070D01*
X185530586Y-49783072D01*
X185491570Y-49836773D01*
X185428768Y-49923211D01*
X185350128Y-50077552D01*
X185296597Y-50242302D01*
X185286455Y-50306338D01*
X185269500Y-50413389D01*
X184930500Y-50413389D01*
X184930500Y-49580249D01*
X184930499Y-49580247D01*
X184918868Y-49521770D01*
X184918867Y-49521769D01*
X184874552Y-49455447D01*
X184808230Y-49411132D01*
X184808229Y-49411131D01*
X184749752Y-49399500D01*
X184749748Y-49399500D01*
X182910252Y-49399500D01*
X182910247Y-49399500D01*
X182851770Y-49411131D01*
X182851769Y-49411132D01*
X182785447Y-49455447D01*
X182741132Y-49521769D01*
X182741131Y-49521770D01*
X182729500Y-49580247D01*
X181176351Y-49580247D01*
X181146788Y-49558768D01*
X180992445Y-49480127D01*
X180827701Y-49426598D01*
X180827699Y-49426597D01*
X180827698Y-49426597D01*
X180696271Y-49405781D01*
X180656611Y-49399500D01*
X180483389Y-49399500D01*
X180443728Y-49405781D01*
X180312302Y-49426597D01*
X180147552Y-49480128D01*
X179993211Y-49558768D01*
X179913256Y-49616859D01*
X179853072Y-49660586D01*
X179853070Y-49660588D01*
X179853069Y-49660588D01*
X179730588Y-49783069D01*
X179730588Y-49783070D01*
X179730586Y-49783072D01*
X179691570Y-49836773D01*
X179628768Y-49923211D01*
X179550128Y-50077552D01*
X179496597Y-50242302D01*
X179486455Y-50306338D01*
X179469500Y-50413389D01*
X179130500Y-50413389D01*
X179130500Y-49580249D01*
X179130499Y-49580247D01*
X179118868Y-49521770D01*
X179118867Y-49521769D01*
X179074552Y-49455447D01*
X179008230Y-49411132D01*
X179008229Y-49411131D01*
X178949752Y-49399500D01*
X178949748Y-49399500D01*
X177110252Y-49399500D01*
X177110247Y-49399500D01*
X177051770Y-49411131D01*
X177051769Y-49411132D01*
X176985447Y-49455447D01*
X176941132Y-49521769D01*
X176941131Y-49521770D01*
X176929500Y-49580247D01*
X175376351Y-49580247D01*
X175346788Y-49558768D01*
X175192445Y-49480127D01*
X175027701Y-49426598D01*
X175027699Y-49426597D01*
X175027698Y-49426597D01*
X174896271Y-49405781D01*
X174856611Y-49399500D01*
X174683389Y-49399500D01*
X174643728Y-49405781D01*
X174512302Y-49426597D01*
X174347552Y-49480128D01*
X174193211Y-49558768D01*
X174113256Y-49616859D01*
X174053072Y-49660586D01*
X174053070Y-49660588D01*
X174053069Y-49660588D01*
X173930588Y-49783069D01*
X173930588Y-49783070D01*
X173930586Y-49783072D01*
X173891570Y-49836773D01*
X173828768Y-49923211D01*
X173750128Y-50077552D01*
X173696597Y-50242302D01*
X173686455Y-50306338D01*
X173669500Y-50413389D01*
X173330500Y-50413389D01*
X173330500Y-49580249D01*
X173330499Y-49580247D01*
X173318868Y-49521770D01*
X173318867Y-49521769D01*
X173274552Y-49455447D01*
X173208230Y-49411132D01*
X173208229Y-49411131D01*
X173149752Y-49399500D01*
X173149748Y-49399500D01*
X171310252Y-49399500D01*
X171310247Y-49399500D01*
X171251770Y-49411131D01*
X171251769Y-49411132D01*
X171185447Y-49455447D01*
X171141132Y-49521769D01*
X171141131Y-49521770D01*
X171129500Y-49580247D01*
X161000500Y-49580247D01*
X161000500Y-47506961D01*
X161001280Y-47493077D01*
X161001280Y-47493076D01*
X161011460Y-47402729D01*
X161017635Y-47375670D01*
X161045353Y-47296456D01*
X161057396Y-47271450D01*
X161102046Y-47200389D01*
X161119351Y-47178690D01*
X161178690Y-47119351D01*
X161200389Y-47102046D01*
X161271450Y-47057396D01*
X161296456Y-47045353D01*
X161375670Y-47017635D01*
X161402733Y-47011459D01*
X161465419Y-47004396D01*
X161493079Y-47001280D01*
X161506962Y-47000500D01*
X161565892Y-47000500D01*
X233934108Y-47000500D01*
X233993038Y-47000500D01*
X234006922Y-47001280D01*
G37*
%TD.AperFunction*%
%TD*%
%TA.AperFunction,Conductor*%
%TO.N,VIN*%
G36*
X184008059Y-82201061D02*
G01*
X184113223Y-82214906D01*
X184144491Y-82223284D01*
X184234918Y-82260740D01*
X184262949Y-82276924D01*
X184262951Y-82276925D01*
X184340602Y-82336509D01*
X184363491Y-82359398D01*
X184423074Y-82437048D01*
X184439259Y-82465081D01*
X184476715Y-82555508D01*
X184485093Y-82586775D01*
X184498939Y-82691939D01*
X184500000Y-82708125D01*
X184500000Y-108591874D01*
X184498939Y-108608059D01*
X184498939Y-108608060D01*
X184485093Y-108713224D01*
X184476715Y-108744491D01*
X184439259Y-108834918D01*
X184423074Y-108862951D01*
X184363491Y-108940601D01*
X184340601Y-108963491D01*
X184262951Y-109023074D01*
X184234918Y-109039259D01*
X184144491Y-109076715D01*
X184113224Y-109085093D01*
X184019398Y-109097446D01*
X184008058Y-109098939D01*
X183991874Y-109100000D01*
X182008126Y-109100000D01*
X181991941Y-109098939D01*
X181978917Y-109097224D01*
X181886775Y-109085093D01*
X181855508Y-109076715D01*
X181765081Y-109039259D01*
X181737048Y-109023074D01*
X181659398Y-108963491D01*
X181636508Y-108940601D01*
X181576925Y-108862951D01*
X181560740Y-108834918D01*
X181523284Y-108744491D01*
X181514906Y-108713223D01*
X181501061Y-108608059D01*
X181500000Y-108591874D01*
X181500000Y-84879315D01*
X181500383Y-84869581D01*
X181500500Y-84868095D01*
X181500500Y-84631902D01*
X181500382Y-84630402D01*
X181500000Y-84620679D01*
X181500000Y-83465232D01*
X181501061Y-83449047D01*
X181514906Y-83343883D01*
X181523284Y-83312616D01*
X181560739Y-83222191D01*
X181576924Y-83194157D01*
X181641503Y-83109996D01*
X181652190Y-83097809D01*
X182397809Y-82352190D01*
X182409996Y-82341503D01*
X182494157Y-82276924D01*
X182522191Y-82260739D01*
X182612616Y-82223284D01*
X182643882Y-82214906D01*
X182749048Y-82201061D01*
X182765233Y-82200000D01*
X183991874Y-82200000D01*
X184008059Y-82201061D01*
G37*
%TD.AperFunction*%
%TD*%
M02*
