%TF.GenerationSoftware,KiCad,Pcbnew,6.0.4-6f826c9f35~116~ubuntu21.10.1*%
%TF.CreationDate,2022-04-21T21:53:43+02:00*%
%TF.ProjectId,Carte_multiprise,43617274-655f-46d7-956c-746970726973,rev?*%
%TF.SameCoordinates,Original*%
%TF.FileFunction,Legend,Top*%
%TF.FilePolarity,Positive*%
%FSLAX46Y46*%
G04 Gerber Fmt 4.6, Leading zero omitted, Abs format (unit mm)*
G04 Created by KiCad (PCBNEW 6.0.4-6f826c9f35~116~ubuntu21.10.1) date 2022-04-21 21:53:43*
%MOMM*%
%LPD*%
G01*
G04 APERTURE LIST*
%ADD10C,0.150000*%
%ADD11C,0.120000*%
%ADD12C,0.100000*%
G04 APERTURE END LIST*
D10*
%TO.C,J1*%
X85010666Y-63968380D02*
X85010666Y-64682666D01*
X84963047Y-64825523D01*
X84867809Y-64920761D01*
X84724952Y-64968380D01*
X84629714Y-64968380D01*
X86010666Y-64968380D02*
X85439238Y-64968380D01*
X85724952Y-64968380D02*
X85724952Y-63968380D01*
X85629714Y-64111238D01*
X85534476Y-64206476D01*
X85439238Y-64254095D01*
%TO.C,H1*%
X109728095Y-147264380D02*
X109728095Y-146264380D01*
X109728095Y-146740571D02*
X110299523Y-146740571D01*
X110299523Y-147264380D02*
X110299523Y-146264380D01*
X111299523Y-147264380D02*
X110728095Y-147264380D01*
X111013809Y-147264380D02*
X111013809Y-146264380D01*
X110918571Y-146407238D01*
X110823333Y-146502476D01*
X110728095Y-146550095D01*
%TO.C,J1*%
X136826666Y-63968380D02*
X136826666Y-64682666D01*
X136779047Y-64825523D01*
X136683809Y-64920761D01*
X136540952Y-64968380D01*
X136445714Y-64968380D01*
X137826666Y-64968380D02*
X137255238Y-64968380D01*
X137540952Y-64968380D02*
X137540952Y-63968380D01*
X137445714Y-64111238D01*
X137350476Y-64206476D01*
X137255238Y-64254095D01*
%TO.C,J5*%
X127428666Y-113195380D02*
X127428666Y-113909666D01*
X127381047Y-114052523D01*
X127285809Y-114147761D01*
X127142952Y-114195380D01*
X127047714Y-114195380D01*
X128381047Y-113195380D02*
X127904857Y-113195380D01*
X127857238Y-113671571D01*
X127904857Y-113623952D01*
X128000095Y-113576333D01*
X128238190Y-113576333D01*
X128333428Y-113623952D01*
X128381047Y-113671571D01*
X128428666Y-113766809D01*
X128428666Y-114004904D01*
X128381047Y-114100142D01*
X128333428Y-114147761D01*
X128238190Y-114195380D01*
X128000095Y-114195380D01*
X127904857Y-114147761D01*
X127857238Y-114100142D01*
%TO.C,J2*%
X154098666Y-76414380D02*
X154098666Y-77128666D01*
X154051047Y-77271523D01*
X153955809Y-77366761D01*
X153812952Y-77414380D01*
X153717714Y-77414380D01*
X154527238Y-76509619D02*
X154574857Y-76462000D01*
X154670095Y-76414380D01*
X154908190Y-76414380D01*
X155003428Y-76462000D01*
X155051047Y-76509619D01*
X155098666Y-76604857D01*
X155098666Y-76700095D01*
X155051047Y-76842952D01*
X154479619Y-77414380D01*
X155098666Y-77414380D01*
%TO.C,J4*%
X136826666Y-151344380D02*
X136826666Y-152058666D01*
X136779047Y-152201523D01*
X136683809Y-152296761D01*
X136540952Y-152344380D01*
X136445714Y-152344380D01*
X137731428Y-151677714D02*
X137731428Y-152344380D01*
X137493333Y-151296761D02*
X137255238Y-152011047D01*
X137874285Y-152011047D01*
%TO.C,J5*%
X161972666Y-113195380D02*
X161972666Y-113909666D01*
X161925047Y-114052523D01*
X161829809Y-114147761D01*
X161686952Y-114195380D01*
X161591714Y-114195380D01*
X162925047Y-113195380D02*
X162448857Y-113195380D01*
X162401238Y-113671571D01*
X162448857Y-113623952D01*
X162544095Y-113576333D01*
X162782190Y-113576333D01*
X162877428Y-113623952D01*
X162925047Y-113671571D01*
X162972666Y-113766809D01*
X162972666Y-114004904D01*
X162925047Y-114100142D01*
X162877428Y-114147761D01*
X162782190Y-114195380D01*
X162544095Y-114195380D01*
X162448857Y-114147761D01*
X162401238Y-114100142D01*
%TO.C,J4*%
X154098666Y-151344380D02*
X154098666Y-152058666D01*
X154051047Y-152201523D01*
X153955809Y-152296761D01*
X153812952Y-152344380D01*
X153717714Y-152344380D01*
X155003428Y-151677714D02*
X155003428Y-152344380D01*
X154765333Y-151296761D02*
X154527238Y-152011047D01*
X155146285Y-152011047D01*
%TO.C,H1*%
X92456095Y-147264380D02*
X92456095Y-146264380D01*
X92456095Y-146740571D02*
X93027523Y-146740571D01*
X93027523Y-147264380D02*
X93027523Y-146264380D01*
X94027523Y-147264380D02*
X93456095Y-147264380D01*
X93741809Y-147264380D02*
X93741809Y-146264380D01*
X93646571Y-146407238D01*
X93551333Y-146502476D01*
X93456095Y-146550095D01*
%TO.C,J4*%
X85010666Y-151344380D02*
X85010666Y-152058666D01*
X84963047Y-152201523D01*
X84867809Y-152296761D01*
X84724952Y-152344380D01*
X84629714Y-152344380D01*
X85915428Y-151677714D02*
X85915428Y-152344380D01*
X85677333Y-151296761D02*
X85439238Y-152011047D01*
X86058285Y-152011047D01*
X102282666Y-101306380D02*
X102282666Y-102020666D01*
X102235047Y-102163523D01*
X102139809Y-102258761D01*
X101996952Y-102306380D01*
X101901714Y-102306380D01*
X103187428Y-101639714D02*
X103187428Y-102306380D01*
X102949333Y-101258761D02*
X102711238Y-101973047D01*
X103330285Y-101973047D01*
%TO.C,J3*%
X136826666Y-138898380D02*
X136826666Y-139612666D01*
X136779047Y-139755523D01*
X136683809Y-139850761D01*
X136540952Y-139898380D01*
X136445714Y-139898380D01*
X137207619Y-138898380D02*
X137826666Y-138898380D01*
X137493333Y-139279333D01*
X137636190Y-139279333D01*
X137731428Y-139326952D01*
X137779047Y-139374571D01*
X137826666Y-139469809D01*
X137826666Y-139707904D01*
X137779047Y-139803142D01*
X137731428Y-139850761D01*
X137636190Y-139898380D01*
X137350476Y-139898380D01*
X137255238Y-139850761D01*
X137207619Y-139803142D01*
%TO.C,J5*%
X110156666Y-63157380D02*
X110156666Y-63871666D01*
X110109047Y-64014523D01*
X110013809Y-64109761D01*
X109870952Y-64157380D01*
X109775714Y-64157380D01*
X111109047Y-63157380D02*
X110632857Y-63157380D01*
X110585238Y-63633571D01*
X110632857Y-63585952D01*
X110728095Y-63538333D01*
X110966190Y-63538333D01*
X111061428Y-63585952D01*
X111109047Y-63633571D01*
X111156666Y-63728809D01*
X111156666Y-63966904D01*
X111109047Y-64062142D01*
X111061428Y-64109761D01*
X110966190Y-64157380D01*
X110728095Y-64157380D01*
X110632857Y-64109761D01*
X110585238Y-64062142D01*
%TO.C,H2*%
X161544095Y-109164380D02*
X161544095Y-108164380D01*
X161544095Y-108640571D02*
X162115523Y-108640571D01*
X162115523Y-109164380D02*
X162115523Y-108164380D01*
X162544095Y-108259619D02*
X162591714Y-108212000D01*
X162686952Y-108164380D01*
X162925047Y-108164380D01*
X163020285Y-108212000D01*
X163067904Y-108259619D01*
X163115523Y-108354857D01*
X163115523Y-108450095D01*
X163067904Y-108592952D01*
X162496476Y-109164380D01*
X163115523Y-109164380D01*
X92456095Y-59126380D02*
X92456095Y-58126380D01*
X92456095Y-58602571D02*
X93027523Y-58602571D01*
X93027523Y-59126380D02*
X93027523Y-58126380D01*
X93456095Y-58221619D02*
X93503714Y-58174000D01*
X93598952Y-58126380D01*
X93837047Y-58126380D01*
X93932285Y-58174000D01*
X93979904Y-58221619D01*
X94027523Y-58316857D01*
X94027523Y-58412095D01*
X93979904Y-58554952D01*
X93408476Y-59126380D01*
X94027523Y-59126380D01*
X127000095Y-59126380D02*
X127000095Y-58126380D01*
X127000095Y-58602571D02*
X127571523Y-58602571D01*
X127571523Y-59126380D02*
X127571523Y-58126380D01*
X128000095Y-58221619D02*
X128047714Y-58174000D01*
X128142952Y-58126380D01*
X128381047Y-58126380D01*
X128476285Y-58174000D01*
X128523904Y-58221619D01*
X128571523Y-58316857D01*
X128571523Y-58412095D01*
X128523904Y-58554952D01*
X127952476Y-59126380D01*
X128571523Y-59126380D01*
X127000095Y-109164380D02*
X127000095Y-108164380D01*
X127000095Y-108640571D02*
X127571523Y-108640571D01*
X127571523Y-109164380D02*
X127571523Y-108164380D01*
X128000095Y-108259619D02*
X128047714Y-108212000D01*
X128142952Y-108164380D01*
X128381047Y-108164380D01*
X128476285Y-108212000D01*
X128523904Y-108259619D01*
X128571523Y-108354857D01*
X128571523Y-108450095D01*
X128523904Y-108592952D01*
X127952476Y-109164380D01*
X128571523Y-109164380D01*
X161544095Y-59126380D02*
X161544095Y-58126380D01*
X161544095Y-58602571D02*
X162115523Y-58602571D01*
X162115523Y-59126380D02*
X162115523Y-58126380D01*
X162544095Y-58221619D02*
X162591714Y-58174000D01*
X162686952Y-58126380D01*
X162925047Y-58126380D01*
X163020285Y-58174000D01*
X163067904Y-58221619D01*
X163115523Y-58316857D01*
X163115523Y-58412095D01*
X163067904Y-58554952D01*
X162496476Y-59126380D01*
X163115523Y-59126380D01*
%TO.C,H1*%
X109728095Y-97226380D02*
X109728095Y-96226380D01*
X109728095Y-96702571D02*
X110299523Y-96702571D01*
X110299523Y-97226380D02*
X110299523Y-96226380D01*
X111299523Y-97226380D02*
X110728095Y-97226380D01*
X111013809Y-97226380D02*
X111013809Y-96226380D01*
X110918571Y-96369238D01*
X110823333Y-96464476D01*
X110728095Y-96512095D01*
%TO.C,J1*%
X102282666Y-114006380D02*
X102282666Y-114720666D01*
X102235047Y-114863523D01*
X102139809Y-114958761D01*
X101996952Y-115006380D01*
X101901714Y-115006380D01*
X103282666Y-115006380D02*
X102711238Y-115006380D01*
X102996952Y-115006380D02*
X102996952Y-114006380D01*
X102901714Y-114149238D01*
X102806476Y-114244476D01*
X102711238Y-114292095D01*
X85010666Y-114006380D02*
X85010666Y-114720666D01*
X84963047Y-114863523D01*
X84867809Y-114958761D01*
X84724952Y-115006380D01*
X84629714Y-115006380D01*
X86010666Y-115006380D02*
X85439238Y-115006380D01*
X85724952Y-115006380D02*
X85724952Y-114006380D01*
X85629714Y-114149238D01*
X85534476Y-114244476D01*
X85439238Y-114292095D01*
%TO.C,H1*%
X144272095Y-147264380D02*
X144272095Y-146264380D01*
X144272095Y-146740571D02*
X144843523Y-146740571D01*
X144843523Y-147264380D02*
X144843523Y-146264380D01*
X145843523Y-147264380D02*
X145272095Y-147264380D01*
X145557809Y-147264380D02*
X145557809Y-146264380D01*
X145462571Y-146407238D01*
X145367333Y-146502476D01*
X145272095Y-146550095D01*
X92456095Y-97226380D02*
X92456095Y-96226380D01*
X92456095Y-96702571D02*
X93027523Y-96702571D01*
X93027523Y-97226380D02*
X93027523Y-96226380D01*
X94027523Y-97226380D02*
X93456095Y-97226380D01*
X93741809Y-97226380D02*
X93741809Y-96226380D01*
X93646571Y-96369238D01*
X93551333Y-96464476D01*
X93456095Y-96512095D01*
%TO.C,J2*%
X85010666Y-76414380D02*
X85010666Y-77128666D01*
X84963047Y-77271523D01*
X84867809Y-77366761D01*
X84724952Y-77414380D01*
X84629714Y-77414380D01*
X85439238Y-76509619D02*
X85486857Y-76462000D01*
X85582095Y-76414380D01*
X85820190Y-76414380D01*
X85915428Y-76462000D01*
X85963047Y-76509619D01*
X86010666Y-76604857D01*
X86010666Y-76700095D01*
X85963047Y-76842952D01*
X85391619Y-77414380D01*
X86010666Y-77414380D01*
X102282666Y-76414380D02*
X102282666Y-77128666D01*
X102235047Y-77271523D01*
X102139809Y-77366761D01*
X101996952Y-77414380D01*
X101901714Y-77414380D01*
X102711238Y-76509619D02*
X102758857Y-76462000D01*
X102854095Y-76414380D01*
X103092190Y-76414380D01*
X103187428Y-76462000D01*
X103235047Y-76509619D01*
X103282666Y-76604857D01*
X103282666Y-76700095D01*
X103235047Y-76842952D01*
X102663619Y-77414380D01*
X103282666Y-77414380D01*
%TO.C,J4*%
X119554666Y-151344380D02*
X119554666Y-152058666D01*
X119507047Y-152201523D01*
X119411809Y-152296761D01*
X119268952Y-152344380D01*
X119173714Y-152344380D01*
X120459428Y-151677714D02*
X120459428Y-152344380D01*
X120221333Y-151296761D02*
X119983238Y-152011047D01*
X120602285Y-152011047D01*
X102282666Y-151344380D02*
X102282666Y-152058666D01*
X102235047Y-152201523D01*
X102139809Y-152296761D01*
X101996952Y-152344380D01*
X101901714Y-152344380D01*
X103187428Y-151677714D02*
X103187428Y-152344380D01*
X102949333Y-151296761D02*
X102711238Y-152011047D01*
X103330285Y-152011047D01*
%TO.C,J1*%
X119554666Y-63968380D02*
X119554666Y-64682666D01*
X119507047Y-64825523D01*
X119411809Y-64920761D01*
X119268952Y-64968380D01*
X119173714Y-64968380D01*
X120554666Y-64968380D02*
X119983238Y-64968380D01*
X120268952Y-64968380D02*
X120268952Y-63968380D01*
X120173714Y-64111238D01*
X120078476Y-64206476D01*
X119983238Y-64254095D01*
%TO.C,J3*%
X102282666Y-138898380D02*
X102282666Y-139612666D01*
X102235047Y-139755523D01*
X102139809Y-139850761D01*
X101996952Y-139898380D01*
X101901714Y-139898380D01*
X102663619Y-138898380D02*
X103282666Y-138898380D01*
X102949333Y-139279333D01*
X103092190Y-139279333D01*
X103187428Y-139326952D01*
X103235047Y-139374571D01*
X103282666Y-139469809D01*
X103282666Y-139707904D01*
X103235047Y-139803142D01*
X103187428Y-139850761D01*
X103092190Y-139898380D01*
X102806476Y-139898380D01*
X102711238Y-139850761D01*
X102663619Y-139803142D01*
X136826666Y-88860380D02*
X136826666Y-89574666D01*
X136779047Y-89717523D01*
X136683809Y-89812761D01*
X136540952Y-89860380D01*
X136445714Y-89860380D01*
X137207619Y-88860380D02*
X137826666Y-88860380D01*
X137493333Y-89241333D01*
X137636190Y-89241333D01*
X137731428Y-89288952D01*
X137779047Y-89336571D01*
X137826666Y-89431809D01*
X137826666Y-89669904D01*
X137779047Y-89765142D01*
X137731428Y-89812761D01*
X137636190Y-89860380D01*
X137350476Y-89860380D01*
X137255238Y-89812761D01*
X137207619Y-89765142D01*
%TO.C,J1*%
X154098666Y-114006380D02*
X154098666Y-114720666D01*
X154051047Y-114863523D01*
X153955809Y-114958761D01*
X153812952Y-115006380D01*
X153717714Y-115006380D01*
X155098666Y-115006380D02*
X154527238Y-115006380D01*
X154812952Y-115006380D02*
X154812952Y-114006380D01*
X154717714Y-114149238D01*
X154622476Y-114244476D01*
X154527238Y-114292095D01*
%TO.C,J5*%
X144700666Y-113195380D02*
X144700666Y-113909666D01*
X144653047Y-114052523D01*
X144557809Y-114147761D01*
X144414952Y-114195380D01*
X144319714Y-114195380D01*
X145653047Y-113195380D02*
X145176857Y-113195380D01*
X145129238Y-113671571D01*
X145176857Y-113623952D01*
X145272095Y-113576333D01*
X145510190Y-113576333D01*
X145605428Y-113623952D01*
X145653047Y-113671571D01*
X145700666Y-113766809D01*
X145700666Y-114004904D01*
X145653047Y-114100142D01*
X145605428Y-114147761D01*
X145510190Y-114195380D01*
X145272095Y-114195380D01*
X145176857Y-114147761D01*
X145129238Y-114100142D01*
%TO.C,J3*%
X154098666Y-88860380D02*
X154098666Y-89574666D01*
X154051047Y-89717523D01*
X153955809Y-89812761D01*
X153812952Y-89860380D01*
X153717714Y-89860380D01*
X154479619Y-88860380D02*
X155098666Y-88860380D01*
X154765333Y-89241333D01*
X154908190Y-89241333D01*
X155003428Y-89288952D01*
X155051047Y-89336571D01*
X155098666Y-89431809D01*
X155098666Y-89669904D01*
X155051047Y-89765142D01*
X155003428Y-89812761D01*
X154908190Y-89860380D01*
X154622476Y-89860380D01*
X154527238Y-89812761D01*
X154479619Y-89765142D01*
%TO.C,H1*%
X161544095Y-147264380D02*
X161544095Y-146264380D01*
X161544095Y-146740571D02*
X162115523Y-146740571D01*
X162115523Y-147264380D02*
X162115523Y-146264380D01*
X163115523Y-147264380D02*
X162544095Y-147264380D01*
X162829809Y-147264380D02*
X162829809Y-146264380D01*
X162734571Y-146407238D01*
X162639333Y-146502476D01*
X162544095Y-146550095D01*
%TO.C,J5*%
X144700666Y-63157380D02*
X144700666Y-63871666D01*
X144653047Y-64014523D01*
X144557809Y-64109761D01*
X144414952Y-64157380D01*
X144319714Y-64157380D01*
X145653047Y-63157380D02*
X145176857Y-63157380D01*
X145129238Y-63633571D01*
X145176857Y-63585952D01*
X145272095Y-63538333D01*
X145510190Y-63538333D01*
X145605428Y-63585952D01*
X145653047Y-63633571D01*
X145700666Y-63728809D01*
X145700666Y-63966904D01*
X145653047Y-64062142D01*
X145605428Y-64109761D01*
X145510190Y-64157380D01*
X145272095Y-64157380D01*
X145176857Y-64109761D01*
X145129238Y-64062142D01*
%TO.C,J2*%
X119554666Y-126452380D02*
X119554666Y-127166666D01*
X119507047Y-127309523D01*
X119411809Y-127404761D01*
X119268952Y-127452380D01*
X119173714Y-127452380D01*
X119983238Y-126547619D02*
X120030857Y-126500000D01*
X120126095Y-126452380D01*
X120364190Y-126452380D01*
X120459428Y-126500000D01*
X120507047Y-126547619D01*
X120554666Y-126642857D01*
X120554666Y-126738095D01*
X120507047Y-126880952D01*
X119935619Y-127452380D01*
X120554666Y-127452380D01*
%TO.C,J3*%
X85010666Y-88860380D02*
X85010666Y-89574666D01*
X84963047Y-89717523D01*
X84867809Y-89812761D01*
X84724952Y-89860380D01*
X84629714Y-89860380D01*
X85391619Y-88860380D02*
X86010666Y-88860380D01*
X85677333Y-89241333D01*
X85820190Y-89241333D01*
X85915428Y-89288952D01*
X85963047Y-89336571D01*
X86010666Y-89431809D01*
X86010666Y-89669904D01*
X85963047Y-89765142D01*
X85915428Y-89812761D01*
X85820190Y-89860380D01*
X85534476Y-89860380D01*
X85439238Y-89812761D01*
X85391619Y-89765142D01*
%TO.C,J4*%
X154098666Y-101306380D02*
X154098666Y-102020666D01*
X154051047Y-102163523D01*
X153955809Y-102258761D01*
X153812952Y-102306380D01*
X153717714Y-102306380D01*
X155003428Y-101639714D02*
X155003428Y-102306380D01*
X154765333Y-101258761D02*
X154527238Y-101973047D01*
X155146285Y-101973047D01*
%TO.C,J1*%
X136826666Y-114006380D02*
X136826666Y-114720666D01*
X136779047Y-114863523D01*
X136683809Y-114958761D01*
X136540952Y-115006380D01*
X136445714Y-115006380D01*
X137826666Y-115006380D02*
X137255238Y-115006380D01*
X137540952Y-115006380D02*
X137540952Y-114006380D01*
X137445714Y-114149238D01*
X137350476Y-114244476D01*
X137255238Y-114292095D01*
%TO.C,J3*%
X102282666Y-88860380D02*
X102282666Y-89574666D01*
X102235047Y-89717523D01*
X102139809Y-89812761D01*
X101996952Y-89860380D01*
X101901714Y-89860380D01*
X102663619Y-88860380D02*
X103282666Y-88860380D01*
X102949333Y-89241333D01*
X103092190Y-89241333D01*
X103187428Y-89288952D01*
X103235047Y-89336571D01*
X103282666Y-89431809D01*
X103282666Y-89669904D01*
X103235047Y-89765142D01*
X103187428Y-89812761D01*
X103092190Y-89860380D01*
X102806476Y-89860380D01*
X102711238Y-89812761D01*
X102663619Y-89765142D01*
%TO.C,J1*%
X154098666Y-63968380D02*
X154098666Y-64682666D01*
X154051047Y-64825523D01*
X153955809Y-64920761D01*
X153812952Y-64968380D01*
X153717714Y-64968380D01*
X155098666Y-64968380D02*
X154527238Y-64968380D01*
X154812952Y-64968380D02*
X154812952Y-63968380D01*
X154717714Y-64111238D01*
X154622476Y-64206476D01*
X154527238Y-64254095D01*
%TO.C,J2*%
X85010666Y-126452380D02*
X85010666Y-127166666D01*
X84963047Y-127309523D01*
X84867809Y-127404761D01*
X84724952Y-127452380D01*
X84629714Y-127452380D01*
X85439238Y-126547619D02*
X85486857Y-126500000D01*
X85582095Y-126452380D01*
X85820190Y-126452380D01*
X85915428Y-126500000D01*
X85963047Y-126547619D01*
X86010666Y-126642857D01*
X86010666Y-126738095D01*
X85963047Y-126880952D01*
X85391619Y-127452380D01*
X86010666Y-127452380D01*
%TO.C,J1*%
X119554666Y-114006380D02*
X119554666Y-114720666D01*
X119507047Y-114863523D01*
X119411809Y-114958761D01*
X119268952Y-115006380D01*
X119173714Y-115006380D01*
X120554666Y-115006380D02*
X119983238Y-115006380D01*
X120268952Y-115006380D02*
X120268952Y-114006380D01*
X120173714Y-114149238D01*
X120078476Y-114244476D01*
X119983238Y-114292095D01*
%TO.C,H2*%
X144272095Y-109164380D02*
X144272095Y-108164380D01*
X144272095Y-108640571D02*
X144843523Y-108640571D01*
X144843523Y-109164380D02*
X144843523Y-108164380D01*
X145272095Y-108259619D02*
X145319714Y-108212000D01*
X145414952Y-108164380D01*
X145653047Y-108164380D01*
X145748285Y-108212000D01*
X145795904Y-108259619D01*
X145843523Y-108354857D01*
X145843523Y-108450095D01*
X145795904Y-108592952D01*
X145224476Y-109164380D01*
X145843523Y-109164380D01*
%TO.C,J1*%
X102282666Y-63968380D02*
X102282666Y-64682666D01*
X102235047Y-64825523D01*
X102139809Y-64920761D01*
X101996952Y-64968380D01*
X101901714Y-64968380D01*
X103282666Y-64968380D02*
X102711238Y-64968380D01*
X102996952Y-64968380D02*
X102996952Y-63968380D01*
X102901714Y-64111238D01*
X102806476Y-64206476D01*
X102711238Y-64254095D01*
%TO.C,H1*%
X127000095Y-147264380D02*
X127000095Y-146264380D01*
X127000095Y-146740571D02*
X127571523Y-146740571D01*
X127571523Y-147264380D02*
X127571523Y-146264380D01*
X128571523Y-147264380D02*
X128000095Y-147264380D01*
X128285809Y-147264380D02*
X128285809Y-146264380D01*
X128190571Y-146407238D01*
X128095333Y-146502476D01*
X128000095Y-146550095D01*
%TO.C,J4*%
X136826666Y-101306380D02*
X136826666Y-102020666D01*
X136779047Y-102163523D01*
X136683809Y-102258761D01*
X136540952Y-102306380D01*
X136445714Y-102306380D01*
X137731428Y-101639714D02*
X137731428Y-102306380D01*
X137493333Y-101258761D02*
X137255238Y-101973047D01*
X137874285Y-101973047D01*
%TO.C,J2*%
X102282666Y-126452380D02*
X102282666Y-127166666D01*
X102235047Y-127309523D01*
X102139809Y-127404761D01*
X101996952Y-127452380D01*
X101901714Y-127452380D01*
X102711238Y-126547619D02*
X102758857Y-126500000D01*
X102854095Y-126452380D01*
X103092190Y-126452380D01*
X103187428Y-126500000D01*
X103235047Y-126547619D01*
X103282666Y-126642857D01*
X103282666Y-126738095D01*
X103235047Y-126880952D01*
X102663619Y-127452380D01*
X103282666Y-127452380D01*
%TO.C,J3*%
X85010666Y-138898380D02*
X85010666Y-139612666D01*
X84963047Y-139755523D01*
X84867809Y-139850761D01*
X84724952Y-139898380D01*
X84629714Y-139898380D01*
X85391619Y-138898380D02*
X86010666Y-138898380D01*
X85677333Y-139279333D01*
X85820190Y-139279333D01*
X85915428Y-139326952D01*
X85963047Y-139374571D01*
X86010666Y-139469809D01*
X86010666Y-139707904D01*
X85963047Y-139803142D01*
X85915428Y-139850761D01*
X85820190Y-139898380D01*
X85534476Y-139898380D01*
X85439238Y-139850761D01*
X85391619Y-139803142D01*
X154098666Y-138898380D02*
X154098666Y-139612666D01*
X154051047Y-139755523D01*
X153955809Y-139850761D01*
X153812952Y-139898380D01*
X153717714Y-139898380D01*
X154479619Y-138898380D02*
X155098666Y-138898380D01*
X154765333Y-139279333D01*
X154908190Y-139279333D01*
X155003428Y-139326952D01*
X155051047Y-139374571D01*
X155098666Y-139469809D01*
X155098666Y-139707904D01*
X155051047Y-139803142D01*
X155003428Y-139850761D01*
X154908190Y-139898380D01*
X154622476Y-139898380D01*
X154527238Y-139850761D01*
X154479619Y-139803142D01*
%TO.C,J4*%
X119554666Y-101306380D02*
X119554666Y-102020666D01*
X119507047Y-102163523D01*
X119411809Y-102258761D01*
X119268952Y-102306380D01*
X119173714Y-102306380D01*
X120459428Y-101639714D02*
X120459428Y-102306380D01*
X120221333Y-101258761D02*
X119983238Y-101973047D01*
X120602285Y-101973047D01*
%TO.C,H2*%
X109728095Y-59126380D02*
X109728095Y-58126380D01*
X109728095Y-58602571D02*
X110299523Y-58602571D01*
X110299523Y-59126380D02*
X110299523Y-58126380D01*
X110728095Y-58221619D02*
X110775714Y-58174000D01*
X110870952Y-58126380D01*
X111109047Y-58126380D01*
X111204285Y-58174000D01*
X111251904Y-58221619D01*
X111299523Y-58316857D01*
X111299523Y-58412095D01*
X111251904Y-58554952D01*
X110680476Y-59126380D01*
X111299523Y-59126380D01*
X109728095Y-109164380D02*
X109728095Y-108164380D01*
X109728095Y-108640571D02*
X110299523Y-108640571D01*
X110299523Y-109164380D02*
X110299523Y-108164380D01*
X110728095Y-108259619D02*
X110775714Y-108212000D01*
X110870952Y-108164380D01*
X111109047Y-108164380D01*
X111204285Y-108212000D01*
X111251904Y-108259619D01*
X111299523Y-108354857D01*
X111299523Y-108450095D01*
X111251904Y-108592952D01*
X110680476Y-109164380D01*
X111299523Y-109164380D01*
%TO.C,H1*%
X127000095Y-97226380D02*
X127000095Y-96226380D01*
X127000095Y-96702571D02*
X127571523Y-96702571D01*
X127571523Y-97226380D02*
X127571523Y-96226380D01*
X128571523Y-97226380D02*
X128000095Y-97226380D01*
X128285809Y-97226380D02*
X128285809Y-96226380D01*
X128190571Y-96369238D01*
X128095333Y-96464476D01*
X128000095Y-96512095D01*
%TO.C,J5*%
X110156666Y-113195380D02*
X110156666Y-113909666D01*
X110109047Y-114052523D01*
X110013809Y-114147761D01*
X109870952Y-114195380D01*
X109775714Y-114195380D01*
X111109047Y-113195380D02*
X110632857Y-113195380D01*
X110585238Y-113671571D01*
X110632857Y-113623952D01*
X110728095Y-113576333D01*
X110966190Y-113576333D01*
X111061428Y-113623952D01*
X111109047Y-113671571D01*
X111156666Y-113766809D01*
X111156666Y-114004904D01*
X111109047Y-114100142D01*
X111061428Y-114147761D01*
X110966190Y-114195380D01*
X110728095Y-114195380D01*
X110632857Y-114147761D01*
X110585238Y-114100142D01*
%TO.C,J3*%
X119554666Y-88860380D02*
X119554666Y-89574666D01*
X119507047Y-89717523D01*
X119411809Y-89812761D01*
X119268952Y-89860380D01*
X119173714Y-89860380D01*
X119935619Y-88860380D02*
X120554666Y-88860380D01*
X120221333Y-89241333D01*
X120364190Y-89241333D01*
X120459428Y-89288952D01*
X120507047Y-89336571D01*
X120554666Y-89431809D01*
X120554666Y-89669904D01*
X120507047Y-89765142D01*
X120459428Y-89812761D01*
X120364190Y-89860380D01*
X120078476Y-89860380D01*
X119983238Y-89812761D01*
X119935619Y-89765142D01*
%TO.C,J2*%
X136826666Y-126452380D02*
X136826666Y-127166666D01*
X136779047Y-127309523D01*
X136683809Y-127404761D01*
X136540952Y-127452380D01*
X136445714Y-127452380D01*
X137255238Y-126547619D02*
X137302857Y-126500000D01*
X137398095Y-126452380D01*
X137636190Y-126452380D01*
X137731428Y-126500000D01*
X137779047Y-126547619D01*
X137826666Y-126642857D01*
X137826666Y-126738095D01*
X137779047Y-126880952D01*
X137207619Y-127452380D01*
X137826666Y-127452380D01*
%TO.C,J5*%
X92884666Y-63157380D02*
X92884666Y-63871666D01*
X92837047Y-64014523D01*
X92741809Y-64109761D01*
X92598952Y-64157380D01*
X92503714Y-64157380D01*
X93837047Y-63157380D02*
X93360857Y-63157380D01*
X93313238Y-63633571D01*
X93360857Y-63585952D01*
X93456095Y-63538333D01*
X93694190Y-63538333D01*
X93789428Y-63585952D01*
X93837047Y-63633571D01*
X93884666Y-63728809D01*
X93884666Y-63966904D01*
X93837047Y-64062142D01*
X93789428Y-64109761D01*
X93694190Y-64157380D01*
X93456095Y-64157380D01*
X93360857Y-64109761D01*
X93313238Y-64062142D01*
%TO.C,J3*%
X119554666Y-138898380D02*
X119554666Y-139612666D01*
X119507047Y-139755523D01*
X119411809Y-139850761D01*
X119268952Y-139898380D01*
X119173714Y-139898380D01*
X119935619Y-138898380D02*
X120554666Y-138898380D01*
X120221333Y-139279333D01*
X120364190Y-139279333D01*
X120459428Y-139326952D01*
X120507047Y-139374571D01*
X120554666Y-139469809D01*
X120554666Y-139707904D01*
X120507047Y-139803142D01*
X120459428Y-139850761D01*
X120364190Y-139898380D01*
X120078476Y-139898380D01*
X119983238Y-139850761D01*
X119935619Y-139803142D01*
%TO.C,J5*%
X161972666Y-63157380D02*
X161972666Y-63871666D01*
X161925047Y-64014523D01*
X161829809Y-64109761D01*
X161686952Y-64157380D01*
X161591714Y-64157380D01*
X162925047Y-63157380D02*
X162448857Y-63157380D01*
X162401238Y-63633571D01*
X162448857Y-63585952D01*
X162544095Y-63538333D01*
X162782190Y-63538333D01*
X162877428Y-63585952D01*
X162925047Y-63633571D01*
X162972666Y-63728809D01*
X162972666Y-63966904D01*
X162925047Y-64062142D01*
X162877428Y-64109761D01*
X162782190Y-64157380D01*
X162544095Y-64157380D01*
X162448857Y-64109761D01*
X162401238Y-64062142D01*
%TO.C,J2*%
X136826666Y-76414380D02*
X136826666Y-77128666D01*
X136779047Y-77271523D01*
X136683809Y-77366761D01*
X136540952Y-77414380D01*
X136445714Y-77414380D01*
X137255238Y-76509619D02*
X137302857Y-76462000D01*
X137398095Y-76414380D01*
X137636190Y-76414380D01*
X137731428Y-76462000D01*
X137779047Y-76509619D01*
X137826666Y-76604857D01*
X137826666Y-76700095D01*
X137779047Y-76842952D01*
X137207619Y-77414380D01*
X137826666Y-77414380D01*
%TO.C,J4*%
X85010666Y-101306380D02*
X85010666Y-102020666D01*
X84963047Y-102163523D01*
X84867809Y-102258761D01*
X84724952Y-102306380D01*
X84629714Y-102306380D01*
X85915428Y-101639714D02*
X85915428Y-102306380D01*
X85677333Y-101258761D02*
X85439238Y-101973047D01*
X86058285Y-101973047D01*
%TO.C,J5*%
X127428666Y-63157380D02*
X127428666Y-63871666D01*
X127381047Y-64014523D01*
X127285809Y-64109761D01*
X127142952Y-64157380D01*
X127047714Y-64157380D01*
X128381047Y-63157380D02*
X127904857Y-63157380D01*
X127857238Y-63633571D01*
X127904857Y-63585952D01*
X128000095Y-63538333D01*
X128238190Y-63538333D01*
X128333428Y-63585952D01*
X128381047Y-63633571D01*
X128428666Y-63728809D01*
X128428666Y-63966904D01*
X128381047Y-64062142D01*
X128333428Y-64109761D01*
X128238190Y-64157380D01*
X128000095Y-64157380D01*
X127904857Y-64109761D01*
X127857238Y-64062142D01*
X92884666Y-113195380D02*
X92884666Y-113909666D01*
X92837047Y-114052523D01*
X92741809Y-114147761D01*
X92598952Y-114195380D01*
X92503714Y-114195380D01*
X93837047Y-113195380D02*
X93360857Y-113195380D01*
X93313238Y-113671571D01*
X93360857Y-113623952D01*
X93456095Y-113576333D01*
X93694190Y-113576333D01*
X93789428Y-113623952D01*
X93837047Y-113671571D01*
X93884666Y-113766809D01*
X93884666Y-114004904D01*
X93837047Y-114100142D01*
X93789428Y-114147761D01*
X93694190Y-114195380D01*
X93456095Y-114195380D01*
X93360857Y-114147761D01*
X93313238Y-114100142D01*
%TO.C,J2*%
X119554666Y-76414380D02*
X119554666Y-77128666D01*
X119507047Y-77271523D01*
X119411809Y-77366761D01*
X119268952Y-77414380D01*
X119173714Y-77414380D01*
X119983238Y-76509619D02*
X120030857Y-76462000D01*
X120126095Y-76414380D01*
X120364190Y-76414380D01*
X120459428Y-76462000D01*
X120507047Y-76509619D01*
X120554666Y-76604857D01*
X120554666Y-76700095D01*
X120507047Y-76842952D01*
X119935619Y-77414380D01*
X120554666Y-77414380D01*
%TO.C,H2*%
X144272095Y-59126380D02*
X144272095Y-58126380D01*
X144272095Y-58602571D02*
X144843523Y-58602571D01*
X144843523Y-59126380D02*
X144843523Y-58126380D01*
X145272095Y-58221619D02*
X145319714Y-58174000D01*
X145414952Y-58126380D01*
X145653047Y-58126380D01*
X145748285Y-58174000D01*
X145795904Y-58221619D01*
X145843523Y-58316857D01*
X145843523Y-58412095D01*
X145795904Y-58554952D01*
X145224476Y-59126380D01*
X145843523Y-59126380D01*
%TO.C,H1*%
X144272095Y-97226380D02*
X144272095Y-96226380D01*
X144272095Y-96702571D02*
X144843523Y-96702571D01*
X144843523Y-97226380D02*
X144843523Y-96226380D01*
X145843523Y-97226380D02*
X145272095Y-97226380D01*
X145557809Y-97226380D02*
X145557809Y-96226380D01*
X145462571Y-96369238D01*
X145367333Y-96464476D01*
X145272095Y-96512095D01*
%TO.C,H2*%
X92456095Y-109164380D02*
X92456095Y-108164380D01*
X92456095Y-108640571D02*
X93027523Y-108640571D01*
X93027523Y-109164380D02*
X93027523Y-108164380D01*
X93456095Y-108259619D02*
X93503714Y-108212000D01*
X93598952Y-108164380D01*
X93837047Y-108164380D01*
X93932285Y-108212000D01*
X93979904Y-108259619D01*
X94027523Y-108354857D01*
X94027523Y-108450095D01*
X93979904Y-108592952D01*
X93408476Y-109164380D01*
X94027523Y-109164380D01*
%TO.C,H1*%
X161544095Y-97226380D02*
X161544095Y-96226380D01*
X161544095Y-96702571D02*
X162115523Y-96702571D01*
X162115523Y-97226380D02*
X162115523Y-96226380D01*
X163115523Y-97226380D02*
X162544095Y-97226380D01*
X162829809Y-97226380D02*
X162829809Y-96226380D01*
X162734571Y-96369238D01*
X162639333Y-96464476D01*
X162544095Y-96512095D01*
%TO.C,J2*%
X154098666Y-126452380D02*
X154098666Y-127166666D01*
X154051047Y-127309523D01*
X153955809Y-127404761D01*
X153812952Y-127452380D01*
X153717714Y-127452380D01*
X154527238Y-126547619D02*
X154574857Y-126500000D01*
X154670095Y-126452380D01*
X154908190Y-126452380D01*
X155003428Y-126500000D01*
X155051047Y-126547619D01*
X155098666Y-126642857D01*
X155098666Y-126738095D01*
X155051047Y-126880952D01*
X154479619Y-127452380D01*
X155098666Y-127452380D01*
D11*
%TO.C,J1*%
X83249000Y-65324000D02*
X81344000Y-65324000D01*
X89344000Y-56099000D02*
X89344000Y-65324000D01*
X88124000Y-56699000D02*
X88124000Y-56099000D01*
X87439000Y-66329000D02*
X83249000Y-66329000D01*
X87324000Y-63659000D02*
X87324000Y-65329000D01*
X81344000Y-56099000D02*
X89344000Y-56099000D01*
X87324000Y-65329000D02*
X87324000Y-66329000D01*
X83364000Y-63659000D02*
X87324000Y-63659000D01*
X86524000Y-56099000D02*
X86524000Y-56699000D01*
X83249000Y-66329000D02*
X83249000Y-65324000D01*
X83364000Y-65329000D02*
X87324000Y-65329000D01*
X83364000Y-65329000D02*
X83364000Y-63659000D01*
X81344000Y-65324000D02*
X81344000Y-56099000D01*
X82564000Y-56099000D02*
X82564000Y-56699000D01*
X89344000Y-65324000D02*
X87439000Y-65324000D01*
X82564000Y-56699000D02*
X84164000Y-56699000D01*
X84164000Y-56699000D02*
X84164000Y-56099000D01*
X86524000Y-56699000D02*
X88124000Y-56699000D01*
X87439000Y-65324000D02*
X87439000Y-66329000D01*
X81054000Y-59319000D02*
X81054000Y-63319000D01*
X83364000Y-66329000D02*
X83364000Y-65329000D01*
D12*
%TO.C,mouse-bite-2mm-slot*%
X98282000Y-69310000D02*
G75*
G03*
X96282000Y-69310000I-1000000J0D01*
G01*
X96282000Y-65310000D02*
G75*
G03*
X98282000Y-65310000I1000000J0D01*
G01*
X113554000Y-65310000D02*
G75*
G03*
X115554000Y-65310000I1000000J0D01*
G01*
X115554000Y-69310000D02*
G75*
G03*
X113554000Y-69310000I-1000000J0D01*
G01*
X130826000Y-65310000D02*
G75*
G03*
X132826000Y-65310000I1000000J0D01*
G01*
X132826000Y-69310000D02*
G75*
G03*
X130826000Y-69310000I-1000000J0D01*
G01*
X150098000Y-69310000D02*
G75*
G03*
X148098000Y-69310000I-1000000J0D01*
G01*
X148098000Y-65310000D02*
G75*
G03*
X150098000Y-65310000I1000000J0D01*
G01*
X98282000Y-94964000D02*
G75*
G03*
X96282000Y-94964000I-1000000J0D01*
G01*
X96282000Y-90964000D02*
G75*
G03*
X98282000Y-90964000I1000000J0D01*
G01*
X115554000Y-94964000D02*
G75*
G03*
X113554000Y-94964000I-1000000J0D01*
G01*
X113554000Y-90964000D02*
G75*
G03*
X115554000Y-90964000I1000000J0D01*
G01*
X132826000Y-94964000D02*
G75*
G03*
X130826000Y-94964000I-1000000J0D01*
G01*
X130826000Y-90964000D02*
G75*
G03*
X132826000Y-90964000I1000000J0D01*
G01*
X148098000Y-90964000D02*
G75*
G03*
X150098000Y-90964000I1000000J0D01*
G01*
X150098000Y-94964000D02*
G75*
G03*
X148098000Y-94964000I-1000000J0D01*
G01*
X96282000Y-141002000D02*
G75*
G03*
X98282000Y-141002000I1000000J0D01*
G01*
X98282000Y-145002000D02*
G75*
G03*
X96282000Y-145002000I-1000000J0D01*
G01*
X98282000Y-119348000D02*
G75*
G03*
X96282000Y-119348000I-1000000J0D01*
G01*
X96282000Y-115348000D02*
G75*
G03*
X98282000Y-115348000I1000000J0D01*
G01*
X113554000Y-115348000D02*
G75*
G03*
X115554000Y-115348000I1000000J0D01*
G01*
X115554000Y-119348000D02*
G75*
G03*
X113554000Y-119348000I-1000000J0D01*
G01*
X115554000Y-145002000D02*
G75*
G03*
X113554000Y-145002000I-1000000J0D01*
G01*
X113554000Y-141002000D02*
G75*
G03*
X115554000Y-141002000I1000000J0D01*
G01*
X132826000Y-145002000D02*
G75*
G03*
X130826000Y-145002000I-1000000J0D01*
G01*
X130826000Y-141002000D02*
G75*
G03*
X132826000Y-141002000I1000000J0D01*
G01*
X130826000Y-115348000D02*
G75*
G03*
X132826000Y-115348000I1000000J0D01*
G01*
X132826000Y-119348000D02*
G75*
G03*
X130826000Y-119348000I-1000000J0D01*
G01*
X90646000Y-103902000D02*
G75*
G03*
X90646000Y-105902000I0J-1000000D01*
G01*
X86646000Y-105902000D02*
G75*
G03*
X86646000Y-103902000I0J1000000D01*
G01*
X107918000Y-103902000D02*
G75*
G03*
X107918000Y-105902000I0J-1000000D01*
G01*
X103918000Y-105902000D02*
G75*
G03*
X103918000Y-103902000I0J1000000D01*
G01*
X121190000Y-105902000D02*
G75*
G03*
X121190000Y-103902000I0J1000000D01*
G01*
X125190000Y-103902000D02*
G75*
G03*
X125190000Y-105902000I0J-1000000D01*
G01*
X138462000Y-105902000D02*
G75*
G03*
X138462000Y-103902000I0J1000000D01*
G01*
X142462000Y-103902000D02*
G75*
G03*
X142462000Y-105902000I0J-1000000D01*
G01*
X155734000Y-105902000D02*
G75*
G03*
X155734000Y-103902000I0J1000000D01*
G01*
X159734000Y-103902000D02*
G75*
G03*
X159734000Y-105902000I0J-1000000D01*
G01*
X150098000Y-119348000D02*
G75*
G03*
X148098000Y-119348000I-1000000J0D01*
G01*
X148098000Y-115348000D02*
G75*
G03*
X150098000Y-115348000I1000000J0D01*
G01*
X148098000Y-141002000D02*
G75*
G03*
X150098000Y-141002000I1000000J0D01*
G01*
X150098000Y-145002000D02*
G75*
G03*
X148098000Y-145002000I-1000000J0D01*
G01*
D11*
%TO.C,J14*%
X153162000Y-62192000D02*
X153162000Y-61192000D01*
X152362000Y-56172000D02*
X152362000Y-56772000D01*
X155702000Y-61192000D02*
X155702000Y-62192000D01*
X154902000Y-56172000D02*
X154902000Y-56772000D01*
X157082000Y-62192000D02*
X157082000Y-56172000D01*
X152362000Y-56772000D02*
X153962000Y-56772000D01*
X155452000Y-62192000D02*
X155452000Y-61192000D01*
X151782000Y-56172000D02*
X151782000Y-62192000D01*
X154902000Y-56772000D02*
X156502000Y-56772000D01*
X156502000Y-56772000D02*
X156502000Y-56172000D01*
X153162000Y-61192000D02*
X155702000Y-61192000D01*
X151492000Y-57202000D02*
X151492000Y-61202000D01*
X153412000Y-62192000D02*
X153412000Y-61192000D01*
X153962000Y-56772000D02*
X153962000Y-56172000D01*
X153412000Y-60662000D02*
X155452000Y-60662000D01*
X151782000Y-62192000D02*
X157082000Y-62192000D01*
X153162000Y-61192000D02*
X153412000Y-60662000D01*
X155452000Y-60662000D02*
X155702000Y-61192000D01*
X157082000Y-56172000D02*
X151782000Y-56172000D01*
%TO.C,J11*%
X117818000Y-118656000D02*
X117818000Y-119256000D01*
X118618000Y-124676000D02*
X118618000Y-123676000D01*
X116948000Y-119686000D02*
X116948000Y-123686000D01*
X121958000Y-119256000D02*
X121958000Y-118656000D01*
X122538000Y-124676000D02*
X122538000Y-118656000D01*
X118868000Y-124676000D02*
X118868000Y-123676000D01*
X120358000Y-119256000D02*
X121958000Y-119256000D01*
X120908000Y-123146000D02*
X121158000Y-123676000D01*
X120358000Y-118656000D02*
X120358000Y-119256000D01*
X121158000Y-123676000D02*
X121158000Y-124676000D01*
X120908000Y-124676000D02*
X120908000Y-123676000D01*
X118618000Y-123676000D02*
X121158000Y-123676000D01*
X118868000Y-123146000D02*
X120908000Y-123146000D01*
X122538000Y-118656000D02*
X117238000Y-118656000D01*
X118618000Y-123676000D02*
X118868000Y-123146000D01*
X117818000Y-119256000D02*
X119418000Y-119256000D01*
X119418000Y-119256000D02*
X119418000Y-118656000D01*
X117238000Y-118656000D02*
X117238000Y-124676000D01*
X117238000Y-124676000D02*
X122538000Y-124676000D01*
X84074000Y-73638000D02*
X86614000Y-73638000D01*
X87994000Y-68618000D02*
X82694000Y-68618000D01*
X84074000Y-74638000D02*
X84074000Y-73638000D01*
X84874000Y-69218000D02*
X84874000Y-68618000D01*
X82404000Y-69648000D02*
X82404000Y-73648000D01*
X84324000Y-74638000D02*
X84324000Y-73638000D01*
X84074000Y-73638000D02*
X84324000Y-73108000D01*
X82694000Y-68618000D02*
X82694000Y-74638000D01*
X86364000Y-73108000D02*
X86614000Y-73638000D01*
X86614000Y-73638000D02*
X86614000Y-74638000D01*
X82694000Y-74638000D02*
X87994000Y-74638000D01*
X87414000Y-69218000D02*
X87414000Y-68618000D01*
X86364000Y-74638000D02*
X86364000Y-73638000D01*
X83274000Y-68618000D02*
X83274000Y-69218000D01*
X85814000Y-69218000D02*
X87414000Y-69218000D01*
X87994000Y-74638000D02*
X87994000Y-68618000D01*
X83274000Y-69218000D02*
X84874000Y-69218000D01*
X84324000Y-73108000D02*
X86364000Y-73108000D01*
X85814000Y-68618000D02*
X85814000Y-69218000D01*
%TO.C,J14*%
X99676000Y-57202000D02*
X99676000Y-61202000D01*
X101596000Y-62192000D02*
X101596000Y-61192000D01*
X102146000Y-56772000D02*
X102146000Y-56172000D01*
X103886000Y-61192000D02*
X103886000Y-62192000D01*
X101346000Y-61192000D02*
X101596000Y-60662000D01*
X99966000Y-62192000D02*
X105266000Y-62192000D01*
X103086000Y-56772000D02*
X104686000Y-56772000D01*
X100546000Y-56772000D02*
X102146000Y-56772000D01*
X103086000Y-56172000D02*
X103086000Y-56772000D01*
X101596000Y-60662000D02*
X103636000Y-60662000D01*
X99966000Y-56172000D02*
X99966000Y-62192000D01*
X103636000Y-60662000D02*
X103886000Y-61192000D01*
X101346000Y-62192000D02*
X101346000Y-61192000D01*
X103636000Y-62192000D02*
X103636000Y-61192000D01*
X105266000Y-62192000D02*
X105266000Y-56172000D01*
X101346000Y-61192000D02*
X103886000Y-61192000D01*
X104686000Y-56772000D02*
X104686000Y-56172000D01*
X105266000Y-56172000D02*
X99966000Y-56172000D01*
X100546000Y-56172000D02*
X100546000Y-56772000D01*
%TO.C,J12*%
X84074000Y-136122000D02*
X86614000Y-136122000D01*
X82694000Y-131102000D02*
X82694000Y-137122000D01*
X84074000Y-136122000D02*
X84324000Y-135592000D01*
X86364000Y-135592000D02*
X86614000Y-136122000D01*
X85814000Y-131102000D02*
X85814000Y-131702000D01*
X82694000Y-137122000D02*
X87994000Y-137122000D01*
X85814000Y-131702000D02*
X87414000Y-131702000D01*
X83274000Y-131702000D02*
X84874000Y-131702000D01*
X84324000Y-135592000D02*
X86364000Y-135592000D01*
X84874000Y-131702000D02*
X84874000Y-131102000D01*
X87414000Y-131702000D02*
X87414000Y-131102000D01*
X82404000Y-132132000D02*
X82404000Y-136132000D01*
X87994000Y-131102000D02*
X82694000Y-131102000D01*
X83274000Y-131102000D02*
X83274000Y-131702000D01*
X86364000Y-137122000D02*
X86364000Y-136122000D01*
X86614000Y-136122000D02*
X86614000Y-137122000D01*
X84074000Y-137122000D02*
X84074000Y-136122000D01*
X84324000Y-137122000D02*
X84324000Y-136122000D01*
X87994000Y-137122000D02*
X87994000Y-131102000D01*
%TO.C,J1*%
X133160000Y-65324000D02*
X133160000Y-56099000D01*
X139140000Y-63659000D02*
X139140000Y-65329000D01*
X134380000Y-56099000D02*
X134380000Y-56699000D01*
X135180000Y-66329000D02*
X135180000Y-65329000D01*
X138340000Y-56699000D02*
X139940000Y-56699000D01*
X135180000Y-63659000D02*
X139140000Y-63659000D01*
X139940000Y-56699000D02*
X139940000Y-56099000D01*
X141160000Y-56099000D02*
X141160000Y-65324000D01*
X135065000Y-66329000D02*
X135065000Y-65324000D01*
X134380000Y-56699000D02*
X135980000Y-56699000D01*
X141160000Y-65324000D02*
X139255000Y-65324000D01*
X135065000Y-65324000D02*
X133160000Y-65324000D01*
X132870000Y-59319000D02*
X132870000Y-63319000D01*
X135980000Y-56699000D02*
X135980000Y-56099000D01*
X139255000Y-65324000D02*
X139255000Y-66329000D01*
X133160000Y-56099000D02*
X141160000Y-56099000D01*
X139140000Y-65329000D02*
X139140000Y-66329000D01*
X138340000Y-56099000D02*
X138340000Y-56699000D01*
X135180000Y-65329000D02*
X135180000Y-63659000D01*
X139255000Y-66329000D02*
X135065000Y-66329000D01*
X135180000Y-65329000D02*
X139140000Y-65329000D01*
%TO.C,J5*%
X126432000Y-117343000D02*
X129092000Y-117343000D01*
X126432000Y-114743000D02*
X127762000Y-114743000D01*
X126432000Y-117343000D02*
X126432000Y-145343000D01*
X126432000Y-116073000D02*
X126432000Y-114743000D01*
X129092000Y-117343000D02*
X129092000Y-145343000D01*
X126432000Y-145343000D02*
X129092000Y-145343000D01*
%TO.C,J2*%
X152452000Y-77775000D02*
X156412000Y-77775000D01*
X156527000Y-77770000D02*
X156527000Y-78775000D01*
X158432000Y-68545000D02*
X158432000Y-77770000D01*
X152452000Y-76105000D02*
X156412000Y-76105000D01*
X152337000Y-77770000D02*
X150432000Y-77770000D01*
X150142000Y-71765000D02*
X150142000Y-75765000D01*
X157212000Y-69145000D02*
X157212000Y-68545000D01*
X155612000Y-68545000D02*
X155612000Y-69145000D01*
X156527000Y-78775000D02*
X152337000Y-78775000D01*
X151652000Y-68545000D02*
X151652000Y-69145000D01*
X152452000Y-77775000D02*
X152452000Y-76105000D01*
X151652000Y-69145000D02*
X153252000Y-69145000D01*
X150432000Y-77770000D02*
X150432000Y-68545000D01*
X156412000Y-76105000D02*
X156412000Y-77775000D01*
X152452000Y-78775000D02*
X152452000Y-77775000D01*
X150432000Y-68545000D02*
X158432000Y-68545000D01*
X156412000Y-77775000D02*
X156412000Y-78775000D01*
X153252000Y-69145000D02*
X153252000Y-68545000D01*
X152337000Y-78775000D02*
X152337000Y-77770000D01*
X158432000Y-77770000D02*
X156527000Y-77770000D01*
X155612000Y-69145000D02*
X157212000Y-69145000D01*
%TO.C,J4*%
X141160000Y-152700000D02*
X139255000Y-152700000D01*
X135180000Y-152705000D02*
X135180000Y-151035000D01*
X139940000Y-144075000D02*
X139940000Y-143475000D01*
X135065000Y-153705000D02*
X135065000Y-152700000D01*
X135180000Y-153705000D02*
X135180000Y-152705000D01*
X139140000Y-152705000D02*
X139140000Y-153705000D01*
X141160000Y-143475000D02*
X141160000Y-152700000D01*
X139255000Y-153705000D02*
X135065000Y-153705000D01*
X138340000Y-144075000D02*
X139940000Y-144075000D01*
X133160000Y-152700000D02*
X133160000Y-143475000D01*
X139140000Y-151035000D02*
X139140000Y-152705000D01*
X134380000Y-143475000D02*
X134380000Y-144075000D01*
X138340000Y-143475000D02*
X138340000Y-144075000D01*
X133160000Y-143475000D02*
X141160000Y-143475000D01*
X135180000Y-151035000D02*
X139140000Y-151035000D01*
X132870000Y-146695000D02*
X132870000Y-150695000D01*
X135065000Y-152700000D02*
X133160000Y-152700000D01*
X139255000Y-152700000D02*
X139255000Y-153705000D01*
X135980000Y-144075000D02*
X135980000Y-143475000D01*
X134380000Y-144075000D02*
X135980000Y-144075000D01*
X135180000Y-152705000D02*
X139140000Y-152705000D01*
%TO.C,J13*%
X101346000Y-99530000D02*
X101346000Y-98530000D01*
X103636000Y-98000000D02*
X103886000Y-98530000D01*
X103886000Y-98530000D02*
X103886000Y-99530000D01*
X103636000Y-99530000D02*
X103636000Y-98530000D01*
X102146000Y-94110000D02*
X102146000Y-93510000D01*
X101596000Y-98000000D02*
X103636000Y-98000000D01*
X99966000Y-93510000D02*
X99966000Y-99530000D01*
X101346000Y-98530000D02*
X103886000Y-98530000D01*
X105266000Y-93510000D02*
X99966000Y-93510000D01*
X99676000Y-94540000D02*
X99676000Y-98540000D01*
X101596000Y-99530000D02*
X101596000Y-98530000D01*
X99966000Y-99530000D02*
X105266000Y-99530000D01*
X101346000Y-98530000D02*
X101596000Y-98000000D01*
X100546000Y-94110000D02*
X102146000Y-94110000D01*
X100546000Y-93510000D02*
X100546000Y-94110000D01*
X103086000Y-94110000D02*
X104686000Y-94110000D01*
X105266000Y-99530000D02*
X105266000Y-93510000D01*
X103086000Y-93510000D02*
X103086000Y-94110000D01*
X104686000Y-94110000D02*
X104686000Y-93510000D01*
%TO.C,J5*%
X163636000Y-117343000D02*
X163636000Y-145343000D01*
X160976000Y-145343000D02*
X163636000Y-145343000D01*
X160976000Y-117343000D02*
X160976000Y-145343000D01*
X160976000Y-116073000D02*
X160976000Y-114743000D01*
X160976000Y-114743000D02*
X162306000Y-114743000D01*
X160976000Y-117343000D02*
X163636000Y-117343000D01*
%TO.C,J11*%
X139810000Y-68618000D02*
X134510000Y-68618000D01*
X135890000Y-74638000D02*
X135890000Y-73638000D01*
X139230000Y-69218000D02*
X139230000Y-68618000D01*
X135890000Y-73638000D02*
X136140000Y-73108000D01*
X139810000Y-74638000D02*
X139810000Y-68618000D01*
X134220000Y-69648000D02*
X134220000Y-73648000D01*
X135090000Y-68618000D02*
X135090000Y-69218000D01*
X136140000Y-73108000D02*
X138180000Y-73108000D01*
X138180000Y-73108000D02*
X138430000Y-73638000D01*
X138180000Y-74638000D02*
X138180000Y-73638000D01*
X134510000Y-74638000D02*
X139810000Y-74638000D01*
X138430000Y-73638000D02*
X138430000Y-74638000D01*
X135890000Y-73638000D02*
X138430000Y-73638000D01*
X137630000Y-68618000D02*
X137630000Y-69218000D01*
X136140000Y-74638000D02*
X136140000Y-73638000D01*
X135090000Y-69218000D02*
X136690000Y-69218000D01*
X136690000Y-69218000D02*
X136690000Y-68618000D01*
X137630000Y-69218000D02*
X139230000Y-69218000D01*
X134510000Y-68618000D02*
X134510000Y-74638000D01*
%TO.C,J14*%
X134220000Y-107240000D02*
X134220000Y-111240000D01*
X135090000Y-106810000D02*
X136690000Y-106810000D01*
X136140000Y-110700000D02*
X138180000Y-110700000D01*
X138430000Y-111230000D02*
X138430000Y-112230000D01*
X136140000Y-112230000D02*
X136140000Y-111230000D01*
X139810000Y-112230000D02*
X139810000Y-106210000D01*
X135090000Y-106210000D02*
X135090000Y-106810000D01*
X134510000Y-106210000D02*
X134510000Y-112230000D01*
X139810000Y-106210000D02*
X134510000Y-106210000D01*
X137630000Y-106210000D02*
X137630000Y-106810000D01*
X136690000Y-106810000D02*
X136690000Y-106210000D01*
X135890000Y-112230000D02*
X135890000Y-111230000D01*
X134510000Y-112230000D02*
X139810000Y-112230000D01*
X135890000Y-111230000D02*
X136140000Y-110700000D01*
X138180000Y-112230000D02*
X138180000Y-111230000D01*
X135890000Y-111230000D02*
X138430000Y-111230000D01*
X139230000Y-106810000D02*
X139230000Y-106210000D01*
X137630000Y-106810000D02*
X139230000Y-106810000D01*
X138180000Y-110700000D02*
X138430000Y-111230000D01*
%TO.C,J4*%
X152452000Y-152705000D02*
X152452000Y-151035000D01*
X156527000Y-153705000D02*
X152337000Y-153705000D01*
X152337000Y-152700000D02*
X150432000Y-152700000D01*
X156527000Y-152700000D02*
X156527000Y-153705000D01*
X152452000Y-152705000D02*
X156412000Y-152705000D01*
X156412000Y-152705000D02*
X156412000Y-153705000D01*
X150432000Y-152700000D02*
X150432000Y-143475000D01*
X155612000Y-144075000D02*
X157212000Y-144075000D01*
X151652000Y-143475000D02*
X151652000Y-144075000D01*
X152337000Y-153705000D02*
X152337000Y-152700000D01*
X152452000Y-153705000D02*
X152452000Y-152705000D01*
X153252000Y-144075000D02*
X153252000Y-143475000D01*
X150142000Y-146695000D02*
X150142000Y-150695000D01*
X156412000Y-151035000D02*
X156412000Y-152705000D01*
X158432000Y-152700000D02*
X156527000Y-152700000D01*
X152452000Y-151035000D02*
X156412000Y-151035000D01*
X158432000Y-143475000D02*
X158432000Y-152700000D01*
X151652000Y-144075000D02*
X153252000Y-144075000D01*
X157212000Y-144075000D02*
X157212000Y-143475000D01*
X150432000Y-143475000D02*
X158432000Y-143475000D01*
X155612000Y-143475000D02*
X155612000Y-144075000D01*
X82564000Y-143475000D02*
X82564000Y-144075000D01*
X81054000Y-146695000D02*
X81054000Y-150695000D01*
X83364000Y-152705000D02*
X83364000Y-151035000D01*
X87324000Y-152705000D02*
X87324000Y-153705000D01*
X81344000Y-143475000D02*
X89344000Y-143475000D01*
X82564000Y-144075000D02*
X84164000Y-144075000D01*
X83364000Y-153705000D02*
X83364000Y-152705000D01*
X88124000Y-144075000D02*
X88124000Y-143475000D01*
X83249000Y-152700000D02*
X81344000Y-152700000D01*
X89344000Y-143475000D02*
X89344000Y-152700000D01*
X81344000Y-152700000D02*
X81344000Y-143475000D01*
X87439000Y-152700000D02*
X87439000Y-153705000D01*
X83249000Y-153705000D02*
X83249000Y-152700000D01*
X86524000Y-144075000D02*
X88124000Y-144075000D01*
X83364000Y-151035000D02*
X87324000Y-151035000D01*
X86524000Y-143475000D02*
X86524000Y-144075000D01*
X83364000Y-152705000D02*
X87324000Y-152705000D01*
X89344000Y-152700000D02*
X87439000Y-152700000D01*
X87324000Y-151035000D02*
X87324000Y-152705000D01*
X87439000Y-153705000D02*
X83249000Y-153705000D01*
X84164000Y-144075000D02*
X84164000Y-143475000D01*
X103796000Y-94037000D02*
X105396000Y-94037000D01*
X104711000Y-102662000D02*
X104711000Y-103667000D01*
X104711000Y-103667000D02*
X100521000Y-103667000D01*
X99836000Y-94037000D02*
X101436000Y-94037000D01*
X100636000Y-100997000D02*
X104596000Y-100997000D01*
X100636000Y-102667000D02*
X100636000Y-100997000D01*
X106616000Y-102662000D02*
X104711000Y-102662000D01*
X106616000Y-93437000D02*
X106616000Y-102662000D01*
X98326000Y-96657000D02*
X98326000Y-100657000D01*
X98616000Y-102662000D02*
X98616000Y-93437000D01*
X100521000Y-102662000D02*
X98616000Y-102662000D01*
X104596000Y-100997000D02*
X104596000Y-102667000D01*
X103796000Y-93437000D02*
X103796000Y-94037000D01*
X105396000Y-94037000D02*
X105396000Y-93437000D01*
X100636000Y-102667000D02*
X104596000Y-102667000D01*
X100636000Y-103667000D02*
X100636000Y-102667000D01*
X101436000Y-94037000D02*
X101436000Y-93437000D01*
X104596000Y-102667000D02*
X104596000Y-103667000D01*
X99836000Y-93437000D02*
X99836000Y-94037000D01*
X100521000Y-103667000D02*
X100521000Y-102662000D01*
X98616000Y-93437000D02*
X106616000Y-93437000D01*
%TO.C,J3*%
X139255000Y-140254000D02*
X139255000Y-141259000D01*
X134380000Y-131029000D02*
X134380000Y-131629000D01*
X135180000Y-140259000D02*
X139140000Y-140259000D01*
X138340000Y-131629000D02*
X139940000Y-131629000D01*
X133160000Y-131029000D02*
X141160000Y-131029000D01*
X132870000Y-134249000D02*
X132870000Y-138249000D01*
X138340000Y-131029000D02*
X138340000Y-131629000D01*
X139140000Y-140259000D02*
X139140000Y-141259000D01*
X135180000Y-140259000D02*
X135180000Y-138589000D01*
X135980000Y-131629000D02*
X135980000Y-131029000D01*
X133160000Y-140254000D02*
X133160000Y-131029000D01*
X139940000Y-131629000D02*
X139940000Y-131029000D01*
X134380000Y-131629000D02*
X135980000Y-131629000D01*
X141160000Y-131029000D02*
X141160000Y-140254000D01*
X135065000Y-140254000D02*
X133160000Y-140254000D01*
X139255000Y-141259000D02*
X135065000Y-141259000D01*
X135180000Y-141259000D02*
X135180000Y-140259000D01*
X141160000Y-140254000D02*
X139255000Y-140254000D01*
X135065000Y-141259000D02*
X135065000Y-140254000D01*
X135180000Y-138589000D02*
X139140000Y-138589000D01*
X139140000Y-138589000D02*
X139140000Y-140259000D01*
%TO.C,J5*%
X109160000Y-64705000D02*
X110490000Y-64705000D01*
X109160000Y-95305000D02*
X111820000Y-95305000D01*
X109160000Y-67305000D02*
X111820000Y-67305000D01*
X109160000Y-67305000D02*
X109160000Y-95305000D01*
X109160000Y-66035000D02*
X109160000Y-64705000D01*
X111820000Y-67305000D02*
X111820000Y-95305000D01*
%TO.C,J13*%
X86614000Y-98530000D02*
X86614000Y-99530000D01*
X82694000Y-93510000D02*
X82694000Y-99530000D01*
X86364000Y-99530000D02*
X86364000Y-98530000D01*
X84324000Y-98000000D02*
X86364000Y-98000000D01*
X83274000Y-93510000D02*
X83274000Y-94110000D01*
X83274000Y-94110000D02*
X84874000Y-94110000D01*
X84074000Y-98530000D02*
X84324000Y-98000000D01*
X85814000Y-94110000D02*
X87414000Y-94110000D01*
X86364000Y-98000000D02*
X86614000Y-98530000D01*
X84324000Y-99530000D02*
X84324000Y-98530000D01*
X84074000Y-99530000D02*
X84074000Y-98530000D01*
X84874000Y-94110000D02*
X84874000Y-93510000D01*
X84074000Y-98530000D02*
X86614000Y-98530000D01*
X82694000Y-99530000D02*
X87994000Y-99530000D01*
X87994000Y-99530000D02*
X87994000Y-93510000D01*
X82404000Y-94540000D02*
X82404000Y-98540000D01*
X85814000Y-93510000D02*
X85814000Y-94110000D01*
X87994000Y-93510000D02*
X82694000Y-93510000D01*
X87414000Y-94110000D02*
X87414000Y-93510000D01*
%TO.C,J11*%
X136140000Y-124676000D02*
X136140000Y-123676000D01*
X138180000Y-124676000D02*
X138180000Y-123676000D01*
X139810000Y-118656000D02*
X134510000Y-118656000D01*
X138180000Y-123146000D02*
X138430000Y-123676000D01*
X136690000Y-119256000D02*
X136690000Y-118656000D01*
X134220000Y-119686000D02*
X134220000Y-123686000D01*
X139230000Y-119256000D02*
X139230000Y-118656000D01*
X135890000Y-123676000D02*
X136140000Y-123146000D01*
X138430000Y-123676000D02*
X138430000Y-124676000D01*
X134510000Y-118656000D02*
X134510000Y-124676000D01*
X135090000Y-119256000D02*
X136690000Y-119256000D01*
X137630000Y-119256000D02*
X139230000Y-119256000D01*
X136140000Y-123146000D02*
X138180000Y-123146000D01*
X135090000Y-118656000D02*
X135090000Y-119256000D01*
X137630000Y-118656000D02*
X137630000Y-119256000D01*
X135890000Y-124676000D02*
X135890000Y-123676000D01*
X134510000Y-124676000D02*
X139810000Y-124676000D01*
X139810000Y-124676000D02*
X139810000Y-118656000D01*
X135890000Y-123676000D02*
X138430000Y-123676000D01*
%TO.C,J12*%
X103636000Y-85554000D02*
X103886000Y-86084000D01*
X102146000Y-81664000D02*
X102146000Y-81064000D01*
X100546000Y-81664000D02*
X102146000Y-81664000D01*
X101596000Y-87084000D02*
X101596000Y-86084000D01*
X101346000Y-87084000D02*
X101346000Y-86084000D01*
X101596000Y-85554000D02*
X103636000Y-85554000D01*
X99966000Y-87084000D02*
X105266000Y-87084000D01*
X103886000Y-86084000D02*
X103886000Y-87084000D01*
X103086000Y-81064000D02*
X103086000Y-81664000D01*
X101346000Y-86084000D02*
X101596000Y-85554000D01*
X103636000Y-87084000D02*
X103636000Y-86084000D01*
X99966000Y-81064000D02*
X99966000Y-87084000D01*
X104686000Y-81664000D02*
X104686000Y-81064000D01*
X101346000Y-86084000D02*
X103886000Y-86084000D01*
X105266000Y-87084000D02*
X105266000Y-81064000D01*
X100546000Y-81064000D02*
X100546000Y-81664000D01*
X105266000Y-81064000D02*
X99966000Y-81064000D01*
X103086000Y-81664000D02*
X104686000Y-81664000D01*
X99676000Y-82094000D02*
X99676000Y-86094000D01*
X116948000Y-132132000D02*
X116948000Y-136132000D01*
X119418000Y-131702000D02*
X119418000Y-131102000D01*
X121958000Y-131702000D02*
X121958000Y-131102000D01*
X117238000Y-131102000D02*
X117238000Y-137122000D01*
X120358000Y-131702000D02*
X121958000Y-131702000D01*
X120358000Y-131102000D02*
X120358000Y-131702000D01*
X122538000Y-131102000D02*
X117238000Y-131102000D01*
X118868000Y-135592000D02*
X120908000Y-135592000D01*
X118618000Y-136122000D02*
X121158000Y-136122000D01*
X118618000Y-136122000D02*
X118868000Y-135592000D01*
X117818000Y-131102000D02*
X117818000Y-131702000D01*
X120908000Y-135592000D02*
X121158000Y-136122000D01*
X120908000Y-137122000D02*
X120908000Y-136122000D01*
X118618000Y-137122000D02*
X118618000Y-136122000D01*
X121158000Y-136122000D02*
X121158000Y-137122000D01*
X117818000Y-131702000D02*
X119418000Y-131702000D01*
X117238000Y-137122000D02*
X122538000Y-137122000D01*
X118868000Y-137122000D02*
X118868000Y-136122000D01*
X122538000Y-137122000D02*
X122538000Y-131102000D01*
X152362000Y-131102000D02*
X152362000Y-131702000D01*
X151782000Y-131102000D02*
X151782000Y-137122000D01*
X155452000Y-135592000D02*
X155702000Y-136122000D01*
X151492000Y-132132000D02*
X151492000Y-136132000D01*
X154902000Y-131102000D02*
X154902000Y-131702000D01*
X157082000Y-137122000D02*
X157082000Y-131102000D01*
X157082000Y-131102000D02*
X151782000Y-131102000D01*
X153412000Y-135592000D02*
X155452000Y-135592000D01*
X151782000Y-137122000D02*
X157082000Y-137122000D01*
X153162000Y-137122000D02*
X153162000Y-136122000D01*
X153412000Y-137122000D02*
X153412000Y-136122000D01*
X153162000Y-136122000D02*
X155702000Y-136122000D01*
X156502000Y-131702000D02*
X156502000Y-131102000D01*
X153962000Y-131702000D02*
X153962000Y-131102000D01*
X154902000Y-131702000D02*
X156502000Y-131702000D01*
X155702000Y-136122000D02*
X155702000Y-137122000D01*
X152362000Y-131702000D02*
X153962000Y-131702000D01*
X155452000Y-137122000D02*
X155452000Y-136122000D01*
X153162000Y-136122000D02*
X153412000Y-135592000D01*
%TO.C,J13*%
X117818000Y-94110000D02*
X119418000Y-94110000D01*
X118618000Y-98530000D02*
X121158000Y-98530000D01*
X119418000Y-94110000D02*
X119418000Y-93510000D01*
X121158000Y-98530000D02*
X121158000Y-99530000D01*
X122538000Y-99530000D02*
X122538000Y-93510000D01*
X121958000Y-94110000D02*
X121958000Y-93510000D01*
X120358000Y-93510000D02*
X120358000Y-94110000D01*
X117238000Y-99530000D02*
X122538000Y-99530000D01*
X118618000Y-99530000D02*
X118618000Y-98530000D01*
X117238000Y-93510000D02*
X117238000Y-99530000D01*
X120358000Y-94110000D02*
X121958000Y-94110000D01*
X118868000Y-98000000D02*
X120908000Y-98000000D01*
X120908000Y-99530000D02*
X120908000Y-98530000D01*
X117818000Y-93510000D02*
X117818000Y-94110000D01*
X120908000Y-98000000D02*
X121158000Y-98530000D01*
X118618000Y-98530000D02*
X118868000Y-98000000D01*
X116948000Y-94540000D02*
X116948000Y-98540000D01*
X122538000Y-93510000D02*
X117238000Y-93510000D01*
X118868000Y-99530000D02*
X118868000Y-98530000D01*
X134220000Y-144578000D02*
X134220000Y-148578000D01*
X137630000Y-143548000D02*
X137630000Y-144148000D01*
X137630000Y-144148000D02*
X139230000Y-144148000D01*
X134510000Y-143548000D02*
X134510000Y-149568000D01*
X135090000Y-144148000D02*
X136690000Y-144148000D01*
X138180000Y-149568000D02*
X138180000Y-148568000D01*
X134510000Y-149568000D02*
X139810000Y-149568000D01*
X139810000Y-149568000D02*
X139810000Y-143548000D01*
X135890000Y-148568000D02*
X136140000Y-148038000D01*
X139810000Y-143548000D02*
X134510000Y-143548000D01*
X138180000Y-148038000D02*
X138430000Y-148568000D01*
X136140000Y-149568000D02*
X136140000Y-148568000D01*
X136690000Y-144148000D02*
X136690000Y-143548000D01*
X139230000Y-144148000D02*
X139230000Y-143548000D01*
X138430000Y-148568000D02*
X138430000Y-149568000D01*
X135090000Y-143548000D02*
X135090000Y-144148000D01*
X135890000Y-149568000D02*
X135890000Y-148568000D01*
X135890000Y-148568000D02*
X138430000Y-148568000D01*
X136140000Y-148038000D02*
X138180000Y-148038000D01*
%TO.C,J1*%
X103796000Y-106137000D02*
X103796000Y-106737000D01*
X100636000Y-113697000D02*
X104596000Y-113697000D01*
X100636000Y-115367000D02*
X100636000Y-113697000D01*
X101436000Y-106737000D02*
X101436000Y-106137000D01*
X106616000Y-115362000D02*
X104711000Y-115362000D01*
X105396000Y-106737000D02*
X105396000Y-106137000D01*
X104596000Y-113697000D02*
X104596000Y-115367000D01*
X98326000Y-109357000D02*
X98326000Y-113357000D01*
X104711000Y-116367000D02*
X100521000Y-116367000D01*
X99836000Y-106737000D02*
X101436000Y-106737000D01*
X100636000Y-116367000D02*
X100636000Y-115367000D01*
X103796000Y-106737000D02*
X105396000Y-106737000D01*
X104596000Y-115367000D02*
X104596000Y-116367000D01*
X106616000Y-106137000D02*
X106616000Y-115362000D01*
X100521000Y-116367000D02*
X100521000Y-115362000D01*
X100636000Y-115367000D02*
X104596000Y-115367000D01*
X98616000Y-115362000D02*
X98616000Y-106137000D01*
X104711000Y-115362000D02*
X104711000Y-116367000D01*
X98616000Y-106137000D02*
X106616000Y-106137000D01*
X99836000Y-106137000D02*
X99836000Y-106737000D01*
X100521000Y-115362000D02*
X98616000Y-115362000D01*
%TO.C,J12*%
X104686000Y-131702000D02*
X104686000Y-131102000D01*
X101346000Y-136122000D02*
X101596000Y-135592000D01*
X100546000Y-131702000D02*
X102146000Y-131702000D01*
X103886000Y-136122000D02*
X103886000Y-137122000D01*
X105266000Y-131102000D02*
X99966000Y-131102000D01*
X101346000Y-136122000D02*
X103886000Y-136122000D01*
X99966000Y-137122000D02*
X105266000Y-137122000D01*
X103636000Y-137122000D02*
X103636000Y-136122000D01*
X101596000Y-135592000D02*
X103636000Y-135592000D01*
X103636000Y-135592000D02*
X103886000Y-136122000D01*
X103086000Y-131702000D02*
X104686000Y-131702000D01*
X103086000Y-131102000D02*
X103086000Y-131702000D01*
X102146000Y-131702000D02*
X102146000Y-131102000D01*
X105266000Y-137122000D02*
X105266000Y-131102000D01*
X99966000Y-131102000D02*
X99966000Y-137122000D01*
X101596000Y-137122000D02*
X101596000Y-136122000D01*
X101346000Y-137122000D02*
X101346000Y-136122000D01*
X100546000Y-131102000D02*
X100546000Y-131702000D01*
X99676000Y-132132000D02*
X99676000Y-136132000D01*
%TO.C,J1*%
X81344000Y-106137000D02*
X89344000Y-106137000D01*
X89344000Y-115362000D02*
X87439000Y-115362000D01*
X88124000Y-106737000D02*
X88124000Y-106137000D01*
X87439000Y-115362000D02*
X87439000Y-116367000D01*
X86524000Y-106737000D02*
X88124000Y-106737000D01*
X83364000Y-115367000D02*
X87324000Y-115367000D01*
X81344000Y-115362000D02*
X81344000Y-106137000D01*
X87324000Y-115367000D02*
X87324000Y-116367000D01*
X82564000Y-106737000D02*
X84164000Y-106737000D01*
X83249000Y-115362000D02*
X81344000Y-115362000D01*
X89344000Y-106137000D02*
X89344000Y-115362000D01*
X83249000Y-116367000D02*
X83249000Y-115362000D01*
X81054000Y-109357000D02*
X81054000Y-113357000D01*
X87439000Y-116367000D02*
X83249000Y-116367000D01*
X83364000Y-113697000D02*
X87324000Y-113697000D01*
X86524000Y-106137000D02*
X86524000Y-106737000D01*
X83364000Y-115367000D02*
X83364000Y-113697000D01*
X87324000Y-113697000D02*
X87324000Y-115367000D01*
X83364000Y-116367000D02*
X83364000Y-115367000D01*
X82564000Y-106137000D02*
X82564000Y-106737000D01*
X84164000Y-106737000D02*
X84164000Y-106137000D01*
%TO.C,J14*%
X103636000Y-110700000D02*
X103886000Y-111230000D01*
X102146000Y-106810000D02*
X102146000Y-106210000D01*
X99966000Y-106210000D02*
X99966000Y-112230000D01*
X100546000Y-106210000D02*
X100546000Y-106810000D01*
X99676000Y-107240000D02*
X99676000Y-111240000D01*
X105266000Y-112230000D02*
X105266000Y-106210000D01*
X103636000Y-112230000D02*
X103636000Y-111230000D01*
X101596000Y-110700000D02*
X103636000Y-110700000D01*
X101596000Y-112230000D02*
X101596000Y-111230000D01*
X99966000Y-112230000D02*
X105266000Y-112230000D01*
X104686000Y-106810000D02*
X104686000Y-106210000D01*
X101346000Y-111230000D02*
X103886000Y-111230000D01*
X103086000Y-106810000D02*
X104686000Y-106810000D01*
X100546000Y-106810000D02*
X102146000Y-106810000D01*
X101346000Y-111230000D02*
X101596000Y-110700000D01*
X105266000Y-106210000D02*
X99966000Y-106210000D01*
X101346000Y-112230000D02*
X101346000Y-111230000D01*
X103086000Y-106210000D02*
X103086000Y-106810000D01*
X103886000Y-111230000D02*
X103886000Y-112230000D01*
%TO.C,J13*%
X103636000Y-149568000D02*
X103636000Y-148568000D01*
X102146000Y-144148000D02*
X102146000Y-143548000D01*
X103086000Y-144148000D02*
X104686000Y-144148000D01*
X103636000Y-148038000D02*
X103886000Y-148568000D01*
X101346000Y-148568000D02*
X103886000Y-148568000D01*
X101346000Y-149568000D02*
X101346000Y-148568000D01*
X100546000Y-144148000D02*
X102146000Y-144148000D01*
X99966000Y-149568000D02*
X105266000Y-149568000D01*
X105266000Y-143548000D02*
X99966000Y-143548000D01*
X104686000Y-144148000D02*
X104686000Y-143548000D01*
X101596000Y-148038000D02*
X103636000Y-148038000D01*
X101596000Y-149568000D02*
X101596000Y-148568000D01*
X103886000Y-148568000D02*
X103886000Y-149568000D01*
X103086000Y-143548000D02*
X103086000Y-144148000D01*
X101346000Y-148568000D02*
X101596000Y-148038000D01*
X100546000Y-143548000D02*
X100546000Y-144148000D01*
X99966000Y-143548000D02*
X99966000Y-149568000D01*
X105266000Y-149568000D02*
X105266000Y-143548000D01*
X99676000Y-144578000D02*
X99676000Y-148578000D01*
X84324000Y-148038000D02*
X86364000Y-148038000D01*
X87994000Y-143548000D02*
X82694000Y-143548000D01*
X84324000Y-149568000D02*
X84324000Y-148568000D01*
X82404000Y-144578000D02*
X82404000Y-148578000D01*
X84074000Y-148568000D02*
X86614000Y-148568000D01*
X83274000Y-143548000D02*
X83274000Y-144148000D01*
X84074000Y-149568000D02*
X84074000Y-148568000D01*
X82694000Y-143548000D02*
X82694000Y-149568000D01*
X87414000Y-144148000D02*
X87414000Y-143548000D01*
X85814000Y-144148000D02*
X87414000Y-144148000D01*
X83274000Y-144148000D02*
X84874000Y-144148000D01*
X86364000Y-148038000D02*
X86614000Y-148568000D01*
X86364000Y-149568000D02*
X86364000Y-148568000D01*
X85814000Y-143548000D02*
X85814000Y-144148000D01*
X84874000Y-144148000D02*
X84874000Y-143548000D01*
X84074000Y-148568000D02*
X84324000Y-148038000D01*
X87994000Y-149568000D02*
X87994000Y-143548000D01*
X82694000Y-149568000D02*
X87994000Y-149568000D01*
X86614000Y-148568000D02*
X86614000Y-149568000D01*
X153162000Y-98530000D02*
X153412000Y-98000000D01*
X151782000Y-99530000D02*
X157082000Y-99530000D01*
X153162000Y-98530000D02*
X155702000Y-98530000D01*
X155452000Y-98000000D02*
X155702000Y-98530000D01*
X153412000Y-99530000D02*
X153412000Y-98530000D01*
X152362000Y-93510000D02*
X152362000Y-94110000D01*
X151782000Y-93510000D02*
X151782000Y-99530000D01*
X154902000Y-94110000D02*
X156502000Y-94110000D01*
X151492000Y-94540000D02*
X151492000Y-98540000D01*
X153962000Y-94110000D02*
X153962000Y-93510000D01*
X157082000Y-99530000D02*
X157082000Y-93510000D01*
X157082000Y-93510000D02*
X151782000Y-93510000D01*
X155452000Y-99530000D02*
X155452000Y-98530000D01*
X153162000Y-99530000D02*
X153162000Y-98530000D01*
X152362000Y-94110000D02*
X153962000Y-94110000D01*
X153412000Y-98000000D02*
X155452000Y-98000000D01*
X155702000Y-98530000D02*
X155702000Y-99530000D01*
X156502000Y-94110000D02*
X156502000Y-93510000D01*
X154902000Y-93510000D02*
X154902000Y-94110000D01*
%TO.C,J11*%
X102146000Y-119256000D02*
X102146000Y-118656000D01*
X100546000Y-118656000D02*
X100546000Y-119256000D01*
X99966000Y-118656000D02*
X99966000Y-124676000D01*
X103086000Y-118656000D02*
X103086000Y-119256000D01*
X103636000Y-123146000D02*
X103886000Y-123676000D01*
X103636000Y-124676000D02*
X103636000Y-123676000D01*
X100546000Y-119256000D02*
X102146000Y-119256000D01*
X101346000Y-123676000D02*
X103886000Y-123676000D01*
X99966000Y-124676000D02*
X105266000Y-124676000D01*
X99676000Y-119686000D02*
X99676000Y-123686000D01*
X103086000Y-119256000D02*
X104686000Y-119256000D01*
X101596000Y-124676000D02*
X101596000Y-123676000D01*
X101346000Y-124676000D02*
X101346000Y-123676000D01*
X101346000Y-123676000D02*
X101596000Y-123146000D01*
X103886000Y-123676000D02*
X103886000Y-124676000D01*
X105266000Y-124676000D02*
X105266000Y-118656000D01*
X105266000Y-118656000D02*
X99966000Y-118656000D01*
X101596000Y-123146000D02*
X103636000Y-123146000D01*
X104686000Y-119256000D02*
X104686000Y-118656000D01*
%TO.C,J2*%
X86524000Y-69145000D02*
X88124000Y-69145000D01*
X87439000Y-77770000D02*
X87439000Y-78775000D01*
X88124000Y-69145000D02*
X88124000Y-68545000D01*
X83364000Y-78775000D02*
X83364000Y-77775000D01*
X86524000Y-68545000D02*
X86524000Y-69145000D01*
X82564000Y-69145000D02*
X84164000Y-69145000D01*
X83249000Y-78775000D02*
X83249000Y-77770000D01*
X87324000Y-77775000D02*
X87324000Y-78775000D01*
X82564000Y-68545000D02*
X82564000Y-69145000D01*
X81344000Y-68545000D02*
X89344000Y-68545000D01*
X83364000Y-76105000D02*
X87324000Y-76105000D01*
X87324000Y-76105000D02*
X87324000Y-77775000D01*
X89344000Y-77770000D02*
X87439000Y-77770000D01*
X83249000Y-77770000D02*
X81344000Y-77770000D01*
X83364000Y-77775000D02*
X87324000Y-77775000D01*
X81344000Y-77770000D02*
X81344000Y-68545000D01*
X83364000Y-77775000D02*
X83364000Y-76105000D01*
X89344000Y-68545000D02*
X89344000Y-77770000D01*
X87439000Y-78775000D02*
X83249000Y-78775000D01*
X81054000Y-71765000D02*
X81054000Y-75765000D01*
X84164000Y-69145000D02*
X84164000Y-68545000D01*
%TO.C,J12*%
X153162000Y-86084000D02*
X153412000Y-85554000D01*
X151492000Y-82094000D02*
X151492000Y-86094000D01*
X153162000Y-87084000D02*
X153162000Y-86084000D01*
X156502000Y-81664000D02*
X156502000Y-81064000D01*
X152362000Y-81664000D02*
X153962000Y-81664000D01*
X153412000Y-85554000D02*
X155452000Y-85554000D01*
X155702000Y-86084000D02*
X155702000Y-87084000D01*
X152362000Y-81064000D02*
X152362000Y-81664000D01*
X154902000Y-81664000D02*
X156502000Y-81664000D01*
X151782000Y-81064000D02*
X151782000Y-87084000D01*
X154902000Y-81064000D02*
X154902000Y-81664000D01*
X155452000Y-87084000D02*
X155452000Y-86084000D01*
X151782000Y-87084000D02*
X157082000Y-87084000D01*
X153162000Y-86084000D02*
X155702000Y-86084000D01*
X155452000Y-85554000D02*
X155702000Y-86084000D01*
X153962000Y-81664000D02*
X153962000Y-81064000D01*
X153412000Y-87084000D02*
X153412000Y-86084000D01*
X157082000Y-87084000D02*
X157082000Y-81064000D01*
X157082000Y-81064000D02*
X151782000Y-81064000D01*
%TO.C,J2*%
X100636000Y-78775000D02*
X100636000Y-77775000D01*
X104711000Y-78775000D02*
X100521000Y-78775000D01*
X106616000Y-77770000D02*
X104711000Y-77770000D01*
X106616000Y-68545000D02*
X106616000Y-77770000D01*
X103796000Y-68545000D02*
X103796000Y-69145000D01*
X103796000Y-69145000D02*
X105396000Y-69145000D01*
X100636000Y-76105000D02*
X104596000Y-76105000D01*
X100521000Y-78775000D02*
X100521000Y-77770000D01*
X98616000Y-68545000D02*
X106616000Y-68545000D01*
X104596000Y-76105000D02*
X104596000Y-77775000D01*
X100521000Y-77770000D02*
X98616000Y-77770000D01*
X98616000Y-77770000D02*
X98616000Y-68545000D01*
X101436000Y-69145000D02*
X101436000Y-68545000D01*
X100636000Y-77775000D02*
X104596000Y-77775000D01*
X100636000Y-77775000D02*
X100636000Y-76105000D01*
X99836000Y-69145000D02*
X101436000Y-69145000D01*
X104596000Y-77775000D02*
X104596000Y-78775000D01*
X104711000Y-77770000D02*
X104711000Y-78775000D01*
X98326000Y-71765000D02*
X98326000Y-75765000D01*
X105396000Y-69145000D02*
X105396000Y-68545000D01*
X99836000Y-68545000D02*
X99836000Y-69145000D01*
%TO.C,J4*%
X117908000Y-152705000D02*
X117908000Y-151035000D01*
X122668000Y-144075000D02*
X122668000Y-143475000D01*
X115888000Y-143475000D02*
X123888000Y-143475000D01*
X123888000Y-143475000D02*
X123888000Y-152700000D01*
X118708000Y-144075000D02*
X118708000Y-143475000D01*
X121868000Y-151035000D02*
X121868000Y-152705000D01*
X117908000Y-152705000D02*
X121868000Y-152705000D01*
X115598000Y-146695000D02*
X115598000Y-150695000D01*
X117793000Y-152700000D02*
X115888000Y-152700000D01*
X121068000Y-143475000D02*
X121068000Y-144075000D01*
X115888000Y-152700000D02*
X115888000Y-143475000D01*
X121983000Y-153705000D02*
X117793000Y-153705000D01*
X117908000Y-151035000D02*
X121868000Y-151035000D01*
X121868000Y-152705000D02*
X121868000Y-153705000D01*
X117108000Y-143475000D02*
X117108000Y-144075000D01*
X117908000Y-153705000D02*
X117908000Y-152705000D01*
X121068000Y-144075000D02*
X122668000Y-144075000D01*
X123888000Y-152700000D02*
X121983000Y-152700000D01*
X117793000Y-153705000D02*
X117793000Y-152700000D01*
X117108000Y-144075000D02*
X118708000Y-144075000D01*
X121983000Y-152700000D02*
X121983000Y-153705000D01*
%TO.C,J14*%
X120358000Y-106210000D02*
X120358000Y-106810000D01*
X120358000Y-106810000D02*
X121958000Y-106810000D01*
X117818000Y-106810000D02*
X119418000Y-106810000D01*
X122538000Y-106210000D02*
X117238000Y-106210000D01*
X118618000Y-111230000D02*
X118868000Y-110700000D01*
X116948000Y-107240000D02*
X116948000Y-111240000D01*
X120908000Y-112230000D02*
X120908000Y-111230000D01*
X118618000Y-111230000D02*
X121158000Y-111230000D01*
X118868000Y-110700000D02*
X120908000Y-110700000D01*
X117238000Y-112230000D02*
X122538000Y-112230000D01*
X117818000Y-106210000D02*
X117818000Y-106810000D01*
X118618000Y-112230000D02*
X118618000Y-111230000D01*
X121158000Y-111230000D02*
X121158000Y-112230000D01*
X117238000Y-106210000D02*
X117238000Y-112230000D01*
X122538000Y-112230000D02*
X122538000Y-106210000D01*
X121958000Y-106810000D02*
X121958000Y-106210000D01*
X120908000Y-110700000D02*
X121158000Y-111230000D01*
X118868000Y-112230000D02*
X118868000Y-111230000D01*
X119418000Y-106810000D02*
X119418000Y-106210000D01*
%TO.C,J4*%
X104596000Y-151035000D02*
X104596000Y-152705000D01*
X99836000Y-143475000D02*
X99836000Y-144075000D01*
X100636000Y-153705000D02*
X100636000Y-152705000D01*
X100636000Y-151035000D02*
X104596000Y-151035000D01*
X100636000Y-152705000D02*
X104596000Y-152705000D01*
X106616000Y-143475000D02*
X106616000Y-152700000D01*
X98616000Y-143475000D02*
X106616000Y-143475000D01*
X104711000Y-153705000D02*
X100521000Y-153705000D01*
X103796000Y-143475000D02*
X103796000Y-144075000D01*
X100521000Y-152700000D02*
X98616000Y-152700000D01*
X104711000Y-152700000D02*
X104711000Y-153705000D01*
X99836000Y-144075000D02*
X101436000Y-144075000D01*
X98616000Y-152700000D02*
X98616000Y-143475000D01*
X98326000Y-146695000D02*
X98326000Y-150695000D01*
X101436000Y-144075000D02*
X101436000Y-143475000D01*
X104596000Y-152705000D02*
X104596000Y-153705000D01*
X100521000Y-153705000D02*
X100521000Y-152700000D01*
X106616000Y-152700000D02*
X104711000Y-152700000D01*
X103796000Y-144075000D02*
X105396000Y-144075000D01*
X100636000Y-152705000D02*
X100636000Y-151035000D01*
X105396000Y-144075000D02*
X105396000Y-143475000D01*
%TO.C,J1*%
X117793000Y-66329000D02*
X117793000Y-65324000D01*
X121068000Y-56099000D02*
X121068000Y-56699000D01*
X121068000Y-56699000D02*
X122668000Y-56699000D01*
X117108000Y-56099000D02*
X117108000Y-56699000D01*
X115598000Y-59319000D02*
X115598000Y-63319000D01*
X123888000Y-56099000D02*
X123888000Y-65324000D01*
X118708000Y-56699000D02*
X118708000Y-56099000D01*
X117908000Y-66329000D02*
X117908000Y-65329000D01*
X117908000Y-65329000D02*
X117908000Y-63659000D01*
X122668000Y-56699000D02*
X122668000Y-56099000D01*
X123888000Y-65324000D02*
X121983000Y-65324000D01*
X121983000Y-66329000D02*
X117793000Y-66329000D01*
X121868000Y-65329000D02*
X121868000Y-66329000D01*
X117793000Y-65324000D02*
X115888000Y-65324000D01*
X117908000Y-65329000D02*
X121868000Y-65329000D01*
X117908000Y-63659000D02*
X121868000Y-63659000D01*
X115888000Y-56099000D02*
X123888000Y-56099000D01*
X117108000Y-56699000D02*
X118708000Y-56699000D01*
X121983000Y-65324000D02*
X121983000Y-66329000D01*
X115888000Y-65324000D02*
X115888000Y-56099000D01*
X121868000Y-63659000D02*
X121868000Y-65329000D01*
%TO.C,J3*%
X104711000Y-140254000D02*
X104711000Y-141259000D01*
X100636000Y-141259000D02*
X100636000Y-140259000D01*
X105396000Y-131629000D02*
X105396000Y-131029000D01*
X100521000Y-141259000D02*
X100521000Y-140254000D01*
X103796000Y-131029000D02*
X103796000Y-131629000D01*
X98616000Y-140254000D02*
X98616000Y-131029000D01*
X100521000Y-140254000D02*
X98616000Y-140254000D01*
X104596000Y-138589000D02*
X104596000Y-140259000D01*
X99836000Y-131029000D02*
X99836000Y-131629000D01*
X101436000Y-131629000D02*
X101436000Y-131029000D01*
X104596000Y-140259000D02*
X104596000Y-141259000D01*
X98326000Y-134249000D02*
X98326000Y-138249000D01*
X99836000Y-131629000D02*
X101436000Y-131629000D01*
X98616000Y-131029000D02*
X106616000Y-131029000D01*
X100636000Y-140259000D02*
X104596000Y-140259000D01*
X106616000Y-140254000D02*
X104711000Y-140254000D01*
X104711000Y-141259000D02*
X100521000Y-141259000D01*
X100636000Y-138589000D02*
X104596000Y-138589000D01*
X103796000Y-131629000D02*
X105396000Y-131629000D01*
X100636000Y-140259000D02*
X100636000Y-138589000D01*
X106616000Y-131029000D02*
X106616000Y-140254000D01*
X135180000Y-90221000D02*
X135180000Y-88551000D01*
X139255000Y-90216000D02*
X139255000Y-91221000D01*
X135180000Y-88551000D02*
X139140000Y-88551000D01*
X134380000Y-81591000D02*
X135980000Y-81591000D01*
X133160000Y-80991000D02*
X141160000Y-80991000D01*
X138340000Y-80991000D02*
X138340000Y-81591000D01*
X133160000Y-90216000D02*
X133160000Y-80991000D01*
X135180000Y-91221000D02*
X135180000Y-90221000D01*
X134380000Y-80991000D02*
X134380000Y-81591000D01*
X139140000Y-88551000D02*
X139140000Y-90221000D01*
X132870000Y-84211000D02*
X132870000Y-88211000D01*
X135980000Y-81591000D02*
X135980000Y-80991000D01*
X135065000Y-91221000D02*
X135065000Y-90216000D01*
X139140000Y-90221000D02*
X139140000Y-91221000D01*
X138340000Y-81591000D02*
X139940000Y-81591000D01*
X135065000Y-90216000D02*
X133160000Y-90216000D01*
X141160000Y-90216000D02*
X139255000Y-90216000D01*
X139940000Y-81591000D02*
X139940000Y-80991000D01*
X135180000Y-90221000D02*
X139140000Y-90221000D01*
X139255000Y-91221000D02*
X135065000Y-91221000D01*
X141160000Y-80991000D02*
X141160000Y-90216000D01*
%TO.C,J1*%
X151652000Y-106737000D02*
X153252000Y-106737000D01*
X156412000Y-115367000D02*
X156412000Y-116367000D01*
X152452000Y-116367000D02*
X152452000Y-115367000D01*
X152337000Y-116367000D02*
X152337000Y-115362000D01*
X150432000Y-106137000D02*
X158432000Y-106137000D01*
X150432000Y-115362000D02*
X150432000Y-106137000D01*
X151652000Y-106137000D02*
X151652000Y-106737000D01*
X152452000Y-115367000D02*
X152452000Y-113697000D01*
X157212000Y-106737000D02*
X157212000Y-106137000D01*
X153252000Y-106737000D02*
X153252000Y-106137000D01*
X155612000Y-106137000D02*
X155612000Y-106737000D01*
X156527000Y-116367000D02*
X152337000Y-116367000D01*
X156412000Y-113697000D02*
X156412000Y-115367000D01*
X158432000Y-115362000D02*
X156527000Y-115362000D01*
X155612000Y-106737000D02*
X157212000Y-106737000D01*
X152452000Y-115367000D02*
X156412000Y-115367000D01*
X152452000Y-113697000D02*
X156412000Y-113697000D01*
X150142000Y-109357000D02*
X150142000Y-113357000D01*
X156527000Y-115362000D02*
X156527000Y-116367000D01*
X152337000Y-115362000D02*
X150432000Y-115362000D01*
X158432000Y-106137000D02*
X158432000Y-115362000D01*
%TO.C,J5*%
X143704000Y-117343000D02*
X143704000Y-145343000D01*
X146364000Y-117343000D02*
X146364000Y-145343000D01*
X143704000Y-117343000D02*
X146364000Y-117343000D01*
X143704000Y-145343000D02*
X146364000Y-145343000D01*
X143704000Y-114743000D02*
X145034000Y-114743000D01*
X143704000Y-116073000D02*
X143704000Y-114743000D01*
%TO.C,J3*%
X156412000Y-90221000D02*
X156412000Y-91221000D01*
X150432000Y-90216000D02*
X150432000Y-80991000D01*
X152452000Y-90221000D02*
X156412000Y-90221000D01*
X151652000Y-81591000D02*
X153252000Y-81591000D01*
X150432000Y-80991000D02*
X158432000Y-80991000D01*
X150142000Y-84211000D02*
X150142000Y-88211000D01*
X158432000Y-80991000D02*
X158432000Y-90216000D01*
X158432000Y-90216000D02*
X156527000Y-90216000D01*
X156527000Y-90216000D02*
X156527000Y-91221000D01*
X155612000Y-80991000D02*
X155612000Y-81591000D01*
X152452000Y-88551000D02*
X156412000Y-88551000D01*
X156527000Y-91221000D02*
X152337000Y-91221000D01*
X156412000Y-88551000D02*
X156412000Y-90221000D01*
X152452000Y-90221000D02*
X152452000Y-88551000D01*
X151652000Y-80991000D02*
X151652000Y-81591000D01*
X155612000Y-81591000D02*
X157212000Y-81591000D01*
X152337000Y-91221000D02*
X152337000Y-90216000D01*
X157212000Y-81591000D02*
X157212000Y-80991000D01*
X153252000Y-81591000D02*
X153252000Y-80991000D01*
X152337000Y-90216000D02*
X150432000Y-90216000D01*
X152452000Y-91221000D02*
X152452000Y-90221000D01*
%TO.C,J5*%
X143704000Y-67305000D02*
X146364000Y-67305000D01*
X143704000Y-64705000D02*
X145034000Y-64705000D01*
X143704000Y-95305000D02*
X146364000Y-95305000D01*
X143704000Y-67305000D02*
X143704000Y-95305000D01*
X143704000Y-66035000D02*
X143704000Y-64705000D01*
X146364000Y-67305000D02*
X146364000Y-95305000D01*
%TO.C,J2*%
X123888000Y-127808000D02*
X121983000Y-127808000D01*
X121868000Y-127813000D02*
X121868000Y-128813000D01*
X123888000Y-118583000D02*
X123888000Y-127808000D01*
X117908000Y-127813000D02*
X117908000Y-126143000D01*
X121868000Y-126143000D02*
X121868000Y-127813000D01*
X121983000Y-127808000D02*
X121983000Y-128813000D01*
X121068000Y-118583000D02*
X121068000Y-119183000D01*
X121068000Y-119183000D02*
X122668000Y-119183000D01*
X115598000Y-121803000D02*
X115598000Y-125803000D01*
X117908000Y-126143000D02*
X121868000Y-126143000D01*
X115888000Y-118583000D02*
X123888000Y-118583000D01*
X118708000Y-119183000D02*
X118708000Y-118583000D01*
X115888000Y-127808000D02*
X115888000Y-118583000D01*
X117908000Y-128813000D02*
X117908000Y-127813000D01*
X117108000Y-118583000D02*
X117108000Y-119183000D01*
X122668000Y-119183000D02*
X122668000Y-118583000D01*
X117908000Y-127813000D02*
X121868000Y-127813000D01*
X117793000Y-127808000D02*
X115888000Y-127808000D01*
X117793000Y-128813000D02*
X117793000Y-127808000D01*
X117108000Y-119183000D02*
X118708000Y-119183000D01*
X121983000Y-128813000D02*
X117793000Y-128813000D01*
%TO.C,J3*%
X83249000Y-90216000D02*
X81344000Y-90216000D01*
X82564000Y-81591000D02*
X84164000Y-81591000D01*
X87439000Y-91221000D02*
X83249000Y-91221000D01*
X83364000Y-88551000D02*
X87324000Y-88551000D01*
X89344000Y-80991000D02*
X89344000Y-90216000D01*
X87324000Y-88551000D02*
X87324000Y-90221000D01*
X83364000Y-91221000D02*
X83364000Y-90221000D01*
X81054000Y-84211000D02*
X81054000Y-88211000D01*
X84164000Y-81591000D02*
X84164000Y-80991000D01*
X81344000Y-90216000D02*
X81344000Y-80991000D01*
X83364000Y-90221000D02*
X83364000Y-88551000D01*
X81344000Y-80991000D02*
X89344000Y-80991000D01*
X88124000Y-81591000D02*
X88124000Y-80991000D01*
X87324000Y-90221000D02*
X87324000Y-91221000D01*
X89344000Y-90216000D02*
X87439000Y-90216000D01*
X87439000Y-90216000D02*
X87439000Y-91221000D01*
X86524000Y-80991000D02*
X86524000Y-81591000D01*
X83364000Y-90221000D02*
X87324000Y-90221000D01*
X86524000Y-81591000D02*
X88124000Y-81591000D01*
X82564000Y-80991000D02*
X82564000Y-81591000D01*
X83249000Y-91221000D02*
X83249000Y-90216000D01*
%TO.C,J4*%
X152337000Y-102662000D02*
X150432000Y-102662000D01*
X155612000Y-93437000D02*
X155612000Y-94037000D01*
X150432000Y-93437000D02*
X158432000Y-93437000D01*
X153252000Y-94037000D02*
X153252000Y-93437000D01*
X156412000Y-100997000D02*
X156412000Y-102667000D01*
X156527000Y-102662000D02*
X156527000Y-103667000D01*
X152337000Y-103667000D02*
X152337000Y-102662000D01*
X158432000Y-93437000D02*
X158432000Y-102662000D01*
X150432000Y-102662000D02*
X150432000Y-93437000D01*
X152452000Y-102667000D02*
X156412000Y-102667000D01*
X157212000Y-94037000D02*
X157212000Y-93437000D01*
X158432000Y-102662000D02*
X156527000Y-102662000D01*
X151652000Y-94037000D02*
X153252000Y-94037000D01*
X152452000Y-100997000D02*
X156412000Y-100997000D01*
X151652000Y-93437000D02*
X151652000Y-94037000D01*
X156412000Y-102667000D02*
X156412000Y-103667000D01*
X152452000Y-103667000D02*
X152452000Y-102667000D01*
X155612000Y-94037000D02*
X157212000Y-94037000D01*
X156527000Y-103667000D02*
X152337000Y-103667000D01*
X152452000Y-102667000D02*
X152452000Y-100997000D01*
X150142000Y-96657000D02*
X150142000Y-100657000D01*
%TO.C,J1*%
X141160000Y-106137000D02*
X141160000Y-115362000D01*
X135980000Y-106737000D02*
X135980000Y-106137000D01*
X139255000Y-115362000D02*
X139255000Y-116367000D01*
X133160000Y-106137000D02*
X141160000Y-106137000D01*
X135065000Y-116367000D02*
X135065000Y-115362000D01*
X135180000Y-115367000D02*
X139140000Y-115367000D01*
X139140000Y-113697000D02*
X139140000Y-115367000D01*
X135180000Y-113697000D02*
X139140000Y-113697000D01*
X135065000Y-115362000D02*
X133160000Y-115362000D01*
X138340000Y-106137000D02*
X138340000Y-106737000D01*
X132870000Y-109357000D02*
X132870000Y-113357000D01*
X139255000Y-116367000D02*
X135065000Y-116367000D01*
X138340000Y-106737000D02*
X139940000Y-106737000D01*
X133160000Y-115362000D02*
X133160000Y-106137000D01*
X135180000Y-115367000D02*
X135180000Y-113697000D01*
X141160000Y-115362000D02*
X139255000Y-115362000D01*
X139940000Y-106737000D02*
X139940000Y-106137000D01*
X135180000Y-116367000D02*
X135180000Y-115367000D01*
X139140000Y-115367000D02*
X139140000Y-116367000D01*
X134380000Y-106737000D02*
X135980000Y-106737000D01*
X134380000Y-106137000D02*
X134380000Y-106737000D01*
%TO.C,J3*%
X103796000Y-80991000D02*
X103796000Y-81591000D01*
X101436000Y-81591000D02*
X101436000Y-80991000D01*
X100636000Y-88551000D02*
X104596000Y-88551000D01*
X104711000Y-90216000D02*
X104711000Y-91221000D01*
X99836000Y-80991000D02*
X99836000Y-81591000D01*
X106616000Y-80991000D02*
X106616000Y-90216000D01*
X100521000Y-91221000D02*
X100521000Y-90216000D01*
X104711000Y-91221000D02*
X100521000Y-91221000D01*
X100636000Y-91221000D02*
X100636000Y-90221000D01*
X100636000Y-90221000D02*
X100636000Y-88551000D01*
X104596000Y-88551000D02*
X104596000Y-90221000D01*
X106616000Y-90216000D02*
X104711000Y-90216000D01*
X98616000Y-90216000D02*
X98616000Y-80991000D01*
X100521000Y-90216000D02*
X98616000Y-90216000D01*
X98616000Y-80991000D02*
X106616000Y-80991000D01*
X98326000Y-84211000D02*
X98326000Y-88211000D01*
X104596000Y-90221000D02*
X104596000Y-91221000D01*
X100636000Y-90221000D02*
X104596000Y-90221000D01*
X105396000Y-81591000D02*
X105396000Y-80991000D01*
X99836000Y-81591000D02*
X101436000Y-81591000D01*
X103796000Y-81591000D02*
X105396000Y-81591000D01*
%TO.C,J14*%
X138180000Y-60662000D02*
X138430000Y-61192000D01*
X137630000Y-56172000D02*
X137630000Y-56772000D01*
X139810000Y-62192000D02*
X139810000Y-56172000D01*
X135090000Y-56172000D02*
X135090000Y-56772000D01*
X134220000Y-57202000D02*
X134220000Y-61202000D01*
X134510000Y-62192000D02*
X139810000Y-62192000D01*
X135890000Y-61192000D02*
X138430000Y-61192000D01*
X136140000Y-62192000D02*
X136140000Y-61192000D01*
X139230000Y-56772000D02*
X139230000Y-56172000D01*
X138430000Y-61192000D02*
X138430000Y-62192000D01*
X136140000Y-60662000D02*
X138180000Y-60662000D01*
X135890000Y-62192000D02*
X135890000Y-61192000D01*
X135890000Y-61192000D02*
X136140000Y-60662000D01*
X134510000Y-56172000D02*
X134510000Y-62192000D01*
X137630000Y-56772000D02*
X139230000Y-56772000D01*
X138180000Y-62192000D02*
X138180000Y-61192000D01*
X139810000Y-56172000D02*
X134510000Y-56172000D01*
X135090000Y-56772000D02*
X136690000Y-56772000D01*
X136690000Y-56772000D02*
X136690000Y-56172000D01*
%TO.C,J11*%
X105266000Y-74638000D02*
X105266000Y-68618000D01*
X99676000Y-69648000D02*
X99676000Y-73648000D01*
X101596000Y-73108000D02*
X103636000Y-73108000D01*
X103086000Y-68618000D02*
X103086000Y-69218000D01*
X101596000Y-74638000D02*
X101596000Y-73638000D01*
X101346000Y-73638000D02*
X103886000Y-73638000D01*
X103636000Y-73108000D02*
X103886000Y-73638000D01*
X105266000Y-68618000D02*
X99966000Y-68618000D01*
X103086000Y-69218000D02*
X104686000Y-69218000D01*
X104686000Y-69218000D02*
X104686000Y-68618000D01*
X103886000Y-73638000D02*
X103886000Y-74638000D01*
X99966000Y-68618000D02*
X99966000Y-74638000D01*
X100546000Y-68618000D02*
X100546000Y-69218000D01*
X101346000Y-73638000D02*
X101596000Y-73108000D01*
X99966000Y-74638000D02*
X105266000Y-74638000D01*
X100546000Y-69218000D02*
X102146000Y-69218000D01*
X103636000Y-74638000D02*
X103636000Y-73638000D01*
X101346000Y-74638000D02*
X101346000Y-73638000D01*
X102146000Y-69218000D02*
X102146000Y-68618000D01*
%TO.C,J1*%
X150432000Y-65324000D02*
X150432000Y-56099000D01*
X157212000Y-56699000D02*
X157212000Y-56099000D01*
X152452000Y-65329000D02*
X156412000Y-65329000D01*
X152452000Y-65329000D02*
X152452000Y-63659000D01*
X152452000Y-63659000D02*
X156412000Y-63659000D01*
X158432000Y-65324000D02*
X156527000Y-65324000D01*
X151652000Y-56099000D02*
X151652000Y-56699000D01*
X152337000Y-66329000D02*
X152337000Y-65324000D01*
X156527000Y-65324000D02*
X156527000Y-66329000D01*
X152337000Y-65324000D02*
X150432000Y-65324000D01*
X155612000Y-56699000D02*
X157212000Y-56699000D01*
X151652000Y-56699000D02*
X153252000Y-56699000D01*
X152452000Y-66329000D02*
X152452000Y-65329000D01*
X156412000Y-65329000D02*
X156412000Y-66329000D01*
X156527000Y-66329000D02*
X152337000Y-66329000D01*
X153252000Y-56699000D02*
X153252000Y-56099000D01*
X150432000Y-56099000D02*
X158432000Y-56099000D01*
X158432000Y-56099000D02*
X158432000Y-65324000D01*
X150142000Y-59319000D02*
X150142000Y-63319000D01*
X156412000Y-63659000D02*
X156412000Y-65329000D01*
X155612000Y-56099000D02*
X155612000Y-56699000D01*
%TO.C,J2*%
X83249000Y-127808000D02*
X81344000Y-127808000D01*
X84164000Y-119183000D02*
X84164000Y-118583000D01*
X87324000Y-127813000D02*
X87324000Y-128813000D01*
X81054000Y-121803000D02*
X81054000Y-125803000D01*
X82564000Y-119183000D02*
X84164000Y-119183000D01*
X88124000Y-119183000D02*
X88124000Y-118583000D01*
X83364000Y-128813000D02*
X83364000Y-127813000D01*
X87439000Y-128813000D02*
X83249000Y-128813000D01*
X83249000Y-128813000D02*
X83249000Y-127808000D01*
X81344000Y-118583000D02*
X89344000Y-118583000D01*
X89344000Y-118583000D02*
X89344000Y-127808000D01*
X83364000Y-127813000D02*
X87324000Y-127813000D01*
X83364000Y-127813000D02*
X83364000Y-126143000D01*
X86524000Y-119183000D02*
X88124000Y-119183000D01*
X81344000Y-127808000D02*
X81344000Y-118583000D01*
X89344000Y-127808000D02*
X87439000Y-127808000D01*
X83364000Y-126143000D02*
X87324000Y-126143000D01*
X87439000Y-127808000D02*
X87439000Y-128813000D01*
X82564000Y-118583000D02*
X82564000Y-119183000D01*
X86524000Y-118583000D02*
X86524000Y-119183000D01*
X87324000Y-126143000D02*
X87324000Y-127813000D01*
%TO.C,J1*%
X121983000Y-116367000D02*
X117793000Y-116367000D01*
X115598000Y-109357000D02*
X115598000Y-113357000D01*
X121868000Y-115367000D02*
X121868000Y-116367000D01*
X123888000Y-106137000D02*
X123888000Y-115362000D01*
X117793000Y-115362000D02*
X115888000Y-115362000D01*
X122668000Y-106737000D02*
X122668000Y-106137000D01*
X117908000Y-115367000D02*
X117908000Y-113697000D01*
X117108000Y-106737000D02*
X118708000Y-106737000D01*
X117908000Y-116367000D02*
X117908000Y-115367000D01*
X123888000Y-115362000D02*
X121983000Y-115362000D01*
X121983000Y-115362000D02*
X121983000Y-116367000D01*
X115888000Y-115362000D02*
X115888000Y-106137000D01*
X121868000Y-113697000D02*
X121868000Y-115367000D01*
X118708000Y-106737000D02*
X118708000Y-106137000D01*
X117908000Y-115367000D02*
X121868000Y-115367000D01*
X117108000Y-106137000D02*
X117108000Y-106737000D01*
X115888000Y-106137000D02*
X123888000Y-106137000D01*
X117908000Y-113697000D02*
X121868000Y-113697000D01*
X121068000Y-106137000D02*
X121068000Y-106737000D01*
X121068000Y-106737000D02*
X122668000Y-106737000D01*
X117793000Y-116367000D02*
X117793000Y-115362000D01*
%TO.C,J13*%
X120358000Y-143548000D02*
X120358000Y-144148000D01*
X119418000Y-144148000D02*
X119418000Y-143548000D01*
X116948000Y-144578000D02*
X116948000Y-148578000D01*
X120358000Y-144148000D02*
X121958000Y-144148000D01*
X121958000Y-144148000D02*
X121958000Y-143548000D01*
X118868000Y-149568000D02*
X118868000Y-148568000D01*
X118868000Y-148038000D02*
X120908000Y-148038000D01*
X121158000Y-148568000D02*
X121158000Y-149568000D01*
X117818000Y-144148000D02*
X119418000Y-144148000D01*
X120908000Y-149568000D02*
X120908000Y-148568000D01*
X120908000Y-148038000D02*
X121158000Y-148568000D01*
X122538000Y-149568000D02*
X122538000Y-143548000D01*
X117818000Y-143548000D02*
X117818000Y-144148000D01*
X118618000Y-149568000D02*
X118618000Y-148568000D01*
X118618000Y-148568000D02*
X121158000Y-148568000D01*
X122538000Y-143548000D02*
X117238000Y-143548000D01*
X118618000Y-148568000D02*
X118868000Y-148038000D01*
X117238000Y-149568000D02*
X122538000Y-149568000D01*
X117238000Y-143548000D02*
X117238000Y-149568000D01*
%TO.C,J1*%
X99836000Y-56099000D02*
X99836000Y-56699000D01*
X100521000Y-66329000D02*
X100521000Y-65324000D01*
X103796000Y-56699000D02*
X105396000Y-56699000D01*
X100636000Y-65329000D02*
X104596000Y-65329000D01*
X104596000Y-65329000D02*
X104596000Y-66329000D01*
X98326000Y-59319000D02*
X98326000Y-63319000D01*
X98616000Y-56099000D02*
X106616000Y-56099000D01*
X104711000Y-66329000D02*
X100521000Y-66329000D01*
X105396000Y-56699000D02*
X105396000Y-56099000D01*
X100521000Y-65324000D02*
X98616000Y-65324000D01*
X104711000Y-65324000D02*
X104711000Y-66329000D01*
X99836000Y-56699000D02*
X101436000Y-56699000D01*
X101436000Y-56699000D02*
X101436000Y-56099000D01*
X100636000Y-66329000D02*
X100636000Y-65329000D01*
X104596000Y-63659000D02*
X104596000Y-65329000D01*
X106616000Y-56099000D02*
X106616000Y-65324000D01*
X100636000Y-65329000D02*
X100636000Y-63659000D01*
X98616000Y-65324000D02*
X98616000Y-56099000D01*
X100636000Y-63659000D02*
X104596000Y-63659000D01*
X103796000Y-56099000D02*
X103796000Y-56699000D01*
X106616000Y-65324000D02*
X104711000Y-65324000D01*
%TO.C,J13*%
X153162000Y-148568000D02*
X153412000Y-148038000D01*
X156502000Y-144148000D02*
X156502000Y-143548000D01*
X157082000Y-143548000D02*
X151782000Y-143548000D01*
X157082000Y-149568000D02*
X157082000Y-143548000D01*
X153162000Y-148568000D02*
X155702000Y-148568000D01*
X152362000Y-143548000D02*
X152362000Y-144148000D01*
X151492000Y-144578000D02*
X151492000Y-148578000D01*
X152362000Y-144148000D02*
X153962000Y-144148000D01*
X155452000Y-148038000D02*
X155702000Y-148568000D01*
X155702000Y-148568000D02*
X155702000Y-149568000D01*
X155452000Y-149568000D02*
X155452000Y-148568000D01*
X154902000Y-144148000D02*
X156502000Y-144148000D01*
X154902000Y-143548000D02*
X154902000Y-144148000D01*
X153412000Y-149568000D02*
X153412000Y-148568000D01*
X151782000Y-143548000D02*
X151782000Y-149568000D01*
X153412000Y-148038000D02*
X155452000Y-148038000D01*
X151782000Y-149568000D02*
X157082000Y-149568000D01*
X153162000Y-149568000D02*
X153162000Y-148568000D01*
X153962000Y-144148000D02*
X153962000Y-143548000D01*
%TO.C,J14*%
X155702000Y-111230000D02*
X155702000Y-112230000D01*
X153162000Y-111230000D02*
X155702000Y-111230000D01*
X153412000Y-112230000D02*
X153412000Y-111230000D01*
X157082000Y-112230000D02*
X157082000Y-106210000D01*
X152362000Y-106210000D02*
X152362000Y-106810000D01*
X155452000Y-110700000D02*
X155702000Y-111230000D01*
X151782000Y-112230000D02*
X157082000Y-112230000D01*
X151782000Y-106210000D02*
X151782000Y-112230000D01*
X153412000Y-110700000D02*
X155452000Y-110700000D01*
X153162000Y-111230000D02*
X153412000Y-110700000D01*
X156502000Y-106810000D02*
X156502000Y-106210000D01*
X155452000Y-112230000D02*
X155452000Y-111230000D01*
X153962000Y-106810000D02*
X153962000Y-106210000D01*
X151492000Y-107240000D02*
X151492000Y-111240000D01*
X153162000Y-112230000D02*
X153162000Y-111230000D01*
X152362000Y-106810000D02*
X153962000Y-106810000D01*
X157082000Y-106210000D02*
X151782000Y-106210000D01*
X154902000Y-106810000D02*
X156502000Y-106810000D01*
X154902000Y-106210000D02*
X154902000Y-106810000D01*
%TO.C,J12*%
X139810000Y-131102000D02*
X134510000Y-131102000D01*
X139810000Y-137122000D02*
X139810000Y-131102000D01*
X137630000Y-131102000D02*
X137630000Y-131702000D01*
X134220000Y-132132000D02*
X134220000Y-136132000D01*
X134510000Y-137122000D02*
X139810000Y-137122000D01*
X135890000Y-137122000D02*
X135890000Y-136122000D01*
X135890000Y-136122000D02*
X138430000Y-136122000D01*
X136140000Y-135592000D02*
X138180000Y-135592000D01*
X135890000Y-136122000D02*
X136140000Y-135592000D01*
X135090000Y-131102000D02*
X135090000Y-131702000D01*
X138430000Y-136122000D02*
X138430000Y-137122000D01*
X139230000Y-131702000D02*
X139230000Y-131102000D01*
X138180000Y-137122000D02*
X138180000Y-136122000D01*
X135090000Y-131702000D02*
X136690000Y-131702000D01*
X136140000Y-137122000D02*
X136140000Y-136122000D01*
X138180000Y-135592000D02*
X138430000Y-136122000D01*
X134510000Y-131102000D02*
X134510000Y-137122000D01*
X136690000Y-131702000D02*
X136690000Y-131102000D01*
X137630000Y-131702000D02*
X139230000Y-131702000D01*
%TO.C,J14*%
X82404000Y-57202000D02*
X82404000Y-61202000D01*
X86614000Y-61192000D02*
X86614000Y-62192000D01*
X87414000Y-56772000D02*
X87414000Y-56172000D01*
X84074000Y-62192000D02*
X84074000Y-61192000D01*
X84074000Y-61192000D02*
X86614000Y-61192000D01*
X87994000Y-56172000D02*
X82694000Y-56172000D01*
X84324000Y-60662000D02*
X86364000Y-60662000D01*
X83274000Y-56772000D02*
X84874000Y-56772000D01*
X87994000Y-62192000D02*
X87994000Y-56172000D01*
X84074000Y-61192000D02*
X84324000Y-60662000D01*
X82694000Y-56172000D02*
X82694000Y-62192000D01*
X86364000Y-60662000D02*
X86614000Y-61192000D01*
X84874000Y-56772000D02*
X84874000Y-56172000D01*
X85814000Y-56172000D02*
X85814000Y-56772000D01*
X84324000Y-62192000D02*
X84324000Y-61192000D01*
X86364000Y-62192000D02*
X86364000Y-61192000D01*
X82694000Y-62192000D02*
X87994000Y-62192000D01*
X85814000Y-56772000D02*
X87414000Y-56772000D01*
X83274000Y-56172000D02*
X83274000Y-56772000D01*
%TO.C,J12*%
X137630000Y-81664000D02*
X139230000Y-81664000D01*
X139810000Y-87084000D02*
X139810000Y-81064000D01*
X138430000Y-86084000D02*
X138430000Y-87084000D01*
X135090000Y-81664000D02*
X136690000Y-81664000D01*
X137630000Y-81064000D02*
X137630000Y-81664000D01*
X135890000Y-87084000D02*
X135890000Y-86084000D01*
X139810000Y-81064000D02*
X134510000Y-81064000D01*
X136690000Y-81664000D02*
X136690000Y-81064000D01*
X134220000Y-82094000D02*
X134220000Y-86094000D01*
X135090000Y-81064000D02*
X135090000Y-81664000D01*
X136140000Y-87084000D02*
X136140000Y-86084000D01*
X135890000Y-86084000D02*
X138430000Y-86084000D01*
X138180000Y-85554000D02*
X138430000Y-86084000D01*
X134510000Y-87084000D02*
X139810000Y-87084000D01*
X139230000Y-81664000D02*
X139230000Y-81064000D01*
X138180000Y-87084000D02*
X138180000Y-86084000D01*
X135890000Y-86084000D02*
X136140000Y-85554000D01*
X134510000Y-81064000D02*
X134510000Y-87084000D01*
X136140000Y-85554000D02*
X138180000Y-85554000D01*
%TO.C,J4*%
X135065000Y-102662000D02*
X133160000Y-102662000D01*
X138340000Y-94037000D02*
X139940000Y-94037000D01*
X135180000Y-103667000D02*
X135180000Y-102667000D01*
X135180000Y-102667000D02*
X139140000Y-102667000D01*
X135180000Y-100997000D02*
X139140000Y-100997000D01*
X132870000Y-96657000D02*
X132870000Y-100657000D01*
X133160000Y-93437000D02*
X141160000Y-93437000D01*
X139255000Y-103667000D02*
X135065000Y-103667000D01*
X135180000Y-102667000D02*
X135180000Y-100997000D01*
X135980000Y-94037000D02*
X135980000Y-93437000D01*
X133160000Y-102662000D02*
X133160000Y-93437000D01*
X134380000Y-94037000D02*
X135980000Y-94037000D01*
X139140000Y-100997000D02*
X139140000Y-102667000D01*
X141160000Y-93437000D02*
X141160000Y-102662000D01*
X141160000Y-102662000D02*
X139255000Y-102662000D01*
X134380000Y-93437000D02*
X134380000Y-94037000D01*
X135065000Y-103667000D02*
X135065000Y-102662000D01*
X139940000Y-94037000D02*
X139940000Y-93437000D01*
X139255000Y-102662000D02*
X139255000Y-103667000D01*
X138340000Y-93437000D02*
X138340000Y-94037000D01*
X139140000Y-102667000D02*
X139140000Y-103667000D01*
%TO.C,J2*%
X100521000Y-128813000D02*
X100521000Y-127808000D01*
X100636000Y-126143000D02*
X104596000Y-126143000D01*
X106616000Y-127808000D02*
X104711000Y-127808000D01*
X104596000Y-126143000D02*
X104596000Y-127813000D01*
X104596000Y-127813000D02*
X104596000Y-128813000D01*
X98616000Y-127808000D02*
X98616000Y-118583000D01*
X104711000Y-127808000D02*
X104711000Y-128813000D01*
X103796000Y-119183000D02*
X105396000Y-119183000D01*
X100521000Y-127808000D02*
X98616000Y-127808000D01*
X98616000Y-118583000D02*
X106616000Y-118583000D01*
X100636000Y-127813000D02*
X104596000Y-127813000D01*
X104711000Y-128813000D02*
X100521000Y-128813000D01*
X106616000Y-118583000D02*
X106616000Y-127808000D01*
X98326000Y-121803000D02*
X98326000Y-125803000D01*
X100636000Y-128813000D02*
X100636000Y-127813000D01*
X105396000Y-119183000D02*
X105396000Y-118583000D01*
X99836000Y-119183000D02*
X101436000Y-119183000D01*
X101436000Y-119183000D02*
X101436000Y-118583000D01*
X103796000Y-118583000D02*
X103796000Y-119183000D01*
X99836000Y-118583000D02*
X99836000Y-119183000D01*
X100636000Y-127813000D02*
X100636000Y-126143000D01*
%TO.C,J12*%
X118618000Y-86084000D02*
X121158000Y-86084000D01*
X120358000Y-81664000D02*
X121958000Y-81664000D01*
X117238000Y-87084000D02*
X122538000Y-87084000D01*
X120908000Y-85554000D02*
X121158000Y-86084000D01*
X117818000Y-81664000D02*
X119418000Y-81664000D01*
X118868000Y-87084000D02*
X118868000Y-86084000D01*
X122538000Y-87084000D02*
X122538000Y-81064000D01*
X118618000Y-87084000D02*
X118618000Y-86084000D01*
X120358000Y-81064000D02*
X120358000Y-81664000D01*
X119418000Y-81664000D02*
X119418000Y-81064000D01*
X117238000Y-81064000D02*
X117238000Y-87084000D01*
X121958000Y-81664000D02*
X121958000Y-81064000D01*
X118618000Y-86084000D02*
X118868000Y-85554000D01*
X121158000Y-86084000D02*
X121158000Y-87084000D01*
X117818000Y-81064000D02*
X117818000Y-81664000D01*
X120908000Y-87084000D02*
X120908000Y-86084000D01*
X118868000Y-85554000D02*
X120908000Y-85554000D01*
X116948000Y-82094000D02*
X116948000Y-86094000D01*
X122538000Y-81064000D02*
X117238000Y-81064000D01*
X84074000Y-86084000D02*
X84324000Y-85554000D01*
X82694000Y-81064000D02*
X82694000Y-87084000D01*
X82694000Y-87084000D02*
X87994000Y-87084000D01*
X86614000Y-86084000D02*
X86614000Y-87084000D01*
X84324000Y-87084000D02*
X84324000Y-86084000D01*
X86364000Y-87084000D02*
X86364000Y-86084000D01*
X87994000Y-87084000D02*
X87994000Y-81064000D01*
X87414000Y-81664000D02*
X87414000Y-81064000D01*
X83274000Y-81664000D02*
X84874000Y-81664000D01*
X84074000Y-86084000D02*
X86614000Y-86084000D01*
X82404000Y-82094000D02*
X82404000Y-86094000D01*
X85814000Y-81664000D02*
X87414000Y-81664000D01*
X83274000Y-81064000D02*
X83274000Y-81664000D01*
X86364000Y-85554000D02*
X86614000Y-86084000D01*
X85814000Y-81064000D02*
X85814000Y-81664000D01*
X84074000Y-87084000D02*
X84074000Y-86084000D01*
X84874000Y-81664000D02*
X84874000Y-81064000D01*
X87994000Y-81064000D02*
X82694000Y-81064000D01*
X84324000Y-85554000D02*
X86364000Y-85554000D01*
%TO.C,J14*%
X118618000Y-62192000D02*
X118618000Y-61192000D01*
X120908000Y-60662000D02*
X121158000Y-61192000D01*
X120908000Y-62192000D02*
X120908000Y-61192000D01*
X121158000Y-61192000D02*
X121158000Y-62192000D01*
X119418000Y-56772000D02*
X119418000Y-56172000D01*
X122538000Y-56172000D02*
X117238000Y-56172000D01*
X117818000Y-56772000D02*
X119418000Y-56772000D01*
X117818000Y-56172000D02*
X117818000Y-56772000D01*
X122538000Y-62192000D02*
X122538000Y-56172000D01*
X118618000Y-61192000D02*
X121158000Y-61192000D01*
X117238000Y-56172000D02*
X117238000Y-62192000D01*
X118868000Y-62192000D02*
X118868000Y-61192000D01*
X117238000Y-62192000D02*
X122538000Y-62192000D01*
X118868000Y-60662000D02*
X120908000Y-60662000D01*
X116948000Y-57202000D02*
X116948000Y-61202000D01*
X120358000Y-56772000D02*
X121958000Y-56772000D01*
X118618000Y-61192000D02*
X118868000Y-60662000D01*
X120358000Y-56172000D02*
X120358000Y-56772000D01*
X121958000Y-56772000D02*
X121958000Y-56172000D01*
%TO.C,J3*%
X86524000Y-131029000D02*
X86524000Y-131629000D01*
X87324000Y-140259000D02*
X87324000Y-141259000D01*
X84164000Y-131629000D02*
X84164000Y-131029000D01*
X81054000Y-134249000D02*
X81054000Y-138249000D01*
X83364000Y-141259000D02*
X83364000Y-140259000D01*
X83364000Y-140259000D02*
X83364000Y-138589000D01*
X83364000Y-140259000D02*
X87324000Y-140259000D01*
X89344000Y-131029000D02*
X89344000Y-140254000D01*
X87324000Y-138589000D02*
X87324000Y-140259000D01*
X83249000Y-140254000D02*
X81344000Y-140254000D01*
X82564000Y-131629000D02*
X84164000Y-131629000D01*
X87439000Y-141259000D02*
X83249000Y-141259000D01*
X86524000Y-131629000D02*
X88124000Y-131629000D01*
X88124000Y-131629000D02*
X88124000Y-131029000D01*
X83364000Y-138589000D02*
X87324000Y-138589000D01*
X83249000Y-141259000D02*
X83249000Y-140254000D01*
X87439000Y-140254000D02*
X87439000Y-141259000D01*
X82564000Y-131029000D02*
X82564000Y-131629000D01*
X81344000Y-131029000D02*
X89344000Y-131029000D01*
X81344000Y-140254000D02*
X81344000Y-131029000D01*
X89344000Y-140254000D02*
X87439000Y-140254000D01*
X152452000Y-140259000D02*
X156412000Y-140259000D01*
X153252000Y-131629000D02*
X153252000Y-131029000D01*
X157212000Y-131629000D02*
X157212000Y-131029000D01*
X156412000Y-140259000D02*
X156412000Y-141259000D01*
X156412000Y-138589000D02*
X156412000Y-140259000D01*
X150432000Y-140254000D02*
X150432000Y-131029000D01*
X155612000Y-131629000D02*
X157212000Y-131629000D01*
X151652000Y-131029000D02*
X151652000Y-131629000D01*
X152452000Y-140259000D02*
X152452000Y-138589000D01*
X152452000Y-138589000D02*
X156412000Y-138589000D01*
X152337000Y-141259000D02*
X152337000Y-140254000D01*
X158432000Y-140254000D02*
X156527000Y-140254000D01*
X150432000Y-131029000D02*
X158432000Y-131029000D01*
X156527000Y-141259000D02*
X152337000Y-141259000D01*
X151652000Y-131629000D02*
X153252000Y-131629000D01*
X155612000Y-131029000D02*
X155612000Y-131629000D01*
X152337000Y-140254000D02*
X150432000Y-140254000D01*
X152452000Y-141259000D02*
X152452000Y-140259000D01*
X150142000Y-134249000D02*
X150142000Y-138249000D01*
X158432000Y-131029000D02*
X158432000Y-140254000D01*
X156527000Y-140254000D02*
X156527000Y-141259000D01*
%TO.C,J13*%
X135890000Y-98530000D02*
X138430000Y-98530000D01*
X137630000Y-94110000D02*
X139230000Y-94110000D01*
X139230000Y-94110000D02*
X139230000Y-93510000D01*
X135890000Y-98530000D02*
X136140000Y-98000000D01*
X135090000Y-93510000D02*
X135090000Y-94110000D01*
X136690000Y-94110000D02*
X136690000Y-93510000D01*
X136140000Y-98000000D02*
X138180000Y-98000000D01*
X134510000Y-99530000D02*
X139810000Y-99530000D01*
X134220000Y-94540000D02*
X134220000Y-98540000D01*
X139810000Y-93510000D02*
X134510000Y-93510000D01*
X135090000Y-94110000D02*
X136690000Y-94110000D01*
X138430000Y-98530000D02*
X138430000Y-99530000D01*
X138180000Y-98000000D02*
X138430000Y-98530000D01*
X137630000Y-93510000D02*
X137630000Y-94110000D01*
X136140000Y-99530000D02*
X136140000Y-98530000D01*
X139810000Y-99530000D02*
X139810000Y-93510000D01*
X134510000Y-93510000D02*
X134510000Y-99530000D01*
X135890000Y-99530000D02*
X135890000Y-98530000D01*
X138180000Y-99530000D02*
X138180000Y-98530000D01*
%TO.C,J4*%
X121983000Y-103667000D02*
X117793000Y-103667000D01*
X115888000Y-102662000D02*
X115888000Y-93437000D01*
X122668000Y-94037000D02*
X122668000Y-93437000D01*
X115888000Y-93437000D02*
X123888000Y-93437000D01*
X123888000Y-102662000D02*
X121983000Y-102662000D01*
X117908000Y-100997000D02*
X121868000Y-100997000D01*
X117908000Y-102667000D02*
X117908000Y-100997000D01*
X115598000Y-96657000D02*
X115598000Y-100657000D01*
X117793000Y-102662000D02*
X115888000Y-102662000D01*
X117108000Y-94037000D02*
X118708000Y-94037000D01*
X121068000Y-93437000D02*
X121068000Y-94037000D01*
X121068000Y-94037000D02*
X122668000Y-94037000D01*
X121868000Y-102667000D02*
X121868000Y-103667000D01*
X117793000Y-103667000D02*
X117793000Y-102662000D01*
X121868000Y-100997000D02*
X121868000Y-102667000D01*
X117108000Y-93437000D02*
X117108000Y-94037000D01*
X117908000Y-102667000D02*
X121868000Y-102667000D01*
X117908000Y-103667000D02*
X117908000Y-102667000D01*
X118708000Y-94037000D02*
X118708000Y-93437000D01*
X121983000Y-102662000D02*
X121983000Y-103667000D01*
X123888000Y-93437000D02*
X123888000Y-102662000D01*
%TO.C,J14*%
X85814000Y-106810000D02*
X87414000Y-106810000D01*
X82694000Y-112230000D02*
X87994000Y-112230000D01*
X84074000Y-111230000D02*
X84324000Y-110700000D01*
X84874000Y-106810000D02*
X84874000Y-106210000D01*
X86614000Y-111230000D02*
X86614000Y-112230000D01*
X87994000Y-112230000D02*
X87994000Y-106210000D01*
X86364000Y-110700000D02*
X86614000Y-111230000D01*
X82694000Y-106210000D02*
X82694000Y-112230000D01*
X85814000Y-106210000D02*
X85814000Y-106810000D01*
X84324000Y-112230000D02*
X84324000Y-111230000D01*
X84324000Y-110700000D02*
X86364000Y-110700000D01*
X87414000Y-106810000D02*
X87414000Y-106210000D01*
X82404000Y-107240000D02*
X82404000Y-111240000D01*
X87994000Y-106210000D02*
X82694000Y-106210000D01*
X83274000Y-106810000D02*
X84874000Y-106810000D01*
X84074000Y-111230000D02*
X86614000Y-111230000D01*
X83274000Y-106210000D02*
X83274000Y-106810000D01*
X84074000Y-112230000D02*
X84074000Y-111230000D01*
X86364000Y-112230000D02*
X86364000Y-111230000D01*
%TO.C,J5*%
X109160000Y-145343000D02*
X111820000Y-145343000D01*
X109160000Y-117343000D02*
X109160000Y-145343000D01*
X109160000Y-116073000D02*
X109160000Y-114743000D01*
X111820000Y-117343000D02*
X111820000Y-145343000D01*
X109160000Y-117343000D02*
X111820000Y-117343000D01*
X109160000Y-114743000D02*
X110490000Y-114743000D01*
%TO.C,J3*%
X122668000Y-81591000D02*
X122668000Y-80991000D01*
X121068000Y-81591000D02*
X122668000Y-81591000D01*
X121983000Y-90216000D02*
X121983000Y-91221000D01*
X117908000Y-90221000D02*
X117908000Y-88551000D01*
X115888000Y-80991000D02*
X123888000Y-80991000D01*
X115888000Y-90216000D02*
X115888000Y-80991000D01*
X121068000Y-80991000D02*
X121068000Y-81591000D01*
X115598000Y-84211000D02*
X115598000Y-88211000D01*
X117108000Y-81591000D02*
X118708000Y-81591000D01*
X117908000Y-88551000D02*
X121868000Y-88551000D01*
X117108000Y-80991000D02*
X117108000Y-81591000D01*
X123888000Y-80991000D02*
X123888000Y-90216000D01*
X123888000Y-90216000D02*
X121983000Y-90216000D01*
X117908000Y-91221000D02*
X117908000Y-90221000D01*
X121868000Y-90221000D02*
X121868000Y-91221000D01*
X117793000Y-90216000D02*
X115888000Y-90216000D01*
X121983000Y-91221000D02*
X117793000Y-91221000D01*
X118708000Y-81591000D02*
X118708000Y-80991000D01*
X117908000Y-90221000D02*
X121868000Y-90221000D01*
X121868000Y-88551000D02*
X121868000Y-90221000D01*
X117793000Y-91221000D02*
X117793000Y-90216000D01*
%TO.C,J2*%
X135065000Y-127808000D02*
X133160000Y-127808000D01*
X138340000Y-119183000D02*
X139940000Y-119183000D01*
X141160000Y-118583000D02*
X141160000Y-127808000D01*
X133160000Y-118583000D02*
X141160000Y-118583000D01*
X134380000Y-119183000D02*
X135980000Y-119183000D01*
X133160000Y-127808000D02*
X133160000Y-118583000D01*
X135180000Y-127813000D02*
X139140000Y-127813000D01*
X141160000Y-127808000D02*
X139255000Y-127808000D01*
X135180000Y-126143000D02*
X139140000Y-126143000D01*
X139255000Y-127808000D02*
X139255000Y-128813000D01*
X139255000Y-128813000D02*
X135065000Y-128813000D01*
X135980000Y-119183000D02*
X135980000Y-118583000D01*
X139140000Y-126143000D02*
X139140000Y-127813000D01*
X135180000Y-127813000D02*
X135180000Y-126143000D01*
X138340000Y-118583000D02*
X138340000Y-119183000D01*
X134380000Y-118583000D02*
X134380000Y-119183000D01*
X139940000Y-119183000D02*
X139940000Y-118583000D01*
X135065000Y-128813000D02*
X135065000Y-127808000D01*
X132870000Y-121803000D02*
X132870000Y-125803000D01*
X135180000Y-128813000D02*
X135180000Y-127813000D01*
X139140000Y-127813000D02*
X139140000Y-128813000D01*
%TO.C,J5*%
X91888000Y-67305000D02*
X91888000Y-95305000D01*
X91888000Y-64705000D02*
X93218000Y-64705000D01*
X91888000Y-67305000D02*
X94548000Y-67305000D01*
X94548000Y-67305000D02*
X94548000Y-95305000D01*
X91888000Y-66035000D02*
X91888000Y-64705000D01*
X91888000Y-95305000D02*
X94548000Y-95305000D01*
%TO.C,J11*%
X152362000Y-119256000D02*
X153962000Y-119256000D01*
X154902000Y-118656000D02*
X154902000Y-119256000D01*
X155452000Y-124676000D02*
X155452000Y-123676000D01*
X151492000Y-119686000D02*
X151492000Y-123686000D01*
X153412000Y-123146000D02*
X155452000Y-123146000D01*
X153162000Y-124676000D02*
X153162000Y-123676000D01*
X154902000Y-119256000D02*
X156502000Y-119256000D01*
X155452000Y-123146000D02*
X155702000Y-123676000D01*
X153412000Y-124676000D02*
X153412000Y-123676000D01*
X157082000Y-118656000D02*
X151782000Y-118656000D01*
X155702000Y-123676000D02*
X155702000Y-124676000D01*
X156502000Y-119256000D02*
X156502000Y-118656000D01*
X151782000Y-118656000D02*
X151782000Y-124676000D01*
X153162000Y-123676000D02*
X153412000Y-123146000D01*
X152362000Y-118656000D02*
X152362000Y-119256000D01*
X153962000Y-119256000D02*
X153962000Y-118656000D01*
X151782000Y-124676000D02*
X157082000Y-124676000D01*
X153162000Y-123676000D02*
X155702000Y-123676000D01*
X157082000Y-124676000D02*
X157082000Y-118656000D01*
%TO.C,J3*%
X121868000Y-140259000D02*
X121868000Y-141259000D01*
X121983000Y-140254000D02*
X121983000Y-141259000D01*
X115888000Y-131029000D02*
X123888000Y-131029000D01*
X115888000Y-140254000D02*
X115888000Y-131029000D01*
X117793000Y-140254000D02*
X115888000Y-140254000D01*
X117908000Y-140259000D02*
X121868000Y-140259000D01*
X122668000Y-131629000D02*
X122668000Y-131029000D01*
X117108000Y-131029000D02*
X117108000Y-131629000D01*
X121868000Y-138589000D02*
X121868000Y-140259000D01*
X123888000Y-131029000D02*
X123888000Y-140254000D01*
X118708000Y-131629000D02*
X118708000Y-131029000D01*
X121068000Y-131629000D02*
X122668000Y-131629000D01*
X123888000Y-140254000D02*
X121983000Y-140254000D01*
X117793000Y-141259000D02*
X117793000Y-140254000D01*
X121983000Y-141259000D02*
X117793000Y-141259000D01*
X117908000Y-141259000D02*
X117908000Y-140259000D01*
X117908000Y-138589000D02*
X121868000Y-138589000D01*
X121068000Y-131029000D02*
X121068000Y-131629000D01*
X117108000Y-131629000D02*
X118708000Y-131629000D01*
X115598000Y-134249000D02*
X115598000Y-138249000D01*
X117908000Y-140259000D02*
X117908000Y-138589000D01*
%TO.C,J5*%
X160976000Y-67305000D02*
X163636000Y-67305000D01*
X160976000Y-95305000D02*
X163636000Y-95305000D01*
X160976000Y-67305000D02*
X160976000Y-95305000D01*
X163636000Y-67305000D02*
X163636000Y-95305000D01*
X160976000Y-66035000D02*
X160976000Y-64705000D01*
X160976000Y-64705000D02*
X162306000Y-64705000D01*
%TO.C,J2*%
X135180000Y-76105000D02*
X139140000Y-76105000D01*
X135180000Y-77775000D02*
X139140000Y-77775000D01*
X141160000Y-77770000D02*
X139255000Y-77770000D01*
X135065000Y-78775000D02*
X135065000Y-77770000D01*
X134380000Y-69145000D02*
X135980000Y-69145000D01*
X139140000Y-77775000D02*
X139140000Y-78775000D01*
X135180000Y-77775000D02*
X135180000Y-76105000D01*
X134380000Y-68545000D02*
X134380000Y-69145000D01*
X139255000Y-77770000D02*
X139255000Y-78775000D01*
X135180000Y-78775000D02*
X135180000Y-77775000D01*
X135980000Y-69145000D02*
X135980000Y-68545000D01*
X132870000Y-71765000D02*
X132870000Y-75765000D01*
X133160000Y-77770000D02*
X133160000Y-68545000D01*
X135065000Y-77770000D02*
X133160000Y-77770000D01*
X133160000Y-68545000D02*
X141160000Y-68545000D01*
X138340000Y-68545000D02*
X138340000Y-69145000D01*
X139255000Y-78775000D02*
X135065000Y-78775000D01*
X141160000Y-68545000D02*
X141160000Y-77770000D01*
X138340000Y-69145000D02*
X139940000Y-69145000D01*
X139140000Y-76105000D02*
X139140000Y-77775000D01*
X139940000Y-69145000D02*
X139940000Y-68545000D01*
%TO.C,J11*%
X153162000Y-73638000D02*
X153412000Y-73108000D01*
X155452000Y-73108000D02*
X155702000Y-73638000D01*
X154902000Y-69218000D02*
X156502000Y-69218000D01*
X151492000Y-69648000D02*
X151492000Y-73648000D01*
X154902000Y-68618000D02*
X154902000Y-69218000D01*
X155452000Y-74638000D02*
X155452000Y-73638000D01*
X156502000Y-69218000D02*
X156502000Y-68618000D01*
X153962000Y-69218000D02*
X153962000Y-68618000D01*
X153162000Y-73638000D02*
X155702000Y-73638000D01*
X153412000Y-74638000D02*
X153412000Y-73638000D01*
X155702000Y-73638000D02*
X155702000Y-74638000D01*
X153162000Y-74638000D02*
X153162000Y-73638000D01*
X157082000Y-74638000D02*
X157082000Y-68618000D01*
X151782000Y-68618000D02*
X151782000Y-74638000D01*
X157082000Y-68618000D02*
X151782000Y-68618000D01*
X151782000Y-74638000D02*
X157082000Y-74638000D01*
X152362000Y-69218000D02*
X153962000Y-69218000D01*
X153412000Y-73108000D02*
X155452000Y-73108000D01*
X152362000Y-68618000D02*
X152362000Y-69218000D01*
%TO.C,J4*%
X87439000Y-102662000D02*
X87439000Y-103667000D01*
X89344000Y-102662000D02*
X87439000Y-102662000D01*
X87324000Y-102667000D02*
X87324000Y-103667000D01*
X83364000Y-103667000D02*
X83364000Y-102667000D01*
X87324000Y-100997000D02*
X87324000Y-102667000D01*
X89344000Y-93437000D02*
X89344000Y-102662000D01*
X86524000Y-94037000D02*
X88124000Y-94037000D01*
X83364000Y-100997000D02*
X87324000Y-100997000D01*
X88124000Y-94037000D02*
X88124000Y-93437000D01*
X86524000Y-93437000D02*
X86524000Y-94037000D01*
X82564000Y-94037000D02*
X84164000Y-94037000D01*
X87439000Y-103667000D02*
X83249000Y-103667000D01*
X81054000Y-96657000D02*
X81054000Y-100657000D01*
X83249000Y-103667000D02*
X83249000Y-102662000D01*
X81344000Y-93437000D02*
X89344000Y-93437000D01*
X83364000Y-102667000D02*
X87324000Y-102667000D01*
X82564000Y-93437000D02*
X82564000Y-94037000D01*
X81344000Y-102662000D02*
X81344000Y-93437000D01*
X84164000Y-94037000D02*
X84164000Y-93437000D01*
X83249000Y-102662000D02*
X81344000Y-102662000D01*
X83364000Y-102667000D02*
X83364000Y-100997000D01*
%TO.C,J5*%
X126432000Y-67305000D02*
X126432000Y-95305000D01*
X126432000Y-66035000D02*
X126432000Y-64705000D01*
X129092000Y-67305000D02*
X129092000Y-95305000D01*
X126432000Y-95305000D02*
X129092000Y-95305000D01*
X126432000Y-67305000D02*
X129092000Y-67305000D01*
X126432000Y-64705000D02*
X127762000Y-64705000D01*
%TO.C,J11*%
X82404000Y-119686000D02*
X82404000Y-123686000D01*
X84074000Y-123676000D02*
X86614000Y-123676000D01*
X83274000Y-119256000D02*
X84874000Y-119256000D01*
X84874000Y-119256000D02*
X84874000Y-118656000D01*
X86364000Y-124676000D02*
X86364000Y-123676000D01*
X84074000Y-123676000D02*
X84324000Y-123146000D01*
X86614000Y-123676000D02*
X86614000Y-124676000D01*
X84324000Y-123146000D02*
X86364000Y-123146000D01*
X83274000Y-118656000D02*
X83274000Y-119256000D01*
X82694000Y-118656000D02*
X82694000Y-124676000D01*
X85814000Y-118656000D02*
X85814000Y-119256000D01*
X86364000Y-123146000D02*
X86614000Y-123676000D01*
X84324000Y-124676000D02*
X84324000Y-123676000D01*
X85814000Y-119256000D02*
X87414000Y-119256000D01*
X87994000Y-118656000D02*
X82694000Y-118656000D01*
X87994000Y-124676000D02*
X87994000Y-118656000D01*
X84074000Y-124676000D02*
X84074000Y-123676000D01*
X82694000Y-124676000D02*
X87994000Y-124676000D01*
X87414000Y-119256000D02*
X87414000Y-118656000D01*
%TO.C,J5*%
X91888000Y-117343000D02*
X94548000Y-117343000D01*
X94548000Y-117343000D02*
X94548000Y-145343000D01*
X91888000Y-117343000D02*
X91888000Y-145343000D01*
X91888000Y-145343000D02*
X94548000Y-145343000D01*
X91888000Y-116073000D02*
X91888000Y-114743000D01*
X91888000Y-114743000D02*
X93218000Y-114743000D01*
%TO.C,J2*%
X121068000Y-69145000D02*
X122668000Y-69145000D01*
X117108000Y-69145000D02*
X118708000Y-69145000D01*
X117908000Y-76105000D02*
X121868000Y-76105000D01*
X117793000Y-78775000D02*
X117793000Y-77770000D01*
X115598000Y-71765000D02*
X115598000Y-75765000D01*
X117793000Y-77770000D02*
X115888000Y-77770000D01*
X123888000Y-68545000D02*
X123888000Y-77770000D01*
X115888000Y-68545000D02*
X123888000Y-68545000D01*
X121983000Y-78775000D02*
X117793000Y-78775000D01*
X121068000Y-68545000D02*
X121068000Y-69145000D01*
X117908000Y-78775000D02*
X117908000Y-77775000D01*
X118708000Y-69145000D02*
X118708000Y-68545000D01*
X117908000Y-77775000D02*
X117908000Y-76105000D01*
X117908000Y-77775000D02*
X121868000Y-77775000D01*
X121868000Y-76105000D02*
X121868000Y-77775000D01*
X117108000Y-68545000D02*
X117108000Y-69145000D01*
X121983000Y-77770000D02*
X121983000Y-78775000D01*
X123888000Y-77770000D02*
X121983000Y-77770000D01*
X122668000Y-69145000D02*
X122668000Y-68545000D01*
X115888000Y-77770000D02*
X115888000Y-68545000D01*
X121868000Y-77775000D02*
X121868000Y-78775000D01*
X158432000Y-127808000D02*
X156527000Y-127808000D01*
X155612000Y-118583000D02*
X155612000Y-119183000D01*
X156527000Y-128813000D02*
X152337000Y-128813000D01*
X158432000Y-118583000D02*
X158432000Y-127808000D01*
X152452000Y-127813000D02*
X152452000Y-126143000D01*
X155612000Y-119183000D02*
X157212000Y-119183000D01*
X152452000Y-126143000D02*
X156412000Y-126143000D01*
X152337000Y-128813000D02*
X152337000Y-127808000D01*
X152452000Y-127813000D02*
X156412000Y-127813000D01*
X152452000Y-128813000D02*
X152452000Y-127813000D01*
X151652000Y-118583000D02*
X151652000Y-119183000D01*
X151652000Y-119183000D02*
X153252000Y-119183000D01*
X150142000Y-121803000D02*
X150142000Y-125803000D01*
X150432000Y-118583000D02*
X158432000Y-118583000D01*
X150432000Y-127808000D02*
X150432000Y-118583000D01*
X156412000Y-127813000D02*
X156412000Y-128813000D01*
X152337000Y-127808000D02*
X150432000Y-127808000D01*
X156527000Y-127808000D02*
X156527000Y-128813000D01*
X156412000Y-126143000D02*
X156412000Y-127813000D01*
X153252000Y-119183000D02*
X153252000Y-118583000D01*
X157212000Y-119183000D02*
X157212000Y-118583000D01*
%TO.C,J11*%
X122538000Y-68618000D02*
X117238000Y-68618000D01*
X116948000Y-69648000D02*
X116948000Y-73648000D01*
X118868000Y-73108000D02*
X120908000Y-73108000D01*
X118868000Y-74638000D02*
X118868000Y-73638000D01*
X121958000Y-69218000D02*
X121958000Y-68618000D01*
X122538000Y-74638000D02*
X122538000Y-68618000D01*
X117238000Y-68618000D02*
X117238000Y-74638000D01*
X119418000Y-69218000D02*
X119418000Y-68618000D01*
X121158000Y-73638000D02*
X121158000Y-74638000D01*
X118618000Y-73638000D02*
X121158000Y-73638000D01*
X118618000Y-74638000D02*
X118618000Y-73638000D01*
X120358000Y-69218000D02*
X121958000Y-69218000D01*
X118618000Y-73638000D02*
X118868000Y-73108000D01*
X117818000Y-69218000D02*
X119418000Y-69218000D01*
X120908000Y-73108000D02*
X121158000Y-73638000D01*
X117238000Y-74638000D02*
X122538000Y-74638000D01*
X120908000Y-74638000D02*
X120908000Y-73638000D01*
X120358000Y-68618000D02*
X120358000Y-69218000D01*
X117818000Y-68618000D02*
X117818000Y-69218000D01*
%TD*%
M02*
