%TF.GenerationSoftware,KiCad,Pcbnew,6.0.4-6f826c9f35~116~ubuntu21.10.1*%
%TF.CreationDate,2022-04-21T21:53:43+02:00*%
%TF.ProjectId,Carte_multiprise,43617274-655f-46d7-956c-746970726973,rev?*%
%TF.SameCoordinates,Original*%
%TF.FileFunction,Soldermask,Bot*%
%TF.FilePolarity,Negative*%
%FSLAX46Y46*%
G04 Gerber Fmt 4.6, Leading zero omitted, Abs format (unit mm)*
G04 Created by KiCad (PCBNEW 6.0.4-6f826c9f35~116~ubuntu21.10.1) date 2022-04-21 21:53:43*
%MOMM*%
%LPD*%
G01*
G04 APERTURE LIST*
G04 Aperture macros list*
%AMRoundRect*
0 Rectangle with rounded corners*
0 $1 Rounding radius*
0 $2 $3 $4 $5 $6 $7 $8 $9 X,Y pos of 4 corners*
0 Add a 4 corners polygon primitive as box body*
4,1,4,$2,$3,$4,$5,$6,$7,$8,$9,$2,$3,0*
0 Add four circle primitives for the rounded corners*
1,1,$1+$1,$2,$3*
1,1,$1+$1,$4,$5*
1,1,$1+$1,$6,$7*
1,1,$1+$1,$8,$9*
0 Add four rect primitives between the rounded corners*
20,1,$1+$1,$2,$3,$4,$5,0*
20,1,$1+$1,$4,$5,$6,$7,0*
20,1,$1+$1,$6,$7,$8,$9,0*
20,1,$1+$1,$8,$9,$2,$3,0*%
G04 Aperture macros list end*
%ADD10RoundRect,0.250000X-1.330000X-1.800000X1.330000X-1.800000X1.330000X1.800000X-1.330000X1.800000X0*%
%ADD11O,3.160000X4.100000*%
%ADD12C,0.500000*%
%ADD13C,3.200000*%
%ADD14RoundRect,0.250000X-0.620000X-0.845000X0.620000X-0.845000X0.620000X0.845000X-0.620000X0.845000X0*%
%ADD15O,1.740000X2.190000*%
%ADD16R,1.700000X1.700000*%
%ADD17O,1.700000X1.700000*%
G04 APERTURE END LIST*
D10*
%TO.C,J1*%
X83364000Y-61319000D03*
D11*
X87324000Y-61319000D03*
%TD*%
D12*
%TO.C,mouse-bite-2mm-slot*%
X98032000Y-68060000D03*
X96532000Y-66560000D03*
X98032000Y-66560000D03*
X98032000Y-67310000D03*
X96532000Y-67310000D03*
X96532000Y-68060000D03*
%TD*%
%TO.C,mouse-bite-2mm-slot*%
X115304000Y-67310000D03*
X115304000Y-68060000D03*
X115304000Y-66560000D03*
X113804000Y-66560000D03*
X113804000Y-67310000D03*
X113804000Y-68060000D03*
%TD*%
%TO.C,mouse-bite-2mm-slot*%
X132576000Y-67310000D03*
X131076000Y-66560000D03*
X132576000Y-68060000D03*
X131076000Y-67310000D03*
X131076000Y-68060000D03*
X132576000Y-66560000D03*
%TD*%
%TO.C,mouse-bite-2mm-slot*%
X149848000Y-66560000D03*
X148348000Y-68060000D03*
X149848000Y-68060000D03*
X149848000Y-67310000D03*
X148348000Y-66560000D03*
X148348000Y-67310000D03*
%TD*%
%TO.C,mouse-bite-2mm-slot*%
X96532000Y-92214000D03*
X98032000Y-93714000D03*
X96532000Y-92964000D03*
X98032000Y-92964000D03*
X96532000Y-93714000D03*
X98032000Y-92214000D03*
%TD*%
%TO.C,mouse-bite-2mm-slot*%
X113804000Y-92964000D03*
X113804000Y-93714000D03*
X115304000Y-92214000D03*
X115304000Y-92964000D03*
X113804000Y-92214000D03*
X115304000Y-93714000D03*
%TD*%
%TO.C,mouse-bite-2mm-slot*%
X131076000Y-93714000D03*
X132576000Y-92214000D03*
X131076000Y-92214000D03*
X131076000Y-92964000D03*
X132576000Y-93714000D03*
X132576000Y-92964000D03*
%TD*%
%TO.C,mouse-bite-2mm-slot*%
X148348000Y-92964000D03*
X149848000Y-92964000D03*
X149848000Y-93714000D03*
X149848000Y-92214000D03*
X148348000Y-93714000D03*
X148348000Y-92214000D03*
%TD*%
%TO.C,mouse-bite-2mm-slot*%
X98032000Y-143752000D03*
X96532000Y-143752000D03*
X96532000Y-142252000D03*
X98032000Y-142252000D03*
X98032000Y-143002000D03*
X96532000Y-143002000D03*
%TD*%
%TO.C,mouse-bite-2mm-slot*%
X96532000Y-116598000D03*
X98032000Y-116598000D03*
X96532000Y-117348000D03*
X96532000Y-118098000D03*
X98032000Y-117348000D03*
X98032000Y-118098000D03*
%TD*%
%TO.C,mouse-bite-2mm-slot*%
X113804000Y-117348000D03*
X113804000Y-118098000D03*
X115304000Y-118098000D03*
X113804000Y-116598000D03*
X115304000Y-116598000D03*
X115304000Y-117348000D03*
%TD*%
%TO.C,mouse-bite-2mm-slot*%
X115304000Y-143002000D03*
X113804000Y-142252000D03*
X113804000Y-143752000D03*
X113804000Y-143002000D03*
X115304000Y-142252000D03*
X115304000Y-143752000D03*
%TD*%
%TO.C,mouse-bite-2mm-slot*%
X132576000Y-143002000D03*
X131076000Y-143752000D03*
X131076000Y-143002000D03*
X132576000Y-142252000D03*
X131076000Y-142252000D03*
X132576000Y-143752000D03*
%TD*%
%TO.C,mouse-bite-2mm-slot*%
X131076000Y-116598000D03*
X132576000Y-117348000D03*
X132576000Y-118098000D03*
X131076000Y-118098000D03*
X131076000Y-117348000D03*
X132576000Y-116598000D03*
%TD*%
%TO.C,mouse-bite-2mm-slot*%
X87896000Y-104152000D03*
X88646000Y-104152000D03*
X89396000Y-105652000D03*
X87896000Y-105652000D03*
X89396000Y-104152000D03*
X88646000Y-105652000D03*
%TD*%
%TO.C,mouse-bite-2mm-slot*%
X105918000Y-105652000D03*
X106668000Y-104152000D03*
X105168000Y-104152000D03*
X105918000Y-104152000D03*
X105168000Y-105652000D03*
X106668000Y-105652000D03*
%TD*%
%TO.C,mouse-bite-2mm-slot*%
X123940000Y-105652000D03*
X122440000Y-105652000D03*
X122440000Y-104152000D03*
X123940000Y-104152000D03*
X123190000Y-105652000D03*
X123190000Y-104152000D03*
%TD*%
%TO.C,mouse-bite-2mm-slot*%
X139712000Y-104152000D03*
X140462000Y-104152000D03*
X141212000Y-105652000D03*
X140462000Y-105652000D03*
X139712000Y-105652000D03*
X141212000Y-104152000D03*
%TD*%
%TO.C,mouse-bite-2mm-slot*%
X156984000Y-105652000D03*
X157734000Y-105652000D03*
X158484000Y-104152000D03*
X157734000Y-104152000D03*
X156984000Y-104152000D03*
X158484000Y-105652000D03*
%TD*%
%TO.C,mouse-bite-2mm-slot*%
X149848000Y-116598000D03*
X148348000Y-116598000D03*
X149848000Y-117348000D03*
X148348000Y-117348000D03*
X149848000Y-118098000D03*
X148348000Y-118098000D03*
%TD*%
%TO.C,mouse-bite-2mm-slot*%
X148348000Y-142252000D03*
X149848000Y-143002000D03*
X149848000Y-142252000D03*
X149848000Y-143752000D03*
X148348000Y-143752000D03*
X148348000Y-143002000D03*
%TD*%
D13*
%TO.C,H1*%
X110490000Y-149098000D03*
%TD*%
D14*
%TO.C,J14*%
X153162000Y-59202000D03*
D15*
X155702000Y-59202000D03*
%TD*%
D14*
%TO.C,J11*%
X118618000Y-121686000D03*
D15*
X121158000Y-121686000D03*
%TD*%
D14*
%TO.C,J11*%
X84074000Y-71648000D03*
D15*
X86614000Y-71648000D03*
%TD*%
D14*
%TO.C,J14*%
X101346000Y-59202000D03*
D15*
X103886000Y-59202000D03*
%TD*%
D14*
%TO.C,J12*%
X84074000Y-134132000D03*
D15*
X86614000Y-134132000D03*
%TD*%
D10*
%TO.C,J1*%
X135180000Y-61319000D03*
D11*
X139140000Y-61319000D03*
%TD*%
D16*
%TO.C,J5*%
X127762000Y-116073000D03*
D17*
X127762000Y-118613000D03*
X127762000Y-121153000D03*
X127762000Y-123693000D03*
X127762000Y-126233000D03*
X127762000Y-128773000D03*
X127762000Y-131313000D03*
X127762000Y-133853000D03*
X127762000Y-136393000D03*
X127762000Y-138933000D03*
X127762000Y-141473000D03*
X127762000Y-144013000D03*
%TD*%
D10*
%TO.C,J2*%
X152452000Y-73765000D03*
D11*
X156412000Y-73765000D03*
%TD*%
D10*
%TO.C,J4*%
X135180000Y-148695000D03*
D11*
X139140000Y-148695000D03*
%TD*%
D14*
%TO.C,J13*%
X101346000Y-96540000D03*
D15*
X103886000Y-96540000D03*
%TD*%
D16*
%TO.C,J5*%
X162306000Y-116073000D03*
D17*
X162306000Y-118613000D03*
X162306000Y-121153000D03*
X162306000Y-123693000D03*
X162306000Y-126233000D03*
X162306000Y-128773000D03*
X162306000Y-131313000D03*
X162306000Y-133853000D03*
X162306000Y-136393000D03*
X162306000Y-138933000D03*
X162306000Y-141473000D03*
X162306000Y-144013000D03*
%TD*%
D14*
%TO.C,J11*%
X135890000Y-71648000D03*
D15*
X138430000Y-71648000D03*
%TD*%
D14*
%TO.C,J14*%
X135890000Y-109240000D03*
D15*
X138430000Y-109240000D03*
%TD*%
D10*
%TO.C,J4*%
X152452000Y-148695000D03*
D11*
X156412000Y-148695000D03*
%TD*%
D13*
%TO.C,H1*%
X93218000Y-149098000D03*
%TD*%
D10*
%TO.C,J4*%
X83364000Y-148695000D03*
D11*
X87324000Y-148695000D03*
%TD*%
D10*
%TO.C,J4*%
X100636000Y-98657000D03*
D11*
X104596000Y-98657000D03*
%TD*%
D10*
%TO.C,J3*%
X135180000Y-136249000D03*
D11*
X139140000Y-136249000D03*
%TD*%
D16*
%TO.C,J5*%
X110490000Y-66035000D03*
D17*
X110490000Y-68575000D03*
X110490000Y-71115000D03*
X110490000Y-73655000D03*
X110490000Y-76195000D03*
X110490000Y-78735000D03*
X110490000Y-81275000D03*
X110490000Y-83815000D03*
X110490000Y-86355000D03*
X110490000Y-88895000D03*
X110490000Y-91435000D03*
X110490000Y-93975000D03*
%TD*%
D14*
%TO.C,J13*%
X84074000Y-96540000D03*
D15*
X86614000Y-96540000D03*
%TD*%
D13*
%TO.C,H2*%
X162306000Y-110998000D03*
%TD*%
D14*
%TO.C,J11*%
X135890000Y-121686000D03*
D15*
X138430000Y-121686000D03*
%TD*%
D13*
%TO.C,H2*%
X93218000Y-60960000D03*
%TD*%
D14*
%TO.C,J12*%
X101346000Y-84094000D03*
D15*
X103886000Y-84094000D03*
%TD*%
D14*
%TO.C,J12*%
X118618000Y-134132000D03*
D15*
X121158000Y-134132000D03*
%TD*%
D14*
%TO.C,J12*%
X153162000Y-134132000D03*
D15*
X155702000Y-134132000D03*
%TD*%
D13*
%TO.C,H2*%
X127762000Y-60960000D03*
%TD*%
D14*
%TO.C,J13*%
X118618000Y-96540000D03*
D15*
X121158000Y-96540000D03*
%TD*%
D13*
%TO.C,H2*%
X127762000Y-110998000D03*
%TD*%
%TO.C,H2*%
X162306000Y-60960000D03*
%TD*%
D14*
%TO.C,J13*%
X135890000Y-146578000D03*
D15*
X138430000Y-146578000D03*
%TD*%
D13*
%TO.C,H1*%
X110490000Y-99060000D03*
%TD*%
D10*
%TO.C,J1*%
X100636000Y-111357000D03*
D11*
X104596000Y-111357000D03*
%TD*%
D14*
%TO.C,J12*%
X101346000Y-134132000D03*
D15*
X103886000Y-134132000D03*
%TD*%
D10*
%TO.C,J1*%
X83364000Y-111357000D03*
D11*
X87324000Y-111357000D03*
%TD*%
D13*
%TO.C,H1*%
X145034000Y-149098000D03*
%TD*%
D14*
%TO.C,J14*%
X101346000Y-109240000D03*
D15*
X103886000Y-109240000D03*
%TD*%
D14*
%TO.C,J13*%
X101346000Y-146578000D03*
D15*
X103886000Y-146578000D03*
%TD*%
D14*
%TO.C,J13*%
X84074000Y-146578000D03*
D15*
X86614000Y-146578000D03*
%TD*%
D14*
%TO.C,J13*%
X153162000Y-96540000D03*
D15*
X155702000Y-96540000D03*
%TD*%
D13*
%TO.C,H1*%
X93218000Y-99060000D03*
%TD*%
D14*
%TO.C,J11*%
X101346000Y-121686000D03*
D15*
X103886000Y-121686000D03*
%TD*%
D10*
%TO.C,J2*%
X83364000Y-73765000D03*
D11*
X87324000Y-73765000D03*
%TD*%
D14*
%TO.C,J12*%
X153162000Y-84094000D03*
D15*
X155702000Y-84094000D03*
%TD*%
D10*
%TO.C,J2*%
X100636000Y-73765000D03*
D11*
X104596000Y-73765000D03*
%TD*%
D10*
%TO.C,J4*%
X117908000Y-148695000D03*
D11*
X121868000Y-148695000D03*
%TD*%
D14*
%TO.C,J14*%
X118618000Y-109240000D03*
D15*
X121158000Y-109240000D03*
%TD*%
D10*
%TO.C,J4*%
X100636000Y-148695000D03*
D11*
X104596000Y-148695000D03*
%TD*%
D10*
%TO.C,J1*%
X117908000Y-61319000D03*
D11*
X121868000Y-61319000D03*
%TD*%
D10*
%TO.C,J3*%
X100636000Y-136249000D03*
D11*
X104596000Y-136249000D03*
%TD*%
D10*
%TO.C,J3*%
X135180000Y-86211000D03*
D11*
X139140000Y-86211000D03*
%TD*%
D10*
%TO.C,J1*%
X152452000Y-111357000D03*
D11*
X156412000Y-111357000D03*
%TD*%
D16*
%TO.C,J5*%
X145034000Y-116073000D03*
D17*
X145034000Y-118613000D03*
X145034000Y-121153000D03*
X145034000Y-123693000D03*
X145034000Y-126233000D03*
X145034000Y-128773000D03*
X145034000Y-131313000D03*
X145034000Y-133853000D03*
X145034000Y-136393000D03*
X145034000Y-138933000D03*
X145034000Y-141473000D03*
X145034000Y-144013000D03*
%TD*%
D10*
%TO.C,J3*%
X152452000Y-86211000D03*
D11*
X156412000Y-86211000D03*
%TD*%
D13*
%TO.C,H1*%
X162306000Y-149098000D03*
%TD*%
D16*
%TO.C,J5*%
X145034000Y-66035000D03*
D17*
X145034000Y-68575000D03*
X145034000Y-71115000D03*
X145034000Y-73655000D03*
X145034000Y-76195000D03*
X145034000Y-78735000D03*
X145034000Y-81275000D03*
X145034000Y-83815000D03*
X145034000Y-86355000D03*
X145034000Y-88895000D03*
X145034000Y-91435000D03*
X145034000Y-93975000D03*
%TD*%
D10*
%TO.C,J2*%
X117908000Y-123803000D03*
D11*
X121868000Y-123803000D03*
%TD*%
D10*
%TO.C,J3*%
X83364000Y-86211000D03*
D11*
X87324000Y-86211000D03*
%TD*%
D10*
%TO.C,J4*%
X152452000Y-98657000D03*
D11*
X156412000Y-98657000D03*
%TD*%
D10*
%TO.C,J1*%
X135180000Y-111357000D03*
D11*
X139140000Y-111357000D03*
%TD*%
D10*
%TO.C,J3*%
X100636000Y-86211000D03*
D11*
X104596000Y-86211000D03*
%TD*%
D14*
%TO.C,J14*%
X135890000Y-59202000D03*
D15*
X138430000Y-59202000D03*
%TD*%
D14*
%TO.C,J11*%
X101346000Y-71648000D03*
D15*
X103886000Y-71648000D03*
%TD*%
D10*
%TO.C,J1*%
X152452000Y-61319000D03*
D11*
X156412000Y-61319000D03*
%TD*%
D10*
%TO.C,J2*%
X83364000Y-123803000D03*
D11*
X87324000Y-123803000D03*
%TD*%
D10*
%TO.C,J1*%
X117908000Y-111357000D03*
D11*
X121868000Y-111357000D03*
%TD*%
D14*
%TO.C,J13*%
X118618000Y-146578000D03*
D15*
X121158000Y-146578000D03*
%TD*%
D13*
%TO.C,H2*%
X145034000Y-110998000D03*
%TD*%
D10*
%TO.C,J1*%
X100636000Y-61319000D03*
D11*
X104596000Y-61319000D03*
%TD*%
D14*
%TO.C,J13*%
X153162000Y-146578000D03*
D15*
X155702000Y-146578000D03*
%TD*%
D14*
%TO.C,J14*%
X153162000Y-109240000D03*
D15*
X155702000Y-109240000D03*
%TD*%
D13*
%TO.C,H1*%
X127762000Y-149098000D03*
%TD*%
D14*
%TO.C,J12*%
X135890000Y-134132000D03*
D15*
X138430000Y-134132000D03*
%TD*%
D14*
%TO.C,J14*%
X84074000Y-59202000D03*
D15*
X86614000Y-59202000D03*
%TD*%
D14*
%TO.C,J12*%
X135890000Y-84094000D03*
D15*
X138430000Y-84094000D03*
%TD*%
D10*
%TO.C,J4*%
X135180000Y-98657000D03*
D11*
X139140000Y-98657000D03*
%TD*%
D10*
%TO.C,J2*%
X100636000Y-123803000D03*
D11*
X104596000Y-123803000D03*
%TD*%
D14*
%TO.C,J12*%
X118618000Y-84094000D03*
D15*
X121158000Y-84094000D03*
%TD*%
D14*
%TO.C,J12*%
X84074000Y-84094000D03*
D15*
X86614000Y-84094000D03*
%TD*%
D14*
%TO.C,J14*%
X118618000Y-59202000D03*
D15*
X121158000Y-59202000D03*
%TD*%
D10*
%TO.C,J3*%
X83364000Y-136249000D03*
D11*
X87324000Y-136249000D03*
%TD*%
D10*
%TO.C,J3*%
X152452000Y-136249000D03*
D11*
X156412000Y-136249000D03*
%TD*%
D14*
%TO.C,J13*%
X135890000Y-96540000D03*
D15*
X138430000Y-96540000D03*
%TD*%
D10*
%TO.C,J4*%
X117908000Y-98657000D03*
D11*
X121868000Y-98657000D03*
%TD*%
D13*
%TO.C,H2*%
X110490000Y-60960000D03*
%TD*%
%TO.C,H2*%
X110490000Y-110998000D03*
%TD*%
%TO.C,H1*%
X127762000Y-99060000D03*
%TD*%
D14*
%TO.C,J14*%
X84074000Y-109240000D03*
D15*
X86614000Y-109240000D03*
%TD*%
D16*
%TO.C,J5*%
X110490000Y-116073000D03*
D17*
X110490000Y-118613000D03*
X110490000Y-121153000D03*
X110490000Y-123693000D03*
X110490000Y-126233000D03*
X110490000Y-128773000D03*
X110490000Y-131313000D03*
X110490000Y-133853000D03*
X110490000Y-136393000D03*
X110490000Y-138933000D03*
X110490000Y-141473000D03*
X110490000Y-144013000D03*
%TD*%
D10*
%TO.C,J3*%
X117908000Y-86211000D03*
D11*
X121868000Y-86211000D03*
%TD*%
D10*
%TO.C,J2*%
X135180000Y-123803000D03*
D11*
X139140000Y-123803000D03*
%TD*%
D16*
%TO.C,J5*%
X93218000Y-66035000D03*
D17*
X93218000Y-68575000D03*
X93218000Y-71115000D03*
X93218000Y-73655000D03*
X93218000Y-76195000D03*
X93218000Y-78735000D03*
X93218000Y-81275000D03*
X93218000Y-83815000D03*
X93218000Y-86355000D03*
X93218000Y-88895000D03*
X93218000Y-91435000D03*
X93218000Y-93975000D03*
%TD*%
D14*
%TO.C,J11*%
X153162000Y-121686000D03*
D15*
X155702000Y-121686000D03*
%TD*%
D10*
%TO.C,J3*%
X117908000Y-136249000D03*
D11*
X121868000Y-136249000D03*
%TD*%
D16*
%TO.C,J5*%
X162306000Y-66035000D03*
D17*
X162306000Y-68575000D03*
X162306000Y-71115000D03*
X162306000Y-73655000D03*
X162306000Y-76195000D03*
X162306000Y-78735000D03*
X162306000Y-81275000D03*
X162306000Y-83815000D03*
X162306000Y-86355000D03*
X162306000Y-88895000D03*
X162306000Y-91435000D03*
X162306000Y-93975000D03*
%TD*%
D10*
%TO.C,J2*%
X135180000Y-73765000D03*
D11*
X139140000Y-73765000D03*
%TD*%
D14*
%TO.C,J11*%
X153162000Y-71648000D03*
D15*
X155702000Y-71648000D03*
%TD*%
D10*
%TO.C,J4*%
X83364000Y-98657000D03*
D11*
X87324000Y-98657000D03*
%TD*%
D16*
%TO.C,J5*%
X127762000Y-66035000D03*
D17*
X127762000Y-68575000D03*
X127762000Y-71115000D03*
X127762000Y-73655000D03*
X127762000Y-76195000D03*
X127762000Y-78735000D03*
X127762000Y-81275000D03*
X127762000Y-83815000D03*
X127762000Y-86355000D03*
X127762000Y-88895000D03*
X127762000Y-91435000D03*
X127762000Y-93975000D03*
%TD*%
D14*
%TO.C,J11*%
X84074000Y-121686000D03*
D15*
X86614000Y-121686000D03*
%TD*%
D16*
%TO.C,J5*%
X93218000Y-116073000D03*
D17*
X93218000Y-118613000D03*
X93218000Y-121153000D03*
X93218000Y-123693000D03*
X93218000Y-126233000D03*
X93218000Y-128773000D03*
X93218000Y-131313000D03*
X93218000Y-133853000D03*
X93218000Y-136393000D03*
X93218000Y-138933000D03*
X93218000Y-141473000D03*
X93218000Y-144013000D03*
%TD*%
D10*
%TO.C,J2*%
X117908000Y-73765000D03*
D11*
X121868000Y-73765000D03*
%TD*%
D13*
%TO.C,H2*%
X145034000Y-60960000D03*
%TD*%
%TO.C,H1*%
X145034000Y-99060000D03*
%TD*%
%TO.C,H2*%
X93218000Y-110998000D03*
%TD*%
%TO.C,H1*%
X162306000Y-99060000D03*
%TD*%
D10*
%TO.C,J2*%
X152452000Y-123803000D03*
D11*
X156412000Y-123803000D03*
%TD*%
D14*
%TO.C,J11*%
X118618000Y-71648000D03*
D15*
X121158000Y-71648000D03*
%TD*%
M02*
