M48
; DRILL file {KiCad 6.0.4-6f826c9f35~116~ubuntu21.10.1} date Thu 21 Apr 2022 09:53:47 PM CEST
; FORMAT={-:-/ absolute / metric / decimal}
; #@! TF.CreationDate,2022-04-21T21:53:47+02:00
; #@! TF.GenerationSoftware,Kicad,Pcbnew,6.0.4-6f826c9f35~116~ubuntu21.10.1
; #@! TF.FileFunction,MixedPlating,1,2
FMAT,2
METRIC
; #@! TA.AperFunction,Plated,PTH,ComponentDrill
T1C1.000
; #@! TA.AperFunction,Plated,PTH,ComponentDrill
T2C1.190
; #@! TA.AperFunction,Plated,PTH,ComponentDrill
T3C1.700
; #@! TA.AperFunction,NonPlated,NPTH,ComponentDrill
T4C0.500
; #@! TA.AperFunction,NonPlated,NPTH,ComponentDrill
T5C3.200
%
G90
G05
T1
X93.218Y-66.035
X93.218Y-68.575
X93.218Y-71.115
X93.218Y-73.655
X93.218Y-76.195
X93.218Y-78.735
X93.218Y-81.275
X93.218Y-83.815
X93.218Y-86.355
X93.218Y-88.895
X93.218Y-91.435
X93.218Y-93.975
X93.218Y-116.073
X93.218Y-118.613
X93.218Y-121.153
X93.218Y-123.693
X93.218Y-126.233
X93.218Y-128.773
X93.218Y-131.313
X93.218Y-133.853
X93.218Y-136.393
X93.218Y-138.933
X93.218Y-141.473
X93.218Y-144.013
X110.49Y-66.035
X110.49Y-68.575
X110.49Y-71.115
X110.49Y-73.655
X110.49Y-76.195
X110.49Y-78.735
X110.49Y-81.275
X110.49Y-83.815
X110.49Y-86.355
X110.49Y-88.895
X110.49Y-91.435
X110.49Y-93.975
X110.49Y-116.073
X110.49Y-118.613
X110.49Y-121.153
X110.49Y-123.693
X110.49Y-126.233
X110.49Y-128.773
X110.49Y-131.313
X110.49Y-133.853
X110.49Y-136.393
X110.49Y-138.933
X110.49Y-141.473
X110.49Y-144.013
X127.762Y-66.035
X127.762Y-68.575
X127.762Y-71.115
X127.762Y-73.655
X127.762Y-76.195
X127.762Y-78.735
X127.762Y-81.275
X127.762Y-83.815
X127.762Y-86.355
X127.762Y-88.895
X127.762Y-91.435
X127.762Y-93.975
X127.762Y-116.073
X127.762Y-118.613
X127.762Y-121.153
X127.762Y-123.693
X127.762Y-126.233
X127.762Y-128.773
X127.762Y-131.313
X127.762Y-133.853
X127.762Y-136.393
X127.762Y-138.933
X127.762Y-141.473
X127.762Y-144.013
X145.034Y-66.035
X145.034Y-68.575
X145.034Y-71.115
X145.034Y-73.655
X145.034Y-76.195
X145.034Y-78.735
X145.034Y-81.275
X145.034Y-83.815
X145.034Y-86.355
X145.034Y-88.895
X145.034Y-91.435
X145.034Y-93.975
X145.034Y-116.073
X145.034Y-118.613
X145.034Y-121.153
X145.034Y-123.693
X145.034Y-126.233
X145.034Y-128.773
X145.034Y-131.313
X145.034Y-133.853
X145.034Y-136.393
X145.034Y-138.933
X145.034Y-141.473
X145.034Y-144.013
X162.306Y-66.035
X162.306Y-68.575
X162.306Y-71.115
X162.306Y-73.655
X162.306Y-76.195
X162.306Y-78.735
X162.306Y-81.275
X162.306Y-83.815
X162.306Y-86.355
X162.306Y-88.895
X162.306Y-91.435
X162.306Y-93.975
X162.306Y-116.073
X162.306Y-118.613
X162.306Y-121.153
X162.306Y-123.693
X162.306Y-126.233
X162.306Y-128.773
X162.306Y-131.313
X162.306Y-133.853
X162.306Y-136.393
X162.306Y-138.933
X162.306Y-141.473
X162.306Y-144.013
T2
X84.074Y-59.202
X84.074Y-71.648
X84.074Y-84.094
X84.074Y-96.54
X84.074Y-109.24
X84.074Y-121.686
X84.074Y-134.132
X84.074Y-146.578
X86.614Y-59.202
X86.614Y-71.648
X86.614Y-84.094
X86.614Y-96.54
X86.614Y-109.24
X86.614Y-121.686
X86.614Y-134.132
X86.614Y-146.578
X101.346Y-59.202
X101.346Y-71.648
X101.346Y-84.094
X101.346Y-96.54
X101.346Y-109.24
X101.346Y-121.686
X101.346Y-134.132
X101.346Y-146.578
X103.886Y-59.202
X103.886Y-71.648
X103.886Y-84.094
X103.886Y-96.54
X103.886Y-109.24
X103.886Y-121.686
X103.886Y-134.132
X103.886Y-146.578
X118.618Y-59.202
X118.618Y-71.648
X118.618Y-84.094
X118.618Y-96.54
X118.618Y-109.24
X118.618Y-121.686
X118.618Y-134.132
X118.618Y-146.578
X121.158Y-59.202
X121.158Y-71.648
X121.158Y-84.094
X121.158Y-96.54
X121.158Y-109.24
X121.158Y-121.686
X121.158Y-134.132
X121.158Y-146.578
X135.89Y-59.202
X135.89Y-71.648
X135.89Y-84.094
X135.89Y-96.54
X135.89Y-109.24
X135.89Y-121.686
X135.89Y-134.132
X135.89Y-146.578
X138.43Y-59.202
X138.43Y-71.648
X138.43Y-84.094
X138.43Y-96.54
X138.43Y-109.24
X138.43Y-121.686
X138.43Y-134.132
X138.43Y-146.578
X153.162Y-59.202
X153.162Y-71.648
X153.162Y-84.094
X153.162Y-96.54
X153.162Y-109.24
X153.162Y-121.686
X153.162Y-134.132
X153.162Y-146.578
X155.702Y-59.202
X155.702Y-71.648
X155.702Y-84.094
X155.702Y-96.54
X155.702Y-109.24
X155.702Y-121.686
X155.702Y-134.132
X155.702Y-146.578
T3
X83.364Y-61.319
X83.364Y-73.765
X83.364Y-86.211
X83.364Y-98.657
X83.364Y-111.357
X83.364Y-123.803
X83.364Y-136.249
X83.364Y-148.695
X87.324Y-61.319
X87.324Y-73.765
X87.324Y-86.211
X87.324Y-98.657
X87.324Y-111.357
X87.324Y-123.803
X87.324Y-136.249
X87.324Y-148.695
X100.636Y-61.319
X100.636Y-73.765
X100.636Y-86.211
X100.636Y-98.657
X100.636Y-111.357
X100.636Y-123.803
X100.636Y-136.249
X100.636Y-148.695
X104.596Y-61.319
X104.596Y-73.765
X104.596Y-86.211
X104.596Y-98.657
X104.596Y-111.357
X104.596Y-123.803
X104.596Y-136.249
X104.596Y-148.695
X117.908Y-61.319
X117.908Y-73.765
X117.908Y-86.211
X117.908Y-98.657
X117.908Y-111.357
X117.908Y-123.803
X117.908Y-136.249
X117.908Y-148.695
X121.868Y-61.319
X121.868Y-73.765
X121.868Y-86.211
X121.868Y-98.657
X121.868Y-111.357
X121.868Y-123.803
X121.868Y-136.249
X121.868Y-148.695
X135.18Y-61.319
X135.18Y-73.765
X135.18Y-86.211
X135.18Y-98.657
X135.18Y-111.357
X135.18Y-123.803
X135.18Y-136.249
X135.18Y-148.695
X139.14Y-61.319
X139.14Y-73.765
X139.14Y-86.211
X139.14Y-98.657
X139.14Y-111.357
X139.14Y-123.803
X139.14Y-136.249
X139.14Y-148.695
X152.452Y-61.319
X152.452Y-73.765
X152.452Y-86.211
X152.452Y-98.657
X152.452Y-111.357
X152.452Y-123.803
X152.452Y-136.249
X152.452Y-148.695
X156.412Y-61.319
X156.412Y-73.765
X156.412Y-86.211
X156.412Y-98.657
X156.412Y-111.357
X156.412Y-123.803
X156.412Y-136.249
X156.412Y-148.695
T4
X87.896Y-104.152
X87.896Y-105.652
X88.646Y-104.152
X88.646Y-105.652
X89.396Y-104.152
X89.396Y-105.652
X96.532Y-66.56
X96.532Y-67.31
X96.532Y-68.06
X96.532Y-92.214
X96.532Y-92.964
X96.532Y-93.714
X96.532Y-116.598
X96.532Y-117.348
X96.532Y-118.098
X96.532Y-142.252
X96.532Y-143.002
X96.532Y-143.752
X98.032Y-66.56
X98.032Y-67.31
X98.032Y-68.06
X98.032Y-92.214
X98.032Y-92.964
X98.032Y-93.714
X98.032Y-116.598
X98.032Y-117.348
X98.032Y-118.098
X98.032Y-142.252
X98.032Y-143.002
X98.032Y-143.752
X105.168Y-104.152
X105.168Y-105.652
X105.918Y-104.152
X105.918Y-105.652
X106.668Y-104.152
X106.668Y-105.652
X113.804Y-66.56
X113.804Y-67.31
X113.804Y-68.06
X113.804Y-92.214
X113.804Y-92.964
X113.804Y-93.714
X113.804Y-116.598
X113.804Y-117.348
X113.804Y-118.098
X113.804Y-142.252
X113.804Y-143.002
X113.804Y-143.752
X115.304Y-66.56
X115.304Y-67.31
X115.304Y-68.06
X115.304Y-92.214
X115.304Y-92.964
X115.304Y-93.714
X115.304Y-116.598
X115.304Y-117.348
X115.304Y-118.098
X115.304Y-142.252
X115.304Y-143.002
X115.304Y-143.752
X122.44Y-104.152
X122.44Y-105.652
X123.19Y-104.152
X123.19Y-105.652
X123.94Y-104.152
X123.94Y-105.652
X131.076Y-66.56
X131.076Y-67.31
X131.076Y-68.06
X131.076Y-92.214
X131.076Y-92.964
X131.076Y-93.714
X131.076Y-116.598
X131.076Y-117.348
X131.076Y-118.098
X131.076Y-142.252
X131.076Y-143.002
X131.076Y-143.752
X132.576Y-66.56
X132.576Y-67.31
X132.576Y-68.06
X132.576Y-92.214
X132.576Y-92.964
X132.576Y-93.714
X132.576Y-116.598
X132.576Y-117.348
X132.576Y-118.098
X132.576Y-142.252
X132.576Y-143.002
X132.576Y-143.752
X139.712Y-104.152
X139.712Y-105.652
X140.462Y-104.152
X140.462Y-105.652
X141.212Y-104.152
X141.212Y-105.652
X148.348Y-66.56
X148.348Y-67.31
X148.348Y-68.06
X148.348Y-92.214
X148.348Y-92.964
X148.348Y-93.714
X148.348Y-116.598
X148.348Y-117.348
X148.348Y-118.098
X148.348Y-142.252
X148.348Y-143.002
X148.348Y-143.752
X149.848Y-66.56
X149.848Y-67.31
X149.848Y-68.06
X149.848Y-92.214
X149.848Y-92.964
X149.848Y-93.714
X149.848Y-116.598
X149.848Y-117.348
X149.848Y-118.098
X149.848Y-142.252
X149.848Y-143.002
X149.848Y-143.752
X156.984Y-104.152
X156.984Y-105.652
X157.734Y-104.152
X157.734Y-105.652
X158.484Y-104.152
X158.484Y-105.652
T5
X93.218Y-60.96
X93.218Y-99.06
X93.218Y-110.998
X93.218Y-149.098
X110.49Y-60.96
X110.49Y-99.06
X110.49Y-110.998
X110.49Y-149.098
X127.762Y-60.96
X127.762Y-99.06
X127.762Y-110.998
X127.762Y-149.098
X145.034Y-60.96
X145.034Y-99.06
X145.034Y-110.998
X145.034Y-149.098
X162.306Y-60.96
X162.306Y-99.06
X162.306Y-110.998
X162.306Y-149.098
T0
M30
