%TF.GenerationSoftware,KiCad,Pcbnew,6.0.4-6f826c9f35~116~ubuntu21.10.1*%
%TF.CreationDate,2022-04-21T21:53:43+02:00*%
%TF.ProjectId,Carte_multiprise,43617274-655f-46d7-956c-746970726973,rev?*%
%TF.SameCoordinates,Original*%
%TF.FileFunction,Legend,Bot*%
%TF.FilePolarity,Positive*%
%FSLAX46Y46*%
G04 Gerber Fmt 4.6, Leading zero omitted, Abs format (unit mm)*
G04 Created by KiCad (PCBNEW 6.0.4-6f826c9f35~116~ubuntu21.10.1) date 2022-04-21 21:53:43*
%MOMM*%
%LPD*%
G01*
G04 APERTURE LIST*
%ADD10C,0.200000*%
G04 APERTURE END LIST*
D10*
X122794380Y-127500380D02*
X121794380Y-127500380D01*
X121794380Y-127881333D01*
X121842000Y-127976571D01*
X121889619Y-128024190D01*
X121984857Y-128071809D01*
X122127714Y-128071809D01*
X122222952Y-128024190D01*
X122270571Y-127976571D01*
X122318190Y-127881333D01*
X122318190Y-127500380D01*
X122794380Y-128643238D02*
X122746761Y-128548000D01*
X122699142Y-128500380D01*
X122603904Y-128452761D01*
X122318190Y-128452761D01*
X122222952Y-128500380D01*
X122175333Y-128548000D01*
X122127714Y-128643238D01*
X122127714Y-128786095D01*
X122175333Y-128881333D01*
X122222952Y-128928952D01*
X122318190Y-128976571D01*
X122603904Y-128976571D01*
X122699142Y-128928952D01*
X122746761Y-128881333D01*
X122794380Y-128786095D01*
X122794380Y-128643238D01*
X122794380Y-129405142D02*
X121794380Y-129405142D01*
X122413428Y-129500380D02*
X122794380Y-129786095D01*
X122127714Y-129786095D02*
X122508666Y-129405142D01*
X122794380Y-130214666D02*
X122127714Y-130214666D01*
X121794380Y-130214666D02*
X121842000Y-130167047D01*
X121889619Y-130214666D01*
X121842000Y-130262285D01*
X121794380Y-130214666D01*
X121889619Y-130214666D01*
X122794380Y-130690857D02*
X121794380Y-130690857D01*
X122175333Y-130690857D02*
X122127714Y-130786095D01*
X122127714Y-130976571D01*
X122175333Y-131071809D01*
X122222952Y-131119428D01*
X122318190Y-131167047D01*
X122603904Y-131167047D01*
X122699142Y-131119428D01*
X122746761Y-131071809D01*
X122794380Y-130976571D01*
X122794380Y-130786095D01*
X122746761Y-130690857D01*
X122794380Y-131738476D02*
X122746761Y-131643238D01*
X122699142Y-131595619D01*
X122603904Y-131548000D01*
X122318190Y-131548000D01*
X122222952Y-131595619D01*
X122175333Y-131643238D01*
X122127714Y-131738476D01*
X122127714Y-131881333D01*
X122175333Y-131976571D01*
X122222952Y-132024190D01*
X122318190Y-132071809D01*
X122603904Y-132071809D01*
X122699142Y-132024190D01*
X122746761Y-131976571D01*
X122794380Y-131881333D01*
X122794380Y-131738476D01*
X122127714Y-132357523D02*
X122127714Y-132738476D01*
X121794380Y-132500380D02*
X122651523Y-132500380D01*
X122746761Y-132548000D01*
X122794380Y-132643238D01*
X122794380Y-132738476D01*
X124404380Y-126548000D02*
X123737714Y-126548000D01*
X123832952Y-126548000D02*
X123785333Y-126595619D01*
X123737714Y-126690857D01*
X123737714Y-126833714D01*
X123785333Y-126928952D01*
X123880571Y-126976571D01*
X124404380Y-126976571D01*
X123880571Y-126976571D02*
X123785333Y-127024190D01*
X123737714Y-127119428D01*
X123737714Y-127262285D01*
X123785333Y-127357523D01*
X123880571Y-127405142D01*
X124404380Y-127405142D01*
X123737714Y-128309904D02*
X124404380Y-128309904D01*
X123737714Y-127881333D02*
X124261523Y-127881333D01*
X124356761Y-127928952D01*
X124404380Y-128024190D01*
X124404380Y-128167047D01*
X124356761Y-128262285D01*
X124309142Y-128309904D01*
X124404380Y-128928952D02*
X124356761Y-128833714D01*
X124261523Y-128786095D01*
X123404380Y-128786095D01*
X123737714Y-129167047D02*
X123737714Y-129548000D01*
X123404380Y-129309904D02*
X124261523Y-129309904D01*
X124356761Y-129357523D01*
X124404380Y-129452761D01*
X124404380Y-129548000D01*
X124404380Y-129881333D02*
X123737714Y-129881333D01*
X123404380Y-129881333D02*
X123452000Y-129833714D01*
X123499619Y-129881333D01*
X123452000Y-129928952D01*
X123404380Y-129881333D01*
X123499619Y-129881333D01*
X123737714Y-130357523D02*
X124737714Y-130357523D01*
X123785333Y-130357523D02*
X123737714Y-130452761D01*
X123737714Y-130643238D01*
X123785333Y-130738476D01*
X123832952Y-130786095D01*
X123928190Y-130833714D01*
X124213904Y-130833714D01*
X124309142Y-130786095D01*
X124356761Y-130738476D01*
X124404380Y-130643238D01*
X124404380Y-130452761D01*
X124356761Y-130357523D01*
X124404380Y-131262285D02*
X123737714Y-131262285D01*
X123928190Y-131262285D02*
X123832952Y-131309904D01*
X123785333Y-131357523D01*
X123737714Y-131452761D01*
X123737714Y-131548000D01*
X124404380Y-131881333D02*
X123737714Y-131881333D01*
X123404380Y-131881333D02*
X123452000Y-131833714D01*
X123499619Y-131881333D01*
X123452000Y-131928952D01*
X123404380Y-131881333D01*
X123499619Y-131881333D01*
X124356761Y-132309904D02*
X124404380Y-132405142D01*
X124404380Y-132595619D01*
X124356761Y-132690857D01*
X124261523Y-132738476D01*
X124213904Y-132738476D01*
X124118666Y-132690857D01*
X124071047Y-132595619D01*
X124071047Y-132452761D01*
X124023428Y-132357523D01*
X123928190Y-132309904D01*
X123880571Y-132309904D01*
X123785333Y-132357523D01*
X123737714Y-132452761D01*
X123737714Y-132595619D01*
X123785333Y-132690857D01*
X124356761Y-133548000D02*
X124404380Y-133452761D01*
X124404380Y-133262285D01*
X124356761Y-133167047D01*
X124261523Y-133119428D01*
X123880571Y-133119428D01*
X123785333Y-133167047D01*
X123737714Y-133262285D01*
X123737714Y-133452761D01*
X123785333Y-133548000D01*
X123880571Y-133595619D01*
X123975809Y-133595619D01*
X124071047Y-133119428D01*
X125014380Y-123762285D02*
X126014380Y-124095619D01*
X125014380Y-124428952D01*
X126014380Y-125286095D02*
X126014380Y-124714666D01*
X126014380Y-125000380D02*
X125014380Y-125000380D01*
X125157238Y-124905142D01*
X125252476Y-124809904D01*
X125300095Y-124714666D01*
X125919142Y-125714666D02*
X125966761Y-125762285D01*
X126014380Y-125714666D01*
X125966761Y-125667047D01*
X125919142Y-125714666D01*
X126014380Y-125714666D01*
X125014380Y-126381333D02*
X125014380Y-126476571D01*
X125062000Y-126571809D01*
X125109619Y-126619428D01*
X125204857Y-126667047D01*
X125395333Y-126714666D01*
X125633428Y-126714666D01*
X125823904Y-126667047D01*
X125919142Y-126619428D01*
X125966761Y-126571809D01*
X126014380Y-126476571D01*
X126014380Y-126381333D01*
X125966761Y-126286095D01*
X125919142Y-126238476D01*
X125823904Y-126190857D01*
X125633428Y-126143238D01*
X125395333Y-126143238D01*
X125204857Y-126190857D01*
X125109619Y-126238476D01*
X125062000Y-126286095D01*
X125014380Y-126381333D01*
X125633428Y-127905142D02*
X125633428Y-128667047D01*
X125014380Y-130095619D02*
X125014380Y-130190857D01*
X125062000Y-130286095D01*
X125109619Y-130333714D01*
X125204857Y-130381333D01*
X125395333Y-130428952D01*
X125633428Y-130428952D01*
X125823904Y-130381333D01*
X125919142Y-130333714D01*
X125966761Y-130286095D01*
X126014380Y-130190857D01*
X126014380Y-130095619D01*
X125966761Y-130000380D01*
X125919142Y-129952761D01*
X125823904Y-129905142D01*
X125633428Y-129857523D01*
X125395333Y-129857523D01*
X125204857Y-129905142D01*
X125109619Y-129952761D01*
X125062000Y-130000380D01*
X125014380Y-130095619D01*
X125347714Y-131286095D02*
X126014380Y-131286095D01*
X124966761Y-131048000D02*
X125681047Y-130809904D01*
X125681047Y-131428952D01*
X124966761Y-132524190D02*
X126252476Y-131667047D01*
X125109619Y-132809904D02*
X125062000Y-132857523D01*
X125014380Y-132952761D01*
X125014380Y-133190857D01*
X125062000Y-133286095D01*
X125109619Y-133333714D01*
X125204857Y-133381333D01*
X125300095Y-133381333D01*
X125442952Y-133333714D01*
X126014380Y-132762285D01*
X126014380Y-133381333D01*
X125014380Y-134000380D02*
X125014380Y-134095619D01*
X125062000Y-134190857D01*
X125109619Y-134238476D01*
X125204857Y-134286095D01*
X125395333Y-134333714D01*
X125633428Y-134333714D01*
X125823904Y-134286095D01*
X125919142Y-134238476D01*
X125966761Y-134190857D01*
X126014380Y-134095619D01*
X126014380Y-134000380D01*
X125966761Y-133905142D01*
X125919142Y-133857523D01*
X125823904Y-133809904D01*
X125633428Y-133762285D01*
X125395333Y-133762285D01*
X125204857Y-133809904D01*
X125109619Y-133857523D01*
X125062000Y-133905142D01*
X125014380Y-134000380D01*
X125109619Y-134714666D02*
X125062000Y-134762285D01*
X125014380Y-134857523D01*
X125014380Y-135095619D01*
X125062000Y-135190857D01*
X125109619Y-135238476D01*
X125204857Y-135286095D01*
X125300095Y-135286095D01*
X125442952Y-135238476D01*
X126014380Y-134667047D01*
X126014380Y-135286095D01*
X125109619Y-135667047D02*
X125062000Y-135714666D01*
X125014380Y-135809904D01*
X125014380Y-136048000D01*
X125062000Y-136143238D01*
X125109619Y-136190857D01*
X125204857Y-136238476D01*
X125300095Y-136238476D01*
X125442952Y-136190857D01*
X126014380Y-135619428D01*
X126014380Y-136238476D01*
X122794380Y-77462380D02*
X121794380Y-77462380D01*
X121794380Y-77843333D01*
X121842000Y-77938571D01*
X121889619Y-77986190D01*
X121984857Y-78033809D01*
X122127714Y-78033809D01*
X122222952Y-77986190D01*
X122270571Y-77938571D01*
X122318190Y-77843333D01*
X122318190Y-77462380D01*
X122794380Y-78605238D02*
X122746761Y-78510000D01*
X122699142Y-78462380D01*
X122603904Y-78414761D01*
X122318190Y-78414761D01*
X122222952Y-78462380D01*
X122175333Y-78510000D01*
X122127714Y-78605238D01*
X122127714Y-78748095D01*
X122175333Y-78843333D01*
X122222952Y-78890952D01*
X122318190Y-78938571D01*
X122603904Y-78938571D01*
X122699142Y-78890952D01*
X122746761Y-78843333D01*
X122794380Y-78748095D01*
X122794380Y-78605238D01*
X122794380Y-79367142D02*
X121794380Y-79367142D01*
X122413428Y-79462380D02*
X122794380Y-79748095D01*
X122127714Y-79748095D02*
X122508666Y-79367142D01*
X122794380Y-80176666D02*
X122127714Y-80176666D01*
X121794380Y-80176666D02*
X121842000Y-80129047D01*
X121889619Y-80176666D01*
X121842000Y-80224285D01*
X121794380Y-80176666D01*
X121889619Y-80176666D01*
X122794380Y-80652857D02*
X121794380Y-80652857D01*
X122175333Y-80652857D02*
X122127714Y-80748095D01*
X122127714Y-80938571D01*
X122175333Y-81033809D01*
X122222952Y-81081428D01*
X122318190Y-81129047D01*
X122603904Y-81129047D01*
X122699142Y-81081428D01*
X122746761Y-81033809D01*
X122794380Y-80938571D01*
X122794380Y-80748095D01*
X122746761Y-80652857D01*
X122794380Y-81700476D02*
X122746761Y-81605238D01*
X122699142Y-81557619D01*
X122603904Y-81510000D01*
X122318190Y-81510000D01*
X122222952Y-81557619D01*
X122175333Y-81605238D01*
X122127714Y-81700476D01*
X122127714Y-81843333D01*
X122175333Y-81938571D01*
X122222952Y-81986190D01*
X122318190Y-82033809D01*
X122603904Y-82033809D01*
X122699142Y-81986190D01*
X122746761Y-81938571D01*
X122794380Y-81843333D01*
X122794380Y-81700476D01*
X122127714Y-82319523D02*
X122127714Y-82700476D01*
X121794380Y-82462380D02*
X122651523Y-82462380D01*
X122746761Y-82510000D01*
X122794380Y-82605238D01*
X122794380Y-82700476D01*
X124404380Y-76510000D02*
X123737714Y-76510000D01*
X123832952Y-76510000D02*
X123785333Y-76557619D01*
X123737714Y-76652857D01*
X123737714Y-76795714D01*
X123785333Y-76890952D01*
X123880571Y-76938571D01*
X124404380Y-76938571D01*
X123880571Y-76938571D02*
X123785333Y-76986190D01*
X123737714Y-77081428D01*
X123737714Y-77224285D01*
X123785333Y-77319523D01*
X123880571Y-77367142D01*
X124404380Y-77367142D01*
X123737714Y-78271904D02*
X124404380Y-78271904D01*
X123737714Y-77843333D02*
X124261523Y-77843333D01*
X124356761Y-77890952D01*
X124404380Y-77986190D01*
X124404380Y-78129047D01*
X124356761Y-78224285D01*
X124309142Y-78271904D01*
X124404380Y-78890952D02*
X124356761Y-78795714D01*
X124261523Y-78748095D01*
X123404380Y-78748095D01*
X123737714Y-79129047D02*
X123737714Y-79510000D01*
X123404380Y-79271904D02*
X124261523Y-79271904D01*
X124356761Y-79319523D01*
X124404380Y-79414761D01*
X124404380Y-79510000D01*
X124404380Y-79843333D02*
X123737714Y-79843333D01*
X123404380Y-79843333D02*
X123452000Y-79795714D01*
X123499619Y-79843333D01*
X123452000Y-79890952D01*
X123404380Y-79843333D01*
X123499619Y-79843333D01*
X123737714Y-80319523D02*
X124737714Y-80319523D01*
X123785333Y-80319523D02*
X123737714Y-80414761D01*
X123737714Y-80605238D01*
X123785333Y-80700476D01*
X123832952Y-80748095D01*
X123928190Y-80795714D01*
X124213904Y-80795714D01*
X124309142Y-80748095D01*
X124356761Y-80700476D01*
X124404380Y-80605238D01*
X124404380Y-80414761D01*
X124356761Y-80319523D01*
X124404380Y-81224285D02*
X123737714Y-81224285D01*
X123928190Y-81224285D02*
X123832952Y-81271904D01*
X123785333Y-81319523D01*
X123737714Y-81414761D01*
X123737714Y-81510000D01*
X124404380Y-81843333D02*
X123737714Y-81843333D01*
X123404380Y-81843333D02*
X123452000Y-81795714D01*
X123499619Y-81843333D01*
X123452000Y-81890952D01*
X123404380Y-81843333D01*
X123499619Y-81843333D01*
X124356761Y-82271904D02*
X124404380Y-82367142D01*
X124404380Y-82557619D01*
X124356761Y-82652857D01*
X124261523Y-82700476D01*
X124213904Y-82700476D01*
X124118666Y-82652857D01*
X124071047Y-82557619D01*
X124071047Y-82414761D01*
X124023428Y-82319523D01*
X123928190Y-82271904D01*
X123880571Y-82271904D01*
X123785333Y-82319523D01*
X123737714Y-82414761D01*
X123737714Y-82557619D01*
X123785333Y-82652857D01*
X124356761Y-83510000D02*
X124404380Y-83414761D01*
X124404380Y-83224285D01*
X124356761Y-83129047D01*
X124261523Y-83081428D01*
X123880571Y-83081428D01*
X123785333Y-83129047D01*
X123737714Y-83224285D01*
X123737714Y-83414761D01*
X123785333Y-83510000D01*
X123880571Y-83557619D01*
X123975809Y-83557619D01*
X124071047Y-83081428D01*
X125014380Y-73724285D02*
X126014380Y-74057619D01*
X125014380Y-74390952D01*
X126014380Y-75248095D02*
X126014380Y-74676666D01*
X126014380Y-74962380D02*
X125014380Y-74962380D01*
X125157238Y-74867142D01*
X125252476Y-74771904D01*
X125300095Y-74676666D01*
X125919142Y-75676666D02*
X125966761Y-75724285D01*
X126014380Y-75676666D01*
X125966761Y-75629047D01*
X125919142Y-75676666D01*
X126014380Y-75676666D01*
X125014380Y-76343333D02*
X125014380Y-76438571D01*
X125062000Y-76533809D01*
X125109619Y-76581428D01*
X125204857Y-76629047D01*
X125395333Y-76676666D01*
X125633428Y-76676666D01*
X125823904Y-76629047D01*
X125919142Y-76581428D01*
X125966761Y-76533809D01*
X126014380Y-76438571D01*
X126014380Y-76343333D01*
X125966761Y-76248095D01*
X125919142Y-76200476D01*
X125823904Y-76152857D01*
X125633428Y-76105238D01*
X125395333Y-76105238D01*
X125204857Y-76152857D01*
X125109619Y-76200476D01*
X125062000Y-76248095D01*
X125014380Y-76343333D01*
X125633428Y-77867142D02*
X125633428Y-78629047D01*
X125014380Y-80057619D02*
X125014380Y-80152857D01*
X125062000Y-80248095D01*
X125109619Y-80295714D01*
X125204857Y-80343333D01*
X125395333Y-80390952D01*
X125633428Y-80390952D01*
X125823904Y-80343333D01*
X125919142Y-80295714D01*
X125966761Y-80248095D01*
X126014380Y-80152857D01*
X126014380Y-80057619D01*
X125966761Y-79962380D01*
X125919142Y-79914761D01*
X125823904Y-79867142D01*
X125633428Y-79819523D01*
X125395333Y-79819523D01*
X125204857Y-79867142D01*
X125109619Y-79914761D01*
X125062000Y-79962380D01*
X125014380Y-80057619D01*
X125347714Y-81248095D02*
X126014380Y-81248095D01*
X124966761Y-81010000D02*
X125681047Y-80771904D01*
X125681047Y-81390952D01*
X124966761Y-82486190D02*
X126252476Y-81629047D01*
X125109619Y-82771904D02*
X125062000Y-82819523D01*
X125014380Y-82914761D01*
X125014380Y-83152857D01*
X125062000Y-83248095D01*
X125109619Y-83295714D01*
X125204857Y-83343333D01*
X125300095Y-83343333D01*
X125442952Y-83295714D01*
X126014380Y-82724285D01*
X126014380Y-83343333D01*
X125014380Y-83962380D02*
X125014380Y-84057619D01*
X125062000Y-84152857D01*
X125109619Y-84200476D01*
X125204857Y-84248095D01*
X125395333Y-84295714D01*
X125633428Y-84295714D01*
X125823904Y-84248095D01*
X125919142Y-84200476D01*
X125966761Y-84152857D01*
X126014380Y-84057619D01*
X126014380Y-83962380D01*
X125966761Y-83867142D01*
X125919142Y-83819523D01*
X125823904Y-83771904D01*
X125633428Y-83724285D01*
X125395333Y-83724285D01*
X125204857Y-83771904D01*
X125109619Y-83819523D01*
X125062000Y-83867142D01*
X125014380Y-83962380D01*
X125109619Y-84676666D02*
X125062000Y-84724285D01*
X125014380Y-84819523D01*
X125014380Y-85057619D01*
X125062000Y-85152857D01*
X125109619Y-85200476D01*
X125204857Y-85248095D01*
X125300095Y-85248095D01*
X125442952Y-85200476D01*
X126014380Y-84629047D01*
X126014380Y-85248095D01*
X125109619Y-85629047D02*
X125062000Y-85676666D01*
X125014380Y-85771904D01*
X125014380Y-86010000D01*
X125062000Y-86105238D01*
X125109619Y-86152857D01*
X125204857Y-86200476D01*
X125300095Y-86200476D01*
X125442952Y-86152857D01*
X126014380Y-85581428D01*
X126014380Y-86200476D01*
X88250380Y-77462380D02*
X87250380Y-77462380D01*
X87250380Y-77843333D01*
X87298000Y-77938571D01*
X87345619Y-77986190D01*
X87440857Y-78033809D01*
X87583714Y-78033809D01*
X87678952Y-77986190D01*
X87726571Y-77938571D01*
X87774190Y-77843333D01*
X87774190Y-77462380D01*
X88250380Y-78605238D02*
X88202761Y-78510000D01*
X88155142Y-78462380D01*
X88059904Y-78414761D01*
X87774190Y-78414761D01*
X87678952Y-78462380D01*
X87631333Y-78510000D01*
X87583714Y-78605238D01*
X87583714Y-78748095D01*
X87631333Y-78843333D01*
X87678952Y-78890952D01*
X87774190Y-78938571D01*
X88059904Y-78938571D01*
X88155142Y-78890952D01*
X88202761Y-78843333D01*
X88250380Y-78748095D01*
X88250380Y-78605238D01*
X88250380Y-79367142D02*
X87250380Y-79367142D01*
X87869428Y-79462380D02*
X88250380Y-79748095D01*
X87583714Y-79748095D02*
X87964666Y-79367142D01*
X88250380Y-80176666D02*
X87583714Y-80176666D01*
X87250380Y-80176666D02*
X87298000Y-80129047D01*
X87345619Y-80176666D01*
X87298000Y-80224285D01*
X87250380Y-80176666D01*
X87345619Y-80176666D01*
X88250380Y-80652857D02*
X87250380Y-80652857D01*
X87631333Y-80652857D02*
X87583714Y-80748095D01*
X87583714Y-80938571D01*
X87631333Y-81033809D01*
X87678952Y-81081428D01*
X87774190Y-81129047D01*
X88059904Y-81129047D01*
X88155142Y-81081428D01*
X88202761Y-81033809D01*
X88250380Y-80938571D01*
X88250380Y-80748095D01*
X88202761Y-80652857D01*
X88250380Y-81700476D02*
X88202761Y-81605238D01*
X88155142Y-81557619D01*
X88059904Y-81510000D01*
X87774190Y-81510000D01*
X87678952Y-81557619D01*
X87631333Y-81605238D01*
X87583714Y-81700476D01*
X87583714Y-81843333D01*
X87631333Y-81938571D01*
X87678952Y-81986190D01*
X87774190Y-82033809D01*
X88059904Y-82033809D01*
X88155142Y-81986190D01*
X88202761Y-81938571D01*
X88250380Y-81843333D01*
X88250380Y-81700476D01*
X87583714Y-82319523D02*
X87583714Y-82700476D01*
X87250380Y-82462380D02*
X88107523Y-82462380D01*
X88202761Y-82510000D01*
X88250380Y-82605238D01*
X88250380Y-82700476D01*
X89860380Y-76510000D02*
X89193714Y-76510000D01*
X89288952Y-76510000D02*
X89241333Y-76557619D01*
X89193714Y-76652857D01*
X89193714Y-76795714D01*
X89241333Y-76890952D01*
X89336571Y-76938571D01*
X89860380Y-76938571D01*
X89336571Y-76938571D02*
X89241333Y-76986190D01*
X89193714Y-77081428D01*
X89193714Y-77224285D01*
X89241333Y-77319523D01*
X89336571Y-77367142D01*
X89860380Y-77367142D01*
X89193714Y-78271904D02*
X89860380Y-78271904D01*
X89193714Y-77843333D02*
X89717523Y-77843333D01*
X89812761Y-77890952D01*
X89860380Y-77986190D01*
X89860380Y-78129047D01*
X89812761Y-78224285D01*
X89765142Y-78271904D01*
X89860380Y-78890952D02*
X89812761Y-78795714D01*
X89717523Y-78748095D01*
X88860380Y-78748095D01*
X89193714Y-79129047D02*
X89193714Y-79510000D01*
X88860380Y-79271904D02*
X89717523Y-79271904D01*
X89812761Y-79319523D01*
X89860380Y-79414761D01*
X89860380Y-79510000D01*
X89860380Y-79843333D02*
X89193714Y-79843333D01*
X88860380Y-79843333D02*
X88908000Y-79795714D01*
X88955619Y-79843333D01*
X88908000Y-79890952D01*
X88860380Y-79843333D01*
X88955619Y-79843333D01*
X89193714Y-80319523D02*
X90193714Y-80319523D01*
X89241333Y-80319523D02*
X89193714Y-80414761D01*
X89193714Y-80605238D01*
X89241333Y-80700476D01*
X89288952Y-80748095D01*
X89384190Y-80795714D01*
X89669904Y-80795714D01*
X89765142Y-80748095D01*
X89812761Y-80700476D01*
X89860380Y-80605238D01*
X89860380Y-80414761D01*
X89812761Y-80319523D01*
X89860380Y-81224285D02*
X89193714Y-81224285D01*
X89384190Y-81224285D02*
X89288952Y-81271904D01*
X89241333Y-81319523D01*
X89193714Y-81414761D01*
X89193714Y-81510000D01*
X89860380Y-81843333D02*
X89193714Y-81843333D01*
X88860380Y-81843333D02*
X88908000Y-81795714D01*
X88955619Y-81843333D01*
X88908000Y-81890952D01*
X88860380Y-81843333D01*
X88955619Y-81843333D01*
X89812761Y-82271904D02*
X89860380Y-82367142D01*
X89860380Y-82557619D01*
X89812761Y-82652857D01*
X89717523Y-82700476D01*
X89669904Y-82700476D01*
X89574666Y-82652857D01*
X89527047Y-82557619D01*
X89527047Y-82414761D01*
X89479428Y-82319523D01*
X89384190Y-82271904D01*
X89336571Y-82271904D01*
X89241333Y-82319523D01*
X89193714Y-82414761D01*
X89193714Y-82557619D01*
X89241333Y-82652857D01*
X89812761Y-83510000D02*
X89860380Y-83414761D01*
X89860380Y-83224285D01*
X89812761Y-83129047D01*
X89717523Y-83081428D01*
X89336571Y-83081428D01*
X89241333Y-83129047D01*
X89193714Y-83224285D01*
X89193714Y-83414761D01*
X89241333Y-83510000D01*
X89336571Y-83557619D01*
X89431809Y-83557619D01*
X89527047Y-83081428D01*
X90470380Y-73724285D02*
X91470380Y-74057619D01*
X90470380Y-74390952D01*
X91470380Y-75248095D02*
X91470380Y-74676666D01*
X91470380Y-74962380D02*
X90470380Y-74962380D01*
X90613238Y-74867142D01*
X90708476Y-74771904D01*
X90756095Y-74676666D01*
X91375142Y-75676666D02*
X91422761Y-75724285D01*
X91470380Y-75676666D01*
X91422761Y-75629047D01*
X91375142Y-75676666D01*
X91470380Y-75676666D01*
X90470380Y-76343333D02*
X90470380Y-76438571D01*
X90518000Y-76533809D01*
X90565619Y-76581428D01*
X90660857Y-76629047D01*
X90851333Y-76676666D01*
X91089428Y-76676666D01*
X91279904Y-76629047D01*
X91375142Y-76581428D01*
X91422761Y-76533809D01*
X91470380Y-76438571D01*
X91470380Y-76343333D01*
X91422761Y-76248095D01*
X91375142Y-76200476D01*
X91279904Y-76152857D01*
X91089428Y-76105238D01*
X90851333Y-76105238D01*
X90660857Y-76152857D01*
X90565619Y-76200476D01*
X90518000Y-76248095D01*
X90470380Y-76343333D01*
X91089428Y-77867142D02*
X91089428Y-78629047D01*
X90470380Y-80057619D02*
X90470380Y-80152857D01*
X90518000Y-80248095D01*
X90565619Y-80295714D01*
X90660857Y-80343333D01*
X90851333Y-80390952D01*
X91089428Y-80390952D01*
X91279904Y-80343333D01*
X91375142Y-80295714D01*
X91422761Y-80248095D01*
X91470380Y-80152857D01*
X91470380Y-80057619D01*
X91422761Y-79962380D01*
X91375142Y-79914761D01*
X91279904Y-79867142D01*
X91089428Y-79819523D01*
X90851333Y-79819523D01*
X90660857Y-79867142D01*
X90565619Y-79914761D01*
X90518000Y-79962380D01*
X90470380Y-80057619D01*
X90803714Y-81248095D02*
X91470380Y-81248095D01*
X90422761Y-81010000D02*
X91137047Y-80771904D01*
X91137047Y-81390952D01*
X90422761Y-82486190D02*
X91708476Y-81629047D01*
X90565619Y-82771904D02*
X90518000Y-82819523D01*
X90470380Y-82914761D01*
X90470380Y-83152857D01*
X90518000Y-83248095D01*
X90565619Y-83295714D01*
X90660857Y-83343333D01*
X90756095Y-83343333D01*
X90898952Y-83295714D01*
X91470380Y-82724285D01*
X91470380Y-83343333D01*
X90470380Y-83962380D02*
X90470380Y-84057619D01*
X90518000Y-84152857D01*
X90565619Y-84200476D01*
X90660857Y-84248095D01*
X90851333Y-84295714D01*
X91089428Y-84295714D01*
X91279904Y-84248095D01*
X91375142Y-84200476D01*
X91422761Y-84152857D01*
X91470380Y-84057619D01*
X91470380Y-83962380D01*
X91422761Y-83867142D01*
X91375142Y-83819523D01*
X91279904Y-83771904D01*
X91089428Y-83724285D01*
X90851333Y-83724285D01*
X90660857Y-83771904D01*
X90565619Y-83819523D01*
X90518000Y-83867142D01*
X90470380Y-83962380D01*
X90565619Y-84676666D02*
X90518000Y-84724285D01*
X90470380Y-84819523D01*
X90470380Y-85057619D01*
X90518000Y-85152857D01*
X90565619Y-85200476D01*
X90660857Y-85248095D01*
X90756095Y-85248095D01*
X90898952Y-85200476D01*
X91470380Y-84629047D01*
X91470380Y-85248095D01*
X90565619Y-85629047D02*
X90518000Y-85676666D01*
X90470380Y-85771904D01*
X90470380Y-86010000D01*
X90518000Y-86105238D01*
X90565619Y-86152857D01*
X90660857Y-86200476D01*
X90756095Y-86200476D01*
X90898952Y-86152857D01*
X91470380Y-85581428D01*
X91470380Y-86200476D01*
X157338380Y-127500380D02*
X156338380Y-127500380D01*
X156338380Y-127881333D01*
X156386000Y-127976571D01*
X156433619Y-128024190D01*
X156528857Y-128071809D01*
X156671714Y-128071809D01*
X156766952Y-128024190D01*
X156814571Y-127976571D01*
X156862190Y-127881333D01*
X156862190Y-127500380D01*
X157338380Y-128643238D02*
X157290761Y-128548000D01*
X157243142Y-128500380D01*
X157147904Y-128452761D01*
X156862190Y-128452761D01*
X156766952Y-128500380D01*
X156719333Y-128548000D01*
X156671714Y-128643238D01*
X156671714Y-128786095D01*
X156719333Y-128881333D01*
X156766952Y-128928952D01*
X156862190Y-128976571D01*
X157147904Y-128976571D01*
X157243142Y-128928952D01*
X157290761Y-128881333D01*
X157338380Y-128786095D01*
X157338380Y-128643238D01*
X157338380Y-129405142D02*
X156338380Y-129405142D01*
X156957428Y-129500380D02*
X157338380Y-129786095D01*
X156671714Y-129786095D02*
X157052666Y-129405142D01*
X157338380Y-130214666D02*
X156671714Y-130214666D01*
X156338380Y-130214666D02*
X156386000Y-130167047D01*
X156433619Y-130214666D01*
X156386000Y-130262285D01*
X156338380Y-130214666D01*
X156433619Y-130214666D01*
X157338380Y-130690857D02*
X156338380Y-130690857D01*
X156719333Y-130690857D02*
X156671714Y-130786095D01*
X156671714Y-130976571D01*
X156719333Y-131071809D01*
X156766952Y-131119428D01*
X156862190Y-131167047D01*
X157147904Y-131167047D01*
X157243142Y-131119428D01*
X157290761Y-131071809D01*
X157338380Y-130976571D01*
X157338380Y-130786095D01*
X157290761Y-130690857D01*
X157338380Y-131738476D02*
X157290761Y-131643238D01*
X157243142Y-131595619D01*
X157147904Y-131548000D01*
X156862190Y-131548000D01*
X156766952Y-131595619D01*
X156719333Y-131643238D01*
X156671714Y-131738476D01*
X156671714Y-131881333D01*
X156719333Y-131976571D01*
X156766952Y-132024190D01*
X156862190Y-132071809D01*
X157147904Y-132071809D01*
X157243142Y-132024190D01*
X157290761Y-131976571D01*
X157338380Y-131881333D01*
X157338380Y-131738476D01*
X156671714Y-132357523D02*
X156671714Y-132738476D01*
X156338380Y-132500380D02*
X157195523Y-132500380D01*
X157290761Y-132548000D01*
X157338380Y-132643238D01*
X157338380Y-132738476D01*
X158948380Y-126548000D02*
X158281714Y-126548000D01*
X158376952Y-126548000D02*
X158329333Y-126595619D01*
X158281714Y-126690857D01*
X158281714Y-126833714D01*
X158329333Y-126928952D01*
X158424571Y-126976571D01*
X158948380Y-126976571D01*
X158424571Y-126976571D02*
X158329333Y-127024190D01*
X158281714Y-127119428D01*
X158281714Y-127262285D01*
X158329333Y-127357523D01*
X158424571Y-127405142D01*
X158948380Y-127405142D01*
X158281714Y-128309904D02*
X158948380Y-128309904D01*
X158281714Y-127881333D02*
X158805523Y-127881333D01*
X158900761Y-127928952D01*
X158948380Y-128024190D01*
X158948380Y-128167047D01*
X158900761Y-128262285D01*
X158853142Y-128309904D01*
X158948380Y-128928952D02*
X158900761Y-128833714D01*
X158805523Y-128786095D01*
X157948380Y-128786095D01*
X158281714Y-129167047D02*
X158281714Y-129548000D01*
X157948380Y-129309904D02*
X158805523Y-129309904D01*
X158900761Y-129357523D01*
X158948380Y-129452761D01*
X158948380Y-129548000D01*
X158948380Y-129881333D02*
X158281714Y-129881333D01*
X157948380Y-129881333D02*
X157996000Y-129833714D01*
X158043619Y-129881333D01*
X157996000Y-129928952D01*
X157948380Y-129881333D01*
X158043619Y-129881333D01*
X158281714Y-130357523D02*
X159281714Y-130357523D01*
X158329333Y-130357523D02*
X158281714Y-130452761D01*
X158281714Y-130643238D01*
X158329333Y-130738476D01*
X158376952Y-130786095D01*
X158472190Y-130833714D01*
X158757904Y-130833714D01*
X158853142Y-130786095D01*
X158900761Y-130738476D01*
X158948380Y-130643238D01*
X158948380Y-130452761D01*
X158900761Y-130357523D01*
X158948380Y-131262285D02*
X158281714Y-131262285D01*
X158472190Y-131262285D02*
X158376952Y-131309904D01*
X158329333Y-131357523D01*
X158281714Y-131452761D01*
X158281714Y-131548000D01*
X158948380Y-131881333D02*
X158281714Y-131881333D01*
X157948380Y-131881333D02*
X157996000Y-131833714D01*
X158043619Y-131881333D01*
X157996000Y-131928952D01*
X157948380Y-131881333D01*
X158043619Y-131881333D01*
X158900761Y-132309904D02*
X158948380Y-132405142D01*
X158948380Y-132595619D01*
X158900761Y-132690857D01*
X158805523Y-132738476D01*
X158757904Y-132738476D01*
X158662666Y-132690857D01*
X158615047Y-132595619D01*
X158615047Y-132452761D01*
X158567428Y-132357523D01*
X158472190Y-132309904D01*
X158424571Y-132309904D01*
X158329333Y-132357523D01*
X158281714Y-132452761D01*
X158281714Y-132595619D01*
X158329333Y-132690857D01*
X158900761Y-133548000D02*
X158948380Y-133452761D01*
X158948380Y-133262285D01*
X158900761Y-133167047D01*
X158805523Y-133119428D01*
X158424571Y-133119428D01*
X158329333Y-133167047D01*
X158281714Y-133262285D01*
X158281714Y-133452761D01*
X158329333Y-133548000D01*
X158424571Y-133595619D01*
X158519809Y-133595619D01*
X158615047Y-133119428D01*
X159558380Y-123762285D02*
X160558380Y-124095619D01*
X159558380Y-124428952D01*
X160558380Y-125286095D02*
X160558380Y-124714666D01*
X160558380Y-125000380D02*
X159558380Y-125000380D01*
X159701238Y-124905142D01*
X159796476Y-124809904D01*
X159844095Y-124714666D01*
X160463142Y-125714666D02*
X160510761Y-125762285D01*
X160558380Y-125714666D01*
X160510761Y-125667047D01*
X160463142Y-125714666D01*
X160558380Y-125714666D01*
X159558380Y-126381333D02*
X159558380Y-126476571D01*
X159606000Y-126571809D01*
X159653619Y-126619428D01*
X159748857Y-126667047D01*
X159939333Y-126714666D01*
X160177428Y-126714666D01*
X160367904Y-126667047D01*
X160463142Y-126619428D01*
X160510761Y-126571809D01*
X160558380Y-126476571D01*
X160558380Y-126381333D01*
X160510761Y-126286095D01*
X160463142Y-126238476D01*
X160367904Y-126190857D01*
X160177428Y-126143238D01*
X159939333Y-126143238D01*
X159748857Y-126190857D01*
X159653619Y-126238476D01*
X159606000Y-126286095D01*
X159558380Y-126381333D01*
X160177428Y-127905142D02*
X160177428Y-128667047D01*
X159558380Y-130095619D02*
X159558380Y-130190857D01*
X159606000Y-130286095D01*
X159653619Y-130333714D01*
X159748857Y-130381333D01*
X159939333Y-130428952D01*
X160177428Y-130428952D01*
X160367904Y-130381333D01*
X160463142Y-130333714D01*
X160510761Y-130286095D01*
X160558380Y-130190857D01*
X160558380Y-130095619D01*
X160510761Y-130000380D01*
X160463142Y-129952761D01*
X160367904Y-129905142D01*
X160177428Y-129857523D01*
X159939333Y-129857523D01*
X159748857Y-129905142D01*
X159653619Y-129952761D01*
X159606000Y-130000380D01*
X159558380Y-130095619D01*
X159891714Y-131286095D02*
X160558380Y-131286095D01*
X159510761Y-131048000D02*
X160225047Y-130809904D01*
X160225047Y-131428952D01*
X159510761Y-132524190D02*
X160796476Y-131667047D01*
X159653619Y-132809904D02*
X159606000Y-132857523D01*
X159558380Y-132952761D01*
X159558380Y-133190857D01*
X159606000Y-133286095D01*
X159653619Y-133333714D01*
X159748857Y-133381333D01*
X159844095Y-133381333D01*
X159986952Y-133333714D01*
X160558380Y-132762285D01*
X160558380Y-133381333D01*
X159558380Y-134000380D02*
X159558380Y-134095619D01*
X159606000Y-134190857D01*
X159653619Y-134238476D01*
X159748857Y-134286095D01*
X159939333Y-134333714D01*
X160177428Y-134333714D01*
X160367904Y-134286095D01*
X160463142Y-134238476D01*
X160510761Y-134190857D01*
X160558380Y-134095619D01*
X160558380Y-134000380D01*
X160510761Y-133905142D01*
X160463142Y-133857523D01*
X160367904Y-133809904D01*
X160177428Y-133762285D01*
X159939333Y-133762285D01*
X159748857Y-133809904D01*
X159653619Y-133857523D01*
X159606000Y-133905142D01*
X159558380Y-134000380D01*
X159653619Y-134714666D02*
X159606000Y-134762285D01*
X159558380Y-134857523D01*
X159558380Y-135095619D01*
X159606000Y-135190857D01*
X159653619Y-135238476D01*
X159748857Y-135286095D01*
X159844095Y-135286095D01*
X159986952Y-135238476D01*
X160558380Y-134667047D01*
X160558380Y-135286095D01*
X159653619Y-135667047D02*
X159606000Y-135714666D01*
X159558380Y-135809904D01*
X159558380Y-136048000D01*
X159606000Y-136143238D01*
X159653619Y-136190857D01*
X159748857Y-136238476D01*
X159844095Y-136238476D01*
X159986952Y-136190857D01*
X160558380Y-135619428D01*
X160558380Y-136238476D01*
X157338380Y-77462380D02*
X156338380Y-77462380D01*
X156338380Y-77843333D01*
X156386000Y-77938571D01*
X156433619Y-77986190D01*
X156528857Y-78033809D01*
X156671714Y-78033809D01*
X156766952Y-77986190D01*
X156814571Y-77938571D01*
X156862190Y-77843333D01*
X156862190Y-77462380D01*
X157338380Y-78605238D02*
X157290761Y-78510000D01*
X157243142Y-78462380D01*
X157147904Y-78414761D01*
X156862190Y-78414761D01*
X156766952Y-78462380D01*
X156719333Y-78510000D01*
X156671714Y-78605238D01*
X156671714Y-78748095D01*
X156719333Y-78843333D01*
X156766952Y-78890952D01*
X156862190Y-78938571D01*
X157147904Y-78938571D01*
X157243142Y-78890952D01*
X157290761Y-78843333D01*
X157338380Y-78748095D01*
X157338380Y-78605238D01*
X157338380Y-79367142D02*
X156338380Y-79367142D01*
X156957428Y-79462380D02*
X157338380Y-79748095D01*
X156671714Y-79748095D02*
X157052666Y-79367142D01*
X157338380Y-80176666D02*
X156671714Y-80176666D01*
X156338380Y-80176666D02*
X156386000Y-80129047D01*
X156433619Y-80176666D01*
X156386000Y-80224285D01*
X156338380Y-80176666D01*
X156433619Y-80176666D01*
X157338380Y-80652857D02*
X156338380Y-80652857D01*
X156719333Y-80652857D02*
X156671714Y-80748095D01*
X156671714Y-80938571D01*
X156719333Y-81033809D01*
X156766952Y-81081428D01*
X156862190Y-81129047D01*
X157147904Y-81129047D01*
X157243142Y-81081428D01*
X157290761Y-81033809D01*
X157338380Y-80938571D01*
X157338380Y-80748095D01*
X157290761Y-80652857D01*
X157338380Y-81700476D02*
X157290761Y-81605238D01*
X157243142Y-81557619D01*
X157147904Y-81510000D01*
X156862190Y-81510000D01*
X156766952Y-81557619D01*
X156719333Y-81605238D01*
X156671714Y-81700476D01*
X156671714Y-81843333D01*
X156719333Y-81938571D01*
X156766952Y-81986190D01*
X156862190Y-82033809D01*
X157147904Y-82033809D01*
X157243142Y-81986190D01*
X157290761Y-81938571D01*
X157338380Y-81843333D01*
X157338380Y-81700476D01*
X156671714Y-82319523D02*
X156671714Y-82700476D01*
X156338380Y-82462380D02*
X157195523Y-82462380D01*
X157290761Y-82510000D01*
X157338380Y-82605238D01*
X157338380Y-82700476D01*
X158948380Y-76510000D02*
X158281714Y-76510000D01*
X158376952Y-76510000D02*
X158329333Y-76557619D01*
X158281714Y-76652857D01*
X158281714Y-76795714D01*
X158329333Y-76890952D01*
X158424571Y-76938571D01*
X158948380Y-76938571D01*
X158424571Y-76938571D02*
X158329333Y-76986190D01*
X158281714Y-77081428D01*
X158281714Y-77224285D01*
X158329333Y-77319523D01*
X158424571Y-77367142D01*
X158948380Y-77367142D01*
X158281714Y-78271904D02*
X158948380Y-78271904D01*
X158281714Y-77843333D02*
X158805523Y-77843333D01*
X158900761Y-77890952D01*
X158948380Y-77986190D01*
X158948380Y-78129047D01*
X158900761Y-78224285D01*
X158853142Y-78271904D01*
X158948380Y-78890952D02*
X158900761Y-78795714D01*
X158805523Y-78748095D01*
X157948380Y-78748095D01*
X158281714Y-79129047D02*
X158281714Y-79510000D01*
X157948380Y-79271904D02*
X158805523Y-79271904D01*
X158900761Y-79319523D01*
X158948380Y-79414761D01*
X158948380Y-79510000D01*
X158948380Y-79843333D02*
X158281714Y-79843333D01*
X157948380Y-79843333D02*
X157996000Y-79795714D01*
X158043619Y-79843333D01*
X157996000Y-79890952D01*
X157948380Y-79843333D01*
X158043619Y-79843333D01*
X158281714Y-80319523D02*
X159281714Y-80319523D01*
X158329333Y-80319523D02*
X158281714Y-80414761D01*
X158281714Y-80605238D01*
X158329333Y-80700476D01*
X158376952Y-80748095D01*
X158472190Y-80795714D01*
X158757904Y-80795714D01*
X158853142Y-80748095D01*
X158900761Y-80700476D01*
X158948380Y-80605238D01*
X158948380Y-80414761D01*
X158900761Y-80319523D01*
X158948380Y-81224285D02*
X158281714Y-81224285D01*
X158472190Y-81224285D02*
X158376952Y-81271904D01*
X158329333Y-81319523D01*
X158281714Y-81414761D01*
X158281714Y-81510000D01*
X158948380Y-81843333D02*
X158281714Y-81843333D01*
X157948380Y-81843333D02*
X157996000Y-81795714D01*
X158043619Y-81843333D01*
X157996000Y-81890952D01*
X157948380Y-81843333D01*
X158043619Y-81843333D01*
X158900761Y-82271904D02*
X158948380Y-82367142D01*
X158948380Y-82557619D01*
X158900761Y-82652857D01*
X158805523Y-82700476D01*
X158757904Y-82700476D01*
X158662666Y-82652857D01*
X158615047Y-82557619D01*
X158615047Y-82414761D01*
X158567428Y-82319523D01*
X158472190Y-82271904D01*
X158424571Y-82271904D01*
X158329333Y-82319523D01*
X158281714Y-82414761D01*
X158281714Y-82557619D01*
X158329333Y-82652857D01*
X158900761Y-83510000D02*
X158948380Y-83414761D01*
X158948380Y-83224285D01*
X158900761Y-83129047D01*
X158805523Y-83081428D01*
X158424571Y-83081428D01*
X158329333Y-83129047D01*
X158281714Y-83224285D01*
X158281714Y-83414761D01*
X158329333Y-83510000D01*
X158424571Y-83557619D01*
X158519809Y-83557619D01*
X158615047Y-83081428D01*
X159558380Y-73724285D02*
X160558380Y-74057619D01*
X159558380Y-74390952D01*
X160558380Y-75248095D02*
X160558380Y-74676666D01*
X160558380Y-74962380D02*
X159558380Y-74962380D01*
X159701238Y-74867142D01*
X159796476Y-74771904D01*
X159844095Y-74676666D01*
X160463142Y-75676666D02*
X160510761Y-75724285D01*
X160558380Y-75676666D01*
X160510761Y-75629047D01*
X160463142Y-75676666D01*
X160558380Y-75676666D01*
X159558380Y-76343333D02*
X159558380Y-76438571D01*
X159606000Y-76533809D01*
X159653619Y-76581428D01*
X159748857Y-76629047D01*
X159939333Y-76676666D01*
X160177428Y-76676666D01*
X160367904Y-76629047D01*
X160463142Y-76581428D01*
X160510761Y-76533809D01*
X160558380Y-76438571D01*
X160558380Y-76343333D01*
X160510761Y-76248095D01*
X160463142Y-76200476D01*
X160367904Y-76152857D01*
X160177428Y-76105238D01*
X159939333Y-76105238D01*
X159748857Y-76152857D01*
X159653619Y-76200476D01*
X159606000Y-76248095D01*
X159558380Y-76343333D01*
X160177428Y-77867142D02*
X160177428Y-78629047D01*
X159558380Y-80057619D02*
X159558380Y-80152857D01*
X159606000Y-80248095D01*
X159653619Y-80295714D01*
X159748857Y-80343333D01*
X159939333Y-80390952D01*
X160177428Y-80390952D01*
X160367904Y-80343333D01*
X160463142Y-80295714D01*
X160510761Y-80248095D01*
X160558380Y-80152857D01*
X160558380Y-80057619D01*
X160510761Y-79962380D01*
X160463142Y-79914761D01*
X160367904Y-79867142D01*
X160177428Y-79819523D01*
X159939333Y-79819523D01*
X159748857Y-79867142D01*
X159653619Y-79914761D01*
X159606000Y-79962380D01*
X159558380Y-80057619D01*
X159891714Y-81248095D02*
X160558380Y-81248095D01*
X159510761Y-81010000D02*
X160225047Y-80771904D01*
X160225047Y-81390952D01*
X159510761Y-82486190D02*
X160796476Y-81629047D01*
X159653619Y-82771904D02*
X159606000Y-82819523D01*
X159558380Y-82914761D01*
X159558380Y-83152857D01*
X159606000Y-83248095D01*
X159653619Y-83295714D01*
X159748857Y-83343333D01*
X159844095Y-83343333D01*
X159986952Y-83295714D01*
X160558380Y-82724285D01*
X160558380Y-83343333D01*
X159558380Y-83962380D02*
X159558380Y-84057619D01*
X159606000Y-84152857D01*
X159653619Y-84200476D01*
X159748857Y-84248095D01*
X159939333Y-84295714D01*
X160177428Y-84295714D01*
X160367904Y-84248095D01*
X160463142Y-84200476D01*
X160510761Y-84152857D01*
X160558380Y-84057619D01*
X160558380Y-83962380D01*
X160510761Y-83867142D01*
X160463142Y-83819523D01*
X160367904Y-83771904D01*
X160177428Y-83724285D01*
X159939333Y-83724285D01*
X159748857Y-83771904D01*
X159653619Y-83819523D01*
X159606000Y-83867142D01*
X159558380Y-83962380D01*
X159653619Y-84676666D02*
X159606000Y-84724285D01*
X159558380Y-84819523D01*
X159558380Y-85057619D01*
X159606000Y-85152857D01*
X159653619Y-85200476D01*
X159748857Y-85248095D01*
X159844095Y-85248095D01*
X159986952Y-85200476D01*
X160558380Y-84629047D01*
X160558380Y-85248095D01*
X159653619Y-85629047D02*
X159606000Y-85676666D01*
X159558380Y-85771904D01*
X159558380Y-86010000D01*
X159606000Y-86105238D01*
X159653619Y-86152857D01*
X159748857Y-86200476D01*
X159844095Y-86200476D01*
X159986952Y-86152857D01*
X160558380Y-85581428D01*
X160558380Y-86200476D01*
X105522380Y-77462380D02*
X104522380Y-77462380D01*
X104522380Y-77843333D01*
X104570000Y-77938571D01*
X104617619Y-77986190D01*
X104712857Y-78033809D01*
X104855714Y-78033809D01*
X104950952Y-77986190D01*
X104998571Y-77938571D01*
X105046190Y-77843333D01*
X105046190Y-77462380D01*
X105522380Y-78605238D02*
X105474761Y-78510000D01*
X105427142Y-78462380D01*
X105331904Y-78414761D01*
X105046190Y-78414761D01*
X104950952Y-78462380D01*
X104903333Y-78510000D01*
X104855714Y-78605238D01*
X104855714Y-78748095D01*
X104903333Y-78843333D01*
X104950952Y-78890952D01*
X105046190Y-78938571D01*
X105331904Y-78938571D01*
X105427142Y-78890952D01*
X105474761Y-78843333D01*
X105522380Y-78748095D01*
X105522380Y-78605238D01*
X105522380Y-79367142D02*
X104522380Y-79367142D01*
X105141428Y-79462380D02*
X105522380Y-79748095D01*
X104855714Y-79748095D02*
X105236666Y-79367142D01*
X105522380Y-80176666D02*
X104855714Y-80176666D01*
X104522380Y-80176666D02*
X104570000Y-80129047D01*
X104617619Y-80176666D01*
X104570000Y-80224285D01*
X104522380Y-80176666D01*
X104617619Y-80176666D01*
X105522380Y-80652857D02*
X104522380Y-80652857D01*
X104903333Y-80652857D02*
X104855714Y-80748095D01*
X104855714Y-80938571D01*
X104903333Y-81033809D01*
X104950952Y-81081428D01*
X105046190Y-81129047D01*
X105331904Y-81129047D01*
X105427142Y-81081428D01*
X105474761Y-81033809D01*
X105522380Y-80938571D01*
X105522380Y-80748095D01*
X105474761Y-80652857D01*
X105522380Y-81700476D02*
X105474761Y-81605238D01*
X105427142Y-81557619D01*
X105331904Y-81510000D01*
X105046190Y-81510000D01*
X104950952Y-81557619D01*
X104903333Y-81605238D01*
X104855714Y-81700476D01*
X104855714Y-81843333D01*
X104903333Y-81938571D01*
X104950952Y-81986190D01*
X105046190Y-82033809D01*
X105331904Y-82033809D01*
X105427142Y-81986190D01*
X105474761Y-81938571D01*
X105522380Y-81843333D01*
X105522380Y-81700476D01*
X104855714Y-82319523D02*
X104855714Y-82700476D01*
X104522380Y-82462380D02*
X105379523Y-82462380D01*
X105474761Y-82510000D01*
X105522380Y-82605238D01*
X105522380Y-82700476D01*
X107132380Y-76510000D02*
X106465714Y-76510000D01*
X106560952Y-76510000D02*
X106513333Y-76557619D01*
X106465714Y-76652857D01*
X106465714Y-76795714D01*
X106513333Y-76890952D01*
X106608571Y-76938571D01*
X107132380Y-76938571D01*
X106608571Y-76938571D02*
X106513333Y-76986190D01*
X106465714Y-77081428D01*
X106465714Y-77224285D01*
X106513333Y-77319523D01*
X106608571Y-77367142D01*
X107132380Y-77367142D01*
X106465714Y-78271904D02*
X107132380Y-78271904D01*
X106465714Y-77843333D02*
X106989523Y-77843333D01*
X107084761Y-77890952D01*
X107132380Y-77986190D01*
X107132380Y-78129047D01*
X107084761Y-78224285D01*
X107037142Y-78271904D01*
X107132380Y-78890952D02*
X107084761Y-78795714D01*
X106989523Y-78748095D01*
X106132380Y-78748095D01*
X106465714Y-79129047D02*
X106465714Y-79510000D01*
X106132380Y-79271904D02*
X106989523Y-79271904D01*
X107084761Y-79319523D01*
X107132380Y-79414761D01*
X107132380Y-79510000D01*
X107132380Y-79843333D02*
X106465714Y-79843333D01*
X106132380Y-79843333D02*
X106180000Y-79795714D01*
X106227619Y-79843333D01*
X106180000Y-79890952D01*
X106132380Y-79843333D01*
X106227619Y-79843333D01*
X106465714Y-80319523D02*
X107465714Y-80319523D01*
X106513333Y-80319523D02*
X106465714Y-80414761D01*
X106465714Y-80605238D01*
X106513333Y-80700476D01*
X106560952Y-80748095D01*
X106656190Y-80795714D01*
X106941904Y-80795714D01*
X107037142Y-80748095D01*
X107084761Y-80700476D01*
X107132380Y-80605238D01*
X107132380Y-80414761D01*
X107084761Y-80319523D01*
X107132380Y-81224285D02*
X106465714Y-81224285D01*
X106656190Y-81224285D02*
X106560952Y-81271904D01*
X106513333Y-81319523D01*
X106465714Y-81414761D01*
X106465714Y-81510000D01*
X107132380Y-81843333D02*
X106465714Y-81843333D01*
X106132380Y-81843333D02*
X106180000Y-81795714D01*
X106227619Y-81843333D01*
X106180000Y-81890952D01*
X106132380Y-81843333D01*
X106227619Y-81843333D01*
X107084761Y-82271904D02*
X107132380Y-82367142D01*
X107132380Y-82557619D01*
X107084761Y-82652857D01*
X106989523Y-82700476D01*
X106941904Y-82700476D01*
X106846666Y-82652857D01*
X106799047Y-82557619D01*
X106799047Y-82414761D01*
X106751428Y-82319523D01*
X106656190Y-82271904D01*
X106608571Y-82271904D01*
X106513333Y-82319523D01*
X106465714Y-82414761D01*
X106465714Y-82557619D01*
X106513333Y-82652857D01*
X107084761Y-83510000D02*
X107132380Y-83414761D01*
X107132380Y-83224285D01*
X107084761Y-83129047D01*
X106989523Y-83081428D01*
X106608571Y-83081428D01*
X106513333Y-83129047D01*
X106465714Y-83224285D01*
X106465714Y-83414761D01*
X106513333Y-83510000D01*
X106608571Y-83557619D01*
X106703809Y-83557619D01*
X106799047Y-83081428D01*
X107742380Y-73724285D02*
X108742380Y-74057619D01*
X107742380Y-74390952D01*
X108742380Y-75248095D02*
X108742380Y-74676666D01*
X108742380Y-74962380D02*
X107742380Y-74962380D01*
X107885238Y-74867142D01*
X107980476Y-74771904D01*
X108028095Y-74676666D01*
X108647142Y-75676666D02*
X108694761Y-75724285D01*
X108742380Y-75676666D01*
X108694761Y-75629047D01*
X108647142Y-75676666D01*
X108742380Y-75676666D01*
X107742380Y-76343333D02*
X107742380Y-76438571D01*
X107790000Y-76533809D01*
X107837619Y-76581428D01*
X107932857Y-76629047D01*
X108123333Y-76676666D01*
X108361428Y-76676666D01*
X108551904Y-76629047D01*
X108647142Y-76581428D01*
X108694761Y-76533809D01*
X108742380Y-76438571D01*
X108742380Y-76343333D01*
X108694761Y-76248095D01*
X108647142Y-76200476D01*
X108551904Y-76152857D01*
X108361428Y-76105238D01*
X108123333Y-76105238D01*
X107932857Y-76152857D01*
X107837619Y-76200476D01*
X107790000Y-76248095D01*
X107742380Y-76343333D01*
X108361428Y-77867142D02*
X108361428Y-78629047D01*
X107742380Y-80057619D02*
X107742380Y-80152857D01*
X107790000Y-80248095D01*
X107837619Y-80295714D01*
X107932857Y-80343333D01*
X108123333Y-80390952D01*
X108361428Y-80390952D01*
X108551904Y-80343333D01*
X108647142Y-80295714D01*
X108694761Y-80248095D01*
X108742380Y-80152857D01*
X108742380Y-80057619D01*
X108694761Y-79962380D01*
X108647142Y-79914761D01*
X108551904Y-79867142D01*
X108361428Y-79819523D01*
X108123333Y-79819523D01*
X107932857Y-79867142D01*
X107837619Y-79914761D01*
X107790000Y-79962380D01*
X107742380Y-80057619D01*
X108075714Y-81248095D02*
X108742380Y-81248095D01*
X107694761Y-81010000D02*
X108409047Y-80771904D01*
X108409047Y-81390952D01*
X107694761Y-82486190D02*
X108980476Y-81629047D01*
X107837619Y-82771904D02*
X107790000Y-82819523D01*
X107742380Y-82914761D01*
X107742380Y-83152857D01*
X107790000Y-83248095D01*
X107837619Y-83295714D01*
X107932857Y-83343333D01*
X108028095Y-83343333D01*
X108170952Y-83295714D01*
X108742380Y-82724285D01*
X108742380Y-83343333D01*
X107742380Y-83962380D02*
X107742380Y-84057619D01*
X107790000Y-84152857D01*
X107837619Y-84200476D01*
X107932857Y-84248095D01*
X108123333Y-84295714D01*
X108361428Y-84295714D01*
X108551904Y-84248095D01*
X108647142Y-84200476D01*
X108694761Y-84152857D01*
X108742380Y-84057619D01*
X108742380Y-83962380D01*
X108694761Y-83867142D01*
X108647142Y-83819523D01*
X108551904Y-83771904D01*
X108361428Y-83724285D01*
X108123333Y-83724285D01*
X107932857Y-83771904D01*
X107837619Y-83819523D01*
X107790000Y-83867142D01*
X107742380Y-83962380D01*
X107837619Y-84676666D02*
X107790000Y-84724285D01*
X107742380Y-84819523D01*
X107742380Y-85057619D01*
X107790000Y-85152857D01*
X107837619Y-85200476D01*
X107932857Y-85248095D01*
X108028095Y-85248095D01*
X108170952Y-85200476D01*
X108742380Y-84629047D01*
X108742380Y-85248095D01*
X107837619Y-85629047D02*
X107790000Y-85676666D01*
X107742380Y-85771904D01*
X107742380Y-86010000D01*
X107790000Y-86105238D01*
X107837619Y-86152857D01*
X107932857Y-86200476D01*
X108028095Y-86200476D01*
X108170952Y-86152857D01*
X108742380Y-85581428D01*
X108742380Y-86200476D01*
X140066380Y-127500380D02*
X139066380Y-127500380D01*
X139066380Y-127881333D01*
X139114000Y-127976571D01*
X139161619Y-128024190D01*
X139256857Y-128071809D01*
X139399714Y-128071809D01*
X139494952Y-128024190D01*
X139542571Y-127976571D01*
X139590190Y-127881333D01*
X139590190Y-127500380D01*
X140066380Y-128643238D02*
X140018761Y-128548000D01*
X139971142Y-128500380D01*
X139875904Y-128452761D01*
X139590190Y-128452761D01*
X139494952Y-128500380D01*
X139447333Y-128548000D01*
X139399714Y-128643238D01*
X139399714Y-128786095D01*
X139447333Y-128881333D01*
X139494952Y-128928952D01*
X139590190Y-128976571D01*
X139875904Y-128976571D01*
X139971142Y-128928952D01*
X140018761Y-128881333D01*
X140066380Y-128786095D01*
X140066380Y-128643238D01*
X140066380Y-129405142D02*
X139066380Y-129405142D01*
X139685428Y-129500380D02*
X140066380Y-129786095D01*
X139399714Y-129786095D02*
X139780666Y-129405142D01*
X140066380Y-130214666D02*
X139399714Y-130214666D01*
X139066380Y-130214666D02*
X139114000Y-130167047D01*
X139161619Y-130214666D01*
X139114000Y-130262285D01*
X139066380Y-130214666D01*
X139161619Y-130214666D01*
X140066380Y-130690857D02*
X139066380Y-130690857D01*
X139447333Y-130690857D02*
X139399714Y-130786095D01*
X139399714Y-130976571D01*
X139447333Y-131071809D01*
X139494952Y-131119428D01*
X139590190Y-131167047D01*
X139875904Y-131167047D01*
X139971142Y-131119428D01*
X140018761Y-131071809D01*
X140066380Y-130976571D01*
X140066380Y-130786095D01*
X140018761Y-130690857D01*
X140066380Y-131738476D02*
X140018761Y-131643238D01*
X139971142Y-131595619D01*
X139875904Y-131548000D01*
X139590190Y-131548000D01*
X139494952Y-131595619D01*
X139447333Y-131643238D01*
X139399714Y-131738476D01*
X139399714Y-131881333D01*
X139447333Y-131976571D01*
X139494952Y-132024190D01*
X139590190Y-132071809D01*
X139875904Y-132071809D01*
X139971142Y-132024190D01*
X140018761Y-131976571D01*
X140066380Y-131881333D01*
X140066380Y-131738476D01*
X139399714Y-132357523D02*
X139399714Y-132738476D01*
X139066380Y-132500380D02*
X139923523Y-132500380D01*
X140018761Y-132548000D01*
X140066380Y-132643238D01*
X140066380Y-132738476D01*
X141676380Y-126548000D02*
X141009714Y-126548000D01*
X141104952Y-126548000D02*
X141057333Y-126595619D01*
X141009714Y-126690857D01*
X141009714Y-126833714D01*
X141057333Y-126928952D01*
X141152571Y-126976571D01*
X141676380Y-126976571D01*
X141152571Y-126976571D02*
X141057333Y-127024190D01*
X141009714Y-127119428D01*
X141009714Y-127262285D01*
X141057333Y-127357523D01*
X141152571Y-127405142D01*
X141676380Y-127405142D01*
X141009714Y-128309904D02*
X141676380Y-128309904D01*
X141009714Y-127881333D02*
X141533523Y-127881333D01*
X141628761Y-127928952D01*
X141676380Y-128024190D01*
X141676380Y-128167047D01*
X141628761Y-128262285D01*
X141581142Y-128309904D01*
X141676380Y-128928952D02*
X141628761Y-128833714D01*
X141533523Y-128786095D01*
X140676380Y-128786095D01*
X141009714Y-129167047D02*
X141009714Y-129548000D01*
X140676380Y-129309904D02*
X141533523Y-129309904D01*
X141628761Y-129357523D01*
X141676380Y-129452761D01*
X141676380Y-129548000D01*
X141676380Y-129881333D02*
X141009714Y-129881333D01*
X140676380Y-129881333D02*
X140724000Y-129833714D01*
X140771619Y-129881333D01*
X140724000Y-129928952D01*
X140676380Y-129881333D01*
X140771619Y-129881333D01*
X141009714Y-130357523D02*
X142009714Y-130357523D01*
X141057333Y-130357523D02*
X141009714Y-130452761D01*
X141009714Y-130643238D01*
X141057333Y-130738476D01*
X141104952Y-130786095D01*
X141200190Y-130833714D01*
X141485904Y-130833714D01*
X141581142Y-130786095D01*
X141628761Y-130738476D01*
X141676380Y-130643238D01*
X141676380Y-130452761D01*
X141628761Y-130357523D01*
X141676380Y-131262285D02*
X141009714Y-131262285D01*
X141200190Y-131262285D02*
X141104952Y-131309904D01*
X141057333Y-131357523D01*
X141009714Y-131452761D01*
X141009714Y-131548000D01*
X141676380Y-131881333D02*
X141009714Y-131881333D01*
X140676380Y-131881333D02*
X140724000Y-131833714D01*
X140771619Y-131881333D01*
X140724000Y-131928952D01*
X140676380Y-131881333D01*
X140771619Y-131881333D01*
X141628761Y-132309904D02*
X141676380Y-132405142D01*
X141676380Y-132595619D01*
X141628761Y-132690857D01*
X141533523Y-132738476D01*
X141485904Y-132738476D01*
X141390666Y-132690857D01*
X141343047Y-132595619D01*
X141343047Y-132452761D01*
X141295428Y-132357523D01*
X141200190Y-132309904D01*
X141152571Y-132309904D01*
X141057333Y-132357523D01*
X141009714Y-132452761D01*
X141009714Y-132595619D01*
X141057333Y-132690857D01*
X141628761Y-133548000D02*
X141676380Y-133452761D01*
X141676380Y-133262285D01*
X141628761Y-133167047D01*
X141533523Y-133119428D01*
X141152571Y-133119428D01*
X141057333Y-133167047D01*
X141009714Y-133262285D01*
X141009714Y-133452761D01*
X141057333Y-133548000D01*
X141152571Y-133595619D01*
X141247809Y-133595619D01*
X141343047Y-133119428D01*
X142286380Y-123762285D02*
X143286380Y-124095619D01*
X142286380Y-124428952D01*
X143286380Y-125286095D02*
X143286380Y-124714666D01*
X143286380Y-125000380D02*
X142286380Y-125000380D01*
X142429238Y-124905142D01*
X142524476Y-124809904D01*
X142572095Y-124714666D01*
X143191142Y-125714666D02*
X143238761Y-125762285D01*
X143286380Y-125714666D01*
X143238761Y-125667047D01*
X143191142Y-125714666D01*
X143286380Y-125714666D01*
X142286380Y-126381333D02*
X142286380Y-126476571D01*
X142334000Y-126571809D01*
X142381619Y-126619428D01*
X142476857Y-126667047D01*
X142667333Y-126714666D01*
X142905428Y-126714666D01*
X143095904Y-126667047D01*
X143191142Y-126619428D01*
X143238761Y-126571809D01*
X143286380Y-126476571D01*
X143286380Y-126381333D01*
X143238761Y-126286095D01*
X143191142Y-126238476D01*
X143095904Y-126190857D01*
X142905428Y-126143238D01*
X142667333Y-126143238D01*
X142476857Y-126190857D01*
X142381619Y-126238476D01*
X142334000Y-126286095D01*
X142286380Y-126381333D01*
X142905428Y-127905142D02*
X142905428Y-128667047D01*
X142286380Y-130095619D02*
X142286380Y-130190857D01*
X142334000Y-130286095D01*
X142381619Y-130333714D01*
X142476857Y-130381333D01*
X142667333Y-130428952D01*
X142905428Y-130428952D01*
X143095904Y-130381333D01*
X143191142Y-130333714D01*
X143238761Y-130286095D01*
X143286380Y-130190857D01*
X143286380Y-130095619D01*
X143238761Y-130000380D01*
X143191142Y-129952761D01*
X143095904Y-129905142D01*
X142905428Y-129857523D01*
X142667333Y-129857523D01*
X142476857Y-129905142D01*
X142381619Y-129952761D01*
X142334000Y-130000380D01*
X142286380Y-130095619D01*
X142619714Y-131286095D02*
X143286380Y-131286095D01*
X142238761Y-131048000D02*
X142953047Y-130809904D01*
X142953047Y-131428952D01*
X142238761Y-132524190D02*
X143524476Y-131667047D01*
X142381619Y-132809904D02*
X142334000Y-132857523D01*
X142286380Y-132952761D01*
X142286380Y-133190857D01*
X142334000Y-133286095D01*
X142381619Y-133333714D01*
X142476857Y-133381333D01*
X142572095Y-133381333D01*
X142714952Y-133333714D01*
X143286380Y-132762285D01*
X143286380Y-133381333D01*
X142286380Y-134000380D02*
X142286380Y-134095619D01*
X142334000Y-134190857D01*
X142381619Y-134238476D01*
X142476857Y-134286095D01*
X142667333Y-134333714D01*
X142905428Y-134333714D01*
X143095904Y-134286095D01*
X143191142Y-134238476D01*
X143238761Y-134190857D01*
X143286380Y-134095619D01*
X143286380Y-134000380D01*
X143238761Y-133905142D01*
X143191142Y-133857523D01*
X143095904Y-133809904D01*
X142905428Y-133762285D01*
X142667333Y-133762285D01*
X142476857Y-133809904D01*
X142381619Y-133857523D01*
X142334000Y-133905142D01*
X142286380Y-134000380D01*
X142381619Y-134714666D02*
X142334000Y-134762285D01*
X142286380Y-134857523D01*
X142286380Y-135095619D01*
X142334000Y-135190857D01*
X142381619Y-135238476D01*
X142476857Y-135286095D01*
X142572095Y-135286095D01*
X142714952Y-135238476D01*
X143286380Y-134667047D01*
X143286380Y-135286095D01*
X142381619Y-135667047D02*
X142334000Y-135714666D01*
X142286380Y-135809904D01*
X142286380Y-136048000D01*
X142334000Y-136143238D01*
X142381619Y-136190857D01*
X142476857Y-136238476D01*
X142572095Y-136238476D01*
X142714952Y-136190857D01*
X143286380Y-135619428D01*
X143286380Y-136238476D01*
X105522380Y-127500380D02*
X104522380Y-127500380D01*
X104522380Y-127881333D01*
X104570000Y-127976571D01*
X104617619Y-128024190D01*
X104712857Y-128071809D01*
X104855714Y-128071809D01*
X104950952Y-128024190D01*
X104998571Y-127976571D01*
X105046190Y-127881333D01*
X105046190Y-127500380D01*
X105522380Y-128643238D02*
X105474761Y-128548000D01*
X105427142Y-128500380D01*
X105331904Y-128452761D01*
X105046190Y-128452761D01*
X104950952Y-128500380D01*
X104903333Y-128548000D01*
X104855714Y-128643238D01*
X104855714Y-128786095D01*
X104903333Y-128881333D01*
X104950952Y-128928952D01*
X105046190Y-128976571D01*
X105331904Y-128976571D01*
X105427142Y-128928952D01*
X105474761Y-128881333D01*
X105522380Y-128786095D01*
X105522380Y-128643238D01*
X105522380Y-129405142D02*
X104522380Y-129405142D01*
X105141428Y-129500380D02*
X105522380Y-129786095D01*
X104855714Y-129786095D02*
X105236666Y-129405142D01*
X105522380Y-130214666D02*
X104855714Y-130214666D01*
X104522380Y-130214666D02*
X104570000Y-130167047D01*
X104617619Y-130214666D01*
X104570000Y-130262285D01*
X104522380Y-130214666D01*
X104617619Y-130214666D01*
X105522380Y-130690857D02*
X104522380Y-130690857D01*
X104903333Y-130690857D02*
X104855714Y-130786095D01*
X104855714Y-130976571D01*
X104903333Y-131071809D01*
X104950952Y-131119428D01*
X105046190Y-131167047D01*
X105331904Y-131167047D01*
X105427142Y-131119428D01*
X105474761Y-131071809D01*
X105522380Y-130976571D01*
X105522380Y-130786095D01*
X105474761Y-130690857D01*
X105522380Y-131738476D02*
X105474761Y-131643238D01*
X105427142Y-131595619D01*
X105331904Y-131548000D01*
X105046190Y-131548000D01*
X104950952Y-131595619D01*
X104903333Y-131643238D01*
X104855714Y-131738476D01*
X104855714Y-131881333D01*
X104903333Y-131976571D01*
X104950952Y-132024190D01*
X105046190Y-132071809D01*
X105331904Y-132071809D01*
X105427142Y-132024190D01*
X105474761Y-131976571D01*
X105522380Y-131881333D01*
X105522380Y-131738476D01*
X104855714Y-132357523D02*
X104855714Y-132738476D01*
X104522380Y-132500380D02*
X105379523Y-132500380D01*
X105474761Y-132548000D01*
X105522380Y-132643238D01*
X105522380Y-132738476D01*
X107132380Y-126548000D02*
X106465714Y-126548000D01*
X106560952Y-126548000D02*
X106513333Y-126595619D01*
X106465714Y-126690857D01*
X106465714Y-126833714D01*
X106513333Y-126928952D01*
X106608571Y-126976571D01*
X107132380Y-126976571D01*
X106608571Y-126976571D02*
X106513333Y-127024190D01*
X106465714Y-127119428D01*
X106465714Y-127262285D01*
X106513333Y-127357523D01*
X106608571Y-127405142D01*
X107132380Y-127405142D01*
X106465714Y-128309904D02*
X107132380Y-128309904D01*
X106465714Y-127881333D02*
X106989523Y-127881333D01*
X107084761Y-127928952D01*
X107132380Y-128024190D01*
X107132380Y-128167047D01*
X107084761Y-128262285D01*
X107037142Y-128309904D01*
X107132380Y-128928952D02*
X107084761Y-128833714D01*
X106989523Y-128786095D01*
X106132380Y-128786095D01*
X106465714Y-129167047D02*
X106465714Y-129548000D01*
X106132380Y-129309904D02*
X106989523Y-129309904D01*
X107084761Y-129357523D01*
X107132380Y-129452761D01*
X107132380Y-129548000D01*
X107132380Y-129881333D02*
X106465714Y-129881333D01*
X106132380Y-129881333D02*
X106180000Y-129833714D01*
X106227619Y-129881333D01*
X106180000Y-129928952D01*
X106132380Y-129881333D01*
X106227619Y-129881333D01*
X106465714Y-130357523D02*
X107465714Y-130357523D01*
X106513333Y-130357523D02*
X106465714Y-130452761D01*
X106465714Y-130643238D01*
X106513333Y-130738476D01*
X106560952Y-130786095D01*
X106656190Y-130833714D01*
X106941904Y-130833714D01*
X107037142Y-130786095D01*
X107084761Y-130738476D01*
X107132380Y-130643238D01*
X107132380Y-130452761D01*
X107084761Y-130357523D01*
X107132380Y-131262285D02*
X106465714Y-131262285D01*
X106656190Y-131262285D02*
X106560952Y-131309904D01*
X106513333Y-131357523D01*
X106465714Y-131452761D01*
X106465714Y-131548000D01*
X107132380Y-131881333D02*
X106465714Y-131881333D01*
X106132380Y-131881333D02*
X106180000Y-131833714D01*
X106227619Y-131881333D01*
X106180000Y-131928952D01*
X106132380Y-131881333D01*
X106227619Y-131881333D01*
X107084761Y-132309904D02*
X107132380Y-132405142D01*
X107132380Y-132595619D01*
X107084761Y-132690857D01*
X106989523Y-132738476D01*
X106941904Y-132738476D01*
X106846666Y-132690857D01*
X106799047Y-132595619D01*
X106799047Y-132452761D01*
X106751428Y-132357523D01*
X106656190Y-132309904D01*
X106608571Y-132309904D01*
X106513333Y-132357523D01*
X106465714Y-132452761D01*
X106465714Y-132595619D01*
X106513333Y-132690857D01*
X107084761Y-133548000D02*
X107132380Y-133452761D01*
X107132380Y-133262285D01*
X107084761Y-133167047D01*
X106989523Y-133119428D01*
X106608571Y-133119428D01*
X106513333Y-133167047D01*
X106465714Y-133262285D01*
X106465714Y-133452761D01*
X106513333Y-133548000D01*
X106608571Y-133595619D01*
X106703809Y-133595619D01*
X106799047Y-133119428D01*
X107742380Y-123762285D02*
X108742380Y-124095619D01*
X107742380Y-124428952D01*
X108742380Y-125286095D02*
X108742380Y-124714666D01*
X108742380Y-125000380D02*
X107742380Y-125000380D01*
X107885238Y-124905142D01*
X107980476Y-124809904D01*
X108028095Y-124714666D01*
X108647142Y-125714666D02*
X108694761Y-125762285D01*
X108742380Y-125714666D01*
X108694761Y-125667047D01*
X108647142Y-125714666D01*
X108742380Y-125714666D01*
X107742380Y-126381333D02*
X107742380Y-126476571D01*
X107790000Y-126571809D01*
X107837619Y-126619428D01*
X107932857Y-126667047D01*
X108123333Y-126714666D01*
X108361428Y-126714666D01*
X108551904Y-126667047D01*
X108647142Y-126619428D01*
X108694761Y-126571809D01*
X108742380Y-126476571D01*
X108742380Y-126381333D01*
X108694761Y-126286095D01*
X108647142Y-126238476D01*
X108551904Y-126190857D01*
X108361428Y-126143238D01*
X108123333Y-126143238D01*
X107932857Y-126190857D01*
X107837619Y-126238476D01*
X107790000Y-126286095D01*
X107742380Y-126381333D01*
X108361428Y-127905142D02*
X108361428Y-128667047D01*
X107742380Y-130095619D02*
X107742380Y-130190857D01*
X107790000Y-130286095D01*
X107837619Y-130333714D01*
X107932857Y-130381333D01*
X108123333Y-130428952D01*
X108361428Y-130428952D01*
X108551904Y-130381333D01*
X108647142Y-130333714D01*
X108694761Y-130286095D01*
X108742380Y-130190857D01*
X108742380Y-130095619D01*
X108694761Y-130000380D01*
X108647142Y-129952761D01*
X108551904Y-129905142D01*
X108361428Y-129857523D01*
X108123333Y-129857523D01*
X107932857Y-129905142D01*
X107837619Y-129952761D01*
X107790000Y-130000380D01*
X107742380Y-130095619D01*
X108075714Y-131286095D02*
X108742380Y-131286095D01*
X107694761Y-131048000D02*
X108409047Y-130809904D01*
X108409047Y-131428952D01*
X107694761Y-132524190D02*
X108980476Y-131667047D01*
X107837619Y-132809904D02*
X107790000Y-132857523D01*
X107742380Y-132952761D01*
X107742380Y-133190857D01*
X107790000Y-133286095D01*
X107837619Y-133333714D01*
X107932857Y-133381333D01*
X108028095Y-133381333D01*
X108170952Y-133333714D01*
X108742380Y-132762285D01*
X108742380Y-133381333D01*
X107742380Y-134000380D02*
X107742380Y-134095619D01*
X107790000Y-134190857D01*
X107837619Y-134238476D01*
X107932857Y-134286095D01*
X108123333Y-134333714D01*
X108361428Y-134333714D01*
X108551904Y-134286095D01*
X108647142Y-134238476D01*
X108694761Y-134190857D01*
X108742380Y-134095619D01*
X108742380Y-134000380D01*
X108694761Y-133905142D01*
X108647142Y-133857523D01*
X108551904Y-133809904D01*
X108361428Y-133762285D01*
X108123333Y-133762285D01*
X107932857Y-133809904D01*
X107837619Y-133857523D01*
X107790000Y-133905142D01*
X107742380Y-134000380D01*
X107837619Y-134714666D02*
X107790000Y-134762285D01*
X107742380Y-134857523D01*
X107742380Y-135095619D01*
X107790000Y-135190857D01*
X107837619Y-135238476D01*
X107932857Y-135286095D01*
X108028095Y-135286095D01*
X108170952Y-135238476D01*
X108742380Y-134667047D01*
X108742380Y-135286095D01*
X107837619Y-135667047D02*
X107790000Y-135714666D01*
X107742380Y-135809904D01*
X107742380Y-136048000D01*
X107790000Y-136143238D01*
X107837619Y-136190857D01*
X107932857Y-136238476D01*
X108028095Y-136238476D01*
X108170952Y-136190857D01*
X108742380Y-135619428D01*
X108742380Y-136238476D01*
X88250380Y-127500380D02*
X87250380Y-127500380D01*
X87250380Y-127881333D01*
X87298000Y-127976571D01*
X87345619Y-128024190D01*
X87440857Y-128071809D01*
X87583714Y-128071809D01*
X87678952Y-128024190D01*
X87726571Y-127976571D01*
X87774190Y-127881333D01*
X87774190Y-127500380D01*
X88250380Y-128643238D02*
X88202761Y-128548000D01*
X88155142Y-128500380D01*
X88059904Y-128452761D01*
X87774190Y-128452761D01*
X87678952Y-128500380D01*
X87631333Y-128548000D01*
X87583714Y-128643238D01*
X87583714Y-128786095D01*
X87631333Y-128881333D01*
X87678952Y-128928952D01*
X87774190Y-128976571D01*
X88059904Y-128976571D01*
X88155142Y-128928952D01*
X88202761Y-128881333D01*
X88250380Y-128786095D01*
X88250380Y-128643238D01*
X88250380Y-129405142D02*
X87250380Y-129405142D01*
X87869428Y-129500380D02*
X88250380Y-129786095D01*
X87583714Y-129786095D02*
X87964666Y-129405142D01*
X88250380Y-130214666D02*
X87583714Y-130214666D01*
X87250380Y-130214666D02*
X87298000Y-130167047D01*
X87345619Y-130214666D01*
X87298000Y-130262285D01*
X87250380Y-130214666D01*
X87345619Y-130214666D01*
X88250380Y-130690857D02*
X87250380Y-130690857D01*
X87631333Y-130690857D02*
X87583714Y-130786095D01*
X87583714Y-130976571D01*
X87631333Y-131071809D01*
X87678952Y-131119428D01*
X87774190Y-131167047D01*
X88059904Y-131167047D01*
X88155142Y-131119428D01*
X88202761Y-131071809D01*
X88250380Y-130976571D01*
X88250380Y-130786095D01*
X88202761Y-130690857D01*
X88250380Y-131738476D02*
X88202761Y-131643238D01*
X88155142Y-131595619D01*
X88059904Y-131548000D01*
X87774190Y-131548000D01*
X87678952Y-131595619D01*
X87631333Y-131643238D01*
X87583714Y-131738476D01*
X87583714Y-131881333D01*
X87631333Y-131976571D01*
X87678952Y-132024190D01*
X87774190Y-132071809D01*
X88059904Y-132071809D01*
X88155142Y-132024190D01*
X88202761Y-131976571D01*
X88250380Y-131881333D01*
X88250380Y-131738476D01*
X87583714Y-132357523D02*
X87583714Y-132738476D01*
X87250380Y-132500380D02*
X88107523Y-132500380D01*
X88202761Y-132548000D01*
X88250380Y-132643238D01*
X88250380Y-132738476D01*
X89860380Y-126548000D02*
X89193714Y-126548000D01*
X89288952Y-126548000D02*
X89241333Y-126595619D01*
X89193714Y-126690857D01*
X89193714Y-126833714D01*
X89241333Y-126928952D01*
X89336571Y-126976571D01*
X89860380Y-126976571D01*
X89336571Y-126976571D02*
X89241333Y-127024190D01*
X89193714Y-127119428D01*
X89193714Y-127262285D01*
X89241333Y-127357523D01*
X89336571Y-127405142D01*
X89860380Y-127405142D01*
X89193714Y-128309904D02*
X89860380Y-128309904D01*
X89193714Y-127881333D02*
X89717523Y-127881333D01*
X89812761Y-127928952D01*
X89860380Y-128024190D01*
X89860380Y-128167047D01*
X89812761Y-128262285D01*
X89765142Y-128309904D01*
X89860380Y-128928952D02*
X89812761Y-128833714D01*
X89717523Y-128786095D01*
X88860380Y-128786095D01*
X89193714Y-129167047D02*
X89193714Y-129548000D01*
X88860380Y-129309904D02*
X89717523Y-129309904D01*
X89812761Y-129357523D01*
X89860380Y-129452761D01*
X89860380Y-129548000D01*
X89860380Y-129881333D02*
X89193714Y-129881333D01*
X88860380Y-129881333D02*
X88908000Y-129833714D01*
X88955619Y-129881333D01*
X88908000Y-129928952D01*
X88860380Y-129881333D01*
X88955619Y-129881333D01*
X89193714Y-130357523D02*
X90193714Y-130357523D01*
X89241333Y-130357523D02*
X89193714Y-130452761D01*
X89193714Y-130643238D01*
X89241333Y-130738476D01*
X89288952Y-130786095D01*
X89384190Y-130833714D01*
X89669904Y-130833714D01*
X89765142Y-130786095D01*
X89812761Y-130738476D01*
X89860380Y-130643238D01*
X89860380Y-130452761D01*
X89812761Y-130357523D01*
X89860380Y-131262285D02*
X89193714Y-131262285D01*
X89384190Y-131262285D02*
X89288952Y-131309904D01*
X89241333Y-131357523D01*
X89193714Y-131452761D01*
X89193714Y-131548000D01*
X89860380Y-131881333D02*
X89193714Y-131881333D01*
X88860380Y-131881333D02*
X88908000Y-131833714D01*
X88955619Y-131881333D01*
X88908000Y-131928952D01*
X88860380Y-131881333D01*
X88955619Y-131881333D01*
X89812761Y-132309904D02*
X89860380Y-132405142D01*
X89860380Y-132595619D01*
X89812761Y-132690857D01*
X89717523Y-132738476D01*
X89669904Y-132738476D01*
X89574666Y-132690857D01*
X89527047Y-132595619D01*
X89527047Y-132452761D01*
X89479428Y-132357523D01*
X89384190Y-132309904D01*
X89336571Y-132309904D01*
X89241333Y-132357523D01*
X89193714Y-132452761D01*
X89193714Y-132595619D01*
X89241333Y-132690857D01*
X89812761Y-133548000D02*
X89860380Y-133452761D01*
X89860380Y-133262285D01*
X89812761Y-133167047D01*
X89717523Y-133119428D01*
X89336571Y-133119428D01*
X89241333Y-133167047D01*
X89193714Y-133262285D01*
X89193714Y-133452761D01*
X89241333Y-133548000D01*
X89336571Y-133595619D01*
X89431809Y-133595619D01*
X89527047Y-133119428D01*
X90470380Y-123762285D02*
X91470380Y-124095619D01*
X90470380Y-124428952D01*
X91470380Y-125286095D02*
X91470380Y-124714666D01*
X91470380Y-125000380D02*
X90470380Y-125000380D01*
X90613238Y-124905142D01*
X90708476Y-124809904D01*
X90756095Y-124714666D01*
X91375142Y-125714666D02*
X91422761Y-125762285D01*
X91470380Y-125714666D01*
X91422761Y-125667047D01*
X91375142Y-125714666D01*
X91470380Y-125714666D01*
X90470380Y-126381333D02*
X90470380Y-126476571D01*
X90518000Y-126571809D01*
X90565619Y-126619428D01*
X90660857Y-126667047D01*
X90851333Y-126714666D01*
X91089428Y-126714666D01*
X91279904Y-126667047D01*
X91375142Y-126619428D01*
X91422761Y-126571809D01*
X91470380Y-126476571D01*
X91470380Y-126381333D01*
X91422761Y-126286095D01*
X91375142Y-126238476D01*
X91279904Y-126190857D01*
X91089428Y-126143238D01*
X90851333Y-126143238D01*
X90660857Y-126190857D01*
X90565619Y-126238476D01*
X90518000Y-126286095D01*
X90470380Y-126381333D01*
X91089428Y-127905142D02*
X91089428Y-128667047D01*
X90470380Y-130095619D02*
X90470380Y-130190857D01*
X90518000Y-130286095D01*
X90565619Y-130333714D01*
X90660857Y-130381333D01*
X90851333Y-130428952D01*
X91089428Y-130428952D01*
X91279904Y-130381333D01*
X91375142Y-130333714D01*
X91422761Y-130286095D01*
X91470380Y-130190857D01*
X91470380Y-130095619D01*
X91422761Y-130000380D01*
X91375142Y-129952761D01*
X91279904Y-129905142D01*
X91089428Y-129857523D01*
X90851333Y-129857523D01*
X90660857Y-129905142D01*
X90565619Y-129952761D01*
X90518000Y-130000380D01*
X90470380Y-130095619D01*
X90803714Y-131286095D02*
X91470380Y-131286095D01*
X90422761Y-131048000D02*
X91137047Y-130809904D01*
X91137047Y-131428952D01*
X90422761Y-132524190D02*
X91708476Y-131667047D01*
X90565619Y-132809904D02*
X90518000Y-132857523D01*
X90470380Y-132952761D01*
X90470380Y-133190857D01*
X90518000Y-133286095D01*
X90565619Y-133333714D01*
X90660857Y-133381333D01*
X90756095Y-133381333D01*
X90898952Y-133333714D01*
X91470380Y-132762285D01*
X91470380Y-133381333D01*
X90470380Y-134000380D02*
X90470380Y-134095619D01*
X90518000Y-134190857D01*
X90565619Y-134238476D01*
X90660857Y-134286095D01*
X90851333Y-134333714D01*
X91089428Y-134333714D01*
X91279904Y-134286095D01*
X91375142Y-134238476D01*
X91422761Y-134190857D01*
X91470380Y-134095619D01*
X91470380Y-134000380D01*
X91422761Y-133905142D01*
X91375142Y-133857523D01*
X91279904Y-133809904D01*
X91089428Y-133762285D01*
X90851333Y-133762285D01*
X90660857Y-133809904D01*
X90565619Y-133857523D01*
X90518000Y-133905142D01*
X90470380Y-134000380D01*
X90565619Y-134714666D02*
X90518000Y-134762285D01*
X90470380Y-134857523D01*
X90470380Y-135095619D01*
X90518000Y-135190857D01*
X90565619Y-135238476D01*
X90660857Y-135286095D01*
X90756095Y-135286095D01*
X90898952Y-135238476D01*
X91470380Y-134667047D01*
X91470380Y-135286095D01*
X90565619Y-135667047D02*
X90518000Y-135714666D01*
X90470380Y-135809904D01*
X90470380Y-136048000D01*
X90518000Y-136143238D01*
X90565619Y-136190857D01*
X90660857Y-136238476D01*
X90756095Y-136238476D01*
X90898952Y-136190857D01*
X91470380Y-135619428D01*
X91470380Y-136238476D01*
X140066380Y-77462380D02*
X139066380Y-77462380D01*
X139066380Y-77843333D01*
X139114000Y-77938571D01*
X139161619Y-77986190D01*
X139256857Y-78033809D01*
X139399714Y-78033809D01*
X139494952Y-77986190D01*
X139542571Y-77938571D01*
X139590190Y-77843333D01*
X139590190Y-77462380D01*
X140066380Y-78605238D02*
X140018761Y-78510000D01*
X139971142Y-78462380D01*
X139875904Y-78414761D01*
X139590190Y-78414761D01*
X139494952Y-78462380D01*
X139447333Y-78510000D01*
X139399714Y-78605238D01*
X139399714Y-78748095D01*
X139447333Y-78843333D01*
X139494952Y-78890952D01*
X139590190Y-78938571D01*
X139875904Y-78938571D01*
X139971142Y-78890952D01*
X140018761Y-78843333D01*
X140066380Y-78748095D01*
X140066380Y-78605238D01*
X140066380Y-79367142D02*
X139066380Y-79367142D01*
X139685428Y-79462380D02*
X140066380Y-79748095D01*
X139399714Y-79748095D02*
X139780666Y-79367142D01*
X140066380Y-80176666D02*
X139399714Y-80176666D01*
X139066380Y-80176666D02*
X139114000Y-80129047D01*
X139161619Y-80176666D01*
X139114000Y-80224285D01*
X139066380Y-80176666D01*
X139161619Y-80176666D01*
X140066380Y-80652857D02*
X139066380Y-80652857D01*
X139447333Y-80652857D02*
X139399714Y-80748095D01*
X139399714Y-80938571D01*
X139447333Y-81033809D01*
X139494952Y-81081428D01*
X139590190Y-81129047D01*
X139875904Y-81129047D01*
X139971142Y-81081428D01*
X140018761Y-81033809D01*
X140066380Y-80938571D01*
X140066380Y-80748095D01*
X140018761Y-80652857D01*
X140066380Y-81700476D02*
X140018761Y-81605238D01*
X139971142Y-81557619D01*
X139875904Y-81510000D01*
X139590190Y-81510000D01*
X139494952Y-81557619D01*
X139447333Y-81605238D01*
X139399714Y-81700476D01*
X139399714Y-81843333D01*
X139447333Y-81938571D01*
X139494952Y-81986190D01*
X139590190Y-82033809D01*
X139875904Y-82033809D01*
X139971142Y-81986190D01*
X140018761Y-81938571D01*
X140066380Y-81843333D01*
X140066380Y-81700476D01*
X139399714Y-82319523D02*
X139399714Y-82700476D01*
X139066380Y-82462380D02*
X139923523Y-82462380D01*
X140018761Y-82510000D01*
X140066380Y-82605238D01*
X140066380Y-82700476D01*
X141676380Y-76510000D02*
X141009714Y-76510000D01*
X141104952Y-76510000D02*
X141057333Y-76557619D01*
X141009714Y-76652857D01*
X141009714Y-76795714D01*
X141057333Y-76890952D01*
X141152571Y-76938571D01*
X141676380Y-76938571D01*
X141152571Y-76938571D02*
X141057333Y-76986190D01*
X141009714Y-77081428D01*
X141009714Y-77224285D01*
X141057333Y-77319523D01*
X141152571Y-77367142D01*
X141676380Y-77367142D01*
X141009714Y-78271904D02*
X141676380Y-78271904D01*
X141009714Y-77843333D02*
X141533523Y-77843333D01*
X141628761Y-77890952D01*
X141676380Y-77986190D01*
X141676380Y-78129047D01*
X141628761Y-78224285D01*
X141581142Y-78271904D01*
X141676380Y-78890952D02*
X141628761Y-78795714D01*
X141533523Y-78748095D01*
X140676380Y-78748095D01*
X141009714Y-79129047D02*
X141009714Y-79510000D01*
X140676380Y-79271904D02*
X141533523Y-79271904D01*
X141628761Y-79319523D01*
X141676380Y-79414761D01*
X141676380Y-79510000D01*
X141676380Y-79843333D02*
X141009714Y-79843333D01*
X140676380Y-79843333D02*
X140724000Y-79795714D01*
X140771619Y-79843333D01*
X140724000Y-79890952D01*
X140676380Y-79843333D01*
X140771619Y-79843333D01*
X141009714Y-80319523D02*
X142009714Y-80319523D01*
X141057333Y-80319523D02*
X141009714Y-80414761D01*
X141009714Y-80605238D01*
X141057333Y-80700476D01*
X141104952Y-80748095D01*
X141200190Y-80795714D01*
X141485904Y-80795714D01*
X141581142Y-80748095D01*
X141628761Y-80700476D01*
X141676380Y-80605238D01*
X141676380Y-80414761D01*
X141628761Y-80319523D01*
X141676380Y-81224285D02*
X141009714Y-81224285D01*
X141200190Y-81224285D02*
X141104952Y-81271904D01*
X141057333Y-81319523D01*
X141009714Y-81414761D01*
X141009714Y-81510000D01*
X141676380Y-81843333D02*
X141009714Y-81843333D01*
X140676380Y-81843333D02*
X140724000Y-81795714D01*
X140771619Y-81843333D01*
X140724000Y-81890952D01*
X140676380Y-81843333D01*
X140771619Y-81843333D01*
X141628761Y-82271904D02*
X141676380Y-82367142D01*
X141676380Y-82557619D01*
X141628761Y-82652857D01*
X141533523Y-82700476D01*
X141485904Y-82700476D01*
X141390666Y-82652857D01*
X141343047Y-82557619D01*
X141343047Y-82414761D01*
X141295428Y-82319523D01*
X141200190Y-82271904D01*
X141152571Y-82271904D01*
X141057333Y-82319523D01*
X141009714Y-82414761D01*
X141009714Y-82557619D01*
X141057333Y-82652857D01*
X141628761Y-83510000D02*
X141676380Y-83414761D01*
X141676380Y-83224285D01*
X141628761Y-83129047D01*
X141533523Y-83081428D01*
X141152571Y-83081428D01*
X141057333Y-83129047D01*
X141009714Y-83224285D01*
X141009714Y-83414761D01*
X141057333Y-83510000D01*
X141152571Y-83557619D01*
X141247809Y-83557619D01*
X141343047Y-83081428D01*
X142286380Y-73724285D02*
X143286380Y-74057619D01*
X142286380Y-74390952D01*
X143286380Y-75248095D02*
X143286380Y-74676666D01*
X143286380Y-74962380D02*
X142286380Y-74962380D01*
X142429238Y-74867142D01*
X142524476Y-74771904D01*
X142572095Y-74676666D01*
X143191142Y-75676666D02*
X143238761Y-75724285D01*
X143286380Y-75676666D01*
X143238761Y-75629047D01*
X143191142Y-75676666D01*
X143286380Y-75676666D01*
X142286380Y-76343333D02*
X142286380Y-76438571D01*
X142334000Y-76533809D01*
X142381619Y-76581428D01*
X142476857Y-76629047D01*
X142667333Y-76676666D01*
X142905428Y-76676666D01*
X143095904Y-76629047D01*
X143191142Y-76581428D01*
X143238761Y-76533809D01*
X143286380Y-76438571D01*
X143286380Y-76343333D01*
X143238761Y-76248095D01*
X143191142Y-76200476D01*
X143095904Y-76152857D01*
X142905428Y-76105238D01*
X142667333Y-76105238D01*
X142476857Y-76152857D01*
X142381619Y-76200476D01*
X142334000Y-76248095D01*
X142286380Y-76343333D01*
X142905428Y-77867142D02*
X142905428Y-78629047D01*
X142286380Y-80057619D02*
X142286380Y-80152857D01*
X142334000Y-80248095D01*
X142381619Y-80295714D01*
X142476857Y-80343333D01*
X142667333Y-80390952D01*
X142905428Y-80390952D01*
X143095904Y-80343333D01*
X143191142Y-80295714D01*
X143238761Y-80248095D01*
X143286380Y-80152857D01*
X143286380Y-80057619D01*
X143238761Y-79962380D01*
X143191142Y-79914761D01*
X143095904Y-79867142D01*
X142905428Y-79819523D01*
X142667333Y-79819523D01*
X142476857Y-79867142D01*
X142381619Y-79914761D01*
X142334000Y-79962380D01*
X142286380Y-80057619D01*
X142619714Y-81248095D02*
X143286380Y-81248095D01*
X142238761Y-81010000D02*
X142953047Y-80771904D01*
X142953047Y-81390952D01*
X142238761Y-82486190D02*
X143524476Y-81629047D01*
X142381619Y-82771904D02*
X142334000Y-82819523D01*
X142286380Y-82914761D01*
X142286380Y-83152857D01*
X142334000Y-83248095D01*
X142381619Y-83295714D01*
X142476857Y-83343333D01*
X142572095Y-83343333D01*
X142714952Y-83295714D01*
X143286380Y-82724285D01*
X143286380Y-83343333D01*
X142286380Y-83962380D02*
X142286380Y-84057619D01*
X142334000Y-84152857D01*
X142381619Y-84200476D01*
X142476857Y-84248095D01*
X142667333Y-84295714D01*
X142905428Y-84295714D01*
X143095904Y-84248095D01*
X143191142Y-84200476D01*
X143238761Y-84152857D01*
X143286380Y-84057619D01*
X143286380Y-83962380D01*
X143238761Y-83867142D01*
X143191142Y-83819523D01*
X143095904Y-83771904D01*
X142905428Y-83724285D01*
X142667333Y-83724285D01*
X142476857Y-83771904D01*
X142381619Y-83819523D01*
X142334000Y-83867142D01*
X142286380Y-83962380D01*
X142381619Y-84676666D02*
X142334000Y-84724285D01*
X142286380Y-84819523D01*
X142286380Y-85057619D01*
X142334000Y-85152857D01*
X142381619Y-85200476D01*
X142476857Y-85248095D01*
X142572095Y-85248095D01*
X142714952Y-85200476D01*
X143286380Y-84629047D01*
X143286380Y-85248095D01*
X142381619Y-85629047D02*
X142334000Y-85676666D01*
X142286380Y-85771904D01*
X142286380Y-86010000D01*
X142334000Y-86105238D01*
X142381619Y-86152857D01*
X142476857Y-86200476D01*
X142572095Y-86200476D01*
X142714952Y-86152857D01*
X143286380Y-85581428D01*
X143286380Y-86200476D01*
M02*
