<?xml version="1.0" encoding="UTF-8" standalone="no"?>
<svg
   xmlns:dc="http://purl.org/dc/elements/1.1/"
   xmlns:cc="http://creativecommons.org/ns#"
   xmlns:rdf="http://www.w3.org/1999/02/22-rdf-syntax-ns#"
   xmlns:svg="http://www.w3.org/2000/svg"
   xmlns="http://www.w3.org/2000/svg"
   xmlns:sodipodi="http://sodipodi.sourceforge.net/DTD/sodipodi-0.dtd"
   xmlns:inkscape="http://www.inkscape.org/namespaces/inkscape"
   version="1.1"
   width="29.7002cm"
   height="21.0007cm"
   viewBox="0 0 116930 82680 "
   id="svg140"
   sodipodi:docname="Carte_protection-F.Paste.svg"
   inkscape:version="0.92.3 (2405546, 2018-03-11)">
  <metadata
     id="metadata146">
    <rdf:RDF>
      <cc:Work
         rdf:about="">
        <dc:format>image/svg+xml</dc:format>
        <dc:type
           rdf:resource="http://purl.org/dc/dcmitype/StillImage" />
      </cc:Work>
    </rdf:RDF>
  </metadata>
  <defs
     id="defs144" />
  <sodipodi:namedview
     pagecolor="#ffffff"
     bordercolor="#666666"
     borderopacity="1"
     objecttolerance="10"
     gridtolerance="10"
     guidetolerance="10"
     inkscape:pageopacity="0"
     inkscape:pageshadow="2"
     inkscape:window-width="1366"
     inkscape:window-height="705"
     id="namedview142"
     showgrid="false"
     inkscape:zoom="1.6819602"
     inkscape:cx="344.23367"
     inkscape:cy="436.2453"
     inkscape:window-x="-8"
     inkscape:window-y="-8"
     inkscape:window-maximized="1"
     inkscape:current-layer="g138" />
  <title
     id="title2">SVG Picture created as Carte_protection-F.Paste.svg date 2019/01/17 13:18:41 </title>
  <desc
     id="desc4">Picture generated by PCBNEW </desc>
  <g
     style="fill:#000000; fill-opacity:1;stroke:#000000; stroke-opacity:1; stroke-linecap:round; stroke-linejoin:round; "
     transform="translate(0 0) scale(1 1)"
     id="g6" />
  <g
     style="fill:#000000; fill-opacity:0.0;  stroke:#000000; stroke-width:-0.000393701; stroke-opacity:1;  stroke-linecap:round; stroke-linejoin:round;"
     id="g8" />
  <g
     style="fill:#000000; fill-opacity:0.0;  stroke:#000000; stroke-width:0; stroke-opacity:1;  stroke-linecap:round; stroke-linejoin:round;"
     id="g10" />
  <g
     style="fill:#000000; fill-opacity:1.0;  stroke:#000000; stroke-width:0; stroke-opacity:1;  stroke-linecap:round; stroke-linejoin:round;"
     id="g138">
    <polyline
       style="fill-rule:evenodd;stroke:#ff0000;stroke-opacity:1;fill:none;stroke-width:39.37011182;stroke-miterlimit:4;stroke-dasharray:none"
       points="38377,36263 38377,36736 38023,36736 38023,36263 38377,36263 "
       id="polyline12" />
    <polyline
       style="fill-rule:evenodd;stroke:#ff0000;stroke-opacity:1;fill:none;stroke-width:39.37011182;stroke-miterlimit:4;stroke-dasharray:none"
       points="39676,36263 39676,36736 39322,36736 39322,36263 39676,36263 "
       id="polyline14" />
    <polyline
       style="fill-rule:evenodd;stroke:#ff0000;stroke-opacity:1;fill:none;stroke-width:39.37011182;stroke-miterlimit:4;stroke-dasharray:none"
       points="47373,39136 47373,38663 47727,38663 47727,39136 47373,39136 "
       id="polyline16" />
    <polyline
       style="fill-rule:evenodd;stroke:#ff0000;stroke-opacity:1;fill:none;stroke-width:39.37011182;stroke-miterlimit:4;stroke-dasharray:none"
       points="48672,39136 48672,38663 49026,38663 49026,39136 48672,39136 "
       id="polyline18" />
    <polyline
       style="fill-rule:evenodd;stroke:#ff0000;stroke-opacity:1;fill:none;stroke-width:39.37011182;stroke-miterlimit:4;stroke-dasharray:none"
       points="38438,35886 37966,35886 37966,35020 38438,35020 38438,35886 "
       id="polyline20" />
    <polyline
       style="fill-rule:evenodd;stroke:#ff0000;stroke-opacity:1;fill:none;stroke-width:39.37011182;stroke-miterlimit:4;stroke-dasharray:none"
       points="40233,35886 39761,35886 39761,35020 40233,35020 40233,35886 "
       id="polyline22" />
    <polyline
       style="fill-rule:evenodd;stroke:#ff0000;stroke-opacity:1;fill:none;stroke-width:39.37011182;stroke-miterlimit:4;stroke-dasharray:none"
       points="40241,32914 39159,32914 39159,31713 40241,31713 40241,32914 "
       id="polyline24" />
    <polyline
       style="fill-rule:evenodd;stroke:#ff0000;stroke-opacity:1;fill:none;stroke-width:39.37011182;stroke-miterlimit:4;stroke-dasharray:none"
       points="39040,34233 37958,34233 37958,33032 39040,33032 39040,34233 "
       id="polyline26" />
    <polyline
       style="fill-rule:evenodd;stroke:#ff0000;stroke-opacity:1;fill:none;stroke-width:39.37011182;stroke-miterlimit:4;stroke-dasharray:none"
       points="39040,32914 37958,32914 37958,31713 39040,31713 39040,32914 "
       id="polyline28" />
    <polyline
       style="fill-rule:evenodd;stroke:#ff0000;stroke-opacity:1;fill:none;stroke-width:39.37011182;stroke-miterlimit:4;stroke-dasharray:none"
       points="40241,34233 39159,34233 39159,33032 40241,33032 40241,34233 "
       id="polyline30" />
    <polyline
       style="fill-rule:evenodd;stroke:#ff0000;stroke-opacity:1;fill:none;stroke-width:39.37011182;stroke-miterlimit:4;stroke-dasharray:none"
       points="46698,35359 46698,31520 51501,31520 51501,35359 46698,35359 "
       id="polyline32" />
    <polyline
       style="fill-rule:evenodd;stroke:#ff0000;stroke-opacity:1;fill:none;stroke-width:39.37011182;stroke-miterlimit:4;stroke-dasharray:none"
       points="47785,38174 47785,36796 48414,36796 48414,38174 47785,38174 "
       id="polyline34" />
    <polyline
       style="fill-rule:evenodd;stroke:#ff0000;stroke-opacity:1;fill:none;stroke-width:39.37011182;stroke-miterlimit:4;stroke-dasharray:none"
       points="49785,38174 49785,36796 50414,36796 50414,38174 49785,38174 "
       id="polyline36" />
    <polyline
       style="fill-rule:evenodd;stroke:#ff0000;stroke-opacity:1;fill:none;stroke-width:39.37011182;stroke-miterlimit:4;stroke-dasharray:none"
       points="50614,42551 49985,42551 49985,41174 50614,41174 50614,42551 "
       id="polyline38" />
    <polyline
       style="fill-rule:evenodd;stroke:#ff0000;stroke-opacity:1;fill:none;stroke-width:39.37011182;stroke-miterlimit:4;stroke-dasharray:none"
       points="50614,40425 49985,40425 49985,39048 50614,39048 50614,40425 "
       id="polyline40" />
    <polyline
       style="fill-rule:evenodd;stroke:#ff0000;stroke-opacity:1;fill:none;stroke-width:39.37011182;stroke-miterlimit:4;stroke-dasharray:none"
       points="37193,40547 37193,41334 36406,41334 36406,40547 37193,40547 "
       id="polyline50" />
    <polyline
       style="fill-rule:evenodd;stroke:#ff0000;stroke-opacity:1;fill:none;stroke-width:39.37011182;stroke-miterlimit:4;stroke-dasharray:none"
       points="38965,40547 38965,41334 38177,41334 38177,40547 38965,40547 "
       id="polyline52" />
    <polyline
       style="fill-rule:evenodd;stroke:#ff0000;stroke-opacity:1;fill:none;stroke-width:39.37011182;stroke-miterlimit:4;stroke-dasharray:none"
       points="37193,43106 37193,43893 36406,43893 36406,43106 37193,43106 "
       id="polyline54" />
    <polyline
       style="fill-rule:evenodd;stroke:#ff0000;stroke-opacity:1;fill:none;stroke-width:39.37011182;stroke-miterlimit:4;stroke-dasharray:none"
       points="38965,43106 38965,43893 38177,43893 38177,43106 38965,43106 "
       id="polyline56" />
    <polyline
       style="fill-rule:evenodd;stroke:#ff0000;stroke-opacity:1;fill:none;stroke-width:39.37011182;stroke-miterlimit:4;stroke-dasharray:none"
       points="44657,40168 44657,39931 45268,39931 45268,40168 44657,40168 "
       id="polyline58" />
    <polyline
       style="fill-rule:evenodd;stroke:#ff0000;stroke-opacity:1;fill:none;stroke-width:39.37011182;stroke-miterlimit:4;stroke-dasharray:none"
       points="44657,40668 44657,40431 45268,40431 45268,40668 44657,40668 "
       id="polyline60" />
    <polyline
       style="fill-rule:evenodd;stroke:#ff0000;stroke-opacity:1;fill:none;stroke-width:39.37011182;stroke-miterlimit:4;stroke-dasharray:none"
       points="44657,41168 44657,40931 45268,40931 45268,41168 44657,41168 "
       id="polyline62" />
    <polyline
       style="fill-rule:evenodd;stroke:#ff0000;stroke-opacity:1;fill:none;stroke-width:39.37011182;stroke-miterlimit:4;stroke-dasharray:none"
       points="44657,41668 44657,41431 45268,41431 45268,41668 44657,41668 "
       id="polyline64" />
    <polyline
       style="fill-rule:evenodd;stroke:#ff0000;stroke-opacity:1;fill:none;stroke-width:39.37011182;stroke-miterlimit:4;stroke-dasharray:none"
       points="42531,41668 42531,41431 43142,41431 43142,41668 42531,41668 "
       id="polyline66" />
    <polyline
       style="fill-rule:evenodd;stroke:#ff0000;stroke-opacity:1;fill:none;stroke-width:39.37011182;stroke-miterlimit:4;stroke-dasharray:none"
       points="42531,41168 42531,40931 43142,40931 43142,41168 42531,41168 "
       id="polyline68" />
    <polyline
       style="fill-rule:evenodd;stroke:#ff0000;stroke-opacity:1;fill:none;stroke-width:39.37011182;stroke-miterlimit:4;stroke-dasharray:none"
       points="42531,40668 42531,40431 43142,40431 43142,40668 42531,40668 "
       id="polyline70" />
    <polyline
       style="fill-rule:evenodd;stroke:#ff0000;stroke-opacity:1;fill:none;stroke-width:39.37011182;stroke-miterlimit:4;stroke-dasharray:none"
       points="42531,40168 42531,39931 43142,39931 43142,40168 42531,40168 "
       id="polyline72" />
    <polyline
       style="fill-rule:evenodd;stroke:#ff0000;stroke-opacity:1;fill:none;stroke-width:39.37011182;stroke-miterlimit:4;stroke-dasharray:none"
       points="39385,41043 40014,41043 40014,41437 39385,41437 39385,41043 "
       id="polyline74" />
    <polyline
       style="fill-rule:evenodd;stroke:#ff0000;stroke-opacity:1;fill:none;stroke-width:39.37011182;stroke-miterlimit:4;stroke-dasharray:none"
       points="39385,39862 40014,39862 40014,40256 39385,40256 39385,39862 "
       id="polyline76" />
    <polyline
       style="fill-rule:evenodd;stroke:#ff0000;stroke-opacity:1;fill:none;stroke-width:39.37011182;stroke-miterlimit:4;stroke-dasharray:none"
       points="45187,42035 45187,42664 44793,42664 44793,42035 45187,42035 "
       id="polyline78" />
    <polyline
       style="fill-rule:evenodd;stroke:#ff0000;stroke-opacity:1;fill:none;stroke-width:39.37011182;stroke-miterlimit:4;stroke-dasharray:none"
       points="44006,42035 44006,42664 43612,42664 43612,42035 44006,42035 "
       id="polyline80" />
    <polyline
       style="fill-rule:evenodd;stroke:#ff0000;stroke-opacity:1;fill:none;stroke-width:39.37011182;stroke-miterlimit:4;stroke-dasharray:none"
       points="45503,42946 45996,42946 45996,43340 45503,43340 45503,42946 "
       id="polyline82" />
    <polyline
       style="fill-rule:evenodd;stroke:#ff0000;stroke-opacity:1;fill:none;stroke-width:39.37011182;stroke-miterlimit:4;stroke-dasharray:none"
       points="45503,42159 45996,42159 45996,42553 45503,42553 45503,42159 "
       id="polyline84" />
    <polyline
       style="fill-rule:evenodd;stroke:#ff0000;stroke-opacity:1;fill:none;stroke-width:39.37011182;stroke-miterlimit:4;stroke-dasharray:none"
       points="40963,41546 41436,41546 41436,42019 40963,42019 40963,41546 "
       id="polyline86" />
    <polyline
       style="fill-rule:evenodd;stroke:#ff0000;stroke-opacity:1;fill:none;stroke-width:39.37011182;stroke-miterlimit:4;stroke-dasharray:none"
       points="40963,40680 41436,40680 41436,41153 40963,41153 40963,40680 "
       id="polyline88" />
    <polyline
       style="fill-rule:evenodd;stroke:#ff0000;stroke-opacity:1;fill:none;stroke-width:39.37011182;stroke-miterlimit:4;stroke-dasharray:none"
       points="52345,41195 53054,41195 53054,42179 52345,42179 52345,41195 "
       id="polyline90" />
    <polyline
       style="fill-rule:evenodd;stroke:#ff0000;stroke-opacity:1;fill:none;stroke-width:39.37011182;stroke-miterlimit:4;stroke-dasharray:none"
       points="52345,39620 53054,39620 53054,40604 52345,40604 52345,39620 "
       id="polyline92" />
    <polyline
       style="fill-rule:evenodd;stroke:#ff0000;stroke-opacity:1;fill:none;stroke-width:39.37011182;stroke-miterlimit:4;stroke-dasharray:none"
       points="40705,39013 40194,39013 40194,38738 40705,38738 40705,39013 "
       id="polyline94" />
    <polyline
       style="fill-rule:evenodd;stroke:#ff0000;stroke-opacity:1;fill:none;stroke-width:39.37011182;stroke-miterlimit:4;stroke-dasharray:none"
       points="40705,39761 40194,39761 40194,39486 40705,39486 40705,39761 "
       id="polyline96" />
    <polyline
       style="fill-rule:evenodd;stroke:#ff0000;stroke-opacity:1;fill:none;stroke-width:39.37011182;stroke-miterlimit:4;stroke-dasharray:none"
       points="40705,40961 40194,40961 40194,40686 40705,40686 40705,40961 "
       id="polyline98" />
    <polyline
       style="fill-rule:evenodd;stroke:#ff0000;stroke-opacity:1;fill:none;stroke-width:39.37011182;stroke-miterlimit:4;stroke-dasharray:none"
       points="40705,40213 40194,40213 40194,39938 40705,39938 40705,40213 "
       id="polyline100" />
    <polyline
       style="fill-rule:evenodd;stroke:#ff0000;stroke-opacity:1;fill:none;stroke-width:39.37011182;stroke-miterlimit:4;stroke-dasharray:none"
       points="38455,37413 37944,37413 37944,37138 38455,37138 38455,37413 "
       id="polyline102" />
    <polyline
       style="fill-rule:evenodd;stroke:#ff0000;stroke-opacity:1;fill:none;stroke-width:39.37011182;stroke-miterlimit:4;stroke-dasharray:none"
       points="38455,38161 37944,38161 37944,37886 38455,37886 38455,38161 "
       id="polyline104" />
    <polyline
       style="fill-rule:evenodd;stroke:#ff0000;stroke-opacity:1;fill:none;stroke-width:39.37011182;stroke-miterlimit:4;stroke-dasharray:none"
       points="42255,39763 41744,39763 41744,39488 42255,39488 42255,39763 "
       id="polyline106" />
    <polyline
       style="fill-rule:evenodd;stroke:#ff0000;stroke-opacity:1;fill:none;stroke-width:39.37011182;stroke-miterlimit:4;stroke-dasharray:none"
       points="42255,40511 41744,40511 41744,40236 42255,40236 42255,40511 "
       id="polyline108" />
    <polyline
       style="fill-rule:evenodd;stroke:#ff0000;stroke-opacity:1;fill:none;stroke-width:39.37011182;stroke-miterlimit:4;stroke-dasharray:none"
       points="42255,41661 41744,41661 41744,41386 42255,41386 42255,41661 "
       id="polyline110" />
    <polyline
       style="fill-rule:evenodd;stroke:#ff0000;stroke-opacity:1;fill:none;stroke-width:39.37011182;stroke-miterlimit:4;stroke-dasharray:none"
       points="42255,40913 41744,40913 41744,40638 42255,40638 42255,40913 "
       id="polyline112" />
    <polyline
       style="fill-rule:evenodd;stroke:#ff0000;stroke-opacity:1;fill:none;stroke-width:39.37011182;stroke-miterlimit:4;stroke-dasharray:none"
       points="46005,41961 45494,41961 45494,41686 46005,41686 46005,41961 "
       id="polyline114" />
    <polyline
       style="fill-rule:evenodd;stroke:#ff0000;stroke-opacity:1;fill:none;stroke-width:39.37011182;stroke-miterlimit:4;stroke-dasharray:none"
       points="46005,41213 45494,41213 45494,40938 46005,40938 46005,41213 "
       id="polyline116" />
    <polyline
       style="fill-rule:evenodd;stroke:#ff0000;stroke-opacity:1;fill:none;stroke-width:39.37011182;stroke-miterlimit:4;stroke-dasharray:none"
       points="46834,39256 46165,39256 46165,38901 46834,38901 46834,39256 "
       id="polyline118" />
    <polyline
       style="fill-rule:evenodd;stroke:#ff0000;stroke-opacity:1;fill:none;stroke-width:39.37011182;stroke-miterlimit:4;stroke-dasharray:none"
       points="46834,40398 46165,40398 46165,40043 46834,40043 46834,40398 "
       id="polyline120" />
    <polyline
       style="fill-rule:evenodd;stroke:#ff0000;stroke-opacity:1;fill:none;stroke-width:39.37011182;stroke-miterlimit:4;stroke-dasharray:none"
       points="41455,39763 40944,39763 40944,39488 41455,39488 41455,39763 "
       id="polyline122" />
    <polyline
       style="fill-rule:evenodd;stroke:#ff0000;stroke-opacity:1;fill:none;stroke-width:39.37011182;stroke-miterlimit:4;stroke-dasharray:none"
       points="41455,40511 40944,40511 40944,40236 41455,40236 41455,40511 "
       id="polyline124" />
    <polyline
       style="fill-rule:evenodd;stroke:#ff0000;stroke-opacity:1;fill:none;stroke-width:39.37011182;stroke-miterlimit:4;stroke-dasharray:none"
       points="43032,36107 43032,37092 42638,37092 42638,36107 43032,36107 "
       id="polyline126" />
    <polyline
       style="fill-rule:evenodd;stroke:#ff0000;stroke-opacity:1;fill:none;stroke-width:39.37011182;stroke-miterlimit:4;stroke-dasharray:none"
       points="44961,36107 44961,37092 44567,37092 44567,36107 44961,36107 "
       id="polyline128" />
    <polyline
       style="fill-rule:evenodd;stroke:#ff0000;stroke-opacity:1;fill:none;stroke-width:39.37011182;stroke-miterlimit:4;stroke-dasharray:none"
       points="43094,38088 43605,38088 43605,38363 43094,38363 43094,38088 "
       id="polyline130" />
    <polyline
       style="fill-rule:evenodd;stroke:#ff0000;stroke-opacity:1;fill:none;stroke-width:39.37011182;stroke-miterlimit:4;stroke-dasharray:none"
       points="43094,38836 43605,38836 43605,39111 43094,39111 43094,38836 "
       id="polyline132" />
    <polyline
       style="fill-rule:evenodd;stroke:#ff0000;stroke-opacity:1;fill:none;stroke-width:39.37011182;stroke-miterlimit:4;stroke-dasharray:none"
       points="44505,38363 43994,38363 43994,38088 44505,38088 44505,38363 "
       id="polyline134" />
    <polyline
       style="fill-rule:evenodd;stroke:#ff0000;stroke-opacity:1;fill:none;stroke-width:39.37011182;stroke-miterlimit:4;stroke-dasharray:none"
       points="44505,39111 43994,39111 43994,38836 44505,38836 44505,39111 "
       id="polyline136" />
  </g>
</svg>
