<?xml version="1.0" standalone="no"?>
 <!DOCTYPE svg PUBLIC "-//W3C//DTD SVG 1.1//EN" 
 "http://www.w3.org/Graphics/SVG/1.1/DTD/svg11.dtd"> 
<svg xmlns="http://www.w3.org/2000/svg" version="1.1" 
    width="29.7002cm" height="21.0007cm" viewBox="0 0 116930 82680 ">
<title>SVG Picture created as Carte_protection-F.Cu.svg date 2019/01/17 13:15:24 </title>
  <desc>Picture generated by PCBNEW </desc>
<g style="fill:#000000; fill-opacity:1;stroke:#000000; stroke-opacity:1;
stroke-linecap:round; stroke-linejoin:round; "
 transform="translate(0 0) scale(1 1)">
</g>
<g style="fill:#000000; fill-opacity:0.0; 
stroke:#000000; stroke-width:-0.000393701; stroke-opacity:1; 
stroke-linecap:round; stroke-linejoin:round;">
</g>
<g style="fill:#000000; fill-opacity:0.0; 
stroke:#000000; stroke-width:0; stroke-opacity:1; 
stroke-linecap:round; stroke-linejoin:round;">
</g>
<g style="fill:#000000; fill-opacity:1.0; 
stroke:#000000; stroke-width:0; stroke-opacity:1; 
stroke-linecap:round; stroke-linejoin:round;">
<polyline style="fill-rule:evenodd;"
points="38377,36263
38377,36736
38023,36736
38023,36263
38377,36263
" /> 
<polyline style="fill-rule:evenodd;"
points="39676,36263
39676,36736
39322,36736
39322,36263
39676,36263
" /> 
<polyline style="fill-rule:evenodd;"
points="47373,39136
47373,38663
47727,38663
47727,39136
47373,39136
" /> 
<polyline style="fill-rule:evenodd;"
points="48672,39136
48672,38663
49026,38663
49026,39136
48672,39136
" /> 
<polyline style="fill-rule:evenodd;"
points="35114,35614
36885,35614
36885,37385
35114,37385
35114,35614
" /> 
<circle cx="36000" cy="39000" r="885.827" /> 
</g>
<g style="fill:#000000; fill-opacity:1.0; 
stroke:#000000; stroke-width:39.3701; stroke-opacity:1; 
stroke-linecap:round; stroke-linejoin:round;">
</g>
<g style="fill:#000000; fill-opacity:1.0; 
stroke:#000000; stroke-width:0; stroke-opacity:1; 
stroke-linecap:round; stroke-linejoin:round;">
<circle cx="54600" cy="42200" r="885.827" /> 
</g>
<g style="fill:#000000; fill-opacity:1.0; 
stroke:#000000; stroke-width:39.3701; stroke-opacity:1; 
stroke-linecap:round; stroke-linejoin:round;">
</g>
<g style="fill:#000000; fill-opacity:1.0; 
stroke:#000000; stroke-width:0; stroke-opacity:1; 
stroke-linecap:round; stroke-linejoin:round;">
<polyline style="fill-rule:evenodd;"
points="53714,38814
55485,38814
55485,40585
53714,40585
53714,38814
" /> 
<polyline style="fill-rule:evenodd;"
points="38438,35886
37966,35886
37966,35020
38438,35020
38438,35886
" /> 
<polyline style="fill-rule:evenodd;"
points="40233,35886
39761,35886
39761,35020
40233,35020
40233,35886
" /> 
<polyline style="fill-rule:evenodd;"
points="40241,34233
37958,34233
37958,31713
40241,31713
40241,34233
" /> 
<polyline style="fill-rule:evenodd;"
points="46698,35359
46698,31520
51501,31520
51501,35359
46698,35359
" /> 
<polyline style="fill-rule:evenodd;"
points="47785,38174
47785,36796
48414,36796
48414,38174
47785,38174
" /> 
<polyline style="fill-rule:evenodd;"
points="49785,38174
49785,36796
50414,36796
50414,38174
49785,38174
" /> 
<polyline style="fill-rule:evenodd;"
points="50614,42551
49985,42551
49985,41174
50614,41174
50614,42551
" /> 
<polyline style="fill-rule:evenodd;"
points="50614,40425
49985,40425
49985,39048
50614,39048
50614,40425
" /> 
<polyline style="fill-rule:evenodd;"
points="37486,29044
37495,29045
37505,29048
37514,29051
37523,29055
37531,29060
37539,29066
37546,29072
37552,29080
37558,29087
37563,29096
37567,29104
37570,29113
37573,29123
37574,29132
37575,29142
37575,34457
37574,34467
37573,34476
37570,34486
37567,34495
37563,34503
37558,34512
37552,34519
37546,34527
37539,34533
37531,34539
37523,34544
37514,34548
37505,34551
37495,34554
37486,34555
37476,34555
35705,34555
35695,34555
35685,34554
35676,34551
35667,34548
35658,34544
35650,34539
35642,34533
35635,34527
35629,34519
35623,34512
35618,34503
35614,34495
35610,34486
35608,34476
35607,34467
35606,34457
35606,29142
35607,29132
35608,29123
35610,29113
35614,29104
35618,29096
35623,29087
35629,29080
35635,29072
35642,29066
35650,29060
35658,29055
35667,29051
35676,29048
35685,29045
35695,29044
35705,29044
37476,29044
37486,29044
" /> 
<polyline style="fill-rule:evenodd;"
points="42604,29044
42614,29045
42623,29048
42632,29051
42641,29055
42649,29060
42657,29066
42664,29072
42670,29080
42676,29087
42681,29096
42685,29104
42689,29113
42691,29123
42692,29132
42693,29142
42693,34457
42692,34467
42691,34476
42689,34486
42685,34495
42681,34503
42676,34512
42670,34519
42664,34527
42657,34533
42649,34539
42641,34544
42632,34548
42623,34551
42614,34554
42604,34555
42594,34555
40823,34555
40813,34555
40804,34554
40794,34551
40785,34548
40776,34544
40768,34539
40760,34533
40753,34527
40747,34519
40741,34512
40736,34503
40732,34495
40729,34486
40726,34476
40725,34467
40724,34457
40724,29142
40725,29132
40726,29123
40729,29113
40732,29104
40736,29096
40741,29087
40747,29080
40753,29072
40760,29066
40768,29060
40776,29055
40785,29051
40794,29048
40804,29045
40813,29044
40823,29044
42594,29044
42604,29044
" /> 
<polyline style="fill-rule:evenodd;"
points="52595,31044
52605,31045
52614,31048
52623,31051
52632,31055
52640,31060
52648,31066
52655,31072
52661,31080
52667,31087
52672,31096
52676,31104
52680,31113
52682,31123
52683,31132
52684,31142
52684,36457
52683,36467
52682,36476
52680,36486
52676,36495
52672,36503
52667,36512
52661,36519
52655,36527
52648,36533
52640,36539
52632,36544
52623,36548
52614,36551
52605,36554
52595,36555
52585,36555
50814,36555
50804,36555
50794,36554
50785,36551
50776,36548
50767,36544
50759,36539
50751,36533
50744,36527
50738,36519
50732,36512
50727,36503
50723,36495
50719,36486
50717,36476
50716,36467
50715,36457
50715,31142
50716,31132
50717,31123
50719,31113
50723,31104
50727,31096
50732,31087
50738,31080
50744,31072
50751,31066
50759,31060
50767,31055
50776,31051
50785,31048
50794,31045
50804,31044
50814,31044
52585,31044
52595,31044
" /> 
<polyline style="fill-rule:evenodd;"
points="47477,31044
47486,31045
47496,31048
47505,31051
47514,31055
47522,31060
47530,31066
47537,31072
47543,31080
47549,31087
47554,31096
47558,31104
47561,31113
47564,31123
47565,31132
47566,31142
47566,36457
47565,36467
47564,36476
47561,36486
47558,36495
47554,36503
47549,36512
47543,36519
47537,36527
47530,36533
47522,36539
47514,36544
47505,36548
47496,36551
47486,36554
47477,36555
47467,36555
45696,36555
45686,36555
45676,36554
45667,36551
45658,36548
45649,36544
45641,36539
45633,36533
45626,36527
45619,36519
45614,36512
45609,36503
45605,36495
45601,36486
45599,36476
45598,36467
45597,36457
45597,31142
45598,31132
45599,31123
45601,31113
45605,31104
45609,31096
45614,31087
45619,31080
45626,31072
45633,31066
45641,31060
45649,31055
45658,31051
45667,31048
45676,31045
45686,31044
45696,31044
47467,31044
47477,31044
" /> 
<polyline style="fill-rule:evenodd;"
points="37193,40547
37193,41334
36406,41334
36406,40547
37193,40547
" /> 
<polyline style="fill-rule:evenodd;"
points="38965,40547
38965,41334
38177,41334
38177,40547
38965,40547
" /> 
<polyline style="fill-rule:evenodd;"
points="37193,43106
37193,43893
36406,43893
36406,43106
37193,43106
" /> 
<polyline style="fill-rule:evenodd;"
points="38965,43106
38965,43893
38177,43893
38177,43106
38965,43106
" /> 
<polyline style="fill-rule:evenodd;"
points="44657,40168
44657,39931
45268,39931
45268,40168
44657,40168
" /> 
<polyline style="fill-rule:evenodd;"
points="44657,40668
44657,40431
45268,40431
45268,40668
44657,40668
" /> 
<polyline style="fill-rule:evenodd;"
points="44657,41168
44657,40931
45268,40931
45268,41168
44657,41168
" /> 
<polyline style="fill-rule:evenodd;"
points="44657,41668
44657,41431
45268,41431
45268,41668
44657,41668
" /> 
<polyline style="fill-rule:evenodd;"
points="42531,41668
42531,41431
43142,41431
43142,41668
42531,41668
" /> 
<polyline style="fill-rule:evenodd;"
points="42531,41168
42531,40931
43142,40931
43142,41168
42531,41168
" /> 
<polyline style="fill-rule:evenodd;"
points="42531,40668
42531,40431
43142,40431
43142,40668
42531,40668
" /> 
<polyline style="fill-rule:evenodd;"
points="42531,40168
42531,39931
43142,39931
43142,40168
42531,40168
" /> 
<polyline style="fill-rule:evenodd;"
points="39385,41043
40014,41043
40014,41437
39385,41437
39385,41043
" /> 
<polyline style="fill-rule:evenodd;"
points="39385,39862
40014,39862
40014,40256
39385,40256
39385,39862
" /> 
<polyline style="fill-rule:evenodd;"
points="45187,42035
45187,42664
44793,42664
44793,42035
45187,42035
" /> 
<polyline style="fill-rule:evenodd;"
points="44006,42035
44006,42664
43612,42664
43612,42035
44006,42035
" /> 
<polyline style="fill-rule:evenodd;"
points="45503,42946
45996,42946
45996,43340
45503,43340
45503,42946
" /> 
<polyline style="fill-rule:evenodd;"
points="45503,42159
45996,42159
45996,42553
45503,42553
45503,42159
" /> 
<polyline style="fill-rule:evenodd;"
points="40963,41546
41436,41546
41436,42019
40963,42019
40963,41546
" /> 
<polyline style="fill-rule:evenodd;"
points="40963,40680
41436,40680
41436,41153
40963,41153
40963,40680
" /> 
<polyline style="fill-rule:evenodd;"
points="52345,41195
53054,41195
53054,42179
52345,42179
52345,41195
" /> 
<polyline style="fill-rule:evenodd;"
points="52345,39620
53054,39620
53054,40604
52345,40604
52345,39620
" /> 
<polyline style="fill-rule:evenodd;"
points="40705,39013
40194,39013
40194,38738
40705,38738
40705,39013
" /> 
<polyline style="fill-rule:evenodd;"
points="40705,39761
40194,39761
40194,39486
40705,39486
40705,39761
" /> 
<polyline style="fill-rule:evenodd;"
points="40705,40961
40194,40961
40194,40686
40705,40686
40705,40961
" /> 
<polyline style="fill-rule:evenodd;"
points="40705,40213
40194,40213
40194,39938
40705,39938
40705,40213
" /> 
<polyline style="fill-rule:evenodd;"
points="38455,37413
37944,37413
37944,37138
38455,37138
38455,37413
" /> 
<polyline style="fill-rule:evenodd;"
points="38455,38161
37944,38161
37944,37886
38455,37886
38455,38161
" /> 
<polyline style="fill-rule:evenodd;"
points="42255,39763
41744,39763
41744,39488
42255,39488
42255,39763
" /> 
<polyline style="fill-rule:evenodd;"
points="42255,40511
41744,40511
41744,40236
42255,40236
42255,40511
" /> 
<polyline style="fill-rule:evenodd;"
points="42255,41661
41744,41661
41744,41386
42255,41386
42255,41661
" /> 
<polyline style="fill-rule:evenodd;"
points="42255,40913
41744,40913
41744,40638
42255,40638
42255,40913
" /> 
<polyline style="fill-rule:evenodd;"
points="46005,41961
45494,41961
45494,41686
46005,41686
46005,41961
" /> 
<polyline style="fill-rule:evenodd;"
points="46005,41213
45494,41213
45494,40938
46005,40938
46005,41213
" /> 
<polyline style="fill-rule:evenodd;"
points="46834,39256
46165,39256
46165,38901
46834,38901
46834,39256
" /> 
<polyline style="fill-rule:evenodd;"
points="46834,40398
46165,40398
46165,40043
46834,40043
46834,40398
" /> 
<polyline style="fill-rule:evenodd;"
points="41455,39763
40944,39763
40944,39488
41455,39488
41455,39763
" /> 
<polyline style="fill-rule:evenodd;"
points="41455,40511
40944,40511
40944,40236
41455,40236
41455,40511
" /> 
<polyline style="fill-rule:evenodd;"
points="43032,36107
43032,37092
42638,37092
42638,36107
43032,36107
" /> 
<polyline style="fill-rule:evenodd;"
points="44961,36107
44961,37092
44567,37092
44567,36107
44961,36107
" /> 
<polyline style="fill-rule:evenodd;"
points="43094,38088
43605,38088
43605,38363
43094,38363
43094,38088
" /> 
<polyline style="fill-rule:evenodd;"
points="43094,38836
43605,38836
43605,39111
43094,39111
43094,38836
" /> 
<polyline style="fill-rule:evenodd;"
points="44505,38363
43994,38363
43994,38088
44505,38088
44505,38363
" /> 
<polyline style="fill-rule:evenodd;"
points="44505,39111
43994,39111
43994,38836
44505,38836
44505,39111
" /> 
<circle cx="45500" cy="39000" r="236.22" /> 
</g>
<g style="fill:#000000; fill-opacity:1.0; 
stroke:#000000; stroke-width:39.3701; stroke-opacity:1; 
stroke-linecap:round; stroke-linejoin:round;">
</g>
<g style="fill:#000000; fill-opacity:1.0; 
stroke:#000000; stroke-width:0; stroke-opacity:1; 
stroke-linecap:round; stroke-linejoin:round;">
<circle cx="35600" cy="40550" r="236.22" /> 
</g>
<g style="fill:#000000; fill-opacity:1.0; 
stroke:#000000; stroke-width:39.3701; stroke-opacity:1; 
stroke-linecap:round; stroke-linejoin:round;">
</g>
<g style="fill:#000000; fill-opacity:1.0; 
stroke:#000000; stroke-width:0; stroke-opacity:1; 
stroke-linecap:round; stroke-linejoin:round;">
<circle cx="35600" cy="41300" r="236.22" /> 
</g>
<g style="fill:#000000; fill-opacity:1.0; 
stroke:#000000; stroke-width:39.3701; stroke-opacity:1; 
stroke-linecap:round; stroke-linejoin:round;">
</g>
<g style="fill:#000000; fill-opacity:1.0; 
stroke:#000000; stroke-width:0; stroke-opacity:1; 
stroke-linecap:round; stroke-linejoin:round;">
<circle cx="40950" cy="42500" r="236.22" /> 
</g>
<g style="fill:#000000; fill-opacity:1.0; 
stroke:#000000; stroke-width:39.3701; stroke-opacity:1; 
stroke-linecap:round; stroke-linejoin:round;">
</g>
<g style="fill:#000000; fill-opacity:1.0; 
stroke:#000000; stroke-width:0; stroke-opacity:1; 
stroke-linecap:round; stroke-linejoin:round;">
<circle cx="41650" cy="42500" r="236.22" /> 
</g>
<g style="fill:#000000; fill-opacity:1.0; 
stroke:#000000; stroke-width:39.3701; stroke-opacity:1; 
stroke-linecap:round; stroke-linejoin:round;">
</g>
<g style="fill:#000000; fill-opacity:1.0; 
stroke:#000000; stroke-width:0; stroke-opacity:1; 
stroke-linecap:round; stroke-linejoin:round;">
<circle cx="42450" cy="42250" r="236.22" /> 
</g>
<g style="fill:#000000; fill-opacity:1.0; 
stroke:#000000; stroke-width:39.3701; stroke-opacity:1; 
stroke-linecap:round; stroke-linejoin:round;">
</g>
<g style="fill:#000000; fill-opacity:1.0; 
stroke:#000000; stroke-width:0; stroke-opacity:1; 
stroke-linecap:round; stroke-linejoin:round;">
<circle cx="43700" cy="43250" r="236.22" /> 
</g>
<g style="fill:#000000; fill-opacity:1.0; 
stroke:#000000; stroke-width:39.3701; stroke-opacity:1; 
stroke-linecap:round; stroke-linejoin:round;">
</g>
<g style="fill:#000000; fill-opacity:1.0; 
stroke:#000000; stroke-width:0; stroke-opacity:1; 
stroke-linecap:round; stroke-linejoin:round;">
<circle cx="44400" cy="43250" r="236.22" /> 
</g>
<g style="fill:#000000; fill-opacity:1.0; 
stroke:#000000; stroke-width:39.3701; stroke-opacity:1; 
stroke-linecap:round; stroke-linejoin:round;">
</g>
<g style="fill:#000000; fill-opacity:1.0; 
stroke:#000000; stroke-width:0; stroke-opacity:1; 
stroke-linecap:round; stroke-linejoin:round;">
<circle cx="45150" cy="43900" r="236.22" /> 
</g>
<g style="fill:#000000; fill-opacity:1.0; 
stroke:#000000; stroke-width:39.3701; stroke-opacity:1; 
stroke-linecap:round; stroke-linejoin:round;">
</g>
<g style="fill:#000000; fill-opacity:1.0; 
stroke:#000000; stroke-width:0; stroke-opacity:1; 
stroke-linecap:round; stroke-linejoin:round;">
<circle cx="45850" cy="43900" r="236.22" /> 
</g>
<g style="fill:#000000; fill-opacity:1.0; 
stroke:#000000; stroke-width:39.3701; stroke-opacity:1; 
stroke-linecap:round; stroke-linejoin:round;">
</g>
<g style="fill:#000000; fill-opacity:1.0; 
stroke:#000000; stroke-width:0; stroke-opacity:1; 
stroke-linecap:round; stroke-linejoin:round;">
<circle cx="46550" cy="43900" r="236.22" /> 
</g>
<g style="fill:#000000; fill-opacity:1.0; 
stroke:#000000; stroke-width:39.3701; stroke-opacity:1; 
stroke-linecap:round; stroke-linejoin:round;">
</g>
<g style="fill:#000000; fill-opacity:1.0; 
stroke:#000000; stroke-width:0; stroke-opacity:1; 
stroke-linecap:round; stroke-linejoin:round;">
<circle cx="49050" cy="43050" r="236.22" /> 
</g>
<g style="fill:#000000; fill-opacity:1.0; 
stroke:#000000; stroke-width:39.3701; stroke-opacity:1; 
stroke-linecap:round; stroke-linejoin:round;">
</g>
<g style="fill:#000000; fill-opacity:1.0; 
stroke:#000000; stroke-width:0; stroke-opacity:1; 
stroke-linecap:round; stroke-linejoin:round;">
<circle cx="49800" cy="43050" r="236.22" /> 
</g>
<g style="fill:#000000; fill-opacity:1.0; 
stroke:#000000; stroke-width:39.3701; stroke-opacity:1; 
stroke-linecap:round; stroke-linejoin:round;">
</g>
<g style="fill:#000000; fill-opacity:1.0; 
stroke:#000000; stroke-width:0; stroke-opacity:1; 
stroke-linecap:round; stroke-linejoin:round;">
<circle cx="50550" cy="43050" r="236.22" /> 
</g>
<g style="fill:#000000; fill-opacity:1.0; 
stroke:#000000; stroke-width:39.3701; stroke-opacity:1; 
stroke-linecap:round; stroke-linejoin:round;">
</g>
<g style="fill:#000000; fill-opacity:1.0; 
stroke:#000000; stroke-width:0; stroke-opacity:1; 
stroke-linecap:round; stroke-linejoin:round;">
<circle cx="51300" cy="43050" r="236.22" /> 
</g>
<g style="fill:#000000; fill-opacity:1.0; 
stroke:#000000; stroke-width:39.3701; stroke-opacity:1; 
stroke-linecap:round; stroke-linejoin:round;">
</g>
<g style="fill:#000000; fill-opacity:1.0; 
stroke:#000000; stroke-width:0; stroke-opacity:1; 
stroke-linecap:round; stroke-linejoin:round;">
<circle cx="52250" cy="42650" r="236.22" /> 
</g>
<g style="fill:#000000; fill-opacity:1.0; 
stroke:#000000; stroke-width:39.3701; stroke-opacity:1; 
stroke-linecap:round; stroke-linejoin:round;">
</g>
<g style="fill:#000000; fill-opacity:1.0; 
stroke:#000000; stroke-width:0; stroke-opacity:1; 
stroke-linecap:round; stroke-linejoin:round;">
<circle cx="53100" cy="42650" r="236.22" /> 
</g>
<g style="fill:#000000; fill-opacity:1.0; 
stroke:#000000; stroke-width:39.3701; stroke-opacity:1; 
stroke-linecap:round; stroke-linejoin:round;">
</g>
<g style="fill:#000000; fill-opacity:1.0; 
stroke:#000000; stroke-width:0; stroke-opacity:1; 
stroke-linecap:round; stroke-linejoin:round;">
<circle cx="41900" cy="38950" r="236.22" /> 
</g>
<g style="fill:#000000; fill-opacity:1.0; 
stroke:#000000; stroke-width:39.3701; stroke-opacity:1; 
stroke-linecap:round; stroke-linejoin:round;">
</g>
<g style="fill:#000000; fill-opacity:1.0; 
stroke:#000000; stroke-width:0; stroke-opacity:1; 
stroke-linecap:round; stroke-linejoin:round;">
<circle cx="39500" cy="42000" r="236.22" /> 
</g>
<g style="fill:#000000; fill-opacity:1.0; 
stroke:#000000; stroke-width:39.3701; stroke-opacity:1; 
stroke-linecap:round; stroke-linejoin:round;">
</g>
<g style="fill:#000000; fill-opacity:1.0; 
stroke:#000000; stroke-width:0; stroke-opacity:1; 
stroke-linecap:round; stroke-linejoin:round;">
<circle cx="43000" cy="42850" r="236.22" /> 
</g>
<g style="fill:#000000; fill-opacity:1.0; 
stroke:#000000; stroke-width:39.3701; stroke-opacity:1; 
stroke-linecap:round; stroke-linejoin:round;">
</g>
<g style="fill:#000000; fill-opacity:1.0; 
stroke:#000000; stroke-width:0; stroke-opacity:1; 
stroke-linecap:round; stroke-linejoin:round;">
<circle cx="40200" cy="42000" r="236.22" /> 
</g>
<g style="fill:#000000; fill-opacity:1.0; 
stroke:#000000; stroke-width:39.3701; stroke-opacity:1; 
stroke-linecap:round; stroke-linejoin:round;">
</g>
<g style="fill:#000000; fill-opacity:1.0; 
stroke:#000000; stroke-width:0; stroke-opacity:1; 
stroke-linecap:round; stroke-linejoin:round;">
<circle cx="43977.9" cy="39500" r="236.22" /> 
</g>
<g style="fill:#000000; fill-opacity:1.0; 
stroke:#000000; stroke-width:39.3701; stroke-opacity:1; 
stroke-linecap:round; stroke-linejoin:round;">
</g>
<g style="fill:#000000; fill-opacity:1.0; 
stroke:#000000; stroke-width:0; stroke-opacity:1; 
stroke-linecap:round; stroke-linejoin:round;">
<circle cx="45100" cy="39500" r="236.22" /> 
</g>
<g style="fill:#000000; fill-opacity:1.0; 
stroke:#000000; stroke-width:39.3701; stroke-opacity:1; 
stroke-linecap:round; stroke-linejoin:round;">
</g>
<g style="fill:#000000; fill-opacity:1.0; 
stroke:#000000; stroke-width:177.165; stroke-opacity:1; 
stroke-linecap:round; stroke-linejoin:round;">
</g>
<g style="fill:#000000; fill-opacity:0.0; 
stroke:#000000; stroke-width:177.165; stroke-opacity:1; 
stroke-linecap:round; stroke-linejoin:round;">
<path d="M40450 39624
L40450 40075
" />
<path d="M40525 40000
L40450 40075
" />
<path d="M42837 40050
L42787 40000
" />
<path d="M42787 40000
L40525 40000
" />
<path d="M40433 40059
L40450 40075
" />
<path d="M39700 40059
L40433 40059
" />
<path d="M39453 40059
L39700 40059
" />
<path d="M38571 40940
L39453 40059
" />
<path d="M44962 42322
L44990 42350
" />
<path d="M44962 41550
L44962 42322
" />
<path d="M45750 41824
L45750 42356
" />
<path d="M42000 39625
L41200 39625
" />
<path d="M43851 39625
L43977 39500
" />
<path d="M42000 39625
L43851 39625
" />
<path d="M48495 38900
L47895 39500
" />
<path d="M45434 39500
L45100 39500
" />
<path d="M48849 38900
L48495 38900
" />
<path d="M47895 39500
L45434 39500
" />
<path d="M38202 36498
L38200 36500
" />
<path d="M38202 35453
L38202 36498
" />
<path d="M38200 37275
L38200 37275
" />
<path d="M38200 36500
L38200 37275
" />
<path d="M39964 36500
L39649 36500
" />
<path d="M40450 38875
L40450 36985
" />
<path d="M40450 36985
L39964 36500
" />
<path d="M43468 38225
L43350 38225
" />
<path d="M43842 38600
L43468 38225
" />
<path d="M44962 40050
L44676 39763
" />
<path d="M44676 39763
L44676 39296
" />
<path d="M44676 39296
L44725 39248
" />
<path d="M44725 39248
L44725 38725
" />
<path d="M44725 38725
L44600 38600
" />
<path d="M44600 38600
L43842 38600
" />
<path d="M46679 38900
L46500 39079
" />
<path d="M47550 38900
L46679 38900
" />
<path d="M47865 38900
L47550 38900
" />
<path d="M48100 38665
L47865 38900
" />
<path d="M48100 37485
L48100 38665
" />
<path d="M41200 40374
L41200 40916
" />
<path d="M42489 41050
L42837 41050
" />
<path d="M42389 41150
L42489 41050
" />
<path d="M41200 40916
L41433 41150
" />
<path d="M41433 41150
L42389 41150
" />
<path d="M42175 40550
L42000 40374
" />
<path d="M42837 40550
L42175 40550
" />
<path d="M42000 40374
L42000 40775
" />
<path d="M42175 40600
L42000 40775
" />
<path d="M42175 40550
L42175 40600
" />
<path d="M45724 41050
L45750 41075
" />
<path d="M44962 41050
L45724 41050
" />
<path d="M45750 40970
L46500 40220
" />
<path d="M45750 41075
L45750 40970
" />
<path d="M43350 38974
L44250 38974
" />
<path d="M44401 40470
L44401 39125
" />
<path d="M44480 40550
L44401 40470
" />
<path d="M44401 39125
L44250 38974
" />
<path d="M44962 40550
L44480 40550
" />
</g>
<g style="fill:#000000; fill-opacity:1.0; 
stroke:#000000; stroke-width:100; stroke-opacity:1; 
stroke-linecap:round; stroke-linejoin:round;">
<polyline style="fill-rule:evenodd;"
points="43650,34299
43644,34341
43629,34376
43606,34406
43576,34429
43541,34444
43499,34450
37896,34450
37890,34450
37839,34457
37826,34460
37779,34480
37767,34486
37727,34517
37717,34527
37686,34567
37680,34579
37660,34626
37657,34639
37650,34690
37650,34696
37650,37399
37644,37441
37629,37476
37606,37506
37576,37529
37541,37544
37499,37550
33167,37550
33167,30351
33234,30451
33367,30584
33523,30689
33697,30761
33882,30798
34070,30798
34255,30761
34428,30689
34585,30584
34718,30451
34823,30295
34895,30121
34931,29936
34931,29748
34895,29563
34823,29389
34718,29233
34585,29100
34461,29017
43650,29017
43650,34299
" /> 
<polyline style="fill-rule:evenodd;"
points="55324,29032
55056,29301
54910,29652
54910,30032
55056,30383
55324,30652
55676,30798
56056,30798
56407,30652
56676,30383
56682,30368
56682,36450
48096,36450
48083,36451
47985,36478
47963,36491
47891,36563
47878,36585
47872,36604
47785,36604
47711,36619
47649,36661
47608,36723
47593,36796
47593,38174
47608,38247
47649,38309
47706,38347
47696,38350
44723,38350
44707,38339
44687,38335
44646,38294
44377,38294
44377,38323
44122,38323
44122,38294
43994,38294
43994,38157
44122,38157
44122,37947
44377,37947
44377,38157
44646,38157
44693,38110
44693,38050
44665,37981
44612,37928
44543,37900
44424,37900
44377,37947
44122,37947
44075,37900
43994,37900
43994,37488
43950,37488
43950,29017
55361,29017
55324,29032
" /> 
<polyline style="fill-rule:evenodd;"
points="56682,40650
53437,40650
53437,40604
53242,40604
53242,40405
53195,40358
52877,40358
52877,40604
52522,40604
52522,40358
52204,40358
52157,40405
52157,40604
51962,40604
51962,40650
48753,40650
48674,40628
48621,40575
48600,40496
48600,40128
49797,40128
49797,40463
49825,40532
49878,40585
49947,40613
50095,40613
50142,40566
50142,40081
50457,40081
50457,40566
50504,40613
50652,40613
50721,40585
50774,40532
50802,40463
50802,40128
50755,40081
50457,40081
50142,40081
49844,40081
49797,40128
48600,40128
48600,39637
48672,39637
48672,39583
52157,39583
52157,39819
52204,39866
52522,39866
52522,39479
52877,39479
52877,39866
53195,39866
53242,39819
53242,39583
53213,39514
53160,39461
53091,39432
52924,39432
52877,39479
52522,39479
52475,39432
52308,39432
52239,39461
52186,39514
52157,39583
48672,39583
48672,39324
48714,39324
48761,39277
48761,39018
48938,39018
48938,39277
48985,39324
49064,39324
49133,39295
49185,39242
49214,39173
49214,39065
49167,39018
48938,39018
48761,39018
48672,39018
48672,39010
49797,39010
49797,39345
49844,39392
50142,39392
50142,38907
50457,38907
50457,39392
50755,39392
50802,39345
50802,39010
50774,38941
50721,38888
50652,38860
50504,38860
50457,38907
50142,38907
50095,38860
49947,38860
49878,38888
49825,38941
49797,39010
48672,39010
48672,38781
48761,38781
48761,38522
48938,38522
48938,38781
49167,38781
49214,38734
49214,38626
49185,38557
49133,38504
49064,38475
48985,38475
48938,38522
48761,38522
48714,38475
48672,38475
48672,38162
48606,38162
48606,36879
48621,36824
48674,36771
48753,36750
56682,36750
56682,40650
" /> 
<polyline style="fill-rule:evenodd;"
points="37462,37886
37756,37886
37756,37908
37803,37955
38072,37955
38072,37886
38327,37886
38327,37955
38596,37955
38643,37908
38643,37886
38697,37886
38706,37893
38729,37923
38744,37958
38750,38000
38750,38403
38750,38409
38757,38460
38760,38473
38780,38520
38786,38532
38817,38572
38827,38582
38867,38613
38879,38619
38926,38639
38939,38642
38990,38649
38996,38650
40028,38650
40019,38665
40009,38701
40005,38738
40005,39013
40009,39050
40019,39085
40037,39118
40060,39147
40089,39170
40121,39188
40157,39198
40194,39202
40705,39202
40742,39198
40778,39188
40810,39170
40839,39147
40862,39118
40880,39085
40890,39050
40894,39013
40894,38738
40890,38701
40880,38665
40871,38650
43068,38650
43057,38651
43021,38661
42989,38679
42960,38702
42937,38731
42919,38764
42909,38799
42905,38836
42905,39111
42909,39148
42919,39184
42937,39216
42960,39245
42989,39268
43021,39286
43057,39296
43094,39300
43601,39300
43581,39349
42383,39349
42360,39331
42328,39313
42292,39303
42255,39299
41744,39299
41707,39303
41671,39313
41639,39331
41616,39349
41583,39349
41560,39331
41528,39313
41492,39303
41455,39299
40944,39299
40907,39303
40871,39313
40839,39331
40826,39342
40810,39329
40778,39311
40742,39301
40705,39297
40194,39297
40157,39301
40121,39311
40089,39329
40060,39352
40037,39381
40019,39414
40009,39449
40005,39486
40005,39673
39385,39673
39348,39677
39312,39688
39280,39705
39251,39729
39228,39757
39210,39790
39199,39825
39196,39862
39196,39925
38763,40358
38177,40358
38141,40362
38105,40372
38073,40390
38044,40413
38021,40442
38003,40475
37992,40510
37989,40547
37989,41334
37992,41371
38003,41406
38021,41439
38044,41468
38073,41491
38105,41508
38141,41519
38177,41523
38965,41523
39002,41519
39037,41508
39070,41491
39098,41468
39122,41439
39139,41406
39146,41385
39197,41385
39197,41455
39204,41492
39218,41526
39239,41557
39265,41583
39296,41603
39330,41617
39366,41625
39495,41625
39542,41578
39542,41338
39857,41338
39857,41578
39904,41625
40033,41625
40069,41617
40103,41603
40134,41583
40160,41557
40181,41526
40195,41492
40202,41455
40202,41385
40155,41338
39857,41338
39542,41338
39244,41338
39197,41385
39146,41385
39150,41371
39154,41334
39154,41025
39197,41025
39197,41095
39244,41142
39542,41142
39542,40902
39857,40902
39857,41142
40138,41142
40139,41142
40175,41149
40275,41149
40322,41102
40322,40892
40127,40892
40103,40877
40069,40863
40033,40855
39904,40855
39857,40902
39542,40902
39495,40855
39366,40855
39330,40863
39296,40877
39265,40897
39239,40923
39218,40954
39204,40988
39197,41025
39154,41025
39154,40749
39235,40667
40006,40667
40006,40708
40053,40755
40322,40755
40322,40545
40275,40498
40175,40498
40139,40505
40105,40519
40074,40540
40048,40566
40027,40597
40013,40631
40006,40667
39235,40667
39458,40445
40014,40445
40051,40441
40087,40430
40119,40413
40142,40394
40157,40398
40194,40402
40705,40402
40705,40498
40624,40498
40577,40545
40577,40755
40705,40755
40705,40892
40577,40892
40577,41102
40624,41149
40705,41149
40705,41561
40775,41561
40775,41618
40822,41664
41081,41664
41081,41406
41034,41359
40945,41359
40909,41366
40893,41372
40893,41328
40926,41338
40963,41341
41232,41341
41236,41346
41247,41355
41247,41355
41262,41367
41262,41386
41288,41386
41294,41389
41320,41403
41318,41406
41318,41664
41436,41664
41436,41901
41318,41901
41318,42160
41365,42207
41436,42207
41436,42520
41624,42520
41624,42261
41744,42261
41744,42016
43424,42016
43424,42145
43471,42192
43711,42192
43711,41894
43907,41894
43907,42192
44147,42192
44194,42145
44194,42016
44186,41980
44172,41946
44152,41915
44126,41889
44095,41868
44061,41854
44024,41847
43954,41847
43907,41894
43711,41894
43664,41847
43594,41847
43557,41854
43523,41868
43492,41889
43466,41915
43446,41946
43432,41980
43424,42016
41744,42016
41744,41849
41825,41849
41872,41802
41872,41592
42127,41592
42127,41802
42174,41849
42274,41849
42310,41842
42344,41828
42375,41807
42390,41792
42412,41813
42442,41834
42477,41848
42513,41855
42637,41855
42684,41808
42684,41609
42989,41609
42989,41808
43036,41855
43160,41855
43196,41848
43231,41834
43261,41813
43287,41787
43308,41757
43322,41722
43329,41686
43329,41656
43282,41609
42989,41609
42684,41609
42412,41609
42396,41592
42127,41592
41872,41592
41744,41592
41744,41455
41872,41455
41872,41426
42099,41426
42099,41431
42127,41431
42127,41455
42355,41455
42391,41490
42684,41490
42684,41431
42989,41431
42989,41490
43282,41490
43329,41443
43329,41431
43574,41431
43574,41244
43314,41244
43316,41240
43327,41204
43330,41168
43330,40931
43327,40895
43316,40859
43299,40827
43276,40800
43299,40772
43316,40740
43327,40704
43330,40668
43330,40431
43327,40395
43316,40359
43299,40327
43276,40300
43299,40272
43316,40240
43327,40204
43330,40168
43330,39931
43327,39902
43838,39902
43842,39902
43854,39907
43936,39924
44019,39924
44101,39907
44124,39898
44124,40456
44123,40470
44124,40484
44124,40484
44128,40524
44144,40576
44169,40622
44170,40624
44196,40656
44196,40656
44204,40666
44215,40675
44275,40735
44284,40746
44326,40780
44374,40806
44426,40822
44467,40826
44467,40826
44480,40827
44494,40826
44501,40826
44500,40827
44483,40859
44472,40895
44469,40931
44469,41168
44472,41204
44483,41240
44500,41272
44523,41300
44500,41327
44483,41359
44472,41395
44469,41431
44469,41668
44472,41704
44483,41740
44500,41772
44524,41801
44553,41825
44585,41842
44621,41853
44657,41856
44686,41856
44686,41879
44660,41901
44636,41930
44619,41962
44608,41998
44604,42035
44604,42664
44608,42701
44619,42737
44636,42769
44660,42798
44688,42821
44721,42839
44756,42850
44793,42853
45187,42853
45224,42850
45259,42839
45292,42821
45320,42798
45344,42769
45361,42737
45372,42701
45373,42689
45399,42710
45431,42727
45467,42738
45503,42741
45996,42741
46032,42738
46068,42727
46100,42710
46129,42686
46152,42657
46170,42625
46181,42589
46184,42553
46184,42254
49797,42254
49797,42570
49804,42606
49818,42640
49839,42671
49865,42697
49896,42718
49930,42732
49966,42739
50095,42739
50142,42692
50142,42207
50457,42207
50457,42692
50504,42739
50633,42739
50669,42732
50703,42718
50734,42697
50760,42671
50781,42640
50795,42606
50802,42570
50802,42254
50755,42207
50457,42207
50142,42207
49844,42207
49797,42254
46184,42254
46184,42159
46181,42122
46170,42087
46160,42069
46162,42066
46180,42034
46190,41998
46192,41980
52157,41980
52157,42198
52165,42234
52179,42268
52199,42299
52225,42325
52256,42345
52290,42360
52327,42367
52475,42367
52522,42320
52522,41933
52877,41933
52877,42320
52924,42367
53072,42367
53109,42360
53143,42345
53174,42325
53200,42299
53220,42268
53234,42234
53242,42198
53242,41980
53195,41933
52877,41933
52522,41933
52204,41933
52157,41980
46192,41980
46194,41961
46194,41686
46190,41649
46180,41614
46162,41581
46139,41552
46110,41529
46078,41511
46042,41501
46005,41497
45494,41497
45457,41501
45456,41501
45456,41431
45453,41397
45457,41398
45494,41402
46005,41402
46042,41398
46078,41388
46110,41370
46139,41347
46162,41318
46180,41285
46190,41250
46194,41213
46194,41155
49797,41155
49797,41471
49844,41518
50142,41518
50142,41033
50457,41033
50457,41518
50755,41518
50802,41471
50802,41176
52157,41176
52157,41394
52204,41441
52522,41441
52522,41054
52877,41054
52877,41441
53195,41441
53242,41394
53242,41176
53234,41140
53220,41106
53200,41075
53174,41049
53143,41028
53109,41014
53072,41007
52924,41007
52877,41054
52522,41054
52475,41007
52327,41007
52290,41014
52256,41028
52225,41049
52199,41075
52179,41106
52165,41140
52157,41176
50802,41176
50802,41155
50795,41119
50781,41085
50760,41054
50734,41028
50703,41007
50669,40993
50633,40986
50504,40986
50457,41033
50142,41033
50095,40986
49966,40986
49930,40993
49896,41007
49865,41028
49839,41054
49818,41085
49804,41119
49797,41155
46194,41155
46194,40938
46192,40919
46524,40586
46834,40586
46871,40583
46906,40572
46939,40554
46968,40531
46991,40502
47008,40470
47019,40434
47023,40398
47023,40043
47019,40006
47008,39971
46991,39938
46968,39910
46939,39886
46906,39869
46871,39858
46834,39854
46165,39854
46128,39858
46093,39869
46060,39886
46031,39910
46008,39938
45991,39971
45980,40006
45976,40043
45976,40353
45580,40749
45494,40749
45457,40753
45431,40760
45442,40740
45453,40704
45456,40668
45456,40431
45453,40395
45442,40359
45425,40327
45402,40300
45425,40272
45442,40240
45453,40204
45456,40168
45456,39931
45453,39895
45442,39859
45425,39827
45401,39798
45401,39798
45423,39776
47881,39776
47895,39777
47908,39776
47908,39776
47949,39772
48001,39756
48049,39730
48091,39696
48100,39685
48250,39536
48250,40703
48250,40709
48257,40760
48260,40773
48280,40820
48286,40832
48317,40872
48327,40882
48367,40913
48379,40919
48426,40939
48439,40942
48490,40949
48496,40950
56682,40950
56682,43675
56608,43564
56475,43431
56318,43326
56144,43254
55960,43217
55772,43217
55587,43254
55413,43326
55257,43431
55123,43564
55019,43720
54947,43894
54910,44079
54910,44267
54947,44451
55019,44625
55123,44782
55257,44915
55357,44982
34484,44982
34585,44915
34718,44782
34823,44625
34895,44451
34931,44267
34931,44079
34895,43894
34832,43743
36218,43743
36218,43912
36225,43948
36239,43982
36260,44013
36286,44039
36317,44060
36351,44074
36387,44081
36556,44081
36603,44034
36603,43696
36996,43696
36996,44034
37043,44081
37212,44081
37248,44074
37282,44060
37313,44039
37339,44013
37360,43982
37374,43948
37381,43912
37381,43743
37334,43696
36996,43696
36603,43696
36265,43696
36218,43743
34832,43743
34823,43720
34718,43564
34585,43431
34428,43326
34255,43254
34070,43217
33882,43217
33697,43254
33523,43326
33367,43431
33234,43564
33167,43664
33167,43087
36218,43087
36218,43256
36265,43303
36603,43303
36603,42965
36996,42965
36996,43303
37334,43303
37381,43256
37381,43106
37989,43106
37989,43893
37992,43930
38003,43965
38021,43998
38044,44027
38073,44050
38105,44068
38141,44078
38177,44082
38965,44082
39002,44078
39037,44068
39070,44050
39098,44027
39122,43998
39139,43965
39150,43930
39154,43893
39154,43289
45316,43289
45316,43359
45323,43395
45337,43429
45358,43460
45384,43486
45414,43506
45449,43521
45485,43528
45580,43528
45626,43481
45626,43242
45873,43242
45873,43481
45919,43528
46014,43528
46050,43521
46085,43506
46115,43486
46141,43460
46162,43429
46176,43395
46183,43359
46183,43289
46136,43242
45873,43242
45626,43242
45363,43242
45316,43289
39154,43289
39154,43106
39150,43069
39139,43034
39122,43001
39098,42972
39070,42949
39037,42931
39025,42928
45316,42928
45316,42998
45363,43045
45626,43045
45626,42806
45873,42806
45873,43045
46136,43045
46183,42998
46183,42928
46176,42892
46162,42857
46141,42827
46115,42800
46085,42780
46050,42766
46014,42759
45919,42759
45873,42806
45626,42806
45580,42759
45485,42759
45449,42766
45414,42780
45384,42800
45358,42827
45337,42857
45323,42892
45316,42928
39025,42928
39002,42921
38965,42917
38177,42917
38141,42921
38105,42931
38073,42949
38044,42972
38021,43001
38003,43034
37992,43069
37989,43106
37381,43106
37381,43087
37374,43051
37360,43017
37339,42986
37313,42960
37282,42939
37248,42925
37212,42918
37043,42918
36996,42965
36603,42965
36556,42918
36387,42918
36351,42925
36317,42939
36286,42960
36260,42986
36239,43017
36225,43051
36218,43087
33167,43087
33167,42554
43424,42554
43424,42683
43432,42719
43446,42753
43466,42784
43492,42810
43523,42831
43557,42845
43594,42852
43664,42852
43711,42805
43711,42507
43907,42507
43907,42805
43954,42852
44024,42852
44061,42845
44095,42831
44126,42810
44152,42784
44172,42753
44186,42719
44194,42683
44194,42554
44147,42507
43907,42507
43711,42507
43471,42507
43424,42554
33167,42554
33167,41948
40775,41948
40775,42037
40783,42074
40797,42108
40817,42139
40844,42165
40874,42185
40909,42199
40945,42207
41034,42207
41081,42160
41081,41901
40822,41901
40775,41948
33167,41948
33167,41184
36218,41184
36218,41353
36225,41389
36239,41423
36260,41454
36286,41480
36317,41501
36351,41515
36387,41522
36556,41522
36603,41475
36603,41137
36996,41137
36996,41475
37043,41522
37212,41522
37248,41515
37282,41501
37313,41480
37339,41454
37360,41423
37374,41389
37381,41353
37381,41184
37334,41137
36996,41137
36603,41137
36265,41137
36218,41184
33167,41184
33167,40528
36218,40528
36218,40697
36265,40744
36603,40744
36603,40406
36996,40406
36996,40744
37334,40744
37381,40697
37381,40528
37374,40492
37360,40458
37339,40427
37313,40401
37282,40380
37248,40366
37212,40359
37043,40359
36996,40406
36603,40406
36556,40359
36387,40359
36351,40366
36317,40380
36286,40401
36260,40427
36239,40458
36225,40492
36218,40528
33167,40528
33167,38139
37756,38139
37756,38180
37763,38216
37777,38250
37798,38281
37824,38307
37855,38328
37889,38342
37925,38349
38025,38349
38072,38302
38072,38092
38327,38092
38327,38302
38374,38349
38474,38349
38510,38342
38544,38328
38575,38307
38601,38281
38622,38250
38636,38216
38643,38180
38643,38139
38596,38092
38327,38092
38072,38092
37803,38092
37756,38139
33167,38139
33167,37850
37462,37850
37462,37886
" /> 
<polyline style="fill-rule:evenodd;"
points="46558,38651
46524,38669
46504,38685
46482,38703
46474,38713
46165,38713
46128,38716
46093,38727
46060,38745
46031,38768
46008,38797
45991,38829
45980,38865
45976,38901
45976,39223
45423,39223
45370,39170
45300,39124
45223,39092
45141,39075
45058,39075
45001,39087
45001,38738
45002,38725
45001,38711
45001,38711
44997,38670
44991,38650
46560,38650
46558,38651
" /> 
<polyline style="fill-rule:evenodd;"
points="43575,34771
43628,34824
43650,34903
43650,37488
43605,37488
43605,37900
43524,37900
43477,37947
43477,38157
43605,38157
43605,38294
43477,38294
43477,38350
43222,38350
43222,38294
42953,38294
42906,38341
42906,38350
39203,38350
39124,38328
39071,38275
39050,38196
39050,38050
42906,38050
42906,38110
42953,38157
43222,38157
43222,37947
43175,37900
43056,37900
42987,37928
42934,37981
42906,38050
39050,38050
39050,36665
39134,36665
39134,36773
39163,36842
39216,36895
39285,36924
39364,36924
39411,36877
39411,36618
39588,36618
39588,36877
39635,36924
39714,36924
39783,36895
39835,36842
39864,36773
39864,36665
39817,36618
39588,36618
39411,36618
39181,36618
39134,36665
39050,36665
39050,36226
39134,36226
39134,36334
39181,36381
39411,36381
39411,36122
39588,36122
39588,36381
39817,36381
39864,36334
39864,36226
39835,36157
39783,36104
39714,36075
39635,36075
39588,36122
39411,36122
39364,36075
39285,36075
39216,36104
39163,36157
39134,36226
39050,36226
39050,34903
39071,34824
39124,34771
39203,34750
43496,34750
43575,34771
" /> 
</g> 
</svg>
