%TF.GenerationSoftware,KiCad,Pcbnew,6.0.4-6f826c9f35~116~ubuntu21.10.1*%
%TF.CreationDate,2022-04-20T18:46:37+02:00*%
%TF.ProjectId,Carte_protection,43617274-655f-4707-926f-74656374696f,V.1.0*%
%TF.SameCoordinates,Original*%
%TF.FileFunction,Copper,L1,Top*%
%TF.FilePolarity,Positive*%
%FSLAX46Y46*%
G04 Gerber Fmt 4.6, Leading zero omitted, Abs format (unit mm)*
G04 Created by KiCad (PCBNEW 6.0.4-6f826c9f35~116~ubuntu21.10.1) date 2022-04-20 18:46:37*
%MOMM*%
%LPD*%
G01*
G04 APERTURE LIST*
G04 Aperture macros list*
%AMRoundRect*
0 Rectangle with rounded corners*
0 $1 Rounding radius*
0 $2 $3 $4 $5 $6 $7 $8 $9 X,Y pos of 4 corners*
0 Add a 4 corners polygon primitive as box body*
4,1,4,$2,$3,$4,$5,$6,$7,$8,$9,$2,$3,0*
0 Add four circle primitives for the rounded corners*
1,1,$1+$1,$2,$3*
1,1,$1+$1,$4,$5*
1,1,$1+$1,$6,$7*
1,1,$1+$1,$8,$9*
0 Add four rect primitives between the rounded corners*
20,1,$1+$1,$2,$3,$4,$5,0*
20,1,$1+$1,$4,$5,$6,$7,0*
20,1,$1+$1,$6,$7,$8,$9,0*
20,1,$1+$1,$8,$9,$2,$3,0*%
G04 Aperture macros list end*
%TA.AperFunction,SMDPad,CuDef*%
%ADD10RoundRect,0.250000X0.450000X-0.262500X0.450000X0.262500X-0.450000X0.262500X-0.450000X-0.262500X0*%
%TD*%
%TA.AperFunction,SMDPad,CuDef*%
%ADD11RoundRect,0.250000X-0.650000X0.325000X-0.650000X-0.325000X0.650000X-0.325000X0.650000X0.325000X0*%
%TD*%
%TA.AperFunction,SMDPad,CuDef*%
%ADD12RoundRect,0.243750X0.456250X-0.243750X0.456250X0.243750X-0.456250X0.243750X-0.456250X-0.243750X0*%
%TD*%
%TA.AperFunction,SMDPad,CuDef*%
%ADD13RoundRect,0.250000X-0.262500X-0.450000X0.262500X-0.450000X0.262500X0.450000X-0.262500X0.450000X0*%
%TD*%
%TA.AperFunction,SMDPad,CuDef*%
%ADD14R,1.800000X2.500000*%
%TD*%
%TA.AperFunction,SMDPad,CuDef*%
%ADD15R,0.900000X1.200000*%
%TD*%
%TA.AperFunction,SMDPad,CuDef*%
%ADD16RoundRect,0.250000X-0.475000X0.250000X-0.475000X-0.250000X0.475000X-0.250000X0.475000X0.250000X0*%
%TD*%
%TA.AperFunction,SMDPad,CuDef*%
%ADD17RoundRect,0.250000X0.362500X1.075000X-0.362500X1.075000X-0.362500X-1.075000X0.362500X-1.075000X0*%
%TD*%
%TA.AperFunction,SMDPad,CuDef*%
%ADD18R,2.200000X1.200000*%
%TD*%
%TA.AperFunction,SMDPad,CuDef*%
%ADD19R,6.400000X5.800000*%
%TD*%
%TA.AperFunction,ComponentPad*%
%ADD20RoundRect,0.250000X-0.845000X0.620000X-0.845000X-0.620000X0.845000X-0.620000X0.845000X0.620000X0*%
%TD*%
%TA.AperFunction,ComponentPad*%
%ADD21O,2.190000X1.740000*%
%TD*%
%TA.AperFunction,ComponentPad*%
%ADD22RoundRect,0.250000X-1.800000X1.330000X-1.800000X-1.330000X1.800000X-1.330000X1.800000X1.330000X0*%
%TD*%
%TA.AperFunction,ComponentPad*%
%ADD23O,4.100000X3.160000*%
%TD*%
%TA.AperFunction,SMDPad,CuDef*%
%ADD24RoundRect,0.250000X-0.550000X1.500000X-0.550000X-1.500000X0.550000X-1.500000X0.550000X1.500000X0*%
%TD*%
%TA.AperFunction,SMDPad,CuDef*%
%ADD25RoundRect,0.250000X0.625000X-0.312500X0.625000X0.312500X-0.625000X0.312500X-0.625000X-0.312500X0*%
%TD*%
%TA.AperFunction,SMDPad,CuDef*%
%ADD26RoundRect,0.150000X-0.825000X-0.150000X0.825000X-0.150000X0.825000X0.150000X-0.825000X0.150000X0*%
%TD*%
%TA.AperFunction,ComponentPad*%
%ADD27RoundRect,0.250000X0.845000X-0.620000X0.845000X0.620000X-0.845000X0.620000X-0.845000X-0.620000X0*%
%TD*%
%TA.AperFunction,SMDPad,CuDef*%
%ADD28R,1.200000X0.900000*%
%TD*%
%TA.AperFunction,SMDPad,CuDef*%
%ADD29R,1.100000X4.600000*%
%TD*%
%TA.AperFunction,SMDPad,CuDef*%
%ADD30R,10.800000X9.400000*%
%TD*%
%TA.AperFunction,ComponentPad*%
%ADD31RoundRect,0.250000X1.800000X-1.330000X1.800000X1.330000X-1.800000X1.330000X-1.800000X-1.330000X0*%
%TD*%
%TA.AperFunction,SMDPad,CuDef*%
%ADD32R,1.300000X1.550000*%
%TD*%
%TA.AperFunction,ViaPad*%
%ADD33C,1.200000*%
%TD*%
%TA.AperFunction,Conductor*%
%ADD34C,0.500000*%
%TD*%
%TA.AperFunction,Conductor*%
%ADD35C,1.000000*%
%TD*%
G04 APERTURE END LIST*
D10*
X161544000Y-130730000D03*
X161544000Y-128905000D03*
D11*
X193033735Y-128842986D03*
X193033735Y-131792986D03*
D12*
X203962000Y-124317500D03*
X203962000Y-122442500D03*
D11*
X187953735Y-128842986D03*
X187953735Y-131792986D03*
D13*
X179554500Y-110236000D03*
X181379500Y-110236000D03*
D12*
X161544000Y-125675000D03*
X161544000Y-123800000D03*
D14*
X208280000Y-118015000D03*
X208280000Y-122015000D03*
D10*
X180721000Y-121078000D03*
X180721000Y-119253000D03*
D13*
X183618500Y-110236000D03*
X185443500Y-110236000D03*
D15*
X196850000Y-115062000D03*
X200150000Y-115062000D03*
D16*
X196850000Y-129921000D03*
X196850000Y-131821000D03*
D17*
X184811500Y-107188000D03*
X180186500Y-107188000D03*
D18*
X169427000Y-107967500D03*
D19*
X163127000Y-105687500D03*
D18*
X169427000Y-103407500D03*
D20*
X153924000Y-124737500D03*
D21*
X153924000Y-127277500D03*
D22*
X152295000Y-104417500D03*
D23*
X152295000Y-108377500D03*
D24*
X214630000Y-117315000D03*
X214630000Y-122715000D03*
D10*
X203962000Y-120292500D03*
X203962000Y-118467500D03*
X200533000Y-124507000D03*
X200533000Y-122682000D03*
D25*
X196850000Y-121858500D03*
X196850000Y-118933500D03*
D26*
X188025000Y-122555000D03*
X188025000Y-123825000D03*
X188025000Y-125095000D03*
X188025000Y-126365000D03*
X192975000Y-126365000D03*
X192975000Y-125095000D03*
X192975000Y-123825000D03*
X192975000Y-122555000D03*
D11*
X180721000Y-123262500D03*
X180721000Y-126212500D03*
D10*
X169418000Y-111807000D03*
X169418000Y-109982000D03*
D11*
X190493735Y-128842986D03*
X190493735Y-131792986D03*
D27*
X164465000Y-114935000D03*
D21*
X164465000Y-112395000D03*
D28*
X172339000Y-104544500D03*
X172339000Y-107844500D03*
D10*
X200533000Y-120316000D03*
X200533000Y-118491000D03*
D29*
X196850000Y-110677000D03*
D30*
X199390000Y-101527000D03*
D29*
X201930000Y-110677000D03*
D10*
X184404000Y-125650000D03*
X184404000Y-123825000D03*
X196850000Y-127936000D03*
X196850000Y-126111000D03*
D31*
X212195000Y-109614806D03*
D23*
X212195000Y-105654806D03*
D10*
X161544000Y-120570000D03*
X161544000Y-118745000D03*
D32*
X176494000Y-120762500D03*
X176494000Y-128712500D03*
X171994000Y-120762500D03*
X171994000Y-128712500D03*
D20*
X166624000Y-124737500D03*
D21*
X166624000Y-127277500D03*
D10*
X166624000Y-120570000D03*
X166624000Y-118745000D03*
D33*
X179705000Y-128270000D03*
X161290000Y-133985000D03*
X205740000Y-125095000D03*
X187325000Y-134620000D03*
X174625000Y-127635000D03*
X167640000Y-113665000D03*
X171450000Y-113665000D03*
X200660000Y-126365000D03*
X168275000Y-129540000D03*
X182245000Y-128270000D03*
X152400000Y-129540000D03*
X175260000Y-118745000D03*
X197485000Y-134620000D03*
X177800000Y-126365000D03*
X168910000Y-113665000D03*
X192405000Y-134620000D03*
X164465000Y-129540000D03*
X176530000Y-126365000D03*
X213995000Y-102235000D03*
X210185000Y-100965000D03*
X213360000Y-125730000D03*
X207645000Y-104775000D03*
X186055000Y-134620000D03*
X210185000Y-123825000D03*
X215265000Y-100965000D03*
X215900000Y-125730000D03*
X186055000Y-130175000D03*
X217170000Y-125730000D03*
X156210000Y-129540000D03*
X207010000Y-125095000D03*
X216535000Y-104775000D03*
X186055000Y-128905000D03*
X153670000Y-129540000D03*
X212090000Y-125095000D03*
X205740000Y-126365000D03*
X162560000Y-132715000D03*
X215265000Y-103505000D03*
X196215000Y-134620000D03*
X208280000Y-125095000D03*
X151130000Y-128270000D03*
X217170000Y-124460000D03*
X215265000Y-104775000D03*
X210185000Y-102235000D03*
X183515000Y-127635000D03*
X209550000Y-125095000D03*
X151130000Y-129540000D03*
X208915000Y-100965000D03*
X160020000Y-132715000D03*
X177800000Y-118745000D03*
X188595000Y-134620000D03*
X210820000Y-125095000D03*
X194945000Y-134620000D03*
X211455000Y-102235000D03*
X212725000Y-100965000D03*
X212090000Y-123825000D03*
X207645000Y-102235000D03*
X216535000Y-106045000D03*
X216535000Y-103505000D03*
X193675000Y-134620000D03*
X175260000Y-126365000D03*
X154940000Y-129540000D03*
X214630000Y-125730000D03*
X208915000Y-102235000D03*
X201930000Y-126365000D03*
X161290000Y-132715000D03*
X211455000Y-100965000D03*
X176530000Y-117475000D03*
X206375000Y-123825000D03*
X207645000Y-106045000D03*
X208915000Y-103505000D03*
X213995000Y-100965000D03*
X168910000Y-128270000D03*
X215265000Y-102235000D03*
X178435000Y-127635000D03*
X191135000Y-134620000D03*
X176530000Y-118745000D03*
X180975000Y-128270000D03*
X199390000Y-126365000D03*
X189865000Y-134620000D03*
X208915000Y-104775000D03*
X203200000Y-126365000D03*
X170180000Y-113665000D03*
X208915000Y-106045000D03*
X198755000Y-134620000D03*
X212725000Y-102235000D03*
X163830000Y-128270000D03*
X215265000Y-106045000D03*
X184785000Y-127635000D03*
X216535000Y-102235000D03*
X207645000Y-103505000D03*
X156210000Y-128270000D03*
X204470000Y-126365000D03*
X167005000Y-129540000D03*
X186055000Y-127635000D03*
X165735000Y-129540000D03*
X190500000Y-125095000D03*
X203962000Y-121412000D03*
X200533000Y-121412000D03*
X190500000Y-123317000D03*
D34*
X183841500Y-123262500D02*
X184404000Y-123825000D01*
X180721000Y-123262500D02*
X183841500Y-123262500D01*
X180721000Y-123262500D02*
X180721000Y-121078000D01*
X171994000Y-120762500D02*
X174494000Y-123262500D01*
X171994000Y-125762500D02*
X174494000Y-123262500D01*
X166624000Y-120570000D02*
X166816500Y-120762500D01*
X185674000Y-122555000D02*
X184404000Y-123825000D01*
X166624000Y-124737500D02*
X166624000Y-120570000D01*
X188025000Y-122555000D02*
X185674000Y-122555000D01*
X166816500Y-120762500D02*
X171994000Y-120762500D01*
X174494000Y-123262500D02*
X180721000Y-123262500D01*
X171994000Y-128712500D02*
X171994000Y-125762500D01*
X192975000Y-126365000D02*
X192975000Y-128784251D01*
X187953735Y-128842986D02*
X190493735Y-128842986D01*
X192975000Y-128784251D02*
X193033735Y-128842986D01*
X190493735Y-128842986D02*
X193033735Y-128842986D01*
X196850000Y-127936000D02*
X196850000Y-129921000D01*
X169418000Y-109982000D02*
X169418000Y-107976500D01*
X172216000Y-107967500D02*
X172339000Y-107844500D01*
X169427000Y-107967500D02*
X172216000Y-107967500D01*
X169418000Y-107976500D02*
X169427000Y-107967500D01*
X191873500Y-122555000D02*
X179554500Y-110236000D01*
X179554500Y-118086500D02*
X180721000Y-119253000D01*
X167827489Y-105007011D02*
X169427000Y-103407500D01*
X192975000Y-122555000D02*
X191873500Y-122555000D01*
X179554500Y-110236000D02*
X179554500Y-118086500D01*
X167827489Y-109032511D02*
X167827489Y-105007011D01*
X164465000Y-112395000D02*
X167827489Y-109032511D01*
X196850000Y-118933500D02*
X196850000Y-115062000D01*
X196850000Y-115062000D02*
X196850000Y-110677000D01*
X188025000Y-125095000D02*
X190500000Y-125095000D01*
X203962000Y-120292500D02*
X203962000Y-122442500D01*
X189992000Y-123825000D02*
X190500000Y-123317000D01*
X188025000Y-123825000D02*
X189992000Y-123825000D01*
X200533000Y-120316000D02*
X200533000Y-122682000D01*
X195834000Y-125095000D02*
X196850000Y-126111000D01*
X192975000Y-125095000D02*
X195834000Y-125095000D01*
X196850000Y-121858500D02*
X196850000Y-124079000D01*
X196850000Y-124079000D02*
X195834000Y-125095000D01*
D35*
X181379500Y-110236000D02*
X183618500Y-110236000D01*
D34*
X194945000Y-123190000D02*
X194945000Y-121958221D01*
X194945000Y-121958221D02*
X194271779Y-121285000D01*
X191663482Y-121285000D02*
X183618500Y-113240018D01*
X194310000Y-123825000D02*
X194945000Y-123190000D01*
X183618500Y-113240018D02*
X183618500Y-110236000D01*
X192975000Y-123825000D02*
X194310000Y-123825000D01*
X194271779Y-121285000D02*
X191663482Y-121285000D01*
X161544000Y-117856000D02*
X164465000Y-114935000D01*
X166624000Y-117094000D02*
X164465000Y-114935000D01*
X166624000Y-118745000D02*
X166624000Y-117094000D01*
X161544000Y-118745000D02*
X161544000Y-117856000D01*
X154861500Y-123800000D02*
X153924000Y-124737500D01*
X161544000Y-123800000D02*
X154861500Y-123800000D01*
X161544000Y-120570000D02*
X161544000Y-123800000D01*
X161544000Y-128905000D02*
X161544000Y-125675000D01*
%TA.AperFunction,Conductor*%
G36*
X205042940Y-94350502D02*
G01*
X205089433Y-94404158D01*
X205099741Y-94440054D01*
X205103922Y-94471812D01*
X205105000Y-94488258D01*
X205105000Y-106806742D01*
X205103922Y-106823188D01*
X205090128Y-106927963D01*
X205081615Y-106959735D01*
X205044361Y-107049674D01*
X205027914Y-107078160D01*
X204968651Y-107155393D01*
X204945393Y-107178651D01*
X204868160Y-107237914D01*
X204839674Y-107254361D01*
X204749735Y-107291615D01*
X204717963Y-107300128D01*
X204613188Y-107313922D01*
X204596742Y-107315000D01*
X194945000Y-107315000D01*
X194945000Y-111251742D01*
X194943922Y-111268188D01*
X194930128Y-111372963D01*
X194921615Y-111404735D01*
X194884361Y-111494674D01*
X194867914Y-111523160D01*
X194808651Y-111600393D01*
X194785393Y-111623651D01*
X194708160Y-111682914D01*
X194679674Y-111699361D01*
X194589735Y-111736615D01*
X194557963Y-111745128D01*
X194453188Y-111758922D01*
X194436742Y-111760000D01*
X185039258Y-111760000D01*
X185022812Y-111758922D01*
X184918037Y-111745128D01*
X184886265Y-111736615D01*
X184796326Y-111699361D01*
X184767840Y-111682914D01*
X184690607Y-111623651D01*
X184667349Y-111600393D01*
X184608086Y-111523160D01*
X184591639Y-111494674D01*
X184554385Y-111404735D01*
X184545872Y-111372963D01*
X184532078Y-111268188D01*
X184531000Y-111251742D01*
X184531000Y-109220000D01*
X184083739Y-109220000D01*
X184045392Y-109204116D01*
X184045389Y-109204115D01*
X184037762Y-109200956D01*
X183920361Y-109185500D01*
X183868494Y-109185500D01*
X183820277Y-109175909D01*
X183780324Y-109159360D01*
X183751840Y-109142914D01*
X183674607Y-109083651D01*
X183651349Y-109060393D01*
X183592086Y-108983160D01*
X183575639Y-108954674D01*
X183538385Y-108864735D01*
X183529872Y-108832963D01*
X183516078Y-108728188D01*
X183515000Y-108711742D01*
X183515000Y-94488258D01*
X183516078Y-94471812D01*
X183520259Y-94440054D01*
X183548981Y-94375127D01*
X183608247Y-94336035D01*
X183645181Y-94330500D01*
X204974819Y-94330500D01*
X205042940Y-94350502D01*
G37*
%TD.AperFunction*%
%TA.AperFunction,Conductor*%
G36*
X156360931Y-106700002D02*
G01*
X156381905Y-106716905D01*
X156808095Y-107143095D01*
X156842121Y-107205407D01*
X156845000Y-107232190D01*
X156845000Y-110490000D01*
X165216575Y-110490000D01*
X165284696Y-110510002D01*
X165331189Y-110563658D01*
X165341293Y-110633932D01*
X165311799Y-110698512D01*
X165305670Y-110705095D01*
X164872903Y-111137862D01*
X164810591Y-111171888D01*
X164779189Y-111174345D01*
X164779180Y-111174657D01*
X164777379Y-111174605D01*
X164775556Y-111174500D01*
X164184726Y-111174500D01*
X164181939Y-111174749D01*
X164181933Y-111174749D01*
X164114152Y-111180798D01*
X164022995Y-111188934D01*
X164017581Y-111190415D01*
X164017576Y-111190416D01*
X163924998Y-111215743D01*
X163812848Y-111246424D01*
X163807790Y-111248836D01*
X163807786Y-111248838D01*
X163714526Y-111293321D01*
X163616204Y-111340218D01*
X163439277Y-111467353D01*
X163287660Y-111623810D01*
X163166145Y-111804643D01*
X163078573Y-112004137D01*
X163027713Y-112215985D01*
X163026784Y-112232100D01*
X163017204Y-112398257D01*
X163015172Y-112433492D01*
X163041346Y-112649782D01*
X163105408Y-112858019D01*
X163107978Y-112862999D01*
X163107980Y-112863003D01*
X163183964Y-113010218D01*
X163205333Y-113051620D01*
X163337962Y-113224466D01*
X163499104Y-113371094D01*
X163503858Y-113374076D01*
X163675527Y-113481764D01*
X163722605Y-113534907D01*
X163733477Y-113605066D01*
X163704693Y-113669966D01*
X163645391Y-113709001D01*
X163608571Y-113714501D01*
X163580640Y-113714501D01*
X163576556Y-113715039D01*
X163576550Y-113715039D01*
X163471425Y-113728878D01*
X163471423Y-113728878D01*
X163463238Y-113729956D01*
X163317159Y-113790464D01*
X163191718Y-113886718D01*
X163095464Y-114012159D01*
X163034956Y-114158238D01*
X163019500Y-114275639D01*
X163019500Y-114279761D01*
X163019501Y-115479074D01*
X162999499Y-115547195D01*
X162982596Y-115568169D01*
X161153062Y-117397703D01*
X161140672Y-117408570D01*
X161115718Y-117427718D01*
X161091550Y-117459215D01*
X161019464Y-117553159D01*
X160958956Y-117699238D01*
X160957878Y-117707426D01*
X160942103Y-117827250D01*
X160913381Y-117892177D01*
X160865400Y-117927212D01*
X160791159Y-117957964D01*
X160715254Y-118016208D01*
X160674944Y-118047139D01*
X160665718Y-118054218D01*
X160569464Y-118179659D01*
X160508956Y-118325738D01*
X160493500Y-118443139D01*
X160493501Y-119046860D01*
X160494039Y-119050944D01*
X160494039Y-119050950D01*
X160494749Y-119056341D01*
X160508956Y-119164262D01*
X160569464Y-119310341D01*
X160665718Y-119435782D01*
X160791159Y-119532036D01*
X160813020Y-119541091D01*
X160868301Y-119585639D01*
X160890722Y-119653002D01*
X160873164Y-119721794D01*
X160821202Y-119770172D01*
X160813023Y-119773908D01*
X160791159Y-119782964D01*
X160665718Y-119879218D01*
X160569464Y-120004659D01*
X160508956Y-120150738D01*
X160493500Y-120268139D01*
X160493501Y-120871860D01*
X160494039Y-120875944D01*
X160494039Y-120875950D01*
X160507878Y-120981074D01*
X160508956Y-120989262D01*
X160569464Y-121135341D01*
X160665718Y-121260782D01*
X160791159Y-121357036D01*
X160865719Y-121387920D01*
X160920999Y-121432467D01*
X160943500Y-121504328D01*
X160943500Y-122888598D01*
X160923498Y-122956719D01*
X160865717Y-123005007D01*
X160795693Y-123034011D01*
X160795688Y-123034014D01*
X160788061Y-123037173D01*
X160781510Y-123042200D01*
X160781508Y-123042201D01*
X160704539Y-123101262D01*
X160663926Y-123132426D01*
X160651572Y-123148526D01*
X160650283Y-123150206D01*
X160592945Y-123192072D01*
X160550322Y-123199500D01*
X154909119Y-123199500D01*
X154892673Y-123198422D01*
X154869688Y-123195396D01*
X154861500Y-123194318D01*
X154776564Y-123205500D01*
X154704738Y-123214956D01*
X154558659Y-123275464D01*
X154433218Y-123371718D01*
X154428195Y-123378264D01*
X154414071Y-123396671D01*
X154403203Y-123409062D01*
X154332170Y-123480095D01*
X154269858Y-123514121D01*
X154243075Y-123517000D01*
X153131572Y-123517001D01*
X153039640Y-123517001D01*
X153035556Y-123517539D01*
X153035550Y-123517539D01*
X152930425Y-123531378D01*
X152930423Y-123531378D01*
X152922238Y-123532456D01*
X152776159Y-123592964D01*
X152700836Y-123650761D01*
X152668041Y-123675926D01*
X152650718Y-123689218D01*
X152645695Y-123695764D01*
X152638244Y-123705474D01*
X152554464Y-123814659D01*
X152493956Y-123960738D01*
X152492878Y-123968925D01*
X152492878Y-123968926D01*
X152487648Y-124008656D01*
X152478500Y-124078139D01*
X152478501Y-125396860D01*
X152479039Y-125400944D01*
X152479039Y-125400950D01*
X152490609Y-125488837D01*
X152493956Y-125514262D01*
X152554464Y-125660341D01*
X152650718Y-125785782D01*
X152657264Y-125790805D01*
X152671673Y-125801861D01*
X152776159Y-125882036D01*
X152881730Y-125925765D01*
X152886223Y-125927626D01*
X152941504Y-125972174D01*
X152963925Y-126039538D01*
X152946367Y-126108329D01*
X152908372Y-126148555D01*
X152836844Y-126196710D01*
X152828559Y-126203371D01*
X152667070Y-126357424D01*
X152660021Y-126365392D01*
X152526797Y-126544452D01*
X152521198Y-126553482D01*
X152420046Y-126752434D01*
X152416045Y-126762287D01*
X152385643Y-126860198D01*
X152385424Y-126874299D01*
X152392156Y-126877500D01*
X155454515Y-126877500D01*
X155468046Y-126873527D01*
X155468850Y-126867930D01*
X155389712Y-126667539D01*
X155384985Y-126658017D01*
X155269204Y-126467215D01*
X155262938Y-126458622D01*
X155116667Y-126290059D01*
X155109036Y-126282639D01*
X154934598Y-126139608D01*
X154894603Y-126080948D01*
X154892672Y-126009978D01*
X154929416Y-125949230D01*
X154966270Y-125925765D01*
X155071841Y-125882036D01*
X155176327Y-125801861D01*
X155190736Y-125790805D01*
X155197282Y-125785782D01*
X155293536Y-125660341D01*
X155348561Y-125527499D01*
X155350884Y-125521891D01*
X155350884Y-125521890D01*
X155354044Y-125514262D01*
X155369500Y-125396861D01*
X155369499Y-124526500D01*
X155389501Y-124458379D01*
X155443157Y-124411886D01*
X155495499Y-124400500D01*
X160550322Y-124400500D01*
X160618443Y-124420502D01*
X160650282Y-124449794D01*
X160663926Y-124467574D01*
X160670476Y-124472600D01*
X160770232Y-124549146D01*
X160788061Y-124562827D01*
X160864853Y-124594635D01*
X160928723Y-124621091D01*
X160984004Y-124665639D01*
X161006425Y-124733003D01*
X160988867Y-124801794D01*
X160936905Y-124850172D01*
X160928723Y-124853909D01*
X160788061Y-124912173D01*
X160781510Y-124917200D01*
X160781508Y-124917201D01*
X160762092Y-124932100D01*
X160663926Y-125007426D01*
X160658900Y-125013976D01*
X160593304Y-125099462D01*
X160568673Y-125131561D01*
X160546913Y-125184095D01*
X160512732Y-125266616D01*
X160508795Y-125276120D01*
X160507717Y-125284308D01*
X160506473Y-125293761D01*
X160493500Y-125392298D01*
X160493500Y-125957702D01*
X160494038Y-125961788D01*
X160494038Y-125961789D01*
X160498450Y-125995304D01*
X160508795Y-126073880D01*
X160568673Y-126218439D01*
X160573700Y-126224990D01*
X160573701Y-126224992D01*
X160617936Y-126282639D01*
X160663926Y-126342574D01*
X160670476Y-126347600D01*
X160760854Y-126416950D01*
X160788061Y-126437827D01*
X160795688Y-126440986D01*
X160795693Y-126440989D01*
X160865717Y-126469993D01*
X160920999Y-126514541D01*
X160943500Y-126586402D01*
X160943500Y-127970672D01*
X160923498Y-128038793D01*
X160865719Y-128087080D01*
X160791159Y-128117964D01*
X160665718Y-128214218D01*
X160569464Y-128339659D01*
X160508956Y-128485738D01*
X160493500Y-128603139D01*
X160493501Y-129206860D01*
X160508956Y-129324262D01*
X160569464Y-129470341D01*
X160665718Y-129595782D01*
X160672264Y-129600805D01*
X160672265Y-129600806D01*
X160697929Y-129620498D01*
X160739798Y-129677835D01*
X160744021Y-129748706D01*
X160709258Y-129810610D01*
X160687531Y-129827606D01*
X160626190Y-129865566D01*
X160614792Y-129874599D01*
X160500261Y-129989329D01*
X160491249Y-130000740D01*
X160406184Y-130138743D01*
X160400037Y-130151924D01*
X160348861Y-130306212D01*
X160347169Y-130314107D01*
X160349502Y-130326676D01*
X160361738Y-130330000D01*
X162724843Y-130330000D01*
X162739160Y-130325796D01*
X162740974Y-130314732D01*
X162738851Y-130304900D01*
X162687412Y-130150716D01*
X162681239Y-130137538D01*
X162595937Y-129999693D01*
X162586901Y-129988292D01*
X162472171Y-129873761D01*
X162460760Y-129864749D01*
X162400673Y-129827711D01*
X162353180Y-129774939D01*
X162341756Y-129704867D01*
X162370030Y-129639743D01*
X162390084Y-129620489D01*
X162415735Y-129600806D01*
X162415736Y-129600805D01*
X162422282Y-129595782D01*
X162518536Y-129470341D01*
X162579044Y-129324262D01*
X162594500Y-129206861D01*
X162594499Y-128603140D01*
X162591888Y-128583302D01*
X162580122Y-128493925D01*
X162580122Y-128493923D01*
X162579044Y-128485738D01*
X162518536Y-128339659D01*
X162422282Y-128214218D01*
X162296841Y-128117964D01*
X162222281Y-128087080D01*
X162167001Y-128042533D01*
X162144500Y-127970672D01*
X162144500Y-127687070D01*
X165079150Y-127687070D01*
X165158288Y-127887461D01*
X165163015Y-127896983D01*
X165278796Y-128087785D01*
X165285062Y-128096378D01*
X165431333Y-128264941D01*
X165438964Y-128272361D01*
X165611542Y-128413868D01*
X165620309Y-128419893D01*
X165814262Y-128530297D01*
X165823926Y-128534762D01*
X166033711Y-128610910D01*
X166043979Y-128613681D01*
X166206174Y-128643011D01*
X166219413Y-128641593D01*
X166223823Y-128627518D01*
X167024000Y-128627518D01*
X167028310Y-128642196D01*
X167040193Y-128644259D01*
X167076707Y-128641161D01*
X167087179Y-128639371D01*
X167303202Y-128583302D01*
X167313242Y-128579766D01*
X167516732Y-128488101D01*
X167526018Y-128482932D01*
X167711155Y-128358290D01*
X167719441Y-128351629D01*
X167880930Y-128197576D01*
X167887979Y-128189608D01*
X168021203Y-128010548D01*
X168026802Y-128001518D01*
X168127954Y-127802566D01*
X168131955Y-127792713D01*
X168162357Y-127694802D01*
X168162576Y-127680701D01*
X168155844Y-127677500D01*
X167042115Y-127677500D01*
X167026876Y-127681975D01*
X167025671Y-127683365D01*
X167024000Y-127691048D01*
X167024000Y-128627518D01*
X166223823Y-128627518D01*
X166224000Y-128626954D01*
X166224000Y-127695615D01*
X166219525Y-127680376D01*
X166218135Y-127679171D01*
X166210452Y-127677500D01*
X165093485Y-127677500D01*
X165079954Y-127681473D01*
X165079150Y-127687070D01*
X162144500Y-127687070D01*
X162144500Y-126586402D01*
X162164502Y-126518281D01*
X162222283Y-126469993D01*
X162292307Y-126440989D01*
X162292312Y-126440986D01*
X162299939Y-126437827D01*
X162327147Y-126416950D01*
X162417524Y-126347600D01*
X162424074Y-126342574D01*
X162470064Y-126282639D01*
X162514299Y-126224992D01*
X162514300Y-126224990D01*
X162519327Y-126218439D01*
X162579205Y-126073880D01*
X162589550Y-125995304D01*
X162593962Y-125961789D01*
X162593962Y-125961788D01*
X162594500Y-125957702D01*
X162594500Y-125392298D01*
X162581528Y-125293761D01*
X162580283Y-125284308D01*
X162579205Y-125276120D01*
X162575269Y-125266616D01*
X162541087Y-125184095D01*
X162519327Y-125131561D01*
X162494697Y-125099462D01*
X162429100Y-125013976D01*
X162424074Y-125007426D01*
X162325908Y-124932100D01*
X162306492Y-124917201D01*
X162306490Y-124917200D01*
X162299939Y-124912173D01*
X162159277Y-124853909D01*
X162103996Y-124809361D01*
X162081575Y-124741997D01*
X162099133Y-124673206D01*
X162151095Y-124624828D01*
X162159277Y-124621091D01*
X162223147Y-124594635D01*
X162299939Y-124562827D01*
X162317769Y-124549146D01*
X162417524Y-124472600D01*
X162424074Y-124467574D01*
X162437717Y-124449794D01*
X162514299Y-124349992D01*
X162514300Y-124349990D01*
X162519327Y-124343439D01*
X162557248Y-124251890D01*
X162576045Y-124206510D01*
X162576046Y-124206507D01*
X162579205Y-124198880D01*
X162580637Y-124188000D01*
X162593962Y-124086789D01*
X162593962Y-124086788D01*
X162594500Y-124082702D01*
X162594500Y-123517298D01*
X162591828Y-123496998D01*
X162580283Y-123409308D01*
X162579205Y-123401120D01*
X162575014Y-123391000D01*
X162544550Y-123317454D01*
X162519327Y-123256561D01*
X162512253Y-123247341D01*
X162429100Y-123138976D01*
X162424074Y-123132426D01*
X162383461Y-123101262D01*
X162306492Y-123042201D01*
X162306490Y-123042200D01*
X162299939Y-123037173D01*
X162292312Y-123034014D01*
X162292307Y-123034011D01*
X162222283Y-123005007D01*
X162167001Y-122960459D01*
X162144500Y-122888598D01*
X162144500Y-121504328D01*
X162164502Y-121436207D01*
X162222281Y-121387920D01*
X162296841Y-121357036D01*
X162422282Y-121260782D01*
X162518536Y-121135341D01*
X162579044Y-120989262D01*
X162584734Y-120946039D01*
X162593962Y-120875948D01*
X162593962Y-120875947D01*
X162594500Y-120871861D01*
X162594499Y-120268140D01*
X162590448Y-120237361D01*
X162580122Y-120158925D01*
X162580122Y-120158923D01*
X162579044Y-120150738D01*
X162518536Y-120004659D01*
X162422282Y-119879218D01*
X162296841Y-119782964D01*
X162274980Y-119773909D01*
X162219699Y-119729361D01*
X162197278Y-119661998D01*
X162214836Y-119593206D01*
X162266798Y-119544828D01*
X162274980Y-119541091D01*
X162296841Y-119532036D01*
X162422282Y-119435782D01*
X162518536Y-119310341D01*
X162579044Y-119164262D01*
X162586987Y-119103925D01*
X162593962Y-119050948D01*
X162593962Y-119050947D01*
X162594500Y-119046861D01*
X162594499Y-118443140D01*
X162589955Y-118408616D01*
X162580122Y-118333925D01*
X162580122Y-118333923D01*
X162579044Y-118325738D01*
X162518536Y-118179659D01*
X162422282Y-118054218D01*
X162415736Y-118049195D01*
X162415732Y-118049191D01*
X162407672Y-118043006D01*
X162365807Y-117985667D01*
X162361587Y-117914796D01*
X162395284Y-117853951D01*
X164056830Y-116192405D01*
X164119142Y-116158379D01*
X164145925Y-116155500D01*
X164465000Y-116155500D01*
X164784074Y-116155499D01*
X164852195Y-116175501D01*
X164873169Y-116192404D01*
X165986595Y-117305830D01*
X166020621Y-117368142D01*
X166023500Y-117394925D01*
X166023500Y-117810672D01*
X166003498Y-117878793D01*
X165945719Y-117927080D01*
X165871159Y-117957964D01*
X165795254Y-118016208D01*
X165754944Y-118047139D01*
X165745718Y-118054218D01*
X165649464Y-118179659D01*
X165588956Y-118325738D01*
X165573500Y-118443139D01*
X165573501Y-119046860D01*
X165574039Y-119050944D01*
X165574039Y-119050950D01*
X165574749Y-119056341D01*
X165588956Y-119164262D01*
X165649464Y-119310341D01*
X165745718Y-119435782D01*
X165871159Y-119532036D01*
X165893020Y-119541091D01*
X165948301Y-119585639D01*
X165970722Y-119653002D01*
X165953164Y-119721794D01*
X165901202Y-119770172D01*
X165893023Y-119773908D01*
X165871159Y-119782964D01*
X165745718Y-119879218D01*
X165649464Y-120004659D01*
X165588956Y-120150738D01*
X165573500Y-120268139D01*
X165573501Y-120871860D01*
X165574039Y-120875944D01*
X165574039Y-120875950D01*
X165587878Y-120981074D01*
X165588956Y-120989262D01*
X165649464Y-121135341D01*
X165745718Y-121260782D01*
X165871159Y-121357036D01*
X165945719Y-121387920D01*
X166000999Y-121432467D01*
X166023500Y-121504328D01*
X166023500Y-123391001D01*
X166003498Y-123459122D01*
X165949842Y-123505615D01*
X165897500Y-123517001D01*
X165739640Y-123517001D01*
X165735556Y-123517539D01*
X165735550Y-123517539D01*
X165630425Y-123531378D01*
X165630423Y-123531378D01*
X165622238Y-123532456D01*
X165476159Y-123592964D01*
X165400836Y-123650761D01*
X165368041Y-123675926D01*
X165350718Y-123689218D01*
X165345695Y-123695764D01*
X165338244Y-123705474D01*
X165254464Y-123814659D01*
X165193956Y-123960738D01*
X165192878Y-123968925D01*
X165192878Y-123968926D01*
X165187648Y-124008656D01*
X165178500Y-124078139D01*
X165178501Y-125396860D01*
X165179039Y-125400944D01*
X165179039Y-125400950D01*
X165190609Y-125488837D01*
X165193956Y-125514262D01*
X165254464Y-125660341D01*
X165350718Y-125785782D01*
X165357264Y-125790805D01*
X165371673Y-125801861D01*
X165476159Y-125882036D01*
X165581730Y-125925765D01*
X165586223Y-125927626D01*
X165641504Y-125972174D01*
X165663925Y-126039538D01*
X165646367Y-126108329D01*
X165608372Y-126148555D01*
X165536844Y-126196710D01*
X165528559Y-126203371D01*
X165367070Y-126357424D01*
X165360021Y-126365392D01*
X165226797Y-126544452D01*
X165221198Y-126553482D01*
X165120046Y-126752434D01*
X165116045Y-126762287D01*
X165085643Y-126860198D01*
X165085424Y-126874299D01*
X165092156Y-126877500D01*
X168154515Y-126877500D01*
X168168046Y-126873527D01*
X168168850Y-126867930D01*
X168089712Y-126667539D01*
X168084985Y-126658017D01*
X167969204Y-126467215D01*
X167962938Y-126458622D01*
X167816667Y-126290059D01*
X167809036Y-126282639D01*
X167634598Y-126139608D01*
X167594603Y-126080948D01*
X167592672Y-126009978D01*
X167629416Y-125949230D01*
X167666270Y-125925765D01*
X167771841Y-125882036D01*
X167876327Y-125801861D01*
X167890736Y-125790805D01*
X167897282Y-125785782D01*
X167993536Y-125660341D01*
X168048561Y-125527499D01*
X168050884Y-125521891D01*
X168050884Y-125521890D01*
X168054044Y-125514262D01*
X168069500Y-125396861D01*
X168069499Y-124078140D01*
X168068535Y-124070812D01*
X168055122Y-123968925D01*
X168055122Y-123968923D01*
X168054044Y-123960738D01*
X167993536Y-123814659D01*
X167909756Y-123705474D01*
X167902305Y-123695764D01*
X167897282Y-123689218D01*
X167879960Y-123675926D01*
X167847164Y-123650761D01*
X167771841Y-123592964D01*
X167625762Y-123532456D01*
X167596480Y-123528601D01*
X167512448Y-123517538D01*
X167512447Y-123517538D01*
X167508361Y-123517000D01*
X167350500Y-123517000D01*
X167282379Y-123496998D01*
X167235886Y-123443342D01*
X167224500Y-123391000D01*
X167224500Y-121504328D01*
X167244502Y-121436207D01*
X167302283Y-121387919D01*
X167339289Y-121372591D01*
X167387506Y-121363000D01*
X170867500Y-121363000D01*
X170935621Y-121383002D01*
X170982114Y-121436658D01*
X170993500Y-121489000D01*
X170993500Y-121570718D01*
X170994170Y-121575268D01*
X170994170Y-121575271D01*
X170995186Y-121582172D01*
X171003642Y-121639612D01*
X171055068Y-121744355D01*
X171137650Y-121826793D01*
X171147006Y-121831366D01*
X171147007Y-121831367D01*
X171179460Y-121847230D01*
X171242482Y-121878036D01*
X171272973Y-121882484D01*
X171306256Y-121887340D01*
X171306260Y-121887340D01*
X171310782Y-121888000D01*
X172218075Y-121888000D01*
X172286196Y-121908002D01*
X172307170Y-121924905D01*
X173555670Y-123173405D01*
X173589696Y-123235717D01*
X173584631Y-123306532D01*
X173555670Y-123351595D01*
X171603062Y-125304203D01*
X171590672Y-125315070D01*
X171565718Y-125334218D01*
X171513986Y-125401637D01*
X171469464Y-125459659D01*
X171408956Y-125605738D01*
X171388318Y-125762500D01*
X171389396Y-125770688D01*
X171392422Y-125793673D01*
X171393500Y-125810119D01*
X171393500Y-127466013D01*
X171373498Y-127534134D01*
X171319842Y-127580627D01*
X171285851Y-127590669D01*
X171251581Y-127595714D01*
X171251574Y-127595716D01*
X171241888Y-127597142D01*
X171191992Y-127621640D01*
X171146493Y-127643978D01*
X171146491Y-127643979D01*
X171137145Y-127648568D01*
X171054707Y-127731150D01*
X171003464Y-127835982D01*
X171002052Y-127845662D01*
X170994492Y-127897484D01*
X170993500Y-127904282D01*
X170993500Y-129520718D01*
X170994170Y-129525268D01*
X170994170Y-129525271D01*
X171002216Y-129579926D01*
X171003642Y-129589612D01*
X171055068Y-129694355D01*
X171096558Y-129735773D01*
X171128842Y-129768000D01*
X171137650Y-129776793D01*
X171242482Y-129828036D01*
X171272973Y-129832484D01*
X171306256Y-129837340D01*
X171306260Y-129837340D01*
X171310782Y-129838000D01*
X172677218Y-129838000D01*
X172681768Y-129837330D01*
X172681771Y-129837330D01*
X172736426Y-129829284D01*
X172736427Y-129829284D01*
X172746112Y-129827858D01*
X172840804Y-129781367D01*
X172841507Y-129781022D01*
X172841509Y-129781021D01*
X172850855Y-129776432D01*
X172933293Y-129693850D01*
X172984536Y-129589018D01*
X172988984Y-129558527D01*
X172992830Y-129532169D01*
X175336001Y-129532169D01*
X175336371Y-129538990D01*
X175341895Y-129589852D01*
X175345521Y-129605104D01*
X175390676Y-129725554D01*
X175399214Y-129741149D01*
X175475715Y-129843224D01*
X175488276Y-129855785D01*
X175590351Y-129932286D01*
X175605946Y-129940824D01*
X175726394Y-129985978D01*
X175741649Y-129989605D01*
X175792514Y-129995131D01*
X175799328Y-129995500D01*
X176075885Y-129995500D01*
X176091124Y-129991025D01*
X176092329Y-129989635D01*
X176094000Y-129981952D01*
X176094000Y-129977384D01*
X176894000Y-129977384D01*
X176898475Y-129992623D01*
X176899865Y-129993828D01*
X176907548Y-129995499D01*
X177188669Y-129995499D01*
X177195490Y-129995129D01*
X177246352Y-129989605D01*
X177261604Y-129985979D01*
X177382054Y-129940824D01*
X177397649Y-129932286D01*
X177499724Y-129855785D01*
X177512285Y-129843224D01*
X177588786Y-129741149D01*
X177597324Y-129725554D01*
X177642478Y-129605106D01*
X177646105Y-129589851D01*
X177651631Y-129538986D01*
X177652000Y-129532172D01*
X177652000Y-129130615D01*
X177647525Y-129115376D01*
X177646135Y-129114171D01*
X177638452Y-129112500D01*
X176912115Y-129112500D01*
X176896876Y-129116975D01*
X176895671Y-129118365D01*
X176894000Y-129126048D01*
X176894000Y-129977384D01*
X176094000Y-129977384D01*
X176094000Y-129130615D01*
X176089525Y-129115376D01*
X176088135Y-129114171D01*
X176080452Y-129112500D01*
X175354116Y-129112500D01*
X175338877Y-129116975D01*
X175337672Y-129118365D01*
X175336001Y-129126048D01*
X175336001Y-129532169D01*
X172992830Y-129532169D01*
X172993840Y-129525244D01*
X172993840Y-129525240D01*
X172994500Y-129520718D01*
X172994500Y-128294385D01*
X175336000Y-128294385D01*
X175340475Y-128309624D01*
X175341865Y-128310829D01*
X175349548Y-128312500D01*
X176075885Y-128312500D01*
X176091124Y-128308025D01*
X176092329Y-128306635D01*
X176094000Y-128298952D01*
X176094000Y-128294385D01*
X176894000Y-128294385D01*
X176898475Y-128309624D01*
X176899865Y-128310829D01*
X176907548Y-128312500D01*
X177633884Y-128312500D01*
X177649123Y-128308025D01*
X177650328Y-128306635D01*
X177651999Y-128298952D01*
X177651999Y-127892831D01*
X177651629Y-127886010D01*
X177646105Y-127835148D01*
X177642479Y-127819896D01*
X177597324Y-127699446D01*
X177588786Y-127683851D01*
X177512285Y-127581776D01*
X177499724Y-127569215D01*
X177397649Y-127492714D01*
X177382054Y-127484176D01*
X177261606Y-127439022D01*
X177246351Y-127435395D01*
X177195486Y-127429869D01*
X177188672Y-127429500D01*
X176912115Y-127429500D01*
X176896876Y-127433975D01*
X176895671Y-127435365D01*
X176894000Y-127443048D01*
X176894000Y-128294385D01*
X176094000Y-128294385D01*
X176094000Y-127447616D01*
X176089525Y-127432377D01*
X176088135Y-127431172D01*
X176080452Y-127429501D01*
X175799331Y-127429501D01*
X175792510Y-127429871D01*
X175741648Y-127435395D01*
X175726396Y-127439021D01*
X175605946Y-127484176D01*
X175590351Y-127492714D01*
X175488276Y-127569215D01*
X175475715Y-127581776D01*
X175399214Y-127683851D01*
X175390676Y-127699446D01*
X175345522Y-127819894D01*
X175341895Y-127835149D01*
X175336369Y-127886014D01*
X175336000Y-127892828D01*
X175336000Y-128294385D01*
X172994500Y-128294385D01*
X172994500Y-127904282D01*
X172993500Y-127897484D01*
X172985784Y-127845074D01*
X172985784Y-127845073D01*
X172984358Y-127835388D01*
X172932932Y-127730645D01*
X172850350Y-127648207D01*
X172745518Y-127596964D01*
X172702312Y-127590661D01*
X172637792Y-127561035D01*
X172599531Y-127501230D01*
X172594500Y-127465981D01*
X172594500Y-126629261D01*
X179317296Y-126629261D01*
X179323256Y-126686705D01*
X179326149Y-126700102D01*
X179377588Y-126854284D01*
X179383761Y-126867462D01*
X179469063Y-127005307D01*
X179478099Y-127016708D01*
X179592829Y-127131239D01*
X179604240Y-127140251D01*
X179742243Y-127225316D01*
X179755424Y-127231463D01*
X179909710Y-127282638D01*
X179923086Y-127285505D01*
X180017438Y-127295172D01*
X180023854Y-127295500D01*
X180302885Y-127295500D01*
X180318124Y-127291025D01*
X180319329Y-127289635D01*
X180321000Y-127281952D01*
X180321000Y-127277384D01*
X181121000Y-127277384D01*
X181125475Y-127292623D01*
X181126865Y-127293828D01*
X181134548Y-127295499D01*
X181418095Y-127295499D01*
X181424614Y-127295162D01*
X181520206Y-127285243D01*
X181533600Y-127282351D01*
X181687784Y-127230912D01*
X181700962Y-127224739D01*
X181838807Y-127139437D01*
X181850208Y-127130401D01*
X181964739Y-127015671D01*
X181973751Y-127004260D01*
X182058816Y-126866257D01*
X182064963Y-126853076D01*
X182116140Y-126698783D01*
X182119005Y-126685422D01*
X182119881Y-126676871D01*
X186561821Y-126676871D01*
X186589106Y-126770787D01*
X186595353Y-126785223D01*
X186671911Y-126914678D01*
X186681551Y-126927104D01*
X186787896Y-127033449D01*
X186800322Y-127043089D01*
X186929779Y-127119648D01*
X186944210Y-127125893D01*
X187090065Y-127168269D01*
X187102667Y-127170570D01*
X187131084Y-127172807D01*
X187136014Y-127173000D01*
X187706885Y-127173000D01*
X187722124Y-127168525D01*
X187723329Y-127167135D01*
X187725000Y-127159452D01*
X187725000Y-127154884D01*
X188325000Y-127154884D01*
X188329475Y-127170123D01*
X188330865Y-127171328D01*
X188338548Y-127172999D01*
X188913984Y-127172999D01*
X188918920Y-127172805D01*
X188947336Y-127170570D01*
X188959931Y-127168270D01*
X189105790Y-127125893D01*
X189120221Y-127119648D01*
X189249678Y-127043089D01*
X189262104Y-127033449D01*
X189368449Y-126927104D01*
X189378089Y-126914678D01*
X189454647Y-126785223D01*
X189460894Y-126770787D01*
X189486574Y-126682395D01*
X189486534Y-126668295D01*
X189479264Y-126665000D01*
X188343115Y-126665000D01*
X188327876Y-126669475D01*
X188326671Y-126670865D01*
X188325000Y-126678548D01*
X188325000Y-127154884D01*
X187725000Y-127154884D01*
X187725000Y-126683115D01*
X187720525Y-126667876D01*
X187719135Y-126666671D01*
X187711452Y-126665000D01*
X186576487Y-126665000D01*
X186562956Y-126668973D01*
X186561821Y-126676871D01*
X182119881Y-126676871D01*
X182124629Y-126630523D01*
X182121901Y-126615824D01*
X182109666Y-126612500D01*
X181139115Y-126612500D01*
X181123876Y-126616975D01*
X181122671Y-126618365D01*
X181121000Y-126626048D01*
X181121000Y-127277384D01*
X180321000Y-127277384D01*
X180321000Y-126630615D01*
X180316525Y-126615376D01*
X180315135Y-126614171D01*
X180307452Y-126612500D01*
X179333672Y-126612500D01*
X179319355Y-126616704D01*
X179317296Y-126629261D01*
X172594500Y-126629261D01*
X172594500Y-126065268D01*
X183207026Y-126065268D01*
X183209149Y-126075100D01*
X183260588Y-126229284D01*
X183266761Y-126242462D01*
X183352063Y-126380307D01*
X183361099Y-126391708D01*
X183475829Y-126506239D01*
X183487240Y-126515251D01*
X183625243Y-126600316D01*
X183638424Y-126606463D01*
X183792710Y-126657638D01*
X183806086Y-126660505D01*
X183900438Y-126670172D01*
X183906854Y-126670500D01*
X183985885Y-126670500D01*
X184001124Y-126666025D01*
X184002329Y-126664635D01*
X184004000Y-126656952D01*
X184004000Y-126652384D01*
X184804000Y-126652384D01*
X184808475Y-126667623D01*
X184809865Y-126668828D01*
X184817548Y-126670499D01*
X184901095Y-126670499D01*
X184907614Y-126670162D01*
X185003206Y-126660243D01*
X185016600Y-126657351D01*
X185170784Y-126605912D01*
X185183962Y-126599739D01*
X185321807Y-126514437D01*
X185333208Y-126505401D01*
X185447739Y-126390671D01*
X185456751Y-126379260D01*
X185541816Y-126241257D01*
X185547963Y-126228076D01*
X185599139Y-126073788D01*
X185600831Y-126065893D01*
X185598498Y-126053324D01*
X185586262Y-126050000D01*
X184822115Y-126050000D01*
X184806876Y-126054475D01*
X184805671Y-126055865D01*
X184804000Y-126063548D01*
X184804000Y-126652384D01*
X184004000Y-126652384D01*
X184004000Y-126068115D01*
X183999525Y-126052876D01*
X183998135Y-126051671D01*
X183990452Y-126050000D01*
X183223157Y-126050000D01*
X183208840Y-126054204D01*
X183207026Y-126065268D01*
X172594500Y-126065268D01*
X172594500Y-126063425D01*
X172614502Y-125995304D01*
X172631405Y-125974330D01*
X172811258Y-125794477D01*
X179317371Y-125794477D01*
X179320099Y-125809176D01*
X179332334Y-125812500D01*
X180302885Y-125812500D01*
X180318124Y-125808025D01*
X180319329Y-125806635D01*
X180321000Y-125798952D01*
X180321000Y-125794385D01*
X181121000Y-125794385D01*
X181125475Y-125809624D01*
X181126865Y-125810829D01*
X181134548Y-125812500D01*
X182108328Y-125812500D01*
X182122645Y-125808296D01*
X182124704Y-125795739D01*
X182118744Y-125738295D01*
X182115851Y-125724898D01*
X182064412Y-125570716D01*
X182058239Y-125557538D01*
X181972937Y-125419693D01*
X181963901Y-125408292D01*
X181849171Y-125293761D01*
X181837760Y-125284749D01*
X181699757Y-125199684D01*
X181686576Y-125193537D01*
X181532290Y-125142362D01*
X181518914Y-125139495D01*
X181424562Y-125129828D01*
X181418145Y-125129500D01*
X181139115Y-125129500D01*
X181123876Y-125133975D01*
X181122671Y-125135365D01*
X181121000Y-125143048D01*
X181121000Y-125794385D01*
X180321000Y-125794385D01*
X180321000Y-125147616D01*
X180316525Y-125132377D01*
X180315135Y-125131172D01*
X180307452Y-125129501D01*
X180023905Y-125129501D01*
X180017386Y-125129838D01*
X179921794Y-125139757D01*
X179908400Y-125142649D01*
X179754216Y-125194088D01*
X179741038Y-125200261D01*
X179603196Y-125285561D01*
X179591792Y-125294599D01*
X179477261Y-125409329D01*
X179468249Y-125420740D01*
X179383184Y-125558743D01*
X179377037Y-125571924D01*
X179325860Y-125726217D01*
X179322995Y-125739578D01*
X179317371Y-125794477D01*
X172811258Y-125794477D01*
X174705830Y-123899905D01*
X174768142Y-123865879D01*
X174794925Y-123863000D01*
X179463348Y-123863000D01*
X179531469Y-123883002D01*
X179563310Y-123912295D01*
X179642718Y-124015782D01*
X179768159Y-124112036D01*
X179914238Y-124172544D01*
X179922426Y-124173622D01*
X180027545Y-124187461D01*
X180031639Y-124188000D01*
X180720916Y-124188000D01*
X181410360Y-124187999D01*
X181414444Y-124187461D01*
X181414450Y-124187461D01*
X181519575Y-124173622D01*
X181519577Y-124173622D01*
X181527762Y-124172544D01*
X181673841Y-124112036D01*
X181799282Y-124015782D01*
X181878690Y-123912295D01*
X181936027Y-123870429D01*
X181978652Y-123863000D01*
X183227501Y-123863000D01*
X183295622Y-123883002D01*
X183342115Y-123936658D01*
X183353501Y-123989000D01*
X183353501Y-124126860D01*
X183354039Y-124130944D01*
X183354039Y-124130950D01*
X183367837Y-124235762D01*
X183368956Y-124244262D01*
X183429464Y-124390341D01*
X183525718Y-124515782D01*
X183532264Y-124520805D01*
X183532265Y-124520806D01*
X183557929Y-124540498D01*
X183599798Y-124597835D01*
X183604021Y-124668706D01*
X183569258Y-124730610D01*
X183547531Y-124747606D01*
X183486190Y-124785566D01*
X183474792Y-124794599D01*
X183360261Y-124909329D01*
X183351249Y-124920740D01*
X183266184Y-125058743D01*
X183260037Y-125071924D01*
X183208861Y-125226212D01*
X183207169Y-125234107D01*
X183209502Y-125246676D01*
X183221738Y-125250000D01*
X185584843Y-125250000D01*
X185599160Y-125245796D01*
X185600974Y-125234732D01*
X185598851Y-125224900D01*
X185547412Y-125070716D01*
X185541239Y-125057538D01*
X185455937Y-124919693D01*
X185446901Y-124908292D01*
X185332171Y-124793761D01*
X185320760Y-124784749D01*
X185260673Y-124747711D01*
X185213180Y-124694939D01*
X185201756Y-124624867D01*
X185230030Y-124559743D01*
X185250084Y-124540489D01*
X185275735Y-124520806D01*
X185275736Y-124520805D01*
X185282282Y-124515782D01*
X185378536Y-124390341D01*
X185439044Y-124244262D01*
X185454500Y-124126861D01*
X185454499Y-123675926D01*
X185474501Y-123607805D01*
X185491404Y-123586831D01*
X185885830Y-123192405D01*
X185948142Y-123158379D01*
X185974925Y-123155500D01*
X186711941Y-123155500D01*
X186780062Y-123175502D01*
X186826555Y-123229158D01*
X186836659Y-123299432D01*
X186812767Y-123357065D01*
X186761856Y-123424994D01*
X186761854Y-123424997D01*
X186756474Y-123432176D01*
X186736379Y-123485780D01*
X186711289Y-123552710D01*
X186706149Y-123566420D01*
X186705296Y-123574270D01*
X186705296Y-123574271D01*
X186701989Y-123604711D01*
X186699500Y-123627623D01*
X186699501Y-124022376D01*
X186699870Y-124025770D01*
X186699870Y-124025776D01*
X186705114Y-124074050D01*
X186706149Y-124083580D01*
X186756474Y-124217824D01*
X186761854Y-124225003D01*
X186761856Y-124225006D01*
X186820450Y-124303187D01*
X186842454Y-124332546D01*
X186877985Y-124359175D01*
X186920499Y-124416034D01*
X186925523Y-124486853D01*
X186891463Y-124549146D01*
X186877988Y-124560823D01*
X186842454Y-124587454D01*
X186837072Y-124594635D01*
X186761856Y-124694994D01*
X186761854Y-124694997D01*
X186756474Y-124702176D01*
X186739404Y-124747711D01*
X186708923Y-124829021D01*
X186706149Y-124836420D01*
X186699500Y-124897623D01*
X186699501Y-125292376D01*
X186699870Y-125295770D01*
X186699870Y-125295776D01*
X186704757Y-125340763D01*
X186706149Y-125353580D01*
X186756474Y-125487824D01*
X186785964Y-125527172D01*
X186793838Y-125537678D01*
X186818687Y-125604184D01*
X186803635Y-125673567D01*
X186782108Y-125702339D01*
X186681551Y-125802896D01*
X186671911Y-125815322D01*
X186595353Y-125944777D01*
X186589106Y-125959213D01*
X186563426Y-126047605D01*
X186563466Y-126061705D01*
X186570736Y-126065000D01*
X189473513Y-126065000D01*
X189487044Y-126061027D01*
X189488179Y-126053129D01*
X189460894Y-125959213D01*
X189454647Y-125944777D01*
X189419673Y-125885639D01*
X189402214Y-125816823D01*
X189424731Y-125749491D01*
X189480075Y-125705022D01*
X189528127Y-125695500D01*
X189702140Y-125695500D01*
X189770261Y-125715502D01*
X189800885Y-125743234D01*
X189812959Y-125758468D01*
X189817652Y-125762462D01*
X189817653Y-125762463D01*
X189828241Y-125771474D01*
X189954912Y-125879279D01*
X190117627Y-125970217D01*
X190294907Y-126027819D01*
X190479998Y-126049890D01*
X190486133Y-126049418D01*
X190486135Y-126049418D01*
X190659710Y-126036062D01*
X190659715Y-126036061D01*
X190665851Y-126035589D01*
X190671781Y-126033933D01*
X190671783Y-126033933D01*
X190783742Y-126002673D01*
X190845387Y-125985462D01*
X191011768Y-125901417D01*
X191017339Y-125897065D01*
X191153794Y-125790454D01*
X191153795Y-125790453D01*
X191158655Y-125786656D01*
X191280454Y-125645550D01*
X191372526Y-125483474D01*
X191393743Y-125419693D01*
X191416794Y-125350401D01*
X191457276Y-125292076D01*
X191522864Y-125264897D01*
X191592734Y-125277492D01*
X191644704Y-125325862D01*
X191655950Y-125353655D01*
X191656149Y-125353580D01*
X191706474Y-125487824D01*
X191711854Y-125495003D01*
X191711856Y-125495006D01*
X191769504Y-125571924D01*
X191792454Y-125602546D01*
X191827985Y-125629175D01*
X191870499Y-125686034D01*
X191875523Y-125756853D01*
X191841463Y-125819146D01*
X191827988Y-125830823D01*
X191792454Y-125857454D01*
X191787072Y-125864635D01*
X191711856Y-125964994D01*
X191711854Y-125964997D01*
X191706474Y-125972176D01*
X191675724Y-126054204D01*
X191668348Y-126073880D01*
X191656149Y-126106420D01*
X191655296Y-126114270D01*
X191655296Y-126114271D01*
X191649869Y-126164224D01*
X191649500Y-126167623D01*
X191649501Y-126562376D01*
X191649870Y-126565770D01*
X191649870Y-126565776D01*
X191655258Y-126615376D01*
X191656149Y-126623580D01*
X191706474Y-126757824D01*
X191711854Y-126765003D01*
X191711856Y-126765006D01*
X191787072Y-126865365D01*
X191792454Y-126872546D01*
X191799635Y-126877928D01*
X191899994Y-126953144D01*
X191899997Y-126953146D01*
X191907176Y-126958526D01*
X191948454Y-126974000D01*
X192034025Y-127006079D01*
X192034027Y-127006079D01*
X192041420Y-127008851D01*
X192049270Y-127009704D01*
X192049271Y-127009704D01*
X192099217Y-127015130D01*
X192102623Y-127015500D01*
X192248500Y-127015500D01*
X192316621Y-127035502D01*
X192363114Y-127089158D01*
X192374500Y-127141500D01*
X192374500Y-127803021D01*
X192354498Y-127871142D01*
X192300842Y-127917635D01*
X192264946Y-127927943D01*
X192235160Y-127931864D01*
X192235158Y-127931864D01*
X192226973Y-127932942D01*
X192080894Y-127993450D01*
X191955453Y-128089704D01*
X191878795Y-128189608D01*
X191876046Y-128193190D01*
X191818708Y-128235057D01*
X191776083Y-128242486D01*
X191751387Y-128242486D01*
X191683266Y-128222484D01*
X191651424Y-128193190D01*
X191648676Y-128189608D01*
X191572017Y-128089704D01*
X191446576Y-127993450D01*
X191300497Y-127932942D01*
X191292309Y-127931864D01*
X191187183Y-127918024D01*
X191187182Y-127918024D01*
X191183096Y-127917486D01*
X190493819Y-127917486D01*
X189804375Y-127917487D01*
X189800291Y-127918025D01*
X189800285Y-127918025D01*
X189695160Y-127931864D01*
X189695158Y-127931864D01*
X189686973Y-127932942D01*
X189540894Y-127993450D01*
X189415453Y-128089704D01*
X189338795Y-128189608D01*
X189336046Y-128193190D01*
X189278708Y-128235057D01*
X189236083Y-128242486D01*
X189211387Y-128242486D01*
X189143266Y-128222484D01*
X189111424Y-128193190D01*
X189108676Y-128189608D01*
X189032017Y-128089704D01*
X188906576Y-127993450D01*
X188760497Y-127932942D01*
X188752309Y-127931864D01*
X188647183Y-127918024D01*
X188647182Y-127918024D01*
X188643096Y-127917486D01*
X187953819Y-127917486D01*
X187264375Y-127917487D01*
X187260291Y-127918025D01*
X187260285Y-127918025D01*
X187155160Y-127931864D01*
X187155158Y-127931864D01*
X187146973Y-127932942D01*
X187000894Y-127993450D01*
X186875453Y-128089704D01*
X186779199Y-128215145D01*
X186718691Y-128361224D01*
X186703235Y-128478625D01*
X186703236Y-129207346D01*
X186718691Y-129324748D01*
X186779199Y-129470827D01*
X186875453Y-129596268D01*
X186881999Y-129601291D01*
X186907030Y-129620498D01*
X187000894Y-129692522D01*
X187146973Y-129753030D01*
X187155161Y-129754108D01*
X187260280Y-129767947D01*
X187264374Y-129768486D01*
X187953651Y-129768486D01*
X188643095Y-129768485D01*
X188647179Y-129767947D01*
X188647185Y-129767947D01*
X188752310Y-129754108D01*
X188752312Y-129754108D01*
X188760497Y-129753030D01*
X188906576Y-129692522D01*
X189000440Y-129620498D01*
X189025471Y-129601291D01*
X189032017Y-129596268D01*
X189111425Y-129492781D01*
X189168762Y-129450915D01*
X189211387Y-129443486D01*
X189236083Y-129443486D01*
X189304204Y-129463488D01*
X189336045Y-129492781D01*
X189415453Y-129596268D01*
X189421999Y-129601291D01*
X189447030Y-129620498D01*
X189540894Y-129692522D01*
X189686973Y-129753030D01*
X189695161Y-129754108D01*
X189800280Y-129767947D01*
X189804374Y-129768486D01*
X190493651Y-129768486D01*
X191183095Y-129768485D01*
X191187179Y-129767947D01*
X191187185Y-129767947D01*
X191292310Y-129754108D01*
X191292312Y-129754108D01*
X191300497Y-129753030D01*
X191446576Y-129692522D01*
X191540440Y-129620498D01*
X191565471Y-129601291D01*
X191572017Y-129596268D01*
X191651425Y-129492781D01*
X191708762Y-129450915D01*
X191751387Y-129443486D01*
X191776083Y-129443486D01*
X191844204Y-129463488D01*
X191876045Y-129492781D01*
X191955453Y-129596268D01*
X191961999Y-129601291D01*
X191987030Y-129620498D01*
X192080894Y-129692522D01*
X192226973Y-129753030D01*
X192235161Y-129754108D01*
X192340280Y-129767947D01*
X192344374Y-129768486D01*
X193033651Y-129768486D01*
X193723095Y-129768485D01*
X193727179Y-129767947D01*
X193727185Y-129767947D01*
X193832310Y-129754108D01*
X193832312Y-129754108D01*
X193840497Y-129753030D01*
X193986576Y-129692522D01*
X194080440Y-129620498D01*
X194105471Y-129601291D01*
X194112017Y-129596268D01*
X194208271Y-129470827D01*
X194268779Y-129324748D01*
X194284235Y-129207347D01*
X194284234Y-128478626D01*
X194276503Y-128419893D01*
X194269857Y-128369411D01*
X194269857Y-128369409D01*
X194268779Y-128361224D01*
X194208271Y-128215145D01*
X194112017Y-128089704D01*
X193986576Y-127993450D01*
X193840497Y-127932942D01*
X193832309Y-127931864D01*
X193727183Y-127918024D01*
X193727182Y-127918024D01*
X193723096Y-127917486D01*
X193701500Y-127917486D01*
X193633379Y-127897484D01*
X193586886Y-127843828D01*
X193575500Y-127791486D01*
X193575500Y-127141499D01*
X193595502Y-127073378D01*
X193649158Y-127026885D01*
X193701500Y-127015499D01*
X193847376Y-127015499D01*
X193850770Y-127015130D01*
X193850776Y-127015130D01*
X193900722Y-127009705D01*
X193900726Y-127009704D01*
X193908580Y-127008851D01*
X194042824Y-126958526D01*
X194050003Y-126953146D01*
X194050006Y-126953144D01*
X194150365Y-126877928D01*
X194157546Y-126872546D01*
X194162928Y-126865365D01*
X194238144Y-126765006D01*
X194238146Y-126765003D01*
X194243526Y-126757824D01*
X194293851Y-126623580D01*
X194300500Y-126562377D01*
X194300499Y-126167624D01*
X194293851Y-126106420D01*
X194243526Y-125972176D01*
X194238146Y-125964997D01*
X194238144Y-125964994D01*
X194187233Y-125897065D01*
X194162385Y-125830559D01*
X194177438Y-125761177D01*
X194227612Y-125710946D01*
X194288059Y-125695500D01*
X195533075Y-125695500D01*
X195601196Y-125715502D01*
X195622170Y-125732405D01*
X195762595Y-125872830D01*
X195796621Y-125935142D01*
X195799500Y-125961925D01*
X195799501Y-126196710D01*
X195799501Y-126412860D01*
X195800039Y-126416944D01*
X195800039Y-126416950D01*
X195812873Y-126514437D01*
X195814956Y-126530262D01*
X195875464Y-126676341D01*
X195971718Y-126801782D01*
X196097159Y-126898036D01*
X196119020Y-126907091D01*
X196174301Y-126951639D01*
X196196722Y-127019002D01*
X196179164Y-127087794D01*
X196127202Y-127136172D01*
X196119023Y-127139908D01*
X196097159Y-127148964D01*
X195971718Y-127245218D01*
X195875464Y-127370659D01*
X195814956Y-127516738D01*
X195799500Y-127634139D01*
X195799501Y-128237860D01*
X195800039Y-128241944D01*
X195800039Y-128241950D01*
X195812902Y-128339659D01*
X195814956Y-128355262D01*
X195875464Y-128501341D01*
X195971718Y-128626782D01*
X195978264Y-128631805D01*
X196007918Y-128654559D01*
X196097159Y-128723036D01*
X196171719Y-128753920D01*
X196226999Y-128798467D01*
X196249500Y-128870328D01*
X196249500Y-128988816D01*
X196229498Y-129056937D01*
X196171718Y-129105225D01*
X196154155Y-129112500D01*
X196072159Y-129146464D01*
X195946718Y-129242718D01*
X195850464Y-129368159D01*
X195789956Y-129514238D01*
X195774500Y-129631639D01*
X195774501Y-130210360D01*
X195775039Y-130214444D01*
X195775039Y-130214450D01*
X195788878Y-130319574D01*
X195789956Y-130327762D01*
X195850464Y-130473841D01*
X195946718Y-130599282D01*
X195953264Y-130604305D01*
X196051073Y-130679356D01*
X196092940Y-130736694D01*
X196097162Y-130807565D01*
X196062398Y-130869468D01*
X196040672Y-130886463D01*
X195907193Y-130969063D01*
X195895792Y-130978099D01*
X195781261Y-131092829D01*
X195772249Y-131104240D01*
X195687184Y-131242243D01*
X195681037Y-131255424D01*
X195630146Y-131408854D01*
X195631782Y-131417675D01*
X195644021Y-131421000D01*
X198054546Y-131421000D01*
X198068864Y-131416796D01*
X198070072Y-131409423D01*
X198069852Y-131408401D01*
X198018412Y-131254216D01*
X198012239Y-131241038D01*
X197926937Y-131103193D01*
X197917901Y-131091792D01*
X197803171Y-130977261D01*
X197791760Y-130968249D01*
X197659404Y-130886664D01*
X197611911Y-130833892D01*
X197600487Y-130763820D01*
X197628761Y-130698696D01*
X197648816Y-130679441D01*
X197746736Y-130604305D01*
X197753282Y-130599282D01*
X197849536Y-130473841D01*
X197910044Y-130327762D01*
X197925500Y-130210361D01*
X197925499Y-129631640D01*
X197924033Y-129620498D01*
X197911122Y-129522425D01*
X197911122Y-129522423D01*
X197910044Y-129514238D01*
X197849536Y-129368159D01*
X197753282Y-129242718D01*
X197627841Y-129146464D01*
X197545845Y-129112500D01*
X197528282Y-129105225D01*
X197473001Y-129060676D01*
X197450500Y-128988816D01*
X197450500Y-128870328D01*
X197470502Y-128802207D01*
X197528281Y-128753920D01*
X197602841Y-128723036D01*
X197692082Y-128654559D01*
X197721736Y-128631805D01*
X197728282Y-128626782D01*
X197824536Y-128501341D01*
X197885044Y-128355262D01*
X197900500Y-128237861D01*
X197900499Y-127634140D01*
X197895420Y-127595552D01*
X197886122Y-127524925D01*
X197886122Y-127524923D01*
X197885044Y-127516738D01*
X197824536Y-127370659D01*
X197728282Y-127245218D01*
X197602841Y-127148964D01*
X197580980Y-127139909D01*
X197525699Y-127095361D01*
X197503278Y-127027998D01*
X197520836Y-126959206D01*
X197572798Y-126910828D01*
X197580980Y-126907091D01*
X197602841Y-126898036D01*
X197728282Y-126801782D01*
X197824536Y-126676341D01*
X197885044Y-126530262D01*
X197889330Y-126497705D01*
X197899962Y-126416948D01*
X197899962Y-126416947D01*
X197900500Y-126412861D01*
X197900499Y-125809140D01*
X197898086Y-125790805D01*
X197886122Y-125699925D01*
X197886122Y-125699923D01*
X197885044Y-125691738D01*
X197824536Y-125545659D01*
X197728282Y-125420218D01*
X197697843Y-125396861D01*
X197652933Y-125362401D01*
X197602841Y-125323964D01*
X197456762Y-125263456D01*
X197354553Y-125250000D01*
X197343448Y-125248538D01*
X197343447Y-125248538D01*
X197339361Y-125248000D01*
X197302533Y-125248000D01*
X196888426Y-125248001D01*
X196820305Y-125227999D01*
X196799331Y-125211096D01*
X196772330Y-125184095D01*
X196738304Y-125121783D01*
X196743369Y-125050968D01*
X196772330Y-125005905D01*
X196855967Y-124922268D01*
X199336026Y-124922268D01*
X199338149Y-124932100D01*
X199389588Y-125086284D01*
X199395761Y-125099462D01*
X199481063Y-125237307D01*
X199490099Y-125248708D01*
X199604829Y-125363239D01*
X199616240Y-125372251D01*
X199754243Y-125457316D01*
X199767424Y-125463463D01*
X199921710Y-125514638D01*
X199935086Y-125517505D01*
X200029438Y-125527172D01*
X200035854Y-125527500D01*
X200114885Y-125527500D01*
X200130124Y-125523025D01*
X200131329Y-125521635D01*
X200133000Y-125513952D01*
X200133000Y-125509384D01*
X200933000Y-125509384D01*
X200937475Y-125524623D01*
X200938865Y-125525828D01*
X200946548Y-125527499D01*
X201030095Y-125527499D01*
X201036614Y-125527162D01*
X201132206Y-125517243D01*
X201145600Y-125514351D01*
X201299784Y-125462912D01*
X201312962Y-125456739D01*
X201450807Y-125371437D01*
X201462208Y-125362401D01*
X201576739Y-125247671D01*
X201585751Y-125236260D01*
X201670816Y-125098257D01*
X201676963Y-125085076D01*
X201728139Y-124930788D01*
X201729831Y-124922893D01*
X201727498Y-124910324D01*
X201715262Y-124907000D01*
X200951115Y-124907000D01*
X200935876Y-124911475D01*
X200934671Y-124912865D01*
X200933000Y-124920548D01*
X200933000Y-125509384D01*
X200133000Y-125509384D01*
X200133000Y-124925115D01*
X200128525Y-124909876D01*
X200127135Y-124908671D01*
X200119452Y-124907000D01*
X199352157Y-124907000D01*
X199337840Y-124911204D01*
X199336026Y-124922268D01*
X196855967Y-124922268D01*
X197049936Y-124728299D01*
X202768971Y-124728299D01*
X202818036Y-124875365D01*
X202824210Y-124888543D01*
X202908744Y-125025149D01*
X202917780Y-125036550D01*
X203031479Y-125150051D01*
X203042890Y-125159063D01*
X203179654Y-125243365D01*
X203192832Y-125249509D01*
X203345740Y-125300227D01*
X203359106Y-125303093D01*
X203452601Y-125312672D01*
X203459016Y-125313000D01*
X203543885Y-125313000D01*
X203559124Y-125308525D01*
X203560329Y-125307135D01*
X203562000Y-125299452D01*
X203562000Y-125294884D01*
X204362000Y-125294884D01*
X204366475Y-125310123D01*
X204367865Y-125311328D01*
X204375548Y-125312999D01*
X204464933Y-125312999D01*
X204471452Y-125312662D01*
X204566170Y-125302834D01*
X204579564Y-125299942D01*
X204732365Y-125248964D01*
X204745543Y-125242790D01*
X204882149Y-125158256D01*
X204893550Y-125149220D01*
X205007051Y-125035521D01*
X205016063Y-125024110D01*
X205100365Y-124887346D01*
X205106509Y-124874168D01*
X205152771Y-124734694D01*
X205153260Y-124720601D01*
X205147048Y-124717500D01*
X204380115Y-124717500D01*
X204364876Y-124721975D01*
X204363671Y-124723365D01*
X204362000Y-124731048D01*
X204362000Y-125294884D01*
X203562000Y-125294884D01*
X203562000Y-124735615D01*
X203557525Y-124720376D01*
X203556135Y-124719171D01*
X203548452Y-124717500D01*
X202783483Y-124717500D01*
X202769952Y-124721473D01*
X202768971Y-124728299D01*
X197049936Y-124728299D01*
X197240938Y-124537297D01*
X197253329Y-124526429D01*
X197271736Y-124512305D01*
X197278282Y-124507282D01*
X197374536Y-124381841D01*
X197435044Y-124235762D01*
X197450500Y-124118361D01*
X197455682Y-124079000D01*
X197451578Y-124047827D01*
X197450500Y-124031381D01*
X197450500Y-122890406D01*
X197470502Y-122822285D01*
X197524158Y-122775792D01*
X197560054Y-122765484D01*
X197623575Y-122757122D01*
X197623577Y-122757122D01*
X197631762Y-122756044D01*
X197777841Y-122695536D01*
X197903282Y-122599282D01*
X197999536Y-122473841D01*
X198056217Y-122337001D01*
X198056884Y-122335391D01*
X198060044Y-122327762D01*
X198067527Y-122270925D01*
X198074962Y-122214448D01*
X198074962Y-122214447D01*
X198075500Y-122210361D01*
X198075499Y-121506640D01*
X198074265Y-121497262D01*
X198061122Y-121397425D01*
X198061122Y-121397423D01*
X198060044Y-121389238D01*
X197999536Y-121243159D01*
X197903282Y-121117718D01*
X197777841Y-121021464D01*
X197631762Y-120960956D01*
X197623574Y-120959878D01*
X197518448Y-120946038D01*
X197518447Y-120946038D01*
X197514361Y-120945500D01*
X196850081Y-120945500D01*
X196185640Y-120945501D01*
X196181556Y-120946039D01*
X196181550Y-120946039D01*
X196076425Y-120959878D01*
X196076423Y-120959878D01*
X196068238Y-120960956D01*
X195922159Y-121021464D01*
X195796718Y-121117718D01*
X195700464Y-121243159D01*
X195691084Y-121265805D01*
X195643841Y-121379860D01*
X195639956Y-121389238D01*
X195624805Y-121504328D01*
X195624797Y-121504386D01*
X195596075Y-121569313D01*
X195536810Y-121608405D01*
X195465818Y-121609250D01*
X195405640Y-121571580D01*
X195399913Y-121564645D01*
X195378309Y-121536490D01*
X195378308Y-121536489D01*
X195373282Y-121529939D01*
X195348328Y-121510791D01*
X195335938Y-121499924D01*
X194730071Y-120894057D01*
X194719211Y-120881675D01*
X194700061Y-120856718D01*
X194574620Y-120760464D01*
X194428541Y-120699956D01*
X194311140Y-120684500D01*
X194271779Y-120679318D01*
X194263591Y-120680396D01*
X194240606Y-120683422D01*
X194224160Y-120684500D01*
X191964407Y-120684500D01*
X191896286Y-120664498D01*
X191875312Y-120647595D01*
X184255905Y-113028188D01*
X184221879Y-112965876D01*
X184219000Y-112939093D01*
X184219000Y-112521000D01*
X184239002Y-112452879D01*
X184292658Y-112406386D01*
X184345000Y-112395000D01*
X195823500Y-112395000D01*
X195891621Y-112415002D01*
X195938114Y-112468658D01*
X195949500Y-112521000D01*
X195949500Y-113010218D01*
X195950170Y-113014768D01*
X195950170Y-113014771D01*
X195958216Y-113069426D01*
X195959642Y-113079112D01*
X196011068Y-113183855D01*
X196093650Y-113266293D01*
X196178834Y-113307932D01*
X196231250Y-113355816D01*
X196249500Y-113421131D01*
X196249500Y-114070070D01*
X196229498Y-114138191D01*
X196199112Y-114170138D01*
X196193145Y-114173068D01*
X196110707Y-114255650D01*
X196059464Y-114360482D01*
X196049500Y-114428782D01*
X196049500Y-115695218D01*
X196050170Y-115699768D01*
X196050170Y-115699771D01*
X196058216Y-115754426D01*
X196059642Y-115764112D01*
X196111068Y-115868855D01*
X196193650Y-115951293D01*
X196198481Y-115953654D01*
X196240511Y-116007186D01*
X196249500Y-116053924D01*
X196249500Y-117901594D01*
X196229498Y-117969715D01*
X196175842Y-118016208D01*
X196139946Y-118026516D01*
X196076425Y-118034878D01*
X196076423Y-118034878D01*
X196068238Y-118035956D01*
X195922159Y-118096464D01*
X195796718Y-118192718D01*
X195700464Y-118318159D01*
X195639956Y-118464238D01*
X195638878Y-118472425D01*
X195638878Y-118472426D01*
X195632641Y-118519805D01*
X195624500Y-118581639D01*
X195624501Y-119285360D01*
X195625039Y-119289444D01*
X195625039Y-119289450D01*
X195635263Y-119367112D01*
X195639956Y-119402762D01*
X195700464Y-119548841D01*
X195796718Y-119674282D01*
X195803264Y-119679305D01*
X195804028Y-119679891D01*
X195922159Y-119770536D01*
X196068238Y-119831044D01*
X196076426Y-119832122D01*
X196181545Y-119845961D01*
X196185639Y-119846500D01*
X196849919Y-119846500D01*
X197514360Y-119846499D01*
X197518444Y-119845961D01*
X197518450Y-119845961D01*
X197623575Y-119832122D01*
X197623577Y-119832122D01*
X197631762Y-119831044D01*
X197777841Y-119770536D01*
X197895972Y-119679891D01*
X197896736Y-119679305D01*
X197903282Y-119674282D01*
X197999536Y-119548841D01*
X198060044Y-119402762D01*
X198075500Y-119285361D01*
X198075499Y-118581640D01*
X198072943Y-118562218D01*
X198061122Y-118472425D01*
X198061122Y-118472423D01*
X198060044Y-118464238D01*
X197999536Y-118318159D01*
X197903282Y-118192718D01*
X197777841Y-118096464D01*
X197631762Y-118035956D01*
X197560054Y-118026516D01*
X197495127Y-117997794D01*
X197456035Y-117938529D01*
X197450500Y-117901594D01*
X197450500Y-116053930D01*
X197470502Y-115985809D01*
X197500888Y-115953862D01*
X197506855Y-115950932D01*
X197589293Y-115868350D01*
X197640536Y-115763518D01*
X197650500Y-115695218D01*
X197650500Y-114428782D01*
X197641871Y-114370162D01*
X197641784Y-114369574D01*
X197641784Y-114369573D01*
X197640358Y-114359888D01*
X197601018Y-114279761D01*
X197593522Y-114264493D01*
X197593521Y-114264491D01*
X197588932Y-114255145D01*
X197506350Y-114172707D01*
X197501519Y-114170346D01*
X197459489Y-114116814D01*
X197450500Y-114070076D01*
X197450500Y-113421203D01*
X197470502Y-113353082D01*
X197520969Y-113308100D01*
X197597507Y-113270522D01*
X197597509Y-113270521D01*
X197606855Y-113265932D01*
X197689293Y-113183350D01*
X197740536Y-113078518D01*
X197745187Y-113046637D01*
X197749840Y-113014744D01*
X197749840Y-113014740D01*
X197750500Y-113010218D01*
X197750500Y-112521000D01*
X197770502Y-112452879D01*
X197824158Y-112406386D01*
X197876500Y-112395000D01*
X198202810Y-112395000D01*
X198270931Y-112415002D01*
X198291905Y-112431905D01*
X198718095Y-112858095D01*
X198752121Y-112920407D01*
X198755000Y-112947190D01*
X198755000Y-120015000D01*
X199356500Y-120015000D01*
X199424621Y-120035002D01*
X199471114Y-120088658D01*
X199482500Y-120141000D01*
X199482501Y-120382195D01*
X199482501Y-120617860D01*
X199483039Y-120621944D01*
X199483039Y-120621950D01*
X199496878Y-120727074D01*
X199497956Y-120735262D01*
X199558464Y-120881341D01*
X199583344Y-120913765D01*
X199621499Y-120963490D01*
X199647099Y-121029710D01*
X199641638Y-121078293D01*
X199610628Y-121176048D01*
X199598772Y-121213424D01*
X199577994Y-121398665D01*
X199578510Y-121404809D01*
X199589568Y-121536490D01*
X199593592Y-121584414D01*
X199595291Y-121590339D01*
X199641564Y-121751712D01*
X199644971Y-121763595D01*
X199647790Y-121769080D01*
X199684069Y-121839671D01*
X199697417Y-121909402D01*
X199670947Y-121975279D01*
X199661206Y-121986240D01*
X199654718Y-121991218D01*
X199558464Y-122116659D01*
X199497956Y-122262738D01*
X199496878Y-122270925D01*
X199496878Y-122270926D01*
X199486145Y-122352456D01*
X199482500Y-122380139D01*
X199482501Y-122983860D01*
X199483039Y-122987944D01*
X199483039Y-122987950D01*
X199487645Y-123022935D01*
X199497956Y-123101262D01*
X199558464Y-123247341D01*
X199654718Y-123372782D01*
X199661264Y-123377805D01*
X199661265Y-123377806D01*
X199686929Y-123397498D01*
X199728798Y-123454835D01*
X199733021Y-123525706D01*
X199698258Y-123587610D01*
X199676531Y-123604606D01*
X199615190Y-123642566D01*
X199603792Y-123651599D01*
X199489261Y-123766329D01*
X199480249Y-123777740D01*
X199395184Y-123915743D01*
X199389037Y-123928924D01*
X199337861Y-124083212D01*
X199336169Y-124091107D01*
X199338502Y-124103676D01*
X199350738Y-124107000D01*
X201713843Y-124107000D01*
X201728160Y-124102796D01*
X201729974Y-124091732D01*
X201727851Y-124081900D01*
X201676412Y-123927716D01*
X201670239Y-123914538D01*
X201584937Y-123776693D01*
X201575901Y-123765292D01*
X201461171Y-123650761D01*
X201449760Y-123641749D01*
X201389673Y-123604711D01*
X201342180Y-123551939D01*
X201330756Y-123481867D01*
X201359030Y-123416743D01*
X201379084Y-123397489D01*
X201404735Y-123377806D01*
X201404736Y-123377805D01*
X201411282Y-123372782D01*
X201507536Y-123247341D01*
X201568044Y-123101262D01*
X201573141Y-123062546D01*
X201582962Y-122987948D01*
X201582962Y-122987947D01*
X201583500Y-122983861D01*
X201583499Y-122380140D01*
X201581223Y-122362846D01*
X201569122Y-122270925D01*
X201569122Y-122270923D01*
X201568044Y-122262738D01*
X201507536Y-122116659D01*
X201411282Y-121991218D01*
X201405591Y-121986851D01*
X201371804Y-121924977D01*
X201376869Y-121854162D01*
X201385368Y-121835958D01*
X201394755Y-121819435D01*
X201405526Y-121800474D01*
X201464364Y-121623601D01*
X201476832Y-121524912D01*
X201487285Y-121442170D01*
X201487286Y-121442163D01*
X201487727Y-121438668D01*
X201488099Y-121412000D01*
X201469909Y-121226487D01*
X201468128Y-121220588D01*
X201468127Y-121220583D01*
X201424429Y-121075848D01*
X201423888Y-121004853D01*
X201445088Y-120962727D01*
X201502507Y-120887896D01*
X201502509Y-120887892D01*
X201507536Y-120881341D01*
X201568044Y-120735262D01*
X201577360Y-120664498D01*
X201582962Y-120621948D01*
X201582962Y-120621947D01*
X201583500Y-120617861D01*
X201583499Y-120140999D01*
X201603501Y-120072879D01*
X201657156Y-120026386D01*
X201709499Y-120015000D01*
X202785500Y-120015000D01*
X202853621Y-120035002D01*
X202900114Y-120088658D01*
X202911500Y-120141000D01*
X202911501Y-120382195D01*
X202911501Y-120594360D01*
X202912039Y-120598444D01*
X202912039Y-120598450D01*
X202922685Y-120679318D01*
X202926956Y-120711762D01*
X202987464Y-120857841D01*
X202992491Y-120864392D01*
X202992493Y-120864396D01*
X203055773Y-120946865D01*
X203081373Y-121013085D01*
X203075912Y-121061666D01*
X203039628Y-121176048D01*
X203027772Y-121213424D01*
X203006994Y-121398665D01*
X203007510Y-121404809D01*
X203018568Y-121536490D01*
X203022592Y-121584414D01*
X203042941Y-121655380D01*
X203060995Y-121718342D01*
X203060544Y-121789337D01*
X203039840Y-121829773D01*
X202986673Y-121899061D01*
X202964156Y-121953422D01*
X202939757Y-122012328D01*
X202926795Y-122043620D01*
X202911500Y-122159798D01*
X202911500Y-122725202D01*
X202926795Y-122841380D01*
X202929954Y-122849007D01*
X202929955Y-122849010D01*
X202946353Y-122888598D01*
X202986673Y-122985939D01*
X202991700Y-122992490D01*
X202991701Y-122992492D01*
X203029845Y-123042201D01*
X203081926Y-123110074D01*
X203183792Y-123188239D01*
X203225659Y-123245577D01*
X203229880Y-123316448D01*
X203195115Y-123378351D01*
X203173390Y-123395345D01*
X203041851Y-123476744D01*
X203030450Y-123485780D01*
X202916949Y-123599479D01*
X202907937Y-123610890D01*
X202823635Y-123747654D01*
X202817491Y-123760832D01*
X202771229Y-123900306D01*
X202770740Y-123914399D01*
X202776952Y-123917500D01*
X205140517Y-123917500D01*
X205154048Y-123913527D01*
X205155029Y-123906701D01*
X205105964Y-123759635D01*
X205099790Y-123746457D01*
X205015256Y-123609851D01*
X205006220Y-123598450D01*
X204892521Y-123484949D01*
X204881110Y-123475937D01*
X204750688Y-123395544D01*
X204703195Y-123342772D01*
X204691771Y-123272700D01*
X204720045Y-123207576D01*
X204740100Y-123188322D01*
X204788945Y-123150842D01*
X204842074Y-123110074D01*
X204894155Y-123042201D01*
X204932299Y-122992492D01*
X204932300Y-122992490D01*
X204937327Y-122985939D01*
X204977647Y-122888598D01*
X204994045Y-122849010D01*
X204994046Y-122849007D01*
X204997205Y-122841380D01*
X205012500Y-122725202D01*
X205012500Y-122159798D01*
X204997205Y-122043620D01*
X204984244Y-122012328D01*
X204959844Y-121953422D01*
X204937327Y-121899061D01*
X204883436Y-121828829D01*
X204857835Y-121762609D01*
X204863840Y-121712353D01*
X204882792Y-121655380D01*
X204893364Y-121623601D01*
X204905832Y-121524912D01*
X204916285Y-121442170D01*
X204916286Y-121442163D01*
X204916727Y-121438668D01*
X204917099Y-121412000D01*
X204898909Y-121226487D01*
X204897128Y-121220588D01*
X204897127Y-121220583D01*
X204848337Y-121058983D01*
X204847796Y-120987988D01*
X204868996Y-120945861D01*
X204893624Y-120913765D01*
X204936536Y-120857841D01*
X204997044Y-120711762D01*
X205012500Y-120594361D01*
X205012499Y-120140999D01*
X205032501Y-120072879D01*
X205086156Y-120026386D01*
X205138499Y-120015000D01*
X218522810Y-120015000D01*
X218590931Y-120035002D01*
X218611905Y-120051905D01*
X218687595Y-120127595D01*
X218721621Y-120189907D01*
X218724500Y-120216690D01*
X218724500Y-132836673D01*
X218704498Y-132904794D01*
X218650842Y-132951287D01*
X218580568Y-132961391D01*
X218515988Y-132931897D01*
X218501275Y-132916819D01*
X218467336Y-132875648D01*
X218440500Y-132843093D01*
X218209746Y-132624116D01*
X217954025Y-132434892D01*
X217753680Y-132321542D01*
X217680508Y-132280143D01*
X217680504Y-132280141D01*
X217677151Y-132278244D01*
X217647370Y-132265908D01*
X217542986Y-132222671D01*
X217383249Y-132156506D01*
X217281917Y-132128404D01*
X217080418Y-132072523D01*
X217080410Y-132072521D01*
X217076702Y-132071493D01*
X216762079Y-132024472D01*
X216758781Y-132024328D01*
X216649573Y-132019560D01*
X216649568Y-132019560D01*
X216648196Y-132019500D01*
X216454201Y-132019500D01*
X216217476Y-132033979D01*
X216213693Y-132034680D01*
X216213686Y-132034681D01*
X216061082Y-132062965D01*
X215904687Y-132091951D01*
X215724998Y-132148606D01*
X215604965Y-132186452D01*
X215604962Y-132186453D01*
X215601293Y-132187610D01*
X215597796Y-132189204D01*
X215597790Y-132189206D01*
X215315327Y-132317932D01*
X215315323Y-132317934D01*
X215311819Y-132319531D01*
X215308540Y-132321541D01*
X215308537Y-132321542D01*
X215104229Y-132446743D01*
X215040580Y-132485747D01*
X215037576Y-132488137D01*
X215037571Y-132488140D01*
X214859112Y-132630093D01*
X214791619Y-132683779D01*
X214788927Y-132686518D01*
X214788923Y-132686522D01*
X214756100Y-132719923D01*
X214568648Y-132910676D01*
X214566307Y-132913727D01*
X214566306Y-132913728D01*
X214377326Y-133160011D01*
X214377321Y-133160019D01*
X214374991Y-133163055D01*
X214373042Y-133166364D01*
X214258792Y-133360322D01*
X214213534Y-133437154D01*
X214086685Y-133728886D01*
X213996335Y-134033903D01*
X213943831Y-134347657D01*
X213929955Y-134665471D01*
X213954914Y-134982607D01*
X214018336Y-135294338D01*
X214119276Y-135596016D01*
X214120925Y-135599474D01*
X214120927Y-135599478D01*
X214254576Y-135879678D01*
X214256229Y-135883143D01*
X214427153Y-136151440D01*
X214629500Y-136396907D01*
X214794492Y-136553478D01*
X214835194Y-136592103D01*
X214870838Y-136653503D01*
X214867629Y-136724427D01*
X214826585Y-136782357D01*
X214760737Y-136808901D01*
X214748461Y-136809500D01*
X149740775Y-136809500D01*
X149672654Y-136789498D01*
X149626161Y-136735842D01*
X149616057Y-136665568D01*
X149645551Y-136600988D01*
X149662338Y-136584892D01*
X149695360Y-136558625D01*
X149695369Y-136558616D01*
X149698381Y-136556221D01*
X149921352Y-136329324D01*
X150055572Y-136154405D01*
X150112674Y-136079989D01*
X150112679Y-136079981D01*
X150115009Y-136076945D01*
X150227257Y-135886386D01*
X150274513Y-135806162D01*
X150274515Y-135806159D01*
X150276466Y-135802846D01*
X150403315Y-135511114D01*
X150493665Y-135206097D01*
X150546169Y-134892343D01*
X150560045Y-134574529D01*
X150535086Y-134257393D01*
X150471664Y-133945662D01*
X150370724Y-133643984D01*
X150233771Y-133356857D01*
X150062847Y-133088560D01*
X149860500Y-132843093D01*
X149629746Y-132624116D01*
X149374025Y-132434892D01*
X149173680Y-132321542D01*
X149100508Y-132280143D01*
X149100504Y-132280141D01*
X149097151Y-132278244D01*
X149067370Y-132265908D01*
X148962986Y-132222671D01*
X148931785Y-132209747D01*
X186550031Y-132209747D01*
X186555991Y-132267191D01*
X186558884Y-132280588D01*
X186610323Y-132434770D01*
X186616496Y-132447948D01*
X186701798Y-132585793D01*
X186710834Y-132597194D01*
X186825564Y-132711725D01*
X186836975Y-132720737D01*
X186974978Y-132805802D01*
X186988159Y-132811949D01*
X187142445Y-132863124D01*
X187155821Y-132865991D01*
X187250173Y-132875658D01*
X187256589Y-132875986D01*
X187535620Y-132875986D01*
X187550859Y-132871511D01*
X187552064Y-132870121D01*
X187553735Y-132862438D01*
X187553735Y-132857870D01*
X188353735Y-132857870D01*
X188358210Y-132873109D01*
X188359600Y-132874314D01*
X188367283Y-132875985D01*
X188650830Y-132875985D01*
X188657349Y-132875648D01*
X188752941Y-132865729D01*
X188766335Y-132862837D01*
X188920519Y-132811398D01*
X188933697Y-132805225D01*
X189071542Y-132719923D01*
X189082943Y-132710887D01*
X189134571Y-132659169D01*
X189196854Y-132625090D01*
X189267674Y-132630093D01*
X189312763Y-132659015D01*
X189365564Y-132711725D01*
X189376975Y-132720737D01*
X189514978Y-132805802D01*
X189528159Y-132811949D01*
X189682445Y-132863124D01*
X189695821Y-132865991D01*
X189790173Y-132875658D01*
X189796589Y-132875986D01*
X190075620Y-132875986D01*
X190090859Y-132871511D01*
X190092064Y-132870121D01*
X190093735Y-132862438D01*
X190093735Y-132857870D01*
X190893735Y-132857870D01*
X190898210Y-132873109D01*
X190899600Y-132874314D01*
X190907283Y-132875985D01*
X191190830Y-132875985D01*
X191197349Y-132875648D01*
X191292941Y-132865729D01*
X191306335Y-132862837D01*
X191460519Y-132811398D01*
X191473697Y-132805225D01*
X191611542Y-132719923D01*
X191622943Y-132710887D01*
X191674571Y-132659169D01*
X191736854Y-132625090D01*
X191807674Y-132630093D01*
X191852763Y-132659015D01*
X191905564Y-132711725D01*
X191916975Y-132720737D01*
X192054978Y-132805802D01*
X192068159Y-132811949D01*
X192222445Y-132863124D01*
X192235821Y-132865991D01*
X192330173Y-132875658D01*
X192336589Y-132875986D01*
X192615620Y-132875986D01*
X192630859Y-132871511D01*
X192632064Y-132870121D01*
X192633735Y-132862438D01*
X192633735Y-132857870D01*
X193433735Y-132857870D01*
X193438210Y-132873109D01*
X193439600Y-132874314D01*
X193447283Y-132875985D01*
X193730830Y-132875985D01*
X193737349Y-132875648D01*
X193832941Y-132865729D01*
X193846335Y-132862837D01*
X194000519Y-132811398D01*
X194013697Y-132805225D01*
X194151542Y-132719923D01*
X194162943Y-132710887D01*
X194277474Y-132596157D01*
X194286486Y-132584746D01*
X194371551Y-132446743D01*
X194377698Y-132433562D01*
X194428875Y-132279269D01*
X194431740Y-132265908D01*
X194435155Y-132232577D01*
X195629928Y-132232577D01*
X195630148Y-132233599D01*
X195681588Y-132387784D01*
X195687761Y-132400962D01*
X195773063Y-132538807D01*
X195782099Y-132550208D01*
X195896829Y-132664739D01*
X195908240Y-132673751D01*
X196046243Y-132758816D01*
X196059424Y-132764963D01*
X196213710Y-132816138D01*
X196227086Y-132819005D01*
X196321438Y-132828672D01*
X196327854Y-132829000D01*
X196431885Y-132829000D01*
X196447124Y-132824525D01*
X196448329Y-132823135D01*
X196450000Y-132815452D01*
X196450000Y-132810884D01*
X197250000Y-132810884D01*
X197254475Y-132826123D01*
X197255865Y-132827328D01*
X197263548Y-132828999D01*
X197372095Y-132828999D01*
X197378614Y-132828662D01*
X197474206Y-132818743D01*
X197487600Y-132815851D01*
X197641784Y-132764412D01*
X197654962Y-132758239D01*
X197792807Y-132672937D01*
X197804208Y-132663901D01*
X197918739Y-132549171D01*
X197927751Y-132537760D01*
X198012816Y-132399757D01*
X198018963Y-132386576D01*
X198069854Y-132233146D01*
X198068218Y-132224325D01*
X198055979Y-132221000D01*
X197268115Y-132221000D01*
X197252876Y-132225475D01*
X197251671Y-132226865D01*
X197250000Y-132234548D01*
X197250000Y-132810884D01*
X196450000Y-132810884D01*
X196450000Y-132239115D01*
X196445525Y-132223876D01*
X196444135Y-132222671D01*
X196436452Y-132221000D01*
X195645454Y-132221000D01*
X195631136Y-132225204D01*
X195629928Y-132232577D01*
X194435155Y-132232577D01*
X194437364Y-132211009D01*
X194434636Y-132196310D01*
X194422401Y-132192986D01*
X193451850Y-132192986D01*
X193436611Y-132197461D01*
X193435406Y-132198851D01*
X193433735Y-132206534D01*
X193433735Y-132857870D01*
X192633735Y-132857870D01*
X192633735Y-132211101D01*
X192629260Y-132195862D01*
X192627870Y-132194657D01*
X192620187Y-132192986D01*
X190911850Y-132192986D01*
X190896611Y-132197461D01*
X190895406Y-132198851D01*
X190893735Y-132206534D01*
X190893735Y-132857870D01*
X190093735Y-132857870D01*
X190093735Y-132211101D01*
X190089260Y-132195862D01*
X190087870Y-132194657D01*
X190080187Y-132192986D01*
X188371850Y-132192986D01*
X188356611Y-132197461D01*
X188355406Y-132198851D01*
X188353735Y-132206534D01*
X188353735Y-132857870D01*
X187553735Y-132857870D01*
X187553735Y-132211101D01*
X187549260Y-132195862D01*
X187547870Y-132194657D01*
X187540187Y-132192986D01*
X186566407Y-132192986D01*
X186552090Y-132197190D01*
X186550031Y-132209747D01*
X148931785Y-132209747D01*
X148803249Y-132156506D01*
X148701917Y-132128404D01*
X148500418Y-132072523D01*
X148500410Y-132072521D01*
X148496702Y-132071493D01*
X148182079Y-132024472D01*
X148178781Y-132024328D01*
X148069573Y-132019560D01*
X148069568Y-132019560D01*
X148068196Y-132019500D01*
X147874201Y-132019500D01*
X147637476Y-132033979D01*
X147633693Y-132034680D01*
X147633686Y-132034681D01*
X147481082Y-132062965D01*
X147324687Y-132091951D01*
X147144998Y-132148606D01*
X147024965Y-132186452D01*
X147024962Y-132186453D01*
X147021293Y-132187610D01*
X147017796Y-132189204D01*
X147017790Y-132189206D01*
X146735327Y-132317932D01*
X146735323Y-132317934D01*
X146731819Y-132319531D01*
X146728540Y-132321541D01*
X146728537Y-132321542D01*
X146524229Y-132446743D01*
X146460580Y-132485747D01*
X146457576Y-132488137D01*
X146457571Y-132488140D01*
X146279112Y-132630093D01*
X146211619Y-132683779D01*
X146208927Y-132686518D01*
X146208923Y-132686522D01*
X145991337Y-132907939D01*
X145991332Y-132907945D01*
X145988648Y-132910676D01*
X145986530Y-132913436D01*
X145926811Y-132951685D01*
X145855814Y-132951575D01*
X145796148Y-132913099D01*
X145766755Y-132848472D01*
X145765500Y-132830734D01*
X145765500Y-131145268D01*
X160347026Y-131145268D01*
X160349149Y-131155100D01*
X160400588Y-131309284D01*
X160406761Y-131322462D01*
X160492063Y-131460307D01*
X160501099Y-131471708D01*
X160615829Y-131586239D01*
X160627240Y-131595251D01*
X160765243Y-131680316D01*
X160778424Y-131686463D01*
X160932710Y-131737638D01*
X160946086Y-131740505D01*
X161040438Y-131750172D01*
X161046854Y-131750500D01*
X161125885Y-131750500D01*
X161141124Y-131746025D01*
X161142329Y-131744635D01*
X161144000Y-131736952D01*
X161144000Y-131732384D01*
X161944000Y-131732384D01*
X161948475Y-131747623D01*
X161949865Y-131748828D01*
X161957548Y-131750499D01*
X162041095Y-131750499D01*
X162047614Y-131750162D01*
X162143206Y-131740243D01*
X162156600Y-131737351D01*
X162310784Y-131685912D01*
X162323962Y-131679739D01*
X162461807Y-131594437D01*
X162473208Y-131585401D01*
X162587739Y-131470671D01*
X162596751Y-131459260D01*
X162648712Y-131374963D01*
X186550106Y-131374963D01*
X186552834Y-131389662D01*
X186565069Y-131392986D01*
X187535620Y-131392986D01*
X187550859Y-131388511D01*
X187552064Y-131387121D01*
X187553735Y-131379438D01*
X187553735Y-131374871D01*
X188353735Y-131374871D01*
X188358210Y-131390110D01*
X188359600Y-131391315D01*
X188367283Y-131392986D01*
X190075620Y-131392986D01*
X190090859Y-131388511D01*
X190092064Y-131387121D01*
X190093735Y-131379438D01*
X190093735Y-131374871D01*
X190893735Y-131374871D01*
X190898210Y-131390110D01*
X190899600Y-131391315D01*
X190907283Y-131392986D01*
X192615620Y-131392986D01*
X192630859Y-131388511D01*
X192632064Y-131387121D01*
X192633735Y-131379438D01*
X192633735Y-131374871D01*
X193433735Y-131374871D01*
X193438210Y-131390110D01*
X193439600Y-131391315D01*
X193447283Y-131392986D01*
X194421063Y-131392986D01*
X194435380Y-131388782D01*
X194437439Y-131376225D01*
X194431479Y-131318781D01*
X194428586Y-131305384D01*
X194377147Y-131151202D01*
X194370974Y-131138024D01*
X194285672Y-131000179D01*
X194276636Y-130988778D01*
X194161906Y-130874247D01*
X194150495Y-130865235D01*
X194012492Y-130780170D01*
X193999311Y-130774023D01*
X193845025Y-130722848D01*
X193831649Y-130719981D01*
X193737297Y-130710314D01*
X193730880Y-130709986D01*
X193451850Y-130709986D01*
X193436611Y-130714461D01*
X193435406Y-130715851D01*
X193433735Y-130723534D01*
X193433735Y-131374871D01*
X192633735Y-131374871D01*
X192633735Y-130728102D01*
X192629260Y-130712863D01*
X192627870Y-130711658D01*
X192620187Y-130709987D01*
X192336640Y-130709987D01*
X192330121Y-130710324D01*
X192234529Y-130720243D01*
X192221135Y-130723135D01*
X192066951Y-130774574D01*
X192053773Y-130780747D01*
X191915928Y-130866049D01*
X191904527Y-130875085D01*
X191852899Y-130926803D01*
X191790616Y-130960882D01*
X191719796Y-130955879D01*
X191674707Y-130926957D01*
X191621906Y-130874247D01*
X191610495Y-130865235D01*
X191472492Y-130780170D01*
X191459311Y-130774023D01*
X191305025Y-130722848D01*
X191291649Y-130719981D01*
X191197297Y-130710314D01*
X191190880Y-130709986D01*
X190911850Y-130709986D01*
X190896611Y-130714461D01*
X190895406Y-130715851D01*
X190893735Y-130723534D01*
X190893735Y-131374871D01*
X190093735Y-131374871D01*
X190093735Y-130728102D01*
X190089260Y-130712863D01*
X190087870Y-130711658D01*
X190080187Y-130709987D01*
X189796640Y-130709987D01*
X189790121Y-130710324D01*
X189694529Y-130720243D01*
X189681135Y-130723135D01*
X189526951Y-130774574D01*
X189513773Y-130780747D01*
X189375928Y-130866049D01*
X189364527Y-130875085D01*
X189312899Y-130926803D01*
X189250616Y-130960882D01*
X189179796Y-130955879D01*
X189134707Y-130926957D01*
X189081906Y-130874247D01*
X189070495Y-130865235D01*
X188932492Y-130780170D01*
X188919311Y-130774023D01*
X188765025Y-130722848D01*
X188751649Y-130719981D01*
X188657297Y-130710314D01*
X188650880Y-130709986D01*
X188371850Y-130709986D01*
X188356611Y-130714461D01*
X188355406Y-130715851D01*
X188353735Y-130723534D01*
X188353735Y-131374871D01*
X187553735Y-131374871D01*
X187553735Y-130728102D01*
X187549260Y-130712863D01*
X187547870Y-130711658D01*
X187540187Y-130709987D01*
X187256640Y-130709987D01*
X187250121Y-130710324D01*
X187154529Y-130720243D01*
X187141135Y-130723135D01*
X186986951Y-130774574D01*
X186973773Y-130780747D01*
X186835928Y-130866049D01*
X186824527Y-130875085D01*
X186709996Y-130989815D01*
X186700984Y-131001226D01*
X186615919Y-131139229D01*
X186609772Y-131152410D01*
X186558595Y-131306703D01*
X186555730Y-131320064D01*
X186550106Y-131374963D01*
X162648712Y-131374963D01*
X162681816Y-131321257D01*
X162687963Y-131308076D01*
X162739139Y-131153788D01*
X162740831Y-131145893D01*
X162738498Y-131133324D01*
X162726262Y-131130000D01*
X161962115Y-131130000D01*
X161946876Y-131134475D01*
X161945671Y-131135865D01*
X161944000Y-131143548D01*
X161944000Y-131732384D01*
X161144000Y-131732384D01*
X161144000Y-131148115D01*
X161139525Y-131132876D01*
X161138135Y-131131671D01*
X161130452Y-131130000D01*
X160363157Y-131130000D01*
X160348840Y-131134204D01*
X160347026Y-131145268D01*
X145765500Y-131145268D01*
X145765500Y-127687070D01*
X152379150Y-127687070D01*
X152458288Y-127887461D01*
X152463015Y-127896983D01*
X152578796Y-128087785D01*
X152585062Y-128096378D01*
X152731333Y-128264941D01*
X152738964Y-128272361D01*
X152911542Y-128413868D01*
X152920309Y-128419893D01*
X153114262Y-128530297D01*
X153123926Y-128534762D01*
X153333711Y-128610910D01*
X153343979Y-128613681D01*
X153506174Y-128643011D01*
X153519413Y-128641593D01*
X153523823Y-128627518D01*
X154324000Y-128627518D01*
X154328310Y-128642196D01*
X154340193Y-128644259D01*
X154376707Y-128641161D01*
X154387179Y-128639371D01*
X154603202Y-128583302D01*
X154613242Y-128579766D01*
X154816732Y-128488101D01*
X154826018Y-128482932D01*
X155011155Y-128358290D01*
X155019441Y-128351629D01*
X155180930Y-128197576D01*
X155187979Y-128189608D01*
X155321203Y-128010548D01*
X155326802Y-128001518D01*
X155427954Y-127802566D01*
X155431955Y-127792713D01*
X155462357Y-127694802D01*
X155462576Y-127680701D01*
X155455844Y-127677500D01*
X154342115Y-127677500D01*
X154326876Y-127681975D01*
X154325671Y-127683365D01*
X154324000Y-127691048D01*
X154324000Y-128627518D01*
X153523823Y-128627518D01*
X153524000Y-128626954D01*
X153524000Y-127695615D01*
X153519525Y-127680376D01*
X153518135Y-127679171D01*
X153510452Y-127677500D01*
X152393485Y-127677500D01*
X152379954Y-127681473D01*
X152379150Y-127687070D01*
X145765500Y-127687070D01*
X145765500Y-106881690D01*
X145785502Y-106813569D01*
X145802405Y-106792595D01*
X145878095Y-106716905D01*
X145940407Y-106682879D01*
X145967190Y-106680000D01*
X156292810Y-106680000D01*
X156360931Y-106700002D01*
G37*
%TD.AperFunction*%
%TA.AperFunction,Conductor*%
G36*
X168406977Y-110510002D02*
G01*
X168442954Y-110547733D01*
X168443464Y-110547341D01*
X168539718Y-110672782D01*
X168546264Y-110677805D01*
X168546265Y-110677806D01*
X168571929Y-110697498D01*
X168613798Y-110754835D01*
X168618021Y-110825706D01*
X168583258Y-110887610D01*
X168561531Y-110904606D01*
X168500190Y-110942566D01*
X168488792Y-110951599D01*
X168374261Y-111066329D01*
X168365249Y-111077740D01*
X168280184Y-111215743D01*
X168274037Y-111228924D01*
X168222861Y-111383212D01*
X168221169Y-111391107D01*
X168223502Y-111403676D01*
X168235738Y-111407000D01*
X170598843Y-111407000D01*
X170613160Y-111402796D01*
X170614974Y-111391732D01*
X170612851Y-111381900D01*
X170561412Y-111227716D01*
X170555239Y-111214538D01*
X170469937Y-111076693D01*
X170460901Y-111065292D01*
X170346171Y-110950761D01*
X170334760Y-110941749D01*
X170274673Y-110904711D01*
X170227180Y-110851939D01*
X170215756Y-110781867D01*
X170244030Y-110716743D01*
X170264084Y-110697489D01*
X170289735Y-110677806D01*
X170289736Y-110677805D01*
X170296282Y-110672782D01*
X170388655Y-110552399D01*
X170388657Y-110552397D01*
X170392536Y-110547341D01*
X170393325Y-110547946D01*
X170439410Y-110504006D01*
X170497144Y-110490000D01*
X172802810Y-110490000D01*
X172870931Y-110510002D01*
X172891905Y-110526905D01*
X173318095Y-110953095D01*
X173352121Y-111015407D01*
X173355000Y-111042190D01*
X173355000Y-112395000D01*
X178828000Y-112395000D01*
X178896121Y-112415002D01*
X178942614Y-112468658D01*
X178954000Y-112521000D01*
X178954000Y-118038881D01*
X178952922Y-118055327D01*
X178948818Y-118086500D01*
X178954000Y-118125861D01*
X178969456Y-118243262D01*
X179029964Y-118389341D01*
X179126218Y-118514782D01*
X179132764Y-118519805D01*
X179151171Y-118533929D01*
X179163562Y-118544797D01*
X179633595Y-119014830D01*
X179667621Y-119077142D01*
X179670500Y-119103925D01*
X179670501Y-119330499D01*
X179670501Y-119554860D01*
X179671039Y-119558944D01*
X179671039Y-119558950D01*
X179684605Y-119661998D01*
X179685956Y-119672262D01*
X179746464Y-119818341D01*
X179842718Y-119943782D01*
X179968159Y-120040036D01*
X179990020Y-120049091D01*
X180045301Y-120093639D01*
X180067722Y-120161002D01*
X180050164Y-120229794D01*
X179998202Y-120278172D01*
X179990023Y-120281908D01*
X179968159Y-120290964D01*
X179842718Y-120387218D01*
X179746464Y-120512659D01*
X179685956Y-120658738D01*
X179684878Y-120666925D01*
X179684878Y-120666926D01*
X179675882Y-120735262D01*
X179670500Y-120776139D01*
X179670501Y-121379860D01*
X179671039Y-121383944D01*
X179671039Y-121383950D01*
X179684868Y-121489000D01*
X179685956Y-121497262D01*
X179746464Y-121643341D01*
X179842718Y-121768782D01*
X179968159Y-121865036D01*
X180042719Y-121895920D01*
X180097999Y-121940467D01*
X180120500Y-122012328D01*
X180120500Y-122214803D01*
X180100498Y-122282924D01*
X180046842Y-122329417D01*
X180010945Y-122339725D01*
X179922426Y-122351378D01*
X179922425Y-122351378D01*
X179914238Y-122352456D01*
X179768159Y-122412964D01*
X179642718Y-122509218D01*
X179569756Y-122604305D01*
X179563311Y-122612704D01*
X179505973Y-122654571D01*
X179463348Y-122662000D01*
X174794925Y-122662000D01*
X174726804Y-122641998D01*
X174705830Y-122625095D01*
X173662904Y-121582169D01*
X175336001Y-121582169D01*
X175336371Y-121588990D01*
X175341895Y-121639852D01*
X175345521Y-121655104D01*
X175390676Y-121775554D01*
X175399214Y-121791149D01*
X175475715Y-121893224D01*
X175488276Y-121905785D01*
X175590351Y-121982286D01*
X175605946Y-121990824D01*
X175726394Y-122035978D01*
X175741649Y-122039605D01*
X175792514Y-122045131D01*
X175799328Y-122045500D01*
X176075885Y-122045500D01*
X176091124Y-122041025D01*
X176092329Y-122039635D01*
X176094000Y-122031952D01*
X176094000Y-122027384D01*
X176894000Y-122027384D01*
X176898475Y-122042623D01*
X176899865Y-122043828D01*
X176907548Y-122045499D01*
X177188669Y-122045499D01*
X177195490Y-122045129D01*
X177246352Y-122039605D01*
X177261604Y-122035979D01*
X177382054Y-121990824D01*
X177397649Y-121982286D01*
X177499724Y-121905785D01*
X177512285Y-121893224D01*
X177588786Y-121791149D01*
X177597324Y-121775554D01*
X177642478Y-121655106D01*
X177646105Y-121639851D01*
X177651631Y-121588986D01*
X177652000Y-121582172D01*
X177652000Y-121180615D01*
X177647525Y-121165376D01*
X177646135Y-121164171D01*
X177638452Y-121162500D01*
X176912115Y-121162500D01*
X176896876Y-121166975D01*
X176895671Y-121168365D01*
X176894000Y-121176048D01*
X176894000Y-122027384D01*
X176094000Y-122027384D01*
X176094000Y-121180615D01*
X176089525Y-121165376D01*
X176088135Y-121164171D01*
X176080452Y-121162500D01*
X175354116Y-121162500D01*
X175338877Y-121166975D01*
X175337672Y-121168365D01*
X175336001Y-121176048D01*
X175336001Y-121582169D01*
X173662904Y-121582169D01*
X173031405Y-120950670D01*
X172997379Y-120888358D01*
X172994500Y-120861575D01*
X172994500Y-120344385D01*
X175336000Y-120344385D01*
X175340475Y-120359624D01*
X175341865Y-120360829D01*
X175349548Y-120362500D01*
X176075885Y-120362500D01*
X176091124Y-120358025D01*
X176092329Y-120356635D01*
X176094000Y-120348952D01*
X176094000Y-120344385D01*
X176894000Y-120344385D01*
X176898475Y-120359624D01*
X176899865Y-120360829D01*
X176907548Y-120362500D01*
X177633884Y-120362500D01*
X177649123Y-120358025D01*
X177650328Y-120356635D01*
X177651999Y-120348952D01*
X177651999Y-119942831D01*
X177651629Y-119936010D01*
X177646105Y-119885148D01*
X177642479Y-119869896D01*
X177597324Y-119749446D01*
X177588786Y-119733851D01*
X177512285Y-119631776D01*
X177499724Y-119619215D01*
X177397649Y-119542714D01*
X177382054Y-119534176D01*
X177261606Y-119489022D01*
X177246351Y-119485395D01*
X177195486Y-119479869D01*
X177188672Y-119479500D01*
X176912115Y-119479500D01*
X176896876Y-119483975D01*
X176895671Y-119485365D01*
X176894000Y-119493048D01*
X176894000Y-120344385D01*
X176094000Y-120344385D01*
X176094000Y-119497616D01*
X176089525Y-119482377D01*
X176088135Y-119481172D01*
X176080452Y-119479501D01*
X175799331Y-119479501D01*
X175792510Y-119479871D01*
X175741648Y-119485395D01*
X175726396Y-119489021D01*
X175605946Y-119534176D01*
X175590351Y-119542714D01*
X175488276Y-119619215D01*
X175475715Y-119631776D01*
X175399214Y-119733851D01*
X175390676Y-119749446D01*
X175345522Y-119869894D01*
X175341895Y-119885149D01*
X175336369Y-119936014D01*
X175336000Y-119942828D01*
X175336000Y-120344385D01*
X172994500Y-120344385D01*
X172994500Y-119954282D01*
X172992955Y-119943782D01*
X172985784Y-119895074D01*
X172985784Y-119895073D01*
X172984358Y-119885388D01*
X172932932Y-119780645D01*
X172873978Y-119721794D01*
X172857721Y-119705565D01*
X172857720Y-119705565D01*
X172850350Y-119698207D01*
X172812880Y-119679891D01*
X172757870Y-119653002D01*
X172745518Y-119646964D01*
X172715027Y-119642516D01*
X172681744Y-119637660D01*
X172681740Y-119637660D01*
X172677218Y-119637000D01*
X171310782Y-119637000D01*
X171306232Y-119637670D01*
X171306229Y-119637670D01*
X171251574Y-119645716D01*
X171251573Y-119645716D01*
X171241888Y-119647142D01*
X171199943Y-119667736D01*
X171146493Y-119693978D01*
X171146491Y-119693979D01*
X171137145Y-119698568D01*
X171054707Y-119781150D01*
X171003464Y-119885982D01*
X171002052Y-119895662D01*
X170995171Y-119942831D01*
X170993500Y-119954282D01*
X170993500Y-120036000D01*
X170973498Y-120104121D01*
X170919842Y-120150614D01*
X170867500Y-120162000D01*
X167747899Y-120162000D01*
X167679778Y-120141998D01*
X167631490Y-120084218D01*
X167626794Y-120072879D01*
X167598536Y-120004659D01*
X167502282Y-119879218D01*
X167376841Y-119782964D01*
X167354980Y-119773909D01*
X167299699Y-119729361D01*
X167277278Y-119661998D01*
X167294836Y-119593206D01*
X167346798Y-119544828D01*
X167354980Y-119541091D01*
X167376841Y-119532036D01*
X167502282Y-119435782D01*
X167598536Y-119310341D01*
X167659044Y-119164262D01*
X167666987Y-119103925D01*
X167673962Y-119050948D01*
X167673962Y-119050947D01*
X167674500Y-119046861D01*
X167674499Y-118443140D01*
X167669955Y-118408616D01*
X167660122Y-118333925D01*
X167660122Y-118333923D01*
X167659044Y-118325738D01*
X167598536Y-118179659D01*
X167502282Y-118054218D01*
X167493057Y-118047139D01*
X167452746Y-118016208D01*
X167376841Y-117957964D01*
X167302281Y-117927080D01*
X167247001Y-117882533D01*
X167224500Y-117810672D01*
X167224500Y-117141619D01*
X167225578Y-117125173D01*
X167228604Y-117102188D01*
X167229682Y-117094000D01*
X167209044Y-116937238D01*
X167148536Y-116791159D01*
X167052282Y-116665718D01*
X167027328Y-116646570D01*
X167014938Y-116635703D01*
X165947405Y-115568170D01*
X165913379Y-115505858D01*
X165910500Y-115479075D01*
X165910499Y-114279763D01*
X165910499Y-114275640D01*
X165909100Y-114265007D01*
X165896122Y-114166425D01*
X165896122Y-114166423D01*
X165895044Y-114158238D01*
X165834536Y-114012159D01*
X165738282Y-113886718D01*
X165612841Y-113790464D01*
X165466762Y-113729956D01*
X165458574Y-113728878D01*
X165353448Y-113715038D01*
X165353447Y-113715038D01*
X165349361Y-113714500D01*
X165315643Y-113714500D01*
X165247522Y-113694498D01*
X165201029Y-113640842D01*
X165190925Y-113570568D01*
X165220419Y-113505988D01*
X165261399Y-113474774D01*
X165262794Y-113474109D01*
X165313796Y-113449782D01*
X165490723Y-113322647D01*
X165642340Y-113166190D01*
X165763855Y-112985357D01*
X165833884Y-112825828D01*
X165849170Y-112791005D01*
X165849171Y-112791003D01*
X165851427Y-112785863D01*
X165880866Y-112663239D01*
X165900977Y-112579472D01*
X165900977Y-112579471D01*
X165902287Y-112574015D01*
X165908362Y-112468658D01*
X165914505Y-112362115D01*
X165914505Y-112362112D01*
X165914828Y-112356508D01*
X165898583Y-112222268D01*
X168221026Y-112222268D01*
X168223149Y-112232100D01*
X168274588Y-112386284D01*
X168280761Y-112399462D01*
X168366063Y-112537307D01*
X168375099Y-112548708D01*
X168489829Y-112663239D01*
X168501240Y-112672251D01*
X168639243Y-112757316D01*
X168652424Y-112763463D01*
X168806710Y-112814638D01*
X168820086Y-112817505D01*
X168914438Y-112827172D01*
X168920854Y-112827500D01*
X168999885Y-112827500D01*
X169015124Y-112823025D01*
X169016329Y-112821635D01*
X169018000Y-112813952D01*
X169018000Y-112809384D01*
X169818000Y-112809384D01*
X169822475Y-112824623D01*
X169823865Y-112825828D01*
X169831548Y-112827499D01*
X169915095Y-112827499D01*
X169921614Y-112827162D01*
X170017206Y-112817243D01*
X170030600Y-112814351D01*
X170184784Y-112762912D01*
X170197962Y-112756739D01*
X170335807Y-112671437D01*
X170347208Y-112662401D01*
X170461739Y-112547671D01*
X170470751Y-112536260D01*
X170555816Y-112398257D01*
X170561963Y-112385076D01*
X170613139Y-112230788D01*
X170614831Y-112222893D01*
X170612498Y-112210324D01*
X170600262Y-112207000D01*
X169836115Y-112207000D01*
X169820876Y-112211475D01*
X169819671Y-112212865D01*
X169818000Y-112220548D01*
X169818000Y-112809384D01*
X169018000Y-112809384D01*
X169018000Y-112225115D01*
X169013525Y-112209876D01*
X169012135Y-112208671D01*
X169004452Y-112207000D01*
X168237157Y-112207000D01*
X168222840Y-112211204D01*
X168221026Y-112222268D01*
X165898583Y-112222268D01*
X165888654Y-112140218D01*
X165835760Y-111968283D01*
X165834848Y-111897293D01*
X165867095Y-111842140D01*
X167182330Y-110526905D01*
X167244642Y-110492879D01*
X167271425Y-110490000D01*
X168338856Y-110490000D01*
X168406977Y-110510002D01*
G37*
%TD.AperFunction*%
%TA.AperFunction,Conductor*%
G36*
X166942940Y-94350502D02*
G01*
X166989433Y-94404158D01*
X166999741Y-94440054D01*
X167003922Y-94471812D01*
X167005000Y-94488258D01*
X167005000Y-108953575D01*
X166984998Y-109021696D01*
X166968095Y-109042670D01*
X166192670Y-109818095D01*
X166130358Y-109852121D01*
X166103575Y-109855000D01*
X157988258Y-109855000D01*
X157971812Y-109853922D01*
X157867037Y-109840128D01*
X157835265Y-109831615D01*
X157745326Y-109794361D01*
X157716840Y-109777914D01*
X157639607Y-109718651D01*
X157616349Y-109695393D01*
X157557086Y-109618160D01*
X157540639Y-109589674D01*
X157503385Y-109499735D01*
X157494872Y-109467963D01*
X157481078Y-109363188D01*
X157480000Y-109346742D01*
X157480000Y-106045000D01*
X145923258Y-106045000D01*
X145906812Y-106043922D01*
X145875054Y-106039741D01*
X145810127Y-106011019D01*
X145771035Y-105951753D01*
X145765500Y-105914819D01*
X145765500Y-98303327D01*
X145785502Y-98235206D01*
X145839158Y-98188713D01*
X145909432Y-98178609D01*
X145974012Y-98208103D01*
X145988725Y-98223181D01*
X146049500Y-98296907D01*
X146280254Y-98515884D01*
X146535975Y-98705108D01*
X146674412Y-98783432D01*
X146809492Y-98859857D01*
X146809496Y-98859859D01*
X146812849Y-98861756D01*
X147106751Y-98983494D01*
X147208083Y-99011596D01*
X147409582Y-99067477D01*
X147409590Y-99067479D01*
X147413298Y-99068507D01*
X147727921Y-99115528D01*
X147731219Y-99115672D01*
X147840427Y-99120440D01*
X147840432Y-99120440D01*
X147841804Y-99120500D01*
X148035799Y-99120500D01*
X148272524Y-99106021D01*
X148276307Y-99105320D01*
X148276314Y-99105319D01*
X148474931Y-99068507D01*
X148585313Y-99048049D01*
X148794732Y-98982020D01*
X148885035Y-98953548D01*
X148885038Y-98953547D01*
X148888707Y-98952390D01*
X148892204Y-98950796D01*
X148892210Y-98950794D01*
X149174673Y-98822068D01*
X149174677Y-98822066D01*
X149178181Y-98820469D01*
X149363334Y-98707007D01*
X149446142Y-98656262D01*
X149446145Y-98656260D01*
X149449420Y-98654253D01*
X149452424Y-98651863D01*
X149452429Y-98651860D01*
X149695370Y-98458616D01*
X149698381Y-98456221D01*
X149921352Y-98229324D01*
X149926066Y-98223181D01*
X150112674Y-97979989D01*
X150112679Y-97979981D01*
X150115009Y-97976945D01*
X150276466Y-97702846D01*
X150403315Y-97411114D01*
X150493665Y-97106097D01*
X150546169Y-96792343D01*
X150560045Y-96474529D01*
X150535086Y-96157393D01*
X150471664Y-95845662D01*
X150370724Y-95543984D01*
X150237123Y-95263883D01*
X150235424Y-95260322D01*
X150235422Y-95260318D01*
X150233771Y-95256857D01*
X150062847Y-94988560D01*
X149860500Y-94743093D01*
X149654806Y-94547897D01*
X149619162Y-94486497D01*
X149622371Y-94415573D01*
X149663415Y-94357643D01*
X149729263Y-94331099D01*
X149741539Y-94330500D01*
X166874819Y-94330500D01*
X166942940Y-94350502D01*
G37*
%TD.AperFunction*%
%TA.AperFunction,Conductor*%
G36*
X181547940Y-94350502D02*
G01*
X181594433Y-94404158D01*
X181604741Y-94440054D01*
X181608922Y-94471812D01*
X181610000Y-94488258D01*
X181610000Y-108711742D01*
X181608922Y-108728188D01*
X181595128Y-108832963D01*
X181586615Y-108864735D01*
X181549361Y-108954674D01*
X181532914Y-108983160D01*
X181473651Y-109060393D01*
X181450397Y-109083648D01*
X181373158Y-109142916D01*
X181344674Y-109159361D01*
X181304720Y-109175910D01*
X181256504Y-109185501D01*
X181077640Y-109185501D01*
X181073556Y-109186039D01*
X181073550Y-109186039D01*
X180968425Y-109199878D01*
X180968423Y-109199878D01*
X180960238Y-109200956D01*
X180914262Y-109220000D01*
X180471575Y-109220000D01*
X180471575Y-111251742D01*
X180470497Y-111268188D01*
X180456703Y-111372963D01*
X180448190Y-111404735D01*
X180410936Y-111494674D01*
X180394489Y-111523160D01*
X180335226Y-111600393D01*
X180311968Y-111623651D01*
X180234735Y-111682914D01*
X180206249Y-111699361D01*
X180116310Y-111736615D01*
X180084538Y-111745128D01*
X179979763Y-111758922D01*
X179963317Y-111760000D01*
X174498258Y-111760000D01*
X174481812Y-111758922D01*
X174377037Y-111745128D01*
X174345265Y-111736615D01*
X174255326Y-111699361D01*
X174226840Y-111682914D01*
X174149607Y-111623651D01*
X174126349Y-111600393D01*
X174067086Y-111523160D01*
X174050639Y-111494674D01*
X174013385Y-111404735D01*
X174004872Y-111372963D01*
X173991078Y-111268188D01*
X173990000Y-111251742D01*
X173990000Y-106680000D01*
X168148258Y-106680000D01*
X168131812Y-106678922D01*
X168027037Y-106665128D01*
X167995265Y-106656615D01*
X167905326Y-106619361D01*
X167876840Y-106602914D01*
X167799607Y-106543651D01*
X167776349Y-106520393D01*
X167717086Y-106443160D01*
X167700639Y-106414674D01*
X167663385Y-106324735D01*
X167654872Y-106292963D01*
X167641078Y-106188188D01*
X167640000Y-106171742D01*
X167640000Y-94488258D01*
X167641078Y-94471812D01*
X167645259Y-94440054D01*
X167673981Y-94375127D01*
X167733247Y-94336035D01*
X167770181Y-94330500D01*
X181479819Y-94330500D01*
X181547940Y-94350502D01*
G37*
%TD.AperFunction*%
%TA.AperFunction,Conductor*%
G36*
X214817346Y-94350502D02*
G01*
X214863839Y-94404158D01*
X214873943Y-94474432D01*
X214844449Y-94539012D01*
X214827662Y-94555108D01*
X214794640Y-94581375D01*
X214794631Y-94581384D01*
X214791619Y-94583779D01*
X214568648Y-94810676D01*
X214566307Y-94813727D01*
X214566306Y-94813728D01*
X214377326Y-95060011D01*
X214377321Y-95060019D01*
X214374991Y-95063055D01*
X214213534Y-95337154D01*
X214086685Y-95628886D01*
X213996335Y-95933903D01*
X213943831Y-96247657D01*
X213929955Y-96565471D01*
X213954914Y-96882607D01*
X214018336Y-97194338D01*
X214119276Y-97496016D01*
X214256229Y-97783143D01*
X214427153Y-98051440D01*
X214629500Y-98296907D01*
X214860254Y-98515884D01*
X215115975Y-98705108D01*
X215254412Y-98783432D01*
X215389492Y-98859857D01*
X215389496Y-98859859D01*
X215392849Y-98861756D01*
X215686751Y-98983494D01*
X215788083Y-99011596D01*
X215989582Y-99067477D01*
X215989590Y-99067479D01*
X215993298Y-99068507D01*
X216307921Y-99115528D01*
X216311219Y-99115672D01*
X216420427Y-99120440D01*
X216420432Y-99120440D01*
X216421804Y-99120500D01*
X216615799Y-99120500D01*
X216852524Y-99106021D01*
X216856307Y-99105320D01*
X216856314Y-99105319D01*
X217054931Y-99068507D01*
X217165313Y-99048049D01*
X217374732Y-98982020D01*
X217465035Y-98953548D01*
X217465038Y-98953547D01*
X217468707Y-98952390D01*
X217472204Y-98950796D01*
X217472210Y-98950794D01*
X217754673Y-98822068D01*
X217754677Y-98822066D01*
X217758181Y-98820469D01*
X217943334Y-98707007D01*
X218026142Y-98656262D01*
X218026145Y-98656260D01*
X218029420Y-98654253D01*
X218032424Y-98651863D01*
X218032429Y-98651860D01*
X218275370Y-98458616D01*
X218278381Y-98456221D01*
X218281077Y-98453478D01*
X218498663Y-98232061D01*
X218498668Y-98232055D01*
X218501352Y-98229324D01*
X218503470Y-98226564D01*
X218563189Y-98188315D01*
X218634186Y-98188425D01*
X218693852Y-98226901D01*
X218723245Y-98291528D01*
X218724500Y-98309266D01*
X218724500Y-107184819D01*
X218704498Y-107252940D01*
X218650842Y-107299433D01*
X218614946Y-107309741D01*
X218583188Y-107313922D01*
X218566742Y-107315000D01*
X206248258Y-107315000D01*
X206231812Y-107313922D01*
X206127037Y-107300128D01*
X206095265Y-107291615D01*
X206005326Y-107254361D01*
X205976840Y-107237914D01*
X205899607Y-107178651D01*
X205876349Y-107155393D01*
X205817086Y-107078160D01*
X205800639Y-107049674D01*
X205763385Y-106959735D01*
X205754872Y-106927963D01*
X205741078Y-106823188D01*
X205740000Y-106806742D01*
X205740000Y-94488258D01*
X205741078Y-94471812D01*
X205745259Y-94440054D01*
X205773981Y-94375127D01*
X205833247Y-94336035D01*
X205870181Y-94330500D01*
X214749225Y-94330500D01*
X214817346Y-94350502D01*
G37*
%TD.AperFunction*%
%TA.AperFunction,Conductor*%
G36*
X218583188Y-107951078D02*
G01*
X218614946Y-107955259D01*
X218679873Y-107983981D01*
X218718965Y-108043247D01*
X218724500Y-108080181D01*
X218724500Y-119249813D01*
X218704498Y-119317934D01*
X218650842Y-119364427D01*
X218614947Y-119374735D01*
X218583182Y-119378916D01*
X218566739Y-119379994D01*
X208477283Y-119379875D01*
X207635273Y-119379865D01*
X207624168Y-119379865D01*
X207634583Y-119379932D01*
X207634585Y-119379933D01*
X207633910Y-119380000D01*
X199898258Y-119380000D01*
X199881812Y-119378922D01*
X199777037Y-119365128D01*
X199745265Y-119356615D01*
X199655326Y-119319361D01*
X199626840Y-119302914D01*
X199549607Y-119243651D01*
X199526349Y-119220393D01*
X199467086Y-119143160D01*
X199450639Y-119114674D01*
X199413385Y-119024735D01*
X199404872Y-118992963D01*
X199391078Y-118888188D01*
X199390000Y-118871742D01*
X199390000Y-108458258D01*
X199391078Y-108441812D01*
X199404872Y-108337037D01*
X199413385Y-108305265D01*
X199450639Y-108215326D01*
X199467086Y-108186840D01*
X199526349Y-108109607D01*
X199549607Y-108086349D01*
X199626840Y-108027086D01*
X199655326Y-108010639D01*
X199745265Y-107973385D01*
X199777037Y-107964872D01*
X199881812Y-107951078D01*
X199898258Y-107950000D01*
X218566742Y-107950000D01*
X218583188Y-107951078D01*
G37*
%TD.AperFunction*%
M02*
