M48
; DRILL file {KiCad 6.0.4-6f826c9f35~116~ubuntu21.10.1} date Wed 20 Apr 2022 06:46:40 PM CEST
; FORMAT={-:-/ absolute / metric / decimal}
; #@! TF.CreationDate,2022-04-20T18:46:40+02:00
; #@! TF.GenerationSoftware,Kicad,Pcbnew,6.0.4-6f826c9f35~116~ubuntu21.10.1
; #@! TF.FileFunction,MixedPlating,1,2
FMAT,2
METRIC
; #@! TA.AperFunction,Plated,PTH,ViaDrill
T1C0.600
; #@! TA.AperFunction,Plated,PTH,ComponentDrill
T2C1.190
; #@! TA.AperFunction,Plated,PTH,ComponentDrill
T3C1.700
; #@! TA.AperFunction,NonPlated,NPTH,ComponentDrill
T4C3.200
%
G90
G05
T1
X151.13Y-128.27
X151.13Y-129.54
X152.4Y-129.54
X153.67Y-129.54
X154.94Y-129.54
X156.21Y-128.27
X156.21Y-129.54
X160.02Y-132.715
X161.29Y-132.715
X161.29Y-133.985
X162.56Y-132.715
X163.83Y-128.27
X164.465Y-129.54
X165.735Y-129.54
X167.005Y-129.54
X167.64Y-113.665
X168.275Y-129.54
X168.91Y-113.665
X168.91Y-128.27
X170.18Y-113.665
X171.45Y-113.665
X174.625Y-127.635
X175.26Y-118.745
X175.26Y-126.365
X176.53Y-117.475
X176.53Y-118.745
X176.53Y-126.365
X177.8Y-118.745
X177.8Y-126.365
X178.435Y-127.635
X179.705Y-128.27
X180.975Y-128.27
X182.245Y-128.27
X183.515Y-127.635
X184.785Y-127.635
X186.055Y-127.635
X186.055Y-128.905
X186.055Y-130.175
X186.055Y-134.62
X187.325Y-134.62
X188.595Y-134.62
X189.865Y-134.62
X190.5Y-123.317
X190.5Y-125.095
X191.135Y-134.62
X192.405Y-134.62
X193.675Y-134.62
X194.945Y-134.62
X196.215Y-134.62
X197.485Y-134.62
X198.755Y-134.62
X199.39Y-126.365
X200.533Y-121.412
X200.66Y-126.365
X201.93Y-126.365
X203.2Y-126.365
X203.962Y-121.412
X204.47Y-126.365
X205.74Y-125.095
X205.74Y-126.365
X206.375Y-123.825
X207.01Y-125.095
X207.645Y-102.235
X207.645Y-103.505
X207.645Y-104.775
X207.645Y-106.045
X208.28Y-125.095
X208.915Y-100.965
X208.915Y-102.235
X208.915Y-103.505
X208.915Y-104.775
X208.915Y-106.045
X209.55Y-125.095
X210.185Y-100.965
X210.185Y-102.235
X210.185Y-123.825
X210.82Y-125.095
X211.455Y-100.965
X211.455Y-102.235
X212.09Y-123.825
X212.09Y-125.095
X212.725Y-100.965
X212.725Y-102.235
X213.36Y-125.73
X213.995Y-100.965
X213.995Y-102.235
X214.63Y-125.73
X215.265Y-100.965
X215.265Y-102.235
X215.265Y-103.505
X215.265Y-104.775
X215.265Y-106.045
X215.9Y-125.73
X216.535Y-102.235
X216.535Y-103.505
X216.535Y-104.775
X216.535Y-106.045
X217.17Y-124.46
X217.17Y-125.73
T2
X153.924Y-124.737
X153.924Y-127.277
X164.465Y-112.395
X164.465Y-114.935
X166.624Y-124.737
X166.624Y-127.277
T3
X152.295Y-104.417
X152.295Y-108.377
X212.195Y-105.655
X212.195Y-109.615
T4
X147.955Y-96.52
X147.955Y-134.62
X216.535Y-96.52
X216.535Y-134.62
T0
M30
