G04 #@! TF.GenerationSoftware,KiCad,Pcbnew,6.0.4-6f826c9f35~116~ubuntu21.10.1*
G04 #@! TF.CreationDate,2022-04-21T21:11:02+02:00*
G04 #@! TF.ProjectId,Carte_Alim,43617274-655f-4416-9c69-6d2e6b696361,rev?*
G04 #@! TF.SameCoordinates,Original*
G04 #@! TF.FileFunction,Copper,L2,Bot*
G04 #@! TF.FilePolarity,Positive*
%FSLAX46Y46*%
G04 Gerber Fmt 4.6, Leading zero omitted, Abs format (unit mm)*
G04 Created by KiCad (PCBNEW 6.0.4-6f826c9f35~116~ubuntu21.10.1) date 2022-04-21 21:11:02*
%MOMM*%
%LPD*%
G01*
G04 APERTURE LIST*
G04 Aperture macros list*
%AMRoundRect*
0 Rectangle with rounded corners*
0 $1 Rounding radius*
0 $2 $3 $4 $5 $6 $7 $8 $9 X,Y pos of 4 corners*
0 Add a 4 corners polygon primitive as box body*
4,1,4,$2,$3,$4,$5,$6,$7,$8,$9,$2,$3,0*
0 Add four circle primitives for the rounded corners*
1,1,$1+$1,$2,$3*
1,1,$1+$1,$4,$5*
1,1,$1+$1,$6,$7*
1,1,$1+$1,$8,$9*
0 Add four rect primitives between the rounded corners*
20,1,$1+$1,$2,$3,$4,$5,0*
20,1,$1+$1,$4,$5,$6,$7,0*
20,1,$1+$1,$6,$7,$8,$9,0*
20,1,$1+$1,$8,$9,$2,$3,0*%
G04 Aperture macros list end*
G04 #@! TA.AperFunction,Profile*
%ADD10C,0.150000*%
G04 #@! TD*
G04 #@! TA.AperFunction,ComponentPad*
%ADD11RoundRect,0.250000X-0.620000X-0.845000X0.620000X-0.845000X0.620000X0.845000X-0.620000X0.845000X0*%
G04 #@! TD*
G04 #@! TA.AperFunction,ComponentPad*
%ADD12O,1.740000X2.190000*%
G04 #@! TD*
G04 #@! TA.AperFunction,ComponentPad*
%ADD13RoundRect,0.250000X-1.330000X-1.800000X1.330000X-1.800000X1.330000X1.800000X-1.330000X1.800000X0*%
G04 #@! TD*
G04 #@! TA.AperFunction,ComponentPad*
%ADD14O,3.160000X4.100000*%
G04 #@! TD*
G04 #@! TA.AperFunction,ComponentPad*
%ADD15R,1.275000X1.800000*%
G04 #@! TD*
G04 #@! TA.AperFunction,ComponentPad*
%ADD16O,1.275000X1.800000*%
G04 #@! TD*
G04 #@! TA.AperFunction,ComponentPad*
%ADD17C,2.300000*%
G04 #@! TD*
G04 #@! TA.AperFunction,ComponentPad*
%ADD18RoundRect,0.250000X-1.800000X1.330000X-1.800000X-1.330000X1.800000X-1.330000X1.800000X1.330000X0*%
G04 #@! TD*
G04 #@! TA.AperFunction,ComponentPad*
%ADD19O,4.100000X3.160000*%
G04 #@! TD*
G04 #@! TA.AperFunction,ComponentPad*
%ADD20R,2.000000X2.000000*%
G04 #@! TD*
G04 #@! TA.AperFunction,ComponentPad*
%ADD21C,2.000000*%
G04 #@! TD*
G04 #@! TA.AperFunction,ComponentPad*
%ADD22RoundRect,0.250000X1.800000X-1.330000X1.800000X1.330000X-1.800000X1.330000X-1.800000X-1.330000X0*%
G04 #@! TD*
G04 #@! TA.AperFunction,ComponentPad*
%ADD23RoundRect,0.250000X1.330000X1.800000X-1.330000X1.800000X-1.330000X-1.800000X1.330000X-1.800000X0*%
G04 #@! TD*
G04 #@! TA.AperFunction,ViaPad*
%ADD24C,1.600000*%
G04 #@! TD*
G04 APERTURE END LIST*
D10*
X183514999Y-130175001D02*
X183514999Y-69215001D01*
X180975000Y-132715000D02*
G75*
G03*
X183515000Y-130175000I0J2540000D01*
G01*
X180975000Y-66675000D02*
X87630000Y-66675000D01*
X87630000Y-132715000D02*
X180975000Y-132715000D01*
X183515000Y-69215000D02*
G75*
G03*
X180975000Y-66675000I-2540000J0D01*
G01*
X85090000Y-69215000D02*
X85090000Y-130175000D01*
X87630000Y-66675000D02*
G75*
G03*
X85090000Y-69215000I0J-2540000D01*
G01*
X85090000Y-130175000D02*
G75*
G03*
X87630000Y-132715000I2540000J0D01*
G01*
D11*
X127635000Y-129560000D03*
D12*
X130175000Y-129560000D03*
D13*
X170180000Y-127635000D03*
D14*
X174140000Y-127635000D03*
D15*
X95025000Y-86360000D03*
D16*
X96725000Y-86360000D03*
X98425000Y-86360000D03*
X100125000Y-86360000D03*
X101825000Y-86360000D03*
D13*
X144780000Y-127635000D03*
D14*
X148740000Y-127635000D03*
D17*
X97220000Y-111760000D03*
X92620000Y-111760000D03*
X113120000Y-111760000D03*
X108520000Y-111760000D03*
D13*
X116130000Y-127635000D03*
D14*
X120090000Y-127635000D03*
D15*
X126775000Y-86360000D03*
D16*
X128475000Y-86360000D03*
X130175000Y-86360000D03*
X131875000Y-86360000D03*
X133575000Y-86360000D03*
D18*
X102130000Y-118035000D03*
D19*
X102130000Y-121995000D03*
D17*
X143600000Y-111760000D03*
X139000000Y-111760000D03*
X123100000Y-111760000D03*
X127700000Y-111760000D03*
D20*
X172892323Y-92075000D03*
D21*
X177892323Y-92075000D03*
D15*
X158525000Y-86360000D03*
D16*
X160225000Y-86360000D03*
X161925000Y-86360000D03*
X163625000Y-86360000D03*
X165325000Y-86360000D03*
D22*
X134090000Y-121995000D03*
D19*
X134090000Y-118035000D03*
D20*
X141142323Y-92075000D03*
D21*
X146142323Y-92075000D03*
D20*
X109392323Y-92075000D03*
D21*
X114392323Y-92075000D03*
D23*
X174625000Y-71755000D03*
D14*
X170665000Y-71755000D03*
D23*
X111125000Y-71755000D03*
D14*
X107165000Y-71755000D03*
D13*
X157480000Y-127635000D03*
D14*
X161440000Y-127635000D03*
D23*
X142875000Y-71755000D03*
D14*
X138915000Y-71755000D03*
D24*
X118745000Y-76200000D03*
X140970000Y-128270000D03*
X161925000Y-80645000D03*
X126365000Y-78740000D03*
X113665000Y-96520000D03*
X90805000Y-76200000D03*
X165735000Y-80645000D03*
X128270000Y-74930000D03*
X179070000Y-94615000D03*
X163830000Y-80645000D03*
X147320000Y-85725000D03*
X95250000Y-126365000D03*
X163830000Y-78740000D03*
X132080000Y-74930000D03*
X130175000Y-76835000D03*
X163830000Y-76835000D03*
X177165000Y-96520000D03*
X179070000Y-87630000D03*
X96520000Y-78740000D03*
X95250000Y-124460000D03*
X130175000Y-80645000D03*
X132080000Y-78740000D03*
X100330000Y-80645000D03*
X102235000Y-74930000D03*
X98425000Y-80645000D03*
X86995000Y-76200000D03*
X94615000Y-76835000D03*
X113665000Y-94615000D03*
X115570000Y-87630000D03*
X133985000Y-78740000D03*
X147320000Y-87630000D03*
X126365000Y-80645000D03*
X128270000Y-78740000D03*
X158115000Y-80645000D03*
X100330000Y-76835000D03*
X120650000Y-74295000D03*
X160020000Y-74930000D03*
X88900000Y-76200000D03*
X160020000Y-80645000D03*
X102235000Y-78740000D03*
X118745000Y-74295000D03*
X152400000Y-76200000D03*
X88900000Y-74295000D03*
X100330000Y-74930000D03*
X150495000Y-76200000D03*
X102235000Y-80645000D03*
X140970000Y-126365000D03*
X179070000Y-96520000D03*
X126365000Y-74930000D03*
X96520000Y-74930000D03*
X152400000Y-74295000D03*
X165735000Y-78740000D03*
X113665000Y-89535000D03*
X145415000Y-85725000D03*
X133985000Y-76835000D03*
X179070000Y-85725000D03*
X128270000Y-80645000D03*
X102235000Y-76835000D03*
X147320000Y-94615000D03*
X122555000Y-74295000D03*
X147320000Y-98425000D03*
X90805000Y-74295000D03*
X132080000Y-76835000D03*
X145415000Y-87630000D03*
X96520000Y-80645000D03*
X96520000Y-76835000D03*
X161925000Y-78740000D03*
X154305000Y-74295000D03*
X130175000Y-74930000D03*
X179070000Y-89535000D03*
X115570000Y-96520000D03*
X115570000Y-94615000D03*
X147320000Y-89535000D03*
X115570000Y-85725000D03*
X179070000Y-98425000D03*
X145415000Y-98425000D03*
X145415000Y-96520000D03*
X115570000Y-89535000D03*
X133985000Y-74930000D03*
X86995000Y-74295000D03*
X177165000Y-89535000D03*
X160020000Y-76835000D03*
X154305000Y-76200000D03*
X177165000Y-94615000D03*
X94615000Y-74930000D03*
X113665000Y-87630000D03*
X113665000Y-85725000D03*
X150495000Y-74295000D03*
X120650000Y-76200000D03*
X158115000Y-76835000D03*
X147320000Y-96520000D03*
X94615000Y-80645000D03*
X126365000Y-76835000D03*
X145415000Y-94615000D03*
X161925000Y-74930000D03*
X160020000Y-78740000D03*
X140970000Y-124460000D03*
X98425000Y-74930000D03*
X177165000Y-98425000D03*
X128270000Y-76835000D03*
X115570000Y-98425000D03*
X132080000Y-80645000D03*
X133985000Y-80645000D03*
X158115000Y-74930000D03*
X94615000Y-78740000D03*
X145415000Y-89535000D03*
X165735000Y-74930000D03*
X130175000Y-78740000D03*
X165735000Y-76835000D03*
X98425000Y-78740000D03*
X177165000Y-87630000D03*
X95250000Y-128270000D03*
X113665000Y-98425000D03*
X122555000Y-76200000D03*
X158115000Y-78740000D03*
X98425000Y-76835000D03*
X177165000Y-85725000D03*
X163830000Y-74930000D03*
X100330000Y-78740000D03*
X161925000Y-76835000D03*
G04 #@! TA.AperFunction,Conductor*
G36*
X179002486Y-67295502D02*
G01*
X179048979Y-67349158D01*
X179059083Y-67419432D01*
X179029589Y-67484012D01*
X179024233Y-67489816D01*
X179014613Y-67499606D01*
X179008648Y-67505676D01*
X179006307Y-67508727D01*
X179006306Y-67508728D01*
X178817326Y-67755011D01*
X178817321Y-67755019D01*
X178814991Y-67758055D01*
X178813042Y-67761364D01*
X178655924Y-68028097D01*
X178653534Y-68032154D01*
X178526685Y-68323886D01*
X178525591Y-68327580D01*
X178525589Y-68327585D01*
X178486206Y-68460542D01*
X178436335Y-68628903D01*
X178383831Y-68942657D01*
X178369955Y-69260471D01*
X178394914Y-69577607D01*
X178458336Y-69889338D01*
X178559276Y-70191016D01*
X178560925Y-70194474D01*
X178560927Y-70194478D01*
X178694576Y-70474678D01*
X178696229Y-70478143D01*
X178867153Y-70746440D01*
X179069500Y-70991907D01*
X179300254Y-71210884D01*
X179555975Y-71400108D01*
X179657452Y-71457521D01*
X179829492Y-71554857D01*
X179829496Y-71554859D01*
X179832849Y-71556756D01*
X180126751Y-71678494D01*
X180228083Y-71706596D01*
X180429582Y-71762477D01*
X180429590Y-71762479D01*
X180433298Y-71763507D01*
X180747921Y-71810528D01*
X180751219Y-71810672D01*
X180860427Y-71815440D01*
X180860432Y-71815440D01*
X180861804Y-71815500D01*
X181055799Y-71815500D01*
X181292524Y-71801021D01*
X181296307Y-71800320D01*
X181296314Y-71800319D01*
X181494931Y-71763507D01*
X181605313Y-71743049D01*
X181814732Y-71677020D01*
X181905035Y-71648548D01*
X181905038Y-71648547D01*
X181908707Y-71647390D01*
X181912204Y-71645796D01*
X181912210Y-71645794D01*
X182194673Y-71517068D01*
X182194677Y-71517066D01*
X182198181Y-71515469D01*
X182280335Y-71465125D01*
X182466142Y-71351262D01*
X182466145Y-71351260D01*
X182469420Y-71349253D01*
X182472424Y-71346863D01*
X182472429Y-71346860D01*
X182658443Y-71198898D01*
X182710063Y-71157838D01*
X182775826Y-71131086D01*
X182845613Y-71144135D01*
X182897267Y-71192842D01*
X182914499Y-71256447D01*
X182914499Y-120517084D01*
X182894497Y-120585205D01*
X182840841Y-120631698D01*
X182770567Y-120641802D01*
X182701766Y-120608481D01*
X182683802Y-120591434D01*
X182649746Y-120559116D01*
X182394025Y-120369892D01*
X182247822Y-120287174D01*
X182120508Y-120215143D01*
X182120504Y-120215141D01*
X182117151Y-120213244D01*
X182112608Y-120211362D01*
X181902194Y-120124206D01*
X181823249Y-120091506D01*
X181694443Y-120055785D01*
X181520418Y-120007523D01*
X181520410Y-120007521D01*
X181516702Y-120006493D01*
X181202079Y-119959472D01*
X181198781Y-119959328D01*
X181089573Y-119954560D01*
X181089568Y-119954560D01*
X181088196Y-119954500D01*
X180894201Y-119954500D01*
X180657476Y-119968979D01*
X180653693Y-119969680D01*
X180653686Y-119969681D01*
X180501082Y-119997965D01*
X180344687Y-120026951D01*
X180171824Y-120081454D01*
X180044965Y-120121452D01*
X180044962Y-120121453D01*
X180041293Y-120122610D01*
X180037796Y-120124204D01*
X180037790Y-120124206D01*
X179755327Y-120252932D01*
X179755323Y-120252934D01*
X179751819Y-120254531D01*
X179748540Y-120256541D01*
X179748537Y-120256542D01*
X179510301Y-120402534D01*
X179480580Y-120420747D01*
X179477576Y-120423137D01*
X179477571Y-120423140D01*
X179273827Y-120585205D01*
X179231619Y-120618779D01*
X179228927Y-120621518D01*
X179228923Y-120621522D01*
X179208994Y-120641802D01*
X179008648Y-120845676D01*
X179006307Y-120848727D01*
X179006306Y-120848728D01*
X178817326Y-121095011D01*
X178817321Y-121095019D01*
X178814991Y-121098055D01*
X178813042Y-121101364D01*
X178698792Y-121295322D01*
X178653534Y-121372154D01*
X178526685Y-121663886D01*
X178436335Y-121968903D01*
X178383831Y-122282657D01*
X178369955Y-122600471D01*
X178394914Y-122917607D01*
X178458336Y-123229338D01*
X178559276Y-123531016D01*
X178560925Y-123534474D01*
X178560927Y-123534478D01*
X178637964Y-123695989D01*
X178696229Y-123818143D01*
X178867153Y-124086440D01*
X178869596Y-124089403D01*
X178869597Y-124089405D01*
X178878399Y-124100083D01*
X179069500Y-124331907D01*
X179300254Y-124550884D01*
X179555975Y-124740108D01*
X179694412Y-124818432D01*
X179829492Y-124894857D01*
X179829496Y-124894859D01*
X179832849Y-124896756D01*
X180126751Y-125018494D01*
X180228083Y-125046596D01*
X180429582Y-125102477D01*
X180429590Y-125102479D01*
X180433298Y-125103507D01*
X180747921Y-125150528D01*
X180751219Y-125150672D01*
X180860427Y-125155440D01*
X180860432Y-125155440D01*
X180861804Y-125155500D01*
X181055799Y-125155500D01*
X181292524Y-125141021D01*
X181296307Y-125140320D01*
X181296314Y-125140319D01*
X181458053Y-125110342D01*
X181605313Y-125083049D01*
X181814732Y-125017020D01*
X181905035Y-124988548D01*
X181905038Y-124988547D01*
X181908707Y-124987390D01*
X181912204Y-124985796D01*
X181912210Y-124985794D01*
X182194673Y-124857068D01*
X182194677Y-124857066D01*
X182198181Y-124855469D01*
X182383334Y-124742007D01*
X182466142Y-124691262D01*
X182466145Y-124691260D01*
X182469420Y-124689253D01*
X182472424Y-124686863D01*
X182472429Y-124686860D01*
X182710062Y-124497838D01*
X182775826Y-124471086D01*
X182845613Y-124484135D01*
X182897267Y-124532842D01*
X182914499Y-124596447D01*
X182914499Y-130127388D01*
X182913421Y-130143834D01*
X182909318Y-130175000D01*
X182910396Y-130183187D01*
X182910396Y-130183188D01*
X182911158Y-130188975D01*
X182911966Y-130213664D01*
X182898447Y-130419914D01*
X182896296Y-130436254D01*
X182850024Y-130668882D01*
X182845760Y-130684795D01*
X182782469Y-130871245D01*
X182769519Y-130909394D01*
X182763212Y-130924620D01*
X182658309Y-131137342D01*
X182650068Y-131151616D01*
X182518296Y-131348828D01*
X182508263Y-131361903D01*
X182351873Y-131540232D01*
X182340232Y-131551873D01*
X182161903Y-131708263D01*
X182148828Y-131718296D01*
X181951616Y-131850068D01*
X181937342Y-131858309D01*
X181724620Y-131963212D01*
X181709396Y-131969518D01*
X181484795Y-132045760D01*
X181468885Y-132050023D01*
X181352568Y-132073160D01*
X181236254Y-132096296D01*
X181219914Y-132098447D01*
X181013664Y-132111966D01*
X180988975Y-132111158D01*
X180983188Y-132110396D01*
X180983187Y-132110396D01*
X180975000Y-132109318D01*
X180966812Y-132110396D01*
X180943827Y-132113422D01*
X180927381Y-132114500D01*
X87677619Y-132114500D01*
X87661173Y-132113422D01*
X87638188Y-132110396D01*
X87630000Y-132109318D01*
X87621813Y-132110396D01*
X87621812Y-132110396D01*
X87616025Y-132111158D01*
X87591336Y-132111966D01*
X87385086Y-132098447D01*
X87368746Y-132096296D01*
X87252432Y-132073160D01*
X87136115Y-132050023D01*
X87120205Y-132045760D01*
X86895604Y-131969518D01*
X86880380Y-131963212D01*
X86667658Y-131858309D01*
X86653384Y-131850068D01*
X86456172Y-131718296D01*
X86443097Y-131708263D01*
X86264768Y-131551873D01*
X86253127Y-131540232D01*
X86096737Y-131361903D01*
X86086704Y-131348828D01*
X85954932Y-131151616D01*
X85946691Y-131137342D01*
X85841788Y-130924620D01*
X85835481Y-130909394D01*
X85822531Y-130871245D01*
X85759240Y-130684795D01*
X85754976Y-130668882D01*
X85717120Y-130478566D01*
X126164500Y-130478566D01*
X126167400Y-130521107D01*
X126212105Y-130700408D01*
X126215136Y-130706515D01*
X126215138Y-130706519D01*
X126238965Y-130754517D01*
X126294269Y-130865926D01*
X126410060Y-131009940D01*
X126554074Y-131125731D01*
X126606219Y-131151616D01*
X126713481Y-131204862D01*
X126713485Y-131204864D01*
X126719592Y-131207895D01*
X126726214Y-131209546D01*
X126893497Y-131251255D01*
X126893501Y-131251256D01*
X126898893Y-131252600D01*
X126915706Y-131253746D01*
X126939286Y-131255354D01*
X126939299Y-131255354D01*
X126941434Y-131255500D01*
X128328566Y-131255500D01*
X128330701Y-131255354D01*
X128330714Y-131255354D01*
X128354294Y-131253746D01*
X128371107Y-131252600D01*
X128376499Y-131251256D01*
X128376503Y-131251255D01*
X128543786Y-131209546D01*
X128550408Y-131207895D01*
X128556515Y-131204864D01*
X128556519Y-131204862D01*
X128663781Y-131151616D01*
X128715926Y-131125731D01*
X128859940Y-131009940D01*
X128975731Y-130865926D01*
X129007349Y-130802232D01*
X129055554Y-130750108D01*
X129124286Y-130732321D01*
X129191724Y-130754517D01*
X129211379Y-130771284D01*
X129254918Y-130816925D01*
X129262892Y-130823979D01*
X129441952Y-130957203D01*
X129450982Y-130962802D01*
X129649934Y-131063954D01*
X129659787Y-131067955D01*
X129757698Y-131098357D01*
X129771799Y-131098576D01*
X129775000Y-131091844D01*
X129775000Y-131090515D01*
X130575000Y-131090515D01*
X130578973Y-131104046D01*
X130584570Y-131104850D01*
X130784961Y-131025712D01*
X130794483Y-131020985D01*
X130985285Y-130905204D01*
X130993878Y-130898938D01*
X131162441Y-130752667D01*
X131169861Y-130745036D01*
X131311368Y-130572458D01*
X131317393Y-130563691D01*
X131427797Y-130369738D01*
X131432262Y-130360074D01*
X131508410Y-130150289D01*
X131511181Y-130140021D01*
X131540511Y-129977826D01*
X131539093Y-129964587D01*
X131524454Y-129960000D01*
X130593115Y-129960000D01*
X130577876Y-129964475D01*
X130576671Y-129965865D01*
X130575000Y-129973548D01*
X130575000Y-131090515D01*
X129775000Y-131090515D01*
X129775000Y-129141885D01*
X130575000Y-129141885D01*
X130579475Y-129157124D01*
X130580865Y-129158329D01*
X130588548Y-129160000D01*
X131525018Y-129160000D01*
X131539696Y-129155690D01*
X131541759Y-129143807D01*
X131538661Y-129107293D01*
X131536871Y-129096821D01*
X131480802Y-128880798D01*
X131477266Y-128870758D01*
X131385601Y-128667268D01*
X131380432Y-128657982D01*
X131255790Y-128472845D01*
X131249129Y-128464559D01*
X131095076Y-128303070D01*
X131087108Y-128296021D01*
X130930818Y-128179738D01*
X146559500Y-128179738D01*
X146559646Y-128181874D01*
X146559646Y-128181885D01*
X146573459Y-128384497D01*
X146574626Y-128401619D01*
X146575495Y-128405814D01*
X146575495Y-128405816D01*
X146579719Y-128426214D01*
X146634917Y-128692750D01*
X146734160Y-128973004D01*
X146870520Y-129237197D01*
X147041474Y-129480440D01*
X147243857Y-129698230D01*
X147473926Y-129886539D01*
X147727423Y-130041882D01*
X147731356Y-130043608D01*
X147731357Y-130043609D01*
X147922195Y-130127381D01*
X147999656Y-130161384D01*
X148003783Y-130162560D01*
X148003784Y-130162560D01*
X148281459Y-130241659D01*
X148281466Y-130241660D01*
X148285589Y-130242835D01*
X148289831Y-130243439D01*
X148289837Y-130243440D01*
X148505728Y-130274165D01*
X148579931Y-130284726D01*
X148736057Y-130285543D01*
X148872949Y-130286260D01*
X148872955Y-130286260D01*
X148877235Y-130286282D01*
X148881479Y-130285723D01*
X148881483Y-130285723D01*
X149011033Y-130268667D01*
X149171999Y-130247476D01*
X149193263Y-130241659D01*
X149227353Y-130232333D01*
X149458769Y-130169024D01*
X149517826Y-130143834D01*
X149728287Y-130054065D01*
X149728291Y-130054063D01*
X149732239Y-130052379D01*
X149863957Y-129973548D01*
X149983667Y-129901904D01*
X149983671Y-129901901D01*
X149987349Y-129899700D01*
X149990692Y-129897022D01*
X149990696Y-129897019D01*
X150104076Y-129806184D01*
X150219377Y-129713810D01*
X150222321Y-129710708D01*
X150222325Y-129710704D01*
X150421080Y-129501260D01*
X150421082Y-129501257D01*
X150424030Y-129498151D01*
X150597521Y-129256712D01*
X150736640Y-128993962D01*
X150838813Y-128714762D01*
X150902149Y-128424278D01*
X150906071Y-128374443D01*
X150920307Y-128193559D01*
X150920307Y-128193550D01*
X150920500Y-128191102D01*
X150920500Y-128179738D01*
X159259500Y-128179738D01*
X159259646Y-128181874D01*
X159259646Y-128181885D01*
X159273459Y-128384497D01*
X159274626Y-128401619D01*
X159275495Y-128405814D01*
X159275495Y-128405816D01*
X159279719Y-128426214D01*
X159334917Y-128692750D01*
X159434160Y-128973004D01*
X159570520Y-129237197D01*
X159741474Y-129480440D01*
X159943857Y-129698230D01*
X160173926Y-129886539D01*
X160427423Y-130041882D01*
X160431356Y-130043608D01*
X160431357Y-130043609D01*
X160622195Y-130127381D01*
X160699656Y-130161384D01*
X160703783Y-130162560D01*
X160703784Y-130162560D01*
X160981459Y-130241659D01*
X160981466Y-130241660D01*
X160985589Y-130242835D01*
X160989831Y-130243439D01*
X160989837Y-130243440D01*
X161205728Y-130274165D01*
X161279931Y-130284726D01*
X161436057Y-130285543D01*
X161572949Y-130286260D01*
X161572955Y-130286260D01*
X161577235Y-130286282D01*
X161581479Y-130285723D01*
X161581483Y-130285723D01*
X161711033Y-130268667D01*
X161871999Y-130247476D01*
X161893263Y-130241659D01*
X161927353Y-130232333D01*
X162158769Y-130169024D01*
X162217826Y-130143834D01*
X162428287Y-130054065D01*
X162428291Y-130054063D01*
X162432239Y-130052379D01*
X162563957Y-129973548D01*
X162683667Y-129901904D01*
X162683671Y-129901901D01*
X162687349Y-129899700D01*
X162690692Y-129897022D01*
X162690696Y-129897019D01*
X162804076Y-129806184D01*
X162919377Y-129713810D01*
X162922321Y-129710708D01*
X162922325Y-129710704D01*
X163121080Y-129501260D01*
X163121082Y-129501257D01*
X163124030Y-129498151D01*
X163297521Y-129256712D01*
X163436640Y-128993962D01*
X163538813Y-128714762D01*
X163602149Y-128424278D01*
X163606071Y-128374443D01*
X163620307Y-128193559D01*
X163620307Y-128193550D01*
X163620500Y-128191102D01*
X163620500Y-128179738D01*
X171959500Y-128179738D01*
X171959646Y-128181874D01*
X171959646Y-128181885D01*
X171973459Y-128384497D01*
X171974626Y-128401619D01*
X171975495Y-128405814D01*
X171975495Y-128405816D01*
X171979719Y-128426214D01*
X172034917Y-128692750D01*
X172134160Y-128973004D01*
X172270520Y-129237197D01*
X172441474Y-129480440D01*
X172643857Y-129698230D01*
X172873926Y-129886539D01*
X173127423Y-130041882D01*
X173131356Y-130043608D01*
X173131357Y-130043609D01*
X173322195Y-130127381D01*
X173399656Y-130161384D01*
X173403783Y-130162560D01*
X173403784Y-130162560D01*
X173681459Y-130241659D01*
X173681466Y-130241660D01*
X173685589Y-130242835D01*
X173689831Y-130243439D01*
X173689837Y-130243440D01*
X173905728Y-130274165D01*
X173979931Y-130284726D01*
X174136057Y-130285543D01*
X174272949Y-130286260D01*
X174272955Y-130286260D01*
X174277235Y-130286282D01*
X174281479Y-130285723D01*
X174281483Y-130285723D01*
X174411033Y-130268667D01*
X174571999Y-130247476D01*
X174593263Y-130241659D01*
X174627353Y-130232333D01*
X174858769Y-130169024D01*
X174917826Y-130143834D01*
X175128287Y-130054065D01*
X175128291Y-130054063D01*
X175132239Y-130052379D01*
X175263957Y-129973548D01*
X175383667Y-129901904D01*
X175383671Y-129901901D01*
X175387349Y-129899700D01*
X175390692Y-129897022D01*
X175390696Y-129897019D01*
X175504076Y-129806184D01*
X175619377Y-129713810D01*
X175622321Y-129710708D01*
X175622325Y-129710704D01*
X175821080Y-129501260D01*
X175821082Y-129501257D01*
X175824030Y-129498151D01*
X175997521Y-129256712D01*
X176136640Y-128993962D01*
X176238813Y-128714762D01*
X176302149Y-128424278D01*
X176306071Y-128374443D01*
X176320307Y-128193559D01*
X176320307Y-128193550D01*
X176320500Y-128191102D01*
X176320500Y-127090262D01*
X176319894Y-127081368D01*
X176305666Y-126872658D01*
X176305665Y-126872652D01*
X176305374Y-126868381D01*
X176300682Y-126845722D01*
X176245952Y-126581447D01*
X176245083Y-126577250D01*
X176145840Y-126296996D01*
X176009480Y-126032803D01*
X175838526Y-125789560D01*
X175636143Y-125571770D01*
X175406074Y-125383461D01*
X175152577Y-125228118D01*
X175124824Y-125215935D01*
X174884276Y-125110342D01*
X174880344Y-125108616D01*
X174876216Y-125107440D01*
X174598541Y-125028341D01*
X174598534Y-125028340D01*
X174594411Y-125027165D01*
X174590169Y-125026561D01*
X174590163Y-125026560D01*
X174323073Y-124988548D01*
X174300069Y-124985274D01*
X174143943Y-124984457D01*
X174007051Y-124983740D01*
X174007045Y-124983740D01*
X174002765Y-124983718D01*
X173998521Y-124984277D01*
X173998517Y-124984277D01*
X173868967Y-125001333D01*
X173708001Y-125022524D01*
X173703861Y-125023657D01*
X173703859Y-125023657D01*
X173652647Y-125037667D01*
X173421231Y-125100976D01*
X173417283Y-125102660D01*
X173151713Y-125215935D01*
X173151709Y-125215937D01*
X173147761Y-125217621D01*
X173018997Y-125294684D01*
X172896333Y-125368096D01*
X172896329Y-125368099D01*
X172892651Y-125370300D01*
X172889308Y-125372978D01*
X172889304Y-125372981D01*
X172879018Y-125381222D01*
X172660623Y-125556190D01*
X172657679Y-125559292D01*
X172657675Y-125559296D01*
X172458920Y-125768740D01*
X172455970Y-125771849D01*
X172282479Y-126013288D01*
X172143360Y-126276038D01*
X172041187Y-126555238D01*
X171977851Y-126845722D01*
X171959500Y-127078898D01*
X171959500Y-128179738D01*
X163620500Y-128179738D01*
X163620500Y-127090262D01*
X163619894Y-127081368D01*
X163605666Y-126872658D01*
X163605665Y-126872652D01*
X163605374Y-126868381D01*
X163600682Y-126845722D01*
X163545952Y-126581447D01*
X163545083Y-126577250D01*
X163445840Y-126296996D01*
X163309480Y-126032803D01*
X163138526Y-125789560D01*
X162936143Y-125571770D01*
X162706074Y-125383461D01*
X162452577Y-125228118D01*
X162424824Y-125215935D01*
X162184276Y-125110342D01*
X162180344Y-125108616D01*
X162176216Y-125107440D01*
X161898541Y-125028341D01*
X161898534Y-125028340D01*
X161894411Y-125027165D01*
X161890169Y-125026561D01*
X161890163Y-125026560D01*
X161623073Y-124988548D01*
X161600069Y-124985274D01*
X161443943Y-124984457D01*
X161307051Y-124983740D01*
X161307045Y-124983740D01*
X161302765Y-124983718D01*
X161298521Y-124984277D01*
X161298517Y-124984277D01*
X161168967Y-125001333D01*
X161008001Y-125022524D01*
X161003861Y-125023657D01*
X161003859Y-125023657D01*
X160952647Y-125037667D01*
X160721231Y-125100976D01*
X160717283Y-125102660D01*
X160451713Y-125215935D01*
X160451709Y-125215937D01*
X160447761Y-125217621D01*
X160318997Y-125294684D01*
X160196333Y-125368096D01*
X160196329Y-125368099D01*
X160192651Y-125370300D01*
X160189308Y-125372978D01*
X160189304Y-125372981D01*
X160179018Y-125381222D01*
X159960623Y-125556190D01*
X159957679Y-125559292D01*
X159957675Y-125559296D01*
X159758920Y-125768740D01*
X159755970Y-125771849D01*
X159582479Y-126013288D01*
X159443360Y-126276038D01*
X159341187Y-126555238D01*
X159277851Y-126845722D01*
X159259500Y-127078898D01*
X159259500Y-128179738D01*
X150920500Y-128179738D01*
X150920500Y-127090262D01*
X150919894Y-127081368D01*
X150905666Y-126872658D01*
X150905665Y-126872652D01*
X150905374Y-126868381D01*
X150900682Y-126845722D01*
X150845952Y-126581447D01*
X150845083Y-126577250D01*
X150745840Y-126296996D01*
X150609480Y-126032803D01*
X150438526Y-125789560D01*
X150236143Y-125571770D01*
X150006074Y-125383461D01*
X149752577Y-125228118D01*
X149724824Y-125215935D01*
X149484276Y-125110342D01*
X149480344Y-125108616D01*
X149476216Y-125107440D01*
X149198541Y-125028341D01*
X149198534Y-125028340D01*
X149194411Y-125027165D01*
X149190169Y-125026561D01*
X149190163Y-125026560D01*
X148923073Y-124988548D01*
X148900069Y-124985274D01*
X148743943Y-124984457D01*
X148607051Y-124983740D01*
X148607045Y-124983740D01*
X148602765Y-124983718D01*
X148598521Y-124984277D01*
X148598517Y-124984277D01*
X148468967Y-125001333D01*
X148308001Y-125022524D01*
X148303861Y-125023657D01*
X148303859Y-125023657D01*
X148252647Y-125037667D01*
X148021231Y-125100976D01*
X148017283Y-125102660D01*
X147751713Y-125215935D01*
X147751709Y-125215937D01*
X147747761Y-125217621D01*
X147618997Y-125294684D01*
X147496333Y-125368096D01*
X147496329Y-125368099D01*
X147492651Y-125370300D01*
X147489308Y-125372978D01*
X147489304Y-125372981D01*
X147479018Y-125381222D01*
X147260623Y-125556190D01*
X147257679Y-125559292D01*
X147257675Y-125559296D01*
X147058920Y-125768740D01*
X147055970Y-125771849D01*
X146882479Y-126013288D01*
X146743360Y-126276038D01*
X146641187Y-126555238D01*
X146577851Y-126845722D01*
X146559500Y-127078898D01*
X146559500Y-128179738D01*
X130930818Y-128179738D01*
X130908048Y-128162797D01*
X130899018Y-128157198D01*
X130700066Y-128056046D01*
X130690213Y-128052045D01*
X130592302Y-128021643D01*
X130578201Y-128021424D01*
X130575000Y-128028156D01*
X130575000Y-129141885D01*
X129775000Y-129141885D01*
X129775000Y-128029485D01*
X129771027Y-128015954D01*
X129765430Y-128015150D01*
X129565039Y-128094288D01*
X129555517Y-128099015D01*
X129364715Y-128214796D01*
X129356122Y-128221062D01*
X129201820Y-128354958D01*
X129137260Y-128384497D01*
X129066979Y-128374443D01*
X129013291Y-128327988D01*
X129006380Y-128315816D01*
X129000053Y-128303070D01*
X128975731Y-128254074D01*
X128859940Y-128110060D01*
X128715926Y-127994269D01*
X128633167Y-127953187D01*
X128556519Y-127915138D01*
X128556515Y-127915136D01*
X128550408Y-127912105D01*
X128521397Y-127904872D01*
X128376503Y-127868745D01*
X128376499Y-127868744D01*
X128371107Y-127867400D01*
X128354294Y-127866254D01*
X128330714Y-127864646D01*
X128330701Y-127864646D01*
X128328566Y-127864500D01*
X126941434Y-127864500D01*
X126939299Y-127864646D01*
X126939286Y-127864646D01*
X126915706Y-127866254D01*
X126898893Y-127867400D01*
X126893501Y-127868744D01*
X126893497Y-127868745D01*
X126748603Y-127904872D01*
X126719592Y-127912105D01*
X126713485Y-127915136D01*
X126713481Y-127915138D01*
X126636833Y-127953187D01*
X126554074Y-127994269D01*
X126410060Y-128110060D01*
X126294269Y-128254074D01*
X126269947Y-128303070D01*
X126215138Y-128413481D01*
X126215136Y-128413485D01*
X126212105Y-128419592D01*
X126167400Y-128598893D01*
X126164500Y-128641434D01*
X126164500Y-130478566D01*
X85717120Y-130478566D01*
X85708704Y-130436254D01*
X85706553Y-130419914D01*
X85693034Y-130213664D01*
X85693842Y-130188975D01*
X85694604Y-130183188D01*
X85694604Y-130183187D01*
X85695682Y-130175000D01*
X85691578Y-130143827D01*
X85690500Y-130127381D01*
X85690500Y-128179738D01*
X117909500Y-128179738D01*
X117909646Y-128181874D01*
X117909646Y-128181885D01*
X117923459Y-128384497D01*
X117924626Y-128401619D01*
X117925495Y-128405814D01*
X117925495Y-128405816D01*
X117929719Y-128426214D01*
X117984917Y-128692750D01*
X118084160Y-128973004D01*
X118220520Y-129237197D01*
X118391474Y-129480440D01*
X118593857Y-129698230D01*
X118823926Y-129886539D01*
X119077423Y-130041882D01*
X119081356Y-130043608D01*
X119081357Y-130043609D01*
X119272195Y-130127381D01*
X119349656Y-130161384D01*
X119353783Y-130162560D01*
X119353784Y-130162560D01*
X119631459Y-130241659D01*
X119631466Y-130241660D01*
X119635589Y-130242835D01*
X119639831Y-130243439D01*
X119639837Y-130243440D01*
X119855728Y-130274165D01*
X119929931Y-130284726D01*
X120086057Y-130285543D01*
X120222949Y-130286260D01*
X120222955Y-130286260D01*
X120227235Y-130286282D01*
X120231479Y-130285723D01*
X120231483Y-130285723D01*
X120361033Y-130268667D01*
X120521999Y-130247476D01*
X120543263Y-130241659D01*
X120577353Y-130232333D01*
X120808769Y-130169024D01*
X120867826Y-130143834D01*
X121078287Y-130054065D01*
X121078291Y-130054063D01*
X121082239Y-130052379D01*
X121213957Y-129973548D01*
X121333667Y-129901904D01*
X121333671Y-129901901D01*
X121337349Y-129899700D01*
X121340692Y-129897022D01*
X121340696Y-129897019D01*
X121454076Y-129806184D01*
X121569377Y-129713810D01*
X121572321Y-129710708D01*
X121572325Y-129710704D01*
X121771080Y-129501260D01*
X121771082Y-129501257D01*
X121774030Y-129498151D01*
X121947521Y-129256712D01*
X122086640Y-128993962D01*
X122188813Y-128714762D01*
X122252149Y-128424278D01*
X122256071Y-128374443D01*
X122270307Y-128193559D01*
X122270307Y-128193550D01*
X122270500Y-128191102D01*
X122270500Y-127090262D01*
X122269894Y-127081368D01*
X122255666Y-126872658D01*
X122255665Y-126872652D01*
X122255374Y-126868381D01*
X122250682Y-126845722D01*
X122195952Y-126581447D01*
X122195083Y-126577250D01*
X122095840Y-126296996D01*
X121959480Y-126032803D01*
X121788526Y-125789560D01*
X121586143Y-125571770D01*
X121356074Y-125383461D01*
X121102577Y-125228118D01*
X121074824Y-125215935D01*
X120834276Y-125110342D01*
X120830344Y-125108616D01*
X120826216Y-125107440D01*
X120548541Y-125028341D01*
X120548534Y-125028340D01*
X120544411Y-125027165D01*
X120540169Y-125026561D01*
X120540163Y-125026560D01*
X120273073Y-124988548D01*
X120250069Y-124985274D01*
X120093943Y-124984457D01*
X119957051Y-124983740D01*
X119957045Y-124983740D01*
X119952765Y-124983718D01*
X119948521Y-124984277D01*
X119948517Y-124984277D01*
X119818967Y-125001333D01*
X119658001Y-125022524D01*
X119653861Y-125023657D01*
X119653859Y-125023657D01*
X119602647Y-125037667D01*
X119371231Y-125100976D01*
X119367283Y-125102660D01*
X119101713Y-125215935D01*
X119101709Y-125215937D01*
X119097761Y-125217621D01*
X118968997Y-125294684D01*
X118846333Y-125368096D01*
X118846329Y-125368099D01*
X118842651Y-125370300D01*
X118839308Y-125372978D01*
X118839304Y-125372981D01*
X118829018Y-125381222D01*
X118610623Y-125556190D01*
X118607679Y-125559292D01*
X118607675Y-125559296D01*
X118408920Y-125768740D01*
X118405970Y-125771849D01*
X118232479Y-126013288D01*
X118093360Y-126276038D01*
X117991187Y-126555238D01*
X117927851Y-126845722D01*
X117909500Y-127078898D01*
X117909500Y-128179738D01*
X85690500Y-128179738D01*
X85690500Y-122600471D01*
X86929955Y-122600471D01*
X86954914Y-122917607D01*
X87018336Y-123229338D01*
X87119276Y-123531016D01*
X87120925Y-123534474D01*
X87120927Y-123534478D01*
X87197964Y-123695989D01*
X87256229Y-123818143D01*
X87427153Y-124086440D01*
X87429596Y-124089403D01*
X87429597Y-124089405D01*
X87438399Y-124100083D01*
X87629500Y-124331907D01*
X87860254Y-124550884D01*
X88115975Y-124740108D01*
X88254412Y-124818432D01*
X88389492Y-124894857D01*
X88389496Y-124894859D01*
X88392849Y-124896756D01*
X88686751Y-125018494D01*
X88788083Y-125046596D01*
X88989582Y-125102477D01*
X88989590Y-125102479D01*
X88993298Y-125103507D01*
X89307921Y-125150528D01*
X89311219Y-125150672D01*
X89420427Y-125155440D01*
X89420432Y-125155440D01*
X89421804Y-125155500D01*
X89615799Y-125155500D01*
X89852524Y-125141021D01*
X89856307Y-125140320D01*
X89856314Y-125140319D01*
X90018053Y-125110342D01*
X90165313Y-125083049D01*
X90374732Y-125017020D01*
X90465035Y-124988548D01*
X90465038Y-124988547D01*
X90468707Y-124987390D01*
X90472204Y-124985796D01*
X90472210Y-124985794D01*
X90754673Y-124857068D01*
X90754677Y-124857066D01*
X90758181Y-124855469D01*
X90943334Y-124742007D01*
X91026142Y-124691262D01*
X91026145Y-124691260D01*
X91029420Y-124689253D01*
X91032424Y-124686863D01*
X91032429Y-124686860D01*
X91275370Y-124493616D01*
X91278381Y-124491221D01*
X91285345Y-124484135D01*
X91437850Y-124328944D01*
X91501352Y-124264324D01*
X91569657Y-124175307D01*
X91692674Y-124014989D01*
X91692679Y-124014981D01*
X91695009Y-124011945D01*
X91788917Y-123852521D01*
X91854513Y-123741162D01*
X91854515Y-123741159D01*
X91856466Y-123737846D01*
X91983315Y-123446114D01*
X91997400Y-123398566D01*
X92038126Y-123261074D01*
X92073665Y-123141097D01*
X92126169Y-122827343D01*
X92140045Y-122509529D01*
X92115086Y-122192393D01*
X92102847Y-122132235D01*
X99478718Y-122132235D01*
X99479277Y-122136479D01*
X99479277Y-122136483D01*
X99486142Y-122188624D01*
X99517524Y-122426999D01*
X99595976Y-122713769D01*
X99597660Y-122717717D01*
X99681285Y-122913772D01*
X99712621Y-122987239D01*
X99714828Y-122990926D01*
X99859695Y-123232983D01*
X99865300Y-123242349D01*
X99867978Y-123245692D01*
X99867981Y-123245696D01*
X99958816Y-123359076D01*
X100051190Y-123474377D01*
X100054292Y-123477321D01*
X100054296Y-123477325D01*
X100114523Y-123534478D01*
X100266849Y-123679030D01*
X100508288Y-123852521D01*
X100771038Y-123991640D01*
X100817482Y-124008636D01*
X101038193Y-124089405D01*
X101050238Y-124093813D01*
X101340722Y-124157149D01*
X101370658Y-124159505D01*
X101571441Y-124175307D01*
X101571450Y-124175307D01*
X101573898Y-124175500D01*
X102674738Y-124175500D01*
X102676874Y-124175354D01*
X102676885Y-124175354D01*
X102892342Y-124160666D01*
X102892348Y-124160665D01*
X102896619Y-124160374D01*
X102900814Y-124159505D01*
X102900816Y-124159505D01*
X103068098Y-124124862D01*
X103187750Y-124100083D01*
X103468004Y-124000840D01*
X103732197Y-123864480D01*
X103735698Y-123862019D01*
X103735702Y-123862017D01*
X103917396Y-123734320D01*
X103975440Y-123693526D01*
X104193230Y-123491143D01*
X104381539Y-123261074D01*
X104536882Y-123007577D01*
X104656384Y-122735344D01*
X104720710Y-122509529D01*
X104736659Y-122453541D01*
X104736660Y-122453534D01*
X104737835Y-122449411D01*
X104740436Y-122431141D01*
X104779121Y-122159319D01*
X104779726Y-122155069D01*
X104780543Y-121998943D01*
X104781260Y-121862051D01*
X104781260Y-121862045D01*
X104781282Y-121857765D01*
X104778842Y-121839226D01*
X104763667Y-121723967D01*
X104742476Y-121563001D01*
X104664024Y-121276231D01*
X104589437Y-121101364D01*
X104549065Y-121006713D01*
X104549063Y-121006709D01*
X104547379Y-121002761D01*
X104437603Y-120819337D01*
X104396904Y-120751333D01*
X104396901Y-120751329D01*
X104394700Y-120747651D01*
X104379699Y-120728926D01*
X104245777Y-120561765D01*
X104208810Y-120515623D01*
X104205708Y-120512679D01*
X104205704Y-120512675D01*
X104088672Y-120401616D01*
X104053028Y-120340216D01*
X104056237Y-120269292D01*
X104097282Y-120211362D01*
X104144922Y-120187963D01*
X104225408Y-120167895D01*
X104231515Y-120164864D01*
X104231519Y-120164862D01*
X104316634Y-120122610D01*
X104390926Y-120085731D01*
X104534940Y-119969940D01*
X104650731Y-119825926D01*
X104727044Y-119672195D01*
X104729862Y-119666519D01*
X104729864Y-119666515D01*
X104732895Y-119660408D01*
X104741108Y-119627466D01*
X104776255Y-119486503D01*
X104776256Y-119486499D01*
X104777600Y-119481107D01*
X104780500Y-119438566D01*
X104780500Y-118172235D01*
X131438718Y-118172235D01*
X131439277Y-118176479D01*
X131439277Y-118176483D01*
X131456333Y-118306033D01*
X131477524Y-118466999D01*
X131555976Y-118753769D01*
X131672621Y-119027239D01*
X131825300Y-119282349D01*
X131827978Y-119285692D01*
X131827981Y-119285696D01*
X131918816Y-119399076D01*
X132011190Y-119514377D01*
X132014292Y-119517321D01*
X132014296Y-119517325D01*
X132131328Y-119628384D01*
X132166972Y-119689784D01*
X132163763Y-119760708D01*
X132122718Y-119818638D01*
X132075078Y-119842037D01*
X131994592Y-119862105D01*
X131988485Y-119865136D01*
X131988481Y-119865138D01*
X131911833Y-119903187D01*
X131829074Y-119944269D01*
X131685060Y-120060060D01*
X131569269Y-120204074D01*
X131528187Y-120286833D01*
X131490138Y-120363481D01*
X131490136Y-120363485D01*
X131487105Y-120369592D01*
X131485454Y-120376214D01*
X131455604Y-120495936D01*
X131442400Y-120548893D01*
X131442022Y-120554441D01*
X131439925Y-120585205D01*
X131439500Y-120591434D01*
X131439500Y-123398566D01*
X131442400Y-123441107D01*
X131443744Y-123446499D01*
X131443745Y-123446503D01*
X131463909Y-123527376D01*
X131487105Y-123620408D01*
X131490136Y-123626515D01*
X131490138Y-123626519D01*
X131514741Y-123676080D01*
X131569269Y-123785926D01*
X131685060Y-123929940D01*
X131829074Y-124045731D01*
X131904547Y-124083196D01*
X131988481Y-124124862D01*
X131988485Y-124124864D01*
X131994592Y-124127895D01*
X132001214Y-124129546D01*
X132168497Y-124171255D01*
X132168501Y-124171256D01*
X132173893Y-124172600D01*
X132190706Y-124173746D01*
X132214286Y-124175354D01*
X132214299Y-124175354D01*
X132216434Y-124175500D01*
X135963566Y-124175500D01*
X135965701Y-124175354D01*
X135965714Y-124175354D01*
X135989294Y-124173746D01*
X136006107Y-124172600D01*
X136011499Y-124171256D01*
X136011503Y-124171255D01*
X136178786Y-124129546D01*
X136185408Y-124127895D01*
X136191515Y-124124864D01*
X136191519Y-124124862D01*
X136275453Y-124083196D01*
X136350926Y-124045731D01*
X136494940Y-123929940D01*
X136610731Y-123785926D01*
X136665259Y-123676080D01*
X136689862Y-123626519D01*
X136689864Y-123626515D01*
X136692895Y-123620408D01*
X136716091Y-123527376D01*
X136736255Y-123446503D01*
X136736256Y-123446499D01*
X136737600Y-123441107D01*
X136740500Y-123398566D01*
X136740500Y-120591434D01*
X136740076Y-120585205D01*
X136737978Y-120554441D01*
X136737600Y-120548893D01*
X136724397Y-120495936D01*
X136694546Y-120376214D01*
X136692895Y-120369592D01*
X136689864Y-120363485D01*
X136689862Y-120363481D01*
X136651813Y-120286833D01*
X136610731Y-120204074D01*
X136494940Y-120060060D01*
X136350926Y-119944269D01*
X136268167Y-119903187D01*
X136191519Y-119865138D01*
X136191515Y-119865136D01*
X136185408Y-119862105D01*
X136104862Y-119842023D01*
X136043605Y-119806136D01*
X136011473Y-119742826D01*
X136018670Y-119672195D01*
X136049574Y-119627466D01*
X136150087Y-119534064D01*
X136150090Y-119534061D01*
X136153230Y-119531143D01*
X136341539Y-119301074D01*
X136496882Y-119047577D01*
X136616384Y-118775344D01*
X136697835Y-118489411D01*
X136700436Y-118471141D01*
X136739121Y-118199319D01*
X136739726Y-118195069D01*
X136741282Y-117897765D01*
X136738842Y-117879226D01*
X136703036Y-117607257D01*
X136702476Y-117603001D01*
X136624024Y-117316231D01*
X136507379Y-117042761D01*
X136354700Y-116787651D01*
X136339699Y-116768926D01*
X136171487Y-116558965D01*
X136168810Y-116555623D01*
X136165708Y-116552679D01*
X136165704Y-116552675D01*
X135956260Y-116353920D01*
X135956257Y-116353918D01*
X135953151Y-116350970D01*
X135711712Y-116177479D01*
X135448962Y-116038360D01*
X135169762Y-115936187D01*
X134879278Y-115872851D01*
X134838300Y-115869626D01*
X134648559Y-115854693D01*
X134648550Y-115854693D01*
X134646102Y-115854500D01*
X133545262Y-115854500D01*
X133543126Y-115854646D01*
X133543115Y-115854646D01*
X133327658Y-115869334D01*
X133327652Y-115869335D01*
X133323381Y-115869626D01*
X133319186Y-115870495D01*
X133319184Y-115870495D01*
X133177816Y-115899771D01*
X133032250Y-115929917D01*
X132751996Y-116029160D01*
X132487803Y-116165520D01*
X132484302Y-116167981D01*
X132484298Y-116167983D01*
X132383600Y-116238755D01*
X132244560Y-116336474D01*
X132026770Y-116538857D01*
X131838461Y-116768926D01*
X131683118Y-117022423D01*
X131563616Y-117294656D01*
X131482165Y-117580589D01*
X131481561Y-117584831D01*
X131481560Y-117584837D01*
X131450835Y-117800728D01*
X131440274Y-117874931D01*
X131438718Y-118172235D01*
X104780500Y-118172235D01*
X104780500Y-116631434D01*
X104777600Y-116588893D01*
X104764397Y-116535936D01*
X104734546Y-116416214D01*
X104732895Y-116409592D01*
X104729864Y-116403485D01*
X104729862Y-116403481D01*
X104691813Y-116326833D01*
X104650731Y-116244074D01*
X104534940Y-116100060D01*
X104390926Y-115984269D01*
X104294066Y-115936187D01*
X104231519Y-115905138D01*
X104231515Y-115905136D01*
X104225408Y-115902105D01*
X104196397Y-115894872D01*
X104051503Y-115858745D01*
X104051499Y-115858744D01*
X104046107Y-115857400D01*
X104029294Y-115856254D01*
X104005714Y-115854646D01*
X104005701Y-115854646D01*
X104003566Y-115854500D01*
X100256434Y-115854500D01*
X100254299Y-115854646D01*
X100254286Y-115854646D01*
X100230706Y-115856254D01*
X100213893Y-115857400D01*
X100208501Y-115858744D01*
X100208497Y-115858745D01*
X100063603Y-115894872D01*
X100034592Y-115902105D01*
X100028485Y-115905136D01*
X100028481Y-115905138D01*
X99965934Y-115936187D01*
X99869074Y-115984269D01*
X99725060Y-116100060D01*
X99609269Y-116244074D01*
X99568187Y-116326833D01*
X99530138Y-116403481D01*
X99530136Y-116403485D01*
X99527105Y-116409592D01*
X99525454Y-116416214D01*
X99495604Y-116535936D01*
X99482400Y-116588893D01*
X99479500Y-116631434D01*
X99479500Y-119438566D01*
X99482400Y-119481107D01*
X99483744Y-119486499D01*
X99483745Y-119486503D01*
X99518892Y-119627466D01*
X99527105Y-119660408D01*
X99530136Y-119666515D01*
X99530138Y-119666519D01*
X99532956Y-119672195D01*
X99609269Y-119825926D01*
X99725060Y-119969940D01*
X99869074Y-120085731D01*
X99943366Y-120122610D01*
X100028481Y-120164862D01*
X100028485Y-120164864D01*
X100034592Y-120167895D01*
X100115138Y-120187977D01*
X100176395Y-120223864D01*
X100208527Y-120287174D01*
X100201330Y-120357805D01*
X100170426Y-120402534D01*
X100066770Y-120498857D01*
X99878461Y-120728926D01*
X99723118Y-120982423D01*
X99721392Y-120986356D01*
X99721391Y-120986357D01*
X99605342Y-121250724D01*
X99603616Y-121254656D01*
X99522165Y-121540589D01*
X99521561Y-121544831D01*
X99521560Y-121544837D01*
X99505120Y-121660352D01*
X99480274Y-121834931D01*
X99478718Y-122132235D01*
X92102847Y-122132235D01*
X92051664Y-121880662D01*
X91950724Y-121578984D01*
X91945131Y-121567257D01*
X91815424Y-121295322D01*
X91815422Y-121295318D01*
X91813771Y-121291857D01*
X91642847Y-121023560D01*
X91628960Y-121006713D01*
X91496211Y-120845676D01*
X91440500Y-120778093D01*
X91209746Y-120559116D01*
X90954025Y-120369892D01*
X90807822Y-120287174D01*
X90680508Y-120215143D01*
X90680504Y-120215141D01*
X90677151Y-120213244D01*
X90672608Y-120211362D01*
X90462194Y-120124206D01*
X90383249Y-120091506D01*
X90254443Y-120055785D01*
X90080418Y-120007523D01*
X90080410Y-120007521D01*
X90076702Y-120006493D01*
X89762079Y-119959472D01*
X89758781Y-119959328D01*
X89649573Y-119954560D01*
X89649568Y-119954560D01*
X89648196Y-119954500D01*
X89454201Y-119954500D01*
X89217476Y-119968979D01*
X89213693Y-119969680D01*
X89213686Y-119969681D01*
X89061082Y-119997965D01*
X88904687Y-120026951D01*
X88731824Y-120081454D01*
X88604965Y-120121452D01*
X88604962Y-120121453D01*
X88601293Y-120122610D01*
X88597796Y-120124204D01*
X88597790Y-120124206D01*
X88315327Y-120252932D01*
X88315323Y-120252934D01*
X88311819Y-120254531D01*
X88308540Y-120256541D01*
X88308537Y-120256542D01*
X88070301Y-120402534D01*
X88040580Y-120420747D01*
X88037576Y-120423137D01*
X88037571Y-120423140D01*
X87833827Y-120585205D01*
X87791619Y-120618779D01*
X87788927Y-120621518D01*
X87788923Y-120621522D01*
X87768994Y-120641802D01*
X87568648Y-120845676D01*
X87566307Y-120848727D01*
X87566306Y-120848728D01*
X87377326Y-121095011D01*
X87377321Y-121095019D01*
X87374991Y-121098055D01*
X87373042Y-121101364D01*
X87258792Y-121295322D01*
X87213534Y-121372154D01*
X87086685Y-121663886D01*
X86996335Y-121968903D01*
X86943831Y-122282657D01*
X86929955Y-122600471D01*
X85690500Y-122600471D01*
X85690500Y-111714049D01*
X90865194Y-111714049D01*
X90877677Y-111973930D01*
X90928435Y-112229112D01*
X91016355Y-112473989D01*
X91139504Y-112703180D01*
X91142299Y-112706923D01*
X91142301Y-112706926D01*
X91292385Y-112907913D01*
X91292390Y-112907919D01*
X91295177Y-112911651D01*
X91298486Y-112914931D01*
X91298491Y-112914937D01*
X91399503Y-113015071D01*
X91479954Y-113094823D01*
X91483716Y-113097581D01*
X91483719Y-113097584D01*
X91596332Y-113180155D01*
X91689775Y-113248670D01*
X91693910Y-113250846D01*
X91693914Y-113250848D01*
X91819774Y-113317066D01*
X91920033Y-113369815D01*
X92165667Y-113455594D01*
X92170260Y-113456466D01*
X92416693Y-113503253D01*
X92416696Y-113503253D01*
X92421282Y-113504124D01*
X92551272Y-113509231D01*
X92676595Y-113514156D01*
X92676601Y-113514156D01*
X92681263Y-113514339D01*
X92782489Y-113503253D01*
X92935245Y-113486524D01*
X92935250Y-113486523D01*
X92939898Y-113486014D01*
X92944422Y-113484823D01*
X93186982Y-113420962D01*
X93186984Y-113420961D01*
X93191505Y-113419771D01*
X93430557Y-113317066D01*
X93651803Y-113180155D01*
X93850382Y-113012046D01*
X94021931Y-112816431D01*
X94162683Y-112597608D01*
X94269544Y-112360385D01*
X94270814Y-112355882D01*
X94338898Y-112114476D01*
X94338899Y-112114473D01*
X94340168Y-112109972D01*
X94356891Y-111978518D01*
X94372604Y-111855001D01*
X94372604Y-111854997D01*
X94373002Y-111851871D01*
X94375408Y-111760000D01*
X94371993Y-111714049D01*
X95465194Y-111714049D01*
X95477677Y-111973930D01*
X95528435Y-112229112D01*
X95616355Y-112473989D01*
X95739504Y-112703180D01*
X95742299Y-112706923D01*
X95742301Y-112706926D01*
X95892385Y-112907913D01*
X95892390Y-112907919D01*
X95895177Y-112911651D01*
X95898486Y-112914931D01*
X95898491Y-112914937D01*
X95999503Y-113015071D01*
X96079954Y-113094823D01*
X96083716Y-113097581D01*
X96083719Y-113097584D01*
X96196332Y-113180155D01*
X96289775Y-113248670D01*
X96293910Y-113250846D01*
X96293914Y-113250848D01*
X96419774Y-113317066D01*
X96520033Y-113369815D01*
X96765667Y-113455594D01*
X96770260Y-113456466D01*
X97016693Y-113503253D01*
X97016696Y-113503253D01*
X97021282Y-113504124D01*
X97151272Y-113509231D01*
X97276595Y-113514156D01*
X97276601Y-113514156D01*
X97281263Y-113514339D01*
X97382489Y-113503253D01*
X97535245Y-113486524D01*
X97535250Y-113486523D01*
X97539898Y-113486014D01*
X97544422Y-113484823D01*
X97786982Y-113420962D01*
X97786984Y-113420961D01*
X97791505Y-113419771D01*
X98030557Y-113317066D01*
X98251803Y-113180155D01*
X98450382Y-113012046D01*
X98621931Y-112816431D01*
X98762683Y-112597608D01*
X98869544Y-112360385D01*
X98870814Y-112355882D01*
X98938898Y-112114476D01*
X98938899Y-112114473D01*
X98940168Y-112109972D01*
X98956891Y-111978518D01*
X98972604Y-111855001D01*
X98972604Y-111854997D01*
X98973002Y-111851871D01*
X98975408Y-111760000D01*
X98971993Y-111714049D01*
X106765194Y-111714049D01*
X106777677Y-111973930D01*
X106828435Y-112229112D01*
X106916355Y-112473989D01*
X107039504Y-112703180D01*
X107042299Y-112706923D01*
X107042301Y-112706926D01*
X107192385Y-112907913D01*
X107192390Y-112907919D01*
X107195177Y-112911651D01*
X107198486Y-112914931D01*
X107198491Y-112914937D01*
X107299503Y-113015071D01*
X107379954Y-113094823D01*
X107383716Y-113097581D01*
X107383719Y-113097584D01*
X107496332Y-113180155D01*
X107589775Y-113248670D01*
X107593910Y-113250846D01*
X107593914Y-113250848D01*
X107719774Y-113317066D01*
X107820033Y-113369815D01*
X108065667Y-113455594D01*
X108070260Y-113456466D01*
X108316693Y-113503253D01*
X108316696Y-113503253D01*
X108321282Y-113504124D01*
X108451272Y-113509231D01*
X108576595Y-113514156D01*
X108576601Y-113514156D01*
X108581263Y-113514339D01*
X108682489Y-113503253D01*
X108835245Y-113486524D01*
X108835250Y-113486523D01*
X108839898Y-113486014D01*
X108844422Y-113484823D01*
X109086982Y-113420962D01*
X109086984Y-113420961D01*
X109091505Y-113419771D01*
X109330557Y-113317066D01*
X109551803Y-113180155D01*
X109750382Y-113012046D01*
X109921931Y-112816431D01*
X110062683Y-112597608D01*
X110169544Y-112360385D01*
X110170814Y-112355882D01*
X110238898Y-112114476D01*
X110238899Y-112114473D01*
X110240168Y-112109972D01*
X110256891Y-111978518D01*
X110272604Y-111855001D01*
X110272604Y-111854997D01*
X110273002Y-111851871D01*
X110275408Y-111760000D01*
X110271993Y-111714049D01*
X111365194Y-111714049D01*
X111377677Y-111973930D01*
X111428435Y-112229112D01*
X111516355Y-112473989D01*
X111639504Y-112703180D01*
X111642299Y-112706923D01*
X111642301Y-112706926D01*
X111792385Y-112907913D01*
X111792390Y-112907919D01*
X111795177Y-112911651D01*
X111798486Y-112914931D01*
X111798491Y-112914937D01*
X111899503Y-113015071D01*
X111979954Y-113094823D01*
X111983716Y-113097581D01*
X111983719Y-113097584D01*
X112096332Y-113180155D01*
X112189775Y-113248670D01*
X112193910Y-113250846D01*
X112193914Y-113250848D01*
X112319774Y-113317066D01*
X112420033Y-113369815D01*
X112665667Y-113455594D01*
X112670260Y-113456466D01*
X112916693Y-113503253D01*
X112916696Y-113503253D01*
X112921282Y-113504124D01*
X113051272Y-113509231D01*
X113176595Y-113514156D01*
X113176601Y-113514156D01*
X113181263Y-113514339D01*
X113282489Y-113503253D01*
X113435245Y-113486524D01*
X113435250Y-113486523D01*
X113439898Y-113486014D01*
X113444422Y-113484823D01*
X113686982Y-113420962D01*
X113686984Y-113420961D01*
X113691505Y-113419771D01*
X113930557Y-113317066D01*
X114151803Y-113180155D01*
X114350382Y-113012046D01*
X114521931Y-112816431D01*
X114662683Y-112597608D01*
X114769544Y-112360385D01*
X114770814Y-112355882D01*
X114838898Y-112114476D01*
X114838899Y-112114473D01*
X114840168Y-112109972D01*
X114856891Y-111978518D01*
X114872604Y-111855001D01*
X114872604Y-111854997D01*
X114873002Y-111851871D01*
X114875408Y-111760000D01*
X114871993Y-111714049D01*
X121345194Y-111714049D01*
X121357677Y-111973930D01*
X121408435Y-112229112D01*
X121496355Y-112473989D01*
X121619504Y-112703180D01*
X121622299Y-112706923D01*
X121622301Y-112706926D01*
X121772385Y-112907913D01*
X121772390Y-112907919D01*
X121775177Y-112911651D01*
X121778486Y-112914931D01*
X121778491Y-112914937D01*
X121879503Y-113015071D01*
X121959954Y-113094823D01*
X121963716Y-113097581D01*
X121963719Y-113097584D01*
X122076332Y-113180155D01*
X122169775Y-113248670D01*
X122173910Y-113250846D01*
X122173914Y-113250848D01*
X122299774Y-113317066D01*
X122400033Y-113369815D01*
X122645667Y-113455594D01*
X122650260Y-113456466D01*
X122896693Y-113503253D01*
X122896696Y-113503253D01*
X122901282Y-113504124D01*
X123031272Y-113509231D01*
X123156595Y-113514156D01*
X123156601Y-113514156D01*
X123161263Y-113514339D01*
X123262489Y-113503253D01*
X123415245Y-113486524D01*
X123415250Y-113486523D01*
X123419898Y-113486014D01*
X123424422Y-113484823D01*
X123666982Y-113420962D01*
X123666984Y-113420961D01*
X123671505Y-113419771D01*
X123910557Y-113317066D01*
X124131803Y-113180155D01*
X124330382Y-113012046D01*
X124501931Y-112816431D01*
X124642683Y-112597608D01*
X124749544Y-112360385D01*
X124750814Y-112355882D01*
X124818898Y-112114476D01*
X124818899Y-112114473D01*
X124820168Y-112109972D01*
X124836891Y-111978518D01*
X124852604Y-111855001D01*
X124852604Y-111854997D01*
X124853002Y-111851871D01*
X124855408Y-111760000D01*
X124851993Y-111714049D01*
X125945194Y-111714049D01*
X125957677Y-111973930D01*
X126008435Y-112229112D01*
X126096355Y-112473989D01*
X126219504Y-112703180D01*
X126222299Y-112706923D01*
X126222301Y-112706926D01*
X126372385Y-112907913D01*
X126372390Y-112907919D01*
X126375177Y-112911651D01*
X126378486Y-112914931D01*
X126378491Y-112914937D01*
X126479503Y-113015071D01*
X126559954Y-113094823D01*
X126563716Y-113097581D01*
X126563719Y-113097584D01*
X126676332Y-113180155D01*
X126769775Y-113248670D01*
X126773910Y-113250846D01*
X126773914Y-113250848D01*
X126899774Y-113317066D01*
X127000033Y-113369815D01*
X127245667Y-113455594D01*
X127250260Y-113456466D01*
X127496693Y-113503253D01*
X127496696Y-113503253D01*
X127501282Y-113504124D01*
X127631272Y-113509231D01*
X127756595Y-113514156D01*
X127756601Y-113514156D01*
X127761263Y-113514339D01*
X127862489Y-113503253D01*
X128015245Y-113486524D01*
X128015250Y-113486523D01*
X128019898Y-113486014D01*
X128024422Y-113484823D01*
X128266982Y-113420962D01*
X128266984Y-113420961D01*
X128271505Y-113419771D01*
X128510557Y-113317066D01*
X128731803Y-113180155D01*
X128930382Y-113012046D01*
X129101931Y-112816431D01*
X129242683Y-112597608D01*
X129349544Y-112360385D01*
X129350814Y-112355882D01*
X129418898Y-112114476D01*
X129418899Y-112114473D01*
X129420168Y-112109972D01*
X129436891Y-111978518D01*
X129452604Y-111855001D01*
X129452604Y-111854997D01*
X129453002Y-111851871D01*
X129455408Y-111760000D01*
X129451993Y-111714049D01*
X137245194Y-111714049D01*
X137257677Y-111973930D01*
X137308435Y-112229112D01*
X137396355Y-112473989D01*
X137519504Y-112703180D01*
X137522299Y-112706923D01*
X137522301Y-112706926D01*
X137672385Y-112907913D01*
X137672390Y-112907919D01*
X137675177Y-112911651D01*
X137678486Y-112914931D01*
X137678491Y-112914937D01*
X137779503Y-113015071D01*
X137859954Y-113094823D01*
X137863716Y-113097581D01*
X137863719Y-113097584D01*
X137976332Y-113180155D01*
X138069775Y-113248670D01*
X138073910Y-113250846D01*
X138073914Y-113250848D01*
X138199774Y-113317066D01*
X138300033Y-113369815D01*
X138545667Y-113455594D01*
X138550260Y-113456466D01*
X138796693Y-113503253D01*
X138796696Y-113503253D01*
X138801282Y-113504124D01*
X138931272Y-113509231D01*
X139056595Y-113514156D01*
X139056601Y-113514156D01*
X139061263Y-113514339D01*
X139162489Y-113503253D01*
X139315245Y-113486524D01*
X139315250Y-113486523D01*
X139319898Y-113486014D01*
X139324422Y-113484823D01*
X139566982Y-113420962D01*
X139566984Y-113420961D01*
X139571505Y-113419771D01*
X139810557Y-113317066D01*
X140031803Y-113180155D01*
X140230382Y-113012046D01*
X140401931Y-112816431D01*
X140542683Y-112597608D01*
X140649544Y-112360385D01*
X140650814Y-112355882D01*
X140718898Y-112114476D01*
X140718899Y-112114473D01*
X140720168Y-112109972D01*
X140736891Y-111978518D01*
X140752604Y-111855001D01*
X140752604Y-111854997D01*
X140753002Y-111851871D01*
X140755408Y-111760000D01*
X140751993Y-111714049D01*
X141845194Y-111714049D01*
X141857677Y-111973930D01*
X141908435Y-112229112D01*
X141996355Y-112473989D01*
X142119504Y-112703180D01*
X142122299Y-112706923D01*
X142122301Y-112706926D01*
X142272385Y-112907913D01*
X142272390Y-112907919D01*
X142275177Y-112911651D01*
X142278486Y-112914931D01*
X142278491Y-112914937D01*
X142379503Y-113015071D01*
X142459954Y-113094823D01*
X142463716Y-113097581D01*
X142463719Y-113097584D01*
X142576332Y-113180155D01*
X142669775Y-113248670D01*
X142673910Y-113250846D01*
X142673914Y-113250848D01*
X142799774Y-113317066D01*
X142900033Y-113369815D01*
X143145667Y-113455594D01*
X143150260Y-113456466D01*
X143396693Y-113503253D01*
X143396696Y-113503253D01*
X143401282Y-113504124D01*
X143531272Y-113509231D01*
X143656595Y-113514156D01*
X143656601Y-113514156D01*
X143661263Y-113514339D01*
X143762489Y-113503253D01*
X143915245Y-113486524D01*
X143915250Y-113486523D01*
X143919898Y-113486014D01*
X143924422Y-113484823D01*
X144166982Y-113420962D01*
X144166984Y-113420961D01*
X144171505Y-113419771D01*
X144410557Y-113317066D01*
X144631803Y-113180155D01*
X144830382Y-113012046D01*
X145001931Y-112816431D01*
X145142683Y-112597608D01*
X145249544Y-112360385D01*
X145250814Y-112355882D01*
X145318898Y-112114476D01*
X145318899Y-112114473D01*
X145320168Y-112109972D01*
X145336891Y-111978518D01*
X145352604Y-111855001D01*
X145352604Y-111854997D01*
X145353002Y-111851871D01*
X145355408Y-111760000D01*
X145336126Y-111500534D01*
X145278705Y-111246768D01*
X145277012Y-111242414D01*
X145186098Y-111008630D01*
X145186097Y-111008628D01*
X145184405Y-111004277D01*
X145055299Y-110778388D01*
X144894223Y-110574064D01*
X144704714Y-110395792D01*
X144490937Y-110247489D01*
X144486747Y-110245423D01*
X144486744Y-110245421D01*
X144261775Y-110134479D01*
X144261772Y-110134478D01*
X144257587Y-110132414D01*
X144009792Y-110053094D01*
X143869569Y-110030257D01*
X143757606Y-110012023D01*
X143757605Y-110012023D01*
X143752994Y-110011272D01*
X143622914Y-110009569D01*
X143497512Y-110007927D01*
X143497509Y-110007927D01*
X143492835Y-110007866D01*
X143235030Y-110042952D01*
X142985243Y-110115758D01*
X142980990Y-110117718D01*
X142980989Y-110117719D01*
X142944634Y-110134479D01*
X142748961Y-110224686D01*
X142745056Y-110227246D01*
X142745051Y-110227249D01*
X142535288Y-110364775D01*
X142535283Y-110364779D01*
X142531375Y-110367341D01*
X142337265Y-110540591D01*
X142170895Y-110740629D01*
X142035920Y-110963061D01*
X142034111Y-110967375D01*
X142034110Y-110967377D01*
X142020338Y-111000221D01*
X141935305Y-111203001D01*
X141871261Y-111455177D01*
X141845194Y-111714049D01*
X140751993Y-111714049D01*
X140736126Y-111500534D01*
X140678705Y-111246768D01*
X140677012Y-111242414D01*
X140586098Y-111008630D01*
X140586097Y-111008628D01*
X140584405Y-111004277D01*
X140455299Y-110778388D01*
X140294223Y-110574064D01*
X140104714Y-110395792D01*
X139890937Y-110247489D01*
X139886747Y-110245423D01*
X139886744Y-110245421D01*
X139661775Y-110134479D01*
X139661772Y-110134478D01*
X139657587Y-110132414D01*
X139409792Y-110053094D01*
X139269569Y-110030257D01*
X139157606Y-110012023D01*
X139157605Y-110012023D01*
X139152994Y-110011272D01*
X139022914Y-110009569D01*
X138897512Y-110007927D01*
X138897509Y-110007927D01*
X138892835Y-110007866D01*
X138635030Y-110042952D01*
X138385243Y-110115758D01*
X138380990Y-110117718D01*
X138380989Y-110117719D01*
X138344634Y-110134479D01*
X138148961Y-110224686D01*
X138145056Y-110227246D01*
X138145051Y-110227249D01*
X137935288Y-110364775D01*
X137935283Y-110364779D01*
X137931375Y-110367341D01*
X137737265Y-110540591D01*
X137570895Y-110740629D01*
X137435920Y-110963061D01*
X137434111Y-110967375D01*
X137434110Y-110967377D01*
X137420338Y-111000221D01*
X137335305Y-111203001D01*
X137271261Y-111455177D01*
X137245194Y-111714049D01*
X129451993Y-111714049D01*
X129436126Y-111500534D01*
X129378705Y-111246768D01*
X129377012Y-111242414D01*
X129286098Y-111008630D01*
X129286097Y-111008628D01*
X129284405Y-111004277D01*
X129155299Y-110778388D01*
X128994223Y-110574064D01*
X128804714Y-110395792D01*
X128590937Y-110247489D01*
X128586747Y-110245423D01*
X128586744Y-110245421D01*
X128361775Y-110134479D01*
X128361772Y-110134478D01*
X128357587Y-110132414D01*
X128109792Y-110053094D01*
X127969569Y-110030257D01*
X127857606Y-110012023D01*
X127857605Y-110012023D01*
X127852994Y-110011272D01*
X127722914Y-110009569D01*
X127597512Y-110007927D01*
X127597509Y-110007927D01*
X127592835Y-110007866D01*
X127335030Y-110042952D01*
X127085243Y-110115758D01*
X127080990Y-110117718D01*
X127080989Y-110117719D01*
X127044634Y-110134479D01*
X126848961Y-110224686D01*
X126845056Y-110227246D01*
X126845051Y-110227249D01*
X126635288Y-110364775D01*
X126635283Y-110364779D01*
X126631375Y-110367341D01*
X126437265Y-110540591D01*
X126270895Y-110740629D01*
X126135920Y-110963061D01*
X126134111Y-110967375D01*
X126134110Y-110967377D01*
X126120338Y-111000221D01*
X126035305Y-111203001D01*
X125971261Y-111455177D01*
X125945194Y-111714049D01*
X124851993Y-111714049D01*
X124836126Y-111500534D01*
X124778705Y-111246768D01*
X124777012Y-111242414D01*
X124686098Y-111008630D01*
X124686097Y-111008628D01*
X124684405Y-111004277D01*
X124555299Y-110778388D01*
X124394223Y-110574064D01*
X124204714Y-110395792D01*
X123990937Y-110247489D01*
X123986747Y-110245423D01*
X123986744Y-110245421D01*
X123761775Y-110134479D01*
X123761772Y-110134478D01*
X123757587Y-110132414D01*
X123509792Y-110053094D01*
X123369569Y-110030257D01*
X123257606Y-110012023D01*
X123257605Y-110012023D01*
X123252994Y-110011272D01*
X123122914Y-110009569D01*
X122997512Y-110007927D01*
X122997509Y-110007927D01*
X122992835Y-110007866D01*
X122735030Y-110042952D01*
X122485243Y-110115758D01*
X122480990Y-110117718D01*
X122480989Y-110117719D01*
X122444634Y-110134479D01*
X122248961Y-110224686D01*
X122245056Y-110227246D01*
X122245051Y-110227249D01*
X122035288Y-110364775D01*
X122035283Y-110364779D01*
X122031375Y-110367341D01*
X121837265Y-110540591D01*
X121670895Y-110740629D01*
X121535920Y-110963061D01*
X121534111Y-110967375D01*
X121534110Y-110967377D01*
X121520338Y-111000221D01*
X121435305Y-111203001D01*
X121371261Y-111455177D01*
X121345194Y-111714049D01*
X114871993Y-111714049D01*
X114856126Y-111500534D01*
X114798705Y-111246768D01*
X114797012Y-111242414D01*
X114706098Y-111008630D01*
X114706097Y-111008628D01*
X114704405Y-111004277D01*
X114575299Y-110778388D01*
X114414223Y-110574064D01*
X114224714Y-110395792D01*
X114010937Y-110247489D01*
X114006747Y-110245423D01*
X114006744Y-110245421D01*
X113781775Y-110134479D01*
X113781772Y-110134478D01*
X113777587Y-110132414D01*
X113529792Y-110053094D01*
X113389569Y-110030257D01*
X113277606Y-110012023D01*
X113277605Y-110012023D01*
X113272994Y-110011272D01*
X113142914Y-110009569D01*
X113017512Y-110007927D01*
X113017509Y-110007927D01*
X113012835Y-110007866D01*
X112755030Y-110042952D01*
X112505243Y-110115758D01*
X112500990Y-110117718D01*
X112500989Y-110117719D01*
X112464634Y-110134479D01*
X112268961Y-110224686D01*
X112265056Y-110227246D01*
X112265051Y-110227249D01*
X112055288Y-110364775D01*
X112055283Y-110364779D01*
X112051375Y-110367341D01*
X111857265Y-110540591D01*
X111690895Y-110740629D01*
X111555920Y-110963061D01*
X111554111Y-110967375D01*
X111554110Y-110967377D01*
X111540338Y-111000221D01*
X111455305Y-111203001D01*
X111391261Y-111455177D01*
X111365194Y-111714049D01*
X110271993Y-111714049D01*
X110256126Y-111500534D01*
X110198705Y-111246768D01*
X110197012Y-111242414D01*
X110106098Y-111008630D01*
X110106097Y-111008628D01*
X110104405Y-111004277D01*
X109975299Y-110778388D01*
X109814223Y-110574064D01*
X109624714Y-110395792D01*
X109410937Y-110247489D01*
X109406747Y-110245423D01*
X109406744Y-110245421D01*
X109181775Y-110134479D01*
X109181772Y-110134478D01*
X109177587Y-110132414D01*
X108929792Y-110053094D01*
X108789569Y-110030257D01*
X108677606Y-110012023D01*
X108677605Y-110012023D01*
X108672994Y-110011272D01*
X108542914Y-110009569D01*
X108417512Y-110007927D01*
X108417509Y-110007927D01*
X108412835Y-110007866D01*
X108155030Y-110042952D01*
X107905243Y-110115758D01*
X107900990Y-110117718D01*
X107900989Y-110117719D01*
X107864634Y-110134479D01*
X107668961Y-110224686D01*
X107665056Y-110227246D01*
X107665051Y-110227249D01*
X107455288Y-110364775D01*
X107455283Y-110364779D01*
X107451375Y-110367341D01*
X107257265Y-110540591D01*
X107090895Y-110740629D01*
X106955920Y-110963061D01*
X106954111Y-110967375D01*
X106954110Y-110967377D01*
X106940338Y-111000221D01*
X106855305Y-111203001D01*
X106791261Y-111455177D01*
X106765194Y-111714049D01*
X98971993Y-111714049D01*
X98956126Y-111500534D01*
X98898705Y-111246768D01*
X98897012Y-111242414D01*
X98806098Y-111008630D01*
X98806097Y-111008628D01*
X98804405Y-111004277D01*
X98675299Y-110778388D01*
X98514223Y-110574064D01*
X98324714Y-110395792D01*
X98110937Y-110247489D01*
X98106747Y-110245423D01*
X98106744Y-110245421D01*
X97881775Y-110134479D01*
X97881772Y-110134478D01*
X97877587Y-110132414D01*
X97629792Y-110053094D01*
X97489569Y-110030257D01*
X97377606Y-110012023D01*
X97377605Y-110012023D01*
X97372994Y-110011272D01*
X97242914Y-110009569D01*
X97117512Y-110007927D01*
X97117509Y-110007927D01*
X97112835Y-110007866D01*
X96855030Y-110042952D01*
X96605243Y-110115758D01*
X96600990Y-110117718D01*
X96600989Y-110117719D01*
X96564634Y-110134479D01*
X96368961Y-110224686D01*
X96365056Y-110227246D01*
X96365051Y-110227249D01*
X96155288Y-110364775D01*
X96155283Y-110364779D01*
X96151375Y-110367341D01*
X95957265Y-110540591D01*
X95790895Y-110740629D01*
X95655920Y-110963061D01*
X95654111Y-110967375D01*
X95654110Y-110967377D01*
X95640338Y-111000221D01*
X95555305Y-111203001D01*
X95491261Y-111455177D01*
X95465194Y-111714049D01*
X94371993Y-111714049D01*
X94356126Y-111500534D01*
X94298705Y-111246768D01*
X94297012Y-111242414D01*
X94206098Y-111008630D01*
X94206097Y-111008628D01*
X94204405Y-111004277D01*
X94075299Y-110778388D01*
X93914223Y-110574064D01*
X93724714Y-110395792D01*
X93510937Y-110247489D01*
X93506747Y-110245423D01*
X93506744Y-110245421D01*
X93281775Y-110134479D01*
X93281772Y-110134478D01*
X93277587Y-110132414D01*
X93029792Y-110053094D01*
X92889569Y-110030257D01*
X92777606Y-110012023D01*
X92777605Y-110012023D01*
X92772994Y-110011272D01*
X92642914Y-110009569D01*
X92517512Y-110007927D01*
X92517509Y-110007927D01*
X92512835Y-110007866D01*
X92255030Y-110042952D01*
X92005243Y-110115758D01*
X92000990Y-110117718D01*
X92000989Y-110117719D01*
X91964634Y-110134479D01*
X91768961Y-110224686D01*
X91765056Y-110227246D01*
X91765051Y-110227249D01*
X91555288Y-110364775D01*
X91555283Y-110364779D01*
X91551375Y-110367341D01*
X91357265Y-110540591D01*
X91190895Y-110740629D01*
X91055920Y-110963061D01*
X91054111Y-110967375D01*
X91054110Y-110967377D01*
X91040338Y-111000221D01*
X90955305Y-111203001D01*
X90891261Y-111455177D01*
X90865194Y-111714049D01*
X85690500Y-111714049D01*
X85690500Y-91035639D01*
X107791823Y-91035639D01*
X107791824Y-93114360D01*
X107807279Y-93231762D01*
X107867787Y-93377841D01*
X107964041Y-93503282D01*
X108089482Y-93599536D01*
X108235561Y-93660044D01*
X108243749Y-93661122D01*
X108348868Y-93674961D01*
X108352962Y-93675500D01*
X109392196Y-93675500D01*
X110431683Y-93675499D01*
X110435767Y-93674961D01*
X110435773Y-93674961D01*
X110540898Y-93661122D01*
X110540900Y-93661122D01*
X110549085Y-93660044D01*
X110695164Y-93599536D01*
X110820605Y-93503282D01*
X110910504Y-93386123D01*
X113652505Y-93386123D01*
X113658232Y-93393773D01*
X113701368Y-93420207D01*
X113710162Y-93424688D01*
X113920311Y-93511734D01*
X113929696Y-93514783D01*
X114150877Y-93567885D01*
X114160624Y-93569428D01*
X114387393Y-93587275D01*
X114397253Y-93587275D01*
X114624022Y-93569428D01*
X114633769Y-93567885D01*
X114854950Y-93514783D01*
X114864335Y-93511734D01*
X115074484Y-93424688D01*
X115083278Y-93420207D01*
X115122748Y-93396020D01*
X115132208Y-93385564D01*
X115128424Y-93376786D01*
X114405135Y-92653497D01*
X114391191Y-92645883D01*
X114389358Y-92646014D01*
X114382743Y-92650265D01*
X113659265Y-93373743D01*
X113652505Y-93386123D01*
X110910504Y-93386123D01*
X110916859Y-93377841D01*
X110977367Y-93231762D01*
X110992823Y-93114361D01*
X110992823Y-92079930D01*
X112880048Y-92079930D01*
X112897895Y-92306699D01*
X112899438Y-92316446D01*
X112952540Y-92537627D01*
X112955589Y-92547012D01*
X113042635Y-92757161D01*
X113047116Y-92765955D01*
X113071303Y-92805425D01*
X113081759Y-92814885D01*
X113090537Y-92811101D01*
X113813826Y-92087812D01*
X113820204Y-92076132D01*
X114963206Y-92076132D01*
X114963337Y-92077965D01*
X114967588Y-92084580D01*
X115691066Y-92808058D01*
X115703446Y-92814818D01*
X115711096Y-92809091D01*
X115737530Y-92765955D01*
X115742011Y-92757161D01*
X115829057Y-92547012D01*
X115832106Y-92537627D01*
X115885208Y-92316446D01*
X115886751Y-92306699D01*
X115904598Y-92079930D01*
X115904598Y-92070070D01*
X115886751Y-91843301D01*
X115885208Y-91833554D01*
X115832106Y-91612373D01*
X115829057Y-91602988D01*
X115742011Y-91392839D01*
X115737530Y-91384045D01*
X115713343Y-91344575D01*
X115702887Y-91335115D01*
X115694109Y-91338899D01*
X114970820Y-92062188D01*
X114963206Y-92076132D01*
X113820204Y-92076132D01*
X113821440Y-92073868D01*
X113821309Y-92072035D01*
X113817058Y-92065420D01*
X113093580Y-91341942D01*
X113081200Y-91335182D01*
X113073550Y-91340909D01*
X113047116Y-91384045D01*
X113042635Y-91392839D01*
X112955589Y-91602988D01*
X112952540Y-91612373D01*
X112899438Y-91833554D01*
X112897895Y-91843301D01*
X112880048Y-92070070D01*
X112880048Y-92079930D01*
X110992823Y-92079930D01*
X110992822Y-91035640D01*
X110977367Y-90918238D01*
X110916859Y-90772159D01*
X110910933Y-90764436D01*
X113652438Y-90764436D01*
X113656222Y-90773214D01*
X114379511Y-91496503D01*
X114393455Y-91504117D01*
X114395288Y-91503986D01*
X114401903Y-91499735D01*
X114865999Y-91035639D01*
X139541823Y-91035639D01*
X139541824Y-93114360D01*
X139557279Y-93231762D01*
X139617787Y-93377841D01*
X139714041Y-93503282D01*
X139839482Y-93599536D01*
X139985561Y-93660044D01*
X139993749Y-93661122D01*
X140098868Y-93674961D01*
X140102962Y-93675500D01*
X141142196Y-93675500D01*
X142181683Y-93675499D01*
X142185767Y-93674961D01*
X142185773Y-93674961D01*
X142290898Y-93661122D01*
X142290900Y-93661122D01*
X142299085Y-93660044D01*
X142445164Y-93599536D01*
X142570605Y-93503282D01*
X142660504Y-93386123D01*
X145402505Y-93386123D01*
X145408232Y-93393773D01*
X145451368Y-93420207D01*
X145460162Y-93424688D01*
X145670311Y-93511734D01*
X145679696Y-93514783D01*
X145900877Y-93567885D01*
X145910624Y-93569428D01*
X146137393Y-93587275D01*
X146147253Y-93587275D01*
X146374022Y-93569428D01*
X146383769Y-93567885D01*
X146604950Y-93514783D01*
X146614335Y-93511734D01*
X146824484Y-93424688D01*
X146833278Y-93420207D01*
X146872748Y-93396020D01*
X146882208Y-93385564D01*
X146878424Y-93376786D01*
X146155135Y-92653497D01*
X146141191Y-92645883D01*
X146139358Y-92646014D01*
X146132743Y-92650265D01*
X145409265Y-93373743D01*
X145402505Y-93386123D01*
X142660504Y-93386123D01*
X142666859Y-93377841D01*
X142727367Y-93231762D01*
X142742823Y-93114361D01*
X142742823Y-92079930D01*
X144630048Y-92079930D01*
X144647895Y-92306699D01*
X144649438Y-92316446D01*
X144702540Y-92537627D01*
X144705589Y-92547012D01*
X144792635Y-92757161D01*
X144797116Y-92765955D01*
X144821303Y-92805425D01*
X144831759Y-92814885D01*
X144840537Y-92811101D01*
X145563826Y-92087812D01*
X145570204Y-92076132D01*
X146713206Y-92076132D01*
X146713337Y-92077965D01*
X146717588Y-92084580D01*
X147441066Y-92808058D01*
X147453446Y-92814818D01*
X147461096Y-92809091D01*
X147487530Y-92765955D01*
X147492011Y-92757161D01*
X147579057Y-92547012D01*
X147582106Y-92537627D01*
X147635208Y-92316446D01*
X147636751Y-92306699D01*
X147654598Y-92079930D01*
X147654598Y-92070070D01*
X147636751Y-91843301D01*
X147635208Y-91833554D01*
X147582106Y-91612373D01*
X147579057Y-91602988D01*
X147492011Y-91392839D01*
X147487530Y-91384045D01*
X147463343Y-91344575D01*
X147452887Y-91335115D01*
X147444109Y-91338899D01*
X146720820Y-92062188D01*
X146713206Y-92076132D01*
X145570204Y-92076132D01*
X145571440Y-92073868D01*
X145571309Y-92072035D01*
X145567058Y-92065420D01*
X144843580Y-91341942D01*
X144831200Y-91335182D01*
X144823550Y-91340909D01*
X144797116Y-91384045D01*
X144792635Y-91392839D01*
X144705589Y-91602988D01*
X144702540Y-91612373D01*
X144649438Y-91833554D01*
X144647895Y-91843301D01*
X144630048Y-92070070D01*
X144630048Y-92079930D01*
X142742823Y-92079930D01*
X142742822Y-91035640D01*
X142727367Y-90918238D01*
X142666859Y-90772159D01*
X142660933Y-90764436D01*
X145402438Y-90764436D01*
X145406222Y-90773214D01*
X146129511Y-91496503D01*
X146143455Y-91504117D01*
X146145288Y-91503986D01*
X146151903Y-91499735D01*
X146615999Y-91035639D01*
X171291823Y-91035639D01*
X171291824Y-93114360D01*
X171307279Y-93231762D01*
X171367787Y-93377841D01*
X171464041Y-93503282D01*
X171589482Y-93599536D01*
X171735561Y-93660044D01*
X171743749Y-93661122D01*
X171848868Y-93674961D01*
X171852962Y-93675500D01*
X172892196Y-93675500D01*
X173931683Y-93675499D01*
X173935767Y-93674961D01*
X173935773Y-93674961D01*
X174040898Y-93661122D01*
X174040900Y-93661122D01*
X174049085Y-93660044D01*
X174195164Y-93599536D01*
X174320605Y-93503282D01*
X174410504Y-93386123D01*
X177152505Y-93386123D01*
X177158232Y-93393773D01*
X177201368Y-93420207D01*
X177210162Y-93424688D01*
X177420311Y-93511734D01*
X177429696Y-93514783D01*
X177650877Y-93567885D01*
X177660624Y-93569428D01*
X177887393Y-93587275D01*
X177897253Y-93587275D01*
X178124022Y-93569428D01*
X178133769Y-93567885D01*
X178354950Y-93514783D01*
X178364335Y-93511734D01*
X178574484Y-93424688D01*
X178583278Y-93420207D01*
X178622748Y-93396020D01*
X178632208Y-93385564D01*
X178628424Y-93376786D01*
X177905135Y-92653497D01*
X177891191Y-92645883D01*
X177889358Y-92646014D01*
X177882743Y-92650265D01*
X177159265Y-93373743D01*
X177152505Y-93386123D01*
X174410504Y-93386123D01*
X174416859Y-93377841D01*
X174477367Y-93231762D01*
X174492823Y-93114361D01*
X174492823Y-92079930D01*
X176380048Y-92079930D01*
X176397895Y-92306699D01*
X176399438Y-92316446D01*
X176452540Y-92537627D01*
X176455589Y-92547012D01*
X176542635Y-92757161D01*
X176547116Y-92765955D01*
X176571303Y-92805425D01*
X176581759Y-92814885D01*
X176590537Y-92811101D01*
X177313826Y-92087812D01*
X177320204Y-92076132D01*
X178463206Y-92076132D01*
X178463337Y-92077965D01*
X178467588Y-92084580D01*
X179191066Y-92808058D01*
X179203446Y-92814818D01*
X179211096Y-92809091D01*
X179237530Y-92765955D01*
X179242011Y-92757161D01*
X179329057Y-92547012D01*
X179332106Y-92537627D01*
X179385208Y-92316446D01*
X179386751Y-92306699D01*
X179404598Y-92079930D01*
X179404598Y-92070070D01*
X179386751Y-91843301D01*
X179385208Y-91833554D01*
X179332106Y-91612373D01*
X179329057Y-91602988D01*
X179242011Y-91392839D01*
X179237530Y-91384045D01*
X179213343Y-91344575D01*
X179202887Y-91335115D01*
X179194109Y-91338899D01*
X178470820Y-92062188D01*
X178463206Y-92076132D01*
X177320204Y-92076132D01*
X177321440Y-92073868D01*
X177321309Y-92072035D01*
X177317058Y-92065420D01*
X176593580Y-91341942D01*
X176581200Y-91335182D01*
X176573550Y-91340909D01*
X176547116Y-91384045D01*
X176542635Y-91392839D01*
X176455589Y-91602988D01*
X176452540Y-91612373D01*
X176399438Y-91833554D01*
X176397895Y-91843301D01*
X176380048Y-92070070D01*
X176380048Y-92079930D01*
X174492823Y-92079930D01*
X174492822Y-91035640D01*
X174477367Y-90918238D01*
X174416859Y-90772159D01*
X174410933Y-90764436D01*
X177152438Y-90764436D01*
X177156222Y-90773214D01*
X177879511Y-91496503D01*
X177893455Y-91504117D01*
X177895288Y-91503986D01*
X177901903Y-91499735D01*
X178625381Y-90776257D01*
X178632141Y-90763877D01*
X178626414Y-90756227D01*
X178583278Y-90729793D01*
X178574484Y-90725312D01*
X178364335Y-90638266D01*
X178354950Y-90635217D01*
X178133769Y-90582115D01*
X178124022Y-90580572D01*
X177897253Y-90562725D01*
X177887393Y-90562725D01*
X177660624Y-90580572D01*
X177650877Y-90582115D01*
X177429696Y-90635217D01*
X177420311Y-90638266D01*
X177210162Y-90725312D01*
X177201368Y-90729793D01*
X177161898Y-90753980D01*
X177152438Y-90764436D01*
X174410933Y-90764436D01*
X174320605Y-90646718D01*
X174195164Y-90550464D01*
X174049085Y-90489956D01*
X174040897Y-90488878D01*
X173935771Y-90475038D01*
X173935770Y-90475038D01*
X173931684Y-90474500D01*
X172892450Y-90474500D01*
X171852963Y-90474501D01*
X171848879Y-90475039D01*
X171848873Y-90475039D01*
X171743748Y-90488878D01*
X171743746Y-90488878D01*
X171735561Y-90489956D01*
X171589482Y-90550464D01*
X171464041Y-90646718D01*
X171367787Y-90772159D01*
X171307279Y-90918238D01*
X171291823Y-91035639D01*
X146615999Y-91035639D01*
X146875381Y-90776257D01*
X146882141Y-90763877D01*
X146876414Y-90756227D01*
X146833278Y-90729793D01*
X146824484Y-90725312D01*
X146614335Y-90638266D01*
X146604950Y-90635217D01*
X146383769Y-90582115D01*
X146374022Y-90580572D01*
X146147253Y-90562725D01*
X146137393Y-90562725D01*
X145910624Y-90580572D01*
X145900877Y-90582115D01*
X145679696Y-90635217D01*
X145670311Y-90638266D01*
X145460162Y-90725312D01*
X145451368Y-90729793D01*
X145411898Y-90753980D01*
X145402438Y-90764436D01*
X142660933Y-90764436D01*
X142570605Y-90646718D01*
X142445164Y-90550464D01*
X142299085Y-90489956D01*
X142290897Y-90488878D01*
X142185771Y-90475038D01*
X142185770Y-90475038D01*
X142181684Y-90474500D01*
X141142450Y-90474500D01*
X140102963Y-90474501D01*
X140098879Y-90475039D01*
X140098873Y-90475039D01*
X139993748Y-90488878D01*
X139993746Y-90488878D01*
X139985561Y-90489956D01*
X139839482Y-90550464D01*
X139714041Y-90646718D01*
X139617787Y-90772159D01*
X139557279Y-90918238D01*
X139541823Y-91035639D01*
X114865999Y-91035639D01*
X115125381Y-90776257D01*
X115132141Y-90763877D01*
X115126414Y-90756227D01*
X115083278Y-90729793D01*
X115074484Y-90725312D01*
X114864335Y-90638266D01*
X114854950Y-90635217D01*
X114633769Y-90582115D01*
X114624022Y-90580572D01*
X114397253Y-90562725D01*
X114387393Y-90562725D01*
X114160624Y-90580572D01*
X114150877Y-90582115D01*
X113929696Y-90635217D01*
X113920311Y-90638266D01*
X113710162Y-90725312D01*
X113701368Y-90729793D01*
X113661898Y-90753980D01*
X113652438Y-90764436D01*
X110910933Y-90764436D01*
X110820605Y-90646718D01*
X110695164Y-90550464D01*
X110549085Y-90489956D01*
X110540897Y-90488878D01*
X110435771Y-90475038D01*
X110435770Y-90475038D01*
X110431684Y-90474500D01*
X109392450Y-90474500D01*
X108352963Y-90474501D01*
X108348879Y-90475039D01*
X108348873Y-90475039D01*
X108243748Y-90488878D01*
X108243746Y-90488878D01*
X108235561Y-90489956D01*
X108089482Y-90550464D01*
X107964041Y-90646718D01*
X107867787Y-90772159D01*
X107807279Y-90918238D01*
X107791823Y-91035639D01*
X85690500Y-91035639D01*
X85690500Y-85420639D01*
X93787000Y-85420639D01*
X93787001Y-87299360D01*
X93787539Y-87303444D01*
X93787539Y-87303450D01*
X93796829Y-87374019D01*
X93802456Y-87416762D01*
X93862964Y-87562841D01*
X93959218Y-87688282D01*
X94084659Y-87784536D01*
X94230738Y-87845044D01*
X94238926Y-87846122D01*
X94344045Y-87859961D01*
X94348139Y-87860500D01*
X95024917Y-87860500D01*
X95701860Y-87860499D01*
X95705944Y-87859961D01*
X95705950Y-87859961D01*
X95811075Y-87846122D01*
X95811077Y-87846122D01*
X95819262Y-87845044D01*
X95965341Y-87784536D01*
X95971892Y-87779509D01*
X95971896Y-87779507D01*
X96025089Y-87738691D01*
X96091309Y-87713091D01*
X96152437Y-87723280D01*
X96260666Y-87770789D01*
X96328532Y-87800580D01*
X96333983Y-87801889D01*
X96333987Y-87801890D01*
X96537960Y-87850859D01*
X96537964Y-87850860D01*
X96543418Y-87852169D01*
X96653731Y-87858530D01*
X96758438Y-87864568D01*
X96758441Y-87864568D01*
X96764044Y-87864891D01*
X96983435Y-87838341D01*
X96988797Y-87836691D01*
X96988799Y-87836691D01*
X97113510Y-87798325D01*
X97194658Y-87773361D01*
X97199638Y-87770791D01*
X97199642Y-87770789D01*
X97386052Y-87674575D01*
X97386053Y-87674575D01*
X97391035Y-87672003D01*
X97566360Y-87537472D01*
X97659871Y-87434704D01*
X97711317Y-87378166D01*
X97711319Y-87378163D01*
X97715090Y-87374019D01*
X97786738Y-87259803D01*
X97829542Y-87191568D01*
X97829544Y-87191564D01*
X97832525Y-87186812D01*
X97914952Y-86981768D01*
X97959766Y-86765367D01*
X97963000Y-86709282D01*
X97963000Y-86678568D01*
X98887000Y-86678568D01*
X98901641Y-86842617D01*
X98959955Y-87055776D01*
X99055094Y-87255241D01*
X99058371Y-87259802D01*
X99058372Y-87259803D01*
X99176641Y-87424390D01*
X99184052Y-87434704D01*
X99188082Y-87438609D01*
X99308405Y-87555211D01*
X99342752Y-87588496D01*
X99526178Y-87711753D01*
X99728532Y-87800580D01*
X99733983Y-87801889D01*
X99733987Y-87801890D01*
X99937960Y-87850859D01*
X99937964Y-87850860D01*
X99943418Y-87852169D01*
X100053731Y-87858530D01*
X100158438Y-87864568D01*
X100158441Y-87864568D01*
X100164044Y-87864891D01*
X100383435Y-87838341D01*
X100388797Y-87836691D01*
X100388799Y-87836691D01*
X100513510Y-87798325D01*
X100594658Y-87773361D01*
X100599638Y-87770791D01*
X100599642Y-87770789D01*
X100786052Y-87674575D01*
X100786053Y-87674575D01*
X100791035Y-87672003D01*
X100966360Y-87537472D01*
X101059871Y-87434704D01*
X101111317Y-87378166D01*
X101111319Y-87378163D01*
X101115090Y-87374019D01*
X101186738Y-87259803D01*
X101229542Y-87191568D01*
X101229544Y-87191564D01*
X101232525Y-87186812D01*
X101314952Y-86981768D01*
X101359766Y-86765367D01*
X101363000Y-86709282D01*
X101363000Y-86041432D01*
X101348359Y-85877383D01*
X101290045Y-85664224D01*
X101194906Y-85464759D01*
X101191628Y-85460197D01*
X101163203Y-85420639D01*
X125537000Y-85420639D01*
X125537001Y-87299360D01*
X125537539Y-87303444D01*
X125537539Y-87303450D01*
X125546829Y-87374019D01*
X125552456Y-87416762D01*
X125612964Y-87562841D01*
X125709218Y-87688282D01*
X125834659Y-87784536D01*
X125980738Y-87845044D01*
X125988926Y-87846122D01*
X126094045Y-87859961D01*
X126098139Y-87860500D01*
X126774917Y-87860500D01*
X127451860Y-87860499D01*
X127455944Y-87859961D01*
X127455950Y-87859961D01*
X127561075Y-87846122D01*
X127561077Y-87846122D01*
X127569262Y-87845044D01*
X127715341Y-87784536D01*
X127721892Y-87779509D01*
X127721896Y-87779507D01*
X127775089Y-87738691D01*
X127841309Y-87713091D01*
X127902437Y-87723280D01*
X128010666Y-87770789D01*
X128078532Y-87800580D01*
X128083983Y-87801889D01*
X128083987Y-87801890D01*
X128287960Y-87850859D01*
X128287964Y-87850860D01*
X128293418Y-87852169D01*
X128403731Y-87858530D01*
X128508438Y-87864568D01*
X128508441Y-87864568D01*
X128514044Y-87864891D01*
X128733435Y-87838341D01*
X128738797Y-87836691D01*
X128738799Y-87836691D01*
X128863510Y-87798325D01*
X128944658Y-87773361D01*
X128949638Y-87770791D01*
X128949642Y-87770789D01*
X129136052Y-87674575D01*
X129136053Y-87674575D01*
X129141035Y-87672003D01*
X129316360Y-87537472D01*
X129409871Y-87434704D01*
X129461317Y-87378166D01*
X129461319Y-87378163D01*
X129465090Y-87374019D01*
X129536738Y-87259803D01*
X129579542Y-87191568D01*
X129579544Y-87191564D01*
X129582525Y-87186812D01*
X129664952Y-86981768D01*
X129709766Y-86765367D01*
X129713000Y-86709282D01*
X129713000Y-86678568D01*
X130637000Y-86678568D01*
X130651641Y-86842617D01*
X130709955Y-87055776D01*
X130805094Y-87255241D01*
X130808371Y-87259802D01*
X130808372Y-87259803D01*
X130926641Y-87424390D01*
X130934052Y-87434704D01*
X130938082Y-87438609D01*
X131058405Y-87555211D01*
X131092752Y-87588496D01*
X131276178Y-87711753D01*
X131478532Y-87800580D01*
X131483983Y-87801889D01*
X131483987Y-87801890D01*
X131687960Y-87850859D01*
X131687964Y-87850860D01*
X131693418Y-87852169D01*
X131803731Y-87858530D01*
X131908438Y-87864568D01*
X131908441Y-87864568D01*
X131914044Y-87864891D01*
X132133435Y-87838341D01*
X132138797Y-87836691D01*
X132138799Y-87836691D01*
X132263510Y-87798325D01*
X132344658Y-87773361D01*
X132349638Y-87770791D01*
X132349642Y-87770789D01*
X132536052Y-87674575D01*
X132536053Y-87674575D01*
X132541035Y-87672003D01*
X132716360Y-87537472D01*
X132809871Y-87434704D01*
X132861317Y-87378166D01*
X132861319Y-87378163D01*
X132865090Y-87374019D01*
X132936738Y-87259803D01*
X132979542Y-87191568D01*
X132979544Y-87191564D01*
X132982525Y-87186812D01*
X133064952Y-86981768D01*
X133109766Y-86765367D01*
X133113000Y-86709282D01*
X133113000Y-86041432D01*
X133098359Y-85877383D01*
X133040045Y-85664224D01*
X132944906Y-85464759D01*
X132941628Y-85460197D01*
X132913203Y-85420639D01*
X157287000Y-85420639D01*
X157287001Y-87299360D01*
X157287539Y-87303444D01*
X157287539Y-87303450D01*
X157296829Y-87374019D01*
X157302456Y-87416762D01*
X157362964Y-87562841D01*
X157459218Y-87688282D01*
X157584659Y-87784536D01*
X157730738Y-87845044D01*
X157738926Y-87846122D01*
X157844045Y-87859961D01*
X157848139Y-87860500D01*
X158524917Y-87860500D01*
X159201860Y-87860499D01*
X159205944Y-87859961D01*
X159205950Y-87859961D01*
X159311075Y-87846122D01*
X159311077Y-87846122D01*
X159319262Y-87845044D01*
X159465341Y-87784536D01*
X159471892Y-87779509D01*
X159471896Y-87779507D01*
X159525089Y-87738691D01*
X159591309Y-87713091D01*
X159652437Y-87723280D01*
X159760666Y-87770789D01*
X159828532Y-87800580D01*
X159833983Y-87801889D01*
X159833987Y-87801890D01*
X160037960Y-87850859D01*
X160037964Y-87850860D01*
X160043418Y-87852169D01*
X160153731Y-87858530D01*
X160258438Y-87864568D01*
X160258441Y-87864568D01*
X160264044Y-87864891D01*
X160483435Y-87838341D01*
X160488797Y-87836691D01*
X160488799Y-87836691D01*
X160613510Y-87798325D01*
X160694658Y-87773361D01*
X160699638Y-87770791D01*
X160699642Y-87770789D01*
X160886052Y-87674575D01*
X160886053Y-87674575D01*
X160891035Y-87672003D01*
X161066360Y-87537472D01*
X161159871Y-87434704D01*
X161211317Y-87378166D01*
X161211319Y-87378163D01*
X161215090Y-87374019D01*
X161286738Y-87259803D01*
X161329542Y-87191568D01*
X161329544Y-87191564D01*
X161332525Y-87186812D01*
X161414952Y-86981768D01*
X161459766Y-86765367D01*
X161463000Y-86709282D01*
X161463000Y-86678568D01*
X162387000Y-86678568D01*
X162401641Y-86842617D01*
X162459955Y-87055776D01*
X162555094Y-87255241D01*
X162558371Y-87259802D01*
X162558372Y-87259803D01*
X162676641Y-87424390D01*
X162684052Y-87434704D01*
X162688082Y-87438609D01*
X162808405Y-87555211D01*
X162842752Y-87588496D01*
X163026178Y-87711753D01*
X163228532Y-87800580D01*
X163233983Y-87801889D01*
X163233987Y-87801890D01*
X163437960Y-87850859D01*
X163437964Y-87850860D01*
X163443418Y-87852169D01*
X163553731Y-87858530D01*
X163658438Y-87864568D01*
X163658441Y-87864568D01*
X163664044Y-87864891D01*
X163883435Y-87838341D01*
X163888797Y-87836691D01*
X163888799Y-87836691D01*
X164013510Y-87798325D01*
X164094658Y-87773361D01*
X164099638Y-87770791D01*
X164099642Y-87770789D01*
X164286052Y-87674575D01*
X164286053Y-87674575D01*
X164291035Y-87672003D01*
X164466360Y-87537472D01*
X164559871Y-87434704D01*
X164611317Y-87378166D01*
X164611319Y-87378163D01*
X164615090Y-87374019D01*
X164686738Y-87259803D01*
X164729542Y-87191568D01*
X164729544Y-87191564D01*
X164732525Y-87186812D01*
X164814952Y-86981768D01*
X164859766Y-86765367D01*
X164863000Y-86709282D01*
X164863000Y-86041432D01*
X164848359Y-85877383D01*
X164790045Y-85664224D01*
X164694906Y-85464759D01*
X164691628Y-85460197D01*
X164569225Y-85289856D01*
X164569223Y-85289854D01*
X164565948Y-85285296D01*
X164464179Y-85186674D01*
X164411276Y-85135407D01*
X164411273Y-85135405D01*
X164407248Y-85131504D01*
X164223822Y-85008247D01*
X164021468Y-84919420D01*
X164016017Y-84918111D01*
X164016013Y-84918110D01*
X163812040Y-84869141D01*
X163812036Y-84869140D01*
X163806582Y-84867831D01*
X163696269Y-84861470D01*
X163591562Y-84855432D01*
X163591559Y-84855432D01*
X163585956Y-84855109D01*
X163366565Y-84881659D01*
X163361203Y-84883309D01*
X163361201Y-84883309D01*
X163279972Y-84908298D01*
X163155342Y-84946639D01*
X163150362Y-84949209D01*
X163150358Y-84949211D01*
X162990505Y-85031718D01*
X162958965Y-85047997D01*
X162783640Y-85182528D01*
X162702977Y-85271176D01*
X162685980Y-85289856D01*
X162634910Y-85345981D01*
X162631929Y-85350732D01*
X162631929Y-85350733D01*
X162560401Y-85464759D01*
X162517475Y-85533188D01*
X162435048Y-85738232D01*
X162390234Y-85954633D01*
X162387000Y-86010718D01*
X162387000Y-86678568D01*
X161463000Y-86678568D01*
X161463000Y-86041432D01*
X161448359Y-85877383D01*
X161390045Y-85664224D01*
X161294906Y-85464759D01*
X161291628Y-85460197D01*
X161169225Y-85289856D01*
X161169223Y-85289854D01*
X161165948Y-85285296D01*
X161064179Y-85186674D01*
X161011276Y-85135407D01*
X161011273Y-85135405D01*
X161007248Y-85131504D01*
X160823822Y-85008247D01*
X160621468Y-84919420D01*
X160616017Y-84918111D01*
X160616013Y-84918110D01*
X160412040Y-84869141D01*
X160412036Y-84869140D01*
X160406582Y-84867831D01*
X160296269Y-84861470D01*
X160191562Y-84855432D01*
X160191559Y-84855432D01*
X160185956Y-84855109D01*
X159966565Y-84881659D01*
X159961203Y-84883309D01*
X159961201Y-84883309D01*
X159879972Y-84908298D01*
X159755342Y-84946639D01*
X159750358Y-84949211D01*
X159750359Y-84949211D01*
X159661726Y-84994958D01*
X159592019Y-85008427D01*
X159527234Y-84982956D01*
X159465341Y-84935464D01*
X159319262Y-84874956D01*
X159311074Y-84873878D01*
X159205948Y-84860038D01*
X159205947Y-84860038D01*
X159201861Y-84859500D01*
X158525083Y-84859500D01*
X157848140Y-84859501D01*
X157844056Y-84860039D01*
X157844050Y-84860039D01*
X157738925Y-84873878D01*
X157738923Y-84873878D01*
X157730738Y-84874956D01*
X157584659Y-84935464D01*
X157566744Y-84949211D01*
X157489572Y-85008427D01*
X157459218Y-85031718D01*
X157362964Y-85157159D01*
X157302456Y-85303238D01*
X157287000Y-85420639D01*
X132913203Y-85420639D01*
X132819225Y-85289856D01*
X132819223Y-85289854D01*
X132815948Y-85285296D01*
X132714179Y-85186674D01*
X132661276Y-85135407D01*
X132661273Y-85135405D01*
X132657248Y-85131504D01*
X132473822Y-85008247D01*
X132271468Y-84919420D01*
X132266017Y-84918111D01*
X132266013Y-84918110D01*
X132062040Y-84869141D01*
X132062036Y-84869140D01*
X132056582Y-84867831D01*
X131946269Y-84861470D01*
X131841562Y-84855432D01*
X131841559Y-84855432D01*
X131835956Y-84855109D01*
X131616565Y-84881659D01*
X131611203Y-84883309D01*
X131611201Y-84883309D01*
X131529972Y-84908298D01*
X131405342Y-84946639D01*
X131400362Y-84949209D01*
X131400358Y-84949211D01*
X131240505Y-85031718D01*
X131208965Y-85047997D01*
X131033640Y-85182528D01*
X130952977Y-85271176D01*
X130935980Y-85289856D01*
X130884910Y-85345981D01*
X130881929Y-85350732D01*
X130881929Y-85350733D01*
X130810401Y-85464759D01*
X130767475Y-85533188D01*
X130685048Y-85738232D01*
X130640234Y-85954633D01*
X130637000Y-86010718D01*
X130637000Y-86678568D01*
X129713000Y-86678568D01*
X129713000Y-86041432D01*
X129698359Y-85877383D01*
X129640045Y-85664224D01*
X129544906Y-85464759D01*
X129541628Y-85460197D01*
X129419225Y-85289856D01*
X129419223Y-85289854D01*
X129415948Y-85285296D01*
X129314179Y-85186674D01*
X129261276Y-85135407D01*
X129261273Y-85135405D01*
X129257248Y-85131504D01*
X129073822Y-85008247D01*
X128871468Y-84919420D01*
X128866017Y-84918111D01*
X128866013Y-84918110D01*
X128662040Y-84869141D01*
X128662036Y-84869140D01*
X128656582Y-84867831D01*
X128546269Y-84861470D01*
X128441562Y-84855432D01*
X128441559Y-84855432D01*
X128435956Y-84855109D01*
X128216565Y-84881659D01*
X128211203Y-84883309D01*
X128211201Y-84883309D01*
X128129972Y-84908298D01*
X128005342Y-84946639D01*
X128000358Y-84949211D01*
X128000359Y-84949211D01*
X127911726Y-84994958D01*
X127842019Y-85008427D01*
X127777234Y-84982956D01*
X127715341Y-84935464D01*
X127569262Y-84874956D01*
X127561074Y-84873878D01*
X127455948Y-84860038D01*
X127455947Y-84860038D01*
X127451861Y-84859500D01*
X126775083Y-84859500D01*
X126098140Y-84859501D01*
X126094056Y-84860039D01*
X126094050Y-84860039D01*
X125988925Y-84873878D01*
X125988923Y-84873878D01*
X125980738Y-84874956D01*
X125834659Y-84935464D01*
X125816744Y-84949211D01*
X125739572Y-85008427D01*
X125709218Y-85031718D01*
X125612964Y-85157159D01*
X125552456Y-85303238D01*
X125537000Y-85420639D01*
X101163203Y-85420639D01*
X101069225Y-85289856D01*
X101069223Y-85289854D01*
X101065948Y-85285296D01*
X100964179Y-85186674D01*
X100911276Y-85135407D01*
X100911273Y-85135405D01*
X100907248Y-85131504D01*
X100723822Y-85008247D01*
X100521468Y-84919420D01*
X100516017Y-84918111D01*
X100516013Y-84918110D01*
X100312040Y-84869141D01*
X100312036Y-84869140D01*
X100306582Y-84867831D01*
X100196269Y-84861470D01*
X100091562Y-84855432D01*
X100091559Y-84855432D01*
X100085956Y-84855109D01*
X99866565Y-84881659D01*
X99861203Y-84883309D01*
X99861201Y-84883309D01*
X99779972Y-84908298D01*
X99655342Y-84946639D01*
X99650362Y-84949209D01*
X99650358Y-84949211D01*
X99490505Y-85031718D01*
X99458965Y-85047997D01*
X99283640Y-85182528D01*
X99202977Y-85271176D01*
X99185980Y-85289856D01*
X99134910Y-85345981D01*
X99131929Y-85350732D01*
X99131929Y-85350733D01*
X99060401Y-85464759D01*
X99017475Y-85533188D01*
X98935048Y-85738232D01*
X98890234Y-85954633D01*
X98887000Y-86010718D01*
X98887000Y-86678568D01*
X97963000Y-86678568D01*
X97963000Y-86041432D01*
X97948359Y-85877383D01*
X97890045Y-85664224D01*
X97794906Y-85464759D01*
X97791628Y-85460197D01*
X97669225Y-85289856D01*
X97669223Y-85289854D01*
X97665948Y-85285296D01*
X97564179Y-85186674D01*
X97511276Y-85135407D01*
X97511273Y-85135405D01*
X97507248Y-85131504D01*
X97323822Y-85008247D01*
X97121468Y-84919420D01*
X97116017Y-84918111D01*
X97116013Y-84918110D01*
X96912040Y-84869141D01*
X96912036Y-84869140D01*
X96906582Y-84867831D01*
X96796269Y-84861470D01*
X96691562Y-84855432D01*
X96691559Y-84855432D01*
X96685956Y-84855109D01*
X96466565Y-84881659D01*
X96461203Y-84883309D01*
X96461201Y-84883309D01*
X96379972Y-84908298D01*
X96255342Y-84946639D01*
X96250358Y-84949211D01*
X96250359Y-84949211D01*
X96161726Y-84994958D01*
X96092019Y-85008427D01*
X96027234Y-84982956D01*
X95965341Y-84935464D01*
X95819262Y-84874956D01*
X95811074Y-84873878D01*
X95705948Y-84860038D01*
X95705947Y-84860038D01*
X95701861Y-84859500D01*
X95025083Y-84859500D01*
X94348140Y-84859501D01*
X94344056Y-84860039D01*
X94344050Y-84860039D01*
X94238925Y-84873878D01*
X94238923Y-84873878D01*
X94230738Y-84874956D01*
X94084659Y-84935464D01*
X94066744Y-84949211D01*
X93989572Y-85008427D01*
X93959218Y-85031718D01*
X93862964Y-85157159D01*
X93802456Y-85303238D01*
X93787000Y-85420639D01*
X85690500Y-85420639D01*
X85690500Y-69262619D01*
X85691578Y-69246173D01*
X85694604Y-69223188D01*
X85695682Y-69215000D01*
X85693842Y-69201025D01*
X85693034Y-69176336D01*
X85706553Y-68970086D01*
X85708704Y-68953746D01*
X85754976Y-68721118D01*
X85759240Y-68705205D01*
X85835482Y-68480604D01*
X85841788Y-68465380D01*
X85946691Y-68252658D01*
X85954932Y-68238384D01*
X86086704Y-68041172D01*
X86096737Y-68028097D01*
X86253127Y-67849768D01*
X86264768Y-67838127D01*
X86443097Y-67681737D01*
X86456172Y-67671704D01*
X86653384Y-67539932D01*
X86667658Y-67531691D01*
X86880380Y-67426788D01*
X86895606Y-67420481D01*
X87120205Y-67344240D01*
X87136115Y-67339977D01*
X87331739Y-67301065D01*
X87368746Y-67293704D01*
X87385086Y-67291553D01*
X87476502Y-67285561D01*
X87545785Y-67301065D01*
X87595688Y-67351564D01*
X87610366Y-67421027D01*
X87585160Y-67487399D01*
X87574612Y-67499606D01*
X87571350Y-67502925D01*
X87571339Y-67502937D01*
X87568648Y-67505676D01*
X87566307Y-67508727D01*
X87566306Y-67508728D01*
X87377326Y-67755011D01*
X87377321Y-67755019D01*
X87374991Y-67758055D01*
X87373042Y-67761364D01*
X87215924Y-68028097D01*
X87213534Y-68032154D01*
X87086685Y-68323886D01*
X87085591Y-68327580D01*
X87085589Y-68327585D01*
X87046206Y-68460542D01*
X86996335Y-68628903D01*
X86943831Y-68942657D01*
X86929955Y-69260471D01*
X86954914Y-69577607D01*
X87018336Y-69889338D01*
X87119276Y-70191016D01*
X87120925Y-70194474D01*
X87120927Y-70194478D01*
X87254576Y-70474678D01*
X87256229Y-70478143D01*
X87427153Y-70746440D01*
X87629500Y-70991907D01*
X87860254Y-71210884D01*
X88115975Y-71400108D01*
X88217452Y-71457521D01*
X88389492Y-71554857D01*
X88389496Y-71554859D01*
X88392849Y-71556756D01*
X88686751Y-71678494D01*
X88788083Y-71706596D01*
X88989582Y-71762477D01*
X88989590Y-71762479D01*
X88993298Y-71763507D01*
X89307921Y-71810528D01*
X89311219Y-71810672D01*
X89420427Y-71815440D01*
X89420432Y-71815440D01*
X89421804Y-71815500D01*
X89615799Y-71815500D01*
X89852524Y-71801021D01*
X89856307Y-71800320D01*
X89856314Y-71800319D01*
X90054931Y-71763507D01*
X90165313Y-71743049D01*
X90374732Y-71677020D01*
X90465035Y-71648548D01*
X90465038Y-71648547D01*
X90468707Y-71647390D01*
X90472204Y-71645796D01*
X90472210Y-71645794D01*
X90754673Y-71517068D01*
X90754677Y-71517066D01*
X90758181Y-71515469D01*
X90840335Y-71465125D01*
X91026142Y-71351262D01*
X91026145Y-71351260D01*
X91029420Y-71349253D01*
X91032424Y-71346863D01*
X91032429Y-71346860D01*
X91275370Y-71153616D01*
X91278381Y-71151221D01*
X91285345Y-71144135D01*
X91464784Y-70961536D01*
X91501352Y-70924324D01*
X91635572Y-70749405D01*
X91692674Y-70674989D01*
X91692679Y-70674981D01*
X91695009Y-70671945D01*
X91760950Y-70560000D01*
X96069457Y-70560000D01*
X96089609Y-70867460D01*
X96090413Y-70871500D01*
X96090413Y-70871503D01*
X96147369Y-71157838D01*
X96149720Y-71169659D01*
X96151045Y-71173563D01*
X96151046Y-71173566D01*
X96247436Y-71457521D01*
X96248762Y-71461427D01*
X96250586Y-71465125D01*
X96356316Y-71679524D01*
X96385040Y-71737771D01*
X96556222Y-71993964D01*
X96558936Y-71997058D01*
X96558940Y-71997064D01*
X96756671Y-72222531D01*
X96759380Y-72225620D01*
X96762469Y-72228329D01*
X96987936Y-72426060D01*
X96987942Y-72426064D01*
X96991036Y-72428778D01*
X96994462Y-72431067D01*
X96994467Y-72431071D01*
X97157503Y-72540008D01*
X97247228Y-72599960D01*
X97250927Y-72601784D01*
X97250932Y-72601787D01*
X97392829Y-72671763D01*
X97523573Y-72736238D01*
X97527478Y-72737564D01*
X97527479Y-72737564D01*
X97811434Y-72833954D01*
X97811437Y-72833955D01*
X97815341Y-72835280D01*
X97819380Y-72836083D01*
X97819386Y-72836085D01*
X98113497Y-72894587D01*
X98113500Y-72894587D01*
X98117540Y-72895391D01*
X98121651Y-72895660D01*
X98121655Y-72895661D01*
X98420881Y-72915273D01*
X98425000Y-72915543D01*
X98429119Y-72915273D01*
X98728345Y-72895661D01*
X98728349Y-72895660D01*
X98732460Y-72895391D01*
X98736500Y-72894587D01*
X98736503Y-72894587D01*
X99030614Y-72836085D01*
X99030620Y-72836083D01*
X99034659Y-72835280D01*
X99038563Y-72833955D01*
X99038566Y-72833954D01*
X99322521Y-72737564D01*
X99322522Y-72737564D01*
X99326427Y-72736238D01*
X99457171Y-72671763D01*
X99599068Y-72601787D01*
X99599073Y-72601784D01*
X99602772Y-72599960D01*
X99692497Y-72540008D01*
X99855533Y-72431071D01*
X99855538Y-72431067D01*
X99858964Y-72428778D01*
X99862058Y-72426064D01*
X99862064Y-72426060D01*
X100006105Y-72299738D01*
X104984500Y-72299738D01*
X104984646Y-72301874D01*
X104984646Y-72301885D01*
X104993297Y-72428778D01*
X104999626Y-72521619D01*
X105000495Y-72525814D01*
X105000495Y-72525816D01*
X105005185Y-72548464D01*
X105059917Y-72812750D01*
X105159160Y-73093004D01*
X105295520Y-73357197D01*
X105466474Y-73600440D01*
X105668857Y-73818230D01*
X105898926Y-74006539D01*
X106152423Y-74161882D01*
X106156356Y-74163608D01*
X106156357Y-74163609D01*
X106420724Y-74279658D01*
X106424656Y-74281384D01*
X106428783Y-74282560D01*
X106428784Y-74282560D01*
X106706459Y-74361659D01*
X106706466Y-74361660D01*
X106710589Y-74362835D01*
X106714831Y-74363439D01*
X106714837Y-74363440D01*
X106930728Y-74394165D01*
X107004931Y-74404726D01*
X107161057Y-74405543D01*
X107297949Y-74406260D01*
X107297955Y-74406260D01*
X107302235Y-74406282D01*
X107306479Y-74405723D01*
X107306483Y-74405723D01*
X107436033Y-74388667D01*
X107596999Y-74367476D01*
X107618263Y-74361659D01*
X107652353Y-74352333D01*
X107883769Y-74289024D01*
X107912061Y-74276956D01*
X108153287Y-74174065D01*
X108153291Y-74174063D01*
X108157239Y-74172379D01*
X108286003Y-74095316D01*
X108408667Y-74021904D01*
X108408671Y-74021901D01*
X108412349Y-74019700D01*
X108415692Y-74017022D01*
X108415696Y-74017019D01*
X108529076Y-73926184D01*
X108644377Y-73833810D01*
X108647321Y-73830708D01*
X108647325Y-73830704D01*
X108846080Y-73621260D01*
X108846082Y-73621257D01*
X108849030Y-73618151D01*
X109022521Y-73376712D01*
X109161640Y-73113962D01*
X109263813Y-72834762D01*
X109327149Y-72544278D01*
X109329621Y-72512869D01*
X109345307Y-72313559D01*
X109345307Y-72313550D01*
X109345500Y-72311102D01*
X109345500Y-71210262D01*
X109344894Y-71201367D01*
X109330666Y-70992658D01*
X109330665Y-70992652D01*
X109330374Y-70988381D01*
X109325682Y-70965722D01*
X109270952Y-70701447D01*
X109270083Y-70697250D01*
X109221480Y-70560000D01*
X127819457Y-70560000D01*
X127839609Y-70867460D01*
X127840413Y-70871500D01*
X127840413Y-70871503D01*
X127897369Y-71157838D01*
X127899720Y-71169659D01*
X127901045Y-71173563D01*
X127901046Y-71173566D01*
X127997436Y-71457521D01*
X127998762Y-71461427D01*
X128000586Y-71465125D01*
X128106316Y-71679524D01*
X128135040Y-71737771D01*
X128306222Y-71993964D01*
X128308936Y-71997058D01*
X128308940Y-71997064D01*
X128506671Y-72222531D01*
X128509380Y-72225620D01*
X128512469Y-72228329D01*
X128737936Y-72426060D01*
X128737942Y-72426064D01*
X128741036Y-72428778D01*
X128744462Y-72431067D01*
X128744467Y-72431071D01*
X128907503Y-72540008D01*
X128997228Y-72599960D01*
X129000927Y-72601784D01*
X129000932Y-72601787D01*
X129142829Y-72671763D01*
X129273573Y-72736238D01*
X129277478Y-72737564D01*
X129277479Y-72737564D01*
X129561434Y-72833954D01*
X129561437Y-72833955D01*
X129565341Y-72835280D01*
X129569380Y-72836083D01*
X129569386Y-72836085D01*
X129863497Y-72894587D01*
X129863500Y-72894587D01*
X129867540Y-72895391D01*
X129871651Y-72895660D01*
X129871655Y-72895661D01*
X130170881Y-72915273D01*
X130175000Y-72915543D01*
X130179119Y-72915273D01*
X130478345Y-72895661D01*
X130478349Y-72895660D01*
X130482460Y-72895391D01*
X130486500Y-72894587D01*
X130486503Y-72894587D01*
X130780614Y-72836085D01*
X130780620Y-72836083D01*
X130784659Y-72835280D01*
X130788563Y-72833955D01*
X130788566Y-72833954D01*
X131072521Y-72737564D01*
X131072522Y-72737564D01*
X131076427Y-72736238D01*
X131207171Y-72671763D01*
X131349068Y-72601787D01*
X131349073Y-72601784D01*
X131352772Y-72599960D01*
X131442497Y-72540008D01*
X131605533Y-72431071D01*
X131605538Y-72431067D01*
X131608964Y-72428778D01*
X131612058Y-72426064D01*
X131612064Y-72426060D01*
X131756105Y-72299738D01*
X136734500Y-72299738D01*
X136734646Y-72301874D01*
X136734646Y-72301885D01*
X136743297Y-72428778D01*
X136749626Y-72521619D01*
X136750495Y-72525814D01*
X136750495Y-72525816D01*
X136755185Y-72548464D01*
X136809917Y-72812750D01*
X136909160Y-73093004D01*
X137045520Y-73357197D01*
X137216474Y-73600440D01*
X137418857Y-73818230D01*
X137648926Y-74006539D01*
X137902423Y-74161882D01*
X137906356Y-74163608D01*
X137906357Y-74163609D01*
X138170724Y-74279658D01*
X138174656Y-74281384D01*
X138178783Y-74282560D01*
X138178784Y-74282560D01*
X138456459Y-74361659D01*
X138456466Y-74361660D01*
X138460589Y-74362835D01*
X138464831Y-74363439D01*
X138464837Y-74363440D01*
X138680728Y-74394165D01*
X138754931Y-74404726D01*
X138911057Y-74405543D01*
X139047949Y-74406260D01*
X139047955Y-74406260D01*
X139052235Y-74406282D01*
X139056479Y-74405723D01*
X139056483Y-74405723D01*
X139186033Y-74388667D01*
X139346999Y-74367476D01*
X139368263Y-74361659D01*
X139402353Y-74352333D01*
X139633769Y-74289024D01*
X139662061Y-74276956D01*
X139903287Y-74174065D01*
X139903291Y-74174063D01*
X139907239Y-74172379D01*
X140036003Y-74095316D01*
X140158667Y-74021904D01*
X140158671Y-74021901D01*
X140162349Y-74019700D01*
X140165692Y-74017022D01*
X140165696Y-74017019D01*
X140279076Y-73926184D01*
X140394377Y-73833810D01*
X140397321Y-73830708D01*
X140397325Y-73830704D01*
X140596080Y-73621260D01*
X140596082Y-73621257D01*
X140599030Y-73618151D01*
X140772521Y-73376712D01*
X140911640Y-73113962D01*
X141013813Y-72834762D01*
X141077149Y-72544278D01*
X141079621Y-72512869D01*
X141095307Y-72313559D01*
X141095307Y-72313550D01*
X141095500Y-72311102D01*
X141095500Y-71210262D01*
X141094894Y-71201367D01*
X141080666Y-70992658D01*
X141080665Y-70992652D01*
X141080374Y-70988381D01*
X141075682Y-70965722D01*
X141020952Y-70701447D01*
X141020083Y-70697250D01*
X140971480Y-70560000D01*
X159569457Y-70560000D01*
X159589609Y-70867460D01*
X159590413Y-70871500D01*
X159590413Y-70871503D01*
X159647369Y-71157838D01*
X159649720Y-71169659D01*
X159651045Y-71173563D01*
X159651046Y-71173566D01*
X159747436Y-71457521D01*
X159748762Y-71461427D01*
X159750586Y-71465125D01*
X159856316Y-71679524D01*
X159885040Y-71737771D01*
X160056222Y-71993964D01*
X160058936Y-71997058D01*
X160058940Y-71997064D01*
X160256671Y-72222531D01*
X160259380Y-72225620D01*
X160262469Y-72228329D01*
X160487936Y-72426060D01*
X160487942Y-72426064D01*
X160491036Y-72428778D01*
X160494462Y-72431067D01*
X160494467Y-72431071D01*
X160657503Y-72540008D01*
X160747228Y-72599960D01*
X160750927Y-72601784D01*
X160750932Y-72601787D01*
X160892829Y-72671763D01*
X161023573Y-72736238D01*
X161027478Y-72737564D01*
X161027479Y-72737564D01*
X161311434Y-72833954D01*
X161311437Y-72833955D01*
X161315341Y-72835280D01*
X161319380Y-72836083D01*
X161319386Y-72836085D01*
X161613497Y-72894587D01*
X161613500Y-72894587D01*
X161617540Y-72895391D01*
X161621651Y-72895660D01*
X161621655Y-72895661D01*
X161920881Y-72915273D01*
X161925000Y-72915543D01*
X161929119Y-72915273D01*
X162228345Y-72895661D01*
X162228349Y-72895660D01*
X162232460Y-72895391D01*
X162236500Y-72894587D01*
X162236503Y-72894587D01*
X162530614Y-72836085D01*
X162530620Y-72836083D01*
X162534659Y-72835280D01*
X162538563Y-72833955D01*
X162538566Y-72833954D01*
X162822521Y-72737564D01*
X162822522Y-72737564D01*
X162826427Y-72736238D01*
X162957171Y-72671763D01*
X163099068Y-72601787D01*
X163099073Y-72601784D01*
X163102772Y-72599960D01*
X163192497Y-72540008D01*
X163355533Y-72431071D01*
X163355538Y-72431067D01*
X163358964Y-72428778D01*
X163362058Y-72426064D01*
X163362064Y-72426060D01*
X163506105Y-72299738D01*
X168484500Y-72299738D01*
X168484646Y-72301874D01*
X168484646Y-72301885D01*
X168493297Y-72428778D01*
X168499626Y-72521619D01*
X168500495Y-72525814D01*
X168500495Y-72525816D01*
X168505185Y-72548464D01*
X168559917Y-72812750D01*
X168659160Y-73093004D01*
X168795520Y-73357197D01*
X168966474Y-73600440D01*
X169168857Y-73818230D01*
X169398926Y-74006539D01*
X169652423Y-74161882D01*
X169656356Y-74163608D01*
X169656357Y-74163609D01*
X169920724Y-74279658D01*
X169924656Y-74281384D01*
X169928783Y-74282560D01*
X169928784Y-74282560D01*
X170206459Y-74361659D01*
X170206466Y-74361660D01*
X170210589Y-74362835D01*
X170214831Y-74363439D01*
X170214837Y-74363440D01*
X170430728Y-74394165D01*
X170504931Y-74404726D01*
X170661057Y-74405543D01*
X170797949Y-74406260D01*
X170797955Y-74406260D01*
X170802235Y-74406282D01*
X170806479Y-74405723D01*
X170806483Y-74405723D01*
X170936033Y-74388667D01*
X171096999Y-74367476D01*
X171118263Y-74361659D01*
X171152353Y-74352333D01*
X171383769Y-74289024D01*
X171412061Y-74276956D01*
X171653287Y-74174065D01*
X171653291Y-74174063D01*
X171657239Y-74172379D01*
X171786003Y-74095316D01*
X171908667Y-74021904D01*
X171908671Y-74021901D01*
X171912349Y-74019700D01*
X171915692Y-74017022D01*
X171915696Y-74017019D01*
X172029076Y-73926184D01*
X172144377Y-73833810D01*
X172147321Y-73830708D01*
X172147325Y-73830704D01*
X172346080Y-73621260D01*
X172346082Y-73621257D01*
X172349030Y-73618151D01*
X172522521Y-73376712D01*
X172661640Y-73113962D01*
X172763813Y-72834762D01*
X172827149Y-72544278D01*
X172829621Y-72512869D01*
X172845307Y-72313559D01*
X172845307Y-72313550D01*
X172845500Y-72311102D01*
X172845500Y-71210262D01*
X172844894Y-71201367D01*
X172830666Y-70992658D01*
X172830665Y-70992652D01*
X172830374Y-70988381D01*
X172825682Y-70965722D01*
X172770952Y-70701447D01*
X172770083Y-70697250D01*
X172670840Y-70416996D01*
X172534480Y-70152803D01*
X172501667Y-70106114D01*
X172365989Y-69913065D01*
X172363526Y-69909560D01*
X172262736Y-69801097D01*
X172164064Y-69694913D01*
X172164061Y-69694910D01*
X172161143Y-69691770D01*
X171931074Y-69503461D01*
X171677577Y-69348118D01*
X171649824Y-69335935D01*
X171409276Y-69230342D01*
X171405344Y-69228616D01*
X171374550Y-69219844D01*
X171123541Y-69148341D01*
X171123534Y-69148340D01*
X171119411Y-69147165D01*
X171115169Y-69146561D01*
X171115163Y-69146560D01*
X170899272Y-69115835D01*
X170825069Y-69105274D01*
X170668943Y-69104457D01*
X170532051Y-69103740D01*
X170532045Y-69103740D01*
X170527765Y-69103718D01*
X170523521Y-69104277D01*
X170523517Y-69104277D01*
X170393967Y-69121333D01*
X170233001Y-69142524D01*
X170228861Y-69143657D01*
X170228859Y-69143657D01*
X170177647Y-69157667D01*
X169946231Y-69220976D01*
X169942283Y-69222660D01*
X169676713Y-69335935D01*
X169676709Y-69335937D01*
X169672761Y-69337621D01*
X169603962Y-69378796D01*
X169421333Y-69488096D01*
X169421329Y-69488099D01*
X169417651Y-69490300D01*
X169414308Y-69492978D01*
X169414304Y-69492981D01*
X169404018Y-69501222D01*
X169185623Y-69676190D01*
X169182679Y-69679292D01*
X169182675Y-69679296D01*
X168983920Y-69888740D01*
X168980970Y-69891849D01*
X168807479Y-70133288D01*
X168668360Y-70396038D01*
X168566187Y-70675238D01*
X168502851Y-70965722D01*
X168502515Y-70969992D01*
X168484977Y-71192842D01*
X168484500Y-71198898D01*
X168484500Y-72299738D01*
X163506105Y-72299738D01*
X163587531Y-72228329D01*
X163590620Y-72225620D01*
X163593329Y-72222531D01*
X163791060Y-71997064D01*
X163791064Y-71997058D01*
X163793778Y-71993964D01*
X163964960Y-71737771D01*
X163993685Y-71679524D01*
X164099414Y-71465125D01*
X164101238Y-71461427D01*
X164102564Y-71457521D01*
X164198954Y-71173566D01*
X164198955Y-71173563D01*
X164200280Y-71169659D01*
X164202632Y-71157838D01*
X164259587Y-70871503D01*
X164259587Y-70871500D01*
X164260391Y-70867460D01*
X164280543Y-70560000D01*
X164269915Y-70397846D01*
X164260661Y-70256655D01*
X164260660Y-70256651D01*
X164260391Y-70252540D01*
X164247429Y-70187376D01*
X164201085Y-69954386D01*
X164201083Y-69954380D01*
X164200280Y-69950341D01*
X164187627Y-69913065D01*
X164102564Y-69662479D01*
X164102564Y-69662478D01*
X164101238Y-69658573D01*
X164036828Y-69527962D01*
X163966787Y-69385933D01*
X163966784Y-69385928D01*
X163964960Y-69382229D01*
X163793778Y-69126036D01*
X163791064Y-69122942D01*
X163791060Y-69122936D01*
X163593329Y-68897469D01*
X163590620Y-68894380D01*
X163587531Y-68891671D01*
X163362064Y-68693940D01*
X163362058Y-68693936D01*
X163358964Y-68691222D01*
X163355534Y-68688930D01*
X163355533Y-68688929D01*
X163106205Y-68522334D01*
X163102772Y-68520040D01*
X163099073Y-68518216D01*
X163099068Y-68518213D01*
X162957171Y-68448237D01*
X162826427Y-68383762D01*
X162822521Y-68382436D01*
X162538566Y-68286046D01*
X162538563Y-68286045D01*
X162534659Y-68284720D01*
X162530620Y-68283917D01*
X162530614Y-68283915D01*
X162236503Y-68225413D01*
X162236500Y-68225413D01*
X162232460Y-68224609D01*
X162228349Y-68224340D01*
X162228345Y-68224339D01*
X161929119Y-68204727D01*
X161925000Y-68204457D01*
X161920881Y-68204727D01*
X161621655Y-68224339D01*
X161621651Y-68224340D01*
X161617540Y-68224609D01*
X161613500Y-68225413D01*
X161613497Y-68225413D01*
X161319386Y-68283915D01*
X161319380Y-68283917D01*
X161315341Y-68284720D01*
X161311437Y-68286045D01*
X161311434Y-68286046D01*
X161027479Y-68382436D01*
X161023573Y-68383762D01*
X160892962Y-68448172D01*
X160750933Y-68518213D01*
X160750928Y-68518216D01*
X160747229Y-68520040D01*
X160491036Y-68691222D01*
X160487942Y-68693936D01*
X160487936Y-68693940D01*
X160262469Y-68891671D01*
X160259380Y-68894380D01*
X160256671Y-68897469D01*
X160058940Y-69122936D01*
X160058936Y-69122942D01*
X160056222Y-69126036D01*
X159885040Y-69382229D01*
X159883216Y-69385928D01*
X159883213Y-69385933D01*
X159813172Y-69527962D01*
X159748762Y-69658573D01*
X159747436Y-69662478D01*
X159747436Y-69662479D01*
X159662374Y-69913065D01*
X159649720Y-69950341D01*
X159648917Y-69954380D01*
X159648915Y-69954386D01*
X159602571Y-70187376D01*
X159589609Y-70252540D01*
X159589340Y-70256651D01*
X159589339Y-70256655D01*
X159580085Y-70397846D01*
X159569457Y-70560000D01*
X140971480Y-70560000D01*
X140920840Y-70416996D01*
X140784480Y-70152803D01*
X140751667Y-70106114D01*
X140615989Y-69913065D01*
X140613526Y-69909560D01*
X140512736Y-69801097D01*
X140414064Y-69694913D01*
X140414061Y-69694910D01*
X140411143Y-69691770D01*
X140181074Y-69503461D01*
X139927577Y-69348118D01*
X139899824Y-69335935D01*
X139659276Y-69230342D01*
X139655344Y-69228616D01*
X139624550Y-69219844D01*
X139373541Y-69148341D01*
X139373534Y-69148340D01*
X139369411Y-69147165D01*
X139365169Y-69146561D01*
X139365163Y-69146560D01*
X139149272Y-69115835D01*
X139075069Y-69105274D01*
X138918943Y-69104457D01*
X138782051Y-69103740D01*
X138782045Y-69103740D01*
X138777765Y-69103718D01*
X138773521Y-69104277D01*
X138773517Y-69104277D01*
X138643967Y-69121333D01*
X138483001Y-69142524D01*
X138478861Y-69143657D01*
X138478859Y-69143657D01*
X138427647Y-69157667D01*
X138196231Y-69220976D01*
X138192283Y-69222660D01*
X137926713Y-69335935D01*
X137926709Y-69335937D01*
X137922761Y-69337621D01*
X137853962Y-69378796D01*
X137671333Y-69488096D01*
X137671329Y-69488099D01*
X137667651Y-69490300D01*
X137664308Y-69492978D01*
X137664304Y-69492981D01*
X137654018Y-69501222D01*
X137435623Y-69676190D01*
X137432679Y-69679292D01*
X137432675Y-69679296D01*
X137233920Y-69888740D01*
X137230970Y-69891849D01*
X137057479Y-70133288D01*
X136918360Y-70396038D01*
X136816187Y-70675238D01*
X136752851Y-70965722D01*
X136752515Y-70969992D01*
X136734977Y-71192842D01*
X136734500Y-71198898D01*
X136734500Y-72299738D01*
X131756105Y-72299738D01*
X131837531Y-72228329D01*
X131840620Y-72225620D01*
X131843329Y-72222531D01*
X132041060Y-71997064D01*
X132041064Y-71997058D01*
X132043778Y-71993964D01*
X132214960Y-71737771D01*
X132243685Y-71679524D01*
X132349414Y-71465125D01*
X132351238Y-71461427D01*
X132352564Y-71457521D01*
X132448954Y-71173566D01*
X132448955Y-71173563D01*
X132450280Y-71169659D01*
X132452632Y-71157838D01*
X132509587Y-70871503D01*
X132509587Y-70871500D01*
X132510391Y-70867460D01*
X132530543Y-70560000D01*
X132519915Y-70397846D01*
X132510661Y-70256655D01*
X132510660Y-70256651D01*
X132510391Y-70252540D01*
X132497429Y-70187376D01*
X132451085Y-69954386D01*
X132451083Y-69954380D01*
X132450280Y-69950341D01*
X132437627Y-69913065D01*
X132352564Y-69662479D01*
X132352564Y-69662478D01*
X132351238Y-69658573D01*
X132286828Y-69527962D01*
X132216787Y-69385933D01*
X132216784Y-69385928D01*
X132214960Y-69382229D01*
X132043778Y-69126036D01*
X132041064Y-69122942D01*
X132041060Y-69122936D01*
X131843329Y-68897469D01*
X131840620Y-68894380D01*
X131837531Y-68891671D01*
X131612064Y-68693940D01*
X131612058Y-68693936D01*
X131608964Y-68691222D01*
X131605534Y-68688930D01*
X131605533Y-68688929D01*
X131356205Y-68522334D01*
X131352772Y-68520040D01*
X131349073Y-68518216D01*
X131349068Y-68518213D01*
X131207171Y-68448237D01*
X131076427Y-68383762D01*
X131072521Y-68382436D01*
X130788566Y-68286046D01*
X130788563Y-68286045D01*
X130784659Y-68284720D01*
X130780620Y-68283917D01*
X130780614Y-68283915D01*
X130486503Y-68225413D01*
X130486500Y-68225413D01*
X130482460Y-68224609D01*
X130478349Y-68224340D01*
X130478345Y-68224339D01*
X130179119Y-68204727D01*
X130175000Y-68204457D01*
X130170881Y-68204727D01*
X129871655Y-68224339D01*
X129871651Y-68224340D01*
X129867540Y-68224609D01*
X129863500Y-68225413D01*
X129863497Y-68225413D01*
X129569386Y-68283915D01*
X129569380Y-68283917D01*
X129565341Y-68284720D01*
X129561437Y-68286045D01*
X129561434Y-68286046D01*
X129277479Y-68382436D01*
X129273573Y-68383762D01*
X129142962Y-68448172D01*
X129000933Y-68518213D01*
X129000928Y-68518216D01*
X128997229Y-68520040D01*
X128741036Y-68691222D01*
X128737942Y-68693936D01*
X128737936Y-68693940D01*
X128512469Y-68891671D01*
X128509380Y-68894380D01*
X128506671Y-68897469D01*
X128308940Y-69122936D01*
X128308936Y-69122942D01*
X128306222Y-69126036D01*
X128135040Y-69382229D01*
X128133216Y-69385928D01*
X128133213Y-69385933D01*
X128063172Y-69527962D01*
X127998762Y-69658573D01*
X127997436Y-69662478D01*
X127997436Y-69662479D01*
X127912374Y-69913065D01*
X127899720Y-69950341D01*
X127898917Y-69954380D01*
X127898915Y-69954386D01*
X127852571Y-70187376D01*
X127839609Y-70252540D01*
X127839340Y-70256651D01*
X127839339Y-70256655D01*
X127830085Y-70397846D01*
X127819457Y-70560000D01*
X109221480Y-70560000D01*
X109170840Y-70416996D01*
X109034480Y-70152803D01*
X109001667Y-70106114D01*
X108865989Y-69913065D01*
X108863526Y-69909560D01*
X108762736Y-69801097D01*
X108664064Y-69694913D01*
X108664061Y-69694910D01*
X108661143Y-69691770D01*
X108431074Y-69503461D01*
X108177577Y-69348118D01*
X108149824Y-69335935D01*
X107909276Y-69230342D01*
X107905344Y-69228616D01*
X107874550Y-69219844D01*
X107623541Y-69148341D01*
X107623534Y-69148340D01*
X107619411Y-69147165D01*
X107615169Y-69146561D01*
X107615163Y-69146560D01*
X107399272Y-69115835D01*
X107325069Y-69105274D01*
X107168943Y-69104457D01*
X107032051Y-69103740D01*
X107032045Y-69103740D01*
X107027765Y-69103718D01*
X107023521Y-69104277D01*
X107023517Y-69104277D01*
X106893967Y-69121333D01*
X106733001Y-69142524D01*
X106728861Y-69143657D01*
X106728859Y-69143657D01*
X106677647Y-69157667D01*
X106446231Y-69220976D01*
X106442283Y-69222660D01*
X106176713Y-69335935D01*
X106176709Y-69335937D01*
X106172761Y-69337621D01*
X106103962Y-69378796D01*
X105921333Y-69488096D01*
X105921329Y-69488099D01*
X105917651Y-69490300D01*
X105914308Y-69492978D01*
X105914304Y-69492981D01*
X105904018Y-69501222D01*
X105685623Y-69676190D01*
X105682679Y-69679292D01*
X105682675Y-69679296D01*
X105483920Y-69888740D01*
X105480970Y-69891849D01*
X105307479Y-70133288D01*
X105168360Y-70396038D01*
X105066187Y-70675238D01*
X105002851Y-70965722D01*
X105002515Y-70969992D01*
X104984977Y-71192842D01*
X104984500Y-71198898D01*
X104984500Y-72299738D01*
X100006105Y-72299738D01*
X100087531Y-72228329D01*
X100090620Y-72225620D01*
X100093329Y-72222531D01*
X100291060Y-71997064D01*
X100291064Y-71997058D01*
X100293778Y-71993964D01*
X100464960Y-71737771D01*
X100493685Y-71679524D01*
X100599414Y-71465125D01*
X100601238Y-71461427D01*
X100602564Y-71457521D01*
X100698954Y-71173566D01*
X100698955Y-71173563D01*
X100700280Y-71169659D01*
X100702632Y-71157838D01*
X100759587Y-70871503D01*
X100759587Y-70871500D01*
X100760391Y-70867460D01*
X100780543Y-70560000D01*
X100769915Y-70397846D01*
X100760661Y-70256655D01*
X100760660Y-70256651D01*
X100760391Y-70252540D01*
X100747429Y-70187376D01*
X100701085Y-69954386D01*
X100701083Y-69954380D01*
X100700280Y-69950341D01*
X100687627Y-69913065D01*
X100602564Y-69662479D01*
X100602564Y-69662478D01*
X100601238Y-69658573D01*
X100536828Y-69527962D01*
X100466787Y-69385933D01*
X100466784Y-69385928D01*
X100464960Y-69382229D01*
X100293778Y-69126036D01*
X100291064Y-69122942D01*
X100291060Y-69122936D01*
X100093329Y-68897469D01*
X100090620Y-68894380D01*
X100087531Y-68891671D01*
X99862064Y-68693940D01*
X99862058Y-68693936D01*
X99858964Y-68691222D01*
X99855534Y-68688930D01*
X99855533Y-68688929D01*
X99606205Y-68522334D01*
X99602772Y-68520040D01*
X99599073Y-68518216D01*
X99599068Y-68518213D01*
X99457171Y-68448237D01*
X99326427Y-68383762D01*
X99322521Y-68382436D01*
X99038566Y-68286046D01*
X99038563Y-68286045D01*
X99034659Y-68284720D01*
X99030620Y-68283917D01*
X99030614Y-68283915D01*
X98736503Y-68225413D01*
X98736500Y-68225413D01*
X98732460Y-68224609D01*
X98728349Y-68224340D01*
X98728345Y-68224339D01*
X98429119Y-68204727D01*
X98425000Y-68204457D01*
X98420881Y-68204727D01*
X98121655Y-68224339D01*
X98121651Y-68224340D01*
X98117540Y-68224609D01*
X98113500Y-68225413D01*
X98113497Y-68225413D01*
X97819386Y-68283915D01*
X97819380Y-68283917D01*
X97815341Y-68284720D01*
X97811437Y-68286045D01*
X97811434Y-68286046D01*
X97527479Y-68382436D01*
X97523573Y-68383762D01*
X97392962Y-68448172D01*
X97250933Y-68518213D01*
X97250928Y-68518216D01*
X97247229Y-68520040D01*
X96991036Y-68691222D01*
X96987942Y-68693936D01*
X96987936Y-68693940D01*
X96762469Y-68891671D01*
X96759380Y-68894380D01*
X96756671Y-68897469D01*
X96558940Y-69122936D01*
X96558936Y-69122942D01*
X96556222Y-69126036D01*
X96385040Y-69382229D01*
X96383216Y-69385928D01*
X96383213Y-69385933D01*
X96313172Y-69527962D01*
X96248762Y-69658573D01*
X96247436Y-69662478D01*
X96247436Y-69662479D01*
X96162374Y-69913065D01*
X96149720Y-69950341D01*
X96148917Y-69954380D01*
X96148915Y-69954386D01*
X96102571Y-70187376D01*
X96089609Y-70252540D01*
X96089340Y-70256651D01*
X96089339Y-70256655D01*
X96080085Y-70397846D01*
X96069457Y-70560000D01*
X91760950Y-70560000D01*
X91807257Y-70481386D01*
X91854513Y-70401162D01*
X91854515Y-70401159D01*
X91856466Y-70397846D01*
X91983315Y-70106114D01*
X92073665Y-69801097D01*
X92126169Y-69487343D01*
X92140045Y-69169529D01*
X92118634Y-68897469D01*
X92115388Y-68856228D01*
X92115388Y-68856225D01*
X92115086Y-68852393D01*
X92051664Y-68540662D01*
X91950724Y-68238984D01*
X91943868Y-68224609D01*
X91815424Y-67955322D01*
X91815422Y-67955318D01*
X91813771Y-67951857D01*
X91642847Y-67683560D01*
X91476402Y-67481645D01*
X91448506Y-67416359D01*
X91460335Y-67346355D01*
X91508133Y-67293859D01*
X91573627Y-67275500D01*
X178934365Y-67275500D01*
X179002486Y-67295502D01*
G37*
G04 #@! TD.AperFunction*
M02*
