M48
; DRILL file {KiCad 6.0.4-6f826c9f35~116~ubuntu21.10.1} date Thu 21 Apr 2022 09:11:08 PM CEST
; FORMAT={-:-/ absolute / metric / decimal}
; #@! TF.CreationDate,2022-04-21T21:11:08+02:00
; #@! TF.GenerationSoftware,Kicad,Pcbnew,6.0.4-6f826c9f35~116~ubuntu21.10.1
; #@! TF.FileFunction,MixedPlating,1,2
FMAT,2
METRIC
; #@! TA.AperFunction,Plated,PTH,ViaDrill
T1C0.800
; #@! TA.AperFunction,Plated,PTH,ComponentDrill
T2C1.000
; #@! TA.AperFunction,Plated,PTH,ComponentDrill
T3C1.190
; #@! TA.AperFunction,Plated,PTH,ComponentDrill
T4C1.200
; #@! TA.AperFunction,Plated,PTH,ComponentDrill
T5C1.300
; #@! TA.AperFunction,Plated,PTH,ComponentDrill
T6C1.700
; #@! TA.AperFunction,NonPlated,NPTH,ComponentDrill
T7C3.200
; #@! TA.AperFunction,NonPlated,NPTH,ComponentDrill
T8C3.500
%
G90
G05
T1
X86.995Y-74.295
X86.995Y-76.2
X88.9Y-74.295
X88.9Y-76.2
X90.805Y-74.295
X90.805Y-76.2
X94.615Y-74.93
X94.615Y-76.835
X94.615Y-78.74
X94.615Y-80.645
X95.25Y-124.46
X95.25Y-126.365
X95.25Y-128.27
X96.52Y-74.93
X96.52Y-76.835
X96.52Y-78.74
X96.52Y-80.645
X98.425Y-74.93
X98.425Y-76.835
X98.425Y-78.74
X98.425Y-80.645
X100.33Y-74.93
X100.33Y-76.835
X100.33Y-78.74
X100.33Y-80.645
X102.235Y-74.93
X102.235Y-76.835
X102.235Y-78.74
X102.235Y-80.645
X113.665Y-85.725
X113.665Y-87.63
X113.665Y-89.535
X113.665Y-94.615
X113.665Y-96.52
X113.665Y-98.425
X115.57Y-85.725
X115.57Y-87.63
X115.57Y-89.535
X115.57Y-94.615
X115.57Y-96.52
X115.57Y-98.425
X118.745Y-74.295
X118.745Y-76.2
X120.65Y-74.295
X120.65Y-76.2
X122.555Y-74.295
X122.555Y-76.2
X126.365Y-74.93
X126.365Y-76.835
X126.365Y-78.74
X126.365Y-80.645
X128.27Y-74.93
X128.27Y-76.835
X128.27Y-78.74
X128.27Y-80.645
X130.175Y-74.93
X130.175Y-76.835
X130.175Y-78.74
X130.175Y-80.645
X132.08Y-74.93
X132.08Y-76.835
X132.08Y-78.74
X132.08Y-80.645
X133.985Y-74.93
X133.985Y-76.835
X133.985Y-78.74
X133.985Y-80.645
X140.97Y-124.46
X140.97Y-126.365
X140.97Y-128.27
X145.415Y-85.725
X145.415Y-87.63
X145.415Y-89.535
X145.415Y-94.615
X145.415Y-96.52
X145.415Y-98.425
X147.32Y-85.725
X147.32Y-87.63
X147.32Y-89.535
X147.32Y-94.615
X147.32Y-96.52
X147.32Y-98.425
X150.495Y-74.295
X150.495Y-76.2
X152.4Y-74.295
X152.4Y-76.2
X154.305Y-74.295
X154.305Y-76.2
X158.115Y-74.93
X158.115Y-76.835
X158.115Y-78.74
X158.115Y-80.645
X160.02Y-74.93
X160.02Y-76.835
X160.02Y-78.74
X160.02Y-80.645
X161.925Y-74.93
X161.925Y-76.835
X161.925Y-78.74
X161.925Y-80.645
X163.83Y-74.93
X163.83Y-76.835
X163.83Y-78.74
X163.83Y-80.645
X165.735Y-74.93
X165.735Y-76.835
X165.735Y-78.74
X165.735Y-80.645
X177.165Y-85.725
X177.165Y-87.63
X177.165Y-89.535
X177.165Y-94.615
X177.165Y-96.52
X177.165Y-98.425
X179.07Y-85.725
X179.07Y-87.63
X179.07Y-89.535
X179.07Y-94.615
X179.07Y-96.52
X179.07Y-98.425
T2
X109.392Y-92.075
X114.392Y-92.075
X141.142Y-92.075
X146.142Y-92.075
X172.892Y-92.075
X177.892Y-92.075
T3
X127.635Y-129.56
X130.175Y-129.56
T4
X95.025Y-86.36
X96.725Y-86.36
X98.425Y-86.36
X100.125Y-86.36
X101.825Y-86.36
X126.775Y-86.36
X128.475Y-86.36
X130.175Y-86.36
X131.875Y-86.36
X133.575Y-86.36
X158.525Y-86.36
X160.225Y-86.36
X161.925Y-86.36
X163.625Y-86.36
X165.325Y-86.36
T5
X92.62Y-111.76
X97.22Y-111.76
X108.52Y-111.76
X113.12Y-111.76
X123.1Y-111.76
X127.7Y-111.76
X139.0Y-111.76
X143.6Y-111.76
T6
X102.13Y-118.035
X102.13Y-121.995
X107.165Y-71.755
X111.125Y-71.755
X116.13Y-127.635
X120.09Y-127.635
X134.09Y-118.035
X134.09Y-121.995
X138.915Y-71.755
X142.875Y-71.755
X144.78Y-127.635
X148.74Y-127.635
X157.48Y-127.635
X161.44Y-127.635
X170.18Y-127.635
X170.665Y-71.755
X174.14Y-127.635
X174.625Y-71.755
T7
X89.535Y-69.215
X89.535Y-122.555
X180.975Y-69.215
X180.975Y-122.555
T8
X98.425Y-70.56
X130.175Y-70.56
X161.925Y-70.56
T0
M30
