G04 #@! TF.GenerationSoftware,KiCad,Pcbnew,6.0.4-6f826c9f35~116~ubuntu21.10.1*
G04 #@! TF.CreationDate,2022-04-21T21:11:02+02:00*
G04 #@! TF.ProjectId,Carte_Alim,43617274-655f-4416-9c69-6d2e6b696361,rev?*
G04 #@! TF.SameCoordinates,Original*
G04 #@! TF.FileFunction,Soldermask,Top*
G04 #@! TF.FilePolarity,Negative*
%FSLAX46Y46*%
G04 Gerber Fmt 4.6, Leading zero omitted, Abs format (unit mm)*
G04 Created by KiCad (PCBNEW 6.0.4-6f826c9f35~116~ubuntu21.10.1) date 2022-04-21 21:11:02*
%MOMM*%
%LPD*%
G01*
G04 APERTURE LIST*
G04 Aperture macros list*
%AMRoundRect*
0 Rectangle with rounded corners*
0 $1 Rounding radius*
0 $2 $3 $4 $5 $6 $7 $8 $9 X,Y pos of 4 corners*
0 Add a 4 corners polygon primitive as box body*
4,1,4,$2,$3,$4,$5,$6,$7,$8,$9,$2,$3,0*
0 Add four circle primitives for the rounded corners*
1,1,$1+$1,$2,$3*
1,1,$1+$1,$4,$5*
1,1,$1+$1,$6,$7*
1,1,$1+$1,$8,$9*
0 Add four rect primitives between the rounded corners*
20,1,$1+$1,$2,$3,$4,$5,0*
20,1,$1+$1,$4,$5,$6,$7,0*
20,1,$1+$1,$6,$7,$8,$9,0*
20,1,$1+$1,$8,$9,$2,$3,0*%
G04 Aperture macros list end*
%ADD10C,0.100000*%
G04 #@! TA.AperFunction,Profile*
%ADD11C,0.150000*%
G04 #@! TD*
%ADD12RoundRect,0.200000X1.450000X2.700000X-1.450000X2.700000X-1.450000X-2.700000X1.450000X-2.700000X0*%
%ADD13RoundRect,0.450000X-0.620000X-0.845000X0.620000X-0.845000X0.620000X0.845000X-0.620000X0.845000X0*%
%ADD14O,2.140000X2.590000*%
%ADD15RoundRect,0.450000X0.412500X0.650000X-0.412500X0.650000X-0.412500X-0.650000X0.412500X-0.650000X0*%
%ADD16C,3.600000*%
%ADD17RoundRect,0.450000X-1.330000X-1.800000X1.330000X-1.800000X1.330000X1.800000X-1.330000X1.800000X0*%
%ADD18O,3.560000X4.500000*%
%ADD19O,3.900000X3.900000*%
%ADD20RoundRect,0.200000X-0.637500X-0.900000X0.637500X-0.900000X0.637500X0.900000X-0.637500X0.900000X0*%
%ADD21O,1.675000X2.200000*%
%ADD22RoundRect,0.450000X0.550000X-1.500000X0.550000X1.500000X-0.550000X1.500000X-0.550000X-1.500000X0*%
%ADD23RoundRect,0.200000X-1.250000X-0.900000X1.250000X-0.900000X1.250000X0.900000X-1.250000X0.900000X0*%
%ADD24C,2.700000*%
%ADD25RoundRect,0.450000X-0.412500X-0.650000X0.412500X-0.650000X0.412500X0.650000X-0.412500X0.650000X0*%
%ADD26RoundRect,0.450000X-1.800000X1.330000X-1.800000X-1.330000X1.800000X-1.330000X1.800000X1.330000X0*%
%ADD27O,4.500000X3.560000*%
%ADD28RoundRect,0.200000X-1.000000X-1.000000X1.000000X-1.000000X1.000000X1.000000X-1.000000X1.000000X0*%
%ADD29C,2.400000*%
%ADD30RoundRect,0.450000X1.800000X-1.330000X1.800000X1.330000X-1.800000X1.330000X-1.800000X-1.330000X0*%
%ADD31RoundRect,0.450000X1.330000X1.800000X-1.330000X1.800000X-1.330000X-1.800000X1.330000X-1.800000X0*%
G04 APERTURE END LIST*
D10*
X156845000Y-67310000D02*
X167005000Y-67310000D01*
X167005000Y-67310000D02*
X167005000Y-81915000D01*
X167005000Y-81915000D02*
X156845000Y-81915000D01*
X156845000Y-81915000D02*
X156845000Y-67310000D01*
X93345000Y-67310000D02*
X103505000Y-67310000D01*
X103505000Y-67310000D02*
X103505000Y-81915000D01*
X103505000Y-81915000D02*
X93345000Y-81915000D01*
X93345000Y-81915000D02*
X93345000Y-67310000D01*
X125095000Y-67310000D02*
X135255000Y-67310000D01*
X135255000Y-67310000D02*
X135255000Y-81915000D01*
X135255000Y-81915000D02*
X125095000Y-81915000D01*
X125095000Y-81915000D02*
X125095000Y-67310000D01*
D11*
X183514999Y-130175001D02*
X183514999Y-69215001D01*
X180975000Y-132715000D02*
G75*
G03*
X183515000Y-130175000I0J2540000D01*
G01*
X180975000Y-66675000D02*
X87630000Y-66675000D01*
X87630000Y-132715000D02*
X180975000Y-132715000D01*
X183515000Y-69215000D02*
G75*
G03*
X180975000Y-66675000I-2540000J0D01*
G01*
X85090000Y-69215000D02*
X85090000Y-130175000D01*
X87630000Y-66675000D02*
G75*
G03*
X85090000Y-69215000I0J-2540000D01*
G01*
X85090000Y-130175000D02*
G75*
G03*
X87630000Y-132715000I2540000J0D01*
G01*
D12*
X104010000Y-98425000D03*
X94110000Y-98425000D03*
D13*
X127635000Y-129560000D03*
D14*
X130175000Y-129560000D03*
D15*
X173087500Y-120650000D03*
X169962500Y-120650000D03*
X147687500Y-120650000D03*
X144562500Y-120650000D03*
D16*
X180975000Y-122555000D03*
X89535000Y-122555000D03*
D17*
X170180000Y-127635000D03*
D18*
X174140000Y-127635000D03*
D19*
X98425000Y-70560000D03*
D20*
X95025000Y-86360000D03*
D21*
X96725000Y-86360000D03*
X98425000Y-86360000D03*
X100125000Y-86360000D03*
X101825000Y-86360000D03*
D22*
X88900000Y-85250000D03*
X88900000Y-79850000D03*
D12*
X167510000Y-98425000D03*
X157610000Y-98425000D03*
D17*
X144780000Y-127635000D03*
D18*
X148740000Y-127635000D03*
D15*
X100622500Y-126365000D03*
X97497500Y-126365000D03*
D23*
X128175000Y-89535000D03*
X132175000Y-89535000D03*
D24*
X97220000Y-111760000D03*
X92620000Y-111760000D03*
X113120000Y-111760000D03*
X108520000Y-111760000D03*
D17*
X116130000Y-127635000D03*
D18*
X120090000Y-127635000D03*
D25*
X135597500Y-126365000D03*
X138722500Y-126365000D03*
D19*
X130175000Y-70560000D03*
D20*
X126775000Y-86360000D03*
D21*
X128475000Y-86360000D03*
X130175000Y-86360000D03*
X131875000Y-86360000D03*
X133575000Y-86360000D03*
D26*
X102130000Y-118035000D03*
D27*
X102130000Y-121995000D03*
D24*
X143600000Y-111760000D03*
X139000000Y-111760000D03*
X123100000Y-111760000D03*
X127700000Y-111760000D03*
D28*
X172892323Y-92075000D03*
D29*
X177892323Y-92075000D03*
D15*
X160387500Y-120650000D03*
X157262500Y-120650000D03*
D19*
X161925000Y-70560000D03*
D20*
X158525000Y-86360000D03*
D21*
X160225000Y-86360000D03*
X161925000Y-86360000D03*
X163625000Y-86360000D03*
X165325000Y-86360000D03*
D23*
X159925000Y-89535000D03*
X163925000Y-89535000D03*
D12*
X135760000Y-98425000D03*
X125860000Y-98425000D03*
D30*
X134090000Y-121995000D03*
D27*
X134090000Y-118035000D03*
D28*
X141142323Y-92075000D03*
D29*
X146142323Y-92075000D03*
D28*
X109392323Y-92075000D03*
D29*
X114392323Y-92075000D03*
D31*
X174625000Y-71755000D03*
D18*
X170665000Y-71755000D03*
D16*
X180975000Y-69215000D03*
D23*
X96425000Y-89535000D03*
X100425000Y-89535000D03*
D22*
X152400000Y-85250000D03*
X152400000Y-79850000D03*
D31*
X111125000Y-71755000D03*
D18*
X107165000Y-71755000D03*
D22*
X120650000Y-85250000D03*
X120650000Y-79850000D03*
D17*
X157480000Y-127635000D03*
D18*
X161440000Y-127635000D03*
D16*
X89535000Y-69215000D03*
D31*
X142875000Y-71755000D03*
D18*
X138915000Y-71755000D03*
M02*
