G04 #@! TF.GenerationSoftware,KiCad,Pcbnew,6.0.4-6f826c9f35~116~ubuntu21.10.1*
G04 #@! TF.CreationDate,2022-04-21T21:11:02+02:00*
G04 #@! TF.ProjectId,Carte_Alim,43617274-655f-4416-9c69-6d2e6b696361,rev?*
G04 #@! TF.SameCoordinates,Original*
G04 #@! TF.FileFunction,Soldermask,Bot*
G04 #@! TF.FilePolarity,Negative*
%FSLAX46Y46*%
G04 Gerber Fmt 4.6, Leading zero omitted, Abs format (unit mm)*
G04 Created by KiCad (PCBNEW 6.0.4-6f826c9f35~116~ubuntu21.10.1) date 2022-04-21 21:11:02*
%MOMM*%
%LPD*%
G01*
G04 APERTURE LIST*
G04 Aperture macros list*
%AMRoundRect*
0 Rectangle with rounded corners*
0 $1 Rounding radius*
0 $2 $3 $4 $5 $6 $7 $8 $9 X,Y pos of 4 corners*
0 Add a 4 corners polygon primitive as box body*
4,1,4,$2,$3,$4,$5,$6,$7,$8,$9,$2,$3,0*
0 Add four circle primitives for the rounded corners*
1,1,$1+$1,$2,$3*
1,1,$1+$1,$4,$5*
1,1,$1+$1,$6,$7*
1,1,$1+$1,$8,$9*
0 Add four rect primitives between the rounded corners*
20,1,$1+$1,$2,$3,$4,$5,0*
20,1,$1+$1,$4,$5,$6,$7,0*
20,1,$1+$1,$6,$7,$8,$9,0*
20,1,$1+$1,$8,$9,$2,$3,0*%
G04 Aperture macros list end*
G04 #@! TA.AperFunction,Profile*
%ADD10C,0.150000*%
G04 #@! TD*
%ADD11RoundRect,0.450000X-0.620000X-0.845000X0.620000X-0.845000X0.620000X0.845000X-0.620000X0.845000X0*%
%ADD12O,2.140000X2.590000*%
%ADD13C,3.600000*%
%ADD14RoundRect,0.450000X-1.330000X-1.800000X1.330000X-1.800000X1.330000X1.800000X-1.330000X1.800000X0*%
%ADD15O,3.560000X4.500000*%
%ADD16O,3.900000X3.900000*%
%ADD17RoundRect,0.200000X-0.637500X-0.900000X0.637500X-0.900000X0.637500X0.900000X-0.637500X0.900000X0*%
%ADD18O,1.675000X2.200000*%
%ADD19C,2.700000*%
%ADD20RoundRect,0.450000X-1.800000X1.330000X-1.800000X-1.330000X1.800000X-1.330000X1.800000X1.330000X0*%
%ADD21O,4.500000X3.560000*%
%ADD22RoundRect,0.200000X-1.000000X-1.000000X1.000000X-1.000000X1.000000X1.000000X-1.000000X1.000000X0*%
%ADD23C,2.400000*%
%ADD24RoundRect,0.450000X1.800000X-1.330000X1.800000X1.330000X-1.800000X1.330000X-1.800000X-1.330000X0*%
%ADD25RoundRect,0.450000X1.330000X1.800000X-1.330000X1.800000X-1.330000X-1.800000X1.330000X-1.800000X0*%
G04 APERTURE END LIST*
D10*
X183514999Y-130175001D02*
X183514999Y-69215001D01*
X180975000Y-132715000D02*
G75*
G03*
X183515000Y-130175000I0J2540000D01*
G01*
X180975000Y-66675000D02*
X87630000Y-66675000D01*
X87630000Y-132715000D02*
X180975000Y-132715000D01*
X183515000Y-69215000D02*
G75*
G03*
X180975000Y-66675000I-2540000J0D01*
G01*
X85090000Y-69215000D02*
X85090000Y-130175000D01*
X87630000Y-66675000D02*
G75*
G03*
X85090000Y-69215000I0J-2540000D01*
G01*
X85090000Y-130175000D02*
G75*
G03*
X87630000Y-132715000I2540000J0D01*
G01*
D11*
X127635000Y-129560000D03*
D12*
X130175000Y-129560000D03*
D13*
X180975000Y-122555000D03*
X89535000Y-122555000D03*
D14*
X170180000Y-127635000D03*
D15*
X174140000Y-127635000D03*
D16*
X98425000Y-70560000D03*
D17*
X95025000Y-86360000D03*
D18*
X96725000Y-86360000D03*
X98425000Y-86360000D03*
X100125000Y-86360000D03*
X101825000Y-86360000D03*
D14*
X144780000Y-127635000D03*
D15*
X148740000Y-127635000D03*
D19*
X97220000Y-111760000D03*
X92620000Y-111760000D03*
X113120000Y-111760000D03*
X108520000Y-111760000D03*
D14*
X116130000Y-127635000D03*
D15*
X120090000Y-127635000D03*
D16*
X130175000Y-70560000D03*
D17*
X126775000Y-86360000D03*
D18*
X128475000Y-86360000D03*
X130175000Y-86360000D03*
X131875000Y-86360000D03*
X133575000Y-86360000D03*
D20*
X102130000Y-118035000D03*
D21*
X102130000Y-121995000D03*
D19*
X143600000Y-111760000D03*
X139000000Y-111760000D03*
X123100000Y-111760000D03*
X127700000Y-111760000D03*
D22*
X172892323Y-92075000D03*
D23*
X177892323Y-92075000D03*
D16*
X161925000Y-70560000D03*
D17*
X158525000Y-86360000D03*
D18*
X160225000Y-86360000D03*
X161925000Y-86360000D03*
X163625000Y-86360000D03*
X165325000Y-86360000D03*
D24*
X134090000Y-121995000D03*
D21*
X134090000Y-118035000D03*
D22*
X141142323Y-92075000D03*
D23*
X146142323Y-92075000D03*
D22*
X109392323Y-92075000D03*
D23*
X114392323Y-92075000D03*
D25*
X174625000Y-71755000D03*
D15*
X170665000Y-71755000D03*
D13*
X180975000Y-69215000D03*
D25*
X111125000Y-71755000D03*
D15*
X107165000Y-71755000D03*
D14*
X157480000Y-127635000D03*
D15*
X161440000Y-127635000D03*
D13*
X89535000Y-69215000D03*
D25*
X142875000Y-71755000D03*
D15*
X138915000Y-71755000D03*
M02*
