G04 #@! TF.GenerationSoftware,KiCad,Pcbnew,6.0.4-6f826c9f35~116~ubuntu21.10.1*
G04 #@! TF.CreationDate,2022-04-21T21:11:01+02:00*
G04 #@! TF.ProjectId,Carte_Alim,43617274-655f-4416-9c69-6d2e6b696361,rev?*
G04 #@! TF.SameCoordinates,Original*
G04 #@! TF.FileFunction,Copper,L1,Top*
G04 #@! TF.FilePolarity,Positive*
%FSLAX46Y46*%
G04 Gerber Fmt 4.6, Leading zero omitted, Abs format (unit mm)*
G04 Created by KiCad (PCBNEW 6.0.4-6f826c9f35~116~ubuntu21.10.1) date 2022-04-21 21:11:01*
%MOMM*%
%LPD*%
G01*
G04 APERTURE LIST*
G04 Aperture macros list*
%AMRoundRect*
0 Rectangle with rounded corners*
0 $1 Rounding radius*
0 $2 $3 $4 $5 $6 $7 $8 $9 X,Y pos of 4 corners*
0 Add a 4 corners polygon primitive as box body*
4,1,4,$2,$3,$4,$5,$6,$7,$8,$9,$2,$3,0*
0 Add four circle primitives for the rounded corners*
1,1,$1+$1,$2,$3*
1,1,$1+$1,$4,$5*
1,1,$1+$1,$6,$7*
1,1,$1+$1,$8,$9*
0 Add four rect primitives between the rounded corners*
20,1,$1+$1,$2,$3,$4,$5,0*
20,1,$1+$1,$4,$5,$6,$7,0*
20,1,$1+$1,$6,$7,$8,$9,0*
20,1,$1+$1,$8,$9,$2,$3,0*%
G04 Aperture macros list end*
G04 #@! TA.AperFunction,Profile*
%ADD10C,0.150000*%
G04 #@! TD*
G04 #@! TA.AperFunction,SMDPad,CuDef*
%ADD11R,2.900000X5.400000*%
G04 #@! TD*
G04 #@! TA.AperFunction,ComponentPad*
%ADD12RoundRect,0.250000X-0.620000X-0.845000X0.620000X-0.845000X0.620000X0.845000X-0.620000X0.845000X0*%
G04 #@! TD*
G04 #@! TA.AperFunction,ComponentPad*
%ADD13O,1.740000X2.190000*%
G04 #@! TD*
G04 #@! TA.AperFunction,SMDPad,CuDef*
%ADD14RoundRect,0.250000X0.412500X0.650000X-0.412500X0.650000X-0.412500X-0.650000X0.412500X-0.650000X0*%
G04 #@! TD*
G04 #@! TA.AperFunction,ComponentPad*
%ADD15RoundRect,0.250000X-1.330000X-1.800000X1.330000X-1.800000X1.330000X1.800000X-1.330000X1.800000X0*%
G04 #@! TD*
G04 #@! TA.AperFunction,ComponentPad*
%ADD16O,3.160000X4.100000*%
G04 #@! TD*
G04 #@! TA.AperFunction,ComponentPad*
%ADD17R,1.275000X1.800000*%
G04 #@! TD*
G04 #@! TA.AperFunction,ComponentPad*
%ADD18O,1.275000X1.800000*%
G04 #@! TD*
G04 #@! TA.AperFunction,SMDPad,CuDef*
%ADD19RoundRect,0.250000X0.550000X-1.500000X0.550000X1.500000X-0.550000X1.500000X-0.550000X-1.500000X0*%
G04 #@! TD*
G04 #@! TA.AperFunction,SMDPad,CuDef*
%ADD20R,2.500000X1.800000*%
G04 #@! TD*
G04 #@! TA.AperFunction,ComponentPad*
%ADD21C,2.300000*%
G04 #@! TD*
G04 #@! TA.AperFunction,SMDPad,CuDef*
%ADD22RoundRect,0.250000X-0.412500X-0.650000X0.412500X-0.650000X0.412500X0.650000X-0.412500X0.650000X0*%
G04 #@! TD*
G04 #@! TA.AperFunction,ComponentPad*
%ADD23RoundRect,0.250000X-1.800000X1.330000X-1.800000X-1.330000X1.800000X-1.330000X1.800000X1.330000X0*%
G04 #@! TD*
G04 #@! TA.AperFunction,ComponentPad*
%ADD24O,4.100000X3.160000*%
G04 #@! TD*
G04 #@! TA.AperFunction,ComponentPad*
%ADD25R,2.000000X2.000000*%
G04 #@! TD*
G04 #@! TA.AperFunction,ComponentPad*
%ADD26C,2.000000*%
G04 #@! TD*
G04 #@! TA.AperFunction,ComponentPad*
%ADD27RoundRect,0.250000X1.800000X-1.330000X1.800000X1.330000X-1.800000X1.330000X-1.800000X-1.330000X0*%
G04 #@! TD*
G04 #@! TA.AperFunction,ComponentPad*
%ADD28RoundRect,0.250000X1.330000X1.800000X-1.330000X1.800000X-1.330000X-1.800000X1.330000X-1.800000X0*%
G04 #@! TD*
G04 #@! TA.AperFunction,ViaPad*
%ADD29C,1.600000*%
G04 #@! TD*
G04 #@! TA.AperFunction,Conductor*
%ADD30C,0.500000*%
G04 #@! TD*
G04 APERTURE END LIST*
D10*
X183514999Y-130175001D02*
X183514999Y-69215001D01*
X180975000Y-132715000D02*
G75*
G03*
X183515000Y-130175000I0J2540000D01*
G01*
X180975000Y-66675000D02*
X87630000Y-66675000D01*
X87630000Y-132715000D02*
X180975000Y-132715000D01*
X183515000Y-69215000D02*
G75*
G03*
X180975000Y-66675000I-2540000J0D01*
G01*
X85090000Y-69215000D02*
X85090000Y-130175000D01*
X87630000Y-66675000D02*
G75*
G03*
X85090000Y-69215000I0J-2540000D01*
G01*
X85090000Y-130175000D02*
G75*
G03*
X87630000Y-132715000I2540000J0D01*
G01*
D11*
X104010000Y-98425000D03*
X94110000Y-98425000D03*
D12*
X127635000Y-129560000D03*
D13*
X130175000Y-129560000D03*
D14*
X173087500Y-120650000D03*
X169962500Y-120650000D03*
X147687500Y-120650000D03*
X144562500Y-120650000D03*
D15*
X170180000Y-127635000D03*
D16*
X174140000Y-127635000D03*
D17*
X95025000Y-86360000D03*
D18*
X96725000Y-86360000D03*
X98425000Y-86360000D03*
X100125000Y-86360000D03*
X101825000Y-86360000D03*
D19*
X88900000Y-85250000D03*
X88900000Y-79850000D03*
D11*
X167510000Y-98425000D03*
X157610000Y-98425000D03*
D15*
X144780000Y-127635000D03*
D16*
X148740000Y-127635000D03*
D14*
X100622500Y-126365000D03*
X97497500Y-126365000D03*
D20*
X128175000Y-89535000D03*
X132175000Y-89535000D03*
D21*
X97220000Y-111760000D03*
X92620000Y-111760000D03*
X113120000Y-111760000D03*
X108520000Y-111760000D03*
D15*
X116130000Y-127635000D03*
D16*
X120090000Y-127635000D03*
D22*
X135597500Y-126365000D03*
X138722500Y-126365000D03*
D17*
X126775000Y-86360000D03*
D18*
X128475000Y-86360000D03*
X130175000Y-86360000D03*
X131875000Y-86360000D03*
X133575000Y-86360000D03*
D23*
X102130000Y-118035000D03*
D24*
X102130000Y-121995000D03*
D21*
X143600000Y-111760000D03*
X139000000Y-111760000D03*
X123100000Y-111760000D03*
X127700000Y-111760000D03*
D25*
X172892323Y-92075000D03*
D26*
X177892323Y-92075000D03*
D14*
X160387500Y-120650000D03*
X157262500Y-120650000D03*
D17*
X158525000Y-86360000D03*
D18*
X160225000Y-86360000D03*
X161925000Y-86360000D03*
X163625000Y-86360000D03*
X165325000Y-86360000D03*
D20*
X159925000Y-89535000D03*
X163925000Y-89535000D03*
D11*
X135760000Y-98425000D03*
X125860000Y-98425000D03*
D27*
X134090000Y-121995000D03*
D24*
X134090000Y-118035000D03*
D25*
X141142323Y-92075000D03*
D26*
X146142323Y-92075000D03*
D25*
X109392323Y-92075000D03*
D26*
X114392323Y-92075000D03*
D28*
X174625000Y-71755000D03*
D16*
X170665000Y-71755000D03*
D20*
X96425000Y-89535000D03*
X100425000Y-89535000D03*
D19*
X152400000Y-85250000D03*
X152400000Y-79850000D03*
D28*
X111125000Y-71755000D03*
D16*
X107165000Y-71755000D03*
D19*
X120650000Y-85250000D03*
X120650000Y-79850000D03*
D15*
X157480000Y-127635000D03*
D16*
X161440000Y-127635000D03*
D28*
X142875000Y-71755000D03*
D16*
X138915000Y-71755000D03*
D29*
X118745000Y-76200000D03*
X140970000Y-128270000D03*
X161925000Y-80645000D03*
X126365000Y-78740000D03*
X113665000Y-96520000D03*
X90805000Y-76200000D03*
X165735000Y-80645000D03*
X128270000Y-74930000D03*
X179070000Y-94615000D03*
X163830000Y-80645000D03*
X147320000Y-85725000D03*
X95250000Y-126365000D03*
X163830000Y-78740000D03*
X132080000Y-74930000D03*
X130175000Y-76835000D03*
X163830000Y-76835000D03*
X177165000Y-96520000D03*
X179070000Y-87630000D03*
X96520000Y-78740000D03*
X95250000Y-124460000D03*
X130175000Y-80645000D03*
X132080000Y-78740000D03*
X100330000Y-80645000D03*
X102235000Y-74930000D03*
X98425000Y-80645000D03*
X86995000Y-76200000D03*
X94615000Y-76835000D03*
X113665000Y-94615000D03*
X115570000Y-87630000D03*
X133985000Y-78740000D03*
X147320000Y-87630000D03*
X126365000Y-80645000D03*
X128270000Y-78740000D03*
X158115000Y-80645000D03*
X100330000Y-76835000D03*
X120650000Y-74295000D03*
X160020000Y-74930000D03*
X88900000Y-76200000D03*
X160020000Y-80645000D03*
X102235000Y-78740000D03*
X118745000Y-74295000D03*
X152400000Y-76200000D03*
X88900000Y-74295000D03*
X100330000Y-74930000D03*
X150495000Y-76200000D03*
X102235000Y-80645000D03*
X140970000Y-126365000D03*
X179070000Y-96520000D03*
X126365000Y-74930000D03*
X96520000Y-74930000D03*
X152400000Y-74295000D03*
X165735000Y-78740000D03*
X113665000Y-89535000D03*
X145415000Y-85725000D03*
X133985000Y-76835000D03*
X179070000Y-85725000D03*
X128270000Y-80645000D03*
X102235000Y-76835000D03*
X147320000Y-94615000D03*
X122555000Y-74295000D03*
X147320000Y-98425000D03*
X90805000Y-74295000D03*
X132080000Y-76835000D03*
X145415000Y-87630000D03*
X96520000Y-80645000D03*
X96520000Y-76835000D03*
X161925000Y-78740000D03*
X154305000Y-74295000D03*
X130175000Y-74930000D03*
X179070000Y-89535000D03*
X115570000Y-96520000D03*
X115570000Y-94615000D03*
X147320000Y-89535000D03*
X115570000Y-85725000D03*
X179070000Y-98425000D03*
X145415000Y-98425000D03*
X145415000Y-96520000D03*
X115570000Y-89535000D03*
X133985000Y-74930000D03*
X86995000Y-74295000D03*
X177165000Y-89535000D03*
X160020000Y-76835000D03*
X154305000Y-76200000D03*
X177165000Y-94615000D03*
X94615000Y-74930000D03*
X113665000Y-87630000D03*
X113665000Y-85725000D03*
X150495000Y-74295000D03*
X120650000Y-76200000D03*
X158115000Y-76835000D03*
X147320000Y-96520000D03*
X94615000Y-80645000D03*
X126365000Y-76835000D03*
X145415000Y-94615000D03*
X161925000Y-74930000D03*
X160020000Y-78740000D03*
X140970000Y-124460000D03*
X98425000Y-74930000D03*
X177165000Y-98425000D03*
X128270000Y-76835000D03*
X115570000Y-98425000D03*
X132080000Y-80645000D03*
X133985000Y-80645000D03*
X158115000Y-74930000D03*
X94615000Y-78740000D03*
X145415000Y-89535000D03*
X165735000Y-74930000D03*
X130175000Y-78740000D03*
X165735000Y-76835000D03*
X98425000Y-78740000D03*
X177165000Y-87630000D03*
X95250000Y-128270000D03*
X113665000Y-98425000D03*
X122555000Y-76200000D03*
X158115000Y-78740000D03*
X98425000Y-76835000D03*
X177165000Y-85725000D03*
X163830000Y-74930000D03*
X100330000Y-78740000D03*
X161925000Y-76835000D03*
D30*
X133727500Y-83820000D02*
X136525000Y-83820000D01*
X131875000Y-85672500D02*
X133727500Y-83820000D01*
X131875000Y-85935000D02*
X131875000Y-85672500D01*
X165477500Y-83820000D02*
X168275000Y-83820000D01*
X163625000Y-85672500D02*
X165477500Y-83820000D01*
X163625000Y-85935000D02*
X163625000Y-85672500D01*
X101977500Y-83820000D02*
X104775000Y-83820000D01*
X100125000Y-85672500D02*
X101977500Y-83820000D01*
X100125000Y-85935000D02*
X100125000Y-85672500D01*
G04 #@! TA.AperFunction,Conductor*
G36*
X135531163Y-108585607D02*
G01*
X135707740Y-108602999D01*
X135731957Y-108607815D01*
X135895809Y-108657518D01*
X135918629Y-108666971D01*
X136069631Y-108747683D01*
X136090158Y-108761399D01*
X136222521Y-108870026D01*
X136239974Y-108887479D01*
X136348601Y-109019842D01*
X136362319Y-109040372D01*
X136443029Y-109191371D01*
X136452482Y-109214190D01*
X136502185Y-109378043D01*
X136507002Y-109402263D01*
X136524393Y-109578837D01*
X136525000Y-109591187D01*
X136525000Y-119008813D01*
X136524393Y-119021163D01*
X136507002Y-119197737D01*
X136502185Y-119221957D01*
X136452482Y-119385809D01*
X136443029Y-119408629D01*
X136362319Y-119559628D01*
X136348601Y-119580158D01*
X136239974Y-119712521D01*
X136222521Y-119729974D01*
X136090158Y-119838601D01*
X136069631Y-119852317D01*
X135996097Y-119891622D01*
X135936701Y-119906500D01*
X132239600Y-119906500D01*
X132236354Y-119906837D01*
X132236350Y-119906837D01*
X132140692Y-119916762D01*
X132140688Y-119916763D01*
X132133834Y-119917474D01*
X132127298Y-119919655D01*
X132127296Y-119919655D01*
X132087210Y-119933029D01*
X131966054Y-119973450D01*
X131935779Y-119992185D01*
X131929381Y-119996144D01*
X131863078Y-120015000D01*
X121656187Y-120015000D01*
X121643837Y-120014393D01*
X121467260Y-119997001D01*
X121443043Y-119992185D01*
X121279190Y-119942482D01*
X121256371Y-119933029D01*
X121178903Y-119891622D01*
X121105369Y-119852317D01*
X121084842Y-119838601D01*
X120952479Y-119729974D01*
X120935026Y-119712521D01*
X120826399Y-119580158D01*
X120812681Y-119559628D01*
X120731971Y-119408629D01*
X120722518Y-119385809D01*
X120672815Y-119221957D01*
X120667998Y-119197737D01*
X120650607Y-119021163D01*
X120650000Y-119008813D01*
X120650000Y-109591187D01*
X120650607Y-109578837D01*
X120667998Y-109402263D01*
X120672815Y-109378043D01*
X120722518Y-109214190D01*
X120731971Y-109191371D01*
X120812681Y-109040372D01*
X120826399Y-109019842D01*
X120935026Y-108887479D01*
X120952479Y-108870026D01*
X121084842Y-108761399D01*
X121105369Y-108747683D01*
X121256371Y-108666971D01*
X121279191Y-108657518D01*
X121443043Y-108607815D01*
X121467260Y-108602999D01*
X121643837Y-108585607D01*
X121656187Y-108585000D01*
X135518813Y-108585000D01*
X135531163Y-108585607D01*
G37*
G04 #@! TD.AperFunction*
G04 #@! TA.AperFunction,Conductor*
G36*
X114576163Y-108585607D02*
G01*
X114752740Y-108602999D01*
X114776957Y-108607815D01*
X114940809Y-108657518D01*
X114963629Y-108666971D01*
X115114631Y-108747683D01*
X115135158Y-108761399D01*
X115267521Y-108870026D01*
X115284974Y-108887479D01*
X115393601Y-109019842D01*
X115407319Y-109040372D01*
X115488029Y-109191371D01*
X115497482Y-109214190D01*
X115547185Y-109378043D01*
X115552002Y-109402263D01*
X115569393Y-109578837D01*
X115570000Y-109591187D01*
X115570000Y-119008813D01*
X115569393Y-119021163D01*
X115552002Y-119197737D01*
X115547185Y-119221957D01*
X115497482Y-119385809D01*
X115488029Y-119408629D01*
X115407319Y-119559628D01*
X115393601Y-119580158D01*
X115284974Y-119712521D01*
X115267521Y-119729974D01*
X115135158Y-119838601D01*
X115114631Y-119852317D01*
X115022417Y-119901607D01*
X114963629Y-119933029D01*
X114940810Y-119942482D01*
X114776957Y-119992185D01*
X114752740Y-119997001D01*
X114576163Y-120014393D01*
X114563813Y-120015000D01*
X103289612Y-120015000D01*
X103254881Y-120010119D01*
X103155389Y-119981590D01*
X103035284Y-119947150D01*
X103030941Y-119946540D01*
X103030938Y-119946539D01*
X102928241Y-119932106D01*
X102746042Y-119906500D01*
X101587067Y-119906500D01*
X101584881Y-119906653D01*
X101584877Y-119906653D01*
X101373012Y-119921468D01*
X101373007Y-119921469D01*
X101368627Y-119921775D01*
X101082926Y-119982503D01*
X101014514Y-120007403D01*
X100971424Y-120015000D01*
X100701187Y-120015000D01*
X100688837Y-120014393D01*
X100512260Y-119997001D01*
X100488043Y-119992185D01*
X100324190Y-119942482D01*
X100301371Y-119933029D01*
X100242583Y-119901607D01*
X100150369Y-119852317D01*
X100129842Y-119838601D01*
X99997479Y-119729974D01*
X99980026Y-119712521D01*
X99871399Y-119580158D01*
X99857681Y-119559628D01*
X99776971Y-119408629D01*
X99767518Y-119385809D01*
X99717815Y-119221957D01*
X99712998Y-119197737D01*
X99695607Y-119021163D01*
X99695000Y-119008813D01*
X99695000Y-109591187D01*
X99695607Y-109578837D01*
X99712998Y-109402263D01*
X99717815Y-109378043D01*
X99767518Y-109214190D01*
X99776971Y-109191371D01*
X99857681Y-109040372D01*
X99871399Y-109019842D01*
X99980026Y-108887479D01*
X99997479Y-108870026D01*
X100129842Y-108761399D01*
X100150369Y-108747683D01*
X100301371Y-108666971D01*
X100324191Y-108657518D01*
X100488043Y-108607815D01*
X100512260Y-108602999D01*
X100688837Y-108585607D01*
X100701187Y-108585000D01*
X114563813Y-108585000D01*
X114576163Y-108585607D01*
G37*
G04 #@! TD.AperFunction*
G04 #@! TA.AperFunction,Conductor*
G36*
X128702187Y-85101296D02*
G01*
X128760975Y-85107086D01*
X128785195Y-85111903D01*
X128940139Y-85158905D01*
X128962949Y-85168354D01*
X129105736Y-85244675D01*
X129126273Y-85258398D01*
X129183951Y-85305733D01*
X129223920Y-85364410D01*
X129225821Y-85435381D01*
X129210697Y-85469489D01*
X129209766Y-85470669D01*
X129111698Y-85657066D01*
X129049240Y-85858212D01*
X129029000Y-86029218D01*
X129029000Y-86675935D01*
X129043362Y-86832237D01*
X129100533Y-87034949D01*
X129103085Y-87040125D01*
X129103087Y-87040129D01*
X129191133Y-87218668D01*
X129193688Y-87223849D01*
X129197142Y-87228475D01*
X129197143Y-87228476D01*
X129259163Y-87311531D01*
X129319707Y-87392609D01*
X129343642Y-87414734D01*
X129434040Y-87498297D01*
X129474370Y-87535578D01*
X129481231Y-87539907D01*
X129481964Y-87540739D01*
X129483837Y-87542176D01*
X129483555Y-87542544D01*
X129528171Y-87593170D01*
X129540000Y-87646471D01*
X129540000Y-100593813D01*
X129539393Y-100606163D01*
X129522002Y-100782737D01*
X129517185Y-100806957D01*
X129467482Y-100970809D01*
X129458029Y-100993629D01*
X129377319Y-101144628D01*
X129363601Y-101165158D01*
X129254974Y-101297521D01*
X129237521Y-101314974D01*
X129105158Y-101423601D01*
X129084631Y-101437317D01*
X128992417Y-101486607D01*
X128933629Y-101518029D01*
X128910810Y-101527482D01*
X128746957Y-101577185D01*
X128722740Y-101582001D01*
X128546163Y-101599393D01*
X128533813Y-101600000D01*
X124831187Y-101600000D01*
X124818837Y-101599393D01*
X124642260Y-101582001D01*
X124618043Y-101577185D01*
X124454190Y-101527482D01*
X124431371Y-101518029D01*
X124372583Y-101486607D01*
X124280369Y-101437317D01*
X124259842Y-101423601D01*
X124127479Y-101314974D01*
X124110026Y-101297521D01*
X124001399Y-101165158D01*
X123987681Y-101144628D01*
X123906971Y-100993629D01*
X123897518Y-100970809D01*
X123847815Y-100806957D01*
X123842998Y-100782737D01*
X123825607Y-100606163D01*
X123825000Y-100593813D01*
X123825000Y-88636187D01*
X123825607Y-88623837D01*
X123842998Y-88447263D01*
X123847815Y-88423043D01*
X123897518Y-88259190D01*
X123906971Y-88236371D01*
X123987681Y-88085372D01*
X124001399Y-88064842D01*
X124110026Y-87932479D01*
X124127479Y-87915026D01*
X124259842Y-87806399D01*
X124280369Y-87792683D01*
X124372583Y-87743393D01*
X124431371Y-87711971D01*
X124454191Y-87702518D01*
X124618043Y-87652815D01*
X124642260Y-87647999D01*
X124818837Y-87630607D01*
X124831187Y-87630000D01*
X125741255Y-87630000D01*
X125809376Y-87650002D01*
X125816820Y-87655174D01*
X125890795Y-87710615D01*
X126027184Y-87761745D01*
X126089366Y-87768500D01*
X127460634Y-87768500D01*
X127522816Y-87761745D01*
X127659205Y-87710615D01*
X127775761Y-87623261D01*
X127863115Y-87506705D01*
X127914245Y-87370316D01*
X127921000Y-87308134D01*
X127921000Y-85422814D01*
X127941002Y-85354693D01*
X127967066Y-85325415D01*
X128048726Y-85258398D01*
X128069264Y-85244675D01*
X128212051Y-85168354D01*
X128234861Y-85158905D01*
X128389805Y-85111903D01*
X128414025Y-85107086D01*
X128472813Y-85101296D01*
X128575154Y-85091216D01*
X128599846Y-85091216D01*
X128702187Y-85101296D01*
G37*
G04 #@! TD.AperFunction*
G04 #@! TA.AperFunction,Conductor*
G36*
X158391163Y-82550607D02*
G01*
X158567740Y-82567999D01*
X158591957Y-82572815D01*
X158755809Y-82622518D01*
X158778629Y-82631971D01*
X158929631Y-82712683D01*
X158950158Y-82726399D01*
X159082521Y-82835026D01*
X159099974Y-82852479D01*
X159208601Y-82984842D01*
X159222319Y-83005372D01*
X159303029Y-83156371D01*
X159312482Y-83179190D01*
X159362185Y-83343043D01*
X159367002Y-83367263D01*
X159384393Y-83543837D01*
X159385000Y-83556187D01*
X159385000Y-84880852D01*
X159364998Y-84948973D01*
X159346289Y-84971717D01*
X159333526Y-84983978D01*
X159307462Y-85013256D01*
X159259018Y-85077075D01*
X159198302Y-85210024D01*
X159178300Y-85278145D01*
X159177660Y-85282594D01*
X159177659Y-85282600D01*
X159158139Y-85418367D01*
X159157500Y-85422814D01*
X159157500Y-85651475D01*
X159151832Y-85688840D01*
X159099240Y-85858212D01*
X159079000Y-86029218D01*
X159079000Y-86675935D01*
X159093362Y-86832237D01*
X159149214Y-87030273D01*
X159149215Y-87030277D01*
X159150533Y-87034949D01*
X159150104Y-87035070D01*
X159157500Y-87074976D01*
X159157500Y-87129000D01*
X159137498Y-87197121D01*
X159083842Y-87243614D01*
X159031500Y-87255000D01*
X157930282Y-87255000D01*
X157858387Y-87232475D01*
X157852372Y-87228296D01*
X157847150Y-87224806D01*
X157841199Y-87220828D01*
X157841195Y-87220826D01*
X157836994Y-87218018D01*
X157832395Y-87215918D01*
X157832392Y-87215916D01*
X157712254Y-87161051D01*
X157704045Y-87157302D01*
X157675359Y-87148879D01*
X157640247Y-87138569D01*
X157640243Y-87138568D01*
X157635924Y-87137300D01*
X157631475Y-87136660D01*
X157631469Y-87136659D01*
X157495702Y-87117139D01*
X157495697Y-87117139D01*
X157491255Y-87116500D01*
X156581187Y-87116500D01*
X156580456Y-87116518D01*
X156580452Y-87116518D01*
X156575218Y-87116647D01*
X156555979Y-87117119D01*
X156555274Y-87117154D01*
X156555237Y-87117155D01*
X156549910Y-87117417D01*
X156543629Y-87117726D01*
X156518503Y-87119580D01*
X156517718Y-87119657D01*
X156517710Y-87119658D01*
X156343489Y-87136818D01*
X156343487Y-87136818D01*
X156341926Y-87136972D01*
X156314042Y-87141108D01*
X156293630Y-87144135D01*
X156293616Y-87144138D01*
X156292102Y-87144362D01*
X156267885Y-87149178D01*
X156266401Y-87149550D01*
X156266395Y-87149551D01*
X156220476Y-87161051D01*
X156220463Y-87161055D01*
X156218984Y-87161425D01*
X156190251Y-87170141D01*
X156056624Y-87210675D01*
X156056609Y-87210680D01*
X156055132Y-87211128D01*
X156053662Y-87211654D01*
X156053656Y-87211656D01*
X156035877Y-87218018D01*
X156007672Y-87228111D01*
X155984852Y-87237564D01*
X155983488Y-87238209D01*
X155983477Y-87238214D01*
X155964493Y-87247193D01*
X155939309Y-87259104D01*
X155937948Y-87259831D01*
X155937935Y-87259838D01*
X155851274Y-87306160D01*
X155788307Y-87339816D01*
X155786976Y-87340614D01*
X155786965Y-87340620D01*
X155760247Y-87356635D01*
X155745079Y-87365726D01*
X155743813Y-87366572D01*
X155743805Y-87366577D01*
X155725842Y-87378580D01*
X155724552Y-87379442D01*
X155684082Y-87409457D01*
X155682899Y-87410428D01*
X155682886Y-87410438D01*
X155599336Y-87479006D01*
X155551719Y-87518084D01*
X155514380Y-87551927D01*
X155496927Y-87569380D01*
X155463084Y-87606719D01*
X155443978Y-87630000D01*
X154940000Y-87630000D01*
X154940000Y-102235000D01*
X149225000Y-102235000D01*
X149225000Y-83556187D01*
X149225607Y-83543837D01*
X149242998Y-83367263D01*
X149247815Y-83343043D01*
X149297518Y-83179190D01*
X149306971Y-83156371D01*
X149387681Y-83005372D01*
X149401399Y-82984842D01*
X149510026Y-82852479D01*
X149527479Y-82835026D01*
X149659842Y-82726399D01*
X149680369Y-82712683D01*
X149831371Y-82631971D01*
X149854191Y-82622518D01*
X150018043Y-82572815D01*
X150042260Y-82567999D01*
X150218837Y-82550607D01*
X150231187Y-82550000D01*
X158378813Y-82550000D01*
X158391163Y-82550607D01*
G37*
G04 #@! TD.AperFunction*
G04 #@! TA.AperFunction,Conductor*
G36*
X108222464Y-69215607D02*
G01*
X108399041Y-69232999D01*
X108423258Y-69237815D01*
X108587110Y-69287518D01*
X108609930Y-69296971D01*
X108760932Y-69377683D01*
X108781459Y-69391399D01*
X108913822Y-69500026D01*
X108931275Y-69517479D01*
X109036548Y-69645755D01*
X109064301Y-69711100D01*
X109058741Y-69765353D01*
X109047203Y-69800139D01*
X109046503Y-69806975D01*
X109046502Y-69806978D01*
X109042690Y-69844190D01*
X109036500Y-69904600D01*
X109036500Y-73605400D01*
X109047474Y-73711166D01*
X109049655Y-73717702D01*
X109049655Y-73717704D01*
X109093728Y-73849806D01*
X109103450Y-73878946D01*
X109196522Y-74029348D01*
X109201704Y-74034521D01*
X109216301Y-74049093D01*
X109216301Y-74295000D01*
X109616631Y-74295000D01*
X109633611Y-74300632D01*
X109633613Y-74300632D01*
X109640139Y-74302797D01*
X109646975Y-74303497D01*
X109646978Y-74303498D01*
X109690031Y-74307909D01*
X109744600Y-74313500D01*
X110930343Y-74313500D01*
X110966917Y-74318925D01*
X111127110Y-74367518D01*
X111149930Y-74376971D01*
X111300932Y-74457683D01*
X111321459Y-74471399D01*
X111453822Y-74580026D01*
X111471275Y-74597479D01*
X111579902Y-74729842D01*
X111593620Y-74750372D01*
X111674330Y-74901371D01*
X111683783Y-74924190D01*
X111733486Y-75088043D01*
X111738303Y-75112263D01*
X111755694Y-75288837D01*
X111756301Y-75301187D01*
X111756301Y-100593813D01*
X111755694Y-100606163D01*
X111738303Y-100782737D01*
X111733486Y-100806957D01*
X111683783Y-100970809D01*
X111674330Y-100993629D01*
X111593620Y-101144628D01*
X111579902Y-101165158D01*
X111471275Y-101297521D01*
X111453822Y-101314974D01*
X111321459Y-101423601D01*
X111300932Y-101437317D01*
X111208718Y-101486607D01*
X111149930Y-101518029D01*
X111127111Y-101527482D01*
X110963258Y-101577185D01*
X110939041Y-101582001D01*
X110762464Y-101599393D01*
X110750114Y-101600000D01*
X103237488Y-101600000D01*
X103225138Y-101599393D01*
X103048561Y-101582001D01*
X103024344Y-101577185D01*
X102860491Y-101527482D01*
X102837672Y-101518029D01*
X102778884Y-101486607D01*
X102686670Y-101437317D01*
X102666143Y-101423601D01*
X102533780Y-101314974D01*
X102516327Y-101297521D01*
X102407700Y-101165158D01*
X102393982Y-101144628D01*
X102313272Y-100993629D01*
X102303819Y-100970809D01*
X102254116Y-100806957D01*
X102249299Y-100782737D01*
X102235607Y-100643719D01*
X102235000Y-100631369D01*
X102235000Y-92996130D01*
X102235607Y-92983780D01*
X102248387Y-92854026D01*
X102253204Y-92829805D01*
X102300206Y-92674861D01*
X102309655Y-92652051D01*
X102385976Y-92509264D01*
X102399699Y-92488726D01*
X102502410Y-92363574D01*
X102519875Y-92346109D01*
X102645027Y-92243398D01*
X102665565Y-92229675D01*
X102808352Y-92153354D01*
X102831162Y-92143905D01*
X102986106Y-92096903D01*
X103010327Y-92092086D01*
X103183802Y-92075000D01*
X104136301Y-92075000D01*
X104136301Y-70221187D01*
X104136908Y-70208837D01*
X104154299Y-70032263D01*
X104159116Y-70008043D01*
X104208819Y-69844190D01*
X104218272Y-69821371D01*
X104298982Y-69670372D01*
X104312700Y-69649842D01*
X104421327Y-69517479D01*
X104438780Y-69500026D01*
X104571143Y-69391399D01*
X104591670Y-69377683D01*
X104742672Y-69296971D01*
X104765492Y-69287518D01*
X104929344Y-69237815D01*
X104953561Y-69232999D01*
X105130138Y-69215607D01*
X105142488Y-69215000D01*
X108210114Y-69215000D01*
X108222464Y-69215607D01*
G37*
G04 #@! TD.AperFunction*
G04 #@! TA.AperFunction,Conductor*
G36*
X177441163Y-102235607D02*
G01*
X177617740Y-102252999D01*
X177641957Y-102257815D01*
X177805809Y-102307518D01*
X177828629Y-102316971D01*
X177979631Y-102397683D01*
X178000158Y-102411399D01*
X178132521Y-102520026D01*
X178149974Y-102537479D01*
X178258601Y-102669842D01*
X178272319Y-102690372D01*
X178353029Y-102841371D01*
X178362482Y-102864190D01*
X178412185Y-103028043D01*
X178417002Y-103052263D01*
X178434393Y-103228837D01*
X178435000Y-103241187D01*
X178435000Y-121966411D01*
X178433272Y-121987207D01*
X178383831Y-122282657D01*
X178369955Y-122600471D01*
X178394914Y-122917607D01*
X178395681Y-122921376D01*
X178432471Y-123102207D01*
X178435000Y-123127327D01*
X178435000Y-129803813D01*
X178434393Y-129816163D01*
X178417002Y-129992737D01*
X178412185Y-130016957D01*
X178362482Y-130180809D01*
X178353029Y-130203629D01*
X178272319Y-130354628D01*
X178258601Y-130375158D01*
X178149974Y-130507521D01*
X178132521Y-130524974D01*
X178000158Y-130633601D01*
X177979631Y-130647317D01*
X177887417Y-130696607D01*
X177828629Y-130728029D01*
X177805810Y-130737482D01*
X177641957Y-130787185D01*
X177617740Y-130792001D01*
X177441163Y-130809393D01*
X177428813Y-130810000D01*
X173091187Y-130810000D01*
X173078837Y-130809393D01*
X172902260Y-130792001D01*
X172878043Y-130787185D01*
X172714190Y-130737482D01*
X172691371Y-130728029D01*
X172632583Y-130696607D01*
X172540369Y-130647317D01*
X172519842Y-130633601D01*
X172387479Y-130524974D01*
X172370026Y-130507521D01*
X172261399Y-130375158D01*
X172247681Y-130354628D01*
X172166971Y-130203629D01*
X172157518Y-130180809D01*
X172107815Y-130016957D01*
X172102998Y-129992737D01*
X172085607Y-129816163D01*
X172085000Y-129803813D01*
X172085000Y-125730000D01*
X171950625Y-125730000D01*
X171912634Y-125621816D01*
X171907042Y-125614246D01*
X171907041Y-125614243D01*
X171837742Y-125520421D01*
X171832150Y-125512850D01*
X171815206Y-125500335D01*
X171730757Y-125437959D01*
X171730754Y-125437958D01*
X171723184Y-125432366D01*
X171595369Y-125387481D01*
X171587723Y-125386758D01*
X171587722Y-125386758D01*
X171564142Y-125384529D01*
X171498206Y-125358204D01*
X171456969Y-125300411D01*
X171450000Y-125259088D01*
X171450000Y-118745000D01*
X165735000Y-118745000D01*
X165735000Y-129803813D01*
X165734393Y-129816163D01*
X165717002Y-129992737D01*
X165712185Y-130016957D01*
X165662482Y-130180809D01*
X165653029Y-130203629D01*
X165572319Y-130354628D01*
X165558601Y-130375158D01*
X165449974Y-130507521D01*
X165432521Y-130524974D01*
X165300158Y-130633601D01*
X165279631Y-130647317D01*
X165187417Y-130696607D01*
X165128629Y-130728029D01*
X165105810Y-130737482D01*
X164941957Y-130787185D01*
X164917740Y-130792001D01*
X164741163Y-130809393D01*
X164728813Y-130810000D01*
X160391187Y-130810000D01*
X160378837Y-130809393D01*
X160202260Y-130792001D01*
X160178043Y-130787185D01*
X160014190Y-130737482D01*
X159991371Y-130728029D01*
X159932583Y-130696607D01*
X159840369Y-130647317D01*
X159819842Y-130633601D01*
X159687479Y-130524974D01*
X159670026Y-130507521D01*
X159561399Y-130375158D01*
X159547681Y-130354628D01*
X159466971Y-130203629D01*
X159457518Y-130180809D01*
X159407815Y-130016957D01*
X159402998Y-129992737D01*
X159385607Y-129816163D01*
X159385000Y-129803813D01*
X159385000Y-125730000D01*
X159250625Y-125730000D01*
X159212634Y-125621816D01*
X159207042Y-125614246D01*
X159207041Y-125614243D01*
X159137742Y-125520421D01*
X159132150Y-125512850D01*
X159115206Y-125500335D01*
X159030757Y-125437959D01*
X159030754Y-125437958D01*
X159023184Y-125432366D01*
X158895369Y-125387481D01*
X158887723Y-125386758D01*
X158887722Y-125386758D01*
X158864142Y-125384529D01*
X158798206Y-125358204D01*
X158756969Y-125300411D01*
X158750000Y-125259088D01*
X158750000Y-118745000D01*
X153035000Y-118745000D01*
X153035000Y-129803813D01*
X153034393Y-129816163D01*
X153017002Y-129992737D01*
X153012185Y-130016957D01*
X152962482Y-130180809D01*
X152953029Y-130203629D01*
X152872319Y-130354628D01*
X152858601Y-130375158D01*
X152749974Y-130507521D01*
X152732521Y-130524974D01*
X152600158Y-130633601D01*
X152579631Y-130647317D01*
X152487417Y-130696607D01*
X152428629Y-130728029D01*
X152405810Y-130737482D01*
X152241957Y-130787185D01*
X152217740Y-130792001D01*
X152041163Y-130809393D01*
X152028813Y-130810000D01*
X147691187Y-130810000D01*
X147678837Y-130809393D01*
X147502260Y-130792001D01*
X147478043Y-130787185D01*
X147314190Y-130737482D01*
X147291371Y-130728029D01*
X147232583Y-130696607D01*
X147140369Y-130647317D01*
X147119842Y-130633601D01*
X146987479Y-130524974D01*
X146970026Y-130507521D01*
X146861399Y-130375158D01*
X146847681Y-130354628D01*
X146766971Y-130203629D01*
X146757518Y-130180809D01*
X146707815Y-130016957D01*
X146702998Y-129992737D01*
X146685607Y-129816163D01*
X146685000Y-129803813D01*
X146685000Y-125730000D01*
X146550625Y-125730000D01*
X146512634Y-125621816D01*
X146507042Y-125614246D01*
X146507041Y-125614243D01*
X146437742Y-125520421D01*
X146432150Y-125512850D01*
X146415206Y-125500335D01*
X146330757Y-125437959D01*
X146330754Y-125437958D01*
X146323184Y-125432366D01*
X146195369Y-125387481D01*
X146187723Y-125386758D01*
X146187722Y-125386758D01*
X146164142Y-125384529D01*
X146098206Y-125358204D01*
X146056969Y-125300411D01*
X146050000Y-125259088D01*
X146050000Y-118745000D01*
X141931980Y-118745000D01*
X141918978Y-118744327D01*
X141733186Y-118725052D01*
X141707740Y-118719715D01*
X141536097Y-118664709D01*
X141512285Y-118654260D01*
X141349893Y-118561953D01*
X141338922Y-118554943D01*
X137583645Y-115872604D01*
X137574244Y-115865191D01*
X137444532Y-115752498D01*
X137428047Y-115735168D01*
X137325692Y-115604740D01*
X137312779Y-115584608D01*
X137236913Y-115437186D01*
X137228037Y-115414977D01*
X137181396Y-115255878D01*
X137176876Y-115232391D01*
X137160569Y-115061350D01*
X137160000Y-115049391D01*
X137160000Y-102235000D01*
X177428813Y-102235000D01*
X177441163Y-102235607D01*
G37*
G04 #@! TD.AperFunction*
G04 #@! TA.AperFunction,Conductor*
G36*
X94887464Y-82550607D02*
G01*
X95064041Y-82567999D01*
X95088258Y-82572815D01*
X95252110Y-82622518D01*
X95274930Y-82631971D01*
X95425932Y-82712683D01*
X95446459Y-82726399D01*
X95578822Y-82835026D01*
X95596275Y-82852479D01*
X95704902Y-82984842D01*
X95718620Y-83005372D01*
X95799330Y-83156371D01*
X95808783Y-83179190D01*
X95858486Y-83343043D01*
X95863303Y-83367263D01*
X95880694Y-83543837D01*
X95881301Y-83556187D01*
X95881301Y-84881369D01*
X95861299Y-84949490D01*
X95842590Y-84972235D01*
X95833526Y-84980942D01*
X95807462Y-85010220D01*
X95759018Y-85074039D01*
X95698302Y-85206988D01*
X95678300Y-85275109D01*
X95677660Y-85279558D01*
X95677659Y-85279564D01*
X95658139Y-85415331D01*
X95657500Y-85419778D01*
X95657500Y-85651475D01*
X95651832Y-85688840D01*
X95599240Y-85858212D01*
X95579000Y-86029218D01*
X95579000Y-86675935D01*
X95593362Y-86832237D01*
X95649214Y-87030273D01*
X95649215Y-87030277D01*
X95650533Y-87034949D01*
X95650104Y-87035070D01*
X95657500Y-87074976D01*
X95657500Y-87129000D01*
X95637498Y-87197121D01*
X95583842Y-87243614D01*
X95531500Y-87255000D01*
X94430282Y-87255000D01*
X94358387Y-87232475D01*
X94352372Y-87228296D01*
X94347150Y-87224806D01*
X94341199Y-87220828D01*
X94341195Y-87220826D01*
X94336994Y-87218018D01*
X94332395Y-87215918D01*
X94332392Y-87215916D01*
X94212254Y-87161051D01*
X94204045Y-87157302D01*
X94175359Y-87148879D01*
X94140247Y-87138569D01*
X94140243Y-87138568D01*
X94135924Y-87137300D01*
X94131475Y-87136660D01*
X94131469Y-87136659D01*
X93995702Y-87117139D01*
X93995697Y-87117139D01*
X93991255Y-87116500D01*
X93077488Y-87116500D01*
X93076757Y-87116518D01*
X93076753Y-87116518D01*
X93071519Y-87116647D01*
X93052280Y-87117119D01*
X93051575Y-87117154D01*
X93051538Y-87117155D01*
X93046211Y-87117417D01*
X93039930Y-87117726D01*
X93014804Y-87119580D01*
X93014019Y-87119657D01*
X93014011Y-87119658D01*
X92839790Y-87136818D01*
X92839788Y-87136818D01*
X92838227Y-87136972D01*
X92810343Y-87141108D01*
X92789931Y-87144135D01*
X92789917Y-87144138D01*
X92788403Y-87144362D01*
X92764186Y-87149178D01*
X92762702Y-87149550D01*
X92762696Y-87149551D01*
X92716777Y-87161051D01*
X92716764Y-87161055D01*
X92715285Y-87161425D01*
X92646051Y-87182427D01*
X92552925Y-87210675D01*
X92552910Y-87210680D01*
X92551433Y-87211128D01*
X92549963Y-87211654D01*
X92549957Y-87211656D01*
X92532178Y-87218018D01*
X92503973Y-87228111D01*
X92481153Y-87237564D01*
X92479789Y-87238209D01*
X92479778Y-87238214D01*
X92460794Y-87247193D01*
X92435610Y-87259104D01*
X92434249Y-87259831D01*
X92434236Y-87259838D01*
X92347575Y-87306160D01*
X92284608Y-87339816D01*
X92283277Y-87340614D01*
X92283266Y-87340620D01*
X92256548Y-87356635D01*
X92241380Y-87365726D01*
X92220853Y-87379442D01*
X92219625Y-87380353D01*
X92219619Y-87380357D01*
X92181622Y-87408538D01*
X92180383Y-87409457D01*
X92179200Y-87410428D01*
X92179187Y-87410438D01*
X92095637Y-87479006D01*
X92048020Y-87518084D01*
X92010681Y-87551927D01*
X91993228Y-87569380D01*
X91959385Y-87606719D01*
X91940279Y-87630000D01*
X91436301Y-87630000D01*
X91436301Y-108585000D01*
X98050114Y-108585000D01*
X98062464Y-108585607D01*
X98239041Y-108602999D01*
X98263258Y-108607815D01*
X98427110Y-108657518D01*
X98449930Y-108666971D01*
X98600932Y-108747683D01*
X98621459Y-108761399D01*
X98753822Y-108870026D01*
X98771275Y-108887479D01*
X98879902Y-109019842D01*
X98893620Y-109040372D01*
X98974330Y-109191371D01*
X98983783Y-109214190D01*
X99033486Y-109378043D01*
X99038303Y-109402263D01*
X99055694Y-109578837D01*
X99056301Y-109591187D01*
X99056301Y-113928813D01*
X99055694Y-113941163D01*
X99038303Y-114117737D01*
X99033486Y-114141957D01*
X98983783Y-114305809D01*
X98974330Y-114328629D01*
X98893620Y-114479628D01*
X98879902Y-114500158D01*
X98771275Y-114632521D01*
X98753822Y-114649974D01*
X98621459Y-114758601D01*
X98600932Y-114772317D01*
X98508718Y-114821607D01*
X98449930Y-114853029D01*
X98427111Y-114862482D01*
X98263258Y-114912185D01*
X98239041Y-114917001D01*
X98062464Y-114934393D01*
X98050114Y-114935000D01*
X86727488Y-114935000D01*
X86715138Y-114934393D01*
X86538561Y-114917001D01*
X86514344Y-114912185D01*
X86350491Y-114862482D01*
X86327672Y-114853029D01*
X86268884Y-114821607D01*
X86176670Y-114772317D01*
X86156143Y-114758601D01*
X86023780Y-114649974D01*
X86006327Y-114632521D01*
X85897700Y-114500158D01*
X85883982Y-114479628D01*
X85803272Y-114328629D01*
X85793819Y-114305809D01*
X85744116Y-114141957D01*
X85739299Y-114117737D01*
X85721908Y-113941163D01*
X85721301Y-113928813D01*
X85721301Y-83556187D01*
X85721908Y-83543837D01*
X85739299Y-83367263D01*
X85744116Y-83343043D01*
X85793819Y-83179190D01*
X85803272Y-83156371D01*
X85883982Y-83005372D01*
X85897700Y-82984842D01*
X86006327Y-82852479D01*
X86023780Y-82835026D01*
X86156143Y-82726399D01*
X86176670Y-82712683D01*
X86327672Y-82631971D01*
X86350492Y-82622518D01*
X86514344Y-82572815D01*
X86538561Y-82567999D01*
X86715138Y-82550607D01*
X86727488Y-82550000D01*
X94875114Y-82550000D01*
X94887464Y-82550607D01*
G37*
G04 #@! TD.AperFunction*
G04 #@! TA.AperFunction,Conductor*
G36*
X137329736Y-116435342D02*
G01*
X140986982Y-119047659D01*
X140987667Y-119048122D01*
X141012182Y-119064693D01*
X141012201Y-119064705D01*
X141012903Y-119065180D01*
X141013616Y-119065636D01*
X141013641Y-119065652D01*
X141023199Y-119071759D01*
X141023874Y-119072190D01*
X141050675Y-119088355D01*
X141213067Y-119180662D01*
X141268979Y-119208726D01*
X141292791Y-119219175D01*
X141351311Y-119241324D01*
X141352848Y-119241817D01*
X141352855Y-119241819D01*
X141395693Y-119255547D01*
X141522954Y-119296330D01*
X141583448Y-119312321D01*
X141592984Y-119314321D01*
X141607300Y-119317324D01*
X141607312Y-119317326D01*
X141608894Y-119317658D01*
X141610488Y-119317907D01*
X141610509Y-119317911D01*
X141669084Y-119327067D01*
X141669093Y-119327068D01*
X141670704Y-119327320D01*
X141672320Y-119327488D01*
X141672338Y-119327490D01*
X141776602Y-119338306D01*
X141856496Y-119346595D01*
X141887678Y-119349017D01*
X141893712Y-119349329D01*
X141899864Y-119349648D01*
X141899882Y-119349649D01*
X141900680Y-119349690D01*
X141931980Y-119350500D01*
X143434210Y-119350500D01*
X143502331Y-119370502D01*
X143548824Y-119424158D01*
X143558928Y-119494432D01*
X143541470Y-119542616D01*
X143462184Y-119671243D01*
X143456037Y-119684424D01*
X143404862Y-119838710D01*
X143401995Y-119852086D01*
X143392328Y-119946438D01*
X143392000Y-119952855D01*
X143392000Y-120231885D01*
X143396475Y-120247124D01*
X143397865Y-120248329D01*
X143405548Y-120250000D01*
X144836500Y-120250000D01*
X144904621Y-120270002D01*
X144951114Y-120323658D01*
X144962500Y-120376000D01*
X144962500Y-122039884D01*
X144966975Y-122055123D01*
X144968365Y-122056328D01*
X144976048Y-122057999D01*
X145022095Y-122057999D01*
X145028614Y-122057662D01*
X145124206Y-122047743D01*
X145137600Y-122044851D01*
X145278624Y-121997802D01*
X145349573Y-121995218D01*
X145410657Y-122031402D01*
X145442482Y-122094866D01*
X145444500Y-122117326D01*
X145444500Y-125259088D01*
X145452931Y-125359782D01*
X145453364Y-125362351D01*
X145453365Y-125362357D01*
X145457394Y-125386243D01*
X145459900Y-125401105D01*
X145489847Y-125512550D01*
X145493197Y-125518848D01*
X145493199Y-125518853D01*
X145511740Y-125553710D01*
X145564077Y-125652104D01*
X145566472Y-125655461D01*
X145566476Y-125655467D01*
X145575351Y-125667905D01*
X145605314Y-125709897D01*
X145622602Y-125732946D01*
X145626092Y-125736348D01*
X145626096Y-125736352D01*
X145719042Y-125826940D01*
X145735799Y-125843272D01*
X145743003Y-125847309D01*
X145743006Y-125847311D01*
X145870101Y-125918530D01*
X145873692Y-125920542D01*
X145877513Y-125922067D01*
X145877516Y-125922069D01*
X145916214Y-125937519D01*
X145939628Y-125946867D01*
X145942097Y-125947463D01*
X146000518Y-125986927D01*
X146017924Y-126014634D01*
X146026247Y-126032750D01*
X146030539Y-126038344D01*
X146030543Y-126038350D01*
X146053463Y-126068220D01*
X146079063Y-126134440D01*
X146079500Y-126144923D01*
X146079500Y-129803813D01*
X146080230Y-129833537D01*
X146080837Y-129845887D01*
X146083023Y-129875512D01*
X146083102Y-129876310D01*
X146083104Y-129876338D01*
X146088430Y-129930408D01*
X146100414Y-130052086D01*
X146109129Y-130110849D01*
X146113946Y-130135069D01*
X146114321Y-130136565D01*
X146127449Y-130188975D01*
X146128387Y-130192721D01*
X146178090Y-130356573D01*
X146178607Y-130358019D01*
X146178615Y-130358042D01*
X146190952Y-130392518D01*
X146198115Y-130412537D01*
X146207568Y-130435357D01*
X146232967Y-130489058D01*
X146233703Y-130490434D01*
X146233703Y-130490435D01*
X146312942Y-130638683D01*
X146312952Y-130638701D01*
X146313677Y-130640057D01*
X146314475Y-130641388D01*
X146314481Y-130641399D01*
X146343433Y-130689704D01*
X146343445Y-130689723D01*
X146344229Y-130691031D01*
X146357947Y-130711561D01*
X146393340Y-130759282D01*
X146501967Y-130891645D01*
X146503009Y-130892794D01*
X146503011Y-130892797D01*
X146525143Y-130917215D01*
X146541873Y-130935674D01*
X146559326Y-130953127D01*
X146603355Y-130993033D01*
X146604543Y-130994008D01*
X146604550Y-130994014D01*
X146734537Y-131100691D01*
X146735718Y-131101660D01*
X146783439Y-131137052D01*
X146784734Y-131137918D01*
X146784735Y-131137918D01*
X146798028Y-131146800D01*
X146803966Y-131150768D01*
X146805304Y-131151570D01*
X146853604Y-131180521D01*
X146853606Y-131180522D01*
X146854936Y-131181319D01*
X146856294Y-131182045D01*
X146856296Y-131182046D01*
X146947150Y-131230609D01*
X146947172Y-131230622D01*
X146974997Y-131245494D01*
X147005946Y-131262036D01*
X147059634Y-131287429D01*
X147061029Y-131288007D01*
X147061036Y-131288010D01*
X147061063Y-131288021D01*
X147082453Y-131296882D01*
X147083873Y-131297390D01*
X147083896Y-131297399D01*
X147136959Y-131316386D01*
X147136970Y-131316389D01*
X147138427Y-131316911D01*
X147302280Y-131366614D01*
X147303759Y-131366985D01*
X147303772Y-131366988D01*
X147358451Y-131380682D01*
X147358457Y-131380683D01*
X147359941Y-131381055D01*
X147384158Y-131385871D01*
X147385696Y-131386099D01*
X147385701Y-131386100D01*
X147396903Y-131387761D01*
X147442908Y-131394585D01*
X147444455Y-131394737D01*
X147444460Y-131394738D01*
X147618711Y-131411901D01*
X147618730Y-131411903D01*
X147619485Y-131411977D01*
X147649113Y-131414163D01*
X147661463Y-131414770D01*
X147691187Y-131415500D01*
X152028813Y-131415500D01*
X152058537Y-131414770D01*
X152070887Y-131414163D01*
X152100515Y-131411977D01*
X152101270Y-131411903D01*
X152101289Y-131411901D01*
X152275540Y-131394738D01*
X152275545Y-131394737D01*
X152277092Y-131394585D01*
X152323097Y-131387761D01*
X152334299Y-131386100D01*
X152334304Y-131386099D01*
X152335842Y-131385871D01*
X152360059Y-131381055D01*
X152361543Y-131380683D01*
X152361549Y-131380682D01*
X152416228Y-131366988D01*
X152416241Y-131366985D01*
X152417720Y-131366614D01*
X152581573Y-131316911D01*
X152583030Y-131316389D01*
X152583041Y-131316386D01*
X152636104Y-131297399D01*
X152636127Y-131297390D01*
X152637547Y-131296882D01*
X152660366Y-131287429D01*
X152714059Y-131262033D01*
X152865061Y-131181321D01*
X152916034Y-131150768D01*
X152921973Y-131146800D01*
X152935265Y-131137918D01*
X152935266Y-131137918D01*
X152936561Y-131137052D01*
X152984282Y-131101660D01*
X152985463Y-131100691D01*
X153115450Y-130994014D01*
X153115457Y-130994008D01*
X153116645Y-130993033D01*
X153160674Y-130953127D01*
X153178127Y-130935674D01*
X153194858Y-130917215D01*
X153216989Y-130892797D01*
X153216991Y-130892794D01*
X153218033Y-130891645D01*
X153326660Y-130759282D01*
X153362053Y-130711561D01*
X153375771Y-130691031D01*
X153376555Y-130689723D01*
X153376567Y-130689704D01*
X153405519Y-130641399D01*
X153405525Y-130641388D01*
X153406323Y-130640057D01*
X153407048Y-130638701D01*
X153407058Y-130638683D01*
X153486297Y-130490435D01*
X153486297Y-130490434D01*
X153487033Y-130489058D01*
X153512432Y-130435357D01*
X153521885Y-130412537D01*
X153529048Y-130392518D01*
X153541385Y-130358042D01*
X153541393Y-130358019D01*
X153541910Y-130356573D01*
X153591613Y-130192721D01*
X153592552Y-130188975D01*
X153605679Y-130136565D01*
X153606054Y-130135069D01*
X153610871Y-130110849D01*
X153619586Y-130052086D01*
X153631571Y-129930408D01*
X153636896Y-129876338D01*
X153636898Y-129876310D01*
X153636977Y-129875512D01*
X153639163Y-129845887D01*
X153639770Y-129833537D01*
X153640500Y-129803813D01*
X153640500Y-121347095D01*
X156092001Y-121347095D01*
X156092338Y-121353614D01*
X156102257Y-121449206D01*
X156105149Y-121462600D01*
X156156588Y-121616784D01*
X156162761Y-121629962D01*
X156248063Y-121767807D01*
X156257099Y-121779208D01*
X156371829Y-121893739D01*
X156383240Y-121902751D01*
X156521243Y-121987816D01*
X156534424Y-121993963D01*
X156688710Y-122045138D01*
X156702086Y-122048005D01*
X156796438Y-122057672D01*
X156802854Y-122058000D01*
X156844385Y-122058000D01*
X156859624Y-122053525D01*
X156860829Y-122052135D01*
X156862500Y-122044452D01*
X156862500Y-121068115D01*
X156858025Y-121052876D01*
X156856635Y-121051671D01*
X156848952Y-121050000D01*
X156110116Y-121050000D01*
X156094877Y-121054475D01*
X156093672Y-121055865D01*
X156092001Y-121063548D01*
X156092001Y-121347095D01*
X153640500Y-121347095D01*
X153640500Y-119476500D01*
X153660502Y-119408379D01*
X153714158Y-119361886D01*
X153766500Y-119350500D01*
X156134210Y-119350500D01*
X156202331Y-119370502D01*
X156248824Y-119424158D01*
X156258928Y-119494432D01*
X156241470Y-119542616D01*
X156162184Y-119671243D01*
X156156037Y-119684424D01*
X156104862Y-119838710D01*
X156101995Y-119852086D01*
X156092328Y-119946438D01*
X156092000Y-119952855D01*
X156092000Y-120231885D01*
X156096475Y-120247124D01*
X156097865Y-120248329D01*
X156105548Y-120250000D01*
X157536500Y-120250000D01*
X157604621Y-120270002D01*
X157651114Y-120323658D01*
X157662500Y-120376000D01*
X157662500Y-122039884D01*
X157666975Y-122055123D01*
X157668365Y-122056328D01*
X157676048Y-122057999D01*
X157722095Y-122057999D01*
X157728614Y-122057662D01*
X157824206Y-122047743D01*
X157837600Y-122044851D01*
X157978624Y-121997802D01*
X158049573Y-121995218D01*
X158110657Y-122031402D01*
X158142482Y-122094866D01*
X158144500Y-122117326D01*
X158144500Y-125259088D01*
X158152931Y-125359782D01*
X158153364Y-125362351D01*
X158153365Y-125362357D01*
X158157394Y-125386243D01*
X158159900Y-125401105D01*
X158189847Y-125512550D01*
X158193197Y-125518848D01*
X158193199Y-125518853D01*
X158211740Y-125553710D01*
X158264077Y-125652104D01*
X158266472Y-125655461D01*
X158266476Y-125655467D01*
X158275351Y-125667905D01*
X158305314Y-125709897D01*
X158322602Y-125732946D01*
X158326092Y-125736348D01*
X158326096Y-125736352D01*
X158419042Y-125826940D01*
X158435799Y-125843272D01*
X158443003Y-125847309D01*
X158443006Y-125847311D01*
X158570101Y-125918530D01*
X158573692Y-125920542D01*
X158577513Y-125922067D01*
X158577516Y-125922069D01*
X158616214Y-125937519D01*
X158639628Y-125946867D01*
X158642097Y-125947463D01*
X158700518Y-125986927D01*
X158717924Y-126014634D01*
X158726247Y-126032750D01*
X158730539Y-126038344D01*
X158730543Y-126038350D01*
X158753463Y-126068220D01*
X158779063Y-126134440D01*
X158779500Y-126144923D01*
X158779500Y-129803813D01*
X158780230Y-129833537D01*
X158780837Y-129845887D01*
X158783023Y-129875512D01*
X158783102Y-129876310D01*
X158783104Y-129876338D01*
X158788430Y-129930408D01*
X158800414Y-130052086D01*
X158809129Y-130110849D01*
X158813946Y-130135069D01*
X158814321Y-130136565D01*
X158827449Y-130188975D01*
X158828387Y-130192721D01*
X158878090Y-130356573D01*
X158878607Y-130358019D01*
X158878615Y-130358042D01*
X158890952Y-130392518D01*
X158898115Y-130412537D01*
X158907568Y-130435357D01*
X158932967Y-130489058D01*
X158933703Y-130490434D01*
X158933703Y-130490435D01*
X159012942Y-130638683D01*
X159012952Y-130638701D01*
X159013677Y-130640057D01*
X159014475Y-130641388D01*
X159014481Y-130641399D01*
X159043433Y-130689704D01*
X159043445Y-130689723D01*
X159044229Y-130691031D01*
X159057947Y-130711561D01*
X159093340Y-130759282D01*
X159201967Y-130891645D01*
X159203009Y-130892794D01*
X159203011Y-130892797D01*
X159225143Y-130917215D01*
X159241873Y-130935674D01*
X159259326Y-130953127D01*
X159303355Y-130993033D01*
X159304543Y-130994008D01*
X159304550Y-130994014D01*
X159434537Y-131100691D01*
X159435718Y-131101660D01*
X159483439Y-131137052D01*
X159484734Y-131137918D01*
X159484735Y-131137918D01*
X159498028Y-131146800D01*
X159503966Y-131150768D01*
X159505304Y-131151570D01*
X159553604Y-131180521D01*
X159553606Y-131180522D01*
X159554936Y-131181319D01*
X159556294Y-131182045D01*
X159556296Y-131182046D01*
X159647150Y-131230609D01*
X159647172Y-131230622D01*
X159674997Y-131245494D01*
X159705946Y-131262036D01*
X159759634Y-131287429D01*
X159761029Y-131288007D01*
X159761036Y-131288010D01*
X159761063Y-131288021D01*
X159782453Y-131296882D01*
X159783873Y-131297390D01*
X159783896Y-131297399D01*
X159836959Y-131316386D01*
X159836970Y-131316389D01*
X159838427Y-131316911D01*
X160002280Y-131366614D01*
X160003759Y-131366985D01*
X160003772Y-131366988D01*
X160058451Y-131380682D01*
X160058457Y-131380683D01*
X160059941Y-131381055D01*
X160084158Y-131385871D01*
X160085696Y-131386099D01*
X160085701Y-131386100D01*
X160096903Y-131387761D01*
X160142908Y-131394585D01*
X160144455Y-131394737D01*
X160144460Y-131394738D01*
X160318711Y-131411901D01*
X160318730Y-131411903D01*
X160319485Y-131411977D01*
X160349113Y-131414163D01*
X160361463Y-131414770D01*
X160391187Y-131415500D01*
X164728813Y-131415500D01*
X164758537Y-131414770D01*
X164770887Y-131414163D01*
X164800515Y-131411977D01*
X164801270Y-131411903D01*
X164801289Y-131411901D01*
X164975540Y-131394738D01*
X164975545Y-131394737D01*
X164977092Y-131394585D01*
X165023097Y-131387761D01*
X165034299Y-131386100D01*
X165034304Y-131386099D01*
X165035842Y-131385871D01*
X165060059Y-131381055D01*
X165061543Y-131380683D01*
X165061549Y-131380682D01*
X165116228Y-131366988D01*
X165116241Y-131366985D01*
X165117720Y-131366614D01*
X165281573Y-131316911D01*
X165283030Y-131316389D01*
X165283041Y-131316386D01*
X165336104Y-131297399D01*
X165336127Y-131297390D01*
X165337547Y-131296882D01*
X165360366Y-131287429D01*
X165414059Y-131262033D01*
X165565061Y-131181321D01*
X165616034Y-131150768D01*
X165621973Y-131146800D01*
X165635265Y-131137918D01*
X165635266Y-131137918D01*
X165636561Y-131137052D01*
X165684282Y-131101660D01*
X165685463Y-131100691D01*
X165815450Y-130994014D01*
X165815457Y-130994008D01*
X165816645Y-130993033D01*
X165860674Y-130953127D01*
X165878127Y-130935674D01*
X165894858Y-130917215D01*
X165916989Y-130892797D01*
X165916991Y-130892794D01*
X165918033Y-130891645D01*
X166026660Y-130759282D01*
X166062053Y-130711561D01*
X166075771Y-130691031D01*
X166076555Y-130689723D01*
X166076567Y-130689704D01*
X166105519Y-130641399D01*
X166105525Y-130641388D01*
X166106323Y-130640057D01*
X166107048Y-130638701D01*
X166107058Y-130638683D01*
X166186297Y-130490435D01*
X166186297Y-130490434D01*
X166187033Y-130489058D01*
X166212432Y-130435357D01*
X166221885Y-130412537D01*
X166229048Y-130392518D01*
X166241385Y-130358042D01*
X166241393Y-130358019D01*
X166241910Y-130356573D01*
X166291613Y-130192721D01*
X166292552Y-130188975D01*
X166305679Y-130136565D01*
X166306054Y-130135069D01*
X166310871Y-130110849D01*
X166319586Y-130052086D01*
X166331571Y-129930408D01*
X166336896Y-129876338D01*
X166336898Y-129876310D01*
X166336977Y-129875512D01*
X166339163Y-129845887D01*
X166339770Y-129833537D01*
X166340500Y-129803813D01*
X166340500Y-121347095D01*
X168792001Y-121347095D01*
X168792338Y-121353614D01*
X168802257Y-121449206D01*
X168805149Y-121462600D01*
X168856588Y-121616784D01*
X168862761Y-121629962D01*
X168948063Y-121767807D01*
X168957099Y-121779208D01*
X169071829Y-121893739D01*
X169083240Y-121902751D01*
X169221243Y-121987816D01*
X169234424Y-121993963D01*
X169388710Y-122045138D01*
X169402086Y-122048005D01*
X169496438Y-122057672D01*
X169502854Y-122058000D01*
X169544385Y-122058000D01*
X169559624Y-122053525D01*
X169560829Y-122052135D01*
X169562500Y-122044452D01*
X169562500Y-121068115D01*
X169558025Y-121052876D01*
X169556635Y-121051671D01*
X169548952Y-121050000D01*
X168810116Y-121050000D01*
X168794877Y-121054475D01*
X168793672Y-121055865D01*
X168792001Y-121063548D01*
X168792001Y-121347095D01*
X166340500Y-121347095D01*
X166340500Y-119476500D01*
X166360502Y-119408379D01*
X166414158Y-119361886D01*
X166466500Y-119350500D01*
X168834210Y-119350500D01*
X168902331Y-119370502D01*
X168948824Y-119424158D01*
X168958928Y-119494432D01*
X168941470Y-119542616D01*
X168862184Y-119671243D01*
X168856037Y-119684424D01*
X168804862Y-119838710D01*
X168801995Y-119852086D01*
X168792328Y-119946438D01*
X168792000Y-119952855D01*
X168792000Y-120231885D01*
X168796475Y-120247124D01*
X168797865Y-120248329D01*
X168805548Y-120250000D01*
X170236500Y-120250000D01*
X170304621Y-120270002D01*
X170351114Y-120323658D01*
X170362500Y-120376000D01*
X170362500Y-122039884D01*
X170366975Y-122055123D01*
X170368365Y-122056328D01*
X170376048Y-122057999D01*
X170422095Y-122057999D01*
X170428614Y-122057662D01*
X170524206Y-122047743D01*
X170537600Y-122044851D01*
X170678624Y-121997802D01*
X170749573Y-121995218D01*
X170810657Y-122031402D01*
X170842482Y-122094866D01*
X170844500Y-122117326D01*
X170844500Y-125259088D01*
X170852931Y-125359782D01*
X170853364Y-125362351D01*
X170853365Y-125362357D01*
X170857394Y-125386243D01*
X170859900Y-125401105D01*
X170889847Y-125512550D01*
X170893197Y-125518848D01*
X170893199Y-125518853D01*
X170911740Y-125553710D01*
X170964077Y-125652104D01*
X170966472Y-125655461D01*
X170966476Y-125655467D01*
X170975351Y-125667905D01*
X171005314Y-125709897D01*
X171022602Y-125732946D01*
X171026092Y-125736348D01*
X171026096Y-125736352D01*
X171119042Y-125826940D01*
X171135799Y-125843272D01*
X171143003Y-125847309D01*
X171143006Y-125847311D01*
X171270101Y-125918530D01*
X171273692Y-125920542D01*
X171277513Y-125922067D01*
X171277516Y-125922069D01*
X171316214Y-125937519D01*
X171339628Y-125946867D01*
X171342097Y-125947463D01*
X171400518Y-125986927D01*
X171417924Y-126014634D01*
X171426247Y-126032750D01*
X171430539Y-126038344D01*
X171430543Y-126038350D01*
X171453463Y-126068220D01*
X171479063Y-126134440D01*
X171479500Y-126144923D01*
X171479500Y-129803813D01*
X171480230Y-129833537D01*
X171480837Y-129845887D01*
X171483023Y-129875512D01*
X171483102Y-129876310D01*
X171483104Y-129876338D01*
X171488430Y-129930408D01*
X171500414Y-130052086D01*
X171509129Y-130110849D01*
X171513946Y-130135069D01*
X171514321Y-130136565D01*
X171527449Y-130188975D01*
X171528387Y-130192721D01*
X171578090Y-130356573D01*
X171578607Y-130358019D01*
X171578615Y-130358042D01*
X171590952Y-130392518D01*
X171598115Y-130412537D01*
X171607568Y-130435357D01*
X171632967Y-130489058D01*
X171633703Y-130490434D01*
X171633703Y-130490435D01*
X171712942Y-130638683D01*
X171712952Y-130638701D01*
X171713677Y-130640057D01*
X171714475Y-130641388D01*
X171714481Y-130641399D01*
X171743433Y-130689704D01*
X171743445Y-130689723D01*
X171744229Y-130691031D01*
X171757947Y-130711561D01*
X171793340Y-130759282D01*
X171901967Y-130891645D01*
X171903009Y-130892794D01*
X171903011Y-130892797D01*
X171925143Y-130917215D01*
X171941873Y-130935674D01*
X171959326Y-130953127D01*
X172003355Y-130993033D01*
X172004560Y-130994022D01*
X172004574Y-130994034D01*
X172038933Y-131022232D01*
X172078902Y-131080909D01*
X172085000Y-131119631D01*
X172085000Y-131988500D01*
X172064998Y-132056621D01*
X172011342Y-132103114D01*
X171959000Y-132114500D01*
X137232306Y-132114500D01*
X137164185Y-132094498D01*
X137117692Y-132040842D01*
X137107669Y-131970020D01*
X137109357Y-131958636D01*
X137109361Y-131958601D01*
X137109586Y-131957086D01*
X137119675Y-131854656D01*
X137126896Y-131781338D01*
X137126898Y-131781310D01*
X137126977Y-131780512D01*
X137129163Y-131750887D01*
X137129770Y-131738537D01*
X137130500Y-131708813D01*
X137130500Y-127062095D01*
X137552001Y-127062095D01*
X137552338Y-127068614D01*
X137562257Y-127164206D01*
X137565149Y-127177600D01*
X137616588Y-127331784D01*
X137622761Y-127344962D01*
X137708063Y-127482807D01*
X137717099Y-127494208D01*
X137831829Y-127608739D01*
X137843240Y-127617751D01*
X137981243Y-127702816D01*
X137994424Y-127708963D01*
X138148710Y-127760138D01*
X138162086Y-127763005D01*
X138256438Y-127772672D01*
X138262854Y-127773000D01*
X138304385Y-127773000D01*
X138319624Y-127768525D01*
X138320829Y-127767135D01*
X138322500Y-127759452D01*
X138322500Y-127754884D01*
X139122500Y-127754884D01*
X139126975Y-127770123D01*
X139128365Y-127771328D01*
X139136048Y-127772999D01*
X139182095Y-127772999D01*
X139188614Y-127772662D01*
X139284206Y-127762743D01*
X139297600Y-127759851D01*
X139451784Y-127708412D01*
X139464962Y-127702239D01*
X139602807Y-127616937D01*
X139614208Y-127607901D01*
X139728739Y-127493171D01*
X139737751Y-127481760D01*
X139822816Y-127343757D01*
X139828963Y-127330576D01*
X139880138Y-127176290D01*
X139883005Y-127162914D01*
X139892672Y-127068562D01*
X139893000Y-127062146D01*
X139893000Y-126783115D01*
X139888525Y-126767876D01*
X139887135Y-126766671D01*
X139879452Y-126765000D01*
X139140615Y-126765000D01*
X139125376Y-126769475D01*
X139124171Y-126770865D01*
X139122500Y-126778548D01*
X139122500Y-127754884D01*
X138322500Y-127754884D01*
X138322500Y-126783115D01*
X138318025Y-126767876D01*
X138316635Y-126766671D01*
X138308952Y-126765000D01*
X137570116Y-126765000D01*
X137554877Y-126769475D01*
X137553672Y-126770865D01*
X137552001Y-126778548D01*
X137552001Y-127062095D01*
X137130500Y-127062095D01*
X137130500Y-125946885D01*
X137552000Y-125946885D01*
X137556475Y-125962124D01*
X137557865Y-125963329D01*
X137565548Y-125965000D01*
X138304385Y-125965000D01*
X138319624Y-125960525D01*
X138320829Y-125959135D01*
X138322500Y-125951452D01*
X138322500Y-125946885D01*
X139122500Y-125946885D01*
X139126975Y-125962124D01*
X139128365Y-125963329D01*
X139136048Y-125965000D01*
X139874884Y-125965000D01*
X139890123Y-125960525D01*
X139891328Y-125959135D01*
X139892999Y-125951452D01*
X139892999Y-125667905D01*
X139892662Y-125661386D01*
X139882743Y-125565794D01*
X139879851Y-125552400D01*
X139828412Y-125398216D01*
X139822239Y-125385038D01*
X139736937Y-125247193D01*
X139727901Y-125235792D01*
X139613171Y-125121261D01*
X139601760Y-125112249D01*
X139463757Y-125027184D01*
X139450576Y-125021037D01*
X139296290Y-124969862D01*
X139282914Y-124966995D01*
X139188562Y-124957328D01*
X139182145Y-124957000D01*
X139140615Y-124957000D01*
X139125376Y-124961475D01*
X139124171Y-124962865D01*
X139122500Y-124970548D01*
X139122500Y-125946885D01*
X138322500Y-125946885D01*
X138322500Y-124975116D01*
X138318025Y-124959877D01*
X138316635Y-124958672D01*
X138308952Y-124957001D01*
X138262905Y-124957001D01*
X138256386Y-124957338D01*
X138160794Y-124967257D01*
X138147400Y-124970149D01*
X137993216Y-125021588D01*
X137980038Y-125027761D01*
X137842193Y-125113063D01*
X137830792Y-125122099D01*
X137716261Y-125236829D01*
X137707249Y-125248240D01*
X137622184Y-125386243D01*
X137616037Y-125399424D01*
X137564862Y-125553710D01*
X137561995Y-125567086D01*
X137552328Y-125661438D01*
X137552000Y-125667855D01*
X137552000Y-125946885D01*
X137130500Y-125946885D01*
X137130500Y-121656187D01*
X137129770Y-121626463D01*
X137129163Y-121614113D01*
X137126977Y-121584488D01*
X137126896Y-121583662D01*
X137109738Y-121409453D01*
X137109736Y-121409436D01*
X137109586Y-121407914D01*
X137109361Y-121406396D01*
X137101098Y-121350679D01*
X137101095Y-121350664D01*
X137100871Y-121349151D01*
X137100462Y-121347095D01*
X143392001Y-121347095D01*
X143392338Y-121353614D01*
X143402257Y-121449206D01*
X143405149Y-121462600D01*
X143456588Y-121616784D01*
X143462761Y-121629962D01*
X143548063Y-121767807D01*
X143557099Y-121779208D01*
X143671829Y-121893739D01*
X143683240Y-121902751D01*
X143821243Y-121987816D01*
X143834424Y-121993963D01*
X143988710Y-122045138D01*
X144002086Y-122048005D01*
X144096438Y-122057672D01*
X144102854Y-122058000D01*
X144144385Y-122058000D01*
X144159624Y-122053525D01*
X144160829Y-122052135D01*
X144162500Y-122044452D01*
X144162500Y-121068115D01*
X144158025Y-121052876D01*
X144156635Y-121051671D01*
X144148952Y-121050000D01*
X143410116Y-121050000D01*
X143394877Y-121054475D01*
X143393672Y-121055865D01*
X143392001Y-121063548D01*
X143392001Y-121347095D01*
X137100462Y-121347095D01*
X137096054Y-121324931D01*
X137081614Y-121267280D01*
X137031911Y-121103427D01*
X137028900Y-121095011D01*
X137012399Y-121048896D01*
X137012390Y-121048873D01*
X137011882Y-121047453D01*
X137002429Y-121024634D01*
X136977033Y-120970942D01*
X136911709Y-120848728D01*
X136897058Y-120821317D01*
X136897048Y-120821299D01*
X136896323Y-120819943D01*
X136869655Y-120775449D01*
X136866567Y-120770296D01*
X136866555Y-120770277D01*
X136865771Y-120768969D01*
X136852053Y-120748439D01*
X136816660Y-120700718D01*
X136767293Y-120640563D01*
X136738984Y-120569198D01*
X136737978Y-120554441D01*
X136737600Y-120548893D01*
X136717174Y-120466967D01*
X136694546Y-120376214D01*
X136692895Y-120369592D01*
X136648916Y-120280997D01*
X136636542Y-120211087D01*
X136668416Y-120140355D01*
X136685549Y-120121452D01*
X136708033Y-120096645D01*
X136712251Y-120091506D01*
X136815677Y-119965480D01*
X136815680Y-119965476D01*
X136816660Y-119964282D01*
X136852053Y-119916561D01*
X136865771Y-119896031D01*
X136866555Y-119894723D01*
X136866567Y-119894704D01*
X136895519Y-119846399D01*
X136895534Y-119846373D01*
X136896323Y-119845057D01*
X136897048Y-119843701D01*
X136897058Y-119843683D01*
X136976297Y-119695435D01*
X136976297Y-119695434D01*
X136977033Y-119694058D01*
X137002432Y-119640357D01*
X137011885Y-119617537D01*
X137019048Y-119597518D01*
X137031385Y-119563042D01*
X137031393Y-119563019D01*
X137031910Y-119561573D01*
X137081613Y-119397721D01*
X137096054Y-119340069D01*
X137100871Y-119315849D01*
X137101345Y-119312657D01*
X137109361Y-119258604D01*
X137109362Y-119258599D01*
X137109586Y-119257086D01*
X137111139Y-119241324D01*
X137126896Y-119081338D01*
X137126898Y-119081310D01*
X137126977Y-119080512D01*
X137129163Y-119050887D01*
X137129770Y-119038537D01*
X137130500Y-119008813D01*
X137130500Y-116537872D01*
X137150502Y-116469751D01*
X137204158Y-116423258D01*
X137274432Y-116413154D01*
X137329736Y-116435342D01*
G37*
G04 #@! TD.AperFunction*
G04 #@! TA.AperFunction,Conductor*
G36*
X99034894Y-115303163D02*
G01*
X99079690Y-115358243D01*
X99089500Y-115406985D01*
X99089500Y-119008813D01*
X99090230Y-119038537D01*
X99090837Y-119050887D01*
X99093023Y-119080512D01*
X99093102Y-119081310D01*
X99093104Y-119081338D01*
X99108862Y-119241324D01*
X99110414Y-119257086D01*
X99110638Y-119258599D01*
X99110639Y-119258604D01*
X99118656Y-119312657D01*
X99119129Y-119315849D01*
X99123946Y-119340069D01*
X99138387Y-119397721D01*
X99188090Y-119561573D01*
X99188607Y-119563019D01*
X99188615Y-119563042D01*
X99200952Y-119597518D01*
X99208115Y-119617537D01*
X99217568Y-119640357D01*
X99242967Y-119694058D01*
X99243703Y-119695434D01*
X99243703Y-119695435D01*
X99322942Y-119843683D01*
X99322952Y-119843701D01*
X99323677Y-119845057D01*
X99324466Y-119846373D01*
X99324481Y-119846399D01*
X99353433Y-119894704D01*
X99353445Y-119894723D01*
X99354229Y-119896031D01*
X99367947Y-119916561D01*
X99403340Y-119964282D01*
X99404320Y-119965476D01*
X99404323Y-119965480D01*
X99507750Y-120091506D01*
X99511967Y-120096645D01*
X99513009Y-120097794D01*
X99513011Y-120097797D01*
X99535501Y-120122610D01*
X99551873Y-120140674D01*
X99569326Y-120158127D01*
X99613355Y-120198033D01*
X99614530Y-120198997D01*
X99614554Y-120199018D01*
X99658522Y-120235101D01*
X99698491Y-120293778D01*
X99700391Y-120364749D01*
X99658522Y-120429899D01*
X99614554Y-120465982D01*
X99614530Y-120466003D01*
X99613355Y-120466967D01*
X99569326Y-120506873D01*
X99551873Y-120524326D01*
X99550839Y-120525467D01*
X99550836Y-120525470D01*
X99520341Y-120559116D01*
X99511967Y-120568355D01*
X99510992Y-120569543D01*
X99510986Y-120569550D01*
X99479500Y-120607916D01*
X99403340Y-120700718D01*
X99367947Y-120748439D01*
X99354229Y-120768969D01*
X99353445Y-120770277D01*
X99353433Y-120770296D01*
X99350345Y-120775449D01*
X99323677Y-120819943D01*
X99322952Y-120821299D01*
X99322942Y-120821317D01*
X99308291Y-120848728D01*
X99242967Y-120970942D01*
X99217571Y-121024634D01*
X99208118Y-121047453D01*
X99207610Y-121048873D01*
X99207601Y-121048896D01*
X99191100Y-121095011D01*
X99188089Y-121103427D01*
X99138386Y-121267280D01*
X99123946Y-121324931D01*
X99119129Y-121349151D01*
X99118905Y-121350664D01*
X99118902Y-121350679D01*
X99110639Y-121406396D01*
X99110414Y-121407914D01*
X99110264Y-121409436D01*
X99110262Y-121409453D01*
X99093104Y-121583662D01*
X99093023Y-121584488D01*
X99090837Y-121614113D01*
X99090230Y-121626463D01*
X99089500Y-121656187D01*
X99089500Y-131708813D01*
X99090230Y-131738537D01*
X99090837Y-131750887D01*
X99093023Y-131780512D01*
X99093102Y-131781310D01*
X99093104Y-131781338D01*
X99100326Y-131854656D01*
X99110414Y-131957086D01*
X99110639Y-131958601D01*
X99110643Y-131958636D01*
X99112331Y-131970020D01*
X99102537Y-132040338D01*
X99056280Y-132094197D01*
X98987694Y-132114500D01*
X87677619Y-132114500D01*
X87661173Y-132113422D01*
X87638188Y-132110396D01*
X87630000Y-132109318D01*
X87621813Y-132110396D01*
X87621812Y-132110396D01*
X87616025Y-132111158D01*
X87591336Y-132111966D01*
X87385086Y-132098447D01*
X87368746Y-132096296D01*
X87252432Y-132073160D01*
X87136115Y-132050023D01*
X87120205Y-132045760D01*
X86895604Y-131969518D01*
X86880380Y-131963212D01*
X86667658Y-131858309D01*
X86653384Y-131850068D01*
X86456172Y-131718296D01*
X86443097Y-131708263D01*
X86442888Y-131708080D01*
X86264768Y-131551873D01*
X86253127Y-131540232D01*
X86096737Y-131361903D01*
X86086704Y-131348828D01*
X85954932Y-131151616D01*
X85946691Y-131137342D01*
X85841788Y-130924620D01*
X85835481Y-130909394D01*
X85829050Y-130890450D01*
X85759240Y-130684795D01*
X85754976Y-130668882D01*
X85749510Y-130641399D01*
X85719207Y-130489058D01*
X85708704Y-130436254D01*
X85706553Y-130419914D01*
X85693034Y-130213664D01*
X85693842Y-130188975D01*
X85694604Y-130183188D01*
X85694604Y-130183187D01*
X85695682Y-130175000D01*
X85691578Y-130143827D01*
X85690500Y-130127381D01*
X85690500Y-127062095D01*
X96327001Y-127062095D01*
X96327338Y-127068614D01*
X96337257Y-127164206D01*
X96340149Y-127177600D01*
X96391588Y-127331784D01*
X96397761Y-127344962D01*
X96483063Y-127482807D01*
X96492099Y-127494208D01*
X96606829Y-127608739D01*
X96618240Y-127617751D01*
X96756243Y-127702816D01*
X96769424Y-127708963D01*
X96923710Y-127760138D01*
X96937086Y-127763005D01*
X97031438Y-127772672D01*
X97037854Y-127773000D01*
X97079385Y-127773000D01*
X97094624Y-127768525D01*
X97095829Y-127767135D01*
X97097500Y-127759452D01*
X97097500Y-127754884D01*
X97897500Y-127754884D01*
X97901975Y-127770123D01*
X97903365Y-127771328D01*
X97911048Y-127772999D01*
X97957095Y-127772999D01*
X97963614Y-127772662D01*
X98059206Y-127762743D01*
X98072600Y-127759851D01*
X98226784Y-127708412D01*
X98239962Y-127702239D01*
X98377807Y-127616937D01*
X98389208Y-127607901D01*
X98503739Y-127493171D01*
X98512751Y-127481760D01*
X98597816Y-127343757D01*
X98603963Y-127330576D01*
X98655138Y-127176290D01*
X98658005Y-127162914D01*
X98667672Y-127068562D01*
X98668000Y-127062146D01*
X98668000Y-126783115D01*
X98663525Y-126767876D01*
X98662135Y-126766671D01*
X98654452Y-126765000D01*
X97915615Y-126765000D01*
X97900376Y-126769475D01*
X97899171Y-126770865D01*
X97897500Y-126778548D01*
X97897500Y-127754884D01*
X97097500Y-127754884D01*
X97097500Y-126783115D01*
X97093025Y-126767876D01*
X97091635Y-126766671D01*
X97083952Y-126765000D01*
X96345116Y-126765000D01*
X96329877Y-126769475D01*
X96328672Y-126770865D01*
X96327001Y-126778548D01*
X96327001Y-127062095D01*
X85690500Y-127062095D01*
X85690500Y-125946885D01*
X96327000Y-125946885D01*
X96331475Y-125962124D01*
X96332865Y-125963329D01*
X96340548Y-125965000D01*
X97079385Y-125965000D01*
X97094624Y-125960525D01*
X97095829Y-125959135D01*
X97097500Y-125951452D01*
X97097500Y-125946885D01*
X97897500Y-125946885D01*
X97901975Y-125962124D01*
X97903365Y-125963329D01*
X97911048Y-125965000D01*
X98649884Y-125965000D01*
X98665123Y-125960525D01*
X98666328Y-125959135D01*
X98667999Y-125951452D01*
X98667999Y-125667905D01*
X98667662Y-125661386D01*
X98657743Y-125565794D01*
X98654851Y-125552400D01*
X98603412Y-125398216D01*
X98597239Y-125385038D01*
X98511937Y-125247193D01*
X98502901Y-125235792D01*
X98388171Y-125121261D01*
X98376760Y-125112249D01*
X98238757Y-125027184D01*
X98225576Y-125021037D01*
X98071290Y-124969862D01*
X98057914Y-124966995D01*
X97963562Y-124957328D01*
X97957145Y-124957000D01*
X97915615Y-124957000D01*
X97900376Y-124961475D01*
X97899171Y-124962865D01*
X97897500Y-124970548D01*
X97897500Y-125946885D01*
X97097500Y-125946885D01*
X97097500Y-124975116D01*
X97093025Y-124959877D01*
X97091635Y-124958672D01*
X97083952Y-124957001D01*
X97037905Y-124957001D01*
X97031386Y-124957338D01*
X96935794Y-124967257D01*
X96922400Y-124970149D01*
X96768216Y-125021588D01*
X96755038Y-125027761D01*
X96617193Y-125113063D01*
X96605792Y-125122099D01*
X96491261Y-125236829D01*
X96482249Y-125248240D01*
X96397184Y-125386243D01*
X96391037Y-125399424D01*
X96339862Y-125553710D01*
X96336995Y-125567086D01*
X96327328Y-125661438D01*
X96327000Y-125667855D01*
X96327000Y-125946885D01*
X85690500Y-125946885D01*
X85690500Y-122600471D01*
X86929955Y-122600471D01*
X86954914Y-122917607D01*
X87018336Y-123229338D01*
X87119276Y-123531016D01*
X87256229Y-123818143D01*
X87427153Y-124086440D01*
X87629500Y-124331907D01*
X87860254Y-124550884D01*
X88115975Y-124740108D01*
X88254412Y-124818432D01*
X88389492Y-124894857D01*
X88389496Y-124894859D01*
X88392849Y-124896756D01*
X88686751Y-125018494D01*
X88720167Y-125027761D01*
X88989582Y-125102477D01*
X88989590Y-125102479D01*
X88993298Y-125103507D01*
X89307921Y-125150528D01*
X89311219Y-125150672D01*
X89420427Y-125155440D01*
X89420432Y-125155440D01*
X89421804Y-125155500D01*
X89615799Y-125155500D01*
X89852524Y-125141021D01*
X89856307Y-125140320D01*
X89856314Y-125140319D01*
X90054931Y-125103507D01*
X90165313Y-125083049D01*
X90374732Y-125017020D01*
X90465035Y-124988548D01*
X90465038Y-124988547D01*
X90468707Y-124987390D01*
X90472204Y-124985796D01*
X90472210Y-124985794D01*
X90754673Y-124857068D01*
X90754677Y-124857066D01*
X90758181Y-124855469D01*
X90943334Y-124742007D01*
X91026142Y-124691262D01*
X91026145Y-124691260D01*
X91029420Y-124689253D01*
X91032424Y-124686863D01*
X91032429Y-124686860D01*
X91275370Y-124493616D01*
X91278381Y-124491221D01*
X91501352Y-124264324D01*
X91635572Y-124089405D01*
X91692674Y-124014989D01*
X91692679Y-124014981D01*
X91695009Y-124011945D01*
X91807257Y-123821386D01*
X91854513Y-123741162D01*
X91854515Y-123741159D01*
X91856466Y-123737846D01*
X91983315Y-123446114D01*
X92073665Y-123141097D01*
X92126169Y-122827343D01*
X92140045Y-122509529D01*
X92115086Y-122192393D01*
X92051664Y-121880662D01*
X91950724Y-121578984D01*
X91895212Y-121462600D01*
X91815424Y-121295322D01*
X91815422Y-121295318D01*
X91813771Y-121291857D01*
X91642847Y-121023560D01*
X91440500Y-120778093D01*
X91209746Y-120559116D01*
X90954025Y-120369892D01*
X90753680Y-120256542D01*
X90680508Y-120215143D01*
X90680504Y-120215141D01*
X90677151Y-120213244D01*
X90642807Y-120199018D01*
X90462194Y-120124206D01*
X90383249Y-120091506D01*
X90213751Y-120044500D01*
X90080418Y-120007523D01*
X90080410Y-120007521D01*
X90076702Y-120006493D01*
X89762079Y-119959472D01*
X89758781Y-119959328D01*
X89649573Y-119954560D01*
X89649568Y-119954560D01*
X89648196Y-119954500D01*
X89454201Y-119954500D01*
X89217476Y-119968979D01*
X89213693Y-119969680D01*
X89213686Y-119969681D01*
X89061082Y-119997965D01*
X88904687Y-120026951D01*
X88724997Y-120083606D01*
X88604965Y-120121452D01*
X88604962Y-120121453D01*
X88601293Y-120122610D01*
X88597796Y-120124204D01*
X88597790Y-120124206D01*
X88315327Y-120252932D01*
X88315323Y-120252934D01*
X88311819Y-120254531D01*
X88308540Y-120256541D01*
X88308537Y-120256542D01*
X88119826Y-120372185D01*
X88040580Y-120420747D01*
X88037576Y-120423137D01*
X88037571Y-120423140D01*
X87856459Y-120567203D01*
X87791619Y-120618779D01*
X87788927Y-120621518D01*
X87788923Y-120621522D01*
X87678058Y-120734340D01*
X87568648Y-120845676D01*
X87566307Y-120848727D01*
X87566306Y-120848728D01*
X87377326Y-121095011D01*
X87377321Y-121095019D01*
X87374991Y-121098055D01*
X87371827Y-121103427D01*
X87241351Y-121324931D01*
X87213534Y-121372154D01*
X87086685Y-121663886D01*
X86996335Y-121968903D01*
X86943831Y-122282657D01*
X86929955Y-122600471D01*
X85690500Y-122600471D01*
X85690500Y-115408423D01*
X85710502Y-115340302D01*
X85764158Y-115293809D01*
X85834432Y-115283705D01*
X85881276Y-115300348D01*
X85891237Y-115306319D01*
X85892595Y-115307045D01*
X85892597Y-115307046D01*
X85983451Y-115355609D01*
X85983473Y-115355622D01*
X86011298Y-115370494D01*
X86042247Y-115387036D01*
X86095935Y-115412429D01*
X86097330Y-115413007D01*
X86097337Y-115413010D01*
X86097364Y-115413021D01*
X86118754Y-115421882D01*
X86120174Y-115422390D01*
X86120197Y-115422399D01*
X86173260Y-115441386D01*
X86173271Y-115441389D01*
X86174728Y-115441911D01*
X86338581Y-115491614D01*
X86340060Y-115491985D01*
X86340073Y-115491988D01*
X86394752Y-115505682D01*
X86394758Y-115505683D01*
X86396242Y-115506055D01*
X86420459Y-115510871D01*
X86421997Y-115511099D01*
X86422002Y-115511100D01*
X86433204Y-115512761D01*
X86479209Y-115519585D01*
X86480756Y-115519737D01*
X86480761Y-115519738D01*
X86655012Y-115536901D01*
X86655031Y-115536903D01*
X86655786Y-115536977D01*
X86685414Y-115539163D01*
X86697764Y-115539770D01*
X86727488Y-115540500D01*
X98050114Y-115540500D01*
X98079838Y-115539770D01*
X98092188Y-115539163D01*
X98121816Y-115536977D01*
X98122571Y-115536903D01*
X98122590Y-115536901D01*
X98296841Y-115519738D01*
X98296846Y-115519737D01*
X98298393Y-115519585D01*
X98344398Y-115512761D01*
X98355600Y-115511100D01*
X98355605Y-115511099D01*
X98357143Y-115510871D01*
X98381360Y-115506055D01*
X98382844Y-115505683D01*
X98382850Y-115505682D01*
X98437529Y-115491988D01*
X98437542Y-115491985D01*
X98439021Y-115491614D01*
X98602874Y-115441911D01*
X98604331Y-115441389D01*
X98604342Y-115441386D01*
X98657405Y-115422399D01*
X98657428Y-115422390D01*
X98658848Y-115421882D01*
X98681667Y-115412429D01*
X98735360Y-115387033D01*
X98886362Y-115306321D01*
X98898720Y-115298914D01*
X98967430Y-115281046D01*
X99034894Y-115303163D01*
G37*
G04 #@! TD.AperFunction*
G04 #@! TA.AperFunction,Conductor*
G36*
X179002486Y-67295502D02*
G01*
X179048979Y-67349158D01*
X179059083Y-67419432D01*
X179029589Y-67484012D01*
X179024233Y-67489816D01*
X179014613Y-67499606D01*
X179008648Y-67505676D01*
X179006307Y-67508727D01*
X179006306Y-67508728D01*
X178817326Y-67755011D01*
X178817321Y-67755019D01*
X178814991Y-67758055D01*
X178813042Y-67761364D01*
X178655924Y-68028097D01*
X178653534Y-68032154D01*
X178526685Y-68323886D01*
X178525591Y-68327580D01*
X178525589Y-68327585D01*
X178486206Y-68460542D01*
X178436335Y-68628903D01*
X178383831Y-68942657D01*
X178369955Y-69260471D01*
X178394914Y-69577607D01*
X178458336Y-69889338D01*
X178559276Y-70191016D01*
X178560925Y-70194474D01*
X178560927Y-70194478D01*
X178590584Y-70256655D01*
X178696229Y-70478143D01*
X178867153Y-70746440D01*
X179069500Y-70991907D01*
X179300254Y-71210884D01*
X179555975Y-71400108D01*
X179657452Y-71457521D01*
X179829492Y-71554857D01*
X179829496Y-71554859D01*
X179832849Y-71556756D01*
X180126751Y-71678494D01*
X180228083Y-71706596D01*
X180429582Y-71762477D01*
X180429590Y-71762479D01*
X180433298Y-71763507D01*
X180747921Y-71810528D01*
X180751219Y-71810672D01*
X180860427Y-71815440D01*
X180860432Y-71815440D01*
X180861804Y-71815500D01*
X181055799Y-71815500D01*
X181292524Y-71801021D01*
X181296307Y-71800320D01*
X181296314Y-71800319D01*
X181494931Y-71763507D01*
X181605313Y-71743049D01*
X181814732Y-71677020D01*
X181905035Y-71648548D01*
X181905038Y-71648547D01*
X181908707Y-71647390D01*
X181912204Y-71645796D01*
X181912210Y-71645794D01*
X182194673Y-71517068D01*
X182194677Y-71517066D01*
X182198181Y-71515469D01*
X182280335Y-71465125D01*
X182466142Y-71351262D01*
X182466145Y-71351260D01*
X182469420Y-71349253D01*
X182472424Y-71346863D01*
X182472429Y-71346860D01*
X182710062Y-71157838D01*
X182775826Y-71131086D01*
X182845613Y-71144135D01*
X182897267Y-71192842D01*
X182914499Y-71256447D01*
X182914499Y-101474000D01*
X182894497Y-101542121D01*
X182840841Y-101588614D01*
X182788499Y-101600000D01*
X178435000Y-101600000D01*
X178435000Y-101744295D01*
X178414998Y-101812416D01*
X178361342Y-101858909D01*
X178291068Y-101869013D01*
X178249604Y-101855417D01*
X178115430Y-101783700D01*
X178114059Y-101782967D01*
X178112671Y-101782310D01*
X178112662Y-101782306D01*
X178061751Y-101758227D01*
X178061741Y-101758222D01*
X178060357Y-101757568D01*
X178037537Y-101748115D01*
X178017518Y-101740952D01*
X177983042Y-101728615D01*
X177983019Y-101728607D01*
X177981573Y-101728090D01*
X177817721Y-101678387D01*
X177816243Y-101678017D01*
X177816222Y-101678011D01*
X177761537Y-101664315D01*
X177761530Y-101664313D01*
X177760059Y-101663945D01*
X177735842Y-101659129D01*
X177734304Y-101658901D01*
X177734299Y-101658900D01*
X177723097Y-101657239D01*
X177677092Y-101650415D01*
X177675545Y-101650263D01*
X177675540Y-101650262D01*
X177501289Y-101633099D01*
X177501270Y-101633097D01*
X177500515Y-101633023D01*
X177470887Y-101630837D01*
X177458537Y-101630230D01*
X177428813Y-101629500D01*
X175734202Y-101629500D01*
X175666081Y-101609498D01*
X175619588Y-101555842D01*
X175609484Y-101485568D01*
X175626127Y-101438726D01*
X175631323Y-101430057D01*
X175632048Y-101428701D01*
X175632058Y-101428683D01*
X175711297Y-101280435D01*
X175711297Y-101280434D01*
X175712033Y-101279058D01*
X175737432Y-101225357D01*
X175746885Y-101202537D01*
X175754048Y-101182518D01*
X175766385Y-101148042D01*
X175766393Y-101148019D01*
X175766910Y-101146573D01*
X175816613Y-100982721D01*
X175831054Y-100925069D01*
X175835871Y-100900849D01*
X175844586Y-100842086D01*
X175861977Y-100665512D01*
X175864163Y-100635887D01*
X175864770Y-100623537D01*
X175865500Y-100593813D01*
X175865500Y-93386123D01*
X177152505Y-93386123D01*
X177158232Y-93393773D01*
X177201368Y-93420207D01*
X177210162Y-93424688D01*
X177420311Y-93511734D01*
X177429696Y-93514783D01*
X177650877Y-93567885D01*
X177660624Y-93569428D01*
X177887393Y-93587275D01*
X177897253Y-93587275D01*
X178124022Y-93569428D01*
X178133769Y-93567885D01*
X178354950Y-93514783D01*
X178364335Y-93511734D01*
X178574484Y-93424688D01*
X178583278Y-93420207D01*
X178622748Y-93396020D01*
X178632208Y-93385564D01*
X178628424Y-93376786D01*
X177905135Y-92653497D01*
X177891191Y-92645883D01*
X177889358Y-92646014D01*
X177882743Y-92650265D01*
X177159265Y-93373743D01*
X177152505Y-93386123D01*
X175865500Y-93386123D01*
X175865500Y-92079930D01*
X176380048Y-92079930D01*
X176397895Y-92306699D01*
X176399438Y-92316446D01*
X176452540Y-92537627D01*
X176455589Y-92547012D01*
X176542635Y-92757161D01*
X176547116Y-92765955D01*
X176571303Y-92805425D01*
X176581759Y-92814885D01*
X176590537Y-92811101D01*
X177313826Y-92087812D01*
X177320204Y-92076132D01*
X178463206Y-92076132D01*
X178463337Y-92077965D01*
X178467588Y-92084580D01*
X179191066Y-92808058D01*
X179203446Y-92814818D01*
X179211096Y-92809091D01*
X179237530Y-92765955D01*
X179242011Y-92757161D01*
X179329057Y-92547012D01*
X179332106Y-92537627D01*
X179385208Y-92316446D01*
X179386751Y-92306699D01*
X179404598Y-92079930D01*
X179404598Y-92070070D01*
X179386751Y-91843301D01*
X179385208Y-91833554D01*
X179332106Y-91612373D01*
X179329057Y-91602988D01*
X179242011Y-91392839D01*
X179237530Y-91384045D01*
X179213343Y-91344575D01*
X179202887Y-91335115D01*
X179194109Y-91338899D01*
X178470820Y-92062188D01*
X178463206Y-92076132D01*
X177320204Y-92076132D01*
X177321440Y-92073868D01*
X177321309Y-92072035D01*
X177317058Y-92065420D01*
X176593580Y-91341942D01*
X176581200Y-91335182D01*
X176573550Y-91340909D01*
X176547116Y-91384045D01*
X176542635Y-91392839D01*
X176455589Y-91602988D01*
X176452540Y-91612373D01*
X176399438Y-91833554D01*
X176397895Y-91843301D01*
X176380048Y-92070070D01*
X176380048Y-92079930D01*
X175865500Y-92079930D01*
X175865500Y-90764436D01*
X177152438Y-90764436D01*
X177156222Y-90773214D01*
X177879511Y-91496503D01*
X177893455Y-91504117D01*
X177895288Y-91503986D01*
X177901903Y-91499735D01*
X178625381Y-90776257D01*
X178632141Y-90763877D01*
X178626414Y-90756227D01*
X178583278Y-90729793D01*
X178574484Y-90725312D01*
X178364335Y-90638266D01*
X178354950Y-90635217D01*
X178133769Y-90582115D01*
X178124022Y-90580572D01*
X177897253Y-90562725D01*
X177887393Y-90562725D01*
X177660624Y-90580572D01*
X177650877Y-90582115D01*
X177429696Y-90635217D01*
X177420311Y-90638266D01*
X177210162Y-90725312D01*
X177201368Y-90729793D01*
X177161898Y-90753980D01*
X177152438Y-90764436D01*
X175865500Y-90764436D01*
X175865500Y-75301187D01*
X175864770Y-75271463D01*
X175864163Y-75259113D01*
X175861977Y-75229488D01*
X175844586Y-75052914D01*
X175835871Y-74994151D01*
X175831054Y-74969931D01*
X175816614Y-74912280D01*
X175766911Y-74748427D01*
X175766386Y-74746959D01*
X175747399Y-74693896D01*
X175747390Y-74693873D01*
X175746882Y-74692453D01*
X175737429Y-74669634D01*
X175712033Y-74615942D01*
X175711299Y-74614568D01*
X175632058Y-74466317D01*
X175632048Y-74466299D01*
X175631323Y-74464943D01*
X175630519Y-74463601D01*
X175601567Y-74415296D01*
X175601555Y-74415277D01*
X175600771Y-74413969D01*
X175587053Y-74393439D01*
X175551660Y-74345718D01*
X175443033Y-74213355D01*
X175403127Y-74169326D01*
X175385674Y-74151873D01*
X175341645Y-74111967D01*
X175209282Y-74003340D01*
X175161561Y-73967948D01*
X175141034Y-73954232D01*
X175090061Y-73923679D01*
X174939059Y-73842967D01*
X174937671Y-73842310D01*
X174937662Y-73842306D01*
X174886751Y-73818227D01*
X174886741Y-73818222D01*
X174885357Y-73817568D01*
X174862537Y-73808115D01*
X174842518Y-73800952D01*
X174808042Y-73788615D01*
X174808019Y-73788607D01*
X174806573Y-73788090D01*
X174646380Y-73739497D01*
X174644133Y-73738992D01*
X174644120Y-73738989D01*
X174561707Y-73720483D01*
X174561701Y-73720482D01*
X174559457Y-73719978D01*
X174557171Y-73719639D01*
X174557166Y-73719638D01*
X174525178Y-73714893D01*
X174525167Y-73714892D01*
X174522883Y-73714553D01*
X174520583Y-73714383D01*
X174520580Y-73714383D01*
X174436352Y-73708170D01*
X174436342Y-73708170D01*
X174434042Y-73708000D01*
X173281979Y-73708000D01*
X173269113Y-73707341D01*
X173266921Y-73707116D01*
X173201199Y-73680263D01*
X173172646Y-73648082D01*
X173163212Y-73632838D01*
X173150836Y-73606416D01*
X173148476Y-73599342D01*
X173142000Y-73559467D01*
X173142000Y-69941987D01*
X173142656Y-69929143D01*
X173143124Y-69924576D01*
X173143125Y-69924560D01*
X173144768Y-69908526D01*
X173146911Y-69894959D01*
X173161430Y-69827231D01*
X173162150Y-69823873D01*
X173167710Y-69769621D01*
X173164956Y-69623506D01*
X173155165Y-69588224D01*
X173123790Y-69475174D01*
X173122686Y-69471196D01*
X173094934Y-69405851D01*
X173051411Y-69333966D01*
X173008003Y-69262271D01*
X173008000Y-69262267D01*
X173005671Y-69258420D01*
X172903032Y-69133354D01*
X172901989Y-69132203D01*
X172901985Y-69132198D01*
X172864164Y-69090470D01*
X172864161Y-69090467D01*
X172863127Y-69089326D01*
X172845674Y-69071873D01*
X172801645Y-69031967D01*
X172726243Y-68970086D01*
X172670463Y-68924309D01*
X172670458Y-68924305D01*
X172669282Y-68923340D01*
X172621561Y-68887948D01*
X172601034Y-68874232D01*
X172550061Y-68843679D01*
X172399059Y-68762967D01*
X172397671Y-68762310D01*
X172397662Y-68762306D01*
X172346751Y-68738227D01*
X172346741Y-68738222D01*
X172345357Y-68737568D01*
X172322537Y-68728115D01*
X172302518Y-68720952D01*
X172268042Y-68708615D01*
X172268019Y-68708607D01*
X172266573Y-68708090D01*
X172203410Y-68688930D01*
X172104198Y-68658835D01*
X172104197Y-68658835D01*
X172102721Y-68658387D01*
X172101243Y-68658017D01*
X172101222Y-68658011D01*
X172046537Y-68644315D01*
X172046530Y-68644313D01*
X172045059Y-68643945D01*
X172020842Y-68639129D01*
X172019304Y-68638901D01*
X172019299Y-68638900D01*
X172008097Y-68637239D01*
X171962092Y-68630415D01*
X171960545Y-68630263D01*
X171960540Y-68630262D01*
X171786289Y-68613099D01*
X171786270Y-68613097D01*
X171785515Y-68613023D01*
X171755887Y-68610837D01*
X171743537Y-68610230D01*
X171713813Y-68609500D01*
X168646187Y-68609500D01*
X168616463Y-68610230D01*
X168604113Y-68610837D01*
X168574485Y-68613023D01*
X168573730Y-68613097D01*
X168573711Y-68613099D01*
X168399460Y-68630262D01*
X168399455Y-68630263D01*
X168397908Y-68630415D01*
X168351903Y-68637239D01*
X168340701Y-68638900D01*
X168340696Y-68638901D01*
X168339158Y-68639129D01*
X168314941Y-68643945D01*
X168313470Y-68644313D01*
X168313463Y-68644315D01*
X168258778Y-68658011D01*
X168258757Y-68658017D01*
X168257279Y-68658387D01*
X168255803Y-68658835D01*
X168255802Y-68658835D01*
X168156590Y-68688930D01*
X168093427Y-68708090D01*
X168091981Y-68708607D01*
X168091958Y-68708615D01*
X168057482Y-68720952D01*
X168037463Y-68728115D01*
X168014643Y-68737568D01*
X168013259Y-68738222D01*
X168013249Y-68738227D01*
X167962338Y-68762306D01*
X167962329Y-68762310D01*
X167960941Y-68762967D01*
X167809939Y-68843679D01*
X167758966Y-68874232D01*
X167738439Y-68887948D01*
X167690718Y-68923340D01*
X167689542Y-68924305D01*
X167689537Y-68924309D01*
X167633758Y-68970086D01*
X167558355Y-69031967D01*
X167514326Y-69071873D01*
X167496873Y-69089326D01*
X167495839Y-69090467D01*
X167495836Y-69090470D01*
X167458016Y-69132198D01*
X167456967Y-69133355D01*
X167455992Y-69134543D01*
X167455986Y-69134550D01*
X167354329Y-69258420D01*
X167348340Y-69265718D01*
X167312948Y-69313439D01*
X167299232Y-69333966D01*
X167268679Y-69384939D01*
X167187967Y-69535941D01*
X167162571Y-69589634D01*
X167153118Y-69612453D01*
X167152610Y-69613873D01*
X167152601Y-69613896D01*
X167145174Y-69634653D01*
X167133089Y-69668427D01*
X167132637Y-69669916D01*
X167132637Y-69669917D01*
X167084918Y-69827231D01*
X167083386Y-69832280D01*
X167068946Y-69889931D01*
X167064129Y-69914151D01*
X167063905Y-69915664D01*
X167063902Y-69915679D01*
X167059341Y-69946434D01*
X167055414Y-69972914D01*
X167038023Y-70149488D01*
X167035837Y-70179113D01*
X167035230Y-70191463D01*
X167034500Y-70221187D01*
X167034500Y-82843500D01*
X167014498Y-82911621D01*
X166960842Y-82958114D01*
X166908500Y-82969500D01*
X165518562Y-82969500D01*
X165508021Y-82969058D01*
X165456598Y-82964740D01*
X165449838Y-82965642D01*
X165449834Y-82965642D01*
X165376841Y-82975381D01*
X165373787Y-82975751D01*
X165300572Y-82983705D01*
X165300569Y-82983706D01*
X165293791Y-82984442D01*
X165287331Y-82986616D01*
X165284283Y-82987286D01*
X165283822Y-82987367D01*
X165283671Y-82987403D01*
X165283212Y-82987536D01*
X165280193Y-82988278D01*
X165273431Y-82989180D01*
X165267021Y-82991513D01*
X165267017Y-82991514D01*
X165197829Y-83016697D01*
X165194923Y-83017715D01*
X165125123Y-83041205D01*
X165125121Y-83041206D01*
X165118652Y-83043383D01*
X165112798Y-83046900D01*
X165109986Y-83048200D01*
X165109543Y-83048382D01*
X165109384Y-83048458D01*
X165108966Y-83048686D01*
X165106197Y-83050049D01*
X165099785Y-83052382D01*
X165094027Y-83056036D01*
X165094021Y-83056039D01*
X165031856Y-83095490D01*
X165029237Y-83097108D01*
X164966107Y-83135041D01*
X164966105Y-83135042D01*
X164960256Y-83138557D01*
X164955297Y-83143246D01*
X164952818Y-83145128D01*
X164952041Y-83145668D01*
X164948131Y-83148625D01*
X164943762Y-83151398D01*
X164939528Y-83155183D01*
X164886022Y-83208689D01*
X164883500Y-83211142D01*
X164844907Y-83247638D01*
X164825993Y-83265524D01*
X164822159Y-83271166D01*
X164817733Y-83276366D01*
X164817329Y-83276022D01*
X164810793Y-83283918D01*
X163154193Y-84940519D01*
X163122889Y-84963389D01*
X162958965Y-85047997D01*
X162783640Y-85182528D01*
X162702977Y-85271176D01*
X162661633Y-85316613D01*
X162634910Y-85345981D01*
X162631929Y-85350732D01*
X162631929Y-85350733D01*
X162591586Y-85415046D01*
X162517475Y-85533188D01*
X162435048Y-85738232D01*
X162390234Y-85954633D01*
X162387000Y-86010718D01*
X162387000Y-86678568D01*
X162401641Y-86842617D01*
X162403122Y-86848031D01*
X162403123Y-86848036D01*
X162406704Y-86861124D01*
X162459955Y-87055776D01*
X162462367Y-87060834D01*
X162462369Y-87060838D01*
X162526953Y-87196242D01*
X162555094Y-87255241D01*
X162558371Y-87259802D01*
X162558372Y-87259803D01*
X162609919Y-87331537D01*
X162684052Y-87434704D01*
X162688082Y-87438609D01*
X162790100Y-87537472D01*
X162842752Y-87588496D01*
X163026178Y-87711753D01*
X163228532Y-87800580D01*
X163233983Y-87801889D01*
X163233987Y-87801890D01*
X163437960Y-87850859D01*
X163437964Y-87850860D01*
X163443418Y-87852169D01*
X163553731Y-87858530D01*
X163658438Y-87864568D01*
X163658441Y-87864568D01*
X163664044Y-87864891D01*
X163883435Y-87838341D01*
X163888797Y-87836691D01*
X163888799Y-87836691D01*
X164013510Y-87798325D01*
X164094658Y-87773361D01*
X164099638Y-87770791D01*
X164099642Y-87770789D01*
X164286052Y-87674575D01*
X164286053Y-87674575D01*
X164291035Y-87672003D01*
X164466360Y-87537472D01*
X164559871Y-87434704D01*
X164611317Y-87378166D01*
X164611319Y-87378163D01*
X164615090Y-87374019D01*
X164650575Y-87317451D01*
X164729542Y-87191568D01*
X164729544Y-87191564D01*
X164732525Y-87186812D01*
X164814952Y-86981768D01*
X164859766Y-86765367D01*
X164863000Y-86709282D01*
X164863000Y-86041432D01*
X164848359Y-85877383D01*
X164842070Y-85854392D01*
X164819242Y-85770950D01*
X164820560Y-85699966D01*
X164851681Y-85648607D01*
X165792883Y-84707405D01*
X165855195Y-84673379D01*
X165881978Y-84670500D01*
X166908500Y-84670500D01*
X166976621Y-84690502D01*
X167023114Y-84744158D01*
X167034500Y-84796500D01*
X167034500Y-91343500D01*
X167014498Y-91411621D01*
X166960842Y-91458114D01*
X166908500Y-91469500D01*
X166687501Y-91469500D01*
X166685960Y-91469576D01*
X166685948Y-91469576D01*
X166662332Y-91470737D01*
X166628151Y-91472416D01*
X166454676Y-91489502D01*
X166453137Y-91489730D01*
X166453139Y-91489730D01*
X166397454Y-91497988D01*
X166397440Y-91497990D01*
X166395919Y-91498216D01*
X166394417Y-91498515D01*
X166394398Y-91498518D01*
X166376785Y-91502021D01*
X166371698Y-91503033D01*
X166370205Y-91503407D01*
X166370196Y-91503409D01*
X166367893Y-91503986D01*
X166314037Y-91517476D01*
X166312548Y-91517928D01*
X166312536Y-91517931D01*
X166182868Y-91557266D01*
X166159093Y-91564478D01*
X166157622Y-91565004D01*
X166157617Y-91565006D01*
X166104602Y-91583976D01*
X166104592Y-91583980D01*
X166103130Y-91584503D01*
X166080320Y-91593952D01*
X166026621Y-91619350D01*
X165920397Y-91676128D01*
X165894923Y-91689744D01*
X165825417Y-91704216D01*
X165759121Y-91678812D01*
X165717083Y-91621599D01*
X165709527Y-91578622D01*
X165709527Y-91440000D01*
X162021500Y-91440000D01*
X161953379Y-91419998D01*
X161906886Y-91366342D01*
X161895500Y-91314000D01*
X161895500Y-90479669D01*
X162167001Y-90479669D01*
X162167371Y-90486490D01*
X162172895Y-90537352D01*
X162176521Y-90552604D01*
X162221676Y-90673054D01*
X162230214Y-90688649D01*
X162306715Y-90790724D01*
X162319276Y-90803285D01*
X162421351Y-90879786D01*
X162436946Y-90888324D01*
X162557394Y-90933478D01*
X162572649Y-90937105D01*
X162623514Y-90942631D01*
X162630328Y-90943000D01*
X163506885Y-90943000D01*
X163522124Y-90938525D01*
X163523329Y-90937135D01*
X163525000Y-90929452D01*
X163525000Y-90924884D01*
X164325000Y-90924884D01*
X164329475Y-90940123D01*
X164330865Y-90941328D01*
X164338548Y-90942999D01*
X165219669Y-90942999D01*
X165226490Y-90942629D01*
X165277352Y-90937105D01*
X165292604Y-90933479D01*
X165413054Y-90888324D01*
X165428649Y-90879786D01*
X165530724Y-90803285D01*
X165543285Y-90790724D01*
X165619786Y-90688649D01*
X165628324Y-90673054D01*
X165673478Y-90552606D01*
X165677105Y-90537351D01*
X165682631Y-90486486D01*
X165683000Y-90479672D01*
X165683000Y-89953115D01*
X165678525Y-89937876D01*
X165677135Y-89936671D01*
X165669452Y-89935000D01*
X164343115Y-89935000D01*
X164327876Y-89939475D01*
X164326671Y-89940865D01*
X164325000Y-89948548D01*
X164325000Y-90924884D01*
X163525000Y-90924884D01*
X163525000Y-89953115D01*
X163520525Y-89937876D01*
X163519135Y-89936671D01*
X163511452Y-89935000D01*
X162185116Y-89935000D01*
X162169877Y-89939475D01*
X162168672Y-89940865D01*
X162167001Y-89948548D01*
X162167001Y-90479669D01*
X161895500Y-90479669D01*
X161895500Y-89116885D01*
X162167000Y-89116885D01*
X162171475Y-89132124D01*
X162172865Y-89133329D01*
X162180548Y-89135000D01*
X163506885Y-89135000D01*
X163522124Y-89130525D01*
X163523329Y-89129135D01*
X163525000Y-89121452D01*
X163525000Y-89116885D01*
X164325000Y-89116885D01*
X164329475Y-89132124D01*
X164330865Y-89133329D01*
X164338548Y-89135000D01*
X165664884Y-89135000D01*
X165680123Y-89130525D01*
X165681328Y-89129135D01*
X165682999Y-89121452D01*
X165682999Y-88590331D01*
X165682629Y-88583510D01*
X165677105Y-88532648D01*
X165673479Y-88517396D01*
X165628324Y-88396946D01*
X165619786Y-88381351D01*
X165543285Y-88279276D01*
X165530724Y-88266715D01*
X165428649Y-88190214D01*
X165413054Y-88181676D01*
X165292606Y-88136522D01*
X165277351Y-88132895D01*
X165226486Y-88127369D01*
X165219672Y-88127000D01*
X164343115Y-88127000D01*
X164327876Y-88131475D01*
X164326671Y-88132865D01*
X164325000Y-88140548D01*
X164325000Y-89116885D01*
X163525000Y-89116885D01*
X163525000Y-88145116D01*
X163520525Y-88129877D01*
X163519135Y-88128672D01*
X163511452Y-88127001D01*
X162630331Y-88127001D01*
X162623510Y-88127371D01*
X162572648Y-88132895D01*
X162557396Y-88136521D01*
X162436946Y-88181676D01*
X162421351Y-88190214D01*
X162319276Y-88266715D01*
X162306715Y-88279276D01*
X162230214Y-88381351D01*
X162221676Y-88396946D01*
X162176522Y-88517394D01*
X162172895Y-88532649D01*
X162167369Y-88583514D01*
X162167000Y-88590328D01*
X162167000Y-89116885D01*
X161895500Y-89116885D01*
X161895500Y-87646471D01*
X161888717Y-87584593D01*
X161881493Y-87518705D01*
X161881493Y-87518704D01*
X161881118Y-87515285D01*
X161869289Y-87461984D01*
X161838224Y-87374019D01*
X161823221Y-87331537D01*
X161823220Y-87331536D01*
X161820575Y-87324045D01*
X161732438Y-87192831D01*
X161716619Y-87174881D01*
X161688539Y-87143018D01*
X161688535Y-87143014D01*
X161687822Y-87142205D01*
X161687764Y-87142256D01*
X161686111Y-87140630D01*
X161686293Y-87140470D01*
X161685560Y-87139638D01*
X161682140Y-87136724D01*
X161682130Y-87136714D01*
X161653663Y-87112458D01*
X161646288Y-87105648D01*
X161640351Y-87099711D01*
X161634134Y-87092299D01*
X161635384Y-87090946D01*
X161530071Y-86993595D01*
X161514657Y-86976476D01*
X161471377Y-86918517D01*
X161446646Y-86851967D01*
X161448954Y-86817579D01*
X161458829Y-86769894D01*
X161458830Y-86769888D01*
X161459766Y-86765367D01*
X161463000Y-86709282D01*
X161463000Y-86041432D01*
X161448994Y-85884501D01*
X161462986Y-85814635D01*
X161495626Y-85752598D01*
X161495059Y-85752300D01*
X161501176Y-85736560D01*
X161514221Y-85714930D01*
X161515828Y-85711306D01*
X161528183Y-85683443D01*
X161528184Y-85683439D01*
X161529345Y-85680822D01*
X161564676Y-85576379D01*
X161568645Y-85538398D01*
X161580676Y-85423268D01*
X161580676Y-85423261D01*
X161581104Y-85419168D01*
X161579203Y-85348197D01*
X161577746Y-85319416D01*
X161545526Y-85164667D01*
X161474352Y-85023531D01*
X161461399Y-85004515D01*
X161436919Y-84968576D01*
X161436914Y-84968570D01*
X161434383Y-84964854D01*
X161318076Y-84837675D01*
X161260398Y-84790340D01*
X161212681Y-84754950D01*
X161202746Y-84748311D01*
X161193439Y-84742092D01*
X161193430Y-84742086D01*
X161192144Y-84741227D01*
X161141166Y-84710671D01*
X161103433Y-84690502D01*
X160999756Y-84635086D01*
X160999755Y-84635086D01*
X160998379Y-84634350D01*
X160944680Y-84608952D01*
X160921870Y-84599503D01*
X160920408Y-84598980D01*
X160920398Y-84598976D01*
X160867383Y-84580006D01*
X160867378Y-84580004D01*
X160865907Y-84579478D01*
X160842132Y-84572266D01*
X160712464Y-84532931D01*
X160712452Y-84532928D01*
X160710963Y-84532476D01*
X160653307Y-84518034D01*
X160629087Y-84513217D01*
X160599705Y-84508859D01*
X160571828Y-84504725D01*
X160571820Y-84504724D01*
X160570323Y-84504502D01*
X160568810Y-84504353D01*
X160568802Y-84504352D01*
X160511538Y-84498712D01*
X160410763Y-84488786D01*
X160410753Y-84488785D01*
X160409197Y-84488632D01*
X160385071Y-84487447D01*
X160351400Y-84485792D01*
X160351386Y-84485792D01*
X160349846Y-84485716D01*
X160325154Y-84485716D01*
X160323613Y-84485792D01*
X160323601Y-84485792D01*
X160299985Y-84486953D01*
X160265804Y-84488632D01*
X160128850Y-84502121D01*
X160059097Y-84488893D01*
X160007569Y-84440053D01*
X159990500Y-84376728D01*
X159990500Y-83556187D01*
X159989770Y-83526463D01*
X159989163Y-83514113D01*
X159986977Y-83484488D01*
X159969586Y-83307914D01*
X159964778Y-83275493D01*
X159961098Y-83250679D01*
X159961095Y-83250664D01*
X159960871Y-83249151D01*
X159956054Y-83224931D01*
X159941614Y-83167280D01*
X159934895Y-83145128D01*
X159892363Y-83004917D01*
X159892363Y-83004916D01*
X159891911Y-83003427D01*
X159891386Y-83001959D01*
X159872399Y-82948896D01*
X159872390Y-82948873D01*
X159871882Y-82947453D01*
X159862429Y-82924634D01*
X159837033Y-82870942D01*
X159836299Y-82869568D01*
X159757058Y-82721317D01*
X159757048Y-82721299D01*
X159756323Y-82719943D01*
X159755519Y-82718601D01*
X159726567Y-82670296D01*
X159726555Y-82670277D01*
X159725771Y-82668969D01*
X159712053Y-82648439D01*
X159676660Y-82600718D01*
X159568033Y-82468355D01*
X159528127Y-82424326D01*
X159510674Y-82406873D01*
X159466645Y-82366967D01*
X159415802Y-82325241D01*
X159335463Y-82259309D01*
X159335458Y-82259305D01*
X159334282Y-82258340D01*
X159286561Y-82222948D01*
X159266034Y-82209232D01*
X159215061Y-82178679D01*
X159064059Y-82097967D01*
X159062671Y-82097310D01*
X159062662Y-82097306D01*
X159011751Y-82073227D01*
X159011741Y-82073222D01*
X159010357Y-82072568D01*
X158987537Y-82063115D01*
X158967518Y-82055952D01*
X158933042Y-82043615D01*
X158933019Y-82043607D01*
X158931573Y-82043090D01*
X158767721Y-81993387D01*
X158766243Y-81993017D01*
X158766222Y-81993011D01*
X158711537Y-81979315D01*
X158711530Y-81979313D01*
X158710059Y-81978945D01*
X158685842Y-81974129D01*
X158684304Y-81973901D01*
X158684299Y-81973900D01*
X158673097Y-81972239D01*
X158627092Y-81965415D01*
X158625545Y-81965263D01*
X158625540Y-81965262D01*
X158451289Y-81948099D01*
X158451270Y-81948097D01*
X158450515Y-81948023D01*
X158420887Y-81945837D01*
X158408537Y-81945230D01*
X158378813Y-81944500D01*
X153699693Y-81944500D01*
X153631572Y-81924498D01*
X153585079Y-81870842D01*
X153574975Y-81800568D01*
X153592433Y-81752385D01*
X153637814Y-81678762D01*
X153643963Y-81665576D01*
X153695138Y-81511290D01*
X153698005Y-81497914D01*
X153707672Y-81403562D01*
X153708000Y-81397146D01*
X153708000Y-80268115D01*
X153703525Y-80252876D01*
X153702135Y-80251671D01*
X153694452Y-80250000D01*
X151110116Y-80250000D01*
X151094877Y-80254475D01*
X151093672Y-80255865D01*
X151092001Y-80263548D01*
X151092001Y-81397095D01*
X151092338Y-81403614D01*
X151102257Y-81499206D01*
X151105149Y-81512600D01*
X151156588Y-81666784D01*
X151162761Y-81679962D01*
X151207462Y-81752197D01*
X151226300Y-81820649D01*
X151205139Y-81888418D01*
X151150698Y-81933990D01*
X151100318Y-81944500D01*
X150231187Y-81944500D01*
X150201463Y-81945230D01*
X150189113Y-81945837D01*
X150159485Y-81948023D01*
X150158730Y-81948097D01*
X150158711Y-81948099D01*
X149984460Y-81965262D01*
X149984455Y-81965263D01*
X149982908Y-81965415D01*
X149936903Y-81972239D01*
X149925701Y-81973900D01*
X149925696Y-81973901D01*
X149924158Y-81974129D01*
X149899941Y-81978945D01*
X149898470Y-81979313D01*
X149898463Y-81979315D01*
X149843778Y-81993011D01*
X149843757Y-81993017D01*
X149842279Y-81993387D01*
X149678427Y-82043090D01*
X149676981Y-82043607D01*
X149676958Y-82043615D01*
X149642482Y-82055952D01*
X149622463Y-82063115D01*
X149599643Y-82072568D01*
X149598259Y-82073222D01*
X149598249Y-82073227D01*
X149547338Y-82097306D01*
X149547329Y-82097310D01*
X149545941Y-82097967D01*
X149394939Y-82178679D01*
X149343966Y-82209232D01*
X149323439Y-82222948D01*
X149275718Y-82258340D01*
X149274542Y-82259305D01*
X149274537Y-82259309D01*
X149194199Y-82325241D01*
X149143355Y-82366967D01*
X149099326Y-82406873D01*
X149081873Y-82424326D01*
X149041967Y-82468355D01*
X148933340Y-82600718D01*
X148897947Y-82648439D01*
X148884229Y-82668969D01*
X148883445Y-82670277D01*
X148883433Y-82670296D01*
X148854481Y-82718601D01*
X148853677Y-82719943D01*
X148852952Y-82721299D01*
X148852942Y-82721317D01*
X148773701Y-82869568D01*
X148772967Y-82870942D01*
X148747571Y-82924634D01*
X148738118Y-82947453D01*
X148737610Y-82948873D01*
X148737601Y-82948896D01*
X148718614Y-83001959D01*
X148718089Y-83003427D01*
X148717637Y-83004916D01*
X148717637Y-83004917D01*
X148675106Y-83145128D01*
X148668386Y-83167280D01*
X148653946Y-83224931D01*
X148649129Y-83249151D01*
X148648905Y-83250664D01*
X148648902Y-83250679D01*
X148645222Y-83275493D01*
X148640414Y-83307914D01*
X148623023Y-83484488D01*
X148620837Y-83514113D01*
X148620230Y-83526463D01*
X148619500Y-83556187D01*
X148619500Y-101503500D01*
X148599498Y-101571621D01*
X148545842Y-101618114D01*
X148493500Y-101629500D01*
X143984202Y-101629500D01*
X143916081Y-101609498D01*
X143869588Y-101555842D01*
X143859484Y-101485568D01*
X143876127Y-101438726D01*
X143881323Y-101430057D01*
X143882048Y-101428701D01*
X143882058Y-101428683D01*
X143961297Y-101280435D01*
X143961297Y-101280434D01*
X143962033Y-101279058D01*
X143987432Y-101225357D01*
X143996885Y-101202537D01*
X144004048Y-101182518D01*
X144016385Y-101148042D01*
X144016393Y-101148019D01*
X144016910Y-101146573D01*
X144066613Y-100982721D01*
X144081054Y-100925069D01*
X144085871Y-100900849D01*
X144094586Y-100842086D01*
X144111977Y-100665512D01*
X144114163Y-100635887D01*
X144114770Y-100623537D01*
X144115500Y-100593813D01*
X144115500Y-93386123D01*
X145402505Y-93386123D01*
X145408232Y-93393773D01*
X145451368Y-93420207D01*
X145460162Y-93424688D01*
X145670311Y-93511734D01*
X145679696Y-93514783D01*
X145900877Y-93567885D01*
X145910624Y-93569428D01*
X146137393Y-93587275D01*
X146147253Y-93587275D01*
X146374022Y-93569428D01*
X146383769Y-93567885D01*
X146604950Y-93514783D01*
X146614335Y-93511734D01*
X146824484Y-93424688D01*
X146833278Y-93420207D01*
X146872748Y-93396020D01*
X146882208Y-93385564D01*
X146878424Y-93376786D01*
X146155135Y-92653497D01*
X146141191Y-92645883D01*
X146139358Y-92646014D01*
X146132743Y-92650265D01*
X145409265Y-93373743D01*
X145402505Y-93386123D01*
X144115500Y-93386123D01*
X144115500Y-92079930D01*
X144630048Y-92079930D01*
X144647895Y-92306699D01*
X144649438Y-92316446D01*
X144702540Y-92537627D01*
X144705589Y-92547012D01*
X144792635Y-92757161D01*
X144797116Y-92765955D01*
X144821303Y-92805425D01*
X144831759Y-92814885D01*
X144840537Y-92811101D01*
X145563826Y-92087812D01*
X145570204Y-92076132D01*
X146713206Y-92076132D01*
X146713337Y-92077965D01*
X146717588Y-92084580D01*
X147441066Y-92808058D01*
X147453446Y-92814818D01*
X147461096Y-92809091D01*
X147487530Y-92765955D01*
X147492011Y-92757161D01*
X147579057Y-92547012D01*
X147582106Y-92537627D01*
X147635208Y-92316446D01*
X147636751Y-92306699D01*
X147654598Y-92079930D01*
X147654598Y-92070070D01*
X147636751Y-91843301D01*
X147635208Y-91833554D01*
X147582106Y-91612373D01*
X147579057Y-91602988D01*
X147492011Y-91392839D01*
X147487530Y-91384045D01*
X147463343Y-91344575D01*
X147452887Y-91335115D01*
X147444109Y-91338899D01*
X146720820Y-92062188D01*
X146713206Y-92076132D01*
X145570204Y-92076132D01*
X145571440Y-92073868D01*
X145571309Y-92072035D01*
X145567058Y-92065420D01*
X144843580Y-91341942D01*
X144831200Y-91335182D01*
X144823550Y-91340909D01*
X144797116Y-91384045D01*
X144792635Y-91392839D01*
X144705589Y-91602988D01*
X144702540Y-91612373D01*
X144649438Y-91833554D01*
X144647895Y-91843301D01*
X144630048Y-92070070D01*
X144630048Y-92079930D01*
X144115500Y-92079930D01*
X144115500Y-90764436D01*
X145402438Y-90764436D01*
X145406222Y-90773214D01*
X146129511Y-91496503D01*
X146143455Y-91504117D01*
X146145288Y-91503986D01*
X146151903Y-91499735D01*
X146875381Y-90776257D01*
X146882141Y-90763877D01*
X146876414Y-90756227D01*
X146833278Y-90729793D01*
X146824484Y-90725312D01*
X146614335Y-90638266D01*
X146604950Y-90635217D01*
X146383769Y-90582115D01*
X146374022Y-90580572D01*
X146147253Y-90562725D01*
X146137393Y-90562725D01*
X145910624Y-90580572D01*
X145900877Y-90582115D01*
X145679696Y-90635217D01*
X145670311Y-90638266D01*
X145460162Y-90725312D01*
X145451368Y-90729793D01*
X145411898Y-90753980D01*
X145402438Y-90764436D01*
X144115500Y-90764436D01*
X144115500Y-79431885D01*
X151092000Y-79431885D01*
X151096475Y-79447124D01*
X151097865Y-79448329D01*
X151105548Y-79450000D01*
X151981885Y-79450000D01*
X151997124Y-79445525D01*
X151998329Y-79444135D01*
X152000000Y-79436452D01*
X152000000Y-79431885D01*
X152800000Y-79431885D01*
X152804475Y-79447124D01*
X152805865Y-79448329D01*
X152813548Y-79450000D01*
X153689884Y-79450000D01*
X153705123Y-79445525D01*
X153706328Y-79444135D01*
X153707999Y-79436452D01*
X153707999Y-78302905D01*
X153707662Y-78296386D01*
X153697743Y-78200794D01*
X153694851Y-78187400D01*
X153643412Y-78033216D01*
X153637239Y-78020038D01*
X153551937Y-77882193D01*
X153542901Y-77870792D01*
X153428171Y-77756261D01*
X153416760Y-77747249D01*
X153278757Y-77662184D01*
X153265576Y-77656037D01*
X153111290Y-77604862D01*
X153097914Y-77601995D01*
X153003562Y-77592328D01*
X152997145Y-77592000D01*
X152818115Y-77592000D01*
X152802876Y-77596475D01*
X152801671Y-77597865D01*
X152800000Y-77605548D01*
X152800000Y-79431885D01*
X152000000Y-79431885D01*
X152000000Y-77610116D01*
X151995525Y-77594877D01*
X151994135Y-77593672D01*
X151986452Y-77592001D01*
X151802905Y-77592001D01*
X151796386Y-77592338D01*
X151700794Y-77602257D01*
X151687400Y-77605149D01*
X151533216Y-77656588D01*
X151520038Y-77662761D01*
X151382193Y-77748063D01*
X151370792Y-77757099D01*
X151256261Y-77871829D01*
X151247249Y-77883240D01*
X151162184Y-78021243D01*
X151156037Y-78034424D01*
X151104862Y-78188710D01*
X151101995Y-78202086D01*
X151092328Y-78296438D01*
X151092000Y-78302855D01*
X151092000Y-79431885D01*
X144115500Y-79431885D01*
X144115500Y-75301187D01*
X144114770Y-75271463D01*
X144114163Y-75259113D01*
X144111977Y-75229488D01*
X144094586Y-75052914D01*
X144085871Y-74994151D01*
X144081054Y-74969931D01*
X144066614Y-74912280D01*
X144016911Y-74748427D01*
X144016386Y-74746959D01*
X143997399Y-74693896D01*
X143997390Y-74693873D01*
X143996882Y-74692453D01*
X143987429Y-74669634D01*
X143962033Y-74615942D01*
X143961299Y-74614568D01*
X143882058Y-74466317D01*
X143882048Y-74466299D01*
X143881323Y-74464943D01*
X143880519Y-74463601D01*
X143851567Y-74415296D01*
X143851555Y-74415277D01*
X143850771Y-74413969D01*
X143837053Y-74393439D01*
X143801660Y-74345718D01*
X143693033Y-74213355D01*
X143653127Y-74169326D01*
X143635674Y-74151873D01*
X143591645Y-74111967D01*
X143459282Y-74003340D01*
X143411561Y-73967948D01*
X143391034Y-73954232D01*
X143340061Y-73923679D01*
X143189059Y-73842967D01*
X143187671Y-73842310D01*
X143187662Y-73842306D01*
X143136751Y-73818227D01*
X143136741Y-73818222D01*
X143135357Y-73817568D01*
X143112537Y-73808115D01*
X143092518Y-73800952D01*
X143058042Y-73788615D01*
X143058019Y-73788607D01*
X143056573Y-73788090D01*
X142896380Y-73739497D01*
X142894133Y-73738992D01*
X142894120Y-73738989D01*
X142811707Y-73720483D01*
X142811701Y-73720482D01*
X142809457Y-73719978D01*
X142807171Y-73719639D01*
X142807166Y-73719638D01*
X142775178Y-73714893D01*
X142775167Y-73714892D01*
X142772883Y-73714553D01*
X142770583Y-73714383D01*
X142770580Y-73714383D01*
X142686352Y-73708170D01*
X142686342Y-73708170D01*
X142684042Y-73708000D01*
X141531979Y-73708000D01*
X141519113Y-73707341D01*
X141516921Y-73707116D01*
X141451199Y-73680263D01*
X141422646Y-73648082D01*
X141413212Y-73632838D01*
X141400836Y-73606416D01*
X141398476Y-73599342D01*
X141392000Y-73559467D01*
X141392000Y-70560000D01*
X159569457Y-70560000D01*
X159589609Y-70867460D01*
X159590413Y-70871500D01*
X159590413Y-70871503D01*
X159647369Y-71157838D01*
X159649720Y-71169659D01*
X159651045Y-71173563D01*
X159651046Y-71173566D01*
X159747436Y-71457521D01*
X159748762Y-71461427D01*
X159750586Y-71465125D01*
X159856316Y-71679524D01*
X159885040Y-71737771D01*
X160056222Y-71993964D01*
X160058936Y-71997058D01*
X160058940Y-71997064D01*
X160256671Y-72222531D01*
X160259380Y-72225620D01*
X160262469Y-72228329D01*
X160487936Y-72426060D01*
X160487942Y-72426064D01*
X160491036Y-72428778D01*
X160494462Y-72431067D01*
X160494467Y-72431071D01*
X160686501Y-72559384D01*
X160747228Y-72599960D01*
X160750927Y-72601784D01*
X160750932Y-72601787D01*
X160892829Y-72671763D01*
X161023573Y-72736238D01*
X161027478Y-72737564D01*
X161027479Y-72737564D01*
X161311434Y-72833954D01*
X161311437Y-72833955D01*
X161315341Y-72835280D01*
X161319380Y-72836083D01*
X161319386Y-72836085D01*
X161613497Y-72894587D01*
X161613500Y-72894587D01*
X161617540Y-72895391D01*
X161621651Y-72895660D01*
X161621655Y-72895661D01*
X161920881Y-72915273D01*
X161925000Y-72915543D01*
X161929119Y-72915273D01*
X162228345Y-72895661D01*
X162228349Y-72895660D01*
X162232460Y-72895391D01*
X162236500Y-72894587D01*
X162236503Y-72894587D01*
X162530614Y-72836085D01*
X162530620Y-72836083D01*
X162534659Y-72835280D01*
X162538563Y-72833955D01*
X162538566Y-72833954D01*
X162822521Y-72737564D01*
X162822522Y-72737564D01*
X162826427Y-72736238D01*
X162957171Y-72671763D01*
X163099068Y-72601787D01*
X163099073Y-72601784D01*
X163102772Y-72599960D01*
X163163499Y-72559384D01*
X163355533Y-72431071D01*
X163355538Y-72431067D01*
X163358964Y-72428778D01*
X163362058Y-72426064D01*
X163362064Y-72426060D01*
X163587531Y-72228329D01*
X163590620Y-72225620D01*
X163593329Y-72222531D01*
X163791060Y-71997064D01*
X163791064Y-71997058D01*
X163793778Y-71993964D01*
X163964960Y-71737771D01*
X163993685Y-71679524D01*
X164099414Y-71465125D01*
X164101238Y-71461427D01*
X164102564Y-71457521D01*
X164198954Y-71173566D01*
X164198955Y-71173563D01*
X164200280Y-71169659D01*
X164202632Y-71157838D01*
X164259587Y-70871503D01*
X164259587Y-70871500D01*
X164260391Y-70867460D01*
X164280543Y-70560000D01*
X164260391Y-70252540D01*
X164259587Y-70248497D01*
X164201085Y-69954386D01*
X164201083Y-69954380D01*
X164200280Y-69950341D01*
X164195258Y-69935545D01*
X164102564Y-69662479D01*
X164102564Y-69662478D01*
X164101238Y-69658573D01*
X164012375Y-69478376D01*
X163966787Y-69385933D01*
X163966784Y-69385928D01*
X163964960Y-69382229D01*
X163793778Y-69126036D01*
X163791064Y-69122942D01*
X163791060Y-69122936D01*
X163593329Y-68897469D01*
X163590620Y-68894380D01*
X163582298Y-68887082D01*
X163362064Y-68693940D01*
X163362058Y-68693936D01*
X163358964Y-68691222D01*
X163355534Y-68688930D01*
X163355533Y-68688929D01*
X163106205Y-68522334D01*
X163102772Y-68520040D01*
X163099073Y-68518216D01*
X163099068Y-68518213D01*
X162957171Y-68448237D01*
X162826427Y-68383762D01*
X162822521Y-68382436D01*
X162538566Y-68286046D01*
X162538563Y-68286045D01*
X162534659Y-68284720D01*
X162530620Y-68283917D01*
X162530614Y-68283915D01*
X162236503Y-68225413D01*
X162236500Y-68225413D01*
X162232460Y-68224609D01*
X162228349Y-68224340D01*
X162228345Y-68224339D01*
X161929119Y-68204727D01*
X161925000Y-68204457D01*
X161920881Y-68204727D01*
X161621655Y-68224339D01*
X161621651Y-68224340D01*
X161617540Y-68224609D01*
X161613500Y-68225413D01*
X161613497Y-68225413D01*
X161319386Y-68283915D01*
X161319380Y-68283917D01*
X161315341Y-68284720D01*
X161311437Y-68286045D01*
X161311434Y-68286046D01*
X161027479Y-68382436D01*
X161023573Y-68383762D01*
X160892962Y-68448172D01*
X160750933Y-68518213D01*
X160750928Y-68518216D01*
X160747229Y-68520040D01*
X160491036Y-68691222D01*
X160487942Y-68693936D01*
X160487936Y-68693940D01*
X160267702Y-68887082D01*
X160259380Y-68894380D01*
X160256671Y-68897469D01*
X160058940Y-69122936D01*
X160058936Y-69122942D01*
X160056222Y-69126036D01*
X159885040Y-69382229D01*
X159883216Y-69385928D01*
X159883213Y-69385933D01*
X159837625Y-69478376D01*
X159748762Y-69658573D01*
X159747436Y-69662478D01*
X159747436Y-69662479D01*
X159654743Y-69935545D01*
X159649720Y-69950341D01*
X159648917Y-69954380D01*
X159648915Y-69954386D01*
X159590413Y-70248497D01*
X159589609Y-70252540D01*
X159569457Y-70560000D01*
X141392000Y-70560000D01*
X141392000Y-69941987D01*
X141392656Y-69929143D01*
X141393124Y-69924576D01*
X141393125Y-69924560D01*
X141394768Y-69908526D01*
X141396911Y-69894959D01*
X141411430Y-69827231D01*
X141412150Y-69823873D01*
X141417710Y-69769621D01*
X141414956Y-69623506D01*
X141405165Y-69588224D01*
X141373790Y-69475174D01*
X141372686Y-69471196D01*
X141344934Y-69405851D01*
X141301411Y-69333966D01*
X141258003Y-69262271D01*
X141258000Y-69262267D01*
X141255671Y-69258420D01*
X141153032Y-69133354D01*
X141151989Y-69132203D01*
X141151985Y-69132198D01*
X141114164Y-69090470D01*
X141114161Y-69090467D01*
X141113127Y-69089326D01*
X141095674Y-69071873D01*
X141051645Y-69031967D01*
X140976243Y-68970086D01*
X140920463Y-68924309D01*
X140920458Y-68924305D01*
X140919282Y-68923340D01*
X140871561Y-68887948D01*
X140851034Y-68874232D01*
X140800061Y-68843679D01*
X140649059Y-68762967D01*
X140647671Y-68762310D01*
X140647662Y-68762306D01*
X140596751Y-68738227D01*
X140596741Y-68738222D01*
X140595357Y-68737568D01*
X140572537Y-68728115D01*
X140552518Y-68720952D01*
X140518042Y-68708615D01*
X140518019Y-68708607D01*
X140516573Y-68708090D01*
X140453410Y-68688930D01*
X140354198Y-68658835D01*
X140354197Y-68658835D01*
X140352721Y-68658387D01*
X140351243Y-68658017D01*
X140351222Y-68658011D01*
X140296537Y-68644315D01*
X140296530Y-68644313D01*
X140295059Y-68643945D01*
X140270842Y-68639129D01*
X140269304Y-68638901D01*
X140269299Y-68638900D01*
X140258097Y-68637239D01*
X140212092Y-68630415D01*
X140210545Y-68630263D01*
X140210540Y-68630262D01*
X140036289Y-68613099D01*
X140036270Y-68613097D01*
X140035515Y-68613023D01*
X140005887Y-68610837D01*
X139993537Y-68610230D01*
X139963813Y-68609500D01*
X136896187Y-68609500D01*
X136866463Y-68610230D01*
X136854113Y-68610837D01*
X136824485Y-68613023D01*
X136823730Y-68613097D01*
X136823711Y-68613099D01*
X136649460Y-68630262D01*
X136649455Y-68630263D01*
X136647908Y-68630415D01*
X136601903Y-68637239D01*
X136590701Y-68638900D01*
X136590696Y-68638901D01*
X136589158Y-68639129D01*
X136564941Y-68643945D01*
X136563470Y-68644313D01*
X136563463Y-68644315D01*
X136508778Y-68658011D01*
X136508757Y-68658017D01*
X136507279Y-68658387D01*
X136505803Y-68658835D01*
X136505802Y-68658835D01*
X136406590Y-68688930D01*
X136343427Y-68708090D01*
X136341981Y-68708607D01*
X136341958Y-68708615D01*
X136307482Y-68720952D01*
X136287463Y-68728115D01*
X136264643Y-68737568D01*
X136263259Y-68738222D01*
X136263249Y-68738227D01*
X136212338Y-68762306D01*
X136212329Y-68762310D01*
X136210941Y-68762967D01*
X136059939Y-68843679D01*
X136008966Y-68874232D01*
X135988439Y-68887948D01*
X135940718Y-68923340D01*
X135939542Y-68924305D01*
X135939537Y-68924309D01*
X135883758Y-68970086D01*
X135808355Y-69031967D01*
X135764326Y-69071873D01*
X135746873Y-69089326D01*
X135745839Y-69090467D01*
X135745836Y-69090470D01*
X135708016Y-69132198D01*
X135706967Y-69133355D01*
X135705992Y-69134543D01*
X135705986Y-69134550D01*
X135604329Y-69258420D01*
X135598340Y-69265718D01*
X135562948Y-69313439D01*
X135549232Y-69333966D01*
X135518679Y-69384939D01*
X135437967Y-69535941D01*
X135412571Y-69589634D01*
X135403118Y-69612453D01*
X135402610Y-69613873D01*
X135402601Y-69613896D01*
X135395174Y-69634653D01*
X135383089Y-69668427D01*
X135382637Y-69669916D01*
X135382637Y-69669917D01*
X135334918Y-69827231D01*
X135333386Y-69832280D01*
X135318946Y-69889931D01*
X135314129Y-69914151D01*
X135313905Y-69915664D01*
X135313902Y-69915679D01*
X135309341Y-69946434D01*
X135305414Y-69972914D01*
X135288023Y-70149488D01*
X135285837Y-70179113D01*
X135285230Y-70191463D01*
X135284500Y-70221187D01*
X135284500Y-82843500D01*
X135264498Y-82911621D01*
X135210842Y-82958114D01*
X135158500Y-82969500D01*
X133768562Y-82969500D01*
X133758021Y-82969058D01*
X133706598Y-82964740D01*
X133699838Y-82965642D01*
X133699834Y-82965642D01*
X133626841Y-82975381D01*
X133623787Y-82975751D01*
X133550572Y-82983705D01*
X133550569Y-82983706D01*
X133543791Y-82984442D01*
X133537331Y-82986616D01*
X133534283Y-82987286D01*
X133533822Y-82987367D01*
X133533671Y-82987403D01*
X133533212Y-82987536D01*
X133530193Y-82988278D01*
X133523431Y-82989180D01*
X133517021Y-82991513D01*
X133517017Y-82991514D01*
X133447829Y-83016697D01*
X133444923Y-83017715D01*
X133375123Y-83041205D01*
X133375121Y-83041206D01*
X133368652Y-83043383D01*
X133362798Y-83046900D01*
X133359986Y-83048200D01*
X133359543Y-83048382D01*
X133359384Y-83048458D01*
X133358966Y-83048686D01*
X133356197Y-83050049D01*
X133349785Y-83052382D01*
X133344027Y-83056036D01*
X133344021Y-83056039D01*
X133281856Y-83095490D01*
X133279237Y-83097108D01*
X133216107Y-83135041D01*
X133216105Y-83135042D01*
X133210256Y-83138557D01*
X133205297Y-83143246D01*
X133202818Y-83145128D01*
X133202041Y-83145668D01*
X133198131Y-83148625D01*
X133193762Y-83151398D01*
X133189528Y-83155183D01*
X133136022Y-83208689D01*
X133133500Y-83211142D01*
X133094907Y-83247638D01*
X133075993Y-83265524D01*
X133072159Y-83271166D01*
X133067733Y-83276366D01*
X133067329Y-83276022D01*
X133060793Y-83283918D01*
X131404193Y-84940519D01*
X131372889Y-84963389D01*
X131208965Y-85047997D01*
X131033640Y-85182528D01*
X130952977Y-85271176D01*
X130911633Y-85316613D01*
X130884910Y-85345981D01*
X130881929Y-85350732D01*
X130881929Y-85350733D01*
X130841586Y-85415046D01*
X130767475Y-85533188D01*
X130685048Y-85738232D01*
X130640234Y-85954633D01*
X130637000Y-86010718D01*
X130637000Y-86678568D01*
X130651641Y-86842617D01*
X130653122Y-86848031D01*
X130653123Y-86848036D01*
X130656704Y-86861124D01*
X130709955Y-87055776D01*
X130712367Y-87060834D01*
X130712369Y-87060838D01*
X130776953Y-87196242D01*
X130805094Y-87255241D01*
X130808371Y-87259802D01*
X130808372Y-87259803D01*
X130859919Y-87331537D01*
X130934052Y-87434704D01*
X130938082Y-87438609D01*
X131040100Y-87537472D01*
X131092752Y-87588496D01*
X131276178Y-87711753D01*
X131478532Y-87800580D01*
X131483983Y-87801889D01*
X131483987Y-87801890D01*
X131687960Y-87850859D01*
X131687964Y-87850860D01*
X131693418Y-87852169D01*
X131803731Y-87858530D01*
X131908438Y-87864568D01*
X131908441Y-87864568D01*
X131914044Y-87864891D01*
X132133435Y-87838341D01*
X132138797Y-87836691D01*
X132138799Y-87836691D01*
X132263510Y-87798325D01*
X132344658Y-87773361D01*
X132349638Y-87770791D01*
X132349642Y-87770789D01*
X132536052Y-87674575D01*
X132536053Y-87674575D01*
X132541035Y-87672003D01*
X132716360Y-87537472D01*
X132809871Y-87434704D01*
X132861317Y-87378166D01*
X132861319Y-87378163D01*
X132865090Y-87374019D01*
X132900575Y-87317451D01*
X132979542Y-87191568D01*
X132979544Y-87191564D01*
X132982525Y-87186812D01*
X133064952Y-86981768D01*
X133109766Y-86765367D01*
X133113000Y-86709282D01*
X133113000Y-86041432D01*
X133098359Y-85877383D01*
X133092070Y-85854392D01*
X133069242Y-85770950D01*
X133070560Y-85699966D01*
X133101681Y-85648607D01*
X134042883Y-84707405D01*
X134105195Y-84673379D01*
X134131978Y-84670500D01*
X135158500Y-84670500D01*
X135226621Y-84690502D01*
X135273114Y-84744158D01*
X135284500Y-84796500D01*
X135284500Y-91343500D01*
X135264498Y-91411621D01*
X135210842Y-91458114D01*
X135158500Y-91469500D01*
X134937501Y-91469500D01*
X134935960Y-91469576D01*
X134935948Y-91469576D01*
X134912332Y-91470737D01*
X134878151Y-91472416D01*
X134704676Y-91489502D01*
X134703137Y-91489730D01*
X134703139Y-91489730D01*
X134647454Y-91497988D01*
X134647440Y-91497990D01*
X134645919Y-91498216D01*
X134644417Y-91498515D01*
X134644398Y-91498518D01*
X134626785Y-91502021D01*
X134621698Y-91503033D01*
X134620205Y-91503407D01*
X134620196Y-91503409D01*
X134617893Y-91503986D01*
X134564037Y-91517476D01*
X134562548Y-91517928D01*
X134562536Y-91517931D01*
X134432868Y-91557266D01*
X134409093Y-91564478D01*
X134407622Y-91565004D01*
X134407617Y-91565006D01*
X134354602Y-91583976D01*
X134354592Y-91583980D01*
X134353130Y-91584503D01*
X134330320Y-91593952D01*
X134276621Y-91619350D01*
X134275245Y-91620086D01*
X134275244Y-91620086D01*
X134170396Y-91676128D01*
X134100890Y-91690600D01*
X134034593Y-91665196D01*
X133992556Y-91607983D01*
X133985000Y-91565006D01*
X133985000Y-91440000D01*
X130271500Y-91440000D01*
X130203379Y-91419998D01*
X130156886Y-91366342D01*
X130145500Y-91314000D01*
X130145500Y-90479669D01*
X130417001Y-90479669D01*
X130417371Y-90486490D01*
X130422895Y-90537352D01*
X130426521Y-90552604D01*
X130471676Y-90673054D01*
X130480214Y-90688649D01*
X130556715Y-90790724D01*
X130569276Y-90803285D01*
X130671351Y-90879786D01*
X130686946Y-90888324D01*
X130807394Y-90933478D01*
X130822649Y-90937105D01*
X130873514Y-90942631D01*
X130880328Y-90943000D01*
X131756885Y-90943000D01*
X131772124Y-90938525D01*
X131773329Y-90937135D01*
X131775000Y-90929452D01*
X131775000Y-90924884D01*
X132575000Y-90924884D01*
X132579475Y-90940123D01*
X132580865Y-90941328D01*
X132588548Y-90942999D01*
X133469669Y-90942999D01*
X133476490Y-90942629D01*
X133527352Y-90937105D01*
X133542604Y-90933479D01*
X133663054Y-90888324D01*
X133678649Y-90879786D01*
X133780724Y-90803285D01*
X133793285Y-90790724D01*
X133869786Y-90688649D01*
X133878324Y-90673054D01*
X133923478Y-90552606D01*
X133927105Y-90537351D01*
X133932631Y-90486486D01*
X133933000Y-90479672D01*
X133933000Y-89953115D01*
X133928525Y-89937876D01*
X133927135Y-89936671D01*
X133919452Y-89935000D01*
X132593115Y-89935000D01*
X132577876Y-89939475D01*
X132576671Y-89940865D01*
X132575000Y-89948548D01*
X132575000Y-90924884D01*
X131775000Y-90924884D01*
X131775000Y-89953115D01*
X131770525Y-89937876D01*
X131769135Y-89936671D01*
X131761452Y-89935000D01*
X130435116Y-89935000D01*
X130419877Y-89939475D01*
X130418672Y-89940865D01*
X130417001Y-89948548D01*
X130417001Y-90479669D01*
X130145500Y-90479669D01*
X130145500Y-89116885D01*
X130417000Y-89116885D01*
X130421475Y-89132124D01*
X130422865Y-89133329D01*
X130430548Y-89135000D01*
X131756885Y-89135000D01*
X131772124Y-89130525D01*
X131773329Y-89129135D01*
X131775000Y-89121452D01*
X131775000Y-89116885D01*
X132575000Y-89116885D01*
X132579475Y-89132124D01*
X132580865Y-89133329D01*
X132588548Y-89135000D01*
X133914884Y-89135000D01*
X133930123Y-89130525D01*
X133931328Y-89129135D01*
X133932999Y-89121452D01*
X133932999Y-88590331D01*
X133932629Y-88583510D01*
X133927105Y-88532648D01*
X133923479Y-88517396D01*
X133878324Y-88396946D01*
X133869786Y-88381351D01*
X133793285Y-88279276D01*
X133780724Y-88266715D01*
X133678649Y-88190214D01*
X133663054Y-88181676D01*
X133542606Y-88136522D01*
X133527351Y-88132895D01*
X133476486Y-88127369D01*
X133469672Y-88127000D01*
X132593115Y-88127000D01*
X132577876Y-88131475D01*
X132576671Y-88132865D01*
X132575000Y-88140548D01*
X132575000Y-89116885D01*
X131775000Y-89116885D01*
X131775000Y-88145116D01*
X131770525Y-88129877D01*
X131769135Y-88128672D01*
X131761452Y-88127001D01*
X130880331Y-88127001D01*
X130873510Y-88127371D01*
X130822648Y-88132895D01*
X130807396Y-88136521D01*
X130686946Y-88181676D01*
X130671351Y-88190214D01*
X130569276Y-88266715D01*
X130556715Y-88279276D01*
X130480214Y-88381351D01*
X130471676Y-88396946D01*
X130426522Y-88517394D01*
X130422895Y-88532649D01*
X130417369Y-88583514D01*
X130417000Y-88590328D01*
X130417000Y-89116885D01*
X130145500Y-89116885D01*
X130145500Y-87646471D01*
X130138717Y-87584593D01*
X130131493Y-87518705D01*
X130131493Y-87518704D01*
X130131118Y-87515285D01*
X130119289Y-87461984D01*
X130088224Y-87374019D01*
X130073221Y-87331537D01*
X130073220Y-87331536D01*
X130070575Y-87324045D01*
X129982438Y-87192831D01*
X129966619Y-87174881D01*
X129938539Y-87143018D01*
X129938535Y-87143014D01*
X129937822Y-87142205D01*
X129937764Y-87142256D01*
X129936111Y-87140630D01*
X129936293Y-87140470D01*
X129935560Y-87139638D01*
X129932140Y-87136724D01*
X129932130Y-87136714D01*
X129903663Y-87112458D01*
X129896288Y-87105648D01*
X129890351Y-87099711D01*
X129884134Y-87092299D01*
X129885384Y-87090946D01*
X129780071Y-86993595D01*
X129764657Y-86976476D01*
X129721377Y-86918517D01*
X129696646Y-86851967D01*
X129698954Y-86817579D01*
X129708829Y-86769894D01*
X129708830Y-86769888D01*
X129709766Y-86765367D01*
X129713000Y-86709282D01*
X129713000Y-86041432D01*
X129698994Y-85884501D01*
X129712986Y-85814635D01*
X129745626Y-85752598D01*
X129745059Y-85752300D01*
X129751176Y-85736560D01*
X129764221Y-85714930D01*
X129765828Y-85711306D01*
X129778183Y-85683443D01*
X129778184Y-85683439D01*
X129779345Y-85680822D01*
X129814676Y-85576379D01*
X129818645Y-85538398D01*
X129830676Y-85423268D01*
X129830676Y-85423261D01*
X129831104Y-85419168D01*
X129829203Y-85348197D01*
X129827746Y-85319416D01*
X129795526Y-85164667D01*
X129724352Y-85023531D01*
X129711399Y-85004515D01*
X129686919Y-84968576D01*
X129686914Y-84968570D01*
X129684383Y-84964854D01*
X129568076Y-84837675D01*
X129510398Y-84790340D01*
X129462681Y-84754950D01*
X129452746Y-84748311D01*
X129443439Y-84742092D01*
X129443430Y-84742086D01*
X129442144Y-84741227D01*
X129391166Y-84710671D01*
X129353433Y-84690502D01*
X129249756Y-84635086D01*
X129249755Y-84635086D01*
X129248379Y-84634350D01*
X129194680Y-84608952D01*
X129171870Y-84599503D01*
X129170408Y-84598980D01*
X129170398Y-84598976D01*
X129117383Y-84580006D01*
X129117378Y-84580004D01*
X129115907Y-84579478D01*
X129092132Y-84572266D01*
X128962464Y-84532931D01*
X128962452Y-84532928D01*
X128960963Y-84532476D01*
X128903307Y-84518034D01*
X128879087Y-84513217D01*
X128849705Y-84508859D01*
X128821828Y-84504725D01*
X128821820Y-84504724D01*
X128820323Y-84504502D01*
X128818810Y-84504353D01*
X128818802Y-84504352D01*
X128761538Y-84498712D01*
X128660763Y-84488786D01*
X128660753Y-84488785D01*
X128659197Y-84488632D01*
X128635071Y-84487447D01*
X128601400Y-84485792D01*
X128601386Y-84485792D01*
X128599846Y-84485716D01*
X128575154Y-84485716D01*
X128573613Y-84485792D01*
X128573601Y-84485792D01*
X128549985Y-84486953D01*
X128515804Y-84488632D01*
X128378850Y-84502121D01*
X128309097Y-84488893D01*
X128257569Y-84440053D01*
X128240500Y-84376728D01*
X128240500Y-83556187D01*
X128239770Y-83526463D01*
X128239163Y-83514113D01*
X128236977Y-83484488D01*
X128219586Y-83307914D01*
X128214778Y-83275493D01*
X128211098Y-83250679D01*
X128211095Y-83250664D01*
X128210871Y-83249151D01*
X128206054Y-83224931D01*
X128191614Y-83167280D01*
X128184895Y-83145128D01*
X128142363Y-83004917D01*
X128142363Y-83004916D01*
X128141911Y-83003427D01*
X128141386Y-83001959D01*
X128122399Y-82948896D01*
X128122390Y-82948873D01*
X128121882Y-82947453D01*
X128112429Y-82924634D01*
X128087033Y-82870942D01*
X128086299Y-82869568D01*
X128007058Y-82721317D01*
X128007048Y-82721299D01*
X128006323Y-82719943D01*
X128005519Y-82718601D01*
X127976567Y-82670296D01*
X127976555Y-82670277D01*
X127975771Y-82668969D01*
X127962053Y-82648439D01*
X127926660Y-82600718D01*
X127818033Y-82468355D01*
X127778127Y-82424326D01*
X127760674Y-82406873D01*
X127716645Y-82366967D01*
X127665802Y-82325241D01*
X127585463Y-82259309D01*
X127585458Y-82259305D01*
X127584282Y-82258340D01*
X127536561Y-82222948D01*
X127516034Y-82209232D01*
X127465061Y-82178679D01*
X127314059Y-82097967D01*
X127312671Y-82097310D01*
X127312662Y-82097306D01*
X127261751Y-82073227D01*
X127261741Y-82073222D01*
X127260357Y-82072568D01*
X127237537Y-82063115D01*
X127217518Y-82055952D01*
X127183042Y-82043615D01*
X127183019Y-82043607D01*
X127181573Y-82043090D01*
X127017721Y-81993387D01*
X127016243Y-81993017D01*
X127016222Y-81993011D01*
X126961537Y-81979315D01*
X126961530Y-81979313D01*
X126960059Y-81978945D01*
X126935842Y-81974129D01*
X126934304Y-81973901D01*
X126934299Y-81973900D01*
X126923097Y-81972239D01*
X126877092Y-81965415D01*
X126875545Y-81965263D01*
X126875540Y-81965262D01*
X126701289Y-81948099D01*
X126701270Y-81948097D01*
X126700515Y-81948023D01*
X126670887Y-81945837D01*
X126658537Y-81945230D01*
X126628813Y-81944500D01*
X121949693Y-81944500D01*
X121881572Y-81924498D01*
X121835079Y-81870842D01*
X121824975Y-81800568D01*
X121842433Y-81752385D01*
X121887814Y-81678762D01*
X121893963Y-81665576D01*
X121945138Y-81511290D01*
X121948005Y-81497914D01*
X121957672Y-81403562D01*
X121958000Y-81397146D01*
X121958000Y-80268115D01*
X121953525Y-80252876D01*
X121952135Y-80251671D01*
X121944452Y-80250000D01*
X119360116Y-80250000D01*
X119344877Y-80254475D01*
X119343672Y-80255865D01*
X119342001Y-80263548D01*
X119342001Y-81397095D01*
X119342338Y-81403614D01*
X119352257Y-81499206D01*
X119355149Y-81512600D01*
X119406588Y-81666784D01*
X119412761Y-81679962D01*
X119457462Y-81752197D01*
X119476300Y-81820649D01*
X119455139Y-81888418D01*
X119400698Y-81933990D01*
X119350318Y-81944500D01*
X118481187Y-81944500D01*
X118451463Y-81945230D01*
X118439113Y-81945837D01*
X118409485Y-81948023D01*
X118408730Y-81948097D01*
X118408711Y-81948099D01*
X118234460Y-81965262D01*
X118234455Y-81965263D01*
X118232908Y-81965415D01*
X118186903Y-81972239D01*
X118175701Y-81973900D01*
X118175696Y-81973901D01*
X118174158Y-81974129D01*
X118149941Y-81978945D01*
X118148470Y-81979313D01*
X118148463Y-81979315D01*
X118093778Y-81993011D01*
X118093757Y-81993017D01*
X118092279Y-81993387D01*
X117928427Y-82043090D01*
X117926981Y-82043607D01*
X117926958Y-82043615D01*
X117892482Y-82055952D01*
X117872463Y-82063115D01*
X117849643Y-82072568D01*
X117848259Y-82073222D01*
X117848249Y-82073227D01*
X117797338Y-82097306D01*
X117797329Y-82097310D01*
X117795941Y-82097967D01*
X117644939Y-82178679D01*
X117593966Y-82209232D01*
X117573439Y-82222948D01*
X117525718Y-82258340D01*
X117524542Y-82259305D01*
X117524537Y-82259309D01*
X117444199Y-82325241D01*
X117393355Y-82366967D01*
X117349326Y-82406873D01*
X117331873Y-82424326D01*
X117291967Y-82468355D01*
X117183340Y-82600718D01*
X117147947Y-82648439D01*
X117134229Y-82668969D01*
X117133445Y-82670277D01*
X117133433Y-82670296D01*
X117104481Y-82718601D01*
X117103677Y-82719943D01*
X117102952Y-82721299D01*
X117102942Y-82721317D01*
X117023701Y-82869568D01*
X117022967Y-82870942D01*
X116997571Y-82924634D01*
X116988118Y-82947453D01*
X116987610Y-82948873D01*
X116987601Y-82948896D01*
X116968614Y-83001959D01*
X116968089Y-83003427D01*
X116967637Y-83004916D01*
X116967637Y-83004917D01*
X116925106Y-83145128D01*
X116918386Y-83167280D01*
X116903946Y-83224931D01*
X116899129Y-83249151D01*
X116898905Y-83250664D01*
X116898902Y-83250679D01*
X116895222Y-83275493D01*
X116890414Y-83307914D01*
X116873023Y-83484488D01*
X116870837Y-83514113D01*
X116870230Y-83526463D01*
X116869500Y-83556187D01*
X116869500Y-101474000D01*
X116849498Y-101542121D01*
X116795842Y-101588614D01*
X116743500Y-101600000D01*
X112247006Y-101600000D01*
X112178885Y-101579998D01*
X112132392Y-101526342D01*
X112122288Y-101456068D01*
X112135884Y-101414605D01*
X112207589Y-101280452D01*
X112207598Y-101280435D01*
X112208334Y-101279058D01*
X112233733Y-101225357D01*
X112243186Y-101202537D01*
X112250349Y-101182518D01*
X112262686Y-101148042D01*
X112262694Y-101148019D01*
X112263211Y-101146573D01*
X112312914Y-100982721D01*
X112327355Y-100925069D01*
X112332172Y-100900849D01*
X112340887Y-100842086D01*
X112358278Y-100665512D01*
X112360464Y-100635887D01*
X112361071Y-100623537D01*
X112361801Y-100593813D01*
X112361801Y-93386123D01*
X113652505Y-93386123D01*
X113658232Y-93393773D01*
X113701368Y-93420207D01*
X113710162Y-93424688D01*
X113920311Y-93511734D01*
X113929696Y-93514783D01*
X114150877Y-93567885D01*
X114160624Y-93569428D01*
X114387393Y-93587275D01*
X114397253Y-93587275D01*
X114624022Y-93569428D01*
X114633769Y-93567885D01*
X114854950Y-93514783D01*
X114864335Y-93511734D01*
X115074484Y-93424688D01*
X115083278Y-93420207D01*
X115122748Y-93396020D01*
X115132208Y-93385564D01*
X115128424Y-93376786D01*
X114405135Y-92653497D01*
X114391191Y-92645883D01*
X114389358Y-92646014D01*
X114382743Y-92650265D01*
X113659265Y-93373743D01*
X113652505Y-93386123D01*
X112361801Y-93386123D01*
X112361801Y-92079930D01*
X112880048Y-92079930D01*
X112897895Y-92306699D01*
X112899438Y-92316446D01*
X112952540Y-92537627D01*
X112955589Y-92547012D01*
X113042635Y-92757161D01*
X113047116Y-92765955D01*
X113071303Y-92805425D01*
X113081759Y-92814885D01*
X113090537Y-92811101D01*
X113813826Y-92087812D01*
X113820204Y-92076132D01*
X114963206Y-92076132D01*
X114963337Y-92077965D01*
X114967588Y-92084580D01*
X115691066Y-92808058D01*
X115703446Y-92814818D01*
X115711096Y-92809091D01*
X115737530Y-92765955D01*
X115742011Y-92757161D01*
X115829057Y-92547012D01*
X115832106Y-92537627D01*
X115885208Y-92316446D01*
X115886751Y-92306699D01*
X115904598Y-92079930D01*
X115904598Y-92070070D01*
X115886751Y-91843301D01*
X115885208Y-91833554D01*
X115832106Y-91612373D01*
X115829057Y-91602988D01*
X115742011Y-91392839D01*
X115737530Y-91384045D01*
X115713343Y-91344575D01*
X115702887Y-91335115D01*
X115694109Y-91338899D01*
X114970820Y-92062188D01*
X114963206Y-92076132D01*
X113820204Y-92076132D01*
X113821440Y-92073868D01*
X113821309Y-92072035D01*
X113817058Y-92065420D01*
X113093580Y-91341942D01*
X113081200Y-91335182D01*
X113073550Y-91340909D01*
X113047116Y-91384045D01*
X113042635Y-91392839D01*
X112955589Y-91602988D01*
X112952540Y-91612373D01*
X112899438Y-91833554D01*
X112897895Y-91843301D01*
X112880048Y-92070070D01*
X112880048Y-92079930D01*
X112361801Y-92079930D01*
X112361801Y-90764436D01*
X113652438Y-90764436D01*
X113656222Y-90773214D01*
X114379511Y-91496503D01*
X114393455Y-91504117D01*
X114395288Y-91503986D01*
X114401903Y-91499735D01*
X115125381Y-90776257D01*
X115132141Y-90763877D01*
X115126414Y-90756227D01*
X115083278Y-90729793D01*
X115074484Y-90725312D01*
X114864335Y-90638266D01*
X114854950Y-90635217D01*
X114633769Y-90582115D01*
X114624022Y-90580572D01*
X114397253Y-90562725D01*
X114387393Y-90562725D01*
X114160624Y-90580572D01*
X114150877Y-90582115D01*
X113929696Y-90635217D01*
X113920311Y-90638266D01*
X113710162Y-90725312D01*
X113701368Y-90729793D01*
X113661898Y-90753980D01*
X113652438Y-90764436D01*
X112361801Y-90764436D01*
X112361801Y-79431885D01*
X119342000Y-79431885D01*
X119346475Y-79447124D01*
X119347865Y-79448329D01*
X119355548Y-79450000D01*
X120231885Y-79450000D01*
X120247124Y-79445525D01*
X120248329Y-79444135D01*
X120250000Y-79436452D01*
X120250000Y-79431885D01*
X121050000Y-79431885D01*
X121054475Y-79447124D01*
X121055865Y-79448329D01*
X121063548Y-79450000D01*
X121939884Y-79450000D01*
X121955123Y-79445525D01*
X121956328Y-79444135D01*
X121957999Y-79436452D01*
X121957999Y-78302905D01*
X121957662Y-78296386D01*
X121947743Y-78200794D01*
X121944851Y-78187400D01*
X121893412Y-78033216D01*
X121887239Y-78020038D01*
X121801937Y-77882193D01*
X121792901Y-77870792D01*
X121678171Y-77756261D01*
X121666760Y-77747249D01*
X121528757Y-77662184D01*
X121515576Y-77656037D01*
X121361290Y-77604862D01*
X121347914Y-77601995D01*
X121253562Y-77592328D01*
X121247145Y-77592000D01*
X121068115Y-77592000D01*
X121052876Y-77596475D01*
X121051671Y-77597865D01*
X121050000Y-77605548D01*
X121050000Y-79431885D01*
X120250000Y-79431885D01*
X120250000Y-77610116D01*
X120245525Y-77594877D01*
X120244135Y-77593672D01*
X120236452Y-77592001D01*
X120052905Y-77592001D01*
X120046386Y-77592338D01*
X119950794Y-77602257D01*
X119937400Y-77605149D01*
X119783216Y-77656588D01*
X119770038Y-77662761D01*
X119632193Y-77748063D01*
X119620792Y-77757099D01*
X119506261Y-77871829D01*
X119497249Y-77883240D01*
X119412184Y-78021243D01*
X119406037Y-78034424D01*
X119354862Y-78188710D01*
X119351995Y-78202086D01*
X119342328Y-78296438D01*
X119342000Y-78302855D01*
X119342000Y-79431885D01*
X112361801Y-79431885D01*
X112361801Y-75301187D01*
X112361071Y-75271463D01*
X112360464Y-75259113D01*
X112358278Y-75229488D01*
X112340887Y-75052914D01*
X112332172Y-74994151D01*
X112327355Y-74969931D01*
X112312915Y-74912280D01*
X112263212Y-74748427D01*
X112262687Y-74746959D01*
X112243700Y-74693896D01*
X112243691Y-74693873D01*
X112243183Y-74692453D01*
X112233730Y-74669634D01*
X112208334Y-74615942D01*
X112207600Y-74614568D01*
X112128359Y-74466317D01*
X112128349Y-74466299D01*
X112127624Y-74464943D01*
X112126820Y-74463601D01*
X112097868Y-74415296D01*
X112097856Y-74415277D01*
X112097072Y-74413969D01*
X112083354Y-74393439D01*
X112047961Y-74345718D01*
X111939334Y-74213355D01*
X111899428Y-74169326D01*
X111881975Y-74151873D01*
X111837946Y-74111967D01*
X111705583Y-74003340D01*
X111657862Y-73967948D01*
X111637335Y-73954232D01*
X111586362Y-73923679D01*
X111435360Y-73842967D01*
X111433972Y-73842310D01*
X111433963Y-73842306D01*
X111383052Y-73818227D01*
X111383042Y-73818222D01*
X111381658Y-73817568D01*
X111358838Y-73808115D01*
X111338819Y-73800952D01*
X111304343Y-73788615D01*
X111304320Y-73788607D01*
X111302874Y-73788090D01*
X111142681Y-73739497D01*
X111140434Y-73738992D01*
X111140421Y-73738989D01*
X111058008Y-73720483D01*
X111058002Y-73720482D01*
X111055758Y-73719978D01*
X111053472Y-73719639D01*
X111053467Y-73719638D01*
X111021479Y-73714893D01*
X111021468Y-73714892D01*
X111019184Y-73714553D01*
X111016884Y-73714383D01*
X111016881Y-73714383D01*
X110932653Y-73708170D01*
X110932643Y-73708170D01*
X110930343Y-73708000D01*
X109781979Y-73708000D01*
X109769113Y-73707341D01*
X109766921Y-73707116D01*
X109701199Y-73680263D01*
X109672645Y-73648082D01*
X109663212Y-73632838D01*
X109650836Y-73606416D01*
X109648476Y-73599342D01*
X109642000Y-73559467D01*
X109642000Y-70560000D01*
X127819457Y-70560000D01*
X127839609Y-70867460D01*
X127840413Y-70871500D01*
X127840413Y-70871503D01*
X127897369Y-71157838D01*
X127899720Y-71169659D01*
X127901045Y-71173563D01*
X127901046Y-71173566D01*
X127997436Y-71457521D01*
X127998762Y-71461427D01*
X128000586Y-71465125D01*
X128106316Y-71679524D01*
X128135040Y-71737771D01*
X128306222Y-71993964D01*
X128308936Y-71997058D01*
X128308940Y-71997064D01*
X128506671Y-72222531D01*
X128509380Y-72225620D01*
X128512469Y-72228329D01*
X128737936Y-72426060D01*
X128737942Y-72426064D01*
X128741036Y-72428778D01*
X128744462Y-72431067D01*
X128744467Y-72431071D01*
X128936501Y-72559384D01*
X128997228Y-72599960D01*
X129000927Y-72601784D01*
X129000932Y-72601787D01*
X129142829Y-72671763D01*
X129273573Y-72736238D01*
X129277478Y-72737564D01*
X129277479Y-72737564D01*
X129561434Y-72833954D01*
X129561437Y-72833955D01*
X129565341Y-72835280D01*
X129569380Y-72836083D01*
X129569386Y-72836085D01*
X129863497Y-72894587D01*
X129863500Y-72894587D01*
X129867540Y-72895391D01*
X129871651Y-72895660D01*
X129871655Y-72895661D01*
X130170881Y-72915273D01*
X130175000Y-72915543D01*
X130179119Y-72915273D01*
X130478345Y-72895661D01*
X130478349Y-72895660D01*
X130482460Y-72895391D01*
X130486500Y-72894587D01*
X130486503Y-72894587D01*
X130780614Y-72836085D01*
X130780620Y-72836083D01*
X130784659Y-72835280D01*
X130788563Y-72833955D01*
X130788566Y-72833954D01*
X131072521Y-72737564D01*
X131072522Y-72737564D01*
X131076427Y-72736238D01*
X131207171Y-72671763D01*
X131349068Y-72601787D01*
X131349073Y-72601784D01*
X131352772Y-72599960D01*
X131413499Y-72559384D01*
X131605533Y-72431071D01*
X131605538Y-72431067D01*
X131608964Y-72428778D01*
X131612058Y-72426064D01*
X131612064Y-72426060D01*
X131837531Y-72228329D01*
X131840620Y-72225620D01*
X131843329Y-72222531D01*
X132041060Y-71997064D01*
X132041064Y-71997058D01*
X132043778Y-71993964D01*
X132214960Y-71737771D01*
X132243685Y-71679524D01*
X132349414Y-71465125D01*
X132351238Y-71461427D01*
X132352564Y-71457521D01*
X132448954Y-71173566D01*
X132448955Y-71173563D01*
X132450280Y-71169659D01*
X132452632Y-71157838D01*
X132509587Y-70871503D01*
X132509587Y-70871500D01*
X132510391Y-70867460D01*
X132530543Y-70560000D01*
X132510391Y-70252540D01*
X132509587Y-70248497D01*
X132451085Y-69954386D01*
X132451083Y-69954380D01*
X132450280Y-69950341D01*
X132445258Y-69935545D01*
X132352564Y-69662479D01*
X132352564Y-69662478D01*
X132351238Y-69658573D01*
X132262375Y-69478376D01*
X132216787Y-69385933D01*
X132216784Y-69385928D01*
X132214960Y-69382229D01*
X132043778Y-69126036D01*
X132041064Y-69122942D01*
X132041060Y-69122936D01*
X131843329Y-68897469D01*
X131840620Y-68894380D01*
X131832298Y-68887082D01*
X131612064Y-68693940D01*
X131612058Y-68693936D01*
X131608964Y-68691222D01*
X131605534Y-68688930D01*
X131605533Y-68688929D01*
X131356205Y-68522334D01*
X131352772Y-68520040D01*
X131349073Y-68518216D01*
X131349068Y-68518213D01*
X131207171Y-68448237D01*
X131076427Y-68383762D01*
X131072521Y-68382436D01*
X130788566Y-68286046D01*
X130788563Y-68286045D01*
X130784659Y-68284720D01*
X130780620Y-68283917D01*
X130780614Y-68283915D01*
X130486503Y-68225413D01*
X130486500Y-68225413D01*
X130482460Y-68224609D01*
X130478349Y-68224340D01*
X130478345Y-68224339D01*
X130179119Y-68204727D01*
X130175000Y-68204457D01*
X130170881Y-68204727D01*
X129871655Y-68224339D01*
X129871651Y-68224340D01*
X129867540Y-68224609D01*
X129863500Y-68225413D01*
X129863497Y-68225413D01*
X129569386Y-68283915D01*
X129569380Y-68283917D01*
X129565341Y-68284720D01*
X129561437Y-68286045D01*
X129561434Y-68286046D01*
X129277479Y-68382436D01*
X129273573Y-68383762D01*
X129142962Y-68448172D01*
X129000933Y-68518213D01*
X129000928Y-68518216D01*
X128997229Y-68520040D01*
X128741036Y-68691222D01*
X128737942Y-68693936D01*
X128737936Y-68693940D01*
X128517702Y-68887082D01*
X128509380Y-68894380D01*
X128506671Y-68897469D01*
X128308940Y-69122936D01*
X128308936Y-69122942D01*
X128306222Y-69126036D01*
X128135040Y-69382229D01*
X128133216Y-69385928D01*
X128133213Y-69385933D01*
X128087625Y-69478376D01*
X127998762Y-69658573D01*
X127997436Y-69662478D01*
X127997436Y-69662479D01*
X127904743Y-69935545D01*
X127899720Y-69950341D01*
X127898917Y-69954380D01*
X127898915Y-69954386D01*
X127840413Y-70248497D01*
X127839609Y-70252540D01*
X127819457Y-70560000D01*
X109642000Y-70560000D01*
X109642000Y-69941981D01*
X109642656Y-69929137D01*
X109645036Y-69905910D01*
X109645045Y-69905838D01*
X109645044Y-69905838D01*
X109645121Y-69905090D01*
X109645190Y-69904653D01*
X109645646Y-69900935D01*
X109645648Y-69900921D01*
X109645778Y-69900940D01*
X109647258Y-69891580D01*
X109659649Y-69833785D01*
X109661086Y-69827083D01*
X109666646Y-69772830D01*
X109664650Y-69666959D01*
X109664041Y-69634653D01*
X109664041Y-69634651D01*
X109663891Y-69626709D01*
X109660335Y-69613896D01*
X109622723Y-69478376D01*
X109622722Y-69478373D01*
X109621619Y-69474399D01*
X109593866Y-69409054D01*
X109577625Y-69382229D01*
X109507828Y-69266951D01*
X109504607Y-69261631D01*
X109399334Y-69133355D01*
X109398285Y-69132198D01*
X109398275Y-69132186D01*
X109360465Y-69090470D01*
X109360462Y-69090467D01*
X109359428Y-69089326D01*
X109341975Y-69071873D01*
X109297946Y-69031967D01*
X109222544Y-68970086D01*
X109166764Y-68924309D01*
X109166759Y-68924305D01*
X109165583Y-68923340D01*
X109117862Y-68887948D01*
X109097335Y-68874232D01*
X109046362Y-68843679D01*
X108895360Y-68762967D01*
X108893972Y-68762310D01*
X108893963Y-68762306D01*
X108843052Y-68738227D01*
X108843042Y-68738222D01*
X108841658Y-68737568D01*
X108818838Y-68728115D01*
X108798819Y-68720952D01*
X108764343Y-68708615D01*
X108764320Y-68708607D01*
X108762874Y-68708090D01*
X108699711Y-68688930D01*
X108600499Y-68658835D01*
X108600498Y-68658835D01*
X108599022Y-68658387D01*
X108597544Y-68658017D01*
X108597523Y-68658011D01*
X108542838Y-68644315D01*
X108542831Y-68644313D01*
X108541360Y-68643945D01*
X108517143Y-68639129D01*
X108515605Y-68638901D01*
X108515600Y-68638900D01*
X108504398Y-68637239D01*
X108458393Y-68630415D01*
X108456846Y-68630263D01*
X108456841Y-68630262D01*
X108282590Y-68613099D01*
X108282571Y-68613097D01*
X108281816Y-68613023D01*
X108252188Y-68610837D01*
X108239838Y-68610230D01*
X108210114Y-68609500D01*
X105142488Y-68609500D01*
X105112764Y-68610230D01*
X105100414Y-68610837D01*
X105070786Y-68613023D01*
X105070031Y-68613097D01*
X105070012Y-68613099D01*
X104895761Y-68630262D01*
X104895756Y-68630263D01*
X104894209Y-68630415D01*
X104848204Y-68637239D01*
X104837002Y-68638900D01*
X104836997Y-68638901D01*
X104835459Y-68639129D01*
X104811242Y-68643945D01*
X104809771Y-68644313D01*
X104809764Y-68644315D01*
X104755079Y-68658011D01*
X104755058Y-68658017D01*
X104753580Y-68658387D01*
X104752104Y-68658835D01*
X104752103Y-68658835D01*
X104652891Y-68688930D01*
X104589728Y-68708090D01*
X104588282Y-68708607D01*
X104588259Y-68708615D01*
X104553783Y-68720952D01*
X104533764Y-68728115D01*
X104510944Y-68737568D01*
X104509560Y-68738222D01*
X104509550Y-68738227D01*
X104458639Y-68762306D01*
X104458630Y-68762310D01*
X104457242Y-68762967D01*
X104306240Y-68843679D01*
X104255267Y-68874232D01*
X104234740Y-68887948D01*
X104187019Y-68923340D01*
X104185843Y-68924305D01*
X104185838Y-68924309D01*
X104130059Y-68970086D01*
X104054656Y-69031967D01*
X104010627Y-69071873D01*
X103993174Y-69089326D01*
X103992140Y-69090467D01*
X103992137Y-69090470D01*
X103954317Y-69132198D01*
X103953268Y-69133355D01*
X103952293Y-69134543D01*
X103952287Y-69134550D01*
X103886264Y-69215000D01*
X103844641Y-69265718D01*
X103809248Y-69313439D01*
X103795530Y-69333969D01*
X103794746Y-69335277D01*
X103794734Y-69335296D01*
X103765782Y-69383601D01*
X103764978Y-69384943D01*
X103764253Y-69386299D01*
X103764243Y-69386317D01*
X103685002Y-69534568D01*
X103684995Y-69534581D01*
X103684268Y-69535942D01*
X103658872Y-69589634D01*
X103649419Y-69612453D01*
X103648911Y-69613873D01*
X103648902Y-69613896D01*
X103641475Y-69634653D01*
X103629390Y-69668427D01*
X103628938Y-69669916D01*
X103628938Y-69669917D01*
X103581219Y-69827231D01*
X103579687Y-69832280D01*
X103565247Y-69889931D01*
X103560430Y-69914151D01*
X103560206Y-69915664D01*
X103560203Y-69915679D01*
X103555642Y-69946434D01*
X103551715Y-69972914D01*
X103534324Y-70149488D01*
X103532138Y-70179113D01*
X103531531Y-70191463D01*
X103530801Y-70221187D01*
X103530801Y-82843500D01*
X103510799Y-82911621D01*
X103457143Y-82958114D01*
X103404801Y-82969500D01*
X102018562Y-82969500D01*
X102008021Y-82969058D01*
X101956598Y-82964740D01*
X101949838Y-82965642D01*
X101949834Y-82965642D01*
X101876841Y-82975381D01*
X101873787Y-82975751D01*
X101800572Y-82983705D01*
X101800569Y-82983706D01*
X101793791Y-82984442D01*
X101787331Y-82986616D01*
X101784283Y-82987286D01*
X101783822Y-82987367D01*
X101783671Y-82987403D01*
X101783212Y-82987536D01*
X101780193Y-82988278D01*
X101773431Y-82989180D01*
X101767021Y-82991513D01*
X101767017Y-82991514D01*
X101697829Y-83016697D01*
X101694923Y-83017715D01*
X101625123Y-83041205D01*
X101625121Y-83041206D01*
X101618652Y-83043383D01*
X101612798Y-83046900D01*
X101609986Y-83048200D01*
X101609543Y-83048382D01*
X101609384Y-83048458D01*
X101608966Y-83048686D01*
X101606197Y-83050049D01*
X101599785Y-83052382D01*
X101594027Y-83056036D01*
X101594021Y-83056039D01*
X101531856Y-83095490D01*
X101529237Y-83097108D01*
X101466107Y-83135041D01*
X101466105Y-83135042D01*
X101460256Y-83138557D01*
X101455297Y-83143246D01*
X101452818Y-83145128D01*
X101452041Y-83145668D01*
X101448131Y-83148625D01*
X101443762Y-83151398D01*
X101439528Y-83155183D01*
X101386022Y-83208689D01*
X101383500Y-83211142D01*
X101344907Y-83247638D01*
X101325993Y-83265524D01*
X101322159Y-83271166D01*
X101317733Y-83276366D01*
X101317329Y-83276022D01*
X101310793Y-83283918D01*
X99654193Y-84940519D01*
X99622889Y-84963389D01*
X99458965Y-85047997D01*
X99283640Y-85182528D01*
X99202977Y-85271176D01*
X99161633Y-85316613D01*
X99134910Y-85345981D01*
X99131929Y-85350732D01*
X99131929Y-85350733D01*
X99091586Y-85415046D01*
X99017475Y-85533188D01*
X98935048Y-85738232D01*
X98890234Y-85954633D01*
X98887000Y-86010718D01*
X98887000Y-86678568D01*
X98901641Y-86842617D01*
X98903122Y-86848031D01*
X98903123Y-86848036D01*
X98906704Y-86861124D01*
X98959955Y-87055776D01*
X98962367Y-87060834D01*
X98962369Y-87060838D01*
X99026953Y-87196242D01*
X99055094Y-87255241D01*
X99058371Y-87259802D01*
X99058372Y-87259803D01*
X99109919Y-87331537D01*
X99184052Y-87434704D01*
X99188082Y-87438609D01*
X99290100Y-87537472D01*
X99342752Y-87588496D01*
X99526178Y-87711753D01*
X99728532Y-87800580D01*
X99733983Y-87801889D01*
X99733987Y-87801890D01*
X99937960Y-87850859D01*
X99937964Y-87850860D01*
X99943418Y-87852169D01*
X100053731Y-87858530D01*
X100158438Y-87864568D01*
X100158441Y-87864568D01*
X100164044Y-87864891D01*
X100383435Y-87838341D01*
X100388797Y-87836691D01*
X100388799Y-87836691D01*
X100513510Y-87798325D01*
X100594658Y-87773361D01*
X100599638Y-87770791D01*
X100599642Y-87770789D01*
X100786052Y-87674575D01*
X100786053Y-87674575D01*
X100791035Y-87672003D01*
X100966360Y-87537472D01*
X101059871Y-87434704D01*
X101111317Y-87378166D01*
X101111319Y-87378163D01*
X101115090Y-87374019D01*
X101150575Y-87317451D01*
X101229542Y-87191568D01*
X101229544Y-87191564D01*
X101232525Y-87186812D01*
X101314952Y-86981768D01*
X101359766Y-86765367D01*
X101363000Y-86709282D01*
X101363000Y-86041432D01*
X101348359Y-85877383D01*
X101342070Y-85854392D01*
X101319242Y-85770950D01*
X101320560Y-85699966D01*
X101351681Y-85648607D01*
X102292883Y-84707405D01*
X102355195Y-84673379D01*
X102381978Y-84670500D01*
X103404801Y-84670500D01*
X103472922Y-84690502D01*
X103519415Y-84744158D01*
X103530801Y-84796500D01*
X103530801Y-91343500D01*
X103510799Y-91411621D01*
X103457143Y-91458114D01*
X103404801Y-91469500D01*
X103183802Y-91469500D01*
X103182261Y-91469576D01*
X103182249Y-91469576D01*
X103158633Y-91470737D01*
X103124452Y-91472416D01*
X102950977Y-91489502D01*
X102949438Y-91489730D01*
X102949440Y-91489730D01*
X102893755Y-91497988D01*
X102893741Y-91497990D01*
X102892220Y-91498216D01*
X102890718Y-91498515D01*
X102890699Y-91498518D01*
X102873086Y-91502021D01*
X102867999Y-91503033D01*
X102866506Y-91503407D01*
X102866497Y-91503409D01*
X102864194Y-91503986D01*
X102810338Y-91517476D01*
X102808849Y-91517928D01*
X102808837Y-91517931D01*
X102679169Y-91557266D01*
X102655394Y-91564478D01*
X102653923Y-91565004D01*
X102653918Y-91565006D01*
X102600903Y-91583976D01*
X102600893Y-91583980D01*
X102599431Y-91584503D01*
X102576621Y-91593952D01*
X102522922Y-91619350D01*
X102521546Y-91620086D01*
X102521545Y-91620086D01*
X102420396Y-91674151D01*
X102350890Y-91688623D01*
X102284594Y-91663219D01*
X102242556Y-91606006D01*
X102235000Y-91563029D01*
X102235000Y-91440000D01*
X98517801Y-91440000D01*
X98449680Y-91419998D01*
X98403187Y-91366342D01*
X98391801Y-91314000D01*
X98391801Y-90479669D01*
X98667001Y-90479669D01*
X98667371Y-90486490D01*
X98672895Y-90537352D01*
X98676521Y-90552604D01*
X98721676Y-90673054D01*
X98730214Y-90688649D01*
X98806715Y-90790724D01*
X98819276Y-90803285D01*
X98921351Y-90879786D01*
X98936946Y-90888324D01*
X99057394Y-90933478D01*
X99072649Y-90937105D01*
X99123514Y-90942631D01*
X99130328Y-90943000D01*
X100006885Y-90943000D01*
X100022124Y-90938525D01*
X100023329Y-90937135D01*
X100025000Y-90929452D01*
X100025000Y-90924884D01*
X100825000Y-90924884D01*
X100829475Y-90940123D01*
X100830865Y-90941328D01*
X100838548Y-90942999D01*
X101719669Y-90942999D01*
X101726490Y-90942629D01*
X101777352Y-90937105D01*
X101792604Y-90933479D01*
X101913054Y-90888324D01*
X101928649Y-90879786D01*
X102030724Y-90803285D01*
X102043285Y-90790724D01*
X102119786Y-90688649D01*
X102128324Y-90673054D01*
X102173478Y-90552606D01*
X102177105Y-90537351D01*
X102182631Y-90486486D01*
X102183000Y-90479672D01*
X102183000Y-89953115D01*
X102178525Y-89937876D01*
X102177135Y-89936671D01*
X102169452Y-89935000D01*
X100843115Y-89935000D01*
X100827876Y-89939475D01*
X100826671Y-89940865D01*
X100825000Y-89948548D01*
X100825000Y-90924884D01*
X100025000Y-90924884D01*
X100025000Y-89953115D01*
X100020525Y-89937876D01*
X100019135Y-89936671D01*
X100011452Y-89935000D01*
X98685116Y-89935000D01*
X98669877Y-89939475D01*
X98668672Y-89940865D01*
X98667001Y-89948548D01*
X98667001Y-90479669D01*
X98391801Y-90479669D01*
X98391801Y-89116885D01*
X98667000Y-89116885D01*
X98671475Y-89132124D01*
X98672865Y-89133329D01*
X98680548Y-89135000D01*
X100006885Y-89135000D01*
X100022124Y-89130525D01*
X100023329Y-89129135D01*
X100025000Y-89121452D01*
X100025000Y-89116885D01*
X100825000Y-89116885D01*
X100829475Y-89132124D01*
X100830865Y-89133329D01*
X100838548Y-89135000D01*
X102164884Y-89135000D01*
X102180123Y-89130525D01*
X102181328Y-89129135D01*
X102182999Y-89121452D01*
X102182999Y-88590331D01*
X102182629Y-88583510D01*
X102177105Y-88532648D01*
X102173479Y-88517396D01*
X102128324Y-88396946D01*
X102119786Y-88381351D01*
X102043285Y-88279276D01*
X102030724Y-88266715D01*
X101928649Y-88190214D01*
X101913054Y-88181676D01*
X101792606Y-88136522D01*
X101777351Y-88132895D01*
X101726486Y-88127369D01*
X101719672Y-88127000D01*
X100843115Y-88127000D01*
X100827876Y-88131475D01*
X100826671Y-88132865D01*
X100825000Y-88140548D01*
X100825000Y-89116885D01*
X100025000Y-89116885D01*
X100025000Y-88145116D01*
X100020525Y-88129877D01*
X100019135Y-88128672D01*
X100011452Y-88127001D01*
X99130331Y-88127001D01*
X99123510Y-88127371D01*
X99072648Y-88132895D01*
X99057396Y-88136521D01*
X98936946Y-88181676D01*
X98921351Y-88190214D01*
X98819276Y-88266715D01*
X98806715Y-88279276D01*
X98730214Y-88381351D01*
X98721676Y-88396946D01*
X98676522Y-88517394D01*
X98672895Y-88532649D01*
X98667369Y-88583514D01*
X98667000Y-88590328D01*
X98667000Y-89116885D01*
X98391801Y-89116885D01*
X98391801Y-87644138D01*
X98377427Y-87512989D01*
X98365605Y-87459704D01*
X98316924Y-87321811D01*
X98228808Y-87190584D01*
X98226085Y-87187493D01*
X98226081Y-87187488D01*
X98214974Y-87174881D01*
X98215907Y-87174059D01*
X98214709Y-87173114D01*
X98214230Y-87173593D01*
X98213759Y-87173122D01*
X98211037Y-87170223D01*
X98210943Y-87170306D01*
X98210939Y-87170302D01*
X98187122Y-87143268D01*
X98185485Y-87144711D01*
X98184815Y-87144175D01*
X98140328Y-87099683D01*
X98134134Y-87092298D01*
X98135384Y-87090946D01*
X98030071Y-86993595D01*
X98014657Y-86976476D01*
X97971377Y-86918517D01*
X97946646Y-86851967D01*
X97948954Y-86817579D01*
X97958829Y-86769894D01*
X97958830Y-86769888D01*
X97959766Y-86765367D01*
X97963000Y-86709282D01*
X97963000Y-86041432D01*
X97948994Y-85884501D01*
X97962986Y-85814635D01*
X97995626Y-85752598D01*
X98013295Y-85716100D01*
X98028064Y-85682791D01*
X98029647Y-85678113D01*
X98061147Y-85584989D01*
X98063390Y-85578358D01*
X98079818Y-85421147D01*
X98077917Y-85350176D01*
X98076460Y-85321392D01*
X98044239Y-85166644D01*
X97973064Y-85025508D01*
X97970754Y-85022117D01*
X97970750Y-85022110D01*
X97935628Y-84970550D01*
X97935628Y-84970549D01*
X97933096Y-84966833D01*
X97816795Y-84839659D01*
X97756703Y-84790342D01*
X97708965Y-84754938D01*
X97688428Y-84741216D01*
X97670973Y-84730754D01*
X97638809Y-84711475D01*
X97638798Y-84711469D01*
X97637467Y-84710671D01*
X97494680Y-84634350D01*
X97440981Y-84608952D01*
X97418171Y-84599503D01*
X97416709Y-84598980D01*
X97416699Y-84598976D01*
X97363684Y-84580006D01*
X97363679Y-84580004D01*
X97362208Y-84579478D01*
X97338433Y-84572266D01*
X97208765Y-84532931D01*
X97208753Y-84532928D01*
X97207264Y-84532476D01*
X97149608Y-84518034D01*
X97125388Y-84513217D01*
X97096006Y-84508859D01*
X97068129Y-84504725D01*
X97068121Y-84504724D01*
X97066624Y-84504502D01*
X97065111Y-84504353D01*
X97065103Y-84504352D01*
X97007839Y-84498712D01*
X96907064Y-84488786D01*
X96907054Y-84488785D01*
X96905498Y-84488632D01*
X96881372Y-84487447D01*
X96847701Y-84485792D01*
X96847687Y-84485792D01*
X96846147Y-84485716D01*
X96821455Y-84485716D01*
X96819914Y-84485792D01*
X96819902Y-84485792D01*
X96796286Y-84486953D01*
X96762105Y-84488632D01*
X96625151Y-84502121D01*
X96555398Y-84488893D01*
X96503870Y-84440053D01*
X96486801Y-84376728D01*
X96486801Y-83556187D01*
X96486071Y-83526463D01*
X96485464Y-83514113D01*
X96483278Y-83484488D01*
X96465887Y-83307914D01*
X96461079Y-83275493D01*
X96457399Y-83250679D01*
X96457396Y-83250664D01*
X96457172Y-83249151D01*
X96452355Y-83224931D01*
X96437915Y-83167280D01*
X96431196Y-83145128D01*
X96388664Y-83004917D01*
X96388664Y-83004916D01*
X96388212Y-83003427D01*
X96387687Y-83001959D01*
X96368700Y-82948896D01*
X96368691Y-82948873D01*
X96368183Y-82947453D01*
X96358730Y-82924634D01*
X96333334Y-82870942D01*
X96332600Y-82869568D01*
X96253359Y-82721317D01*
X96253349Y-82721299D01*
X96252624Y-82719943D01*
X96251820Y-82718601D01*
X96222868Y-82670296D01*
X96222856Y-82670277D01*
X96222072Y-82668969D01*
X96208354Y-82648439D01*
X96172961Y-82600718D01*
X96064334Y-82468355D01*
X96024428Y-82424326D01*
X96006975Y-82406873D01*
X95962946Y-82366967D01*
X95912103Y-82325241D01*
X95831764Y-82259309D01*
X95831759Y-82259305D01*
X95830583Y-82258340D01*
X95782862Y-82222948D01*
X95762335Y-82209232D01*
X95711362Y-82178679D01*
X95560360Y-82097967D01*
X95558972Y-82097310D01*
X95558963Y-82097306D01*
X95508052Y-82073227D01*
X95508042Y-82073222D01*
X95506658Y-82072568D01*
X95483838Y-82063115D01*
X95463819Y-82055952D01*
X95429343Y-82043615D01*
X95429320Y-82043607D01*
X95427874Y-82043090D01*
X95264022Y-81993387D01*
X95262544Y-81993017D01*
X95262523Y-81993011D01*
X95207838Y-81979315D01*
X95207831Y-81979313D01*
X95206360Y-81978945D01*
X95182143Y-81974129D01*
X95180605Y-81973901D01*
X95180600Y-81973900D01*
X95169398Y-81972239D01*
X95123393Y-81965415D01*
X95121846Y-81965263D01*
X95121841Y-81965262D01*
X94947590Y-81948099D01*
X94947571Y-81948097D01*
X94946816Y-81948023D01*
X94917188Y-81945837D01*
X94904838Y-81945230D01*
X94875114Y-81944500D01*
X90199693Y-81944500D01*
X90131572Y-81924498D01*
X90085079Y-81870842D01*
X90074975Y-81800568D01*
X90092433Y-81752385D01*
X90137814Y-81678762D01*
X90143963Y-81665576D01*
X90195138Y-81511290D01*
X90198005Y-81497914D01*
X90207672Y-81403562D01*
X90208000Y-81397146D01*
X90208000Y-80268115D01*
X90203525Y-80252876D01*
X90202135Y-80251671D01*
X90194452Y-80250000D01*
X87610116Y-80250000D01*
X87594877Y-80254475D01*
X87593672Y-80255865D01*
X87592001Y-80263548D01*
X87592001Y-81397095D01*
X87592338Y-81403614D01*
X87602257Y-81499206D01*
X87605149Y-81512600D01*
X87656588Y-81666784D01*
X87662761Y-81679962D01*
X87707462Y-81752197D01*
X87726300Y-81820649D01*
X87705139Y-81888418D01*
X87650698Y-81933990D01*
X87600318Y-81944500D01*
X86727488Y-81944500D01*
X86697764Y-81945230D01*
X86685414Y-81945837D01*
X86655786Y-81948023D01*
X86655031Y-81948097D01*
X86655012Y-81948099D01*
X86480761Y-81965262D01*
X86480756Y-81965263D01*
X86479209Y-81965415D01*
X86433204Y-81972239D01*
X86422002Y-81973900D01*
X86421997Y-81973901D01*
X86420459Y-81974129D01*
X86396242Y-81978945D01*
X86394771Y-81979313D01*
X86394764Y-81979315D01*
X86340079Y-81993011D01*
X86340058Y-81993017D01*
X86338580Y-81993387D01*
X86174728Y-82043090D01*
X86173282Y-82043607D01*
X86173259Y-82043615D01*
X86138783Y-82055952D01*
X86118764Y-82063115D01*
X86095944Y-82072568D01*
X86094560Y-82073222D01*
X86094550Y-82073227D01*
X86043639Y-82097306D01*
X86043630Y-82097310D01*
X86042242Y-82097967D01*
X85891240Y-82178679D01*
X85881277Y-82184651D01*
X85812565Y-82202516D01*
X85745102Y-82180396D01*
X85700308Y-82125314D01*
X85690500Y-82076577D01*
X85690500Y-79431885D01*
X87592000Y-79431885D01*
X87596475Y-79447124D01*
X87597865Y-79448329D01*
X87605548Y-79450000D01*
X88481885Y-79450000D01*
X88497124Y-79445525D01*
X88498329Y-79444135D01*
X88500000Y-79436452D01*
X88500000Y-79431885D01*
X89300000Y-79431885D01*
X89304475Y-79447124D01*
X89305865Y-79448329D01*
X89313548Y-79450000D01*
X90189884Y-79450000D01*
X90205123Y-79445525D01*
X90206328Y-79444135D01*
X90207999Y-79436452D01*
X90207999Y-78302905D01*
X90207662Y-78296386D01*
X90197743Y-78200794D01*
X90194851Y-78187400D01*
X90143412Y-78033216D01*
X90137239Y-78020038D01*
X90051937Y-77882193D01*
X90042901Y-77870792D01*
X89928171Y-77756261D01*
X89916760Y-77747249D01*
X89778757Y-77662184D01*
X89765576Y-77656037D01*
X89611290Y-77604862D01*
X89597914Y-77601995D01*
X89503562Y-77592328D01*
X89497145Y-77592000D01*
X89318115Y-77592000D01*
X89302876Y-77596475D01*
X89301671Y-77597865D01*
X89300000Y-77605548D01*
X89300000Y-79431885D01*
X88500000Y-79431885D01*
X88500000Y-77610116D01*
X88495525Y-77594877D01*
X88494135Y-77593672D01*
X88486452Y-77592001D01*
X88302905Y-77592001D01*
X88296386Y-77592338D01*
X88200794Y-77602257D01*
X88187400Y-77605149D01*
X88033216Y-77656588D01*
X88020038Y-77662761D01*
X87882193Y-77748063D01*
X87870792Y-77757099D01*
X87756261Y-77871829D01*
X87747249Y-77883240D01*
X87662184Y-78021243D01*
X87656037Y-78034424D01*
X87604862Y-78188710D01*
X87601995Y-78202086D01*
X87592328Y-78296438D01*
X87592000Y-78302855D01*
X87592000Y-79431885D01*
X85690500Y-79431885D01*
X85690500Y-69262619D01*
X85691578Y-69246173D01*
X85694604Y-69223188D01*
X85695682Y-69215000D01*
X85693842Y-69201025D01*
X85693034Y-69176336D01*
X85706553Y-68970086D01*
X85708704Y-68953746D01*
X85754976Y-68721118D01*
X85759240Y-68705205D01*
X85835482Y-68480604D01*
X85841788Y-68465380D01*
X85946691Y-68252658D01*
X85954932Y-68238384D01*
X86086704Y-68041172D01*
X86096737Y-68028097D01*
X86253127Y-67849768D01*
X86264768Y-67838127D01*
X86443097Y-67681737D01*
X86456172Y-67671704D01*
X86653384Y-67539932D01*
X86667658Y-67531691D01*
X86880380Y-67426788D01*
X86895606Y-67420481D01*
X87120205Y-67344240D01*
X87136115Y-67339977D01*
X87331739Y-67301065D01*
X87368746Y-67293704D01*
X87385086Y-67291553D01*
X87476502Y-67285561D01*
X87545785Y-67301065D01*
X87595688Y-67351564D01*
X87610366Y-67421027D01*
X87585160Y-67487399D01*
X87574612Y-67499606D01*
X87571350Y-67502925D01*
X87571339Y-67502937D01*
X87568648Y-67505676D01*
X87566307Y-67508727D01*
X87566306Y-67508728D01*
X87377326Y-67755011D01*
X87377321Y-67755019D01*
X87374991Y-67758055D01*
X87373042Y-67761364D01*
X87215924Y-68028097D01*
X87213534Y-68032154D01*
X87086685Y-68323886D01*
X87085591Y-68327580D01*
X87085589Y-68327585D01*
X87046206Y-68460542D01*
X86996335Y-68628903D01*
X86943831Y-68942657D01*
X86929955Y-69260471D01*
X86954914Y-69577607D01*
X87018336Y-69889338D01*
X87119276Y-70191016D01*
X87120925Y-70194474D01*
X87120927Y-70194478D01*
X87150584Y-70256655D01*
X87256229Y-70478143D01*
X87427153Y-70746440D01*
X87629500Y-70991907D01*
X87860254Y-71210884D01*
X88115975Y-71400108D01*
X88217452Y-71457521D01*
X88389492Y-71554857D01*
X88389496Y-71554859D01*
X88392849Y-71556756D01*
X88686751Y-71678494D01*
X88788083Y-71706596D01*
X88989582Y-71762477D01*
X88989590Y-71762479D01*
X88993298Y-71763507D01*
X89307921Y-71810528D01*
X89311219Y-71810672D01*
X89420427Y-71815440D01*
X89420432Y-71815440D01*
X89421804Y-71815500D01*
X89615799Y-71815500D01*
X89852524Y-71801021D01*
X89856307Y-71800320D01*
X89856314Y-71800319D01*
X90054931Y-71763507D01*
X90165313Y-71743049D01*
X90374732Y-71677020D01*
X90465035Y-71648548D01*
X90465038Y-71648547D01*
X90468707Y-71647390D01*
X90472204Y-71645796D01*
X90472210Y-71645794D01*
X90754673Y-71517068D01*
X90754677Y-71517066D01*
X90758181Y-71515469D01*
X90840335Y-71465125D01*
X91026142Y-71351262D01*
X91026145Y-71351260D01*
X91029420Y-71349253D01*
X91032424Y-71346863D01*
X91032429Y-71346860D01*
X91275370Y-71153616D01*
X91278381Y-71151221D01*
X91285345Y-71144135D01*
X91437850Y-70988944D01*
X91501352Y-70924324D01*
X91635572Y-70749405D01*
X91692674Y-70674989D01*
X91692679Y-70674981D01*
X91695009Y-70671945D01*
X91760950Y-70560000D01*
X96069457Y-70560000D01*
X96089609Y-70867460D01*
X96090413Y-70871500D01*
X96090413Y-70871503D01*
X96147369Y-71157838D01*
X96149720Y-71169659D01*
X96151045Y-71173563D01*
X96151046Y-71173566D01*
X96247436Y-71457521D01*
X96248762Y-71461427D01*
X96250586Y-71465125D01*
X96356316Y-71679524D01*
X96385040Y-71737771D01*
X96556222Y-71993964D01*
X96558936Y-71997058D01*
X96558940Y-71997064D01*
X96756671Y-72222531D01*
X96759380Y-72225620D01*
X96762469Y-72228329D01*
X96987936Y-72426060D01*
X96987942Y-72426064D01*
X96991036Y-72428778D01*
X96994462Y-72431067D01*
X96994467Y-72431071D01*
X97186501Y-72559384D01*
X97247228Y-72599960D01*
X97250927Y-72601784D01*
X97250932Y-72601787D01*
X97392829Y-72671763D01*
X97523573Y-72736238D01*
X97527478Y-72737564D01*
X97527479Y-72737564D01*
X97811434Y-72833954D01*
X97811437Y-72833955D01*
X97815341Y-72835280D01*
X97819380Y-72836083D01*
X97819386Y-72836085D01*
X98113497Y-72894587D01*
X98113500Y-72894587D01*
X98117540Y-72895391D01*
X98121651Y-72895660D01*
X98121655Y-72895661D01*
X98420881Y-72915273D01*
X98425000Y-72915543D01*
X98429119Y-72915273D01*
X98728345Y-72895661D01*
X98728349Y-72895660D01*
X98732460Y-72895391D01*
X98736500Y-72894587D01*
X98736503Y-72894587D01*
X99030614Y-72836085D01*
X99030620Y-72836083D01*
X99034659Y-72835280D01*
X99038563Y-72833955D01*
X99038566Y-72833954D01*
X99322521Y-72737564D01*
X99322522Y-72737564D01*
X99326427Y-72736238D01*
X99457171Y-72671763D01*
X99599068Y-72601787D01*
X99599073Y-72601784D01*
X99602772Y-72599960D01*
X99663499Y-72559384D01*
X99855533Y-72431071D01*
X99855538Y-72431067D01*
X99858964Y-72428778D01*
X99862058Y-72426064D01*
X99862064Y-72426060D01*
X100087531Y-72228329D01*
X100090620Y-72225620D01*
X100093329Y-72222531D01*
X100291060Y-71997064D01*
X100291064Y-71997058D01*
X100293778Y-71993964D01*
X100464960Y-71737771D01*
X100493685Y-71679524D01*
X100599414Y-71465125D01*
X100601238Y-71461427D01*
X100602564Y-71457521D01*
X100698954Y-71173566D01*
X100698955Y-71173563D01*
X100700280Y-71169659D01*
X100702632Y-71157838D01*
X100759587Y-70871503D01*
X100759587Y-70871500D01*
X100760391Y-70867460D01*
X100780543Y-70560000D01*
X100760391Y-70252540D01*
X100759587Y-70248497D01*
X100701085Y-69954386D01*
X100701083Y-69954380D01*
X100700280Y-69950341D01*
X100695258Y-69935545D01*
X100602564Y-69662479D01*
X100602564Y-69662478D01*
X100601238Y-69658573D01*
X100512375Y-69478376D01*
X100466787Y-69385933D01*
X100466784Y-69385928D01*
X100464960Y-69382229D01*
X100293778Y-69126036D01*
X100291064Y-69122942D01*
X100291060Y-69122936D01*
X100093329Y-68897469D01*
X100090620Y-68894380D01*
X100082298Y-68887082D01*
X99862064Y-68693940D01*
X99862058Y-68693936D01*
X99858964Y-68691222D01*
X99855534Y-68688930D01*
X99855533Y-68688929D01*
X99606205Y-68522334D01*
X99602772Y-68520040D01*
X99599073Y-68518216D01*
X99599068Y-68518213D01*
X99457171Y-68448237D01*
X99326427Y-68383762D01*
X99322521Y-68382436D01*
X99038566Y-68286046D01*
X99038563Y-68286045D01*
X99034659Y-68284720D01*
X99030620Y-68283917D01*
X99030614Y-68283915D01*
X98736503Y-68225413D01*
X98736500Y-68225413D01*
X98732460Y-68224609D01*
X98728349Y-68224340D01*
X98728345Y-68224339D01*
X98429119Y-68204727D01*
X98425000Y-68204457D01*
X98420881Y-68204727D01*
X98121655Y-68224339D01*
X98121651Y-68224340D01*
X98117540Y-68224609D01*
X98113500Y-68225413D01*
X98113497Y-68225413D01*
X97819386Y-68283915D01*
X97819380Y-68283917D01*
X97815341Y-68284720D01*
X97811437Y-68286045D01*
X97811434Y-68286046D01*
X97527479Y-68382436D01*
X97523573Y-68383762D01*
X97392962Y-68448172D01*
X97250933Y-68518213D01*
X97250928Y-68518216D01*
X97247229Y-68520040D01*
X96991036Y-68691222D01*
X96987942Y-68693936D01*
X96987936Y-68693940D01*
X96767702Y-68887082D01*
X96759380Y-68894380D01*
X96756671Y-68897469D01*
X96558940Y-69122936D01*
X96558936Y-69122942D01*
X96556222Y-69126036D01*
X96385040Y-69382229D01*
X96383216Y-69385928D01*
X96383213Y-69385933D01*
X96337625Y-69478376D01*
X96248762Y-69658573D01*
X96247436Y-69662478D01*
X96247436Y-69662479D01*
X96154743Y-69935545D01*
X96149720Y-69950341D01*
X96148917Y-69954380D01*
X96148915Y-69954386D01*
X96090413Y-70248497D01*
X96089609Y-70252540D01*
X96069457Y-70560000D01*
X91760950Y-70560000D01*
X91807257Y-70481386D01*
X91854513Y-70401162D01*
X91854515Y-70401159D01*
X91856466Y-70397846D01*
X91983315Y-70106114D01*
X92073665Y-69801097D01*
X92126169Y-69487343D01*
X92140045Y-69169529D01*
X92118634Y-68897469D01*
X92115388Y-68856228D01*
X92115388Y-68856225D01*
X92115086Y-68852393D01*
X92051664Y-68540662D01*
X91950724Y-68238984D01*
X91943868Y-68224609D01*
X91815424Y-67955322D01*
X91815422Y-67955318D01*
X91813771Y-67951857D01*
X91642847Y-67683560D01*
X91476402Y-67481645D01*
X91448506Y-67416359D01*
X91460335Y-67346355D01*
X91508133Y-67293859D01*
X91573627Y-67275500D01*
X178934365Y-67275500D01*
X179002486Y-67295502D01*
G37*
G04 #@! TD.AperFunction*
G04 #@! TA.AperFunction,Conductor*
G36*
X135531163Y-120650607D02*
G01*
X135707740Y-120667999D01*
X135731957Y-120672815D01*
X135895809Y-120722518D01*
X135918629Y-120731971D01*
X136069631Y-120812683D01*
X136090158Y-120826399D01*
X136222521Y-120935026D01*
X136239974Y-120952479D01*
X136348601Y-121084842D01*
X136362319Y-121105372D01*
X136443029Y-121256371D01*
X136452482Y-121279190D01*
X136502185Y-121443043D01*
X136507002Y-121467263D01*
X136524393Y-121643837D01*
X136525000Y-121656187D01*
X136525000Y-131708813D01*
X136524393Y-131721163D01*
X136507002Y-131897737D01*
X136502185Y-131921957D01*
X136452482Y-132085809D01*
X136443030Y-132108627D01*
X136426318Y-132139894D01*
X136376566Y-132190543D01*
X136315195Y-132206500D01*
X99904805Y-132206500D01*
X99836684Y-132186498D01*
X99793682Y-132139894D01*
X99776970Y-132108627D01*
X99767518Y-132085809D01*
X99717815Y-131921957D01*
X99712998Y-131897737D01*
X99695607Y-131721163D01*
X99695000Y-131708813D01*
X99695000Y-129485400D01*
X114041500Y-129485400D01*
X114052474Y-129591166D01*
X114108450Y-129758946D01*
X114201522Y-129909348D01*
X114326697Y-130034305D01*
X114332927Y-130038145D01*
X114332928Y-130038146D01*
X114470090Y-130122694D01*
X114477262Y-130127115D01*
X114516568Y-130140152D01*
X114638611Y-130180632D01*
X114638613Y-130180632D01*
X114645139Y-130182797D01*
X114651975Y-130183497D01*
X114651978Y-130183498D01*
X114695031Y-130187909D01*
X114749600Y-130193500D01*
X117510400Y-130193500D01*
X117513646Y-130193163D01*
X117513650Y-130193163D01*
X117609308Y-130183238D01*
X117609312Y-130183237D01*
X117616166Y-130182526D01*
X117622702Y-130180345D01*
X117622704Y-130180345D01*
X117754806Y-130136272D01*
X117783946Y-130126550D01*
X117934348Y-130033478D01*
X118059305Y-129908303D01*
X118099103Y-129843738D01*
X128796500Y-129843738D01*
X128811295Y-130018102D01*
X128812633Y-130023259D01*
X128812634Y-130023262D01*
X128856820Y-130193500D01*
X128870067Y-130244540D01*
X128872259Y-130249406D01*
X128872260Y-130249409D01*
X128926558Y-130369945D01*
X128966150Y-130457837D01*
X129096798Y-130651896D01*
X129258276Y-130821168D01*
X129445965Y-130960813D01*
X129450716Y-130963229D01*
X129450720Y-130963231D01*
X129565197Y-131021434D01*
X129654500Y-131066838D01*
X129877917Y-131136210D01*
X129883204Y-131136911D01*
X129883205Y-131136911D01*
X130104545Y-131166248D01*
X130104549Y-131166248D01*
X130109829Y-131166948D01*
X130115158Y-131166748D01*
X130115160Y-131166748D01*
X130226717Y-131162560D01*
X130343604Y-131158172D01*
X130455813Y-131134628D01*
X130567332Y-131111229D01*
X130567335Y-131111228D01*
X130572559Y-131110132D01*
X130790146Y-131024203D01*
X130899860Y-130957627D01*
X130985583Y-130905609D01*
X130985586Y-130905607D01*
X130990144Y-130902841D01*
X131166834Y-130749517D01*
X131315165Y-130568614D01*
X131430896Y-130365305D01*
X131510716Y-130145404D01*
X131514126Y-130126550D01*
X131530111Y-130038146D01*
X131552344Y-129915197D01*
X131552670Y-129908303D01*
X131553430Y-129892172D01*
X131553430Y-129892165D01*
X131553500Y-129890684D01*
X131553500Y-129276262D01*
X131538705Y-129101898D01*
X131479933Y-128875460D01*
X131425533Y-128754695D01*
X131386045Y-128667036D01*
X131383850Y-128662163D01*
X131253202Y-128468104D01*
X131091724Y-128298832D01*
X130904035Y-128159187D01*
X130899284Y-128156771D01*
X130899280Y-128156769D01*
X130700256Y-128055580D01*
X130700255Y-128055580D01*
X130695500Y-128053162D01*
X130472083Y-127983790D01*
X130466796Y-127983089D01*
X130466795Y-127983089D01*
X130245455Y-127953752D01*
X130245451Y-127953752D01*
X130240171Y-127953052D01*
X130234842Y-127953252D01*
X130234840Y-127953252D01*
X130123283Y-127957440D01*
X130006396Y-127961828D01*
X129922411Y-127979450D01*
X129782668Y-128008771D01*
X129782665Y-128008772D01*
X129777441Y-128009868D01*
X129559854Y-128095797D01*
X129555290Y-128098566D01*
X129555291Y-128098566D01*
X129364417Y-128214391D01*
X129364414Y-128214393D01*
X129359856Y-128217159D01*
X129183166Y-128370483D01*
X129034835Y-128551386D01*
X128919104Y-128754695D01*
X128839284Y-128974596D01*
X128797656Y-129204803D01*
X128796500Y-129229316D01*
X128796500Y-129843738D01*
X118099103Y-129843738D01*
X118100743Y-129841078D01*
X118148275Y-129763968D01*
X118148276Y-129763966D01*
X118152115Y-129757738D01*
X118207797Y-129589861D01*
X118218500Y-129485400D01*
X118218500Y-125784600D01*
X118207526Y-125678834D01*
X118200062Y-125656460D01*
X118153868Y-125518002D01*
X118151550Y-125511054D01*
X118058478Y-125360652D01*
X117933303Y-125235695D01*
X117927072Y-125231854D01*
X117788968Y-125146725D01*
X117788966Y-125146724D01*
X117782738Y-125142885D01*
X117622254Y-125089655D01*
X117621389Y-125089368D01*
X117621387Y-125089368D01*
X117614861Y-125087203D01*
X117608025Y-125086503D01*
X117608022Y-125086502D01*
X117564969Y-125082091D01*
X117510400Y-125076500D01*
X114749600Y-125076500D01*
X114746354Y-125076837D01*
X114746350Y-125076837D01*
X114650692Y-125086762D01*
X114650688Y-125086763D01*
X114643834Y-125087474D01*
X114637298Y-125089655D01*
X114637296Y-125089655D01*
X114505194Y-125133728D01*
X114476054Y-125143450D01*
X114325652Y-125236522D01*
X114200695Y-125361697D01*
X114196855Y-125367927D01*
X114196854Y-125367928D01*
X114134663Y-125468821D01*
X114107885Y-125512262D01*
X114052203Y-125680139D01*
X114041500Y-125784600D01*
X114041500Y-129485400D01*
X99695000Y-129485400D01*
X99695000Y-121656187D01*
X99695607Y-121643837D01*
X99712998Y-121467263D01*
X99717815Y-121443043D01*
X99767518Y-121279190D01*
X99776971Y-121256371D01*
X99857681Y-121105372D01*
X99871399Y-121084842D01*
X99980026Y-120952479D01*
X99997479Y-120935026D01*
X100129842Y-120826399D01*
X100150369Y-120812683D01*
X100301371Y-120731971D01*
X100324191Y-120722518D01*
X100488043Y-120672815D01*
X100512260Y-120667999D01*
X100688837Y-120650607D01*
X100701187Y-120650000D01*
X135518813Y-120650000D01*
X135531163Y-120650607D01*
G37*
G04 #@! TD.AperFunction*
G04 #@! TA.AperFunction,Conductor*
G36*
X171726163Y-69215607D02*
G01*
X171902740Y-69232999D01*
X171926957Y-69237815D01*
X172090809Y-69287518D01*
X172113629Y-69296971D01*
X172264631Y-69377683D01*
X172285158Y-69391399D01*
X172417521Y-69500026D01*
X172434974Y-69517479D01*
X172537613Y-69642545D01*
X172565365Y-69707890D01*
X172559805Y-69762142D01*
X172549368Y-69793609D01*
X172549366Y-69793617D01*
X172547203Y-69800139D01*
X172546503Y-69806972D01*
X172546502Y-69806976D01*
X172540778Y-69862852D01*
X172536500Y-69904600D01*
X172536500Y-73605400D01*
X172547474Y-73711166D01*
X172549655Y-73717702D01*
X172549655Y-73717704D01*
X172593728Y-73849806D01*
X172603450Y-73878946D01*
X172696522Y-74029348D01*
X172701704Y-74034521D01*
X172720000Y-74052785D01*
X172720000Y-74295000D01*
X173116631Y-74295000D01*
X173133611Y-74300632D01*
X173133613Y-74300632D01*
X173140139Y-74302797D01*
X173146975Y-74303497D01*
X173146978Y-74303498D01*
X173190031Y-74307909D01*
X173244600Y-74313500D01*
X174434042Y-74313500D01*
X174470616Y-74318925D01*
X174630809Y-74367518D01*
X174653629Y-74376971D01*
X174804631Y-74457683D01*
X174825158Y-74471399D01*
X174957521Y-74580026D01*
X174974974Y-74597479D01*
X175083601Y-74729842D01*
X175097319Y-74750372D01*
X175178029Y-74901371D01*
X175187482Y-74924190D01*
X175237185Y-75088043D01*
X175242002Y-75112263D01*
X175259393Y-75288837D01*
X175260000Y-75301187D01*
X175260000Y-100593813D01*
X175259393Y-100606163D01*
X175242002Y-100782737D01*
X175237185Y-100806957D01*
X175187482Y-100970809D01*
X175178029Y-100993629D01*
X175097319Y-101144628D01*
X175083601Y-101165158D01*
X174974974Y-101297521D01*
X174957521Y-101314974D01*
X174825158Y-101423601D01*
X174804631Y-101437317D01*
X174712417Y-101486607D01*
X174653629Y-101518029D01*
X174630810Y-101527482D01*
X174466957Y-101577185D01*
X174442740Y-101582001D01*
X174266163Y-101599393D01*
X174253813Y-101600000D01*
X166741187Y-101600000D01*
X166728837Y-101599393D01*
X166552260Y-101582001D01*
X166528043Y-101577185D01*
X166364190Y-101527482D01*
X166341371Y-101518029D01*
X166282583Y-101486607D01*
X166190369Y-101437317D01*
X166169842Y-101423601D01*
X166037479Y-101314974D01*
X166020026Y-101297521D01*
X165911399Y-101165158D01*
X165897681Y-101144628D01*
X165816971Y-100993629D01*
X165807518Y-100970809D01*
X165757815Y-100806957D01*
X165752998Y-100782737D01*
X165735607Y-100606163D01*
X165735000Y-100593813D01*
X165735000Y-93033687D01*
X165735607Y-93021337D01*
X165752086Y-92854026D01*
X165756903Y-92829805D01*
X165803905Y-92674861D01*
X165813354Y-92652051D01*
X165889675Y-92509264D01*
X165903398Y-92488726D01*
X166006109Y-92363574D01*
X166023574Y-92346109D01*
X166148726Y-92243398D01*
X166169264Y-92229675D01*
X166312051Y-92153354D01*
X166334861Y-92143905D01*
X166489805Y-92096903D01*
X166514026Y-92092086D01*
X166687501Y-92075000D01*
X167640000Y-92075000D01*
X167640000Y-70221187D01*
X167640607Y-70208837D01*
X167657998Y-70032263D01*
X167662815Y-70008043D01*
X167712518Y-69844190D01*
X167721971Y-69821371D01*
X167753629Y-69762142D01*
X167802683Y-69670369D01*
X167816399Y-69649842D01*
X167925026Y-69517479D01*
X167942479Y-69500026D01*
X168074842Y-69391399D01*
X168095369Y-69377683D01*
X168246371Y-69296971D01*
X168269191Y-69287518D01*
X168433043Y-69237815D01*
X168457260Y-69232999D01*
X168633837Y-69215607D01*
X168646187Y-69215000D01*
X171713813Y-69215000D01*
X171726163Y-69215607D01*
G37*
G04 #@! TD.AperFunction*
G04 #@! TA.AperFunction,Conductor*
G36*
X160452187Y-85101296D02*
G01*
X160510975Y-85107086D01*
X160535195Y-85111903D01*
X160690139Y-85158905D01*
X160712949Y-85168354D01*
X160855736Y-85244675D01*
X160876273Y-85258398D01*
X160933951Y-85305733D01*
X160973920Y-85364410D01*
X160975821Y-85435381D01*
X160960697Y-85469489D01*
X160959766Y-85470669D01*
X160861698Y-85657066D01*
X160799240Y-85858212D01*
X160779000Y-86029218D01*
X160779000Y-86675935D01*
X160793362Y-86832237D01*
X160850533Y-87034949D01*
X160853085Y-87040125D01*
X160853087Y-87040129D01*
X160941133Y-87218668D01*
X160943688Y-87223849D01*
X160947142Y-87228475D01*
X160947143Y-87228476D01*
X161009163Y-87311531D01*
X161069707Y-87392609D01*
X161093642Y-87414734D01*
X161184040Y-87498297D01*
X161224370Y-87535578D01*
X161231231Y-87539907D01*
X161231964Y-87540739D01*
X161233837Y-87542176D01*
X161233555Y-87542544D01*
X161278171Y-87593170D01*
X161290000Y-87646471D01*
X161290000Y-91371401D01*
X161269998Y-91439522D01*
X161269640Y-91440000D01*
X161264527Y-91440000D01*
X161264527Y-100797029D01*
X161259102Y-100833605D01*
X161217482Y-100970809D01*
X161208029Y-100993629D01*
X161127319Y-101144628D01*
X161113601Y-101165158D01*
X161004974Y-101297521D01*
X160987521Y-101314974D01*
X160855158Y-101423601D01*
X160834631Y-101437317D01*
X160742417Y-101486607D01*
X160683629Y-101518029D01*
X160660810Y-101527482D01*
X160496957Y-101577185D01*
X160472740Y-101582001D01*
X160296163Y-101599393D01*
X160283813Y-101600000D01*
X156581187Y-101600000D01*
X156568837Y-101599393D01*
X156392260Y-101582001D01*
X156368043Y-101577185D01*
X156204190Y-101527482D01*
X156181371Y-101518029D01*
X156122583Y-101486607D01*
X156030369Y-101437317D01*
X156009842Y-101423601D01*
X155877479Y-101314974D01*
X155860026Y-101297521D01*
X155751399Y-101165158D01*
X155737681Y-101144628D01*
X155656971Y-100993629D01*
X155647518Y-100970809D01*
X155605898Y-100833605D01*
X155597815Y-100806957D01*
X155592998Y-100782737D01*
X155575607Y-100606163D01*
X155575000Y-100593813D01*
X155575000Y-88636187D01*
X155575607Y-88623837D01*
X155592998Y-88447263D01*
X155597815Y-88423043D01*
X155647518Y-88259190D01*
X155656971Y-88236371D01*
X155737681Y-88085372D01*
X155751399Y-88064842D01*
X155860026Y-87932479D01*
X155877479Y-87915026D01*
X156009842Y-87806399D01*
X156030369Y-87792683D01*
X156122583Y-87743393D01*
X156181371Y-87711971D01*
X156204191Y-87702518D01*
X156368043Y-87652815D01*
X156392260Y-87647999D01*
X156568837Y-87630607D01*
X156581187Y-87630000D01*
X157491255Y-87630000D01*
X157559376Y-87650002D01*
X157566820Y-87655174D01*
X157640795Y-87710615D01*
X157777184Y-87761745D01*
X157839366Y-87768500D01*
X159210634Y-87768500D01*
X159272816Y-87761745D01*
X159409205Y-87710615D01*
X159525761Y-87623261D01*
X159613115Y-87506705D01*
X159664245Y-87370316D01*
X159671000Y-87308134D01*
X159671000Y-85422814D01*
X159691002Y-85354693D01*
X159717066Y-85325415D01*
X159798726Y-85258398D01*
X159819264Y-85244675D01*
X159962051Y-85168354D01*
X159984861Y-85158905D01*
X160139805Y-85111903D01*
X160164025Y-85107086D01*
X160222813Y-85101296D01*
X160325154Y-85091216D01*
X160349846Y-85091216D01*
X160452187Y-85101296D01*
G37*
G04 #@! TD.AperFunction*
G04 #@! TA.AperFunction,Conductor*
G36*
X126641163Y-82550607D02*
G01*
X126817740Y-82567999D01*
X126841957Y-82572815D01*
X127005809Y-82622518D01*
X127028629Y-82631971D01*
X127179631Y-82712683D01*
X127200158Y-82726399D01*
X127332521Y-82835026D01*
X127349974Y-82852479D01*
X127458601Y-82984842D01*
X127472319Y-83005372D01*
X127553029Y-83156371D01*
X127562482Y-83179190D01*
X127612185Y-83343043D01*
X127617002Y-83367263D01*
X127634393Y-83543837D01*
X127635000Y-83556187D01*
X127635000Y-84880852D01*
X127614998Y-84948973D01*
X127596289Y-84971717D01*
X127583526Y-84983978D01*
X127557462Y-85013256D01*
X127509018Y-85077075D01*
X127448302Y-85210024D01*
X127428300Y-85278145D01*
X127427660Y-85282594D01*
X127427659Y-85282600D01*
X127408139Y-85418367D01*
X127407500Y-85422814D01*
X127407500Y-85651475D01*
X127401832Y-85688840D01*
X127349240Y-85858212D01*
X127329000Y-86029218D01*
X127329000Y-86675935D01*
X127343362Y-86832237D01*
X127399214Y-87030273D01*
X127399215Y-87030277D01*
X127400533Y-87034949D01*
X127400104Y-87035070D01*
X127407500Y-87074976D01*
X127407500Y-87129000D01*
X127387498Y-87197121D01*
X127333842Y-87243614D01*
X127281500Y-87255000D01*
X126180282Y-87255000D01*
X126108387Y-87232475D01*
X126102372Y-87228296D01*
X126097150Y-87224806D01*
X126091199Y-87220828D01*
X126091195Y-87220826D01*
X126086994Y-87218018D01*
X126082395Y-87215918D01*
X126082392Y-87215916D01*
X125962254Y-87161051D01*
X125954045Y-87157302D01*
X125925359Y-87148879D01*
X125890247Y-87138569D01*
X125890243Y-87138568D01*
X125885924Y-87137300D01*
X125881475Y-87136660D01*
X125881469Y-87136659D01*
X125745702Y-87117139D01*
X125745697Y-87117139D01*
X125741255Y-87116500D01*
X124831187Y-87116500D01*
X124830456Y-87116518D01*
X124830452Y-87116518D01*
X124825218Y-87116647D01*
X124805979Y-87117119D01*
X124805274Y-87117154D01*
X124805237Y-87117155D01*
X124799910Y-87117417D01*
X124793629Y-87117726D01*
X124768503Y-87119580D01*
X124767718Y-87119657D01*
X124767710Y-87119658D01*
X124593489Y-87136818D01*
X124593487Y-87136818D01*
X124591926Y-87136972D01*
X124564042Y-87141108D01*
X124543630Y-87144135D01*
X124543616Y-87144138D01*
X124542102Y-87144362D01*
X124517885Y-87149178D01*
X124516401Y-87149550D01*
X124516395Y-87149551D01*
X124470476Y-87161051D01*
X124470463Y-87161055D01*
X124468984Y-87161425D01*
X124399750Y-87182427D01*
X124306624Y-87210675D01*
X124306609Y-87210680D01*
X124305132Y-87211128D01*
X124303662Y-87211654D01*
X124303656Y-87211656D01*
X124285877Y-87218018D01*
X124257672Y-87228111D01*
X124234852Y-87237564D01*
X124233488Y-87238209D01*
X124233477Y-87238214D01*
X124214493Y-87247193D01*
X124189309Y-87259104D01*
X124187948Y-87259831D01*
X124187935Y-87259838D01*
X124101274Y-87306160D01*
X124038307Y-87339816D01*
X124036976Y-87340614D01*
X124036965Y-87340620D01*
X124010247Y-87356635D01*
X123995079Y-87365726D01*
X123974552Y-87379442D01*
X123973324Y-87380353D01*
X123973318Y-87380357D01*
X123935321Y-87408538D01*
X123934082Y-87409457D01*
X123932899Y-87410428D01*
X123932886Y-87410438D01*
X123849336Y-87479006D01*
X123801719Y-87518084D01*
X123764380Y-87551927D01*
X123746927Y-87569380D01*
X123713084Y-87606719D01*
X123693978Y-87630000D01*
X123190000Y-87630000D01*
X123190000Y-102235000D01*
X137160000Y-102235000D01*
X137160000Y-107950000D01*
X118481187Y-107950000D01*
X118468837Y-107949393D01*
X118292260Y-107932001D01*
X118268043Y-107927185D01*
X118104190Y-107877482D01*
X118081371Y-107868029D01*
X118022583Y-107836607D01*
X117930369Y-107787317D01*
X117909842Y-107773601D01*
X117777479Y-107664974D01*
X117760026Y-107647521D01*
X117651399Y-107515158D01*
X117637681Y-107494628D01*
X117556971Y-107343629D01*
X117547518Y-107320809D01*
X117497815Y-107156957D01*
X117492998Y-107132737D01*
X117475607Y-106956163D01*
X117475000Y-106943813D01*
X117475000Y-83556187D01*
X117475607Y-83543837D01*
X117492998Y-83367263D01*
X117497815Y-83343043D01*
X117547518Y-83179190D01*
X117556971Y-83156371D01*
X117637681Y-83005372D01*
X117651399Y-82984842D01*
X117760026Y-82852479D01*
X117777479Y-82835026D01*
X117909842Y-82726399D01*
X117930369Y-82712683D01*
X118081371Y-82631971D01*
X118104191Y-82622518D01*
X118268043Y-82572815D01*
X118292260Y-82567999D01*
X118468837Y-82550607D01*
X118481187Y-82550000D01*
X126628813Y-82550000D01*
X126641163Y-82550607D01*
G37*
G04 #@! TD.AperFunction*
G04 #@! TA.AperFunction,Conductor*
G36*
X96948488Y-85101296D02*
G01*
X97007276Y-85107086D01*
X97031496Y-85111903D01*
X97186440Y-85158905D01*
X97209250Y-85168354D01*
X97352037Y-85244675D01*
X97372574Y-85258397D01*
X97432666Y-85307714D01*
X97472634Y-85366389D01*
X97474535Y-85437360D01*
X97459765Y-85470669D01*
X97459766Y-85470669D01*
X97361698Y-85657066D01*
X97299240Y-85858212D01*
X97279000Y-86029218D01*
X97279000Y-86675935D01*
X97293362Y-86832237D01*
X97350533Y-87034949D01*
X97353085Y-87040125D01*
X97353087Y-87040129D01*
X97441133Y-87218668D01*
X97443688Y-87223849D01*
X97447142Y-87228475D01*
X97447143Y-87228476D01*
X97509163Y-87311531D01*
X97569707Y-87392609D01*
X97593642Y-87414734D01*
X97684040Y-87498297D01*
X97724370Y-87535578D01*
X97729254Y-87538659D01*
X97733837Y-87542176D01*
X97732793Y-87543537D01*
X97774479Y-87590853D01*
X97786301Y-87644138D01*
X97786301Y-100593813D01*
X97785694Y-100606163D01*
X97768303Y-100782737D01*
X97763486Y-100806957D01*
X97713783Y-100970809D01*
X97704330Y-100993629D01*
X97623620Y-101144628D01*
X97609902Y-101165158D01*
X97501275Y-101297521D01*
X97483822Y-101314974D01*
X97351459Y-101423601D01*
X97330932Y-101437317D01*
X97238718Y-101486607D01*
X97179930Y-101518029D01*
X97157111Y-101527482D01*
X96993258Y-101577185D01*
X96969041Y-101582001D01*
X96792464Y-101599393D01*
X96780114Y-101600000D01*
X93077488Y-101600000D01*
X93065138Y-101599393D01*
X92888561Y-101582001D01*
X92864344Y-101577185D01*
X92700491Y-101527482D01*
X92677672Y-101518029D01*
X92618884Y-101486607D01*
X92526670Y-101437317D01*
X92506143Y-101423601D01*
X92373780Y-101314974D01*
X92356327Y-101297521D01*
X92247700Y-101165158D01*
X92233982Y-101144628D01*
X92153272Y-100993629D01*
X92143819Y-100970809D01*
X92094116Y-100806957D01*
X92089299Y-100782737D01*
X92071908Y-100606163D01*
X92071301Y-100593813D01*
X92071301Y-88636187D01*
X92071908Y-88623837D01*
X92089299Y-88447263D01*
X92094116Y-88423043D01*
X92143819Y-88259190D01*
X92153272Y-88236371D01*
X92233982Y-88085372D01*
X92247700Y-88064842D01*
X92356327Y-87932479D01*
X92373780Y-87915026D01*
X92506143Y-87806399D01*
X92526670Y-87792683D01*
X92618884Y-87743393D01*
X92677672Y-87711971D01*
X92700492Y-87702518D01*
X92864344Y-87652815D01*
X92888561Y-87647999D01*
X93065138Y-87630607D01*
X93077488Y-87630000D01*
X93991255Y-87630000D01*
X94059376Y-87650002D01*
X94066820Y-87655174D01*
X94140795Y-87710615D01*
X94277184Y-87761745D01*
X94339366Y-87768500D01*
X95710634Y-87768500D01*
X95772816Y-87761745D01*
X95909205Y-87710615D01*
X96025761Y-87623261D01*
X96113115Y-87506705D01*
X96164245Y-87370316D01*
X96171000Y-87308134D01*
X96171000Y-85419778D01*
X96191002Y-85351657D01*
X96217066Y-85322379D01*
X96295027Y-85258398D01*
X96315565Y-85244675D01*
X96458352Y-85168354D01*
X96481162Y-85158905D01*
X96636106Y-85111903D01*
X96660326Y-85107086D01*
X96719114Y-85101296D01*
X96821455Y-85091216D01*
X96846147Y-85091216D01*
X96948488Y-85101296D01*
G37*
G04 #@! TD.AperFunction*
G04 #@! TA.AperFunction,Conductor*
G36*
X139976163Y-69215607D02*
G01*
X140152740Y-69232999D01*
X140176957Y-69237815D01*
X140340809Y-69287518D01*
X140363629Y-69296971D01*
X140514631Y-69377683D01*
X140535158Y-69391399D01*
X140667521Y-69500026D01*
X140684974Y-69517479D01*
X140787613Y-69642545D01*
X140815365Y-69707890D01*
X140809805Y-69762142D01*
X140799368Y-69793609D01*
X140799366Y-69793617D01*
X140797203Y-69800139D01*
X140796503Y-69806972D01*
X140796502Y-69806976D01*
X140790778Y-69862852D01*
X140786500Y-69904600D01*
X140786500Y-73605400D01*
X140797474Y-73711166D01*
X140799655Y-73717702D01*
X140799655Y-73717704D01*
X140843728Y-73849806D01*
X140853450Y-73878946D01*
X140946522Y-74029348D01*
X140951704Y-74034521D01*
X140970000Y-74052785D01*
X140970000Y-74295000D01*
X141366631Y-74295000D01*
X141383611Y-74300632D01*
X141383613Y-74300632D01*
X141390139Y-74302797D01*
X141396975Y-74303497D01*
X141396978Y-74303498D01*
X141440031Y-74307909D01*
X141494600Y-74313500D01*
X142684042Y-74313500D01*
X142720616Y-74318925D01*
X142880809Y-74367518D01*
X142903629Y-74376971D01*
X143054631Y-74457683D01*
X143075158Y-74471399D01*
X143207521Y-74580026D01*
X143224974Y-74597479D01*
X143333601Y-74729842D01*
X143347319Y-74750372D01*
X143428029Y-74901371D01*
X143437482Y-74924190D01*
X143487185Y-75088043D01*
X143492002Y-75112263D01*
X143509393Y-75288837D01*
X143510000Y-75301187D01*
X143510000Y-100593813D01*
X143509393Y-100606163D01*
X143492002Y-100782737D01*
X143487185Y-100806957D01*
X143437482Y-100970809D01*
X143428029Y-100993629D01*
X143347319Y-101144628D01*
X143333601Y-101165158D01*
X143224974Y-101297521D01*
X143207521Y-101314974D01*
X143075158Y-101423601D01*
X143054631Y-101437317D01*
X142962417Y-101486607D01*
X142903629Y-101518029D01*
X142880810Y-101527482D01*
X142716957Y-101577185D01*
X142692740Y-101582001D01*
X142516163Y-101599393D01*
X142503813Y-101600000D01*
X134991187Y-101600000D01*
X134978837Y-101599393D01*
X134802260Y-101582001D01*
X134778043Y-101577185D01*
X134614190Y-101527482D01*
X134591371Y-101518029D01*
X134532583Y-101486607D01*
X134440369Y-101437317D01*
X134419842Y-101423601D01*
X134287479Y-101314974D01*
X134270026Y-101297521D01*
X134161399Y-101165158D01*
X134147681Y-101144628D01*
X134066971Y-100993629D01*
X134057518Y-100970809D01*
X134007815Y-100806957D01*
X134002998Y-100782737D01*
X133985607Y-100606163D01*
X133985000Y-100593813D01*
X133985000Y-93033687D01*
X133985607Y-93021337D01*
X134002086Y-92854026D01*
X134006903Y-92829805D01*
X134053905Y-92674861D01*
X134063354Y-92652051D01*
X134139675Y-92509264D01*
X134153398Y-92488726D01*
X134256109Y-92363574D01*
X134273574Y-92346109D01*
X134398726Y-92243398D01*
X134419264Y-92229675D01*
X134562051Y-92153354D01*
X134584861Y-92143905D01*
X134739805Y-92096903D01*
X134764026Y-92092086D01*
X134937501Y-92075000D01*
X135890000Y-92075000D01*
X135890000Y-70221187D01*
X135890607Y-70208837D01*
X135907998Y-70032263D01*
X135912815Y-70008043D01*
X135962518Y-69844190D01*
X135971971Y-69821371D01*
X136003629Y-69762142D01*
X136052683Y-69670369D01*
X136066399Y-69649842D01*
X136175026Y-69517479D01*
X136192479Y-69500026D01*
X136324842Y-69391399D01*
X136345369Y-69377683D01*
X136496371Y-69296971D01*
X136519191Y-69287518D01*
X136683043Y-69237815D01*
X136707260Y-69232999D01*
X136883837Y-69215607D01*
X136896187Y-69215000D01*
X139963813Y-69215000D01*
X139976163Y-69215607D01*
G37*
G04 #@! TD.AperFunction*
M02*
