G04 #@! TF.GenerationSoftware,KiCad,Pcbnew,6.0.4-6f826c9f35~116~ubuntu21.10.1*
G04 #@! TF.CreationDate,2022-04-21T21:11:02+02:00*
G04 #@! TF.ProjectId,Carte_Alim,43617274-655f-4416-9c69-6d2e6b696361,rev?*
G04 #@! TF.SameCoordinates,Original*
G04 #@! TF.FileFunction,Legend,Top*
G04 #@! TF.FilePolarity,Positive*
%FSLAX46Y46*%
G04 Gerber Fmt 4.6, Leading zero omitted, Abs format (unit mm)*
G04 Created by KiCad (PCBNEW 6.0.4-6f826c9f35~116~ubuntu21.10.1) date 2022-04-21 21:11:02*
%MOMM*%
%LPD*%
G01*
G04 APERTURE LIST*
%ADD10C,0.300000*%
G04 #@! TA.AperFunction,Profile*
%ADD11C,0.150000*%
G04 #@! TD*
%ADD12C,0.150000*%
%ADD13C,0.120000*%
G04 APERTURE END LIST*
D10*
X158484571Y-110150571D02*
X158484571Y-108650571D01*
X159056000Y-108650571D01*
X159198857Y-108722000D01*
X159270285Y-108793428D01*
X159341714Y-108936285D01*
X159341714Y-109150571D01*
X159270285Y-109293428D01*
X159198857Y-109364857D01*
X159056000Y-109436285D01*
X158484571Y-109436285D01*
X160198857Y-110150571D02*
X160056000Y-110079142D01*
X159984571Y-110007714D01*
X159913142Y-109864857D01*
X159913142Y-109436285D01*
X159984571Y-109293428D01*
X160056000Y-109222000D01*
X160198857Y-109150571D01*
X160413142Y-109150571D01*
X160556000Y-109222000D01*
X160627428Y-109293428D01*
X160698857Y-109436285D01*
X160698857Y-109864857D01*
X160627428Y-110007714D01*
X160556000Y-110079142D01*
X160413142Y-110150571D01*
X160198857Y-110150571D01*
X161341714Y-110150571D02*
X161341714Y-108650571D01*
X161484571Y-109579142D02*
X161913142Y-110150571D01*
X161913142Y-109150571D02*
X161341714Y-109722000D01*
X162556000Y-110150571D02*
X162556000Y-109150571D01*
X162556000Y-108650571D02*
X162484571Y-108722000D01*
X162556000Y-108793428D01*
X162627428Y-108722000D01*
X162556000Y-108650571D01*
X162556000Y-108793428D01*
X163270285Y-110150571D02*
X163270285Y-108650571D01*
X163270285Y-109222000D02*
X163413142Y-109150571D01*
X163698857Y-109150571D01*
X163841714Y-109222000D01*
X163913142Y-109293428D01*
X163984571Y-109436285D01*
X163984571Y-109864857D01*
X163913142Y-110007714D01*
X163841714Y-110079142D01*
X163698857Y-110150571D01*
X163413142Y-110150571D01*
X163270285Y-110079142D01*
X164841714Y-110150571D02*
X164698857Y-110079142D01*
X164627428Y-110007714D01*
X164556000Y-109864857D01*
X164556000Y-109436285D01*
X164627428Y-109293428D01*
X164698857Y-109222000D01*
X164841714Y-109150571D01*
X165056000Y-109150571D01*
X165198857Y-109222000D01*
X165270285Y-109293428D01*
X165341714Y-109436285D01*
X165341714Y-109864857D01*
X165270285Y-110007714D01*
X165198857Y-110079142D01*
X165056000Y-110150571D01*
X164841714Y-110150571D01*
X165770285Y-109150571D02*
X166341714Y-109150571D01*
X165984571Y-108650571D02*
X165984571Y-109936285D01*
X166056000Y-110079142D01*
X166198857Y-110150571D01*
X166341714Y-110150571D01*
X157591714Y-112422714D02*
X157520285Y-112494142D01*
X157306000Y-112565571D01*
X157163142Y-112565571D01*
X156948857Y-112494142D01*
X156806000Y-112351285D01*
X156734571Y-112208428D01*
X156663142Y-111922714D01*
X156663142Y-111708428D01*
X156734571Y-111422714D01*
X156806000Y-111279857D01*
X156948857Y-111137000D01*
X157163142Y-111065571D01*
X157306000Y-111065571D01*
X157520285Y-111137000D01*
X157591714Y-111208428D01*
X158877428Y-112565571D02*
X158877428Y-111779857D01*
X158806000Y-111637000D01*
X158663142Y-111565571D01*
X158377428Y-111565571D01*
X158234571Y-111637000D01*
X158877428Y-112494142D02*
X158734571Y-112565571D01*
X158377428Y-112565571D01*
X158234571Y-112494142D01*
X158163142Y-112351285D01*
X158163142Y-112208428D01*
X158234571Y-112065571D01*
X158377428Y-111994142D01*
X158734571Y-111994142D01*
X158877428Y-111922714D01*
X159591714Y-112565571D02*
X159591714Y-111565571D01*
X159591714Y-111851285D02*
X159663142Y-111708428D01*
X159734571Y-111637000D01*
X159877428Y-111565571D01*
X160020285Y-111565571D01*
X160306000Y-111565571D02*
X160877428Y-111565571D01*
X160520285Y-111065571D02*
X160520285Y-112351285D01*
X160591714Y-112494142D01*
X160734571Y-112565571D01*
X160877428Y-112565571D01*
X161948857Y-112494142D02*
X161806000Y-112565571D01*
X161520285Y-112565571D01*
X161377428Y-112494142D01*
X161306000Y-112351285D01*
X161306000Y-111779857D01*
X161377428Y-111637000D01*
X161520285Y-111565571D01*
X161806000Y-111565571D01*
X161948857Y-111637000D01*
X162020285Y-111779857D01*
X162020285Y-111922714D01*
X161306000Y-112065571D01*
X163734571Y-112137000D02*
X164448857Y-112137000D01*
X163591714Y-112565571D02*
X164091714Y-111065571D01*
X164591714Y-112565571D01*
X165306000Y-112565571D02*
X165163142Y-112494142D01*
X165091714Y-112351285D01*
X165091714Y-111065571D01*
X165877428Y-112565571D02*
X165877428Y-111565571D01*
X165877428Y-111065571D02*
X165806000Y-111137000D01*
X165877428Y-111208428D01*
X165948857Y-111137000D01*
X165877428Y-111065571D01*
X165877428Y-111208428D01*
X166591714Y-112565571D02*
X166591714Y-111565571D01*
X166591714Y-111708428D02*
X166663142Y-111637000D01*
X166806000Y-111565571D01*
X167020285Y-111565571D01*
X167163142Y-111637000D01*
X167234571Y-111779857D01*
X167234571Y-112565571D01*
X167234571Y-111779857D02*
X167306000Y-111637000D01*
X167448857Y-111565571D01*
X167663142Y-111565571D01*
X167806000Y-111637000D01*
X167877428Y-111779857D01*
X167877428Y-112565571D01*
X152877428Y-113480571D02*
X153377428Y-114980571D01*
X153877428Y-113480571D01*
X155163142Y-114980571D02*
X154306000Y-114980571D01*
X154734571Y-114980571D02*
X154734571Y-113480571D01*
X154591714Y-113694857D01*
X154448857Y-113837714D01*
X154306000Y-113909142D01*
X155806000Y-114837714D02*
X155877428Y-114909142D01*
X155806000Y-114980571D01*
X155734571Y-114909142D01*
X155806000Y-114837714D01*
X155806000Y-114980571D01*
X156806000Y-113480571D02*
X156948857Y-113480571D01*
X157091714Y-113552000D01*
X157163142Y-113623428D01*
X157234571Y-113766285D01*
X157306000Y-114052000D01*
X157306000Y-114409142D01*
X157234571Y-114694857D01*
X157163142Y-114837714D01*
X157091714Y-114909142D01*
X156948857Y-114980571D01*
X156806000Y-114980571D01*
X156663142Y-114909142D01*
X156591714Y-114837714D01*
X156520285Y-114694857D01*
X156448857Y-114409142D01*
X156448857Y-114052000D01*
X156520285Y-113766285D01*
X156591714Y-113623428D01*
X156663142Y-113552000D01*
X156806000Y-113480571D01*
X159091714Y-114409142D02*
X160234571Y-114409142D01*
X162377428Y-113480571D02*
X162520285Y-113480571D01*
X162663142Y-113552000D01*
X162734571Y-113623428D01*
X162806000Y-113766285D01*
X162877428Y-114052000D01*
X162877428Y-114409142D01*
X162806000Y-114694857D01*
X162734571Y-114837714D01*
X162663142Y-114909142D01*
X162520285Y-114980571D01*
X162377428Y-114980571D01*
X162234571Y-114909142D01*
X162163142Y-114837714D01*
X162091714Y-114694857D01*
X162020285Y-114409142D01*
X162020285Y-114052000D01*
X162091714Y-113766285D01*
X162163142Y-113623428D01*
X162234571Y-113552000D01*
X162377428Y-113480571D01*
X164163142Y-113980571D02*
X164163142Y-114980571D01*
X163806000Y-113409142D02*
X163448857Y-114480571D01*
X164377428Y-114480571D01*
X166020285Y-113409142D02*
X164734571Y-115337714D01*
X166448857Y-113623428D02*
X166520285Y-113552000D01*
X166663142Y-113480571D01*
X167020285Y-113480571D01*
X167163142Y-113552000D01*
X167234571Y-113623428D01*
X167306000Y-113766285D01*
X167306000Y-113909142D01*
X167234571Y-114123428D01*
X166377428Y-114980571D01*
X167306000Y-114980571D01*
X168234571Y-113480571D02*
X168377428Y-113480571D01*
X168520285Y-113552000D01*
X168591714Y-113623428D01*
X168663142Y-113766285D01*
X168734571Y-114052000D01*
X168734571Y-114409142D01*
X168663142Y-114694857D01*
X168591714Y-114837714D01*
X168520285Y-114909142D01*
X168377428Y-114980571D01*
X168234571Y-114980571D01*
X168091714Y-114909142D01*
X168020285Y-114837714D01*
X167948857Y-114694857D01*
X167877428Y-114409142D01*
X167877428Y-114052000D01*
X167948857Y-113766285D01*
X168020285Y-113623428D01*
X168091714Y-113552000D01*
X168234571Y-113480571D01*
X169306000Y-113623428D02*
X169377428Y-113552000D01*
X169520285Y-113480571D01*
X169877428Y-113480571D01*
X170020285Y-113552000D01*
X170091714Y-113623428D01*
X170163142Y-113766285D01*
X170163142Y-113909142D01*
X170091714Y-114123428D01*
X169234571Y-114980571D01*
X170163142Y-114980571D01*
X170734571Y-113623428D02*
X170806000Y-113552000D01*
X170948857Y-113480571D01*
X171306000Y-113480571D01*
X171448857Y-113552000D01*
X171520285Y-113623428D01*
X171591714Y-113766285D01*
X171591714Y-113909142D01*
X171520285Y-114123428D01*
X170663142Y-114980571D01*
X171591714Y-114980571D01*
D11*
X183514999Y-130175001D02*
X183514999Y-69215001D01*
X180975000Y-132715000D02*
G75*
G03*
X183515000Y-130175000I0J2540000D01*
G01*
X180975000Y-66675000D02*
X87630000Y-66675000D01*
X87630000Y-132715000D02*
X180975000Y-132715000D01*
X183515000Y-69215000D02*
G75*
G03*
X180975000Y-66675000I-2540000J0D01*
G01*
X85090000Y-69215000D02*
X85090000Y-130175000D01*
X87630000Y-66675000D02*
G75*
G03*
X85090000Y-69215000I0J-2540000D01*
G01*
X85090000Y-130175000D02*
G75*
G03*
X87630000Y-132715000I2540000J0D01*
G01*
D12*
X98417142Y-106177380D02*
X97940952Y-106177380D01*
X97940952Y-105177380D01*
X99179047Y-105510714D02*
X99179047Y-106177380D01*
X98940952Y-105129761D02*
X98702857Y-105844047D01*
X99321904Y-105844047D01*
X100226666Y-106177380D02*
X99655238Y-106177380D01*
X99940952Y-106177380D02*
X99940952Y-105177380D01*
X99845714Y-105320238D01*
X99750476Y-105415476D01*
X99655238Y-105463095D01*
X128095476Y-124892380D02*
X128095476Y-125606666D01*
X128047857Y-125749523D01*
X127952619Y-125844761D01*
X127809761Y-125892380D01*
X127714523Y-125892380D01*
X128762142Y-124892380D02*
X128857380Y-124892380D01*
X128952619Y-124940000D01*
X129000238Y-124987619D01*
X129047857Y-125082857D01*
X129095476Y-125273333D01*
X129095476Y-125511428D01*
X129047857Y-125701904D01*
X129000238Y-125797142D01*
X128952619Y-125844761D01*
X128857380Y-125892380D01*
X128762142Y-125892380D01*
X128666904Y-125844761D01*
X128619285Y-125797142D01*
X128571666Y-125701904D01*
X128524047Y-125511428D01*
X128524047Y-125273333D01*
X128571666Y-125082857D01*
X128619285Y-124987619D01*
X128666904Y-124940000D01*
X128762142Y-124892380D01*
X129476428Y-124987619D02*
X129524047Y-124940000D01*
X129619285Y-124892380D01*
X129857380Y-124892380D01*
X129952619Y-124940000D01*
X130000238Y-124987619D01*
X130047857Y-125082857D01*
X130047857Y-125178095D01*
X130000238Y-125320952D01*
X129428809Y-125892380D01*
X130047857Y-125892380D01*
X170882142Y-119102142D02*
X170834523Y-119149761D01*
X170691666Y-119197380D01*
X170596428Y-119197380D01*
X170453571Y-119149761D01*
X170358333Y-119054523D01*
X170310714Y-118959285D01*
X170263095Y-118768809D01*
X170263095Y-118625952D01*
X170310714Y-118435476D01*
X170358333Y-118340238D01*
X170453571Y-118245000D01*
X170596428Y-118197380D01*
X170691666Y-118197380D01*
X170834523Y-118245000D01*
X170882142Y-118292619D01*
X171215476Y-118197380D02*
X171834523Y-118197380D01*
X171501190Y-118578333D01*
X171644047Y-118578333D01*
X171739285Y-118625952D01*
X171786904Y-118673571D01*
X171834523Y-118768809D01*
X171834523Y-119006904D01*
X171786904Y-119102142D01*
X171739285Y-119149761D01*
X171644047Y-119197380D01*
X171358333Y-119197380D01*
X171263095Y-119149761D01*
X171215476Y-119102142D01*
X172786904Y-119197380D02*
X172215476Y-119197380D01*
X172501190Y-119197380D02*
X172501190Y-118197380D01*
X172405952Y-118340238D01*
X172310714Y-118435476D01*
X172215476Y-118483095D01*
X145482142Y-119102142D02*
X145434523Y-119149761D01*
X145291666Y-119197380D01*
X145196428Y-119197380D01*
X145053571Y-119149761D01*
X144958333Y-119054523D01*
X144910714Y-118959285D01*
X144863095Y-118768809D01*
X144863095Y-118625952D01*
X144910714Y-118435476D01*
X144958333Y-118340238D01*
X145053571Y-118245000D01*
X145196428Y-118197380D01*
X145291666Y-118197380D01*
X145434523Y-118245000D01*
X145482142Y-118292619D01*
X145815476Y-118197380D02*
X146434523Y-118197380D01*
X146101190Y-118578333D01*
X146244047Y-118578333D01*
X146339285Y-118625952D01*
X146386904Y-118673571D01*
X146434523Y-118768809D01*
X146434523Y-119006904D01*
X146386904Y-119102142D01*
X146339285Y-119149761D01*
X146244047Y-119197380D01*
X145958333Y-119197380D01*
X145863095Y-119149761D01*
X145815476Y-119102142D01*
X146815476Y-118292619D02*
X146863095Y-118245000D01*
X146958333Y-118197380D01*
X147196428Y-118197380D01*
X147291666Y-118245000D01*
X147339285Y-118292619D01*
X147386904Y-118387857D01*
X147386904Y-118483095D01*
X147339285Y-118625952D01*
X146767857Y-119197380D01*
X147386904Y-119197380D01*
X174525476Y-120632380D02*
X174525476Y-121346666D01*
X174477857Y-121489523D01*
X174382619Y-121584761D01*
X174239761Y-121632380D01*
X174144523Y-121632380D01*
X174906428Y-120632380D02*
X175525476Y-120632380D01*
X175192142Y-121013333D01*
X175335000Y-121013333D01*
X175430238Y-121060952D01*
X175477857Y-121108571D01*
X175525476Y-121203809D01*
X175525476Y-121441904D01*
X175477857Y-121537142D01*
X175430238Y-121584761D01*
X175335000Y-121632380D01*
X175049285Y-121632380D01*
X174954047Y-121584761D01*
X174906428Y-121537142D01*
X176477857Y-121632380D02*
X175906428Y-121632380D01*
X176192142Y-121632380D02*
X176192142Y-120632380D01*
X176096904Y-120775238D01*
X176001666Y-120870476D01*
X175906428Y-120918095D01*
X91527380Y-70243095D02*
X92336904Y-70243095D01*
X92432142Y-70195476D01*
X92479761Y-70147857D01*
X92527380Y-70052619D01*
X92527380Y-69862142D01*
X92479761Y-69766904D01*
X92432142Y-69719285D01*
X92336904Y-69671666D01*
X91527380Y-69671666D01*
X91860714Y-68766904D02*
X92527380Y-68766904D01*
X91479761Y-69005000D02*
X92194047Y-69243095D01*
X92194047Y-68624047D01*
X92527380Y-67719285D02*
X92527380Y-68290714D01*
X92527380Y-68005000D02*
X91527380Y-68005000D01*
X91670238Y-68100238D01*
X91765476Y-68195476D01*
X91813095Y-68290714D01*
X90797142Y-87352142D02*
X90749523Y-87399761D01*
X90606666Y-87447380D01*
X90511428Y-87447380D01*
X90368571Y-87399761D01*
X90273333Y-87304523D01*
X90225714Y-87209285D01*
X90178095Y-87018809D01*
X90178095Y-86875952D01*
X90225714Y-86685476D01*
X90273333Y-86590238D01*
X90368571Y-86495000D01*
X90511428Y-86447380D01*
X90606666Y-86447380D01*
X90749523Y-86495000D01*
X90797142Y-86542619D01*
X91654285Y-86780714D02*
X91654285Y-87447380D01*
X91416190Y-86399761D02*
X91178095Y-87114047D01*
X91797142Y-87114047D01*
X92701904Y-87447380D02*
X92130476Y-87447380D01*
X92416190Y-87447380D02*
X92416190Y-86447380D01*
X92320952Y-86590238D01*
X92225714Y-86685476D01*
X92130476Y-86733095D01*
X161917142Y-106177380D02*
X161440952Y-106177380D01*
X161440952Y-105177380D01*
X162774285Y-106177380D02*
X162202857Y-106177380D01*
X162488571Y-106177380D02*
X162488571Y-105177380D01*
X162393333Y-105320238D01*
X162298095Y-105415476D01*
X162202857Y-105463095D01*
X163726666Y-106177380D02*
X163155238Y-106177380D01*
X163440952Y-106177380D02*
X163440952Y-105177380D01*
X163345714Y-105320238D01*
X163250476Y-105415476D01*
X163155238Y-105463095D01*
X149125476Y-120632380D02*
X149125476Y-121346666D01*
X149077857Y-121489523D01*
X148982619Y-121584761D01*
X148839761Y-121632380D01*
X148744523Y-121632380D01*
X149506428Y-120632380D02*
X150125476Y-120632380D01*
X149792142Y-121013333D01*
X149935000Y-121013333D01*
X150030238Y-121060952D01*
X150077857Y-121108571D01*
X150125476Y-121203809D01*
X150125476Y-121441904D01*
X150077857Y-121537142D01*
X150030238Y-121584761D01*
X149935000Y-121632380D01*
X149649285Y-121632380D01*
X149554047Y-121584761D01*
X149506428Y-121537142D01*
X150458809Y-120632380D02*
X151077857Y-120632380D01*
X150744523Y-121013333D01*
X150887380Y-121013333D01*
X150982619Y-121060952D01*
X151030238Y-121108571D01*
X151077857Y-121203809D01*
X151077857Y-121441904D01*
X151030238Y-121537142D01*
X150982619Y-121584761D01*
X150887380Y-121632380D01*
X150601666Y-121632380D01*
X150506428Y-121584761D01*
X150458809Y-121537142D01*
X98417142Y-128572142D02*
X98369523Y-128619761D01*
X98226666Y-128667380D01*
X98131428Y-128667380D01*
X97988571Y-128619761D01*
X97893333Y-128524523D01*
X97845714Y-128429285D01*
X97798095Y-128238809D01*
X97798095Y-128095952D01*
X97845714Y-127905476D01*
X97893333Y-127810238D01*
X97988571Y-127715000D01*
X98131428Y-127667380D01*
X98226666Y-127667380D01*
X98369523Y-127715000D01*
X98417142Y-127762619D01*
X99036190Y-127667380D02*
X99131428Y-127667380D01*
X99226666Y-127715000D01*
X99274285Y-127762619D01*
X99321904Y-127857857D01*
X99369523Y-128048333D01*
X99369523Y-128286428D01*
X99321904Y-128476904D01*
X99274285Y-128572142D01*
X99226666Y-128619761D01*
X99131428Y-128667380D01*
X99036190Y-128667380D01*
X98940952Y-128619761D01*
X98893333Y-128572142D01*
X98845714Y-128476904D01*
X98798095Y-128286428D01*
X98798095Y-128048333D01*
X98845714Y-127857857D01*
X98893333Y-127762619D01*
X98940952Y-127715000D01*
X99036190Y-127667380D01*
X99750476Y-127762619D02*
X99798095Y-127715000D01*
X99893333Y-127667380D01*
X100131428Y-127667380D01*
X100226666Y-127715000D01*
X100274285Y-127762619D01*
X100321904Y-127857857D01*
X100321904Y-127953095D01*
X100274285Y-128095952D01*
X99702857Y-128667380D01*
X100321904Y-128667380D01*
X126182380Y-90749285D02*
X125182380Y-90749285D01*
X125182380Y-90511190D01*
X125230000Y-90368333D01*
X125325238Y-90273095D01*
X125420476Y-90225476D01*
X125610952Y-90177857D01*
X125753809Y-90177857D01*
X125944285Y-90225476D01*
X126039523Y-90273095D01*
X126134761Y-90368333D01*
X126182380Y-90511190D01*
X126182380Y-90749285D01*
X125277619Y-89796904D02*
X125230000Y-89749285D01*
X125182380Y-89654047D01*
X125182380Y-89415952D01*
X125230000Y-89320714D01*
X125277619Y-89273095D01*
X125372857Y-89225476D01*
X125468095Y-89225476D01*
X125610952Y-89273095D01*
X126182380Y-89844523D01*
X126182380Y-89225476D01*
X126182380Y-88273095D02*
X126182380Y-88844523D01*
X126182380Y-88558809D02*
X125182380Y-88558809D01*
X125325238Y-88654047D01*
X125420476Y-88749285D01*
X125468095Y-88844523D01*
X102060476Y-107388571D02*
X101727142Y-107388571D01*
X101727142Y-107912380D02*
X101727142Y-106912380D01*
X102203333Y-106912380D01*
X102774761Y-106912380D02*
X102870000Y-106912380D01*
X102965238Y-106960000D01*
X103012857Y-107007619D01*
X103060476Y-107102857D01*
X103108095Y-107293333D01*
X103108095Y-107531428D01*
X103060476Y-107721904D01*
X103012857Y-107817142D01*
X102965238Y-107864761D01*
X102870000Y-107912380D01*
X102774761Y-107912380D01*
X102679523Y-107864761D01*
X102631904Y-107817142D01*
X102584285Y-107721904D01*
X102536666Y-107531428D01*
X102536666Y-107293333D01*
X102584285Y-107102857D01*
X102631904Y-107007619D01*
X102679523Y-106960000D01*
X102774761Y-106912380D01*
X103489047Y-107007619D02*
X103536666Y-106960000D01*
X103631904Y-106912380D01*
X103870000Y-106912380D01*
X103965238Y-106960000D01*
X104012857Y-107007619D01*
X104060476Y-107102857D01*
X104060476Y-107198095D01*
X104012857Y-107340952D01*
X103441428Y-107912380D01*
X104060476Y-107912380D01*
X117300476Y-120777380D02*
X117300476Y-121491666D01*
X117252857Y-121634523D01*
X117157619Y-121729761D01*
X117014761Y-121777380D01*
X116919523Y-121777380D01*
X117967142Y-120777380D02*
X118062380Y-120777380D01*
X118157619Y-120825000D01*
X118205238Y-120872619D01*
X118252857Y-120967857D01*
X118300476Y-121158333D01*
X118300476Y-121396428D01*
X118252857Y-121586904D01*
X118205238Y-121682142D01*
X118157619Y-121729761D01*
X118062380Y-121777380D01*
X117967142Y-121777380D01*
X117871904Y-121729761D01*
X117824285Y-121682142D01*
X117776666Y-121586904D01*
X117729047Y-121396428D01*
X117729047Y-121158333D01*
X117776666Y-120967857D01*
X117824285Y-120872619D01*
X117871904Y-120825000D01*
X117967142Y-120777380D01*
X119252857Y-121777380D02*
X118681428Y-121777380D01*
X118967142Y-121777380D02*
X118967142Y-120777380D01*
X118871904Y-120920238D01*
X118776666Y-121015476D01*
X118681428Y-121063095D01*
X136517142Y-128627142D02*
X136469523Y-128674761D01*
X136326666Y-128722380D01*
X136231428Y-128722380D01*
X136088571Y-128674761D01*
X135993333Y-128579523D01*
X135945714Y-128484285D01*
X135898095Y-128293809D01*
X135898095Y-128150952D01*
X135945714Y-127960476D01*
X135993333Y-127865238D01*
X136088571Y-127770000D01*
X136231428Y-127722380D01*
X136326666Y-127722380D01*
X136469523Y-127770000D01*
X136517142Y-127817619D01*
X137136190Y-127722380D02*
X137231428Y-127722380D01*
X137326666Y-127770000D01*
X137374285Y-127817619D01*
X137421904Y-127912857D01*
X137469523Y-128103333D01*
X137469523Y-128341428D01*
X137421904Y-128531904D01*
X137374285Y-128627142D01*
X137326666Y-128674761D01*
X137231428Y-128722380D01*
X137136190Y-128722380D01*
X137040952Y-128674761D01*
X136993333Y-128627142D01*
X136945714Y-128531904D01*
X136898095Y-128341428D01*
X136898095Y-128103333D01*
X136945714Y-127912857D01*
X136993333Y-127817619D01*
X137040952Y-127770000D01*
X137136190Y-127722380D01*
X138421904Y-128722380D02*
X137850476Y-128722380D01*
X138136190Y-128722380D02*
X138136190Y-127722380D01*
X138040952Y-127865238D01*
X137945714Y-127960476D01*
X137850476Y-128008095D01*
X123277380Y-70243095D02*
X124086904Y-70243095D01*
X124182142Y-70195476D01*
X124229761Y-70147857D01*
X124277380Y-70052619D01*
X124277380Y-69862142D01*
X124229761Y-69766904D01*
X124182142Y-69719285D01*
X124086904Y-69671666D01*
X123277380Y-69671666D01*
X123372619Y-69243095D02*
X123325000Y-69195476D01*
X123277380Y-69100238D01*
X123277380Y-68862142D01*
X123325000Y-68766904D01*
X123372619Y-68719285D01*
X123467857Y-68671666D01*
X123563095Y-68671666D01*
X123705952Y-68719285D01*
X124277380Y-69290714D01*
X124277380Y-68671666D01*
X124277380Y-67719285D02*
X124277380Y-68290714D01*
X124277380Y-68005000D02*
X123277380Y-68005000D01*
X123420238Y-68100238D01*
X123515476Y-68195476D01*
X123563095Y-68290714D01*
X107892380Y-120824523D02*
X108606666Y-120824523D01*
X108749523Y-120872142D01*
X108844761Y-120967380D01*
X108892380Y-121110238D01*
X108892380Y-121205476D01*
X107892380Y-120157857D02*
X107892380Y-120062619D01*
X107940000Y-119967380D01*
X107987619Y-119919761D01*
X108082857Y-119872142D01*
X108273333Y-119824523D01*
X108511428Y-119824523D01*
X108701904Y-119872142D01*
X108797142Y-119919761D01*
X108844761Y-119967380D01*
X108892380Y-120062619D01*
X108892380Y-120157857D01*
X108844761Y-120253095D01*
X108797142Y-120300714D01*
X108701904Y-120348333D01*
X108511428Y-120395952D01*
X108273333Y-120395952D01*
X108082857Y-120348333D01*
X107987619Y-120300714D01*
X107940000Y-120253095D01*
X107892380Y-120157857D01*
X108225714Y-118967380D02*
X108892380Y-118967380D01*
X107844761Y-119205476D02*
X108559047Y-119443571D01*
X108559047Y-118824523D01*
X132540476Y-107243571D02*
X132207142Y-107243571D01*
X132207142Y-107767380D02*
X132207142Y-106767380D01*
X132683333Y-106767380D01*
X133254761Y-106767380D02*
X133350000Y-106767380D01*
X133445238Y-106815000D01*
X133492857Y-106862619D01*
X133540476Y-106957857D01*
X133588095Y-107148333D01*
X133588095Y-107386428D01*
X133540476Y-107576904D01*
X133492857Y-107672142D01*
X133445238Y-107719761D01*
X133350000Y-107767380D01*
X133254761Y-107767380D01*
X133159523Y-107719761D01*
X133111904Y-107672142D01*
X133064285Y-107576904D01*
X133016666Y-107386428D01*
X133016666Y-107148333D01*
X133064285Y-106957857D01*
X133111904Y-106862619D01*
X133159523Y-106815000D01*
X133254761Y-106767380D01*
X134540476Y-107767380D02*
X133969047Y-107767380D01*
X134254761Y-107767380D02*
X134254761Y-106767380D01*
X134159523Y-106910238D01*
X134064285Y-107005476D01*
X133969047Y-107053095D01*
X181676788Y-92717857D02*
X181724407Y-92765476D01*
X181772026Y-92908333D01*
X181772026Y-93003571D01*
X181724407Y-93146428D01*
X181629169Y-93241666D01*
X181533931Y-93289285D01*
X181343455Y-93336904D01*
X181200598Y-93336904D01*
X181010122Y-93289285D01*
X180914884Y-93241666D01*
X180819646Y-93146428D01*
X180772026Y-93003571D01*
X180772026Y-92908333D01*
X180819646Y-92765476D01*
X180867265Y-92717857D01*
X181772026Y-91765476D02*
X181772026Y-92336904D01*
X181772026Y-92051190D02*
X180772026Y-92051190D01*
X180914884Y-92146428D01*
X181010122Y-92241666D01*
X181057741Y-92336904D01*
X180867265Y-91384523D02*
X180819646Y-91336904D01*
X180772026Y-91241666D01*
X180772026Y-91003571D01*
X180819646Y-90908333D01*
X180867265Y-90860714D01*
X180962503Y-90813095D01*
X181057741Y-90813095D01*
X181200598Y-90860714D01*
X181772026Y-91432142D01*
X181772026Y-90813095D01*
X158182142Y-119102142D02*
X158134523Y-119149761D01*
X157991666Y-119197380D01*
X157896428Y-119197380D01*
X157753571Y-119149761D01*
X157658333Y-119054523D01*
X157610714Y-118959285D01*
X157563095Y-118768809D01*
X157563095Y-118625952D01*
X157610714Y-118435476D01*
X157658333Y-118340238D01*
X157753571Y-118245000D01*
X157896428Y-118197380D01*
X157991666Y-118197380D01*
X158134523Y-118245000D01*
X158182142Y-118292619D01*
X158515476Y-118197380D02*
X159134523Y-118197380D01*
X158801190Y-118578333D01*
X158944047Y-118578333D01*
X159039285Y-118625952D01*
X159086904Y-118673571D01*
X159134523Y-118768809D01*
X159134523Y-119006904D01*
X159086904Y-119102142D01*
X159039285Y-119149761D01*
X158944047Y-119197380D01*
X158658333Y-119197380D01*
X158563095Y-119149761D01*
X158515476Y-119102142D01*
X159467857Y-118197380D02*
X160086904Y-118197380D01*
X159753571Y-118578333D01*
X159896428Y-118578333D01*
X159991666Y-118625952D01*
X160039285Y-118673571D01*
X160086904Y-118768809D01*
X160086904Y-119006904D01*
X160039285Y-119102142D01*
X159991666Y-119149761D01*
X159896428Y-119197380D01*
X159610714Y-119197380D01*
X159515476Y-119149761D01*
X159467857Y-119102142D01*
X155027380Y-70243095D02*
X155836904Y-70243095D01*
X155932142Y-70195476D01*
X155979761Y-70147857D01*
X156027380Y-70052619D01*
X156027380Y-69862142D01*
X155979761Y-69766904D01*
X155932142Y-69719285D01*
X155836904Y-69671666D01*
X155027380Y-69671666D01*
X156027380Y-68671666D02*
X156027380Y-69243095D01*
X156027380Y-68957380D02*
X155027380Y-68957380D01*
X155170238Y-69052619D01*
X155265476Y-69147857D01*
X155313095Y-69243095D01*
X156027380Y-67719285D02*
X156027380Y-68290714D01*
X156027380Y-68005000D02*
X155027380Y-68005000D01*
X155170238Y-68100238D01*
X155265476Y-68195476D01*
X155313095Y-68290714D01*
X157932380Y-90749285D02*
X156932380Y-90749285D01*
X156932380Y-90511190D01*
X156980000Y-90368333D01*
X157075238Y-90273095D01*
X157170476Y-90225476D01*
X157360952Y-90177857D01*
X157503809Y-90177857D01*
X157694285Y-90225476D01*
X157789523Y-90273095D01*
X157884761Y-90368333D01*
X157932380Y-90511190D01*
X157932380Y-90749285D01*
X157932380Y-89225476D02*
X157932380Y-89796904D01*
X157932380Y-89511190D02*
X156932380Y-89511190D01*
X157075238Y-89606428D01*
X157170476Y-89701666D01*
X157218095Y-89796904D01*
X157932380Y-88273095D02*
X157932380Y-88844523D01*
X157932380Y-88558809D02*
X156932380Y-88558809D01*
X157075238Y-88654047D01*
X157170476Y-88749285D01*
X157218095Y-88844523D01*
X130167142Y-106177380D02*
X129690952Y-106177380D01*
X129690952Y-105177380D01*
X130452857Y-105272619D02*
X130500476Y-105225000D01*
X130595714Y-105177380D01*
X130833809Y-105177380D01*
X130929047Y-105225000D01*
X130976666Y-105272619D01*
X131024285Y-105367857D01*
X131024285Y-105463095D01*
X130976666Y-105605952D01*
X130405238Y-106177380D01*
X131024285Y-106177380D01*
X131976666Y-106177380D02*
X131405238Y-106177380D01*
X131690952Y-106177380D02*
X131690952Y-105177380D01*
X131595714Y-105320238D01*
X131500476Y-105415476D01*
X131405238Y-105463095D01*
X127232380Y-120824523D02*
X127946666Y-120824523D01*
X128089523Y-120872142D01*
X128184761Y-120967380D01*
X128232380Y-121110238D01*
X128232380Y-121205476D01*
X127232380Y-120157857D02*
X127232380Y-120062619D01*
X127280000Y-119967380D01*
X127327619Y-119919761D01*
X127422857Y-119872142D01*
X127613333Y-119824523D01*
X127851428Y-119824523D01*
X128041904Y-119872142D01*
X128137142Y-119919761D01*
X128184761Y-119967380D01*
X128232380Y-120062619D01*
X128232380Y-120157857D01*
X128184761Y-120253095D01*
X128137142Y-120300714D01*
X128041904Y-120348333D01*
X127851428Y-120395952D01*
X127613333Y-120395952D01*
X127422857Y-120348333D01*
X127327619Y-120300714D01*
X127280000Y-120253095D01*
X127232380Y-120157857D01*
X127232380Y-119491190D02*
X127232380Y-118872142D01*
X127613333Y-119205476D01*
X127613333Y-119062619D01*
X127660952Y-118967380D01*
X127708571Y-118919761D01*
X127803809Y-118872142D01*
X128041904Y-118872142D01*
X128137142Y-118919761D01*
X128184761Y-118967380D01*
X128232380Y-119062619D01*
X128232380Y-119348333D01*
X128184761Y-119443571D01*
X128137142Y-119491190D01*
X149926788Y-92717857D02*
X149974407Y-92765476D01*
X150022026Y-92908333D01*
X150022026Y-93003571D01*
X149974407Y-93146428D01*
X149879169Y-93241666D01*
X149783931Y-93289285D01*
X149593455Y-93336904D01*
X149450598Y-93336904D01*
X149260122Y-93289285D01*
X149164884Y-93241666D01*
X149069646Y-93146428D01*
X149022026Y-93003571D01*
X149022026Y-92908333D01*
X149069646Y-92765476D01*
X149117265Y-92717857D01*
X149117265Y-92336904D02*
X149069646Y-92289285D01*
X149022026Y-92194047D01*
X149022026Y-91955952D01*
X149069646Y-91860714D01*
X149117265Y-91813095D01*
X149212503Y-91765476D01*
X149307741Y-91765476D01*
X149450598Y-91813095D01*
X150022026Y-92384523D01*
X150022026Y-91765476D01*
X149117265Y-91384523D02*
X149069646Y-91336904D01*
X149022026Y-91241666D01*
X149022026Y-91003571D01*
X149069646Y-90908333D01*
X149117265Y-90860714D01*
X149212503Y-90813095D01*
X149307741Y-90813095D01*
X149450598Y-90860714D01*
X150022026Y-91432142D01*
X150022026Y-90813095D01*
X118176788Y-92717857D02*
X118224407Y-92765476D01*
X118272026Y-92908333D01*
X118272026Y-93003571D01*
X118224407Y-93146428D01*
X118129169Y-93241666D01*
X118033931Y-93289285D01*
X117843455Y-93336904D01*
X117700598Y-93336904D01*
X117510122Y-93289285D01*
X117414884Y-93241666D01*
X117319646Y-93146428D01*
X117272026Y-93003571D01*
X117272026Y-92908333D01*
X117319646Y-92765476D01*
X117367265Y-92717857D01*
X117605360Y-91860714D02*
X118272026Y-91860714D01*
X117224407Y-92098809D02*
X117938693Y-92336904D01*
X117938693Y-91717857D01*
X117367265Y-91384523D02*
X117319646Y-91336904D01*
X117272026Y-91241666D01*
X117272026Y-91003571D01*
X117319646Y-90908333D01*
X117367265Y-90860714D01*
X117462503Y-90813095D01*
X117557741Y-90813095D01*
X117700598Y-90860714D01*
X118272026Y-91432142D01*
X118272026Y-90813095D01*
X171835476Y-77662380D02*
X171835476Y-78376666D01*
X171787857Y-78519523D01*
X171692619Y-78614761D01*
X171549761Y-78662380D01*
X171454523Y-78662380D01*
X172835476Y-78662380D02*
X172264047Y-78662380D01*
X172549761Y-78662380D02*
X172549761Y-77662380D01*
X172454523Y-77805238D01*
X172359285Y-77900476D01*
X172264047Y-77948095D01*
X173787857Y-78662380D02*
X173216428Y-78662380D01*
X173502142Y-78662380D02*
X173502142Y-77662380D01*
X173406904Y-77805238D01*
X173311666Y-77900476D01*
X173216428Y-77948095D01*
X94432380Y-90749285D02*
X93432380Y-90749285D01*
X93432380Y-90511190D01*
X93480000Y-90368333D01*
X93575238Y-90273095D01*
X93670476Y-90225476D01*
X93860952Y-90177857D01*
X94003809Y-90177857D01*
X94194285Y-90225476D01*
X94289523Y-90273095D01*
X94384761Y-90368333D01*
X94432380Y-90511190D01*
X94432380Y-90749285D01*
X93765714Y-89320714D02*
X94432380Y-89320714D01*
X93384761Y-89558809D02*
X94099047Y-89796904D01*
X94099047Y-89177857D01*
X94432380Y-88273095D02*
X94432380Y-88844523D01*
X94432380Y-88558809D02*
X93432380Y-88558809D01*
X93575238Y-88654047D01*
X93670476Y-88749285D01*
X93718095Y-88844523D01*
X148407142Y-82557857D02*
X148454761Y-82605476D01*
X148502380Y-82748333D01*
X148502380Y-82843571D01*
X148454761Y-82986428D01*
X148359523Y-83081666D01*
X148264285Y-83129285D01*
X148073809Y-83176904D01*
X147930952Y-83176904D01*
X147740476Y-83129285D01*
X147645238Y-83081666D01*
X147550000Y-82986428D01*
X147502380Y-82843571D01*
X147502380Y-82748333D01*
X147550000Y-82605476D01*
X147597619Y-82557857D01*
X148502380Y-81605476D02*
X148502380Y-82176904D01*
X148502380Y-81891190D02*
X147502380Y-81891190D01*
X147645238Y-81986428D01*
X147740476Y-82081666D01*
X147788095Y-82176904D01*
X148502380Y-80653095D02*
X148502380Y-81224523D01*
X148502380Y-80938809D02*
X147502380Y-80938809D01*
X147645238Y-81034047D01*
X147740476Y-81129285D01*
X147788095Y-81224523D01*
X108335476Y-77662380D02*
X108335476Y-78376666D01*
X108287857Y-78519523D01*
X108192619Y-78614761D01*
X108049761Y-78662380D01*
X107954523Y-78662380D01*
X109240238Y-77995714D02*
X109240238Y-78662380D01*
X109002142Y-77614761D02*
X108764047Y-78329047D01*
X109383095Y-78329047D01*
X110287857Y-78662380D02*
X109716428Y-78662380D01*
X110002142Y-78662380D02*
X110002142Y-77662380D01*
X109906904Y-77805238D01*
X109811666Y-77900476D01*
X109716428Y-77948095D01*
X116657142Y-83192857D02*
X116704761Y-83240476D01*
X116752380Y-83383333D01*
X116752380Y-83478571D01*
X116704761Y-83621428D01*
X116609523Y-83716666D01*
X116514285Y-83764285D01*
X116323809Y-83811904D01*
X116180952Y-83811904D01*
X115990476Y-83764285D01*
X115895238Y-83716666D01*
X115800000Y-83621428D01*
X115752380Y-83478571D01*
X115752380Y-83383333D01*
X115800000Y-83240476D01*
X115847619Y-83192857D01*
X115847619Y-82811904D02*
X115800000Y-82764285D01*
X115752380Y-82669047D01*
X115752380Y-82430952D01*
X115800000Y-82335714D01*
X115847619Y-82288095D01*
X115942857Y-82240476D01*
X116038095Y-82240476D01*
X116180952Y-82288095D01*
X116752380Y-82859523D01*
X116752380Y-82240476D01*
X116752380Y-81288095D02*
X116752380Y-81859523D01*
X116752380Y-81573809D02*
X115752380Y-81573809D01*
X115895238Y-81669047D01*
X115990476Y-81764285D01*
X116038095Y-81859523D01*
X161825476Y-120632380D02*
X161825476Y-121346666D01*
X161777857Y-121489523D01*
X161682619Y-121584761D01*
X161539761Y-121632380D01*
X161444523Y-121632380D01*
X162206428Y-120632380D02*
X162825476Y-120632380D01*
X162492142Y-121013333D01*
X162635000Y-121013333D01*
X162730238Y-121060952D01*
X162777857Y-121108571D01*
X162825476Y-121203809D01*
X162825476Y-121441904D01*
X162777857Y-121537142D01*
X162730238Y-121584761D01*
X162635000Y-121632380D01*
X162349285Y-121632380D01*
X162254047Y-121584761D01*
X162206428Y-121537142D01*
X163206428Y-120727619D02*
X163254047Y-120680000D01*
X163349285Y-120632380D01*
X163587380Y-120632380D01*
X163682619Y-120680000D01*
X163730238Y-120727619D01*
X163777857Y-120822857D01*
X163777857Y-120918095D01*
X163730238Y-121060952D01*
X163158809Y-121632380D01*
X163777857Y-121632380D01*
X140085476Y-77662380D02*
X140085476Y-78376666D01*
X140037857Y-78519523D01*
X139942619Y-78614761D01*
X139799761Y-78662380D01*
X139704523Y-78662380D01*
X140514047Y-77757619D02*
X140561666Y-77710000D01*
X140656904Y-77662380D01*
X140895000Y-77662380D01*
X140990238Y-77710000D01*
X141037857Y-77757619D01*
X141085476Y-77852857D01*
X141085476Y-77948095D01*
X141037857Y-78090952D01*
X140466428Y-78662380D01*
X141085476Y-78662380D01*
X142037857Y-78662380D02*
X141466428Y-78662380D01*
X141752142Y-78662380D02*
X141752142Y-77662380D01*
X141656904Y-77805238D01*
X141561666Y-77900476D01*
X141466428Y-77948095D01*
D13*
X105360000Y-104725000D02*
X92760000Y-104725000D01*
X92760000Y-104725000D02*
X92760000Y-101725000D01*
X105360000Y-101725000D02*
X105360000Y-104725000D01*
X92760000Y-95125000D02*
X92760000Y-92125000D01*
X105360000Y-92125000D02*
X105360000Y-95125000D01*
X92760000Y-92125000D02*
X105360000Y-92125000D01*
X127635000Y-131550000D02*
X127885000Y-131020000D01*
X127885000Y-131020000D02*
X129925000Y-131020000D01*
X126255000Y-132550000D02*
X131555000Y-132550000D01*
X129375000Y-126530000D02*
X129375000Y-127130000D01*
X127885000Y-132550000D02*
X127885000Y-131550000D01*
X127635000Y-132550000D02*
X127635000Y-131550000D01*
X128435000Y-127130000D02*
X128435000Y-126530000D01*
X131555000Y-126530000D02*
X126255000Y-126530000D01*
X126835000Y-126530000D02*
X126835000Y-127130000D01*
X126835000Y-127130000D02*
X128435000Y-127130000D01*
X129925000Y-132550000D02*
X129925000Y-131550000D01*
X125965000Y-127560000D02*
X125965000Y-131560000D01*
X127635000Y-131550000D02*
X130175000Y-131550000D01*
X129925000Y-131020000D02*
X130175000Y-131550000D01*
X130975000Y-127130000D02*
X130975000Y-126530000D01*
X131555000Y-132550000D02*
X131555000Y-126530000D01*
X126255000Y-126530000D02*
X126255000Y-132550000D01*
X129375000Y-127130000D02*
X130975000Y-127130000D01*
X130175000Y-131550000D02*
X130175000Y-132550000D01*
X172236252Y-119740000D02*
X170813748Y-119740000D01*
X172236252Y-121560000D02*
X170813748Y-121560000D01*
X146836252Y-121560000D02*
X145413748Y-121560000D01*
X146836252Y-119740000D02*
X145413748Y-119740000D01*
X168160000Y-122415000D02*
X176160000Y-122415000D01*
X168160000Y-131640000D02*
X168160000Y-122415000D01*
X170980000Y-123015000D02*
X170980000Y-122415000D01*
X169380000Y-122415000D02*
X169380000Y-123015000D01*
X173340000Y-123015000D02*
X174940000Y-123015000D01*
X170180000Y-131645000D02*
X174140000Y-131645000D01*
X170065000Y-132645000D02*
X170065000Y-131640000D01*
X176160000Y-122415000D02*
X176160000Y-131640000D01*
X169380000Y-123015000D02*
X170980000Y-123015000D01*
X174140000Y-129975000D02*
X174140000Y-131645000D01*
X173340000Y-122415000D02*
X173340000Y-123015000D01*
X167870000Y-125635000D02*
X167870000Y-129635000D01*
X176160000Y-131640000D02*
X174255000Y-131640000D01*
X170180000Y-132645000D02*
X170180000Y-131645000D01*
X174140000Y-131645000D02*
X174140000Y-132645000D01*
X174255000Y-131640000D02*
X174255000Y-132645000D01*
X170180000Y-129975000D02*
X174140000Y-129975000D01*
X174255000Y-132645000D02*
X170065000Y-132645000D01*
X174940000Y-123015000D02*
X174940000Y-122415000D01*
X170180000Y-131645000D02*
X170180000Y-129975000D01*
X170065000Y-131640000D02*
X168160000Y-131640000D01*
X98425000Y-83250000D02*
X98425000Y-85310000D01*
X103675000Y-67140000D02*
X103675000Y-83250000D01*
X100125000Y-83250000D02*
X100125000Y-85310000D01*
X93175000Y-83250000D02*
X103675000Y-83250000D01*
X93175000Y-67140000D02*
X93175000Y-83250000D01*
X96725000Y-83250000D02*
X96725000Y-85310000D01*
X95025000Y-83250000D02*
X95025000Y-85310000D01*
X93175000Y-67140000D02*
X103675000Y-67140000D01*
X101825000Y-83250000D02*
X101825000Y-85310000D01*
X91245563Y-85960000D02*
X89960000Y-85960000D01*
X85490000Y-79140000D02*
X87840000Y-79140000D01*
X87052500Y-86987500D02*
X87052500Y-86200000D01*
X86554437Y-85960000D02*
X87840000Y-85960000D01*
X92310000Y-79140000D02*
X89960000Y-79140000D01*
X86554437Y-85960000D02*
X85490000Y-84895563D01*
X85490000Y-84895563D02*
X85490000Y-79140000D01*
X86658750Y-86593750D02*
X87446250Y-86593750D01*
X91245563Y-85960000D02*
X92310000Y-84895563D01*
X92310000Y-84895563D02*
X92310000Y-79140000D01*
X168860000Y-92125000D02*
X168860000Y-95125000D01*
X168860000Y-104725000D02*
X156260000Y-104725000D01*
X156260000Y-92125000D02*
X168860000Y-92125000D01*
X156260000Y-95125000D02*
X156260000Y-92125000D01*
X156260000Y-104725000D02*
X156260000Y-101725000D01*
X168860000Y-101725000D02*
X168860000Y-104725000D01*
X148740000Y-131645000D02*
X148740000Y-132645000D01*
X142470000Y-125635000D02*
X142470000Y-129635000D01*
X142760000Y-131640000D02*
X142760000Y-122415000D01*
X150760000Y-131640000D02*
X148855000Y-131640000D01*
X143980000Y-123015000D02*
X145580000Y-123015000D01*
X148855000Y-132645000D02*
X144665000Y-132645000D01*
X149540000Y-123015000D02*
X149540000Y-122415000D01*
X148740000Y-129975000D02*
X148740000Y-131645000D01*
X144780000Y-132645000D02*
X144780000Y-131645000D01*
X148855000Y-131640000D02*
X148855000Y-132645000D01*
X147940000Y-123015000D02*
X149540000Y-123015000D01*
X150760000Y-122415000D02*
X150760000Y-131640000D01*
X144665000Y-131640000D02*
X142760000Y-131640000D01*
X144780000Y-131645000D02*
X144780000Y-129975000D01*
X143980000Y-122415000D02*
X143980000Y-123015000D01*
X147940000Y-122415000D02*
X147940000Y-123015000D01*
X144665000Y-132645000D02*
X144665000Y-131640000D01*
X145580000Y-123015000D02*
X145580000Y-122415000D01*
X142760000Y-122415000D02*
X150760000Y-122415000D01*
X144780000Y-129975000D02*
X148740000Y-129975000D01*
X144780000Y-131645000D02*
X148740000Y-131645000D01*
X99771252Y-127275000D02*
X98348748Y-127275000D01*
X99771252Y-125455000D02*
X98348748Y-125455000D01*
X126775000Y-87885000D02*
X132175000Y-87885000D01*
X126775000Y-91185000D02*
X132175000Y-91185000D01*
X126775000Y-87885000D02*
X126775000Y-91185000D01*
X114870000Y-108710000D02*
X114870000Y-114810000D01*
X90870000Y-108710000D02*
X114870000Y-108710000D01*
X90870000Y-114810000D02*
X90870000Y-108710000D01*
X114870000Y-114810000D02*
X90870000Y-114810000D01*
X115330000Y-122415000D02*
X115330000Y-123015000D01*
X114110000Y-122415000D02*
X122110000Y-122415000D01*
X116130000Y-129975000D02*
X120090000Y-129975000D01*
X116015000Y-132645000D02*
X116015000Y-131640000D01*
X115330000Y-123015000D02*
X116930000Y-123015000D01*
X122110000Y-131640000D02*
X120205000Y-131640000D01*
X122110000Y-122415000D02*
X122110000Y-131640000D01*
X120205000Y-132645000D02*
X116015000Y-132645000D01*
X120205000Y-131640000D02*
X120205000Y-132645000D01*
X114110000Y-131640000D02*
X114110000Y-122415000D01*
X120090000Y-129975000D02*
X120090000Y-131645000D01*
X116130000Y-132645000D02*
X116130000Y-131645000D01*
X116015000Y-131640000D02*
X114110000Y-131640000D01*
X120090000Y-131645000D02*
X120090000Y-132645000D01*
X113820000Y-125635000D02*
X113820000Y-129635000D01*
X116130000Y-131645000D02*
X120090000Y-131645000D01*
X120890000Y-123015000D02*
X120890000Y-122415000D01*
X119290000Y-123015000D02*
X120890000Y-123015000D01*
X119290000Y-122415000D02*
X119290000Y-123015000D01*
X116130000Y-131645000D02*
X116130000Y-129975000D01*
X116930000Y-123015000D02*
X116930000Y-122415000D01*
X136448748Y-125455000D02*
X137871252Y-125455000D01*
X136448748Y-127275000D02*
X137871252Y-127275000D01*
X124925000Y-67140000D02*
X124925000Y-83250000D01*
X135425000Y-67140000D02*
X135425000Y-83250000D01*
X124925000Y-83250000D02*
X135425000Y-83250000D01*
X133575000Y-83250000D02*
X133575000Y-85310000D01*
X130175000Y-83250000D02*
X130175000Y-85310000D01*
X124925000Y-67140000D02*
X135425000Y-67140000D01*
X128475000Y-83250000D02*
X128475000Y-85310000D01*
X131875000Y-83250000D02*
X131875000Y-85310000D01*
X126775000Y-83250000D02*
X126775000Y-85310000D01*
X106750000Y-121195000D02*
X106750000Y-122795000D01*
X98125000Y-122110000D02*
X97120000Y-122110000D01*
X97120000Y-117920000D02*
X98125000Y-117920000D01*
X98125000Y-124015000D02*
X98125000Y-122110000D01*
X99790000Y-118035000D02*
X99790000Y-121995000D01*
X98125000Y-116015000D02*
X107350000Y-116015000D01*
X99790000Y-121995000D02*
X98120000Y-121995000D01*
X107350000Y-124015000D02*
X98125000Y-124015000D01*
X107350000Y-116015000D02*
X107350000Y-124015000D01*
X106750000Y-117235000D02*
X106750000Y-118835000D01*
X97120000Y-118035000D02*
X98120000Y-118035000D01*
X107350000Y-121195000D02*
X106750000Y-121195000D01*
X98120000Y-118035000D02*
X98120000Y-121995000D01*
X98125000Y-117920000D02*
X98125000Y-116015000D01*
X98120000Y-118035000D02*
X99790000Y-118035000D01*
X107350000Y-117235000D02*
X106750000Y-117235000D01*
X98120000Y-121995000D02*
X97120000Y-121995000D01*
X104130000Y-115725000D02*
X100130000Y-115725000D01*
X106750000Y-122795000D02*
X107350000Y-122795000D01*
X97120000Y-122110000D02*
X97120000Y-117920000D01*
X106750000Y-118835000D02*
X107350000Y-118835000D01*
X145350000Y-114810000D02*
X121350000Y-114810000D01*
X121350000Y-108710000D02*
X145350000Y-108710000D01*
X145350000Y-108710000D02*
X145350000Y-114810000D01*
X121350000Y-114810000D02*
X121350000Y-108710000D01*
X177353323Y-93316000D02*
X177353323Y-96765000D01*
X178793323Y-93316000D02*
X178793323Y-95864000D01*
X176953323Y-87238000D02*
X176953323Y-90834000D01*
X177393323Y-93316000D02*
X177393323Y-96749000D01*
X178273323Y-93316000D02*
X178273323Y-96269000D01*
X176913323Y-93316000D02*
X176913323Y-96925000D01*
X177753323Y-93316000D02*
X177753323Y-96579000D01*
X179833323Y-89565000D02*
X179833323Y-94585000D01*
X176473323Y-87110000D02*
X176473323Y-97040000D01*
X180153323Y-90229000D02*
X180153323Y-93921000D01*
X178993323Y-93316000D02*
X178993323Y-95676000D01*
X179753323Y-89430000D02*
X179753323Y-94720000D01*
X179073323Y-88555000D02*
X179073323Y-90834000D01*
X179633323Y-89245000D02*
X179633323Y-94905000D01*
X180073323Y-90038000D02*
X180073323Y-94112000D01*
X179473323Y-89021000D02*
X179473323Y-95129000D01*
X179113323Y-93316000D02*
X179113323Y-95553000D01*
X176753323Y-93316000D02*
X176753323Y-96972000D01*
X178313323Y-93316000D02*
X178313323Y-96241000D01*
X175392323Y-86995000D02*
X175392323Y-97155000D01*
X177313323Y-87368000D02*
X177313323Y-90834000D01*
X177153323Y-87307000D02*
X177153323Y-90834000D01*
X175552323Y-86997000D02*
X175552323Y-97153000D01*
X178953323Y-93316000D02*
X178953323Y-95715000D01*
X178833323Y-93316000D02*
X178833323Y-95828000D01*
X176753323Y-87178000D02*
X176753323Y-90834000D01*
X177033323Y-87264000D02*
X177033323Y-90834000D01*
X177193323Y-87321000D02*
X177193323Y-90834000D01*
X178553323Y-88086000D02*
X178553323Y-90834000D01*
X178673323Y-93316000D02*
X178673323Y-95967000D01*
X175832323Y-87013000D02*
X175832323Y-97137000D01*
X179593323Y-89186000D02*
X179593323Y-94964000D01*
X178993323Y-88474000D02*
X178993323Y-90834000D01*
X177993323Y-93316000D02*
X177993323Y-96446000D01*
X178433323Y-87995000D02*
X178433323Y-90834000D01*
X176113323Y-87045000D02*
X176113323Y-97105000D01*
X169912677Y-89200000D02*
X170912677Y-89200000D01*
X177313323Y-93316000D02*
X177313323Y-96782000D01*
X177513323Y-93316000D02*
X177513323Y-96696000D01*
X177753323Y-87571000D02*
X177753323Y-90834000D01*
X175712323Y-87005000D02*
X175712323Y-97145000D01*
X177273323Y-87352000D02*
X177273323Y-90834000D01*
X179433323Y-88969000D02*
X179433323Y-95181000D01*
X180113323Y-90131000D02*
X180113323Y-94019000D01*
X178513323Y-88055000D02*
X178513323Y-90834000D01*
X178593323Y-93316000D02*
X178593323Y-96032000D01*
X175432323Y-86995000D02*
X175432323Y-97155000D01*
X178873323Y-93316000D02*
X178873323Y-95791000D01*
X179673323Y-89305000D02*
X179673323Y-94845000D01*
X179993323Y-89866000D02*
X179993323Y-94284000D01*
X175672323Y-87002000D02*
X175672323Y-97148000D01*
X177873323Y-87635000D02*
X177873323Y-90834000D01*
X178913323Y-93316000D02*
X178913323Y-95754000D01*
X178073323Y-87752000D02*
X178073323Y-90834000D01*
X178593323Y-88118000D02*
X178593323Y-90834000D01*
X177473323Y-87436000D02*
X177473323Y-90834000D01*
X178633323Y-88150000D02*
X178633323Y-90834000D01*
X176833323Y-87201000D02*
X176833323Y-90834000D01*
X177433323Y-87418000D02*
X177433323Y-90834000D01*
X176793323Y-93316000D02*
X176793323Y-96960000D01*
X180193323Y-90333000D02*
X180193323Y-93817000D01*
X177713323Y-93316000D02*
X177713323Y-96600000D01*
X175632323Y-87000000D02*
X175632323Y-97150000D01*
X175992323Y-87030000D02*
X175992323Y-97120000D01*
X177953323Y-93316000D02*
X177953323Y-96470000D01*
X178673323Y-88183000D02*
X178673323Y-90834000D01*
X177233323Y-87337000D02*
X177233323Y-90834000D01*
X178353323Y-93316000D02*
X178353323Y-96213000D01*
X176153323Y-87051000D02*
X176153323Y-97099000D01*
X179793323Y-89496000D02*
X179793323Y-94654000D01*
X176873323Y-93316000D02*
X176873323Y-96937000D01*
X180473323Y-91476000D02*
X180473323Y-92674000D01*
X177353323Y-87385000D02*
X177353323Y-90834000D01*
X177593323Y-93316000D02*
X177593323Y-96659000D01*
X177673323Y-87530000D02*
X177673323Y-90834000D01*
X178913323Y-88396000D02*
X178913323Y-90834000D01*
X177113323Y-93316000D02*
X177113323Y-96858000D01*
X179393323Y-88919000D02*
X179393323Y-95231000D01*
X170412677Y-88700000D02*
X170412677Y-89700000D01*
X178233323Y-93316000D02*
X178233323Y-96296000D01*
X178433323Y-93316000D02*
X178433323Y-96155000D01*
X178393323Y-87965000D02*
X178393323Y-90834000D01*
X176193323Y-87057000D02*
X176193323Y-97093000D01*
X178153323Y-87802000D02*
X178153323Y-90834000D01*
X178313323Y-87909000D02*
X178313323Y-90834000D01*
X178473323Y-88025000D02*
X178473323Y-90834000D01*
X178713323Y-93316000D02*
X178713323Y-95933000D01*
X178873323Y-88359000D02*
X178873323Y-90834000D01*
X176393323Y-87093000D02*
X176393323Y-97057000D01*
X177913323Y-93316000D02*
X177913323Y-96492000D01*
X176433323Y-87101000D02*
X176433323Y-97049000D01*
X177633323Y-93316000D02*
X177633323Y-96639000D01*
X176993323Y-87251000D02*
X176993323Y-90834000D01*
X177873323Y-93316000D02*
X177873323Y-96515000D01*
X176032323Y-87035000D02*
X176032323Y-97115000D01*
X177633323Y-87511000D02*
X177633323Y-90834000D01*
X180433323Y-91213000D02*
X180433323Y-92937000D01*
X177273323Y-93316000D02*
X177273323Y-96798000D01*
X175872323Y-87017000D02*
X175872323Y-97133000D01*
X177113323Y-87292000D02*
X177113323Y-90834000D01*
X179873323Y-89636000D02*
X179873323Y-94514000D01*
X176673323Y-93316000D02*
X176673323Y-96993000D01*
X178233323Y-87854000D02*
X178233323Y-90834000D01*
X175912323Y-87021000D02*
X175912323Y-97129000D01*
X176833323Y-93316000D02*
X176833323Y-96949000D01*
X178033323Y-93316000D02*
X178033323Y-96422000D01*
X178513323Y-93316000D02*
X178513323Y-96095000D01*
X177033323Y-93316000D02*
X177033323Y-96886000D01*
X178753323Y-93316000D02*
X178753323Y-95899000D01*
X177793323Y-87592000D02*
X177793323Y-90834000D01*
X178153323Y-93316000D02*
X178153323Y-96348000D01*
X176273323Y-87071000D02*
X176273323Y-97079000D01*
X177193323Y-93316000D02*
X177193323Y-96829000D01*
X177673323Y-93316000D02*
X177673323Y-96620000D01*
X178833323Y-88322000D02*
X178833323Y-90834000D01*
X178273323Y-87881000D02*
X178273323Y-90834000D01*
X176233323Y-87064000D02*
X176233323Y-97086000D01*
X177913323Y-87658000D02*
X177913323Y-90834000D01*
X177553323Y-87472000D02*
X177553323Y-90834000D01*
X176713323Y-87168000D02*
X176713323Y-90834000D01*
X177233323Y-93316000D02*
X177233323Y-96813000D01*
X178353323Y-87937000D02*
X178353323Y-90834000D01*
X176913323Y-87225000D02*
X176913323Y-90834000D01*
X180233323Y-90445000D02*
X180233323Y-93705000D01*
X180273323Y-90565000D02*
X180273323Y-93585000D01*
X179313323Y-88821000D02*
X179313323Y-95329000D01*
X178753323Y-88251000D02*
X178753323Y-90834000D01*
X179193323Y-88683000D02*
X179193323Y-95467000D01*
X178193323Y-93316000D02*
X178193323Y-96322000D01*
X179073323Y-93316000D02*
X179073323Y-95595000D01*
X178553323Y-93316000D02*
X178553323Y-96064000D01*
X179153323Y-88639000D02*
X179153323Y-95511000D01*
X177953323Y-87680000D02*
X177953323Y-90834000D01*
X177473323Y-93316000D02*
X177473323Y-96714000D01*
X179033323Y-93316000D02*
X179033323Y-95636000D01*
X175752323Y-87007000D02*
X175752323Y-97143000D01*
X175472323Y-86995000D02*
X175472323Y-97155000D01*
X175512323Y-86996000D02*
X175512323Y-97154000D01*
X178193323Y-87828000D02*
X178193323Y-90834000D01*
X177073323Y-87278000D02*
X177073323Y-90834000D01*
X177993323Y-87704000D02*
X177993323Y-90834000D01*
X176353323Y-87085000D02*
X176353323Y-97065000D01*
X178073323Y-93316000D02*
X178073323Y-96398000D01*
X177553323Y-93316000D02*
X177553323Y-96678000D01*
X177793323Y-93316000D02*
X177793323Y-96558000D01*
X177713323Y-87550000D02*
X177713323Y-90834000D01*
X176313323Y-87078000D02*
X176313323Y-97072000D01*
X176873323Y-87213000D02*
X176873323Y-90834000D01*
X177833323Y-93316000D02*
X177833323Y-96537000D01*
X178393323Y-93316000D02*
X178393323Y-96185000D01*
X179913323Y-89710000D02*
X179913323Y-94440000D01*
X179953323Y-89786000D02*
X179953323Y-94364000D01*
X180033323Y-89950000D02*
X180033323Y-94200000D01*
X177073323Y-93316000D02*
X177073323Y-96872000D01*
X178713323Y-88217000D02*
X178713323Y-90834000D01*
X178033323Y-87728000D02*
X178033323Y-90834000D01*
X177833323Y-87613000D02*
X177833323Y-90834000D01*
X177513323Y-87454000D02*
X177513323Y-90834000D01*
X178793323Y-88286000D02*
X178793323Y-90834000D01*
X176513323Y-87119000D02*
X176513323Y-97031000D01*
X176553323Y-87128000D02*
X176553323Y-97022000D01*
X179553323Y-89130000D02*
X179553323Y-95020000D01*
X178473323Y-93316000D02*
X178473323Y-96125000D01*
X179353323Y-88869000D02*
X179353323Y-95281000D01*
X177593323Y-87491000D02*
X177593323Y-90834000D01*
X178953323Y-88435000D02*
X178953323Y-90834000D01*
X178633323Y-93316000D02*
X178633323Y-96000000D01*
X179233323Y-88728000D02*
X179233323Y-95422000D01*
X179113323Y-88597000D02*
X179113323Y-90834000D01*
X178113323Y-87777000D02*
X178113323Y-90834000D01*
X180393323Y-91013000D02*
X180393323Y-93137000D01*
X180313323Y-90697000D02*
X180313323Y-93453000D01*
X177393323Y-87401000D02*
X177393323Y-90834000D01*
X180353323Y-90845000D02*
X180353323Y-93305000D01*
X179273323Y-88774000D02*
X179273323Y-95376000D01*
X177153323Y-93316000D02*
X177153323Y-96843000D01*
X175952323Y-87025000D02*
X175952323Y-97125000D01*
X176593323Y-87137000D02*
X176593323Y-97013000D01*
X177433323Y-93316000D02*
X177433323Y-96732000D01*
X179513323Y-89075000D02*
X179513323Y-95075000D01*
X176793323Y-87190000D02*
X176793323Y-90834000D01*
X176633323Y-87147000D02*
X176633323Y-97003000D01*
X175592323Y-86998000D02*
X175592323Y-97152000D01*
X175792323Y-87010000D02*
X175792323Y-97140000D01*
X178113323Y-93316000D02*
X178113323Y-96373000D01*
X179033323Y-88514000D02*
X179033323Y-90834000D01*
X176993323Y-93316000D02*
X176993323Y-96899000D01*
X179713323Y-89366000D02*
X179713323Y-94784000D01*
X176072323Y-87040000D02*
X176072323Y-97110000D01*
X176953323Y-93316000D02*
X176953323Y-96912000D01*
X176673323Y-87157000D02*
X176673323Y-90834000D01*
X176713323Y-93316000D02*
X176713323Y-96982000D01*
X180512323Y-92075000D02*
G75*
G03*
X180512323Y-92075000I-5120000J0D01*
G01*
X159536252Y-121560000D02*
X158113748Y-121560000D01*
X159536252Y-119740000D02*
X158113748Y-119740000D01*
X156675000Y-67140000D02*
X156675000Y-83250000D01*
X160225000Y-83250000D02*
X160225000Y-85310000D01*
X161925000Y-83250000D02*
X161925000Y-85310000D01*
X156675000Y-67140000D02*
X167175000Y-67140000D01*
X163625000Y-83250000D02*
X163625000Y-85310000D01*
X167175000Y-67140000D02*
X167175000Y-83250000D01*
X158525000Y-83250000D02*
X158525000Y-85310000D01*
X156675000Y-83250000D02*
X167175000Y-83250000D01*
X165325000Y-83250000D02*
X165325000Y-85310000D01*
X158525000Y-87885000D02*
X163925000Y-87885000D01*
X158525000Y-91185000D02*
X163925000Y-91185000D01*
X158525000Y-87885000D02*
X158525000Y-91185000D01*
X137110000Y-101725000D02*
X137110000Y-104725000D01*
X124510000Y-92125000D02*
X137110000Y-92125000D01*
X137110000Y-104725000D02*
X124510000Y-104725000D01*
X124510000Y-104725000D02*
X124510000Y-101725000D01*
X137110000Y-92125000D02*
X137110000Y-95125000D01*
X124510000Y-95125000D02*
X124510000Y-92125000D01*
X129470000Y-121195000D02*
X128870000Y-121195000D01*
X129470000Y-122795000D02*
X129470000Y-121195000D01*
X129470000Y-118835000D02*
X129470000Y-117235000D01*
X138100000Y-118035000D02*
X139100000Y-118035000D01*
X139100000Y-117920000D02*
X139100000Y-122110000D01*
X128870000Y-118835000D02*
X129470000Y-118835000D01*
X139100000Y-121995000D02*
X138100000Y-121995000D01*
X138100000Y-121995000D02*
X138100000Y-118035000D01*
X136430000Y-121995000D02*
X136430000Y-118035000D01*
X139100000Y-122110000D02*
X138095000Y-122110000D01*
X132090000Y-124305000D02*
X136090000Y-124305000D01*
X128870000Y-124015000D02*
X128870000Y-116015000D01*
X136430000Y-118035000D02*
X138100000Y-118035000D01*
X138095000Y-117920000D02*
X139100000Y-117920000D01*
X128870000Y-116015000D02*
X138095000Y-116015000D01*
X129470000Y-117235000D02*
X128870000Y-117235000D01*
X128870000Y-122795000D02*
X129470000Y-122795000D01*
X138100000Y-121995000D02*
X136430000Y-121995000D01*
X138095000Y-116015000D02*
X138095000Y-117920000D01*
X138095000Y-122110000D02*
X138095000Y-124015000D01*
X138095000Y-124015000D02*
X128870000Y-124015000D01*
X144843323Y-87137000D02*
X144843323Y-97013000D01*
X146003323Y-87571000D02*
X146003323Y-90834000D01*
X144363323Y-87045000D02*
X144363323Y-97105000D01*
X146883323Y-93316000D02*
X146883323Y-96000000D01*
X147363323Y-93316000D02*
X147363323Y-95553000D01*
X145643323Y-87401000D02*
X145643323Y-90834000D01*
X146443323Y-93316000D02*
X146443323Y-96322000D01*
X147603323Y-88869000D02*
X147603323Y-95281000D01*
X146323323Y-87752000D02*
X146323323Y-90834000D01*
X145363323Y-93316000D02*
X145363323Y-96858000D01*
X144282323Y-87035000D02*
X144282323Y-97115000D01*
X148243323Y-89866000D02*
X148243323Y-94284000D01*
X147123323Y-88359000D02*
X147123323Y-90834000D01*
X138662677Y-88700000D02*
X138662677Y-89700000D01*
X145723323Y-87436000D02*
X145723323Y-90834000D01*
X144563323Y-87078000D02*
X144563323Y-97072000D01*
X145243323Y-93316000D02*
X145243323Y-96899000D01*
X146083323Y-93316000D02*
X146083323Y-96537000D01*
X148683323Y-91213000D02*
X148683323Y-92937000D01*
X144322323Y-87040000D02*
X144322323Y-97110000D01*
X143682323Y-86995000D02*
X143682323Y-97155000D01*
X144443323Y-87057000D02*
X144443323Y-97093000D01*
X138162677Y-89200000D02*
X139162677Y-89200000D01*
X145763323Y-87454000D02*
X145763323Y-90834000D01*
X147443323Y-88683000D02*
X147443323Y-95467000D01*
X148123323Y-89636000D02*
X148123323Y-94514000D01*
X145603323Y-87385000D02*
X145603323Y-90834000D01*
X144523323Y-87071000D02*
X144523323Y-97079000D01*
X147203323Y-88435000D02*
X147203323Y-90834000D01*
X147083323Y-88322000D02*
X147083323Y-90834000D01*
X148523323Y-90565000D02*
X148523323Y-93585000D01*
X143842323Y-86998000D02*
X143842323Y-97152000D01*
X146763323Y-88055000D02*
X146763323Y-90834000D01*
X147123323Y-93316000D02*
X147123323Y-95791000D01*
X148443323Y-90333000D02*
X148443323Y-93817000D01*
X146843323Y-88118000D02*
X146843323Y-90834000D01*
X147283323Y-88514000D02*
X147283323Y-90834000D01*
X147843323Y-89186000D02*
X147843323Y-94964000D01*
X147923323Y-89305000D02*
X147923323Y-94845000D01*
X146243323Y-93316000D02*
X146243323Y-96446000D01*
X145563323Y-87368000D02*
X145563323Y-90834000D01*
X148643323Y-91013000D02*
X148643323Y-93137000D01*
X145803323Y-87472000D02*
X145803323Y-90834000D01*
X146763323Y-93316000D02*
X146763323Y-96095000D01*
X143802323Y-86997000D02*
X143802323Y-97153000D01*
X147043323Y-93316000D02*
X147043323Y-95864000D01*
X145483323Y-87337000D02*
X145483323Y-90834000D01*
X148323323Y-90038000D02*
X148323323Y-94112000D01*
X145403323Y-93316000D02*
X145403323Y-96843000D01*
X145883323Y-87511000D02*
X145883323Y-90834000D01*
X145963323Y-87550000D02*
X145963323Y-90834000D01*
X146243323Y-87704000D02*
X146243323Y-90834000D01*
X146483323Y-87854000D02*
X146483323Y-90834000D01*
X145083323Y-87201000D02*
X145083323Y-90834000D01*
X144002323Y-87007000D02*
X144002323Y-97143000D01*
X147003323Y-88251000D02*
X147003323Y-90834000D01*
X144723323Y-87110000D02*
X144723323Y-97040000D01*
X145443323Y-93316000D02*
X145443323Y-96829000D01*
X147283323Y-93316000D02*
X147283323Y-95636000D01*
X145683323Y-93316000D02*
X145683323Y-96732000D01*
X147323323Y-93316000D02*
X147323323Y-95595000D01*
X145603323Y-93316000D02*
X145603323Y-96765000D01*
X145203323Y-87238000D02*
X145203323Y-90834000D01*
X145643323Y-93316000D02*
X145643323Y-96749000D01*
X147883323Y-89245000D02*
X147883323Y-94905000D01*
X147203323Y-93316000D02*
X147203323Y-95715000D01*
X147963323Y-89366000D02*
X147963323Y-94784000D01*
X146643323Y-93316000D02*
X146643323Y-96185000D01*
X144963323Y-93316000D02*
X144963323Y-96982000D01*
X148723323Y-91476000D02*
X148723323Y-92674000D01*
X147563323Y-88821000D02*
X147563323Y-95329000D01*
X145203323Y-93316000D02*
X145203323Y-96912000D01*
X145363323Y-87292000D02*
X145363323Y-90834000D01*
X146963323Y-88217000D02*
X146963323Y-90834000D01*
X146283323Y-87728000D02*
X146283323Y-90834000D01*
X145443323Y-87321000D02*
X145443323Y-90834000D01*
X146603323Y-87937000D02*
X146603323Y-90834000D01*
X145843323Y-93316000D02*
X145843323Y-96659000D01*
X147043323Y-88286000D02*
X147043323Y-90834000D01*
X145483323Y-93316000D02*
X145483323Y-96813000D01*
X145123323Y-93316000D02*
X145123323Y-96937000D01*
X146803323Y-93316000D02*
X146803323Y-96064000D01*
X144122323Y-87017000D02*
X144122323Y-97133000D01*
X143922323Y-87002000D02*
X143922323Y-97148000D01*
X145763323Y-93316000D02*
X145763323Y-96696000D01*
X145163323Y-87225000D02*
X145163323Y-90834000D01*
X147403323Y-88639000D02*
X147403323Y-95511000D01*
X146723323Y-88025000D02*
X146723323Y-90834000D01*
X146563323Y-87909000D02*
X146563323Y-90834000D01*
X146123323Y-87635000D02*
X146123323Y-90834000D01*
X145883323Y-93316000D02*
X145883323Y-96639000D01*
X145523323Y-87352000D02*
X145523323Y-90834000D01*
X145323323Y-93316000D02*
X145323323Y-96872000D01*
X145803323Y-93316000D02*
X145803323Y-96678000D01*
X147483323Y-88728000D02*
X147483323Y-95422000D01*
X144202323Y-87025000D02*
X144202323Y-97125000D01*
X145163323Y-93316000D02*
X145163323Y-96925000D01*
X144763323Y-87119000D02*
X144763323Y-97031000D01*
X146123323Y-93316000D02*
X146123323Y-96515000D01*
X147723323Y-89021000D02*
X147723323Y-95129000D01*
X143962323Y-87005000D02*
X143962323Y-97145000D01*
X146363323Y-93316000D02*
X146363323Y-96373000D01*
X148603323Y-90845000D02*
X148603323Y-93305000D01*
X145923323Y-93316000D02*
X145923323Y-96620000D01*
X148083323Y-89565000D02*
X148083323Y-94585000D01*
X143762323Y-86996000D02*
X143762323Y-97154000D01*
X148043323Y-89496000D02*
X148043323Y-94654000D01*
X145523323Y-93316000D02*
X145523323Y-96798000D01*
X144242323Y-87030000D02*
X144242323Y-97120000D01*
X148563323Y-90697000D02*
X148563323Y-93453000D01*
X147243323Y-88474000D02*
X147243323Y-90834000D01*
X146683323Y-87995000D02*
X146683323Y-90834000D01*
X145683323Y-87418000D02*
X145683323Y-90834000D01*
X145283323Y-87264000D02*
X145283323Y-90834000D01*
X146203323Y-93316000D02*
X146203323Y-96470000D01*
X145723323Y-93316000D02*
X145723323Y-96714000D01*
X144403323Y-87051000D02*
X144403323Y-97099000D01*
X144483323Y-87064000D02*
X144483323Y-97086000D01*
X146043323Y-93316000D02*
X146043323Y-96558000D01*
X147763323Y-89075000D02*
X147763323Y-95075000D01*
X144042323Y-87010000D02*
X144042323Y-97140000D01*
X144162323Y-87021000D02*
X144162323Y-97129000D01*
X147083323Y-93316000D02*
X147083323Y-95828000D01*
X144803323Y-87128000D02*
X144803323Y-97022000D01*
X146683323Y-93316000D02*
X146683323Y-96155000D01*
X146043323Y-87592000D02*
X146043323Y-90834000D01*
X148283323Y-89950000D02*
X148283323Y-94200000D01*
X146563323Y-93316000D02*
X146563323Y-96241000D01*
X146403323Y-87802000D02*
X146403323Y-90834000D01*
X146843323Y-93316000D02*
X146843323Y-96032000D01*
X148203323Y-89786000D02*
X148203323Y-94364000D01*
X148163323Y-89710000D02*
X148163323Y-94440000D01*
X144883323Y-87147000D02*
X144883323Y-97003000D01*
X146003323Y-93316000D02*
X146003323Y-96579000D01*
X147163323Y-88396000D02*
X147163323Y-90834000D01*
X146923323Y-88183000D02*
X146923323Y-90834000D01*
X144603323Y-87085000D02*
X144603323Y-97065000D01*
X147523323Y-88774000D02*
X147523323Y-95376000D01*
X145283323Y-93316000D02*
X145283323Y-96886000D01*
X143642323Y-86995000D02*
X143642323Y-97155000D01*
X145083323Y-93316000D02*
X145083323Y-96949000D01*
X145123323Y-87213000D02*
X145123323Y-90834000D01*
X148003323Y-89430000D02*
X148003323Y-94720000D01*
X147243323Y-93316000D02*
X147243323Y-95676000D01*
X146523323Y-87881000D02*
X146523323Y-90834000D01*
X144923323Y-93316000D02*
X144923323Y-96993000D01*
X146923323Y-93316000D02*
X146923323Y-95967000D01*
X146603323Y-93316000D02*
X146603323Y-96213000D01*
X148363323Y-90131000D02*
X148363323Y-94019000D01*
X146363323Y-87777000D02*
X146363323Y-90834000D01*
X147323323Y-88555000D02*
X147323323Y-90834000D01*
X147683323Y-88969000D02*
X147683323Y-95181000D01*
X144683323Y-87101000D02*
X144683323Y-97049000D01*
X146283323Y-93316000D02*
X146283323Y-96422000D01*
X148403323Y-90229000D02*
X148403323Y-93921000D01*
X148483323Y-90445000D02*
X148483323Y-93705000D01*
X146443323Y-87828000D02*
X146443323Y-90834000D01*
X146803323Y-88086000D02*
X146803323Y-90834000D01*
X145843323Y-87491000D02*
X145843323Y-90834000D01*
X146963323Y-93316000D02*
X146963323Y-95933000D01*
X144082323Y-87013000D02*
X144082323Y-97137000D01*
X143882323Y-87000000D02*
X143882323Y-97150000D01*
X146723323Y-93316000D02*
X146723323Y-96125000D01*
X145323323Y-87278000D02*
X145323323Y-90834000D01*
X146163323Y-87658000D02*
X146163323Y-90834000D01*
X147803323Y-89130000D02*
X147803323Y-95020000D01*
X144643323Y-87093000D02*
X144643323Y-97057000D01*
X146083323Y-87613000D02*
X146083323Y-90834000D01*
X145003323Y-93316000D02*
X145003323Y-96972000D01*
X145003323Y-87178000D02*
X145003323Y-90834000D01*
X146483323Y-93316000D02*
X146483323Y-96296000D01*
X145563323Y-93316000D02*
X145563323Y-96782000D01*
X147003323Y-93316000D02*
X147003323Y-95899000D01*
X144923323Y-87157000D02*
X144923323Y-90834000D01*
X145243323Y-87251000D02*
X145243323Y-90834000D01*
X144963323Y-87168000D02*
X144963323Y-90834000D01*
X146203323Y-87680000D02*
X146203323Y-90834000D01*
X145923323Y-87530000D02*
X145923323Y-90834000D01*
X143722323Y-86995000D02*
X143722323Y-97155000D01*
X146323323Y-93316000D02*
X146323323Y-96398000D01*
X147163323Y-93316000D02*
X147163323Y-95754000D01*
X145403323Y-87307000D02*
X145403323Y-90834000D01*
X147643323Y-88919000D02*
X147643323Y-95231000D01*
X146163323Y-93316000D02*
X146163323Y-96492000D01*
X145043323Y-93316000D02*
X145043323Y-96960000D01*
X146643323Y-87965000D02*
X146643323Y-90834000D01*
X147363323Y-88597000D02*
X147363323Y-90834000D01*
X145963323Y-93316000D02*
X145963323Y-96600000D01*
X146883323Y-88150000D02*
X146883323Y-90834000D01*
X146403323Y-93316000D02*
X146403323Y-96348000D01*
X146523323Y-93316000D02*
X146523323Y-96269000D01*
X145043323Y-87190000D02*
X145043323Y-90834000D01*
X148762323Y-92075000D02*
G75*
G03*
X148762323Y-92075000I-5120000J0D01*
G01*
X115653323Y-88639000D02*
X115653323Y-95511000D01*
X112893323Y-87093000D02*
X112893323Y-97057000D01*
X111972323Y-86995000D02*
X111972323Y-97155000D01*
X115493323Y-88474000D02*
X115493323Y-90834000D01*
X114733323Y-93316000D02*
X114733323Y-96296000D01*
X113133323Y-87147000D02*
X113133323Y-97003000D01*
X112412323Y-87021000D02*
X112412323Y-97129000D01*
X115493323Y-93316000D02*
X115493323Y-95676000D01*
X116293323Y-89496000D02*
X116293323Y-94654000D01*
X112853323Y-87085000D02*
X112853323Y-97065000D01*
X112052323Y-86997000D02*
X112052323Y-97153000D01*
X114013323Y-87454000D02*
X114013323Y-90834000D01*
X112012323Y-86996000D02*
X112012323Y-97154000D01*
X113333323Y-87201000D02*
X113333323Y-90834000D01*
X113573323Y-87278000D02*
X113573323Y-90834000D01*
X112492323Y-87030000D02*
X112492323Y-97120000D01*
X112292323Y-87010000D02*
X112292323Y-97140000D01*
X114413323Y-93316000D02*
X114413323Y-96492000D01*
X114173323Y-93316000D02*
X114173323Y-96620000D01*
X112813323Y-87078000D02*
X112813323Y-97072000D01*
X113253323Y-93316000D02*
X113253323Y-96972000D01*
X114613323Y-87777000D02*
X114613323Y-90834000D01*
X116133323Y-89245000D02*
X116133323Y-94905000D01*
X116613323Y-90131000D02*
X116613323Y-94019000D01*
X115613323Y-88597000D02*
X115613323Y-90834000D01*
X114213323Y-93316000D02*
X114213323Y-96600000D01*
X115093323Y-93316000D02*
X115093323Y-96032000D01*
X114693323Y-93316000D02*
X114693323Y-96322000D01*
X115893323Y-88919000D02*
X115893323Y-95231000D01*
X113253323Y-87178000D02*
X113253323Y-90834000D01*
X114133323Y-87511000D02*
X114133323Y-90834000D01*
X113653323Y-93316000D02*
X113653323Y-96843000D01*
X112092323Y-86998000D02*
X112092323Y-97152000D01*
X115293323Y-88286000D02*
X115293323Y-90834000D01*
X113613323Y-87292000D02*
X113613323Y-90834000D01*
X114373323Y-93316000D02*
X114373323Y-96515000D01*
X106912677Y-88700000D02*
X106912677Y-89700000D01*
X113693323Y-93316000D02*
X113693323Y-96829000D01*
X114773323Y-87881000D02*
X114773323Y-90834000D01*
X112132323Y-87000000D02*
X112132323Y-97150000D01*
X116453323Y-89786000D02*
X116453323Y-94364000D01*
X114373323Y-87635000D02*
X114373323Y-90834000D01*
X116933323Y-91213000D02*
X116933323Y-92937000D01*
X113373323Y-93316000D02*
X113373323Y-96937000D01*
X114493323Y-93316000D02*
X114493323Y-96446000D01*
X113653323Y-87307000D02*
X113653323Y-90834000D01*
X114933323Y-87995000D02*
X114933323Y-90834000D01*
X111932323Y-86995000D02*
X111932323Y-97155000D01*
X113413323Y-87225000D02*
X113413323Y-90834000D01*
X114853323Y-93316000D02*
X114853323Y-96213000D01*
X112933323Y-87101000D02*
X112933323Y-97049000D01*
X112653323Y-87051000D02*
X112653323Y-97099000D01*
X112252323Y-87007000D02*
X112252323Y-97143000D01*
X114533323Y-87728000D02*
X114533323Y-90834000D01*
X115253323Y-93316000D02*
X115253323Y-95899000D01*
X116373323Y-89636000D02*
X116373323Y-94514000D01*
X115533323Y-88514000D02*
X115533323Y-90834000D01*
X113733323Y-93316000D02*
X113733323Y-96813000D01*
X113373323Y-87213000D02*
X113373323Y-90834000D01*
X114333323Y-87613000D02*
X114333323Y-90834000D01*
X114653323Y-87802000D02*
X114653323Y-90834000D01*
X113453323Y-87238000D02*
X113453323Y-90834000D01*
X115013323Y-93316000D02*
X115013323Y-96095000D01*
X114253323Y-87571000D02*
X114253323Y-90834000D01*
X115533323Y-93316000D02*
X115533323Y-95636000D01*
X114613323Y-93316000D02*
X114613323Y-96373000D01*
X106412677Y-89200000D02*
X107412677Y-89200000D01*
X115453323Y-88435000D02*
X115453323Y-90834000D01*
X116213323Y-89366000D02*
X116213323Y-94784000D01*
X116693323Y-90333000D02*
X116693323Y-93817000D01*
X114733323Y-87854000D02*
X114733323Y-90834000D01*
X114413323Y-87658000D02*
X114413323Y-90834000D01*
X112693323Y-87057000D02*
X112693323Y-97093000D01*
X113893323Y-87401000D02*
X113893323Y-90834000D01*
X114093323Y-93316000D02*
X114093323Y-96659000D01*
X115773323Y-88774000D02*
X115773323Y-95376000D01*
X115733323Y-88728000D02*
X115733323Y-95422000D01*
X114893323Y-87965000D02*
X114893323Y-90834000D01*
X114053323Y-93316000D02*
X114053323Y-96678000D01*
X116173323Y-89305000D02*
X116173323Y-94845000D01*
X112452323Y-87025000D02*
X112452323Y-97125000D01*
X113613323Y-93316000D02*
X113613323Y-96858000D01*
X114173323Y-87530000D02*
X114173323Y-90834000D01*
X112572323Y-87040000D02*
X112572323Y-97110000D01*
X115373323Y-88359000D02*
X115373323Y-90834000D01*
X115253323Y-88251000D02*
X115253323Y-90834000D01*
X113093323Y-87137000D02*
X113093323Y-97013000D01*
X115013323Y-88055000D02*
X115013323Y-90834000D01*
X115613323Y-93316000D02*
X115613323Y-95553000D01*
X113533323Y-87264000D02*
X113533323Y-90834000D01*
X114573323Y-87752000D02*
X114573323Y-90834000D01*
X116333323Y-89565000D02*
X116333323Y-94585000D01*
X112172323Y-87002000D02*
X112172323Y-97148000D01*
X115573323Y-93316000D02*
X115573323Y-95595000D01*
X112212323Y-87005000D02*
X112212323Y-97145000D01*
X113973323Y-87436000D02*
X113973323Y-90834000D01*
X113893323Y-93316000D02*
X113893323Y-96749000D01*
X112332323Y-87013000D02*
X112332323Y-97137000D01*
X116733323Y-90445000D02*
X116733323Y-93705000D01*
X112973323Y-87110000D02*
X112973323Y-97040000D01*
X113013323Y-87119000D02*
X113013323Y-97031000D01*
X115053323Y-88086000D02*
X115053323Y-90834000D01*
X114053323Y-87472000D02*
X114053323Y-90834000D01*
X114813323Y-93316000D02*
X114813323Y-96241000D01*
X112532323Y-87035000D02*
X112532323Y-97115000D01*
X116813323Y-90697000D02*
X116813323Y-93453000D01*
X113773323Y-87352000D02*
X113773323Y-90834000D01*
X114573323Y-93316000D02*
X114573323Y-96398000D01*
X112773323Y-87071000D02*
X112773323Y-97079000D01*
X113933323Y-87418000D02*
X113933323Y-90834000D01*
X114813323Y-87909000D02*
X114813323Y-90834000D01*
X113813323Y-93316000D02*
X113813323Y-96782000D01*
X113933323Y-93316000D02*
X113933323Y-96732000D01*
X116013323Y-89075000D02*
X116013323Y-95075000D01*
X115333323Y-93316000D02*
X115333323Y-95828000D01*
X114493323Y-87704000D02*
X114493323Y-90834000D01*
X113333323Y-93316000D02*
X113333323Y-96949000D01*
X116853323Y-90845000D02*
X116853323Y-93305000D01*
X114893323Y-93316000D02*
X114893323Y-96185000D01*
X115413323Y-93316000D02*
X115413323Y-95754000D01*
X114933323Y-93316000D02*
X114933323Y-96155000D01*
X113293323Y-93316000D02*
X113293323Y-96960000D01*
X114253323Y-93316000D02*
X114253323Y-96579000D01*
X114333323Y-93316000D02*
X114333323Y-96537000D01*
X115133323Y-93316000D02*
X115133323Y-96000000D01*
X111892323Y-86995000D02*
X111892323Y-97155000D01*
X112372323Y-87017000D02*
X112372323Y-97133000D01*
X114973323Y-88025000D02*
X114973323Y-90834000D01*
X114653323Y-93316000D02*
X114653323Y-96348000D01*
X114693323Y-87828000D02*
X114693323Y-90834000D01*
X115173323Y-88183000D02*
X115173323Y-90834000D01*
X115213323Y-88217000D02*
X115213323Y-90834000D01*
X114133323Y-93316000D02*
X114133323Y-96639000D01*
X113853323Y-87385000D02*
X113853323Y-90834000D01*
X113453323Y-93316000D02*
X113453323Y-96912000D01*
X113493323Y-93316000D02*
X113493323Y-96899000D01*
X115933323Y-88969000D02*
X115933323Y-95181000D01*
X114093323Y-87491000D02*
X114093323Y-90834000D01*
X114293323Y-87592000D02*
X114293323Y-90834000D01*
X115333323Y-88322000D02*
X115333323Y-90834000D01*
X115053323Y-93316000D02*
X115053323Y-96064000D01*
X115133323Y-88150000D02*
X115133323Y-90834000D01*
X116773323Y-90565000D02*
X116773323Y-93585000D01*
X112733323Y-87064000D02*
X112733323Y-97086000D01*
X113813323Y-87368000D02*
X113813323Y-90834000D01*
X115813323Y-88821000D02*
X115813323Y-95329000D01*
X115413323Y-88396000D02*
X115413323Y-90834000D01*
X115693323Y-88683000D02*
X115693323Y-95467000D01*
X116573323Y-90038000D02*
X116573323Y-94112000D01*
X115173323Y-93316000D02*
X115173323Y-95967000D01*
X116053323Y-89130000D02*
X116053323Y-95020000D01*
X113173323Y-93316000D02*
X113173323Y-96993000D01*
X116253323Y-89430000D02*
X116253323Y-94720000D01*
X113173323Y-87157000D02*
X113173323Y-90834000D01*
X114013323Y-93316000D02*
X114013323Y-96696000D01*
X115453323Y-93316000D02*
X115453323Y-95715000D01*
X116493323Y-89866000D02*
X116493323Y-94284000D01*
X113973323Y-93316000D02*
X113973323Y-96714000D01*
X114453323Y-93316000D02*
X114453323Y-96470000D01*
X112613323Y-87045000D02*
X112613323Y-97105000D01*
X116533323Y-89950000D02*
X116533323Y-94200000D01*
X114293323Y-93316000D02*
X114293323Y-96558000D01*
X113413323Y-93316000D02*
X113413323Y-96925000D01*
X114853323Y-87937000D02*
X114853323Y-90834000D01*
X113293323Y-87190000D02*
X113293323Y-90834000D01*
X113213323Y-87168000D02*
X113213323Y-90834000D01*
X116093323Y-89186000D02*
X116093323Y-94964000D01*
X113493323Y-87251000D02*
X113493323Y-90834000D01*
X115573323Y-88555000D02*
X115573323Y-90834000D01*
X114213323Y-87550000D02*
X114213323Y-90834000D01*
X115973323Y-89021000D02*
X115973323Y-95129000D01*
X113213323Y-93316000D02*
X113213323Y-96982000D01*
X115373323Y-93316000D02*
X115373323Y-95791000D01*
X114973323Y-93316000D02*
X114973323Y-96125000D01*
X113693323Y-87321000D02*
X113693323Y-90834000D01*
X113773323Y-93316000D02*
X113773323Y-96798000D01*
X113853323Y-93316000D02*
X113853323Y-96765000D01*
X116653323Y-90229000D02*
X116653323Y-93921000D01*
X113053323Y-87128000D02*
X113053323Y-97022000D01*
X116893323Y-91013000D02*
X116893323Y-93137000D01*
X115853323Y-88869000D02*
X115853323Y-95281000D01*
X115093323Y-88118000D02*
X115093323Y-90834000D01*
X113573323Y-93316000D02*
X113573323Y-96872000D01*
X115213323Y-93316000D02*
X115213323Y-95933000D01*
X113733323Y-87337000D02*
X113733323Y-90834000D01*
X114533323Y-93316000D02*
X114533323Y-96422000D01*
X116413323Y-89710000D02*
X116413323Y-94440000D01*
X113533323Y-93316000D02*
X113533323Y-96886000D01*
X116973323Y-91476000D02*
X116973323Y-92674000D01*
X115293323Y-93316000D02*
X115293323Y-95864000D01*
X114773323Y-93316000D02*
X114773323Y-96269000D01*
X114453323Y-87680000D02*
X114453323Y-90834000D01*
X117012323Y-92075000D02*
G75*
G03*
X117012323Y-92075000I-5120000J0D01*
G01*
X170550000Y-67750000D02*
X170550000Y-66745000D01*
X171465000Y-76375000D02*
X169865000Y-76375000D01*
X175425000Y-76975000D02*
X175425000Y-76375000D01*
X176645000Y-67750000D02*
X176645000Y-76975000D01*
X174740000Y-66745000D02*
X174740000Y-67750000D01*
X170550000Y-66745000D02*
X174740000Y-66745000D01*
X170665000Y-67745000D02*
X170665000Y-66745000D01*
X168645000Y-76975000D02*
X168645000Y-67750000D01*
X174625000Y-69415000D02*
X170665000Y-69415000D01*
X174625000Y-67745000D02*
X174625000Y-69415000D01*
X176645000Y-76975000D02*
X168645000Y-76975000D01*
X176935000Y-73755000D02*
X176935000Y-69755000D01*
X171465000Y-76975000D02*
X171465000Y-76375000D01*
X173825000Y-76375000D02*
X173825000Y-76975000D01*
X174740000Y-67750000D02*
X176645000Y-67750000D01*
X174625000Y-66745000D02*
X174625000Y-67745000D01*
X170665000Y-69415000D02*
X170665000Y-67745000D01*
X175425000Y-76375000D02*
X173825000Y-76375000D01*
X174625000Y-67745000D02*
X170665000Y-67745000D01*
X169865000Y-76375000D02*
X169865000Y-76975000D01*
X168645000Y-67750000D02*
X170550000Y-67750000D01*
X95025000Y-87885000D02*
X95025000Y-91185000D01*
X95025000Y-87885000D02*
X100425000Y-87885000D01*
X95025000Y-91185000D02*
X100425000Y-91185000D01*
X150158750Y-86593750D02*
X150946250Y-86593750D01*
X150054437Y-85960000D02*
X151340000Y-85960000D01*
X150054437Y-85960000D02*
X148990000Y-84895563D01*
X155810000Y-79140000D02*
X153460000Y-79140000D01*
X154745563Y-85960000D02*
X155810000Y-84895563D01*
X148990000Y-79140000D02*
X151340000Y-79140000D01*
X154745563Y-85960000D02*
X153460000Y-85960000D01*
X148990000Y-84895563D02*
X148990000Y-79140000D01*
X150552500Y-86987500D02*
X150552500Y-86200000D01*
X155810000Y-84895563D02*
X155810000Y-79140000D01*
X113145000Y-67750000D02*
X113145000Y-76975000D01*
X105145000Y-76975000D02*
X105145000Y-67750000D01*
X106365000Y-76375000D02*
X106365000Y-76975000D01*
X113435000Y-73755000D02*
X113435000Y-69755000D01*
X105145000Y-67750000D02*
X107050000Y-67750000D01*
X111925000Y-76975000D02*
X111925000Y-76375000D01*
X107965000Y-76375000D02*
X106365000Y-76375000D01*
X107165000Y-67745000D02*
X107165000Y-66745000D01*
X113145000Y-76975000D02*
X105145000Y-76975000D01*
X107050000Y-66745000D02*
X111240000Y-66745000D01*
X107050000Y-67750000D02*
X107050000Y-66745000D01*
X111925000Y-76375000D02*
X110325000Y-76375000D01*
X111125000Y-67745000D02*
X111125000Y-69415000D01*
X107165000Y-69415000D02*
X107165000Y-67745000D01*
X111240000Y-66745000D02*
X111240000Y-67750000D01*
X111125000Y-66745000D02*
X111125000Y-67745000D01*
X111125000Y-69415000D02*
X107165000Y-69415000D01*
X110325000Y-76375000D02*
X110325000Y-76975000D01*
X107965000Y-76975000D02*
X107965000Y-76375000D01*
X111125000Y-67745000D02*
X107165000Y-67745000D01*
X111240000Y-67750000D02*
X113145000Y-67750000D01*
X117240000Y-79140000D02*
X119590000Y-79140000D01*
X122995563Y-85960000D02*
X121710000Y-85960000D01*
X122995563Y-85960000D02*
X124060000Y-84895563D01*
X118408750Y-86593750D02*
X119196250Y-86593750D01*
X124060000Y-79140000D02*
X121710000Y-79140000D01*
X118304437Y-85960000D02*
X119590000Y-85960000D01*
X124060000Y-84895563D02*
X124060000Y-79140000D01*
X118802500Y-86987500D02*
X118802500Y-86200000D01*
X117240000Y-84895563D02*
X117240000Y-79140000D01*
X118304437Y-85960000D02*
X117240000Y-84895563D01*
X157480000Y-132645000D02*
X157480000Y-131645000D01*
X158280000Y-123015000D02*
X158280000Y-122415000D01*
X162240000Y-123015000D02*
X162240000Y-122415000D01*
X157480000Y-129975000D02*
X161440000Y-129975000D01*
X156680000Y-123015000D02*
X158280000Y-123015000D01*
X161440000Y-129975000D02*
X161440000Y-131645000D01*
X161555000Y-132645000D02*
X157365000Y-132645000D01*
X157480000Y-131645000D02*
X157480000Y-129975000D01*
X157480000Y-131645000D02*
X161440000Y-131645000D01*
X155460000Y-131640000D02*
X155460000Y-122415000D01*
X157365000Y-132645000D02*
X157365000Y-131640000D01*
X161555000Y-131640000D02*
X161555000Y-132645000D01*
X155170000Y-125635000D02*
X155170000Y-129635000D01*
X155460000Y-122415000D02*
X163460000Y-122415000D01*
X161440000Y-131645000D02*
X161440000Y-132645000D01*
X160640000Y-123015000D02*
X162240000Y-123015000D01*
X163460000Y-131640000D02*
X161555000Y-131640000D01*
X157365000Y-131640000D02*
X155460000Y-131640000D01*
X156680000Y-122415000D02*
X156680000Y-123015000D01*
X160640000Y-122415000D02*
X160640000Y-123015000D01*
X163460000Y-122415000D02*
X163460000Y-131640000D01*
X143675000Y-76975000D02*
X143675000Y-76375000D01*
X142990000Y-67750000D02*
X144895000Y-67750000D01*
X145185000Y-73755000D02*
X145185000Y-69755000D01*
X142875000Y-66745000D02*
X142875000Y-67745000D01*
X144895000Y-67750000D02*
X144895000Y-76975000D01*
X142875000Y-69415000D02*
X138915000Y-69415000D01*
X142875000Y-67745000D02*
X138915000Y-67745000D01*
X138915000Y-69415000D02*
X138915000Y-67745000D01*
X139715000Y-76375000D02*
X138115000Y-76375000D01*
X136895000Y-76975000D02*
X136895000Y-67750000D01*
X139715000Y-76975000D02*
X139715000Y-76375000D01*
X138800000Y-67750000D02*
X138800000Y-66745000D01*
X142875000Y-67745000D02*
X142875000Y-69415000D01*
X138115000Y-76375000D02*
X138115000Y-76975000D01*
X143675000Y-76375000D02*
X142075000Y-76375000D01*
X136895000Y-67750000D02*
X138800000Y-67750000D01*
X138800000Y-66745000D02*
X142990000Y-66745000D01*
X144895000Y-76975000D02*
X136895000Y-76975000D01*
X142990000Y-66745000D02*
X142990000Y-67750000D01*
X138915000Y-67745000D02*
X138915000Y-66745000D01*
X142075000Y-76375000D02*
X142075000Y-76975000D01*
M02*
