M48
; DRILL file {KiCad 6.0.4-6f826c9f35~116~ubuntu21.10.1} date Wed 20 Apr 2022 07:24:41 PM CEST
; FORMAT={-:-/ absolute / metric / decimal}
; #@! TF.CreationDate,2022-04-20T19:24:41+02:00
; #@! TF.GenerationSoftware,Kicad,Pcbnew,6.0.4-6f826c9f35~116~ubuntu21.10.1
; #@! TF.FileFunction,MixedPlating,1,4
FMAT,2
METRIC
; #@! TA.AperFunction,Plated,PTH,ViaDrill
T1C0.400
; #@! TA.AperFunction,Plated,PTH,ComponentDrill
T2C0.800
; #@! TA.AperFunction,Plated,PTH,ComponentDrill
T3C1.000
; #@! TA.AperFunction,Plated,PTH,ComponentDrill
T4C1.100
; #@! TA.AperFunction,Plated,PTH,ComponentDrill
T5C1.190
; #@! TA.AperFunction,Plated,PTH,ComponentDrill
T6C1.700
; #@! TA.AperFunction,NonPlated,NPTH,ComponentDrill
T7C3.200
%
G90
G05
T1
X49.0Y-114.322
X49.784Y-103.124
X50.038Y-114.3
X50.8Y-103.632
X52.07Y-74.168
X52.07Y-85.09
X52.832Y-71.882
X52.832Y-85.852
X53.34Y-110.998
X53.848Y-68.58
X53.848Y-85.852
X53.848Y-103.124
X57.404Y-122.428
X59.436Y-125.73
X115.773Y-107.95
X116.84Y-83.566
X116.84Y-88.138
X117.272Y-97.252
X122.682Y-108.712
X122.682Y-114.3
X124.181Y-97.282
X124.206Y-101.092
X125.222Y-94.488
X129.794Y-68.623
X129.794Y-74.973
X129.794Y-81.323
X129.794Y-87.673
X129.794Y-94.023
X129.794Y-100.373
T2
X59.182Y-57.912
X59.182Y-65.532
X59.182Y-75.184
X59.182Y-82.804
X59.182Y-92.456
X59.182Y-100.076
X59.182Y-109.728
X59.182Y-117.348
X61.722Y-57.912
X61.722Y-65.532
X61.722Y-75.184
X61.722Y-82.804
X61.722Y-92.456
X61.722Y-100.076
X61.722Y-109.728
X61.722Y-117.348
T3
X44.45Y-67.31
X44.45Y-69.85
X44.45Y-72.39
X44.45Y-74.93
X44.45Y-77.47
X44.45Y-80.01
X44.45Y-82.55
X44.45Y-85.09
X44.45Y-87.63
X44.45Y-90.17
X44.45Y-92.71
X44.45Y-95.25
X44.45Y-97.79
X44.45Y-100.33
X44.45Y-102.87
X44.45Y-105.41
X44.45Y-107.95
X44.45Y-110.49
X44.45Y-113.03
X46.99Y-67.31
X46.99Y-69.85
X46.99Y-72.39
X46.99Y-74.93
X46.99Y-77.47
X46.99Y-80.01
X46.99Y-82.55
X46.99Y-85.09
X46.99Y-87.63
X46.99Y-90.17
X46.99Y-92.71
X46.99Y-95.25
X46.99Y-97.79
X46.99Y-100.33
X46.99Y-102.87
X46.99Y-105.41
X46.99Y-107.95
X46.99Y-110.49
X46.99Y-113.03
X49.276Y-129.286
X49.276Y-131.826
X50.546Y-86.36
X50.546Y-88.9
X50.546Y-91.44
X50.546Y-93.98
X51.816Y-129.286
X51.816Y-131.826
X54.356Y-129.286
X54.356Y-131.826
X56.896Y-129.286
X56.896Y-131.826
X59.436Y-129.286
X59.436Y-131.826
X61.976Y-129.286
X61.976Y-131.826
X66.548Y-53.848
X66.548Y-66.548
X66.548Y-71.12
X66.548Y-83.82
X66.548Y-88.392
X66.548Y-101.092
X66.548Y-105.664
X66.548Y-118.364
X69.088Y-53.848
X69.088Y-66.548
X69.088Y-71.12
X69.088Y-83.82
X69.088Y-88.392
X69.088Y-101.092
X69.088Y-105.664
X69.088Y-118.364
X71.628Y-53.848
X71.628Y-66.548
X71.628Y-71.12
X71.628Y-83.82
X71.628Y-88.392
X71.628Y-101.092
X71.628Y-105.664
X71.628Y-118.364
X74.168Y-53.848
X74.168Y-66.548
X74.168Y-71.12
X74.168Y-83.82
X74.168Y-88.392
X74.168Y-101.092
X74.168Y-105.664
X74.168Y-118.364
X76.708Y-53.848
X76.708Y-66.548
X76.708Y-71.12
X76.708Y-83.82
X76.708Y-88.392
X76.708Y-101.092
X76.708Y-105.664
X76.708Y-118.364
X79.248Y-53.848
X79.248Y-66.548
X79.248Y-71.12
X79.248Y-83.82
X79.248Y-88.392
X79.248Y-101.092
X79.248Y-105.664
X79.248Y-118.364
X81.788Y-53.848
X81.788Y-66.548
X81.788Y-71.12
X81.788Y-83.82
X81.788Y-88.392
X81.788Y-101.092
X81.788Y-105.664
X81.788Y-118.364
X84.328Y-53.848
X84.328Y-66.548
X84.328Y-71.12
X84.328Y-83.82
X84.328Y-88.392
X84.328Y-101.092
X84.328Y-105.664
X84.328Y-118.364
X107.696Y-117.856
X107.696Y-120.396
X107.696Y-122.936
X107.696Y-125.476
X107.696Y-128.016
X107.696Y-130.556
X110.236Y-117.856
X110.236Y-120.396
X110.236Y-122.936
X110.236Y-125.476
X110.236Y-128.016
X110.236Y-130.556
X114.808Y-80.772
X114.808Y-83.312
X114.808Y-85.852
X114.808Y-88.392
X114.808Y-92.202
X114.808Y-94.742
X114.808Y-97.282
X114.808Y-99.822
X114.808Y-102.362
X114.808Y-104.902
X118.11Y-117.094
X118.11Y-119.634
X118.11Y-122.174
X118.11Y-124.714
X118.11Y-127.254
X118.11Y-129.794
X118.618Y-67.31
X118.618Y-69.85
X118.618Y-72.39
X118.618Y-74.93
X118.618Y-77.47
X118.618Y-80.01
X118.618Y-82.55
X118.618Y-85.09
X118.618Y-87.63
X118.618Y-90.17
X118.618Y-92.71
X118.618Y-95.25
X118.618Y-97.79
X118.618Y-100.33
X118.618Y-102.87
X118.618Y-105.41
X118.618Y-107.95
X118.618Y-110.49
X118.618Y-113.03
X121.158Y-67.31
X121.158Y-69.85
X121.158Y-72.39
X121.158Y-74.93
X121.158Y-77.47
X121.158Y-80.01
X121.158Y-82.55
X121.158Y-85.09
X121.158Y-87.63
X121.158Y-90.17
X121.158Y-92.71
X121.158Y-95.25
X121.158Y-97.79
X121.158Y-100.33
X121.158Y-102.87
X121.158Y-105.41
X121.158Y-107.95
X121.158Y-110.49
X121.158Y-113.03
X121.666Y-117.094
X121.666Y-119.634
X121.666Y-122.174
X121.666Y-124.714
X121.666Y-127.254
X121.666Y-129.794
T4
X98.298Y-55.88
X98.298Y-58.42
X98.298Y-60.96
X98.298Y-69.342
X98.298Y-71.882
X98.298Y-74.422
X98.298Y-82.804
X98.298Y-85.344
X98.298Y-87.884
X101.6Y-52.832
X101.6Y-62.992
X101.6Y-66.294
X101.6Y-76.454
X101.6Y-79.756
X101.6Y-89.916
T5
X38.862Y-63.754
X38.862Y-66.294
X38.862Y-68.834
X38.862Y-71.374
X38.862Y-73.914
X38.862Y-80.01
X38.862Y-82.55
X38.862Y-90.678
X38.862Y-93.218
X38.862Y-98.044
X38.862Y-100.584
X38.862Y-105.41
X38.862Y-107.95
X38.862Y-110.49
X38.862Y-113.03
X89.916Y-56.388
X89.916Y-58.928
X89.916Y-61.468
X89.916Y-64.008
X89.916Y-73.66
X89.916Y-76.2
X89.916Y-78.74
X89.916Y-81.28
X89.916Y-90.932
X89.916Y-93.472
X89.916Y-96.012
X89.916Y-98.552
X89.916Y-108.204
X89.916Y-110.744
X89.916Y-113.284
X89.916Y-115.824
X99.822Y-94.742
X99.822Y-97.282
X99.822Y-99.822
X99.822Y-104.14
X99.822Y-106.68
X99.822Y-109.22
X99.822Y-113.538
X99.822Y-116.078
X99.822Y-118.618
X106.68Y-56.642
X106.68Y-59.182
X106.68Y-70.104
X106.68Y-72.644
X106.68Y-83.566
X106.68Y-86.106
X109.22Y-94.742
X109.22Y-97.282
X109.22Y-99.822
X109.22Y-102.362
X109.22Y-106.426
X109.22Y-108.966
X109.22Y-111.506
X109.22Y-114.046
X120.015Y-54.61
X120.015Y-57.15
X120.015Y-59.69
X120.015Y-62.23
X127.762Y-66.294
X127.762Y-68.834
X127.762Y-72.644
X127.762Y-75.184
X127.762Y-78.994
X127.762Y-81.534
X127.762Y-85.344
X127.762Y-87.884
X127.762Y-91.694
X127.762Y-94.234
X127.762Y-98.044
X127.762Y-100.584
X127.762Y-112.014
X127.762Y-114.554
T6
X63.5Y-44.45
X67.46Y-44.45
X72.898Y-44.45
X76.858Y-44.45
X82.296Y-44.45
X86.256Y-44.45
X98.91Y-127.0
X101.6Y-44.45
X102.87Y-127.0
X105.56Y-44.45
T7
X37.846Y-44.196
X37.846Y-128.016
X129.286Y-44.196
X129.286Y-128.016
T0
M30
